M48
; DRILL file {KiCad (6.0.8-1)-1} date Wednesday, October 19, 2022 at 02:42:22 PM
; FORMAT={-:-/ absolute / metric / decimal}
; #@! TF.CreationDate,2022-10-19T14:42:22-05:00
; #@! TF.GenerationSoftware,Kicad,Pcbnew,(6.0.8-1)-1
; #@! TF.FileFunction,Plated,1,4,PTH
FMAT,2
METRIC
; #@! TA.AperFunction,Plated,PTH,ViaDrill
T1C0.076
; #@! TA.AperFunction,Plated,PTH,ViaDrill
T2C0.254
; #@! TA.AperFunction,Plated,PTH,ViaDrill
T3C0.400
; #@! TA.AperFunction,Plated,PTH,ComponentDrill
T4C0.700
; #@! TA.AperFunction,Plated,PTH,ComponentDrill
T5C0.750
; #@! TA.AperFunction,Plated,PTH,ComponentDrill
T6C0.800
; #@! TA.AperFunction,Plated,PTH,ComponentDrill
T7C1.000
%
G90
G05
T1
X73.275Y-111.16
X73.275Y-111.4
X73.275Y-113.375
X73.275Y-113.615
X73.515Y-111.16
X73.515Y-111.4
X73.515Y-113.375
X73.515Y-113.615
X73.8Y-163.7
X75.16Y-132.95
X76.475Y-111.16
X76.475Y-111.4
X76.475Y-113.375
X76.475Y-113.615
X76.715Y-111.16
X76.715Y-111.4
X76.715Y-113.375
X76.715Y-113.615
X77.29Y-133.38
X79.675Y-111.165
X79.675Y-111.405
X79.675Y-113.38
X79.675Y-113.62
X79.915Y-111.165
X79.915Y-111.405
X79.915Y-113.38
X79.915Y-113.62
X82.5Y-115.0
X82.875Y-111.165
X82.875Y-111.405
X82.875Y-113.38
X82.875Y-113.62
X83.115Y-111.165
X83.115Y-111.405
X83.115Y-113.38
X83.115Y-113.62
X83.43Y-124.24
X83.5Y-115.0
X84.0Y-115.0
X84.24Y-124.23
X84.89Y-124.21
X85.51Y-124.21
X86.075Y-111.165
X86.075Y-111.405
X86.075Y-113.38
X86.075Y-113.62
X86.315Y-111.165
X86.315Y-111.405
X86.315Y-113.38
X86.315Y-113.62
X86.7Y-115.0
X87.2Y-115.0
X88.4Y-115.0
X88.4Y-129.2
X88.4Y-130.6
X88.55Y-127.972
X88.55Y-128.328
X88.9Y-115.0
X89.285Y-111.16
X89.285Y-111.4
X89.285Y-113.375
X89.285Y-113.615
X89.525Y-111.16
X89.525Y-111.4
X89.525Y-113.375
X89.525Y-113.615
X89.82Y-123.91
X89.9Y-115.0
X89.9Y-129.85
X90.3Y-128.8
X90.5Y-127.4
X90.55Y-130.55
X90.6Y-132.0
X90.6Y-132.5
X90.85Y-121.22
X91.1Y-132.0
X91.1Y-132.5
X91.405Y-124.418
X91.65Y-129.96
X91.893Y-125.993
X91.922Y-131.85
X92.056Y-124.361
X92.099Y-121.576
X92.112Y-123.711
X92.2Y-73.7
X92.278Y-131.85
X92.3Y-128.35
X92.346Y-124.849
X92.409Y-126.398
X92.459Y-127.055
X92.69Y-132.13
X92.699Y-124.495
X92.699Y-125.91
X92.763Y-123.654
X92.819Y-123.003
X93.0Y-131.2
X93.025Y-135.0
X93.025Y-135.475
X93.047Y-129.802
X93.053Y-124.142
X93.1Y-132.15
X93.116Y-127.105
X93.166Y-127.762
X93.378Y-125.203
X93.4Y-123.79
X93.526Y-122.296
X93.76Y-124.849
X93.767Y-125.563
X93.823Y-127.812
X93.88Y-128.476
X93.958Y-123.237
X93.958Y-127.168
X94.177Y-122.24
X94.304Y-127.515
X94.311Y-122.883
X94.311Y-126.122
X94.318Y-124.304
X94.665Y-123.944
X94.668Y-125.206
X94.672Y-122.537
X94.672Y-126.539
X94.672Y-127.882
X94.68Y-121.61
X95.018Y-122.883
X95.018Y-126.108
X95.025Y-124.29
X95.025Y-127.529
X95.103Y-128.823
X95.146Y-128.172
X95.153Y-122.24
X95.289Y-119.989
X95.372Y-123.237
X95.57Y-124.849
X95.577Y-125.563
X95.733Y-123.597
X95.733Y-126.822
X95.782Y-122.303
X95.81Y-128.116
X95.86Y-122.947
X96.001Y-125.21
X96.277Y-126.263
X96.284Y-124.149
X96.525Y-123.003
X96.567Y-123.654
X96.574Y-126.758
X96.638Y-125.917
X96.65Y-128.425
X96.991Y-124.856
X96.991Y-125.563
X97.075Y-118.075
X97.225Y-123.703
X97.225Y-126.702
X97.281Y-124.368
X97.281Y-126.051
X97.345Y-125.21
X97.5Y-130.4
X97.918Y-125.994
X97.932Y-124.411
X97.988Y-125.075
X98.483Y-122.452
X98.7Y-121.3
X98.799Y-127.285
X99.413Y-125.56
X99.7Y-115.0
X99.825Y-125.6
X100.08Y-111.28
X100.08Y-111.52
X100.08Y-113.48
X100.08Y-113.72
X100.32Y-111.28
X100.32Y-111.52
X100.32Y-113.48
X100.32Y-113.72
X100.7Y-115.0
X100.975Y-126.325
X101.2Y-115.0
X102.7Y-126.66
X102.8Y-130.15
X103.275Y-111.28
X103.275Y-111.52
X103.28Y-113.48
X103.28Y-113.72
X103.35Y-130.15
X103.515Y-111.28
X103.515Y-111.52
X103.52Y-113.48
X103.52Y-113.72
X104.4Y-111.52
X105.13Y-125.42
X105.275Y-144.475
X105.275Y-144.715
X105.275Y-154.65
X105.275Y-154.89
X105.425Y-129.725
X105.515Y-144.475
X105.515Y-144.715
X105.515Y-154.65
X105.515Y-154.89
X105.55Y-129.1
X105.6Y-115.0
X106.1Y-115.0
X106.475Y-111.28
X106.475Y-111.52
X106.48Y-113.48
X106.48Y-113.72
X106.715Y-111.28
X106.715Y-111.52
X106.72Y-113.48
X106.72Y-113.72
X106.94Y-126.27
X107.475Y-144.475
X107.475Y-144.715
X107.475Y-154.65
X107.475Y-154.89
X107.715Y-144.475
X107.715Y-144.715
X107.715Y-154.65
X107.715Y-154.89
X107.85Y-126.24
X108.22Y-123.31
X108.8Y-115.0
X109.3Y-115.0
X109.47Y-124.58
X109.675Y-111.28
X109.675Y-111.52
X109.68Y-113.48
X109.68Y-113.72
X109.915Y-111.28
X109.915Y-111.52
X109.92Y-113.48
X109.92Y-113.72
X110.3Y-115.0
X110.8Y-115.0
X112.5Y-115.0
X112.875Y-111.28
X112.875Y-111.52
X112.88Y-113.48
X112.88Y-113.72
X113.115Y-111.28
X113.115Y-111.52
X113.12Y-113.48
X113.12Y-113.72
X113.5Y-115.0
X114.0Y-115.0
X114.225Y-74.8
X116.075Y-111.28
X116.075Y-111.52
X116.08Y-113.48
X116.08Y-113.72
X116.315Y-111.28
X116.315Y-111.52
X116.32Y-113.48
X116.32Y-113.72
X117.21Y-111.28
T2
X81.36Y-128.66
X82.06Y-128.66
X82.36Y-131.16
X82.36Y-131.86
X82.76Y-128.66
X83.66Y-130.46
X84.36Y-130.46
X88.7Y-89.4
X89.65Y-86.8
X102.425Y-131.35
X105.175Y-123.8
X106.125Y-124.75
X113.5Y-120.25
X113.5Y-121.7
X116.6Y-174.3
T3
X71.53Y-122.56
X71.53Y-131.36
X72.63Y-122.56
X72.63Y-131.36
X73.73Y-122.56
X73.73Y-123.76
X73.73Y-124.96
X73.73Y-126.06
X73.73Y-128.16
X73.73Y-129.16
X73.73Y-130.26
X73.73Y-131.36
X74.83Y-122.56
X74.83Y-123.76
X74.83Y-124.96
X74.83Y-126.06
X74.83Y-128.16
X74.83Y-129.16
X74.83Y-130.26
X74.83Y-131.36
X75.5Y-171.0
X75.93Y-122.56
X75.93Y-123.76
X75.93Y-124.96
X75.93Y-129.16
X75.93Y-130.26
X75.93Y-131.36
X77.0Y-86.9
X77.0Y-87.9
X77.03Y-122.56
X77.03Y-123.76
X77.03Y-124.96
X77.03Y-129.16
X77.03Y-130.26
X77.03Y-131.36
X78.0Y-86.9
X78.0Y-87.9
X80.02Y-47.14
X80.1Y-58.7
X82.1Y-47.1
X82.1Y-49.5
X82.1Y-55.1
X82.1Y-57.5
X82.1Y-126.3
X83.3Y-47.1
X83.3Y-48.3
X83.3Y-49.5
X83.3Y-55.1
X83.3Y-56.3
X83.3Y-57.5
X83.3Y-126.3
X83.55Y-138.15
X83.55Y-143.35
X83.6Y-158.7
X83.7Y-153.55
X84.5Y-126.3
X85.1Y-81.1
X85.1Y-82.1
X85.1Y-83.1
X85.7Y-126.3
X85.7Y-127.3
X85.7Y-128.3
X85.7Y-134.3
X87.15Y-118.6
X89.5Y-95.1
X89.5Y-96.1
X90.5Y-95.1
X90.5Y-96.1
X92.0Y-104.2
X94.6Y-94.9
X94.6Y-95.9
X95.5Y-91.75
X95.6Y-94.9
X95.6Y-95.9
X96.2Y-132.55
X97.95Y-96.35
X98.75Y-135.7
X98.925Y-93.35
X101.25Y-55.25
X101.6Y-58.7
X102.75Y-55.25
X103.8Y-124.2
X104.25Y-55.25
X105.6Y-121.7
X105.75Y-55.25
X106.1Y-61.9
X107.25Y-55.25
X108.75Y-55.25
X109.48Y-129.01
X110.25Y-55.25
X117.0Y-97.2
X117.75Y-60.0
X117.75Y-65.0
X118.5Y-100.35
X119.39Y-105.04
X120.29Y-101.62
X121.6Y-97.0
X121.6Y-97.9
X122.5Y-97.0
X122.5Y-97.9
T4
X86.5Y-117.3
X120.6Y-117.0
T5
X77.094Y-92.549
X77.094Y-94.049
X77.094Y-95.549
X77.094Y-97.049
X77.094Y-98.549
X77.094Y-100.049
X77.094Y-101.549
X77.094Y-103.049
X77.094Y-104.549
X80.394Y-92.049
X80.394Y-93.549
X80.394Y-95.049
X80.394Y-96.549
X80.394Y-98.049
X80.394Y-99.549
X80.394Y-101.049
X80.394Y-102.549
X80.394Y-104.049
X83.694Y-91.549
X83.694Y-93.049
X83.694Y-94.549
X83.694Y-96.049
X83.694Y-97.549
X83.694Y-99.049
X83.694Y-100.549
X83.694Y-102.049
X83.694Y-103.549
X83.694Y-105.049
X107.674Y-92.549
X107.674Y-94.049
X107.674Y-95.549
X107.674Y-97.049
X107.674Y-98.549
X107.674Y-100.049
X107.674Y-101.549
X107.674Y-103.049
X107.674Y-104.549
X110.974Y-92.049
X110.974Y-93.549
X110.974Y-95.049
X110.974Y-96.549
X110.974Y-98.049
X110.974Y-99.549
X110.974Y-101.049
X110.974Y-102.549
X110.974Y-104.049
X114.274Y-91.549
X114.274Y-93.049
X114.274Y-94.549
X114.274Y-96.049
X114.274Y-97.549
X114.274Y-99.049
X114.274Y-100.549
X114.274Y-102.049
X114.274Y-103.549
X114.274Y-105.049
T6
X91.1Y-46.86
X91.1Y-49.4
X93.64Y-46.86
X93.64Y-49.4
X94.6Y-144.46
X94.6Y-147.0
X95.15Y-80.46
X95.15Y-83.0
X97.14Y-144.46
X97.14Y-147.0
X98.775Y-80.46
X98.775Y-83.0
X108.42Y-70.61
X110.96Y-70.61
X115.31Y-163.55
X117.85Y-163.55
X119.9Y-107.04
X119.9Y-109.58
T7
X63.96Y-57.51
X63.96Y-60.05
X63.96Y-62.59
X63.96Y-65.13
X64.0Y-47.56
X64.0Y-50.1
X64.0Y-75.5
X64.0Y-78.04
X64.0Y-80.58
X64.0Y-83.12
X64.0Y-85.66
X64.0Y-88.2
X64.0Y-90.74
X64.0Y-93.28
X64.0Y-95.82
X64.0Y-98.36
X64.0Y-100.9
X64.0Y-103.44
X64.0Y-105.98
X64.0Y-108.52
X64.0Y-111.06
X64.0Y-113.6
X64.0Y-116.14
X64.0Y-118.68
X64.0Y-121.22
X64.0Y-123.76
X64.0Y-126.3
X64.0Y-128.84
X64.0Y-131.38
X64.0Y-133.92
X64.0Y-136.46
X64.0Y-139.0
X64.0Y-141.54
X64.0Y-144.08
X64.0Y-146.62
X64.0Y-149.16
X64.0Y-151.7
X64.0Y-154.24
X64.0Y-156.78
X64.0Y-159.32
X64.0Y-161.86
X64.0Y-164.4
X66.5Y-57.51
X66.5Y-60.05
X66.5Y-62.59
X66.5Y-65.13
X66.54Y-75.5
X66.54Y-78.04
X66.54Y-80.58
X66.54Y-83.12
X66.54Y-85.66
X66.54Y-88.2
X66.54Y-90.74
X66.54Y-93.28
X66.54Y-95.82
X66.54Y-98.36
X66.54Y-100.9
X66.54Y-103.44
X66.54Y-105.98
X66.54Y-108.52
X66.54Y-111.06
X66.54Y-113.6
X66.54Y-116.14
X66.54Y-118.68
X66.54Y-121.22
X66.54Y-123.76
X66.54Y-126.3
X66.54Y-128.84
X66.54Y-131.38
X66.54Y-133.92
X66.54Y-136.46
X66.54Y-139.0
X66.54Y-141.54
X66.54Y-144.08
X66.54Y-146.62
X66.54Y-149.16
X66.54Y-151.7
X66.54Y-154.24
X66.54Y-156.78
X66.54Y-159.32
X66.54Y-161.86
X66.54Y-164.4
X79.0Y-137.0
X79.0Y-139.54
X79.0Y-142.08
X79.0Y-144.62
X79.0Y-147.16
X79.0Y-149.7
X79.0Y-152.24
X79.0Y-154.78
X79.0Y-157.32
X79.0Y-159.86
X81.54Y-137.0
X81.54Y-139.54
X81.54Y-142.08
X81.54Y-144.62
X81.54Y-147.16
X81.54Y-149.7
X81.54Y-152.24
X81.54Y-154.78
X81.54Y-157.32
X81.54Y-159.86
X83.25Y-169.975
X83.25Y-172.515
X109.95Y-137.0
X109.95Y-139.54
X109.95Y-142.08
X109.95Y-144.62
X109.95Y-147.16
X109.95Y-149.7
X109.95Y-152.24
X109.95Y-154.78
X109.95Y-157.32
X109.95Y-159.86
X112.49Y-137.0
X112.49Y-139.54
X112.49Y-142.08
X112.49Y-144.62
X112.49Y-147.16
X112.49Y-149.7
X112.49Y-152.24
X112.49Y-154.78
X112.49Y-157.32
X112.49Y-159.86
X119.3Y-120.9
X119.3Y-123.44
X119.3Y-125.98
X119.3Y-128.52
X119.3Y-131.06
X119.3Y-133.6
X119.3Y-136.14
X124.96Y-75.5
X124.96Y-78.04
X124.96Y-80.58
X124.96Y-83.12
X124.96Y-85.66
X124.96Y-88.2
X124.96Y-90.74
X124.96Y-93.28
X124.96Y-95.82
X124.96Y-98.36
X124.96Y-100.9
X124.96Y-103.44
X124.96Y-105.98
X124.96Y-108.52
X124.96Y-111.06
X124.96Y-113.6
X124.96Y-116.14
X124.96Y-118.68
X124.96Y-121.22
X124.96Y-123.76
X124.96Y-126.3
X124.96Y-128.84
X124.96Y-131.38
X124.96Y-133.92
X124.96Y-136.46
X124.96Y-139.0
X124.96Y-141.54
X124.96Y-144.08
X124.96Y-146.62
X124.96Y-149.16
X124.96Y-151.7
X124.96Y-154.24
X124.96Y-156.78
X124.96Y-159.32
X124.96Y-161.86
X124.96Y-164.4
X125.0Y-57.51
X125.0Y-60.05
X125.0Y-62.59
X125.0Y-65.13
X127.5Y-47.56
X127.5Y-50.1
X127.5Y-75.5
X127.5Y-78.04
X127.5Y-80.58
X127.5Y-83.12
X127.5Y-85.66
X127.5Y-88.2
X127.5Y-90.74
X127.5Y-93.28
X127.5Y-95.82
X127.5Y-98.36
X127.5Y-100.9
X127.5Y-103.44
X127.5Y-105.98
X127.5Y-108.52
X127.5Y-111.06
X127.5Y-113.6
X127.5Y-116.14
X127.5Y-118.68
X127.5Y-121.22
X127.5Y-123.76
X127.5Y-126.3
X127.5Y-128.84
X127.5Y-131.38
X127.5Y-133.92
X127.5Y-136.46
X127.5Y-139.0
X127.5Y-141.54
X127.5Y-144.08
X127.5Y-146.62
X127.5Y-149.16
X127.5Y-151.7
X127.5Y-154.24
X127.5Y-156.78
X127.5Y-159.32
X127.5Y-161.86
X127.5Y-164.4
X127.54Y-57.51
X127.54Y-60.05
X127.54Y-62.59
X127.54Y-65.13
T0
M30
