%TF.GenerationSoftware,KiCad,Pcbnew,(6.0.8-1)-1*%
%TF.CreationDate,2022-10-19T14:42:34-05:00*%
%TF.ProjectId,NR1B-SQT56,4e523142-2d53-4515-9435-362e6b696361,rev?*%
%TF.SameCoordinates,Original*%
%TF.FileFunction,Drillmap*%
%TF.FilePolarity,Positive*%
%FSLAX45Y45*%
G04 Gerber Fmt 4.5, Leading zero omitted, Abs format (unit mm)*
G04 Created by KiCad (PCBNEW (6.0.8-1)-1) date 2022-10-19 14:42:34*
%MOMM*%
%LPD*%
G01*
G04 APERTURE LIST*
%ADD10C,0.100000*%
%ADD11C,0.200000*%
%ADD12C,0.007620*%
%ADD13C,0.025400*%
%ADD14C,0.040000*%
%ADD15C,0.070000*%
%ADD16C,0.075000*%
%ADD17C,0.080000*%
G04 APERTURE END LIST*
D10*
X13099997Y-4407000D02*
G75*
G03*
X13047000Y-4351000I-53697J2260D01*
G01*
X13045000Y-17741000D02*
G75*
G03*
X13100000Y-17686000I0J55000D01*
G01*
X13100000Y-4407000D02*
X13100000Y-17686000D01*
X6050001Y-17686000D02*
G75*
G03*
X6103000Y-17741000I53699J-1290D01*
G01*
X6105000Y-4351000D02*
G75*
G03*
X6050000Y-4406000I0J-55000D01*
G01*
X6105000Y-4351000D02*
X13047000Y-4351000D01*
X6050000Y-4406000D02*
X6050000Y-17686000D01*
X13045000Y-17741000D02*
X6103000Y-17741000D01*
D11*
D12*
X7323690Y-11112190D02*
X7331310Y-11119810D01*
X7331310Y-11112190D02*
X7323690Y-11119810D01*
X7323690Y-11136190D02*
X7331310Y-11143810D01*
X7331310Y-11136190D02*
X7323690Y-11143810D01*
X7323690Y-11333690D02*
X7331310Y-11341310D01*
X7331310Y-11333690D02*
X7323690Y-11341310D01*
X7323690Y-11357690D02*
X7331310Y-11365310D01*
X7331310Y-11357690D02*
X7323690Y-11365310D01*
X7347690Y-11112190D02*
X7355310Y-11119810D01*
X7355310Y-11112190D02*
X7347690Y-11119810D01*
X7347690Y-11136190D02*
X7355310Y-11143810D01*
X7355310Y-11136190D02*
X7347690Y-11143810D01*
X7347690Y-11333690D02*
X7355310Y-11341310D01*
X7355310Y-11333690D02*
X7347690Y-11341310D01*
X7347690Y-11357690D02*
X7355310Y-11365310D01*
X7355310Y-11357690D02*
X7347690Y-11365310D01*
X7376190Y-16366190D02*
X7383810Y-16373810D01*
X7383810Y-16366190D02*
X7376190Y-16373810D01*
X7512190Y-13291190D02*
X7519810Y-13298810D01*
X7519810Y-13291190D02*
X7512190Y-13298810D01*
X7643690Y-11112190D02*
X7651310Y-11119810D01*
X7651310Y-11112190D02*
X7643690Y-11119810D01*
X7643690Y-11136190D02*
X7651310Y-11143810D01*
X7651310Y-11136190D02*
X7643690Y-11143810D01*
X7643690Y-11333690D02*
X7651310Y-11341310D01*
X7651310Y-11333690D02*
X7643690Y-11341310D01*
X7643690Y-11357690D02*
X7651310Y-11365310D01*
X7651310Y-11357690D02*
X7643690Y-11365310D01*
X7667690Y-11112190D02*
X7675310Y-11119810D01*
X7675310Y-11112190D02*
X7667690Y-11119810D01*
X7667690Y-11136190D02*
X7675310Y-11143810D01*
X7675310Y-11136190D02*
X7667690Y-11143810D01*
X7667690Y-11333690D02*
X7675310Y-11341310D01*
X7675310Y-11333690D02*
X7667690Y-11341310D01*
X7667690Y-11357690D02*
X7675310Y-11365310D01*
X7675310Y-11357690D02*
X7667690Y-11365310D01*
X7725190Y-13334190D02*
X7732810Y-13341810D01*
X7732810Y-13334190D02*
X7725190Y-13341810D01*
X7963690Y-11112690D02*
X7971310Y-11120310D01*
X7971310Y-11112690D02*
X7963690Y-11120310D01*
X7963690Y-11136690D02*
X7971310Y-11144310D01*
X7971310Y-11136690D02*
X7963690Y-11144310D01*
X7963690Y-11334190D02*
X7971310Y-11341810D01*
X7971310Y-11334190D02*
X7963690Y-11341810D01*
X7963690Y-11358190D02*
X7971310Y-11365810D01*
X7971310Y-11358190D02*
X7963690Y-11365810D01*
X7987690Y-11112690D02*
X7995310Y-11120310D01*
X7995310Y-11112690D02*
X7987690Y-11120310D01*
X7987690Y-11136690D02*
X7995310Y-11144310D01*
X7995310Y-11136690D02*
X7987690Y-11144310D01*
X7987690Y-11334190D02*
X7995310Y-11341810D01*
X7995310Y-11334190D02*
X7987690Y-11341810D01*
X7987690Y-11358190D02*
X7995310Y-11365810D01*
X7995310Y-11358190D02*
X7987690Y-11365810D01*
X8246190Y-11496190D02*
X8253810Y-11503810D01*
X8253810Y-11496190D02*
X8246190Y-11503810D01*
X8283690Y-11112690D02*
X8291310Y-11120310D01*
X8291310Y-11112690D02*
X8283690Y-11120310D01*
X8283690Y-11136690D02*
X8291310Y-11144310D01*
X8291310Y-11136690D02*
X8283690Y-11144310D01*
X8283690Y-11334190D02*
X8291310Y-11341810D01*
X8291310Y-11334190D02*
X8283690Y-11341810D01*
X8283690Y-11358190D02*
X8291310Y-11365810D01*
X8291310Y-11358190D02*
X8283690Y-11365810D01*
X8307690Y-11112690D02*
X8315310Y-11120310D01*
X8315310Y-11112690D02*
X8307690Y-11120310D01*
X8307690Y-11136690D02*
X8315310Y-11144310D01*
X8315310Y-11136690D02*
X8307690Y-11144310D01*
X8307690Y-11334190D02*
X8315310Y-11341810D01*
X8315310Y-11334190D02*
X8307690Y-11341810D01*
X8307690Y-11358190D02*
X8315310Y-11365810D01*
X8315310Y-11358190D02*
X8307690Y-11365810D01*
X8339190Y-12420190D02*
X8346810Y-12427810D01*
X8346810Y-12420190D02*
X8339190Y-12427810D01*
X8346190Y-11496190D02*
X8353810Y-11503810D01*
X8353810Y-11496190D02*
X8346190Y-11503810D01*
X8396190Y-11496190D02*
X8403810Y-11503810D01*
X8403810Y-11496190D02*
X8396190Y-11503810D01*
X8420190Y-12419190D02*
X8427810Y-12426810D01*
X8427810Y-12419190D02*
X8420190Y-12426810D01*
X8485190Y-12417190D02*
X8492810Y-12424810D01*
X8492810Y-12417190D02*
X8485190Y-12424810D01*
X8547190Y-12417190D02*
X8554810Y-12424810D01*
X8554810Y-12417190D02*
X8547190Y-12424810D01*
X8603690Y-11112690D02*
X8611310Y-11120310D01*
X8611310Y-11112690D02*
X8603690Y-11120310D01*
X8603690Y-11136690D02*
X8611310Y-11144310D01*
X8611310Y-11136690D02*
X8603690Y-11144310D01*
X8603690Y-11334190D02*
X8611310Y-11341810D01*
X8611310Y-11334190D02*
X8603690Y-11341810D01*
X8603690Y-11358190D02*
X8611310Y-11365810D01*
X8611310Y-11358190D02*
X8603690Y-11365810D01*
X8627690Y-11112690D02*
X8635310Y-11120310D01*
X8635310Y-11112690D02*
X8627690Y-11120310D01*
X8627690Y-11136690D02*
X8635310Y-11144310D01*
X8635310Y-11136690D02*
X8627690Y-11144310D01*
X8627690Y-11334190D02*
X8635310Y-11341810D01*
X8635310Y-11334190D02*
X8627690Y-11341810D01*
X8627690Y-11358190D02*
X8635310Y-11365810D01*
X8635310Y-11358190D02*
X8627690Y-11365810D01*
X8666190Y-11496190D02*
X8673810Y-11503810D01*
X8673810Y-11496190D02*
X8666190Y-11503810D01*
X8716190Y-11496190D02*
X8723810Y-11503810D01*
X8723810Y-11496190D02*
X8716190Y-11503810D01*
X8836190Y-11496190D02*
X8843810Y-11503810D01*
X8843810Y-11496190D02*
X8836190Y-11503810D01*
X8836190Y-12916190D02*
X8843810Y-12923810D01*
X8843810Y-12916190D02*
X8836190Y-12923810D01*
X8836190Y-13056190D02*
X8843810Y-13063810D01*
X8843810Y-13056190D02*
X8836190Y-13063810D01*
X8851190Y-12793410D02*
X8858810Y-12801030D01*
X8858810Y-12793410D02*
X8851190Y-12801030D01*
X8851190Y-12828970D02*
X8858810Y-12836590D01*
X8858810Y-12828970D02*
X8851190Y-12836590D01*
X8886190Y-11496190D02*
X8893810Y-11503810D01*
X8893810Y-11496190D02*
X8886190Y-11503810D01*
X8924690Y-11112190D02*
X8932310Y-11119810D01*
X8932310Y-11112190D02*
X8924690Y-11119810D01*
X8924690Y-11136190D02*
X8932310Y-11143810D01*
X8932310Y-11136190D02*
X8924690Y-11143810D01*
X8924690Y-11333690D02*
X8932310Y-11341310D01*
X8932310Y-11333690D02*
X8924690Y-11341310D01*
X8924690Y-11357690D02*
X8932310Y-11365310D01*
X8932310Y-11357690D02*
X8924690Y-11365310D01*
X8948690Y-11112190D02*
X8956310Y-11119810D01*
X8956310Y-11112190D02*
X8948690Y-11119810D01*
X8948690Y-11136190D02*
X8956310Y-11143810D01*
X8956310Y-11136190D02*
X8948690Y-11143810D01*
X8948690Y-11333690D02*
X8956310Y-11341310D01*
X8956310Y-11333690D02*
X8948690Y-11341310D01*
X8948690Y-11357690D02*
X8956310Y-11365310D01*
X8956310Y-11357690D02*
X8948690Y-11365310D01*
X8978190Y-12387190D02*
X8985810Y-12394810D01*
X8985810Y-12387190D02*
X8978190Y-12394810D01*
X8986190Y-11496190D02*
X8993810Y-11503810D01*
X8993810Y-11496190D02*
X8986190Y-11503810D01*
X8986190Y-12981190D02*
X8993810Y-12988810D01*
X8993810Y-12981190D02*
X8986190Y-12988810D01*
X9026190Y-12876190D02*
X9033810Y-12883810D01*
X9033810Y-12876190D02*
X9026190Y-12883810D01*
X9046190Y-12736190D02*
X9053810Y-12743810D01*
X9053810Y-12736190D02*
X9046190Y-12743810D01*
X9051190Y-13051190D02*
X9058810Y-13058810D01*
X9058810Y-13051190D02*
X9051190Y-13058810D01*
X9056190Y-13196190D02*
X9063810Y-13203810D01*
X9063810Y-13196190D02*
X9056190Y-13203810D01*
X9056190Y-13246190D02*
X9063810Y-13253810D01*
X9063810Y-13246190D02*
X9056190Y-13253810D01*
X9081190Y-12118190D02*
X9088810Y-12125810D01*
X9088810Y-12118190D02*
X9081190Y-12125810D01*
X9106190Y-13196190D02*
X9113810Y-13203810D01*
X9113810Y-13196190D02*
X9106190Y-13203810D01*
X9106190Y-13246190D02*
X9113810Y-13253810D01*
X9113810Y-13246190D02*
X9106190Y-13253810D01*
X9136696Y-12437953D02*
X9144316Y-12445573D01*
X9144316Y-12437953D02*
X9136696Y-12445573D01*
X9161190Y-12992190D02*
X9168810Y-12999810D01*
X9168810Y-12992190D02*
X9161190Y-12999810D01*
X9185470Y-12595470D02*
X9193090Y-12603090D01*
X9193090Y-12595470D02*
X9185470Y-12603090D01*
X9188410Y-13181190D02*
X9196030Y-13188810D01*
X9196030Y-13181190D02*
X9188410Y-13188810D01*
X9201750Y-12432296D02*
X9209370Y-12439916D01*
X9209370Y-12432296D02*
X9201750Y-12439916D01*
X9206088Y-12153792D02*
X9213708Y-12161412D01*
X9213708Y-12153792D02*
X9206088Y-12161412D01*
X9207407Y-12367243D02*
X9215027Y-12374863D01*
X9215027Y-12367243D02*
X9207407Y-12374863D01*
X9216190Y-7366190D02*
X9223810Y-7373810D01*
X9223810Y-7366190D02*
X9216190Y-7373810D01*
X9223970Y-13181190D02*
X9231590Y-13188810D01*
X9231590Y-13181190D02*
X9223970Y-13188810D01*
X9226190Y-12831190D02*
X9233810Y-12838810D01*
X9233810Y-12831190D02*
X9226190Y-12838810D01*
X9230742Y-12481087D02*
X9238362Y-12488707D01*
X9238362Y-12481087D02*
X9230742Y-12488707D01*
X9237106Y-12635943D02*
X9244726Y-12643563D01*
X9244726Y-12635943D02*
X9237106Y-12643563D01*
X9242055Y-12701704D02*
X9249675Y-12709324D01*
X9249675Y-12701704D02*
X9242055Y-12709324D01*
X9265190Y-13209190D02*
X9272810Y-13216810D01*
X9272810Y-13209190D02*
X9265190Y-13216810D01*
X9266097Y-12445731D02*
X9273717Y-12453351D01*
X9273717Y-12445731D02*
X9266097Y-12453351D01*
X9266097Y-12587153D02*
X9273717Y-12594773D01*
X9273717Y-12587153D02*
X9266097Y-12594773D01*
X9272461Y-12361586D02*
X9280081Y-12369206D01*
X9280081Y-12361586D02*
X9272461Y-12369206D01*
X9278118Y-12296532D02*
X9285738Y-12304152D01*
X9285738Y-12296532D02*
X9278118Y-12304152D01*
X9296190Y-13116190D02*
X9303810Y-13123810D01*
X9303810Y-13116190D02*
X9296190Y-13123810D01*
X9298690Y-13496190D02*
X9306310Y-13503810D01*
X9306310Y-13496190D02*
X9298690Y-13503810D01*
X9298690Y-13543690D02*
X9306310Y-13551310D01*
X9306310Y-13543690D02*
X9298690Y-13551310D01*
X9300841Y-12976361D02*
X9308461Y-12983981D01*
X9308461Y-12976361D02*
X9300841Y-12983981D01*
X9301452Y-12410376D02*
X9309072Y-12417996D01*
X9309072Y-12410376D02*
X9301452Y-12417996D01*
X9306190Y-13211190D02*
X9313810Y-13218810D01*
X9313810Y-13211190D02*
X9306190Y-13218810D01*
X9307816Y-12706654D02*
X9315436Y-12714274D01*
X9315436Y-12706654D02*
X9307816Y-12714274D01*
X9312766Y-12772415D02*
X9320386Y-12780035D01*
X9320386Y-12772415D02*
X9312766Y-12780035D01*
X9333979Y-12516442D02*
X9341599Y-12524062D01*
X9341599Y-12516442D02*
X9333979Y-12524062D01*
X9336190Y-12375190D02*
X9343810Y-12382810D01*
X9343810Y-12375190D02*
X9336190Y-12382810D01*
X9348828Y-12225821D02*
X9356448Y-12233441D01*
X9356448Y-12225821D02*
X9348828Y-12233441D01*
X9372163Y-12481087D02*
X9379783Y-12488707D01*
X9379783Y-12481087D02*
X9372163Y-12488707D01*
X9372870Y-12552504D02*
X9380490Y-12560124D01*
X9380490Y-12552504D02*
X9372870Y-12560124D01*
X9378527Y-12777364D02*
X9386147Y-12784984D01*
X9386147Y-12777364D02*
X9378527Y-12784984D01*
X9384184Y-12843832D02*
X9391804Y-12851452D01*
X9391804Y-12843832D02*
X9384184Y-12851452D01*
X9391962Y-12319866D02*
X9399582Y-12327486D01*
X9399582Y-12319866D02*
X9391962Y-12327486D01*
X9391962Y-12713018D02*
X9399582Y-12720638D01*
X9399582Y-12713018D02*
X9391962Y-12720638D01*
X9413882Y-12220164D02*
X9421502Y-12227784D01*
X9421502Y-12220164D02*
X9413882Y-12227784D01*
X9426610Y-12747666D02*
X9434230Y-12755286D01*
X9434230Y-12747666D02*
X9426610Y-12755286D01*
X9427317Y-12284511D02*
X9434937Y-12292131D01*
X9434937Y-12284511D02*
X9427317Y-12292131D01*
X9427317Y-12608366D02*
X9434937Y-12615986D01*
X9434937Y-12608366D02*
X9427317Y-12615986D01*
X9428024Y-12426639D02*
X9435644Y-12434259D01*
X9435644Y-12426639D02*
X9428024Y-12434259D01*
X9462673Y-12390577D02*
X9470293Y-12398197D01*
X9470293Y-12390577D02*
X9462673Y-12398197D01*
X9463026Y-12516796D02*
X9470646Y-12524416D01*
X9470646Y-12516796D02*
X9463026Y-12524416D01*
X9463380Y-12249863D02*
X9471000Y-12257483D01*
X9471000Y-12249863D02*
X9463380Y-12257483D01*
X9463380Y-12650085D02*
X9471000Y-12657705D01*
X9471000Y-12650085D02*
X9463380Y-12657705D01*
X9463380Y-12784436D02*
X9471000Y-12792056D01*
X9471000Y-12784436D02*
X9463380Y-12792056D01*
X9464190Y-12157190D02*
X9471810Y-12164810D01*
X9471810Y-12157190D02*
X9464190Y-12164810D01*
X9498028Y-12284511D02*
X9505648Y-12292131D01*
X9505648Y-12284511D02*
X9498028Y-12292131D01*
X9498028Y-12606952D02*
X9505648Y-12614572D01*
X9505648Y-12606952D02*
X9498028Y-12614572D01*
X9498735Y-12425225D02*
X9506355Y-12432845D01*
X9506355Y-12425225D02*
X9498735Y-12432845D01*
X9498735Y-12749080D02*
X9506355Y-12756700D01*
X9506355Y-12749080D02*
X9498735Y-12756700D01*
X9506513Y-12878481D02*
X9514133Y-12886101D01*
X9514133Y-12878481D02*
X9506513Y-12886101D01*
X9510756Y-12813427D02*
X9518376Y-12821047D01*
X9518376Y-12813427D02*
X9510756Y-12821047D01*
X9511463Y-12220164D02*
X9519083Y-12227784D01*
X9519083Y-12220164D02*
X9511463Y-12227784D01*
X9525101Y-11995101D02*
X9532721Y-12002721D01*
X9532721Y-11995101D02*
X9525101Y-12002721D01*
X9533383Y-12319866D02*
X9541003Y-12327486D01*
X9541003Y-12319866D02*
X9533383Y-12327486D01*
X9553182Y-12481087D02*
X9560802Y-12488707D01*
X9560802Y-12481087D02*
X9553182Y-12488707D01*
X9553889Y-12552504D02*
X9561509Y-12560124D01*
X9561509Y-12552504D02*
X9553889Y-12560124D01*
X9569446Y-12355929D02*
X9577066Y-12363549D01*
X9577066Y-12355929D02*
X9569446Y-12363549D01*
X9569446Y-12678369D02*
X9577066Y-12685989D01*
X9577066Y-12678369D02*
X9569446Y-12685989D01*
X9574395Y-12226528D02*
X9582015Y-12234148D01*
X9582015Y-12226528D02*
X9574395Y-12234148D01*
X9577224Y-12807770D02*
X9584844Y-12815390D01*
X9584844Y-12807770D02*
X9577224Y-12815390D01*
X9582174Y-12290875D02*
X9589794Y-12298495D01*
X9589794Y-12290875D02*
X9582174Y-12298495D01*
X9596316Y-12517149D02*
X9603936Y-12524769D01*
X9603936Y-12517149D02*
X9596316Y-12524769D01*
X9623893Y-12622508D02*
X9631513Y-12630128D01*
X9631513Y-12622508D02*
X9623893Y-12630128D01*
X9624600Y-12411083D02*
X9632220Y-12418703D01*
X9632220Y-12411083D02*
X9624600Y-12418703D01*
X9648642Y-12296532D02*
X9656262Y-12304152D01*
X9656262Y-12296532D02*
X9648642Y-12304152D01*
X9652884Y-12361586D02*
X9660504Y-12369206D01*
X9660504Y-12361586D02*
X9652884Y-12369206D01*
X9653591Y-12672006D02*
X9661211Y-12679626D01*
X9661211Y-12672006D02*
X9653591Y-12679626D01*
X9659955Y-12587860D02*
X9667575Y-12595480D01*
X9667575Y-12587860D02*
X9659955Y-12595480D01*
X9661190Y-12838690D02*
X9668810Y-12846310D01*
X9668810Y-12838690D02*
X9661190Y-12846310D01*
X9695311Y-12481794D02*
X9702931Y-12489414D01*
X9702931Y-12481794D02*
X9695311Y-12489414D01*
X9695311Y-12552504D02*
X9702931Y-12560124D01*
X9702931Y-12552504D02*
X9695311Y-12560124D01*
X9703690Y-11803690D02*
X9711310Y-11811310D01*
X9711310Y-11803690D02*
X9703690Y-11811310D01*
X9718645Y-12366535D02*
X9726265Y-12374155D01*
X9726265Y-12366535D02*
X9718645Y-12374155D01*
X9718645Y-12666349D02*
X9726265Y-12673969D01*
X9726265Y-12666349D02*
X9718645Y-12673969D01*
X9724302Y-12433003D02*
X9731922Y-12440623D01*
X9731922Y-12433003D02*
X9724302Y-12440623D01*
X9724302Y-12601295D02*
X9731922Y-12608915D01*
X9731922Y-12601295D02*
X9724302Y-12608915D01*
X9730666Y-12517149D02*
X9738286Y-12524769D01*
X9738286Y-12517149D02*
X9730666Y-12524769D01*
X9746190Y-13036190D02*
X9753810Y-13043810D01*
X9753810Y-13036190D02*
X9746190Y-13043810D01*
X9787942Y-12595638D02*
X9795562Y-12603258D01*
X9795562Y-12595638D02*
X9787942Y-12603258D01*
X9789356Y-12437246D02*
X9796976Y-12444866D01*
X9796976Y-12437246D02*
X9789356Y-12444866D01*
X9795013Y-12503714D02*
X9802633Y-12511334D01*
X9802633Y-12503714D02*
X9795013Y-12511334D01*
X9844510Y-12241377D02*
X9852130Y-12248997D01*
X9852130Y-12241377D02*
X9844510Y-12248997D01*
X9866190Y-12126190D02*
X9873810Y-12133810D01*
X9873810Y-12126190D02*
X9866190Y-12133810D01*
X9876112Y-12724674D02*
X9883732Y-12732294D01*
X9883732Y-12724674D02*
X9876112Y-12732294D01*
X9937495Y-12552151D02*
X9945115Y-12559771D01*
X9945115Y-12552151D02*
X9937495Y-12559771D01*
X9966190Y-11496190D02*
X9973810Y-11503810D01*
X9973810Y-11496190D02*
X9966190Y-11503810D01*
X9978690Y-12556190D02*
X9986310Y-12563810D01*
X9986310Y-12556190D02*
X9978690Y-12563810D01*
X10004190Y-11124190D02*
X10011810Y-11131810D01*
X10011810Y-11124190D02*
X10004190Y-11131810D01*
X10004190Y-11148190D02*
X10011810Y-11155810D01*
X10011810Y-11148190D02*
X10004190Y-11155810D01*
X10004190Y-11344190D02*
X10011810Y-11351810D01*
X10011810Y-11344190D02*
X10004190Y-11351810D01*
X10004190Y-11368190D02*
X10011810Y-11375810D01*
X10011810Y-11368190D02*
X10004190Y-11375810D01*
X10028190Y-11124190D02*
X10035810Y-11131810D01*
X10035810Y-11124190D02*
X10028190Y-11131810D01*
X10028190Y-11148190D02*
X10035810Y-11155810D01*
X10035810Y-11148190D02*
X10028190Y-11155810D01*
X10028190Y-11344190D02*
X10035810Y-11351810D01*
X10035810Y-11344190D02*
X10028190Y-11351810D01*
X10028190Y-11368190D02*
X10035810Y-11375810D01*
X10035810Y-11368190D02*
X10028190Y-11375810D01*
X10066190Y-11496190D02*
X10073810Y-11503810D01*
X10073810Y-11496190D02*
X10066190Y-11503810D01*
X10093690Y-12628690D02*
X10101310Y-12636310D01*
X10101310Y-12628690D02*
X10093690Y-12636310D01*
X10116190Y-11496190D02*
X10123810Y-11503810D01*
X10123810Y-11496190D02*
X10116190Y-11503810D01*
X10266190Y-12662190D02*
X10273810Y-12669810D01*
X10273810Y-12662190D02*
X10266190Y-12669810D01*
X10276190Y-13011190D02*
X10283810Y-13018810D01*
X10283810Y-13011190D02*
X10276190Y-13018810D01*
X10323690Y-11124190D02*
X10331310Y-11131810D01*
X10331310Y-11124190D02*
X10323690Y-11131810D01*
X10323690Y-11148190D02*
X10331310Y-11155810D01*
X10331310Y-11148190D02*
X10323690Y-11155810D01*
X10324190Y-11344190D02*
X10331810Y-11351810D01*
X10331810Y-11344190D02*
X10324190Y-11351810D01*
X10324190Y-11368190D02*
X10331810Y-11375810D01*
X10331810Y-11368190D02*
X10324190Y-11375810D01*
X10331190Y-13011190D02*
X10338810Y-13018810D01*
X10338810Y-13011190D02*
X10331190Y-13018810D01*
X10347690Y-11124190D02*
X10355310Y-11131810D01*
X10355310Y-11124190D02*
X10347690Y-11131810D01*
X10347690Y-11148190D02*
X10355310Y-11155810D01*
X10355310Y-11148190D02*
X10347690Y-11155810D01*
X10348190Y-11344190D02*
X10355810Y-11351810D01*
X10355810Y-11344190D02*
X10348190Y-11351810D01*
X10348190Y-11368190D02*
X10355810Y-11375810D01*
X10355810Y-11368190D02*
X10348190Y-11375810D01*
X10436190Y-11148190D02*
X10443810Y-11155810D01*
X10443810Y-11148190D02*
X10436190Y-11155810D01*
X10509190Y-12538190D02*
X10516810Y-12545810D01*
X10516810Y-12538190D02*
X10509190Y-12545810D01*
X10523690Y-14443690D02*
X10531310Y-14451310D01*
X10531310Y-14443690D02*
X10523690Y-14451310D01*
X10523690Y-14467690D02*
X10531310Y-14475310D01*
X10531310Y-14467690D02*
X10523690Y-14475310D01*
X10523690Y-15461190D02*
X10531310Y-15468810D01*
X10531310Y-15461190D02*
X10523690Y-15468810D01*
X10523690Y-15485190D02*
X10531310Y-15492810D01*
X10531310Y-15485190D02*
X10523690Y-15492810D01*
X10538690Y-12968690D02*
X10546310Y-12976310D01*
X10546310Y-12968690D02*
X10538690Y-12976310D01*
X10547690Y-14443690D02*
X10555310Y-14451310D01*
X10555310Y-14443690D02*
X10547690Y-14451310D01*
X10547690Y-14467690D02*
X10555310Y-14475310D01*
X10555310Y-14467690D02*
X10547690Y-14475310D01*
X10547690Y-15461190D02*
X10555310Y-15468810D01*
X10555310Y-15461190D02*
X10547690Y-15468810D01*
X10547690Y-15485190D02*
X10555310Y-15492810D01*
X10555310Y-15485190D02*
X10547690Y-15492810D01*
X10551190Y-12906190D02*
X10558810Y-12913810D01*
X10558810Y-12906190D02*
X10551190Y-12913810D01*
X10556190Y-11496190D02*
X10563810Y-11503810D01*
X10563810Y-11496190D02*
X10556190Y-11503810D01*
X10606190Y-11496190D02*
X10613810Y-11503810D01*
X10613810Y-11496190D02*
X10606190Y-11503810D01*
X10643690Y-11124190D02*
X10651310Y-11131810D01*
X10651310Y-11124190D02*
X10643690Y-11131810D01*
X10643690Y-11148190D02*
X10651310Y-11155810D01*
X10651310Y-11148190D02*
X10643690Y-11155810D01*
X10644190Y-11344190D02*
X10651810Y-11351810D01*
X10651810Y-11344190D02*
X10644190Y-11351810D01*
X10644190Y-11368190D02*
X10651810Y-11375810D01*
X10651810Y-11368190D02*
X10644190Y-11375810D01*
X10667690Y-11124190D02*
X10675310Y-11131810D01*
X10675310Y-11124190D02*
X10667690Y-11131810D01*
X10667690Y-11148190D02*
X10675310Y-11155810D01*
X10675310Y-11148190D02*
X10667690Y-11155810D01*
X10668190Y-11344190D02*
X10675810Y-11351810D01*
X10675810Y-11344190D02*
X10668190Y-11351810D01*
X10668190Y-11368190D02*
X10675810Y-11375810D01*
X10675810Y-11368190D02*
X10668190Y-11375810D01*
X10690190Y-12623190D02*
X10697810Y-12630810D01*
X10697810Y-12623190D02*
X10690190Y-12630810D01*
X10743690Y-14443690D02*
X10751310Y-14451310D01*
X10751310Y-14443690D02*
X10743690Y-14451310D01*
X10743690Y-14467690D02*
X10751310Y-14475310D01*
X10751310Y-14467690D02*
X10743690Y-14475310D01*
X10743690Y-15461190D02*
X10751310Y-15468810D01*
X10751310Y-15461190D02*
X10743690Y-15468810D01*
X10743690Y-15485190D02*
X10751310Y-15492810D01*
X10751310Y-15485190D02*
X10743690Y-15492810D01*
X10767690Y-14443690D02*
X10775310Y-14451310D01*
X10775310Y-14443690D02*
X10767690Y-14451310D01*
X10767690Y-14467690D02*
X10775310Y-14475310D01*
X10775310Y-14467690D02*
X10767690Y-14475310D01*
X10767690Y-15461190D02*
X10775310Y-15468810D01*
X10775310Y-15461190D02*
X10767690Y-15468810D01*
X10767690Y-15485190D02*
X10775310Y-15492810D01*
X10775310Y-15485190D02*
X10767690Y-15492810D01*
X10781190Y-12620190D02*
X10788810Y-12627810D01*
X10788810Y-12620190D02*
X10781190Y-12627810D01*
X10818190Y-12327190D02*
X10825810Y-12334810D01*
X10825810Y-12327190D02*
X10818190Y-12334810D01*
X10876190Y-11496190D02*
X10883810Y-11503810D01*
X10883810Y-11496190D02*
X10876190Y-11503810D01*
X10926190Y-11496190D02*
X10933810Y-11503810D01*
X10933810Y-11496190D02*
X10926190Y-11503810D01*
X10943190Y-12454190D02*
X10950810Y-12461810D01*
X10950810Y-12454190D02*
X10943190Y-12461810D01*
X10963690Y-11124190D02*
X10971310Y-11131810D01*
X10971310Y-11124190D02*
X10963690Y-11131810D01*
X10963690Y-11148190D02*
X10971310Y-11155810D01*
X10971310Y-11148190D02*
X10963690Y-11155810D01*
X10964190Y-11344190D02*
X10971810Y-11351810D01*
X10971810Y-11344190D02*
X10964190Y-11351810D01*
X10964190Y-11368190D02*
X10971810Y-11375810D01*
X10971810Y-11368190D02*
X10964190Y-11375810D01*
X10987690Y-11124190D02*
X10995310Y-11131810D01*
X10995310Y-11124190D02*
X10987690Y-11131810D01*
X10987690Y-11148190D02*
X10995310Y-11155810D01*
X10995310Y-11148190D02*
X10987690Y-11155810D01*
X10988190Y-11344190D02*
X10995810Y-11351810D01*
X10995810Y-11344190D02*
X10988190Y-11351810D01*
X10988190Y-11368190D02*
X10995810Y-11375810D01*
X10995810Y-11368190D02*
X10988190Y-11375810D01*
X11026190Y-11496190D02*
X11033810Y-11503810D01*
X11033810Y-11496190D02*
X11026190Y-11503810D01*
X11076190Y-11496190D02*
X11083810Y-11503810D01*
X11083810Y-11496190D02*
X11076190Y-11503810D01*
X11246190Y-11496190D02*
X11253810Y-11503810D01*
X11253810Y-11496190D02*
X11246190Y-11503810D01*
X11283690Y-11124190D02*
X11291310Y-11131810D01*
X11291310Y-11124190D02*
X11283690Y-11131810D01*
X11283690Y-11148190D02*
X11291310Y-11155810D01*
X11291310Y-11148190D02*
X11283690Y-11155810D01*
X11284190Y-11344190D02*
X11291810Y-11351810D01*
X11291810Y-11344190D02*
X11284190Y-11351810D01*
X11284190Y-11368190D02*
X11291810Y-11375810D01*
X11291810Y-11368190D02*
X11284190Y-11375810D01*
X11307690Y-11124190D02*
X11315310Y-11131810D01*
X11315310Y-11124190D02*
X11307690Y-11131810D01*
X11307690Y-11148190D02*
X11315310Y-11155810D01*
X11315310Y-11148190D02*
X11307690Y-11155810D01*
X11308190Y-11344190D02*
X11315810Y-11351810D01*
X11315810Y-11344190D02*
X11308190Y-11351810D01*
X11308190Y-11368190D02*
X11315810Y-11375810D01*
X11315810Y-11368190D02*
X11308190Y-11375810D01*
X11346190Y-11496190D02*
X11353810Y-11503810D01*
X11353810Y-11496190D02*
X11346190Y-11503810D01*
X11396190Y-11496190D02*
X11403810Y-11503810D01*
X11403810Y-11496190D02*
X11396190Y-11503810D01*
X11418690Y-7476190D02*
X11426310Y-7483810D01*
X11426310Y-7476190D02*
X11418690Y-7483810D01*
X11603690Y-11124190D02*
X11611310Y-11131810D01*
X11611310Y-11124190D02*
X11603690Y-11131810D01*
X11603690Y-11148190D02*
X11611310Y-11155810D01*
X11611310Y-11148190D02*
X11603690Y-11155810D01*
X11604190Y-11344190D02*
X11611810Y-11351810D01*
X11611810Y-11344190D02*
X11604190Y-11351810D01*
X11604190Y-11368190D02*
X11611810Y-11375810D01*
X11611810Y-11368190D02*
X11604190Y-11375810D01*
X11627690Y-11124190D02*
X11635310Y-11131810D01*
X11635310Y-11124190D02*
X11627690Y-11131810D01*
X11627690Y-11148190D02*
X11635310Y-11155810D01*
X11635310Y-11148190D02*
X11627690Y-11155810D01*
X11628190Y-11344190D02*
X11635810Y-11351810D01*
X11635810Y-11344190D02*
X11628190Y-11351810D01*
X11628190Y-11368190D02*
X11635810Y-11375810D01*
X11635810Y-11368190D02*
X11628190Y-11375810D01*
X11717190Y-11124190D02*
X11724810Y-11131810D01*
X11724810Y-11124190D02*
X11717190Y-11131810D01*
D13*
X8148700Y-12866000D02*
G75*
G03*
X8148700Y-12866000I-12700J0D01*
G01*
X8218700Y-12866000D02*
G75*
G03*
X8218700Y-12866000I-12700J0D01*
G01*
X8248700Y-13116000D02*
G75*
G03*
X8248700Y-13116000I-12700J0D01*
G01*
X8248700Y-13186000D02*
G75*
G03*
X8248700Y-13186000I-12700J0D01*
G01*
X8288700Y-12866000D02*
G75*
G03*
X8288700Y-12866000I-12700J0D01*
G01*
X8378700Y-13046000D02*
G75*
G03*
X8378700Y-13046000I-12700J0D01*
G01*
X8448700Y-13046000D02*
G75*
G03*
X8448700Y-13046000I-12700J0D01*
G01*
X8882700Y-8940000D02*
G75*
G03*
X8882700Y-8940000I-12700J0D01*
G01*
X8977700Y-8680000D02*
G75*
G03*
X8977700Y-8680000I-12700J0D01*
G01*
X10255200Y-13135000D02*
G75*
G03*
X10255200Y-13135000I-12700J0D01*
G01*
X10530200Y-12380000D02*
G75*
G03*
X10530200Y-12380000I-12700J0D01*
G01*
X10625200Y-12475000D02*
G75*
G03*
X10625200Y-12475000I-12700J0D01*
G01*
X11362700Y-12025000D02*
G75*
G03*
X11362700Y-12025000I-12700J0D01*
G01*
X11362700Y-12170000D02*
G75*
G03*
X11362700Y-12170000I-12700J0D01*
G01*
X11672700Y-17430000D02*
G75*
G03*
X11672700Y-17430000I-12700J0D01*
G01*
D14*
X7153000Y-12236000D02*
X7153000Y-12276000D01*
X7133000Y-12256000D02*
X7173000Y-12256000D01*
X7153000Y-13116000D02*
X7153000Y-13156000D01*
X7133000Y-13136000D02*
X7173000Y-13136000D01*
X7263000Y-12236000D02*
X7263000Y-12276000D01*
X7243000Y-12256000D02*
X7283000Y-12256000D01*
X7263000Y-13116000D02*
X7263000Y-13156000D01*
X7243000Y-13136000D02*
X7283000Y-13136000D01*
X7373000Y-12236000D02*
X7373000Y-12276000D01*
X7353000Y-12256000D02*
X7393000Y-12256000D01*
X7373000Y-12356000D02*
X7373000Y-12396000D01*
X7353000Y-12376000D02*
X7393000Y-12376000D01*
X7373000Y-12476000D02*
X7373000Y-12516000D01*
X7353000Y-12496000D02*
X7393000Y-12496000D01*
X7373000Y-12586000D02*
X7373000Y-12626000D01*
X7353000Y-12606000D02*
X7393000Y-12606000D01*
X7373000Y-12796000D02*
X7373000Y-12836000D01*
X7353000Y-12816000D02*
X7393000Y-12816000D01*
X7373000Y-12896000D02*
X7373000Y-12936000D01*
X7353000Y-12916000D02*
X7393000Y-12916000D01*
X7373000Y-13006000D02*
X7373000Y-13046000D01*
X7353000Y-13026000D02*
X7393000Y-13026000D01*
X7373000Y-13116000D02*
X7373000Y-13156000D01*
X7353000Y-13136000D02*
X7393000Y-13136000D01*
X7483000Y-12236000D02*
X7483000Y-12276000D01*
X7463000Y-12256000D02*
X7503000Y-12256000D01*
X7483000Y-12356000D02*
X7483000Y-12396000D01*
X7463000Y-12376000D02*
X7503000Y-12376000D01*
X7483000Y-12476000D02*
X7483000Y-12516000D01*
X7463000Y-12496000D02*
X7503000Y-12496000D01*
X7483000Y-12586000D02*
X7483000Y-12626000D01*
X7463000Y-12606000D02*
X7503000Y-12606000D01*
X7483000Y-12796000D02*
X7483000Y-12836000D01*
X7463000Y-12816000D02*
X7503000Y-12816000D01*
X7483000Y-12896000D02*
X7483000Y-12936000D01*
X7463000Y-12916000D02*
X7503000Y-12916000D01*
X7483000Y-13006000D02*
X7483000Y-13046000D01*
X7463000Y-13026000D02*
X7503000Y-13026000D01*
X7483000Y-13116000D02*
X7483000Y-13156000D01*
X7463000Y-13136000D02*
X7503000Y-13136000D01*
X7550000Y-17080000D02*
X7550000Y-17120000D01*
X7530000Y-17100000D02*
X7570000Y-17100000D01*
X7593000Y-12236000D02*
X7593000Y-12276000D01*
X7573000Y-12256000D02*
X7613000Y-12256000D01*
X7593000Y-12356000D02*
X7593000Y-12396000D01*
X7573000Y-12376000D02*
X7613000Y-12376000D01*
X7593000Y-12476000D02*
X7593000Y-12516000D01*
X7573000Y-12496000D02*
X7613000Y-12496000D01*
X7593000Y-12896000D02*
X7593000Y-12936000D01*
X7573000Y-12916000D02*
X7613000Y-12916000D01*
X7593000Y-13006000D02*
X7593000Y-13046000D01*
X7573000Y-13026000D02*
X7613000Y-13026000D01*
X7593000Y-13116000D02*
X7593000Y-13156000D01*
X7573000Y-13136000D02*
X7613000Y-13136000D01*
X7700000Y-8670000D02*
X7700000Y-8710000D01*
X7680000Y-8690000D02*
X7720000Y-8690000D01*
X7700000Y-8770000D02*
X7700000Y-8810000D01*
X7680000Y-8790000D02*
X7720000Y-8790000D01*
X7703000Y-12236000D02*
X7703000Y-12276000D01*
X7683000Y-12256000D02*
X7723000Y-12256000D01*
X7703000Y-12356000D02*
X7703000Y-12396000D01*
X7683000Y-12376000D02*
X7723000Y-12376000D01*
X7703000Y-12476000D02*
X7703000Y-12516000D01*
X7683000Y-12496000D02*
X7723000Y-12496000D01*
X7703000Y-12896000D02*
X7703000Y-12936000D01*
X7683000Y-12916000D02*
X7723000Y-12916000D01*
X7703000Y-13006000D02*
X7703000Y-13046000D01*
X7683000Y-13026000D02*
X7723000Y-13026000D01*
X7703000Y-13116000D02*
X7703000Y-13156000D01*
X7683000Y-13136000D02*
X7723000Y-13136000D01*
X7800000Y-8670000D02*
X7800000Y-8710000D01*
X7780000Y-8690000D02*
X7820000Y-8690000D01*
X7800000Y-8770000D02*
X7800000Y-8810000D01*
X7780000Y-8790000D02*
X7820000Y-8790000D01*
X8002000Y-4694000D02*
X8002000Y-4734000D01*
X7982000Y-4714000D02*
X8022000Y-4714000D01*
X8010000Y-5850000D02*
X8010000Y-5890000D01*
X7990000Y-5870000D02*
X8030000Y-5870000D01*
X8210000Y-4690000D02*
X8210000Y-4730000D01*
X8190000Y-4710000D02*
X8230000Y-4710000D01*
X8210000Y-4930000D02*
X8210000Y-4970000D01*
X8190000Y-4950000D02*
X8230000Y-4950000D01*
X8210000Y-5490000D02*
X8210000Y-5530000D01*
X8190000Y-5510000D02*
X8230000Y-5510000D01*
X8210000Y-5730000D02*
X8210000Y-5770000D01*
X8190000Y-5750000D02*
X8230000Y-5750000D01*
X8210000Y-12610000D02*
X8210000Y-12650000D01*
X8190000Y-12630000D02*
X8230000Y-12630000D01*
X8330000Y-4690000D02*
X8330000Y-4730000D01*
X8310000Y-4710000D02*
X8350000Y-4710000D01*
X8330000Y-4810000D02*
X8330000Y-4850000D01*
X8310000Y-4830000D02*
X8350000Y-4830000D01*
X8330000Y-4930000D02*
X8330000Y-4970000D01*
X8310000Y-4950000D02*
X8350000Y-4950000D01*
X8330000Y-5490000D02*
X8330000Y-5530000D01*
X8310000Y-5510000D02*
X8350000Y-5510000D01*
X8330000Y-5610000D02*
X8330000Y-5650000D01*
X8310000Y-5630000D02*
X8350000Y-5630000D01*
X8330000Y-5730000D02*
X8330000Y-5770000D01*
X8310000Y-5750000D02*
X8350000Y-5750000D01*
X8330000Y-12610000D02*
X8330000Y-12650000D01*
X8310000Y-12630000D02*
X8350000Y-12630000D01*
X8355000Y-13795000D02*
X8355000Y-13835000D01*
X8335000Y-13815000D02*
X8375000Y-13815000D01*
X8355000Y-14315000D02*
X8355000Y-14355000D01*
X8335000Y-14335000D02*
X8375000Y-14335000D01*
X8360000Y-15850000D02*
X8360000Y-15890000D01*
X8340000Y-15870000D02*
X8380000Y-15870000D01*
X8370000Y-15335000D02*
X8370000Y-15375000D01*
X8350000Y-15355000D02*
X8390000Y-15355000D01*
X8450000Y-12610000D02*
X8450000Y-12650000D01*
X8430000Y-12630000D02*
X8470000Y-12630000D01*
X8510000Y-8090000D02*
X8510000Y-8130000D01*
X8490000Y-8110000D02*
X8530000Y-8110000D01*
X8510000Y-8190000D02*
X8510000Y-8230000D01*
X8490000Y-8210000D02*
X8530000Y-8210000D01*
X8510000Y-8290000D02*
X8510000Y-8330000D01*
X8490000Y-8310000D02*
X8530000Y-8310000D01*
X8570000Y-12610000D02*
X8570000Y-12650000D01*
X8550000Y-12630000D02*
X8590000Y-12630000D01*
X8570000Y-12710000D02*
X8570000Y-12750000D01*
X8550000Y-12730000D02*
X8590000Y-12730000D01*
X8570000Y-12810000D02*
X8570000Y-12850000D01*
X8550000Y-12830000D02*
X8590000Y-12830000D01*
X8570000Y-13410000D02*
X8570000Y-13450000D01*
X8550000Y-13430000D02*
X8590000Y-13430000D01*
X8715000Y-11840000D02*
X8715000Y-11880000D01*
X8695000Y-11860000D02*
X8735000Y-11860000D01*
X8950000Y-9490000D02*
X8950000Y-9530000D01*
X8930000Y-9510000D02*
X8970000Y-9510000D01*
X8950000Y-9590000D02*
X8950000Y-9630000D01*
X8930000Y-9610000D02*
X8970000Y-9610000D01*
X9050000Y-9490000D02*
X9050000Y-9530000D01*
X9030000Y-9510000D02*
X9070000Y-9510000D01*
X9050000Y-9590000D02*
X9050000Y-9630000D01*
X9030000Y-9610000D02*
X9070000Y-9610000D01*
X9200000Y-10400000D02*
X9200000Y-10440000D01*
X9180000Y-10420000D02*
X9220000Y-10420000D01*
X9460000Y-9470000D02*
X9460000Y-9510000D01*
X9440000Y-9490000D02*
X9480000Y-9490000D01*
X9460000Y-9570000D02*
X9460000Y-9610000D01*
X9440000Y-9590000D02*
X9480000Y-9590000D01*
X9550000Y-9155000D02*
X9550000Y-9195000D01*
X9530000Y-9175000D02*
X9570000Y-9175000D01*
X9560000Y-9470000D02*
X9560000Y-9510000D01*
X9540000Y-9490000D02*
X9580000Y-9490000D01*
X9560000Y-9570000D02*
X9560000Y-9610000D01*
X9540000Y-9590000D02*
X9580000Y-9590000D01*
X9620000Y-13235000D02*
X9620000Y-13275000D01*
X9600000Y-13255000D02*
X9640000Y-13255000D01*
X9795000Y-9615000D02*
X9795000Y-9655000D01*
X9775000Y-9635000D02*
X9815000Y-9635000D01*
X9875000Y-13550000D02*
X9875000Y-13590000D01*
X9855000Y-13570000D02*
X9895000Y-13570000D01*
X9892500Y-9315000D02*
X9892500Y-9355000D01*
X9872500Y-9335000D02*
X9912500Y-9335000D01*
X10125000Y-5505000D02*
X10125000Y-5545000D01*
X10105000Y-5525000D02*
X10145000Y-5525000D01*
X10160000Y-5850000D02*
X10160000Y-5890000D01*
X10140000Y-5870000D02*
X10180000Y-5870000D01*
X10275000Y-5505000D02*
X10275000Y-5545000D01*
X10255000Y-5525000D02*
X10295000Y-5525000D01*
X10380000Y-12400000D02*
X10380000Y-12440000D01*
X10360000Y-12420000D02*
X10400000Y-12420000D01*
X10425000Y-5505000D02*
X10425000Y-5545000D01*
X10405000Y-5525000D02*
X10445000Y-5525000D01*
X10560000Y-12150000D02*
X10560000Y-12190000D01*
X10540000Y-12170000D02*
X10580000Y-12170000D01*
X10575000Y-5505000D02*
X10575000Y-5545000D01*
X10555000Y-5525000D02*
X10595000Y-5525000D01*
X10610000Y-6170000D02*
X10610000Y-6210000D01*
X10590000Y-6190000D02*
X10630000Y-6190000D01*
X10725000Y-5505000D02*
X10725000Y-5545000D01*
X10705000Y-5525000D02*
X10745000Y-5525000D01*
X10875000Y-5505000D02*
X10875000Y-5545000D01*
X10855000Y-5525000D02*
X10895000Y-5525000D01*
X10948000Y-12881000D02*
X10948000Y-12921000D01*
X10928000Y-12901000D02*
X10968000Y-12901000D01*
X11025000Y-5505000D02*
X11025000Y-5545000D01*
X11005000Y-5525000D02*
X11045000Y-5525000D01*
X11700000Y-9700000D02*
X11700000Y-9740000D01*
X11680000Y-9720000D02*
X11720000Y-9720000D01*
X11775000Y-5980000D02*
X11775000Y-6020000D01*
X11755000Y-6000000D02*
X11795000Y-6000000D01*
X11775000Y-6480000D02*
X11775000Y-6520000D01*
X11755000Y-6500000D02*
X11795000Y-6500000D01*
X11850000Y-10015000D02*
X11850000Y-10055000D01*
X11830000Y-10035000D02*
X11870000Y-10035000D01*
X11939000Y-10484000D02*
X11939000Y-10524000D01*
X11919000Y-10504000D02*
X11959000Y-10504000D01*
X12029000Y-10142000D02*
X12029000Y-10182000D01*
X12009000Y-10162000D02*
X12049000Y-10162000D01*
X12160000Y-9680000D02*
X12160000Y-9720000D01*
X12140000Y-9700000D02*
X12180000Y-9700000D01*
X12160000Y-9770000D02*
X12160000Y-9810000D01*
X12140000Y-9790000D02*
X12180000Y-9790000D01*
X12250000Y-9680000D02*
X12250000Y-9720000D01*
X12230000Y-9700000D02*
X12270000Y-9700000D01*
X12250000Y-9770000D02*
X12250000Y-9810000D01*
X12230000Y-9790000D02*
X12270000Y-9790000D01*
D15*
X8674749Y-11754749D02*
X8674749Y-11705251D01*
X8625251Y-11705251D01*
X8625251Y-11754749D01*
X8674749Y-11754749D01*
X12084749Y-11724749D02*
X12084749Y-11675251D01*
X12035251Y-11675251D01*
X12035251Y-11724749D01*
X12084749Y-11724749D01*
D16*
X7709426Y-9292426D02*
X7746926Y-9254926D01*
X7709426Y-9217426D01*
X7671926Y-9254926D01*
X7709426Y-9292426D01*
X7709426Y-9442426D02*
X7746926Y-9404926D01*
X7709426Y-9367426D01*
X7671926Y-9404926D01*
X7709426Y-9442426D01*
X7709426Y-9592426D02*
X7746926Y-9554926D01*
X7709426Y-9517426D01*
X7671926Y-9554926D01*
X7709426Y-9592426D01*
X7709426Y-9742426D02*
X7746926Y-9704926D01*
X7709426Y-9667426D01*
X7671926Y-9704926D01*
X7709426Y-9742426D01*
X7709426Y-9892426D02*
X7746926Y-9854926D01*
X7709426Y-9817426D01*
X7671926Y-9854926D01*
X7709426Y-9892426D01*
X7709426Y-10042426D02*
X7746926Y-10004926D01*
X7709426Y-9967426D01*
X7671926Y-10004926D01*
X7709426Y-10042426D01*
X7709426Y-10192426D02*
X7746926Y-10154926D01*
X7709426Y-10117426D01*
X7671926Y-10154926D01*
X7709426Y-10192426D01*
X7709426Y-10342426D02*
X7746926Y-10304926D01*
X7709426Y-10267426D01*
X7671926Y-10304926D01*
X7709426Y-10342426D01*
X7709426Y-10492426D02*
X7746926Y-10454926D01*
X7709426Y-10417426D01*
X7671926Y-10454926D01*
X7709426Y-10492426D01*
X8039426Y-9242426D02*
X8076926Y-9204926D01*
X8039426Y-9167426D01*
X8001926Y-9204926D01*
X8039426Y-9242426D01*
X8039426Y-9392426D02*
X8076926Y-9354926D01*
X8039426Y-9317426D01*
X8001926Y-9354926D01*
X8039426Y-9392426D01*
X8039426Y-9542426D02*
X8076926Y-9504926D01*
X8039426Y-9467426D01*
X8001926Y-9504926D01*
X8039426Y-9542426D01*
X8039426Y-9692426D02*
X8076926Y-9654926D01*
X8039426Y-9617426D01*
X8001926Y-9654926D01*
X8039426Y-9692426D01*
X8039426Y-9842426D02*
X8076926Y-9804926D01*
X8039426Y-9767426D01*
X8001926Y-9804926D01*
X8039426Y-9842426D01*
X8039426Y-9992426D02*
X8076926Y-9954926D01*
X8039426Y-9917426D01*
X8001926Y-9954926D01*
X8039426Y-9992426D01*
X8039426Y-10142426D02*
X8076926Y-10104926D01*
X8039426Y-10067426D01*
X8001926Y-10104926D01*
X8039426Y-10142426D01*
X8039426Y-10292426D02*
X8076926Y-10254926D01*
X8039426Y-10217426D01*
X8001926Y-10254926D01*
X8039426Y-10292426D01*
X8039426Y-10442426D02*
X8076926Y-10404926D01*
X8039426Y-10367426D01*
X8001926Y-10404926D01*
X8039426Y-10442426D01*
X8369426Y-9192426D02*
X8406926Y-9154926D01*
X8369426Y-9117426D01*
X8331926Y-9154926D01*
X8369426Y-9192426D01*
X8369426Y-9342426D02*
X8406926Y-9304926D01*
X8369426Y-9267426D01*
X8331926Y-9304926D01*
X8369426Y-9342426D01*
X8369426Y-9492426D02*
X8406926Y-9454926D01*
X8369426Y-9417426D01*
X8331926Y-9454926D01*
X8369426Y-9492426D01*
X8369426Y-9642426D02*
X8406926Y-9604926D01*
X8369426Y-9567426D01*
X8331926Y-9604926D01*
X8369426Y-9642426D01*
X8369426Y-9792426D02*
X8406926Y-9754926D01*
X8369426Y-9717426D01*
X8331926Y-9754926D01*
X8369426Y-9792426D01*
X8369426Y-9942426D02*
X8406926Y-9904926D01*
X8369426Y-9867426D01*
X8331926Y-9904926D01*
X8369426Y-9942426D01*
X8369426Y-10092426D02*
X8406926Y-10054926D01*
X8369426Y-10017426D01*
X8331926Y-10054926D01*
X8369426Y-10092426D01*
X8369426Y-10242426D02*
X8406926Y-10204926D01*
X8369426Y-10167426D01*
X8331926Y-10204926D01*
X8369426Y-10242426D01*
X8369426Y-10392426D02*
X8406926Y-10354926D01*
X8369426Y-10317426D01*
X8331926Y-10354926D01*
X8369426Y-10392426D01*
X8369426Y-10542426D02*
X8406926Y-10504926D01*
X8369426Y-10467426D01*
X8331926Y-10504926D01*
X8369426Y-10542426D01*
X10767426Y-9292426D02*
X10804926Y-9254926D01*
X10767426Y-9217426D01*
X10729926Y-9254926D01*
X10767426Y-9292426D01*
X10767426Y-9442426D02*
X10804926Y-9404926D01*
X10767426Y-9367426D01*
X10729926Y-9404926D01*
X10767426Y-9442426D01*
X10767426Y-9592426D02*
X10804926Y-9554926D01*
X10767426Y-9517426D01*
X10729926Y-9554926D01*
X10767426Y-9592426D01*
X10767426Y-9742426D02*
X10804926Y-9704926D01*
X10767426Y-9667426D01*
X10729926Y-9704926D01*
X10767426Y-9742426D01*
X10767426Y-9892426D02*
X10804926Y-9854926D01*
X10767426Y-9817426D01*
X10729926Y-9854926D01*
X10767426Y-9892426D01*
X10767426Y-10042426D02*
X10804926Y-10004926D01*
X10767426Y-9967426D01*
X10729926Y-10004926D01*
X10767426Y-10042426D01*
X10767426Y-10192426D02*
X10804926Y-10154926D01*
X10767426Y-10117426D01*
X10729926Y-10154926D01*
X10767426Y-10192426D01*
X10767426Y-10342426D02*
X10804926Y-10304926D01*
X10767426Y-10267426D01*
X10729926Y-10304926D01*
X10767426Y-10342426D01*
X10767426Y-10492426D02*
X10804926Y-10454926D01*
X10767426Y-10417426D01*
X10729926Y-10454926D01*
X10767426Y-10492426D01*
X11097426Y-9242426D02*
X11134926Y-9204926D01*
X11097426Y-9167426D01*
X11059926Y-9204926D01*
X11097426Y-9242426D01*
X11097426Y-9392426D02*
X11134926Y-9354926D01*
X11097426Y-9317426D01*
X11059926Y-9354926D01*
X11097426Y-9392426D01*
X11097426Y-9542426D02*
X11134926Y-9504926D01*
X11097426Y-9467426D01*
X11059926Y-9504926D01*
X11097426Y-9542426D01*
X11097426Y-9692426D02*
X11134926Y-9654926D01*
X11097426Y-9617426D01*
X11059926Y-9654926D01*
X11097426Y-9692426D01*
X11097426Y-9842426D02*
X11134926Y-9804926D01*
X11097426Y-9767426D01*
X11059926Y-9804926D01*
X11097426Y-9842426D01*
X11097426Y-9992426D02*
X11134926Y-9954926D01*
X11097426Y-9917426D01*
X11059926Y-9954926D01*
X11097426Y-9992426D01*
X11097426Y-10142426D02*
X11134926Y-10104926D01*
X11097426Y-10067426D01*
X11059926Y-10104926D01*
X11097426Y-10142426D01*
X11097426Y-10292426D02*
X11134926Y-10254926D01*
X11097426Y-10217426D01*
X11059926Y-10254926D01*
X11097426Y-10292426D01*
X11097426Y-10442426D02*
X11134926Y-10404926D01*
X11097426Y-10367426D01*
X11059926Y-10404926D01*
X11097426Y-10442426D01*
X11427426Y-9192426D02*
X11464926Y-9154926D01*
X11427426Y-9117426D01*
X11389926Y-9154926D01*
X11427426Y-9192426D01*
X11427426Y-9342426D02*
X11464926Y-9304926D01*
X11427426Y-9267426D01*
X11389926Y-9304926D01*
X11427426Y-9342426D01*
X11427426Y-9492426D02*
X11464926Y-9454926D01*
X11427426Y-9417426D01*
X11389926Y-9454926D01*
X11427426Y-9492426D01*
X11427426Y-9642426D02*
X11464926Y-9604926D01*
X11427426Y-9567426D01*
X11389926Y-9604926D01*
X11427426Y-9642426D01*
X11427426Y-9792426D02*
X11464926Y-9754926D01*
X11427426Y-9717426D01*
X11389926Y-9754926D01*
X11427426Y-9792426D01*
X11427426Y-9942426D02*
X11464926Y-9904926D01*
X11427426Y-9867426D01*
X11389926Y-9904926D01*
X11427426Y-9942426D01*
X11427426Y-10092426D02*
X11464926Y-10054926D01*
X11427426Y-10017426D01*
X11389926Y-10054926D01*
X11427426Y-10092426D01*
X11427426Y-10242426D02*
X11464926Y-10204926D01*
X11427426Y-10167426D01*
X11389926Y-10204926D01*
X11427426Y-10242426D01*
X11427426Y-10392426D02*
X11464926Y-10354926D01*
X11427426Y-10317426D01*
X11389926Y-10354926D01*
X11427426Y-10392426D01*
X11427426Y-10542426D02*
X11464926Y-10504926D01*
X11427426Y-10467426D01*
X11389926Y-10504926D01*
X11427426Y-10542426D01*
D17*
X9070000Y-4646000D02*
X9150000Y-4726000D01*
X9150000Y-4646000D02*
X9070000Y-4726000D01*
X9150000Y-4686000D02*
G75*
G03*
X9150000Y-4686000I-40000J0D01*
G01*
X9070000Y-4900000D02*
X9150000Y-4980000D01*
X9150000Y-4900000D02*
X9070000Y-4980000D01*
X9150000Y-4940000D02*
G75*
G03*
X9150000Y-4940000I-40000J0D01*
G01*
X9324000Y-4646000D02*
X9404000Y-4726000D01*
X9404000Y-4646000D02*
X9324000Y-4726000D01*
X9404000Y-4686000D02*
G75*
G03*
X9404000Y-4686000I-40000J0D01*
G01*
X9324000Y-4900000D02*
X9404000Y-4980000D01*
X9404000Y-4900000D02*
X9324000Y-4980000D01*
X9404000Y-4940000D02*
G75*
G03*
X9404000Y-4940000I-40000J0D01*
G01*
X9420000Y-14406000D02*
X9500000Y-14486000D01*
X9500000Y-14406000D02*
X9420000Y-14486000D01*
X9500000Y-14446000D02*
G75*
G03*
X9500000Y-14446000I-40000J0D01*
G01*
X9420000Y-14660000D02*
X9500000Y-14740000D01*
X9500000Y-14660000D02*
X9420000Y-14740000D01*
X9500000Y-14700000D02*
G75*
G03*
X9500000Y-14700000I-40000J0D01*
G01*
X9475000Y-8006000D02*
X9555000Y-8086000D01*
X9555000Y-8006000D02*
X9475000Y-8086000D01*
X9555000Y-8046000D02*
G75*
G03*
X9555000Y-8046000I-40000J0D01*
G01*
X9475000Y-8260000D02*
X9555000Y-8340000D01*
X9555000Y-8260000D02*
X9475000Y-8340000D01*
X9555000Y-8300000D02*
G75*
G03*
X9555000Y-8300000I-40000J0D01*
G01*
X9674000Y-14406000D02*
X9754000Y-14486000D01*
X9754000Y-14406000D02*
X9674000Y-14486000D01*
X9754000Y-14446000D02*
G75*
G03*
X9754000Y-14446000I-40000J0D01*
G01*
X9674000Y-14660000D02*
X9754000Y-14740000D01*
X9754000Y-14660000D02*
X9674000Y-14740000D01*
X9754000Y-14700000D02*
G75*
G03*
X9754000Y-14700000I-40000J0D01*
G01*
X9837500Y-8006000D02*
X9917500Y-8086000D01*
X9917500Y-8006000D02*
X9837500Y-8086000D01*
X9917500Y-8046000D02*
G75*
G03*
X9917500Y-8046000I-40000J0D01*
G01*
X9837500Y-8260000D02*
X9917500Y-8340000D01*
X9917500Y-8260000D02*
X9837500Y-8340000D01*
X9917500Y-8300000D02*
G75*
G03*
X9917500Y-8300000I-40000J0D01*
G01*
X10802000Y-7021000D02*
X10882000Y-7101000D01*
X10882000Y-7021000D02*
X10802000Y-7101000D01*
X10882000Y-7061000D02*
G75*
G03*
X10882000Y-7061000I-40000J0D01*
G01*
X11056000Y-7021000D02*
X11136000Y-7101000D01*
X11136000Y-7021000D02*
X11056000Y-7101000D01*
X11136000Y-7061000D02*
G75*
G03*
X11136000Y-7061000I-40000J0D01*
G01*
X11491000Y-16315000D02*
X11571000Y-16395000D01*
X11571000Y-16315000D02*
X11491000Y-16395000D01*
X11571000Y-16355000D02*
G75*
G03*
X11571000Y-16355000I-40000J0D01*
G01*
X11745000Y-16315000D02*
X11825000Y-16395000D01*
X11825000Y-16315000D02*
X11745000Y-16395000D01*
X11825000Y-16355000D02*
G75*
G03*
X11825000Y-16355000I-40000J0D01*
G01*
X11950000Y-10664000D02*
X12030000Y-10744000D01*
X12030000Y-10664000D02*
X11950000Y-10744000D01*
X12030000Y-10704000D02*
G75*
G03*
X12030000Y-10704000I-40000J0D01*
G01*
X11950000Y-10918000D02*
X12030000Y-10998000D01*
X12030000Y-10918000D02*
X11950000Y-10998000D01*
X12030000Y-10958000D02*
G75*
G03*
X12030000Y-10958000I-40000J0D01*
G01*
D10*
X6346000Y-5701000D02*
X6446000Y-5801000D01*
X6446000Y-5701000D02*
X6346000Y-5801000D01*
X6396000Y-5701000D02*
X6396000Y-5801000D01*
X6346000Y-5751000D02*
X6446000Y-5751000D01*
X6346000Y-5955000D02*
X6446000Y-6055000D01*
X6446000Y-5955000D02*
X6346000Y-6055000D01*
X6396000Y-5955000D02*
X6396000Y-6055000D01*
X6346000Y-6005000D02*
X6446000Y-6005000D01*
X6346000Y-6209000D02*
X6446000Y-6309000D01*
X6446000Y-6209000D02*
X6346000Y-6309000D01*
X6396000Y-6209000D02*
X6396000Y-6309000D01*
X6346000Y-6259000D02*
X6446000Y-6259000D01*
X6346000Y-6463000D02*
X6446000Y-6563000D01*
X6446000Y-6463000D02*
X6346000Y-6563000D01*
X6396000Y-6463000D02*
X6396000Y-6563000D01*
X6346000Y-6513000D02*
X6446000Y-6513000D01*
X6350000Y-4706000D02*
X6450000Y-4806000D01*
X6450000Y-4706000D02*
X6350000Y-4806000D01*
X6400000Y-4706000D02*
X6400000Y-4806000D01*
X6350000Y-4756000D02*
X6450000Y-4756000D01*
X6350000Y-4960000D02*
X6450000Y-5060000D01*
X6450000Y-4960000D02*
X6350000Y-5060000D01*
X6400000Y-4960000D02*
X6400000Y-5060000D01*
X6350000Y-5010000D02*
X6450000Y-5010000D01*
X6350000Y-7500000D02*
X6450000Y-7600000D01*
X6450000Y-7500000D02*
X6350000Y-7600000D01*
X6400000Y-7500000D02*
X6400000Y-7600000D01*
X6350000Y-7550000D02*
X6450000Y-7550000D01*
X6350000Y-7754000D02*
X6450000Y-7854000D01*
X6450000Y-7754000D02*
X6350000Y-7854000D01*
X6400000Y-7754000D02*
X6400000Y-7854000D01*
X6350000Y-7804000D02*
X6450000Y-7804000D01*
X6350000Y-8008000D02*
X6450000Y-8108000D01*
X6450000Y-8008000D02*
X6350000Y-8108000D01*
X6400000Y-8008000D02*
X6400000Y-8108000D01*
X6350000Y-8058000D02*
X6450000Y-8058000D01*
X6350000Y-8262000D02*
X6450000Y-8362000D01*
X6450000Y-8262000D02*
X6350000Y-8362000D01*
X6400000Y-8262000D02*
X6400000Y-8362000D01*
X6350000Y-8312000D02*
X6450000Y-8312000D01*
X6350000Y-8516000D02*
X6450000Y-8616000D01*
X6450000Y-8516000D02*
X6350000Y-8616000D01*
X6400000Y-8516000D02*
X6400000Y-8616000D01*
X6350000Y-8566000D02*
X6450000Y-8566000D01*
X6350000Y-8770000D02*
X6450000Y-8870000D01*
X6450000Y-8770000D02*
X6350000Y-8870000D01*
X6400000Y-8770000D02*
X6400000Y-8870000D01*
X6350000Y-8820000D02*
X6450000Y-8820000D01*
X6350000Y-9024000D02*
X6450000Y-9124000D01*
X6450000Y-9024000D02*
X6350000Y-9124000D01*
X6400000Y-9024000D02*
X6400000Y-9124000D01*
X6350000Y-9074000D02*
X6450000Y-9074000D01*
X6350000Y-9278000D02*
X6450000Y-9378000D01*
X6450000Y-9278000D02*
X6350000Y-9378000D01*
X6400000Y-9278000D02*
X6400000Y-9378000D01*
X6350000Y-9328000D02*
X6450000Y-9328000D01*
X6350000Y-9532000D02*
X6450000Y-9632000D01*
X6450000Y-9532000D02*
X6350000Y-9632000D01*
X6400000Y-9532000D02*
X6400000Y-9632000D01*
X6350000Y-9582000D02*
X6450000Y-9582000D01*
X6350000Y-9786000D02*
X6450000Y-9886000D01*
X6450000Y-9786000D02*
X6350000Y-9886000D01*
X6400000Y-9786000D02*
X6400000Y-9886000D01*
X6350000Y-9836000D02*
X6450000Y-9836000D01*
X6350000Y-10040000D02*
X6450000Y-10140000D01*
X6450000Y-10040000D02*
X6350000Y-10140000D01*
X6400000Y-10040000D02*
X6400000Y-10140000D01*
X6350000Y-10090000D02*
X6450000Y-10090000D01*
X6350000Y-10294000D02*
X6450000Y-10394000D01*
X6450000Y-10294000D02*
X6350000Y-10394000D01*
X6400000Y-10294000D02*
X6400000Y-10394000D01*
X6350000Y-10344000D02*
X6450000Y-10344000D01*
X6350000Y-10548000D02*
X6450000Y-10648000D01*
X6450000Y-10548000D02*
X6350000Y-10648000D01*
X6400000Y-10548000D02*
X6400000Y-10648000D01*
X6350000Y-10598000D02*
X6450000Y-10598000D01*
X6350000Y-10802000D02*
X6450000Y-10902000D01*
X6450000Y-10802000D02*
X6350000Y-10902000D01*
X6400000Y-10802000D02*
X6400000Y-10902000D01*
X6350000Y-10852000D02*
X6450000Y-10852000D01*
X6350000Y-11056000D02*
X6450000Y-11156000D01*
X6450000Y-11056000D02*
X6350000Y-11156000D01*
X6400000Y-11056000D02*
X6400000Y-11156000D01*
X6350000Y-11106000D02*
X6450000Y-11106000D01*
X6350000Y-11310000D02*
X6450000Y-11410000D01*
X6450000Y-11310000D02*
X6350000Y-11410000D01*
X6400000Y-11310000D02*
X6400000Y-11410000D01*
X6350000Y-11360000D02*
X6450000Y-11360000D01*
X6350000Y-11564000D02*
X6450000Y-11664000D01*
X6450000Y-11564000D02*
X6350000Y-11664000D01*
X6400000Y-11564000D02*
X6400000Y-11664000D01*
X6350000Y-11614000D02*
X6450000Y-11614000D01*
X6350000Y-11818000D02*
X6450000Y-11918000D01*
X6450000Y-11818000D02*
X6350000Y-11918000D01*
X6400000Y-11818000D02*
X6400000Y-11918000D01*
X6350000Y-11868000D02*
X6450000Y-11868000D01*
X6350000Y-12072000D02*
X6450000Y-12172000D01*
X6450000Y-12072000D02*
X6350000Y-12172000D01*
X6400000Y-12072000D02*
X6400000Y-12172000D01*
X6350000Y-12122000D02*
X6450000Y-12122000D01*
X6350000Y-12326000D02*
X6450000Y-12426000D01*
X6450000Y-12326000D02*
X6350000Y-12426000D01*
X6400000Y-12326000D02*
X6400000Y-12426000D01*
X6350000Y-12376000D02*
X6450000Y-12376000D01*
X6350000Y-12580000D02*
X6450000Y-12680000D01*
X6450000Y-12580000D02*
X6350000Y-12680000D01*
X6400000Y-12580000D02*
X6400000Y-12680000D01*
X6350000Y-12630000D02*
X6450000Y-12630000D01*
X6350000Y-12834000D02*
X6450000Y-12934000D01*
X6450000Y-12834000D02*
X6350000Y-12934000D01*
X6400000Y-12834000D02*
X6400000Y-12934000D01*
X6350000Y-12884000D02*
X6450000Y-12884000D01*
X6350000Y-13088000D02*
X6450000Y-13188000D01*
X6450000Y-13088000D02*
X6350000Y-13188000D01*
X6400000Y-13088000D02*
X6400000Y-13188000D01*
X6350000Y-13138000D02*
X6450000Y-13138000D01*
X6350000Y-13342000D02*
X6450000Y-13442000D01*
X6450000Y-13342000D02*
X6350000Y-13442000D01*
X6400000Y-13342000D02*
X6400000Y-13442000D01*
X6350000Y-13392000D02*
X6450000Y-13392000D01*
X6350000Y-13596000D02*
X6450000Y-13696000D01*
X6450000Y-13596000D02*
X6350000Y-13696000D01*
X6400000Y-13596000D02*
X6400000Y-13696000D01*
X6350000Y-13646000D02*
X6450000Y-13646000D01*
X6350000Y-13850000D02*
X6450000Y-13950000D01*
X6450000Y-13850000D02*
X6350000Y-13950000D01*
X6400000Y-13850000D02*
X6400000Y-13950000D01*
X6350000Y-13900000D02*
X6450000Y-13900000D01*
X6350000Y-14104000D02*
X6450000Y-14204000D01*
X6450000Y-14104000D02*
X6350000Y-14204000D01*
X6400000Y-14104000D02*
X6400000Y-14204000D01*
X6350000Y-14154000D02*
X6450000Y-14154000D01*
X6350000Y-14358000D02*
X6450000Y-14458000D01*
X6450000Y-14358000D02*
X6350000Y-14458000D01*
X6400000Y-14358000D02*
X6400000Y-14458000D01*
X6350000Y-14408000D02*
X6450000Y-14408000D01*
X6350000Y-14612000D02*
X6450000Y-14712000D01*
X6450000Y-14612000D02*
X6350000Y-14712000D01*
X6400000Y-14612000D02*
X6400000Y-14712000D01*
X6350000Y-14662000D02*
X6450000Y-14662000D01*
X6350000Y-14866000D02*
X6450000Y-14966000D01*
X6450000Y-14866000D02*
X6350000Y-14966000D01*
X6400000Y-14866000D02*
X6400000Y-14966000D01*
X6350000Y-14916000D02*
X6450000Y-14916000D01*
X6350000Y-15120000D02*
X6450000Y-15220000D01*
X6450000Y-15120000D02*
X6350000Y-15220000D01*
X6400000Y-15120000D02*
X6400000Y-15220000D01*
X6350000Y-15170000D02*
X6450000Y-15170000D01*
X6350000Y-15374000D02*
X6450000Y-15474000D01*
X6450000Y-15374000D02*
X6350000Y-15474000D01*
X6400000Y-15374000D02*
X6400000Y-15474000D01*
X6350000Y-15424000D02*
X6450000Y-15424000D01*
X6350000Y-15628000D02*
X6450000Y-15728000D01*
X6450000Y-15628000D02*
X6350000Y-15728000D01*
X6400000Y-15628000D02*
X6400000Y-15728000D01*
X6350000Y-15678000D02*
X6450000Y-15678000D01*
X6350000Y-15882000D02*
X6450000Y-15982000D01*
X6450000Y-15882000D02*
X6350000Y-15982000D01*
X6400000Y-15882000D02*
X6400000Y-15982000D01*
X6350000Y-15932000D02*
X6450000Y-15932000D01*
X6350000Y-16136000D02*
X6450000Y-16236000D01*
X6450000Y-16136000D02*
X6350000Y-16236000D01*
X6400000Y-16136000D02*
X6400000Y-16236000D01*
X6350000Y-16186000D02*
X6450000Y-16186000D01*
X6350000Y-16390000D02*
X6450000Y-16490000D01*
X6450000Y-16390000D02*
X6350000Y-16490000D01*
X6400000Y-16390000D02*
X6400000Y-16490000D01*
X6350000Y-16440000D02*
X6450000Y-16440000D01*
X6600000Y-5701000D02*
X6700000Y-5801000D01*
X6700000Y-5701000D02*
X6600000Y-5801000D01*
X6650000Y-5701000D02*
X6650000Y-5801000D01*
X6600000Y-5751000D02*
X6700000Y-5751000D01*
X6600000Y-5955000D02*
X6700000Y-6055000D01*
X6700000Y-5955000D02*
X6600000Y-6055000D01*
X6650000Y-5955000D02*
X6650000Y-6055000D01*
X6600000Y-6005000D02*
X6700000Y-6005000D01*
X6600000Y-6209000D02*
X6700000Y-6309000D01*
X6700000Y-6209000D02*
X6600000Y-6309000D01*
X6650000Y-6209000D02*
X6650000Y-6309000D01*
X6600000Y-6259000D02*
X6700000Y-6259000D01*
X6600000Y-6463000D02*
X6700000Y-6563000D01*
X6700000Y-6463000D02*
X6600000Y-6563000D01*
X6650000Y-6463000D02*
X6650000Y-6563000D01*
X6600000Y-6513000D02*
X6700000Y-6513000D01*
X6604000Y-7500000D02*
X6704000Y-7600000D01*
X6704000Y-7500000D02*
X6604000Y-7600000D01*
X6654000Y-7500000D02*
X6654000Y-7600000D01*
X6604000Y-7550000D02*
X6704000Y-7550000D01*
X6604000Y-7754000D02*
X6704000Y-7854000D01*
X6704000Y-7754000D02*
X6604000Y-7854000D01*
X6654000Y-7754000D02*
X6654000Y-7854000D01*
X6604000Y-7804000D02*
X6704000Y-7804000D01*
X6604000Y-8008000D02*
X6704000Y-8108000D01*
X6704000Y-8008000D02*
X6604000Y-8108000D01*
X6654000Y-8008000D02*
X6654000Y-8108000D01*
X6604000Y-8058000D02*
X6704000Y-8058000D01*
X6604000Y-8262000D02*
X6704000Y-8362000D01*
X6704000Y-8262000D02*
X6604000Y-8362000D01*
X6654000Y-8262000D02*
X6654000Y-8362000D01*
X6604000Y-8312000D02*
X6704000Y-8312000D01*
X6604000Y-8516000D02*
X6704000Y-8616000D01*
X6704000Y-8516000D02*
X6604000Y-8616000D01*
X6654000Y-8516000D02*
X6654000Y-8616000D01*
X6604000Y-8566000D02*
X6704000Y-8566000D01*
X6604000Y-8770000D02*
X6704000Y-8870000D01*
X6704000Y-8770000D02*
X6604000Y-8870000D01*
X6654000Y-8770000D02*
X6654000Y-8870000D01*
X6604000Y-8820000D02*
X6704000Y-8820000D01*
X6604000Y-9024000D02*
X6704000Y-9124000D01*
X6704000Y-9024000D02*
X6604000Y-9124000D01*
X6654000Y-9024000D02*
X6654000Y-9124000D01*
X6604000Y-9074000D02*
X6704000Y-9074000D01*
X6604000Y-9278000D02*
X6704000Y-9378000D01*
X6704000Y-9278000D02*
X6604000Y-9378000D01*
X6654000Y-9278000D02*
X6654000Y-9378000D01*
X6604000Y-9328000D02*
X6704000Y-9328000D01*
X6604000Y-9532000D02*
X6704000Y-9632000D01*
X6704000Y-9532000D02*
X6604000Y-9632000D01*
X6654000Y-9532000D02*
X6654000Y-9632000D01*
X6604000Y-9582000D02*
X6704000Y-9582000D01*
X6604000Y-9786000D02*
X6704000Y-9886000D01*
X6704000Y-9786000D02*
X6604000Y-9886000D01*
X6654000Y-9786000D02*
X6654000Y-9886000D01*
X6604000Y-9836000D02*
X6704000Y-9836000D01*
X6604000Y-10040000D02*
X6704000Y-10140000D01*
X6704000Y-10040000D02*
X6604000Y-10140000D01*
X6654000Y-10040000D02*
X6654000Y-10140000D01*
X6604000Y-10090000D02*
X6704000Y-10090000D01*
X6604000Y-10294000D02*
X6704000Y-10394000D01*
X6704000Y-10294000D02*
X6604000Y-10394000D01*
X6654000Y-10294000D02*
X6654000Y-10394000D01*
X6604000Y-10344000D02*
X6704000Y-10344000D01*
X6604000Y-10548000D02*
X6704000Y-10648000D01*
X6704000Y-10548000D02*
X6604000Y-10648000D01*
X6654000Y-10548000D02*
X6654000Y-10648000D01*
X6604000Y-10598000D02*
X6704000Y-10598000D01*
X6604000Y-10802000D02*
X6704000Y-10902000D01*
X6704000Y-10802000D02*
X6604000Y-10902000D01*
X6654000Y-10802000D02*
X6654000Y-10902000D01*
X6604000Y-10852000D02*
X6704000Y-10852000D01*
X6604000Y-11056000D02*
X6704000Y-11156000D01*
X6704000Y-11056000D02*
X6604000Y-11156000D01*
X6654000Y-11056000D02*
X6654000Y-11156000D01*
X6604000Y-11106000D02*
X6704000Y-11106000D01*
X6604000Y-11310000D02*
X6704000Y-11410000D01*
X6704000Y-11310000D02*
X6604000Y-11410000D01*
X6654000Y-11310000D02*
X6654000Y-11410000D01*
X6604000Y-11360000D02*
X6704000Y-11360000D01*
X6604000Y-11564000D02*
X6704000Y-11664000D01*
X6704000Y-11564000D02*
X6604000Y-11664000D01*
X6654000Y-11564000D02*
X6654000Y-11664000D01*
X6604000Y-11614000D02*
X6704000Y-11614000D01*
X6604000Y-11818000D02*
X6704000Y-11918000D01*
X6704000Y-11818000D02*
X6604000Y-11918000D01*
X6654000Y-11818000D02*
X6654000Y-11918000D01*
X6604000Y-11868000D02*
X6704000Y-11868000D01*
X6604000Y-12072000D02*
X6704000Y-12172000D01*
X6704000Y-12072000D02*
X6604000Y-12172000D01*
X6654000Y-12072000D02*
X6654000Y-12172000D01*
X6604000Y-12122000D02*
X6704000Y-12122000D01*
X6604000Y-12326000D02*
X6704000Y-12426000D01*
X6704000Y-12326000D02*
X6604000Y-12426000D01*
X6654000Y-12326000D02*
X6654000Y-12426000D01*
X6604000Y-12376000D02*
X6704000Y-12376000D01*
X6604000Y-12580000D02*
X6704000Y-12680000D01*
X6704000Y-12580000D02*
X6604000Y-12680000D01*
X6654000Y-12580000D02*
X6654000Y-12680000D01*
X6604000Y-12630000D02*
X6704000Y-12630000D01*
X6604000Y-12834000D02*
X6704000Y-12934000D01*
X6704000Y-12834000D02*
X6604000Y-12934000D01*
X6654000Y-12834000D02*
X6654000Y-12934000D01*
X6604000Y-12884000D02*
X6704000Y-12884000D01*
X6604000Y-13088000D02*
X6704000Y-13188000D01*
X6704000Y-13088000D02*
X6604000Y-13188000D01*
X6654000Y-13088000D02*
X6654000Y-13188000D01*
X6604000Y-13138000D02*
X6704000Y-13138000D01*
X6604000Y-13342000D02*
X6704000Y-13442000D01*
X6704000Y-13342000D02*
X6604000Y-13442000D01*
X6654000Y-13342000D02*
X6654000Y-13442000D01*
X6604000Y-13392000D02*
X6704000Y-13392000D01*
X6604000Y-13596000D02*
X6704000Y-13696000D01*
X6704000Y-13596000D02*
X6604000Y-13696000D01*
X6654000Y-13596000D02*
X6654000Y-13696000D01*
X6604000Y-13646000D02*
X6704000Y-13646000D01*
X6604000Y-13850000D02*
X6704000Y-13950000D01*
X6704000Y-13850000D02*
X6604000Y-13950000D01*
X6654000Y-13850000D02*
X6654000Y-13950000D01*
X6604000Y-13900000D02*
X6704000Y-13900000D01*
X6604000Y-14104000D02*
X6704000Y-14204000D01*
X6704000Y-14104000D02*
X6604000Y-14204000D01*
X6654000Y-14104000D02*
X6654000Y-14204000D01*
X6604000Y-14154000D02*
X6704000Y-14154000D01*
X6604000Y-14358000D02*
X6704000Y-14458000D01*
X6704000Y-14358000D02*
X6604000Y-14458000D01*
X6654000Y-14358000D02*
X6654000Y-14458000D01*
X6604000Y-14408000D02*
X6704000Y-14408000D01*
X6604000Y-14612000D02*
X6704000Y-14712000D01*
X6704000Y-14612000D02*
X6604000Y-14712000D01*
X6654000Y-14612000D02*
X6654000Y-14712000D01*
X6604000Y-14662000D02*
X6704000Y-14662000D01*
X6604000Y-14866000D02*
X6704000Y-14966000D01*
X6704000Y-14866000D02*
X6604000Y-14966000D01*
X6654000Y-14866000D02*
X6654000Y-14966000D01*
X6604000Y-14916000D02*
X6704000Y-14916000D01*
X6604000Y-15120000D02*
X6704000Y-15220000D01*
X6704000Y-15120000D02*
X6604000Y-15220000D01*
X6654000Y-15120000D02*
X6654000Y-15220000D01*
X6604000Y-15170000D02*
X6704000Y-15170000D01*
X6604000Y-15374000D02*
X6704000Y-15474000D01*
X6704000Y-15374000D02*
X6604000Y-15474000D01*
X6654000Y-15374000D02*
X6654000Y-15474000D01*
X6604000Y-15424000D02*
X6704000Y-15424000D01*
X6604000Y-15628000D02*
X6704000Y-15728000D01*
X6704000Y-15628000D02*
X6604000Y-15728000D01*
X6654000Y-15628000D02*
X6654000Y-15728000D01*
X6604000Y-15678000D02*
X6704000Y-15678000D01*
X6604000Y-15882000D02*
X6704000Y-15982000D01*
X6704000Y-15882000D02*
X6604000Y-15982000D01*
X6654000Y-15882000D02*
X6654000Y-15982000D01*
X6604000Y-15932000D02*
X6704000Y-15932000D01*
X6604000Y-16136000D02*
X6704000Y-16236000D01*
X6704000Y-16136000D02*
X6604000Y-16236000D01*
X6654000Y-16136000D02*
X6654000Y-16236000D01*
X6604000Y-16186000D02*
X6704000Y-16186000D01*
X6604000Y-16390000D02*
X6704000Y-16490000D01*
X6704000Y-16390000D02*
X6604000Y-16490000D01*
X6654000Y-16390000D02*
X6654000Y-16490000D01*
X6604000Y-16440000D02*
X6704000Y-16440000D01*
X7850000Y-13650000D02*
X7950000Y-13750000D01*
X7950000Y-13650000D02*
X7850000Y-13750000D01*
X7900000Y-13650000D02*
X7900000Y-13750000D01*
X7850000Y-13700000D02*
X7950000Y-13700000D01*
X7850000Y-13904000D02*
X7950000Y-14004000D01*
X7950000Y-13904000D02*
X7850000Y-14004000D01*
X7900000Y-13904000D02*
X7900000Y-14004000D01*
X7850000Y-13954000D02*
X7950000Y-13954000D01*
X7850000Y-14158000D02*
X7950000Y-14258000D01*
X7950000Y-14158000D02*
X7850000Y-14258000D01*
X7900000Y-14158000D02*
X7900000Y-14258000D01*
X7850000Y-14208000D02*
X7950000Y-14208000D01*
X7850000Y-14412000D02*
X7950000Y-14512000D01*
X7950000Y-14412000D02*
X7850000Y-14512000D01*
X7900000Y-14412000D02*
X7900000Y-14512000D01*
X7850000Y-14462000D02*
X7950000Y-14462000D01*
X7850000Y-14666000D02*
X7950000Y-14766000D01*
X7950000Y-14666000D02*
X7850000Y-14766000D01*
X7900000Y-14666000D02*
X7900000Y-14766000D01*
X7850000Y-14716000D02*
X7950000Y-14716000D01*
X7850000Y-14920000D02*
X7950000Y-15020000D01*
X7950000Y-14920000D02*
X7850000Y-15020000D01*
X7900000Y-14920000D02*
X7900000Y-15020000D01*
X7850000Y-14970000D02*
X7950000Y-14970000D01*
X7850000Y-15174000D02*
X7950000Y-15274000D01*
X7950000Y-15174000D02*
X7850000Y-15274000D01*
X7900000Y-15174000D02*
X7900000Y-15274000D01*
X7850000Y-15224000D02*
X7950000Y-15224000D01*
X7850000Y-15428000D02*
X7950000Y-15528000D01*
X7950000Y-15428000D02*
X7850000Y-15528000D01*
X7900000Y-15428000D02*
X7900000Y-15528000D01*
X7850000Y-15478000D02*
X7950000Y-15478000D01*
X7850000Y-15682000D02*
X7950000Y-15782000D01*
X7950000Y-15682000D02*
X7850000Y-15782000D01*
X7900000Y-15682000D02*
X7900000Y-15782000D01*
X7850000Y-15732000D02*
X7950000Y-15732000D01*
X7850000Y-15936000D02*
X7950000Y-16036000D01*
X7950000Y-15936000D02*
X7850000Y-16036000D01*
X7900000Y-15936000D02*
X7900000Y-16036000D01*
X7850000Y-15986000D02*
X7950000Y-15986000D01*
X8104000Y-13650000D02*
X8204000Y-13750000D01*
X8204000Y-13650000D02*
X8104000Y-13750000D01*
X8154000Y-13650000D02*
X8154000Y-13750000D01*
X8104000Y-13700000D02*
X8204000Y-13700000D01*
X8104000Y-13904000D02*
X8204000Y-14004000D01*
X8204000Y-13904000D02*
X8104000Y-14004000D01*
X8154000Y-13904000D02*
X8154000Y-14004000D01*
X8104000Y-13954000D02*
X8204000Y-13954000D01*
X8104000Y-14158000D02*
X8204000Y-14258000D01*
X8204000Y-14158000D02*
X8104000Y-14258000D01*
X8154000Y-14158000D02*
X8154000Y-14258000D01*
X8104000Y-14208000D02*
X8204000Y-14208000D01*
X8104000Y-14412000D02*
X8204000Y-14512000D01*
X8204000Y-14412000D02*
X8104000Y-14512000D01*
X8154000Y-14412000D02*
X8154000Y-14512000D01*
X8104000Y-14462000D02*
X8204000Y-14462000D01*
X8104000Y-14666000D02*
X8204000Y-14766000D01*
X8204000Y-14666000D02*
X8104000Y-14766000D01*
X8154000Y-14666000D02*
X8154000Y-14766000D01*
X8104000Y-14716000D02*
X8204000Y-14716000D01*
X8104000Y-14920000D02*
X8204000Y-15020000D01*
X8204000Y-14920000D02*
X8104000Y-15020000D01*
X8154000Y-14920000D02*
X8154000Y-15020000D01*
X8104000Y-14970000D02*
X8204000Y-14970000D01*
X8104000Y-15174000D02*
X8204000Y-15274000D01*
X8204000Y-15174000D02*
X8104000Y-15274000D01*
X8154000Y-15174000D02*
X8154000Y-15274000D01*
X8104000Y-15224000D02*
X8204000Y-15224000D01*
X8104000Y-15428000D02*
X8204000Y-15528000D01*
X8204000Y-15428000D02*
X8104000Y-15528000D01*
X8154000Y-15428000D02*
X8154000Y-15528000D01*
X8104000Y-15478000D02*
X8204000Y-15478000D01*
X8104000Y-15682000D02*
X8204000Y-15782000D01*
X8204000Y-15682000D02*
X8104000Y-15782000D01*
X8154000Y-15682000D02*
X8154000Y-15782000D01*
X8104000Y-15732000D02*
X8204000Y-15732000D01*
X8104000Y-15936000D02*
X8204000Y-16036000D01*
X8204000Y-15936000D02*
X8104000Y-16036000D01*
X8154000Y-15936000D02*
X8154000Y-16036000D01*
X8104000Y-15986000D02*
X8204000Y-15986000D01*
X8275000Y-16947500D02*
X8375000Y-17047500D01*
X8375000Y-16947500D02*
X8275000Y-17047500D01*
X8325000Y-16947500D02*
X8325000Y-17047500D01*
X8275000Y-16997500D02*
X8375000Y-16997500D01*
X8275000Y-17201500D02*
X8375000Y-17301500D01*
X8375000Y-17201500D02*
X8275000Y-17301500D01*
X8325000Y-17201500D02*
X8325000Y-17301500D01*
X8275000Y-17251500D02*
X8375000Y-17251500D01*
X10945000Y-13650000D02*
X11045000Y-13750000D01*
X11045000Y-13650000D02*
X10945000Y-13750000D01*
X10995000Y-13650000D02*
X10995000Y-13750000D01*
X10945000Y-13700000D02*
X11045000Y-13700000D01*
X10945000Y-13904000D02*
X11045000Y-14004000D01*
X11045000Y-13904000D02*
X10945000Y-14004000D01*
X10995000Y-13904000D02*
X10995000Y-14004000D01*
X10945000Y-13954000D02*
X11045000Y-13954000D01*
X10945000Y-14158000D02*
X11045000Y-14258000D01*
X11045000Y-14158000D02*
X10945000Y-14258000D01*
X10995000Y-14158000D02*
X10995000Y-14258000D01*
X10945000Y-14208000D02*
X11045000Y-14208000D01*
X10945000Y-14412000D02*
X11045000Y-14512000D01*
X11045000Y-14412000D02*
X10945000Y-14512000D01*
X10995000Y-14412000D02*
X10995000Y-14512000D01*
X10945000Y-14462000D02*
X11045000Y-14462000D01*
X10945000Y-14666000D02*
X11045000Y-14766000D01*
X11045000Y-14666000D02*
X10945000Y-14766000D01*
X10995000Y-14666000D02*
X10995000Y-14766000D01*
X10945000Y-14716000D02*
X11045000Y-14716000D01*
X10945000Y-14920000D02*
X11045000Y-15020000D01*
X11045000Y-14920000D02*
X10945000Y-15020000D01*
X10995000Y-14920000D02*
X10995000Y-15020000D01*
X10945000Y-14970000D02*
X11045000Y-14970000D01*
X10945000Y-15174000D02*
X11045000Y-15274000D01*
X11045000Y-15174000D02*
X10945000Y-15274000D01*
X10995000Y-15174000D02*
X10995000Y-15274000D01*
X10945000Y-15224000D02*
X11045000Y-15224000D01*
X10945000Y-15428000D02*
X11045000Y-15528000D01*
X11045000Y-15428000D02*
X10945000Y-15528000D01*
X10995000Y-15428000D02*
X10995000Y-15528000D01*
X10945000Y-15478000D02*
X11045000Y-15478000D01*
X10945000Y-15682000D02*
X11045000Y-15782000D01*
X11045000Y-15682000D02*
X10945000Y-15782000D01*
X10995000Y-15682000D02*
X10995000Y-15782000D01*
X10945000Y-15732000D02*
X11045000Y-15732000D01*
X10945000Y-15936000D02*
X11045000Y-16036000D01*
X11045000Y-15936000D02*
X10945000Y-16036000D01*
X10995000Y-15936000D02*
X10995000Y-16036000D01*
X10945000Y-15986000D02*
X11045000Y-15986000D01*
X11199000Y-13650000D02*
X11299000Y-13750000D01*
X11299000Y-13650000D02*
X11199000Y-13750000D01*
X11249000Y-13650000D02*
X11249000Y-13750000D01*
X11199000Y-13700000D02*
X11299000Y-13700000D01*
X11199000Y-13904000D02*
X11299000Y-14004000D01*
X11299000Y-13904000D02*
X11199000Y-14004000D01*
X11249000Y-13904000D02*
X11249000Y-14004000D01*
X11199000Y-13954000D02*
X11299000Y-13954000D01*
X11199000Y-14158000D02*
X11299000Y-14258000D01*
X11299000Y-14158000D02*
X11199000Y-14258000D01*
X11249000Y-14158000D02*
X11249000Y-14258000D01*
X11199000Y-14208000D02*
X11299000Y-14208000D01*
X11199000Y-14412000D02*
X11299000Y-14512000D01*
X11299000Y-14412000D02*
X11199000Y-14512000D01*
X11249000Y-14412000D02*
X11249000Y-14512000D01*
X11199000Y-14462000D02*
X11299000Y-14462000D01*
X11199000Y-14666000D02*
X11299000Y-14766000D01*
X11299000Y-14666000D02*
X11199000Y-14766000D01*
X11249000Y-14666000D02*
X11249000Y-14766000D01*
X11199000Y-14716000D02*
X11299000Y-14716000D01*
X11199000Y-14920000D02*
X11299000Y-15020000D01*
X11299000Y-14920000D02*
X11199000Y-15020000D01*
X11249000Y-14920000D02*
X11249000Y-15020000D01*
X11199000Y-14970000D02*
X11299000Y-14970000D01*
X11199000Y-15174000D02*
X11299000Y-15274000D01*
X11299000Y-15174000D02*
X11199000Y-15274000D01*
X11249000Y-15174000D02*
X11249000Y-15274000D01*
X11199000Y-15224000D02*
X11299000Y-15224000D01*
X11199000Y-15428000D02*
X11299000Y-15528000D01*
X11299000Y-15428000D02*
X11199000Y-15528000D01*
X11249000Y-15428000D02*
X11249000Y-15528000D01*
X11199000Y-15478000D02*
X11299000Y-15478000D01*
X11199000Y-15682000D02*
X11299000Y-15782000D01*
X11299000Y-15682000D02*
X11199000Y-15782000D01*
X11249000Y-15682000D02*
X11249000Y-15782000D01*
X11199000Y-15732000D02*
X11299000Y-15732000D01*
X11199000Y-15936000D02*
X11299000Y-16036000D01*
X11299000Y-15936000D02*
X11199000Y-16036000D01*
X11249000Y-15936000D02*
X11249000Y-16036000D01*
X11199000Y-15986000D02*
X11299000Y-15986000D01*
X11880000Y-12040000D02*
X11980000Y-12140000D01*
X11980000Y-12040000D02*
X11880000Y-12140000D01*
X11930000Y-12040000D02*
X11930000Y-12140000D01*
X11880000Y-12090000D02*
X11980000Y-12090000D01*
X11880000Y-12294000D02*
X11980000Y-12394000D01*
X11980000Y-12294000D02*
X11880000Y-12394000D01*
X11930000Y-12294000D02*
X11930000Y-12394000D01*
X11880000Y-12344000D02*
X11980000Y-12344000D01*
X11880000Y-12548000D02*
X11980000Y-12648000D01*
X11980000Y-12548000D02*
X11880000Y-12648000D01*
X11930000Y-12548000D02*
X11930000Y-12648000D01*
X11880000Y-12598000D02*
X11980000Y-12598000D01*
X11880000Y-12802000D02*
X11980000Y-12902000D01*
X11980000Y-12802000D02*
X11880000Y-12902000D01*
X11930000Y-12802000D02*
X11930000Y-12902000D01*
X11880000Y-12852000D02*
X11980000Y-12852000D01*
X11880000Y-13056000D02*
X11980000Y-13156000D01*
X11980000Y-13056000D02*
X11880000Y-13156000D01*
X11930000Y-13056000D02*
X11930000Y-13156000D01*
X11880000Y-13106000D02*
X11980000Y-13106000D01*
X11880000Y-13310000D02*
X11980000Y-13410000D01*
X11980000Y-13310000D02*
X11880000Y-13410000D01*
X11930000Y-13310000D02*
X11930000Y-13410000D01*
X11880000Y-13360000D02*
X11980000Y-13360000D01*
X11880000Y-13564000D02*
X11980000Y-13664000D01*
X11980000Y-13564000D02*
X11880000Y-13664000D01*
X11930000Y-13564000D02*
X11930000Y-13664000D01*
X11880000Y-13614000D02*
X11980000Y-13614000D01*
X12446000Y-7500000D02*
X12546000Y-7600000D01*
X12546000Y-7500000D02*
X12446000Y-7600000D01*
X12496000Y-7500000D02*
X12496000Y-7600000D01*
X12446000Y-7550000D02*
X12546000Y-7550000D01*
X12446000Y-7754000D02*
X12546000Y-7854000D01*
X12546000Y-7754000D02*
X12446000Y-7854000D01*
X12496000Y-7754000D02*
X12496000Y-7854000D01*
X12446000Y-7804000D02*
X12546000Y-7804000D01*
X12446000Y-8008000D02*
X12546000Y-8108000D01*
X12546000Y-8008000D02*
X12446000Y-8108000D01*
X12496000Y-8008000D02*
X12496000Y-8108000D01*
X12446000Y-8058000D02*
X12546000Y-8058000D01*
X12446000Y-8262000D02*
X12546000Y-8362000D01*
X12546000Y-8262000D02*
X12446000Y-8362000D01*
X12496000Y-8262000D02*
X12496000Y-8362000D01*
X12446000Y-8312000D02*
X12546000Y-8312000D01*
X12446000Y-8516000D02*
X12546000Y-8616000D01*
X12546000Y-8516000D02*
X12446000Y-8616000D01*
X12496000Y-8516000D02*
X12496000Y-8616000D01*
X12446000Y-8566000D02*
X12546000Y-8566000D01*
X12446000Y-8770000D02*
X12546000Y-8870000D01*
X12546000Y-8770000D02*
X12446000Y-8870000D01*
X12496000Y-8770000D02*
X12496000Y-8870000D01*
X12446000Y-8820000D02*
X12546000Y-8820000D01*
X12446000Y-9024000D02*
X12546000Y-9124000D01*
X12546000Y-9024000D02*
X12446000Y-9124000D01*
X12496000Y-9024000D02*
X12496000Y-9124000D01*
X12446000Y-9074000D02*
X12546000Y-9074000D01*
X12446000Y-9278000D02*
X12546000Y-9378000D01*
X12546000Y-9278000D02*
X12446000Y-9378000D01*
X12496000Y-9278000D02*
X12496000Y-9378000D01*
X12446000Y-9328000D02*
X12546000Y-9328000D01*
X12446000Y-9532000D02*
X12546000Y-9632000D01*
X12546000Y-9532000D02*
X12446000Y-9632000D01*
X12496000Y-9532000D02*
X12496000Y-9632000D01*
X12446000Y-9582000D02*
X12546000Y-9582000D01*
X12446000Y-9786000D02*
X12546000Y-9886000D01*
X12546000Y-9786000D02*
X12446000Y-9886000D01*
X12496000Y-9786000D02*
X12496000Y-9886000D01*
X12446000Y-9836000D02*
X12546000Y-9836000D01*
X12446000Y-10040000D02*
X12546000Y-10140000D01*
X12546000Y-10040000D02*
X12446000Y-10140000D01*
X12496000Y-10040000D02*
X12496000Y-10140000D01*
X12446000Y-10090000D02*
X12546000Y-10090000D01*
X12446000Y-10294000D02*
X12546000Y-10394000D01*
X12546000Y-10294000D02*
X12446000Y-10394000D01*
X12496000Y-10294000D02*
X12496000Y-10394000D01*
X12446000Y-10344000D02*
X12546000Y-10344000D01*
X12446000Y-10548000D02*
X12546000Y-10648000D01*
X12546000Y-10548000D02*
X12446000Y-10648000D01*
X12496000Y-10548000D02*
X12496000Y-10648000D01*
X12446000Y-10598000D02*
X12546000Y-10598000D01*
X12446000Y-10802000D02*
X12546000Y-10902000D01*
X12546000Y-10802000D02*
X12446000Y-10902000D01*
X12496000Y-10802000D02*
X12496000Y-10902000D01*
X12446000Y-10852000D02*
X12546000Y-10852000D01*
X12446000Y-11056000D02*
X12546000Y-11156000D01*
X12546000Y-11056000D02*
X12446000Y-11156000D01*
X12496000Y-11056000D02*
X12496000Y-11156000D01*
X12446000Y-11106000D02*
X12546000Y-11106000D01*
X12446000Y-11310000D02*
X12546000Y-11410000D01*
X12546000Y-11310000D02*
X12446000Y-11410000D01*
X12496000Y-11310000D02*
X12496000Y-11410000D01*
X12446000Y-11360000D02*
X12546000Y-11360000D01*
X12446000Y-11564000D02*
X12546000Y-11664000D01*
X12546000Y-11564000D02*
X12446000Y-11664000D01*
X12496000Y-11564000D02*
X12496000Y-11664000D01*
X12446000Y-11614000D02*
X12546000Y-11614000D01*
X12446000Y-11818000D02*
X12546000Y-11918000D01*
X12546000Y-11818000D02*
X12446000Y-11918000D01*
X12496000Y-11818000D02*
X12496000Y-11918000D01*
X12446000Y-11868000D02*
X12546000Y-11868000D01*
X12446000Y-12072000D02*
X12546000Y-12172000D01*
X12546000Y-12072000D02*
X12446000Y-12172000D01*
X12496000Y-12072000D02*
X12496000Y-12172000D01*
X12446000Y-12122000D02*
X12546000Y-12122000D01*
X12446000Y-12326000D02*
X12546000Y-12426000D01*
X12546000Y-12326000D02*
X12446000Y-12426000D01*
X12496000Y-12326000D02*
X12496000Y-12426000D01*
X12446000Y-12376000D02*
X12546000Y-12376000D01*
X12446000Y-12580000D02*
X12546000Y-12680000D01*
X12546000Y-12580000D02*
X12446000Y-12680000D01*
X12496000Y-12580000D02*
X12496000Y-12680000D01*
X12446000Y-12630000D02*
X12546000Y-12630000D01*
X12446000Y-12834000D02*
X12546000Y-12934000D01*
X12546000Y-12834000D02*
X12446000Y-12934000D01*
X12496000Y-12834000D02*
X12496000Y-12934000D01*
X12446000Y-12884000D02*
X12546000Y-12884000D01*
X12446000Y-13088000D02*
X12546000Y-13188000D01*
X12546000Y-13088000D02*
X12446000Y-13188000D01*
X12496000Y-13088000D02*
X12496000Y-13188000D01*
X12446000Y-13138000D02*
X12546000Y-13138000D01*
X12446000Y-13342000D02*
X12546000Y-13442000D01*
X12546000Y-13342000D02*
X12446000Y-13442000D01*
X12496000Y-13342000D02*
X12496000Y-13442000D01*
X12446000Y-13392000D02*
X12546000Y-13392000D01*
X12446000Y-13596000D02*
X12546000Y-13696000D01*
X12546000Y-13596000D02*
X12446000Y-13696000D01*
X12496000Y-13596000D02*
X12496000Y-13696000D01*
X12446000Y-13646000D02*
X12546000Y-13646000D01*
X12446000Y-13850000D02*
X12546000Y-13950000D01*
X12546000Y-13850000D02*
X12446000Y-13950000D01*
X12496000Y-13850000D02*
X12496000Y-13950000D01*
X12446000Y-13900000D02*
X12546000Y-13900000D01*
X12446000Y-14104000D02*
X12546000Y-14204000D01*
X12546000Y-14104000D02*
X12446000Y-14204000D01*
X12496000Y-14104000D02*
X12496000Y-14204000D01*
X12446000Y-14154000D02*
X12546000Y-14154000D01*
X12446000Y-14358000D02*
X12546000Y-14458000D01*
X12546000Y-14358000D02*
X12446000Y-14458000D01*
X12496000Y-14358000D02*
X12496000Y-14458000D01*
X12446000Y-14408000D02*
X12546000Y-14408000D01*
X12446000Y-14612000D02*
X12546000Y-14712000D01*
X12546000Y-14612000D02*
X12446000Y-14712000D01*
X12496000Y-14612000D02*
X12496000Y-14712000D01*
X12446000Y-14662000D02*
X12546000Y-14662000D01*
X12446000Y-14866000D02*
X12546000Y-14966000D01*
X12546000Y-14866000D02*
X12446000Y-14966000D01*
X12496000Y-14866000D02*
X12496000Y-14966000D01*
X12446000Y-14916000D02*
X12546000Y-14916000D01*
X12446000Y-15120000D02*
X12546000Y-15220000D01*
X12546000Y-15120000D02*
X12446000Y-15220000D01*
X12496000Y-15120000D02*
X12496000Y-15220000D01*
X12446000Y-15170000D02*
X12546000Y-15170000D01*
X12446000Y-15374000D02*
X12546000Y-15474000D01*
X12546000Y-15374000D02*
X12446000Y-15474000D01*
X12496000Y-15374000D02*
X12496000Y-15474000D01*
X12446000Y-15424000D02*
X12546000Y-15424000D01*
X12446000Y-15628000D02*
X12546000Y-15728000D01*
X12546000Y-15628000D02*
X12446000Y-15728000D01*
X12496000Y-15628000D02*
X12496000Y-15728000D01*
X12446000Y-15678000D02*
X12546000Y-15678000D01*
X12446000Y-15882000D02*
X12546000Y-15982000D01*
X12546000Y-15882000D02*
X12446000Y-15982000D01*
X12496000Y-15882000D02*
X12496000Y-15982000D01*
X12446000Y-15932000D02*
X12546000Y-15932000D01*
X12446000Y-16136000D02*
X12546000Y-16236000D01*
X12546000Y-16136000D02*
X12446000Y-16236000D01*
X12496000Y-16136000D02*
X12496000Y-16236000D01*
X12446000Y-16186000D02*
X12546000Y-16186000D01*
X12446000Y-16390000D02*
X12546000Y-16490000D01*
X12546000Y-16390000D02*
X12446000Y-16490000D01*
X12496000Y-16390000D02*
X12496000Y-16490000D01*
X12446000Y-16440000D02*
X12546000Y-16440000D01*
X12450000Y-5701000D02*
X12550000Y-5801000D01*
X12550000Y-5701000D02*
X12450000Y-5801000D01*
X12500000Y-5701000D02*
X12500000Y-5801000D01*
X12450000Y-5751000D02*
X12550000Y-5751000D01*
X12450000Y-5955000D02*
X12550000Y-6055000D01*
X12550000Y-5955000D02*
X12450000Y-6055000D01*
X12500000Y-5955000D02*
X12500000Y-6055000D01*
X12450000Y-6005000D02*
X12550000Y-6005000D01*
X12450000Y-6209000D02*
X12550000Y-6309000D01*
X12550000Y-6209000D02*
X12450000Y-6309000D01*
X12500000Y-6209000D02*
X12500000Y-6309000D01*
X12450000Y-6259000D02*
X12550000Y-6259000D01*
X12450000Y-6463000D02*
X12550000Y-6563000D01*
X12550000Y-6463000D02*
X12450000Y-6563000D01*
X12500000Y-6463000D02*
X12500000Y-6563000D01*
X12450000Y-6513000D02*
X12550000Y-6513000D01*
X12700000Y-4706000D02*
X12800000Y-4806000D01*
X12800000Y-4706000D02*
X12700000Y-4806000D01*
X12750000Y-4706000D02*
X12750000Y-4806000D01*
X12700000Y-4756000D02*
X12800000Y-4756000D01*
X12700000Y-4960000D02*
X12800000Y-5060000D01*
X12800000Y-4960000D02*
X12700000Y-5060000D01*
X12750000Y-4960000D02*
X12750000Y-5060000D01*
X12700000Y-5010000D02*
X12800000Y-5010000D01*
X12700000Y-7500000D02*
X12800000Y-7600000D01*
X12800000Y-7500000D02*
X12700000Y-7600000D01*
X12750000Y-7500000D02*
X12750000Y-7600000D01*
X12700000Y-7550000D02*
X12800000Y-7550000D01*
X12700000Y-7754000D02*
X12800000Y-7854000D01*
X12800000Y-7754000D02*
X12700000Y-7854000D01*
X12750000Y-7754000D02*
X12750000Y-7854000D01*
X12700000Y-7804000D02*
X12800000Y-7804000D01*
X12700000Y-8008000D02*
X12800000Y-8108000D01*
X12800000Y-8008000D02*
X12700000Y-8108000D01*
X12750000Y-8008000D02*
X12750000Y-8108000D01*
X12700000Y-8058000D02*
X12800000Y-8058000D01*
X12700000Y-8262000D02*
X12800000Y-8362000D01*
X12800000Y-8262000D02*
X12700000Y-8362000D01*
X12750000Y-8262000D02*
X12750000Y-8362000D01*
X12700000Y-8312000D02*
X12800000Y-8312000D01*
X12700000Y-8516000D02*
X12800000Y-8616000D01*
X12800000Y-8516000D02*
X12700000Y-8616000D01*
X12750000Y-8516000D02*
X12750000Y-8616000D01*
X12700000Y-8566000D02*
X12800000Y-8566000D01*
X12700000Y-8770000D02*
X12800000Y-8870000D01*
X12800000Y-8770000D02*
X12700000Y-8870000D01*
X12750000Y-8770000D02*
X12750000Y-8870000D01*
X12700000Y-8820000D02*
X12800000Y-8820000D01*
X12700000Y-9024000D02*
X12800000Y-9124000D01*
X12800000Y-9024000D02*
X12700000Y-9124000D01*
X12750000Y-9024000D02*
X12750000Y-9124000D01*
X12700000Y-9074000D02*
X12800000Y-9074000D01*
X12700000Y-9278000D02*
X12800000Y-9378000D01*
X12800000Y-9278000D02*
X12700000Y-9378000D01*
X12750000Y-9278000D02*
X12750000Y-9378000D01*
X12700000Y-9328000D02*
X12800000Y-9328000D01*
X12700000Y-9532000D02*
X12800000Y-9632000D01*
X12800000Y-9532000D02*
X12700000Y-9632000D01*
X12750000Y-9532000D02*
X12750000Y-9632000D01*
X12700000Y-9582000D02*
X12800000Y-9582000D01*
X12700000Y-9786000D02*
X12800000Y-9886000D01*
X12800000Y-9786000D02*
X12700000Y-9886000D01*
X12750000Y-9786000D02*
X12750000Y-9886000D01*
X12700000Y-9836000D02*
X12800000Y-9836000D01*
X12700000Y-10040000D02*
X12800000Y-10140000D01*
X12800000Y-10040000D02*
X12700000Y-10140000D01*
X12750000Y-10040000D02*
X12750000Y-10140000D01*
X12700000Y-10090000D02*
X12800000Y-10090000D01*
X12700000Y-10294000D02*
X12800000Y-10394000D01*
X12800000Y-10294000D02*
X12700000Y-10394000D01*
X12750000Y-10294000D02*
X12750000Y-10394000D01*
X12700000Y-10344000D02*
X12800000Y-10344000D01*
X12700000Y-10548000D02*
X12800000Y-10648000D01*
X12800000Y-10548000D02*
X12700000Y-10648000D01*
X12750000Y-10548000D02*
X12750000Y-10648000D01*
X12700000Y-10598000D02*
X12800000Y-10598000D01*
X12700000Y-10802000D02*
X12800000Y-10902000D01*
X12800000Y-10802000D02*
X12700000Y-10902000D01*
X12750000Y-10802000D02*
X12750000Y-10902000D01*
X12700000Y-10852000D02*
X12800000Y-10852000D01*
X12700000Y-11056000D02*
X12800000Y-11156000D01*
X12800000Y-11056000D02*
X12700000Y-11156000D01*
X12750000Y-11056000D02*
X12750000Y-11156000D01*
X12700000Y-11106000D02*
X12800000Y-11106000D01*
X12700000Y-11310000D02*
X12800000Y-11410000D01*
X12800000Y-11310000D02*
X12700000Y-11410000D01*
X12750000Y-11310000D02*
X12750000Y-11410000D01*
X12700000Y-11360000D02*
X12800000Y-11360000D01*
X12700000Y-11564000D02*
X12800000Y-11664000D01*
X12800000Y-11564000D02*
X12700000Y-11664000D01*
X12750000Y-11564000D02*
X12750000Y-11664000D01*
X12700000Y-11614000D02*
X12800000Y-11614000D01*
X12700000Y-11818000D02*
X12800000Y-11918000D01*
X12800000Y-11818000D02*
X12700000Y-11918000D01*
X12750000Y-11818000D02*
X12750000Y-11918000D01*
X12700000Y-11868000D02*
X12800000Y-11868000D01*
X12700000Y-12072000D02*
X12800000Y-12172000D01*
X12800000Y-12072000D02*
X12700000Y-12172000D01*
X12750000Y-12072000D02*
X12750000Y-12172000D01*
X12700000Y-12122000D02*
X12800000Y-12122000D01*
X12700000Y-12326000D02*
X12800000Y-12426000D01*
X12800000Y-12326000D02*
X12700000Y-12426000D01*
X12750000Y-12326000D02*
X12750000Y-12426000D01*
X12700000Y-12376000D02*
X12800000Y-12376000D01*
X12700000Y-12580000D02*
X12800000Y-12680000D01*
X12800000Y-12580000D02*
X12700000Y-12680000D01*
X12750000Y-12580000D02*
X12750000Y-12680000D01*
X12700000Y-12630000D02*
X12800000Y-12630000D01*
X12700000Y-12834000D02*
X12800000Y-12934000D01*
X12800000Y-12834000D02*
X12700000Y-12934000D01*
X12750000Y-12834000D02*
X12750000Y-12934000D01*
X12700000Y-12884000D02*
X12800000Y-12884000D01*
X12700000Y-13088000D02*
X12800000Y-13188000D01*
X12800000Y-13088000D02*
X12700000Y-13188000D01*
X12750000Y-13088000D02*
X12750000Y-13188000D01*
X12700000Y-13138000D02*
X12800000Y-13138000D01*
X12700000Y-13342000D02*
X12800000Y-13442000D01*
X12800000Y-13342000D02*
X12700000Y-13442000D01*
X12750000Y-13342000D02*
X12750000Y-13442000D01*
X12700000Y-13392000D02*
X12800000Y-13392000D01*
X12700000Y-13596000D02*
X12800000Y-13696000D01*
X12800000Y-13596000D02*
X12700000Y-13696000D01*
X12750000Y-13596000D02*
X12750000Y-13696000D01*
X12700000Y-13646000D02*
X12800000Y-13646000D01*
X12700000Y-13850000D02*
X12800000Y-13950000D01*
X12800000Y-13850000D02*
X12700000Y-13950000D01*
X12750000Y-13850000D02*
X12750000Y-13950000D01*
X12700000Y-13900000D02*
X12800000Y-13900000D01*
X12700000Y-14104000D02*
X12800000Y-14204000D01*
X12800000Y-14104000D02*
X12700000Y-14204000D01*
X12750000Y-14104000D02*
X12750000Y-14204000D01*
X12700000Y-14154000D02*
X12800000Y-14154000D01*
X12700000Y-14358000D02*
X12800000Y-14458000D01*
X12800000Y-14358000D02*
X12700000Y-14458000D01*
X12750000Y-14358000D02*
X12750000Y-14458000D01*
X12700000Y-14408000D02*
X12800000Y-14408000D01*
X12700000Y-14612000D02*
X12800000Y-14712000D01*
X12800000Y-14612000D02*
X12700000Y-14712000D01*
X12750000Y-14612000D02*
X12750000Y-14712000D01*
X12700000Y-14662000D02*
X12800000Y-14662000D01*
X12700000Y-14866000D02*
X12800000Y-14966000D01*
X12800000Y-14866000D02*
X12700000Y-14966000D01*
X12750000Y-14866000D02*
X12750000Y-14966000D01*
X12700000Y-14916000D02*
X12800000Y-14916000D01*
X12700000Y-15120000D02*
X12800000Y-15220000D01*
X12800000Y-15120000D02*
X12700000Y-15220000D01*
X12750000Y-15120000D02*
X12750000Y-15220000D01*
X12700000Y-15170000D02*
X12800000Y-15170000D01*
X12700000Y-15374000D02*
X12800000Y-15474000D01*
X12800000Y-15374000D02*
X12700000Y-15474000D01*
X12750000Y-15374000D02*
X12750000Y-15474000D01*
X12700000Y-15424000D02*
X12800000Y-15424000D01*
X12700000Y-15628000D02*
X12800000Y-15728000D01*
X12800000Y-15628000D02*
X12700000Y-15728000D01*
X12750000Y-15628000D02*
X12750000Y-15728000D01*
X12700000Y-15678000D02*
X12800000Y-15678000D01*
X12700000Y-15882000D02*
X12800000Y-15982000D01*
X12800000Y-15882000D02*
X12700000Y-15982000D01*
X12750000Y-15882000D02*
X12750000Y-15982000D01*
X12700000Y-15932000D02*
X12800000Y-15932000D01*
X12700000Y-16136000D02*
X12800000Y-16236000D01*
X12800000Y-16136000D02*
X12700000Y-16236000D01*
X12750000Y-16136000D02*
X12750000Y-16236000D01*
X12700000Y-16186000D02*
X12800000Y-16186000D01*
X12700000Y-16390000D02*
X12800000Y-16490000D01*
X12800000Y-16390000D02*
X12700000Y-16490000D01*
X12750000Y-16390000D02*
X12750000Y-16490000D01*
X12700000Y-16440000D02*
X12800000Y-16440000D01*
X12704000Y-5701000D02*
X12804000Y-5801000D01*
X12804000Y-5701000D02*
X12704000Y-5801000D01*
X12754000Y-5701000D02*
X12754000Y-5801000D01*
X12704000Y-5751000D02*
X12804000Y-5751000D01*
X12704000Y-5955000D02*
X12804000Y-6055000D01*
X12804000Y-5955000D02*
X12704000Y-6055000D01*
X12754000Y-5955000D02*
X12754000Y-6055000D01*
X12704000Y-6005000D02*
X12804000Y-6005000D01*
X12704000Y-6209000D02*
X12804000Y-6309000D01*
X12804000Y-6209000D02*
X12704000Y-6309000D01*
X12754000Y-6209000D02*
X12754000Y-6309000D01*
X12704000Y-6259000D02*
X12804000Y-6259000D01*
X12704000Y-6463000D02*
X12804000Y-6563000D01*
X12804000Y-6463000D02*
X12704000Y-6563000D01*
X12754000Y-6463000D02*
X12754000Y-6563000D01*
X12704000Y-6513000D02*
X12804000Y-6513000D01*
D11*
X6302604Y-18056476D02*
X6302604Y-17856476D01*
X6350223Y-17856476D01*
X6378795Y-17866000D01*
X6397842Y-17885048D01*
X6407366Y-17904095D01*
X6416890Y-17942190D01*
X6416890Y-17970762D01*
X6407366Y-18008857D01*
X6397842Y-18027905D01*
X6378795Y-18046952D01*
X6350223Y-18056476D01*
X6302604Y-18056476D01*
X6502604Y-18056476D02*
X6502604Y-17923143D01*
X6502604Y-17961238D02*
X6512128Y-17942190D01*
X6521652Y-17932667D01*
X6540700Y-17923143D01*
X6559747Y-17923143D01*
X6626414Y-18056476D02*
X6626414Y-17923143D01*
X6626414Y-17856476D02*
X6616890Y-17866000D01*
X6626414Y-17875524D01*
X6635938Y-17866000D01*
X6626414Y-17856476D01*
X6626414Y-17875524D01*
X6750223Y-18056476D02*
X6731176Y-18046952D01*
X6721652Y-18027905D01*
X6721652Y-17856476D01*
X6854985Y-18056476D02*
X6835938Y-18046952D01*
X6826414Y-18027905D01*
X6826414Y-17856476D01*
X7083557Y-18056476D02*
X7083557Y-17856476D01*
X7150223Y-17999333D01*
X7216890Y-17856476D01*
X7216890Y-18056476D01*
X7397842Y-18056476D02*
X7397842Y-17951714D01*
X7388319Y-17932667D01*
X7369271Y-17923143D01*
X7331176Y-17923143D01*
X7312128Y-17932667D01*
X7397842Y-18046952D02*
X7378795Y-18056476D01*
X7331176Y-18056476D01*
X7312128Y-18046952D01*
X7302604Y-18027905D01*
X7302604Y-18008857D01*
X7312128Y-17989810D01*
X7331176Y-17980286D01*
X7378795Y-17980286D01*
X7397842Y-17970762D01*
X7493081Y-17923143D02*
X7493081Y-18123143D01*
X7493081Y-17932667D02*
X7512128Y-17923143D01*
X7550223Y-17923143D01*
X7569271Y-17932667D01*
X7578795Y-17942190D01*
X7588319Y-17961238D01*
X7588319Y-18018381D01*
X7578795Y-18037429D01*
X7569271Y-18046952D01*
X7550223Y-18056476D01*
X7512128Y-18056476D01*
X7493081Y-18046952D01*
X7674033Y-18037429D02*
X7683557Y-18046952D01*
X7674033Y-18056476D01*
X7664509Y-18046952D01*
X7674033Y-18037429D01*
X7674033Y-18056476D01*
X7674033Y-17932667D02*
X7683557Y-17942190D01*
X7674033Y-17951714D01*
X7664509Y-17942190D01*
X7674033Y-17932667D01*
X7674033Y-17951714D01*
D12*
X6037365Y-18382190D02*
X6044985Y-18389810D01*
X6044985Y-18382190D02*
X6037365Y-18389810D01*
D11*
X6340700Y-18276476D02*
X6359747Y-18276476D01*
X6378795Y-18286000D01*
X6388319Y-18295524D01*
X6397842Y-18314571D01*
X6407366Y-18352667D01*
X6407366Y-18400286D01*
X6397842Y-18438381D01*
X6388319Y-18457429D01*
X6378795Y-18466952D01*
X6359747Y-18476476D01*
X6340700Y-18476476D01*
X6321652Y-18466952D01*
X6312128Y-18457429D01*
X6302604Y-18438381D01*
X6293081Y-18400286D01*
X6293081Y-18352667D01*
X6302604Y-18314571D01*
X6312128Y-18295524D01*
X6321652Y-18286000D01*
X6340700Y-18276476D01*
X6493081Y-18457429D02*
X6502604Y-18466952D01*
X6493081Y-18476476D01*
X6483557Y-18466952D01*
X6493081Y-18457429D01*
X6493081Y-18476476D01*
X6626414Y-18276476D02*
X6645461Y-18276476D01*
X6664509Y-18286000D01*
X6674033Y-18295524D01*
X6683557Y-18314571D01*
X6693081Y-18352667D01*
X6693081Y-18400286D01*
X6683557Y-18438381D01*
X6674033Y-18457429D01*
X6664509Y-18466952D01*
X6645461Y-18476476D01*
X6626414Y-18476476D01*
X6607366Y-18466952D01*
X6597842Y-18457429D01*
X6588319Y-18438381D01*
X6578795Y-18400286D01*
X6578795Y-18352667D01*
X6588319Y-18314571D01*
X6597842Y-18295524D01*
X6607366Y-18286000D01*
X6626414Y-18276476D01*
X6759747Y-18276476D02*
X6893081Y-18276476D01*
X6807366Y-18476476D01*
X7054985Y-18276476D02*
X7016890Y-18276476D01*
X6997842Y-18286000D01*
X6988319Y-18295524D01*
X6969271Y-18324095D01*
X6959747Y-18362190D01*
X6959747Y-18438381D01*
X6969271Y-18457429D01*
X6978795Y-18466952D01*
X6997842Y-18476476D01*
X7035938Y-18476476D01*
X7054985Y-18466952D01*
X7064509Y-18457429D01*
X7074033Y-18438381D01*
X7074033Y-18390762D01*
X7064509Y-18371714D01*
X7054985Y-18362190D01*
X7035938Y-18352667D01*
X6997842Y-18352667D01*
X6978795Y-18362190D01*
X6969271Y-18371714D01*
X6959747Y-18390762D01*
X7159747Y-18476476D02*
X7159747Y-18343143D01*
X7159747Y-18362190D02*
X7169271Y-18352667D01*
X7188319Y-18343143D01*
X7216890Y-18343143D01*
X7235938Y-18352667D01*
X7245461Y-18371714D01*
X7245461Y-18476476D01*
X7245461Y-18371714D02*
X7254985Y-18352667D01*
X7274033Y-18343143D01*
X7302604Y-18343143D01*
X7321652Y-18352667D01*
X7331176Y-18371714D01*
X7331176Y-18476476D01*
X7426414Y-18476476D02*
X7426414Y-18343143D01*
X7426414Y-18362190D02*
X7435938Y-18352667D01*
X7454985Y-18343143D01*
X7483557Y-18343143D01*
X7502604Y-18352667D01*
X7512128Y-18371714D01*
X7512128Y-18476476D01*
X7512128Y-18371714D02*
X7521652Y-18352667D01*
X7540700Y-18343143D01*
X7569271Y-18343143D01*
X7588319Y-18352667D01*
X7597842Y-18371714D01*
X7597842Y-18476476D01*
X7988319Y-18266952D02*
X7816890Y-18524095D01*
X8245461Y-18276476D02*
X8264509Y-18276476D01*
X8283557Y-18286000D01*
X8293081Y-18295524D01*
X8302604Y-18314571D01*
X8312128Y-18352667D01*
X8312128Y-18400286D01*
X8302604Y-18438381D01*
X8293081Y-18457429D01*
X8283557Y-18466952D01*
X8264509Y-18476476D01*
X8245461Y-18476476D01*
X8226414Y-18466952D01*
X8216890Y-18457429D01*
X8207366Y-18438381D01*
X8197842Y-18400286D01*
X8197842Y-18352667D01*
X8207366Y-18314571D01*
X8216890Y-18295524D01*
X8226414Y-18286000D01*
X8245461Y-18276476D01*
X8397843Y-18457429D02*
X8407366Y-18466952D01*
X8397843Y-18476476D01*
X8388319Y-18466952D01*
X8397843Y-18457429D01*
X8397843Y-18476476D01*
X8531176Y-18276476D02*
X8550223Y-18276476D01*
X8569271Y-18286000D01*
X8578795Y-18295524D01*
X8588319Y-18314571D01*
X8597843Y-18352667D01*
X8597843Y-18400286D01*
X8588319Y-18438381D01*
X8578795Y-18457429D01*
X8569271Y-18466952D01*
X8550223Y-18476476D01*
X8531176Y-18476476D01*
X8512128Y-18466952D01*
X8502604Y-18457429D01*
X8493081Y-18438381D01*
X8483557Y-18400286D01*
X8483557Y-18352667D01*
X8493081Y-18314571D01*
X8502604Y-18295524D01*
X8512128Y-18286000D01*
X8531176Y-18276476D01*
X8721652Y-18276476D02*
X8740700Y-18276476D01*
X8759747Y-18286000D01*
X8769271Y-18295524D01*
X8778795Y-18314571D01*
X8788319Y-18352667D01*
X8788319Y-18400286D01*
X8778795Y-18438381D01*
X8769271Y-18457429D01*
X8759747Y-18466952D01*
X8740700Y-18476476D01*
X8721652Y-18476476D01*
X8702604Y-18466952D01*
X8693081Y-18457429D01*
X8683557Y-18438381D01*
X8674033Y-18400286D01*
X8674033Y-18352667D01*
X8683557Y-18314571D01*
X8693081Y-18295524D01*
X8702604Y-18286000D01*
X8721652Y-18276476D01*
X8854985Y-18276476D02*
X8978795Y-18276476D01*
X8912128Y-18352667D01*
X8940700Y-18352667D01*
X8959747Y-18362190D01*
X8969271Y-18371714D01*
X8978795Y-18390762D01*
X8978795Y-18438381D01*
X8969271Y-18457429D01*
X8959747Y-18466952D01*
X8940700Y-18476476D01*
X8883557Y-18476476D01*
X8864509Y-18466952D01*
X8854985Y-18457429D01*
X9102604Y-18276476D02*
X9121652Y-18276476D01*
X9140700Y-18286000D01*
X9150223Y-18295524D01*
X9159747Y-18314571D01*
X9169271Y-18352667D01*
X9169271Y-18400286D01*
X9159747Y-18438381D01*
X9150223Y-18457429D01*
X9140700Y-18466952D01*
X9121652Y-18476476D01*
X9102604Y-18476476D01*
X9083557Y-18466952D01*
X9074033Y-18457429D01*
X9064509Y-18438381D01*
X9054985Y-18400286D01*
X9054985Y-18352667D01*
X9064509Y-18314571D01*
X9074033Y-18295524D01*
X9083557Y-18286000D01*
X9102604Y-18276476D01*
X9245462Y-18276476D02*
X9245462Y-18314571D01*
X9321652Y-18276476D02*
X9321652Y-18314571D01*
X9616890Y-18552667D02*
X9607366Y-18543143D01*
X9588319Y-18514571D01*
X9578795Y-18495524D01*
X9569271Y-18466952D01*
X9559747Y-18419333D01*
X9559747Y-18381238D01*
X9569271Y-18333619D01*
X9578795Y-18305048D01*
X9588319Y-18286000D01*
X9607366Y-18257429D01*
X9616890Y-18247905D01*
X9683557Y-18295524D02*
X9693081Y-18286000D01*
X9712128Y-18276476D01*
X9759747Y-18276476D01*
X9778795Y-18286000D01*
X9788319Y-18295524D01*
X9797843Y-18314571D01*
X9797843Y-18333619D01*
X9788319Y-18362190D01*
X9674033Y-18476476D01*
X9797843Y-18476476D01*
X9978795Y-18276476D02*
X9883557Y-18276476D01*
X9874033Y-18371714D01*
X9883557Y-18362190D01*
X9902604Y-18352667D01*
X9950223Y-18352667D01*
X9969271Y-18362190D01*
X9978795Y-18371714D01*
X9988319Y-18390762D01*
X9988319Y-18438381D01*
X9978795Y-18457429D01*
X9969271Y-18466952D01*
X9950223Y-18476476D01*
X9902604Y-18476476D01*
X9883557Y-18466952D01*
X9874033Y-18457429D01*
X10159747Y-18343143D02*
X10159747Y-18476476D01*
X10112128Y-18266952D02*
X10064509Y-18409810D01*
X10188319Y-18409810D01*
X10416890Y-18476476D02*
X10416890Y-18276476D01*
X10502604Y-18476476D02*
X10502604Y-18371714D01*
X10493081Y-18352667D01*
X10474033Y-18343143D01*
X10445462Y-18343143D01*
X10426414Y-18352667D01*
X10416890Y-18362190D01*
X10626414Y-18476476D02*
X10607366Y-18466952D01*
X10597843Y-18457429D01*
X10588319Y-18438381D01*
X10588319Y-18381238D01*
X10597843Y-18362190D01*
X10607366Y-18352667D01*
X10626414Y-18343143D01*
X10654985Y-18343143D01*
X10674033Y-18352667D01*
X10683557Y-18362190D01*
X10693081Y-18381238D01*
X10693081Y-18438381D01*
X10683557Y-18457429D01*
X10674033Y-18466952D01*
X10654985Y-18476476D01*
X10626414Y-18476476D01*
X10807366Y-18476476D02*
X10788319Y-18466952D01*
X10778795Y-18447905D01*
X10778795Y-18276476D01*
X10959747Y-18466952D02*
X10940700Y-18476476D01*
X10902604Y-18476476D01*
X10883557Y-18466952D01*
X10874033Y-18447905D01*
X10874033Y-18371714D01*
X10883557Y-18352667D01*
X10902604Y-18343143D01*
X10940700Y-18343143D01*
X10959747Y-18352667D01*
X10969271Y-18371714D01*
X10969271Y-18390762D01*
X10874033Y-18409810D01*
X11045462Y-18466952D02*
X11064509Y-18476476D01*
X11102604Y-18476476D01*
X11121652Y-18466952D01*
X11131176Y-18447905D01*
X11131176Y-18438381D01*
X11121652Y-18419333D01*
X11102604Y-18409810D01*
X11074033Y-18409810D01*
X11054985Y-18400286D01*
X11045462Y-18381238D01*
X11045462Y-18371714D01*
X11054985Y-18352667D01*
X11074033Y-18343143D01*
X11102604Y-18343143D01*
X11121652Y-18352667D01*
X11197842Y-18552667D02*
X11207366Y-18543143D01*
X11226414Y-18514571D01*
X11235938Y-18495524D01*
X11245461Y-18466952D01*
X11254985Y-18419333D01*
X11254985Y-18381238D01*
X11245461Y-18333619D01*
X11235938Y-18305048D01*
X11226414Y-18286000D01*
X11207366Y-18257429D01*
X11197842Y-18247905D01*
D13*
X6044985Y-18650000D02*
G75*
G03*
X6044985Y-18650000I-12700J0D01*
G01*
D11*
X6340700Y-18540476D02*
X6359747Y-18540476D01*
X6378795Y-18550000D01*
X6388319Y-18559524D01*
X6397842Y-18578571D01*
X6407366Y-18616667D01*
X6407366Y-18664286D01*
X6397842Y-18702381D01*
X6388319Y-18721429D01*
X6378795Y-18730952D01*
X6359747Y-18740476D01*
X6340700Y-18740476D01*
X6321652Y-18730952D01*
X6312128Y-18721429D01*
X6302604Y-18702381D01*
X6293081Y-18664286D01*
X6293081Y-18616667D01*
X6302604Y-18578571D01*
X6312128Y-18559524D01*
X6321652Y-18550000D01*
X6340700Y-18540476D01*
X6493081Y-18721429D02*
X6502604Y-18730952D01*
X6493081Y-18740476D01*
X6483557Y-18730952D01*
X6493081Y-18721429D01*
X6493081Y-18740476D01*
X6578795Y-18559524D02*
X6588319Y-18550000D01*
X6607366Y-18540476D01*
X6654985Y-18540476D01*
X6674033Y-18550000D01*
X6683557Y-18559524D01*
X6693081Y-18578571D01*
X6693081Y-18597619D01*
X6683557Y-18626190D01*
X6569271Y-18740476D01*
X6693081Y-18740476D01*
X6874033Y-18540476D02*
X6778795Y-18540476D01*
X6769271Y-18635714D01*
X6778795Y-18626190D01*
X6797842Y-18616667D01*
X6845461Y-18616667D01*
X6864509Y-18626190D01*
X6874033Y-18635714D01*
X6883557Y-18654762D01*
X6883557Y-18702381D01*
X6874033Y-18721429D01*
X6864509Y-18730952D01*
X6845461Y-18740476D01*
X6797842Y-18740476D01*
X6778795Y-18730952D01*
X6769271Y-18721429D01*
X7054985Y-18607143D02*
X7054985Y-18740476D01*
X7007366Y-18530952D02*
X6959747Y-18673810D01*
X7083557Y-18673810D01*
X7159747Y-18740476D02*
X7159747Y-18607143D01*
X7159747Y-18626190D02*
X7169271Y-18616667D01*
X7188319Y-18607143D01*
X7216890Y-18607143D01*
X7235938Y-18616667D01*
X7245461Y-18635714D01*
X7245461Y-18740476D01*
X7245461Y-18635714D02*
X7254985Y-18616667D01*
X7274033Y-18607143D01*
X7302604Y-18607143D01*
X7321652Y-18616667D01*
X7331176Y-18635714D01*
X7331176Y-18740476D01*
X7426414Y-18740476D02*
X7426414Y-18607143D01*
X7426414Y-18626190D02*
X7435938Y-18616667D01*
X7454985Y-18607143D01*
X7483557Y-18607143D01*
X7502604Y-18616667D01*
X7512128Y-18635714D01*
X7512128Y-18740476D01*
X7512128Y-18635714D02*
X7521652Y-18616667D01*
X7540700Y-18607143D01*
X7569271Y-18607143D01*
X7588319Y-18616667D01*
X7597842Y-18635714D01*
X7597842Y-18740476D01*
X7988319Y-18530952D02*
X7816890Y-18788095D01*
X8245461Y-18540476D02*
X8264509Y-18540476D01*
X8283557Y-18550000D01*
X8293081Y-18559524D01*
X8302604Y-18578571D01*
X8312128Y-18616667D01*
X8312128Y-18664286D01*
X8302604Y-18702381D01*
X8293081Y-18721429D01*
X8283557Y-18730952D01*
X8264509Y-18740476D01*
X8245461Y-18740476D01*
X8226414Y-18730952D01*
X8216890Y-18721429D01*
X8207366Y-18702381D01*
X8197842Y-18664286D01*
X8197842Y-18616667D01*
X8207366Y-18578571D01*
X8216890Y-18559524D01*
X8226414Y-18550000D01*
X8245461Y-18540476D01*
X8397843Y-18721429D02*
X8407366Y-18730952D01*
X8397843Y-18740476D01*
X8388319Y-18730952D01*
X8397843Y-18721429D01*
X8397843Y-18740476D01*
X8531176Y-18540476D02*
X8550223Y-18540476D01*
X8569271Y-18550000D01*
X8578795Y-18559524D01*
X8588319Y-18578571D01*
X8597843Y-18616667D01*
X8597843Y-18664286D01*
X8588319Y-18702381D01*
X8578795Y-18721429D01*
X8569271Y-18730952D01*
X8550223Y-18740476D01*
X8531176Y-18740476D01*
X8512128Y-18730952D01*
X8502604Y-18721429D01*
X8493081Y-18702381D01*
X8483557Y-18664286D01*
X8483557Y-18616667D01*
X8493081Y-18578571D01*
X8502604Y-18559524D01*
X8512128Y-18550000D01*
X8531176Y-18540476D01*
X8788319Y-18740476D02*
X8674033Y-18740476D01*
X8731176Y-18740476D02*
X8731176Y-18540476D01*
X8712128Y-18569048D01*
X8693081Y-18588095D01*
X8674033Y-18597619D01*
X8912128Y-18540476D02*
X8931176Y-18540476D01*
X8950223Y-18550000D01*
X8959747Y-18559524D01*
X8969271Y-18578571D01*
X8978795Y-18616667D01*
X8978795Y-18664286D01*
X8969271Y-18702381D01*
X8959747Y-18721429D01*
X8950223Y-18730952D01*
X8931176Y-18740476D01*
X8912128Y-18740476D01*
X8893081Y-18730952D01*
X8883557Y-18721429D01*
X8874033Y-18702381D01*
X8864509Y-18664286D01*
X8864509Y-18616667D01*
X8874033Y-18578571D01*
X8883557Y-18559524D01*
X8893081Y-18550000D01*
X8912128Y-18540476D01*
X9102604Y-18540476D02*
X9121652Y-18540476D01*
X9140700Y-18550000D01*
X9150223Y-18559524D01*
X9159747Y-18578571D01*
X9169271Y-18616667D01*
X9169271Y-18664286D01*
X9159747Y-18702381D01*
X9150223Y-18721429D01*
X9140700Y-18730952D01*
X9121652Y-18740476D01*
X9102604Y-18740476D01*
X9083557Y-18730952D01*
X9074033Y-18721429D01*
X9064509Y-18702381D01*
X9054985Y-18664286D01*
X9054985Y-18616667D01*
X9064509Y-18578571D01*
X9074033Y-18559524D01*
X9083557Y-18550000D01*
X9102604Y-18540476D01*
X9245462Y-18540476D02*
X9245462Y-18578571D01*
X9321652Y-18540476D02*
X9321652Y-18578571D01*
X9616890Y-18816667D02*
X9607366Y-18807143D01*
X9588319Y-18778571D01*
X9578795Y-18759524D01*
X9569271Y-18730952D01*
X9559747Y-18683333D01*
X9559747Y-18645238D01*
X9569271Y-18597619D01*
X9578795Y-18569048D01*
X9588319Y-18550000D01*
X9607366Y-18521429D01*
X9616890Y-18511905D01*
X9797843Y-18740476D02*
X9683557Y-18740476D01*
X9740700Y-18740476D02*
X9740700Y-18540476D01*
X9721652Y-18569048D01*
X9702604Y-18588095D01*
X9683557Y-18597619D01*
X9978795Y-18540476D02*
X9883557Y-18540476D01*
X9874033Y-18635714D01*
X9883557Y-18626190D01*
X9902604Y-18616667D01*
X9950223Y-18616667D01*
X9969271Y-18626190D01*
X9978795Y-18635714D01*
X9988319Y-18654762D01*
X9988319Y-18702381D01*
X9978795Y-18721429D01*
X9969271Y-18730952D01*
X9950223Y-18740476D01*
X9902604Y-18740476D01*
X9883557Y-18730952D01*
X9874033Y-18721429D01*
X10226414Y-18740476D02*
X10226414Y-18540476D01*
X10312128Y-18740476D02*
X10312128Y-18635714D01*
X10302604Y-18616667D01*
X10283557Y-18607143D01*
X10254985Y-18607143D01*
X10235938Y-18616667D01*
X10226414Y-18626190D01*
X10435938Y-18740476D02*
X10416890Y-18730952D01*
X10407366Y-18721429D01*
X10397843Y-18702381D01*
X10397843Y-18645238D01*
X10407366Y-18626190D01*
X10416890Y-18616667D01*
X10435938Y-18607143D01*
X10464509Y-18607143D01*
X10483557Y-18616667D01*
X10493081Y-18626190D01*
X10502604Y-18645238D01*
X10502604Y-18702381D01*
X10493081Y-18721429D01*
X10483557Y-18730952D01*
X10464509Y-18740476D01*
X10435938Y-18740476D01*
X10616890Y-18740476D02*
X10597843Y-18730952D01*
X10588319Y-18711905D01*
X10588319Y-18540476D01*
X10769271Y-18730952D02*
X10750223Y-18740476D01*
X10712128Y-18740476D01*
X10693081Y-18730952D01*
X10683557Y-18711905D01*
X10683557Y-18635714D01*
X10693081Y-18616667D01*
X10712128Y-18607143D01*
X10750223Y-18607143D01*
X10769271Y-18616667D01*
X10778795Y-18635714D01*
X10778795Y-18654762D01*
X10683557Y-18673810D01*
X10854985Y-18730952D02*
X10874033Y-18740476D01*
X10912128Y-18740476D01*
X10931176Y-18730952D01*
X10940700Y-18711905D01*
X10940700Y-18702381D01*
X10931176Y-18683333D01*
X10912128Y-18673810D01*
X10883557Y-18673810D01*
X10864509Y-18664286D01*
X10854985Y-18645238D01*
X10854985Y-18635714D01*
X10864509Y-18616667D01*
X10883557Y-18607143D01*
X10912128Y-18607143D01*
X10931176Y-18616667D01*
X11007366Y-18816667D02*
X11016890Y-18807143D01*
X11035938Y-18778571D01*
X11045462Y-18759524D01*
X11054985Y-18730952D01*
X11064509Y-18683333D01*
X11064509Y-18645238D01*
X11054985Y-18597619D01*
X11045462Y-18569048D01*
X11035938Y-18550000D01*
X11016890Y-18521429D01*
X11007366Y-18511905D01*
D14*
X6024985Y-18894000D02*
X6024985Y-18934000D01*
X6004985Y-18914000D02*
X6044985Y-18914000D01*
D11*
X6340700Y-18804476D02*
X6359747Y-18804476D01*
X6378795Y-18814000D01*
X6388319Y-18823524D01*
X6397842Y-18842571D01*
X6407366Y-18880667D01*
X6407366Y-18928286D01*
X6397842Y-18966381D01*
X6388319Y-18985429D01*
X6378795Y-18994952D01*
X6359747Y-19004476D01*
X6340700Y-19004476D01*
X6321652Y-18994952D01*
X6312128Y-18985429D01*
X6302604Y-18966381D01*
X6293081Y-18928286D01*
X6293081Y-18880667D01*
X6302604Y-18842571D01*
X6312128Y-18823524D01*
X6321652Y-18814000D01*
X6340700Y-18804476D01*
X6493081Y-18985429D02*
X6502604Y-18994952D01*
X6493081Y-19004476D01*
X6483557Y-18994952D01*
X6493081Y-18985429D01*
X6493081Y-19004476D01*
X6674033Y-18871143D02*
X6674033Y-19004476D01*
X6626414Y-18794952D02*
X6578795Y-18937810D01*
X6702604Y-18937810D01*
X6816890Y-18804476D02*
X6835938Y-18804476D01*
X6854985Y-18814000D01*
X6864509Y-18823524D01*
X6874033Y-18842571D01*
X6883557Y-18880667D01*
X6883557Y-18928286D01*
X6874033Y-18966381D01*
X6864509Y-18985429D01*
X6854985Y-18994952D01*
X6835938Y-19004476D01*
X6816890Y-19004476D01*
X6797842Y-18994952D01*
X6788319Y-18985429D01*
X6778795Y-18966381D01*
X6769271Y-18928286D01*
X6769271Y-18880667D01*
X6778795Y-18842571D01*
X6788319Y-18823524D01*
X6797842Y-18814000D01*
X6816890Y-18804476D01*
X7007366Y-18804476D02*
X7026414Y-18804476D01*
X7045461Y-18814000D01*
X7054985Y-18823524D01*
X7064509Y-18842571D01*
X7074033Y-18880667D01*
X7074033Y-18928286D01*
X7064509Y-18966381D01*
X7054985Y-18985429D01*
X7045461Y-18994952D01*
X7026414Y-19004476D01*
X7007366Y-19004476D01*
X6988319Y-18994952D01*
X6978795Y-18985429D01*
X6969271Y-18966381D01*
X6959747Y-18928286D01*
X6959747Y-18880667D01*
X6969271Y-18842571D01*
X6978795Y-18823524D01*
X6988319Y-18814000D01*
X7007366Y-18804476D01*
X7159747Y-19004476D02*
X7159747Y-18871143D01*
X7159747Y-18890190D02*
X7169271Y-18880667D01*
X7188319Y-18871143D01*
X7216890Y-18871143D01*
X7235938Y-18880667D01*
X7245461Y-18899714D01*
X7245461Y-19004476D01*
X7245461Y-18899714D02*
X7254985Y-18880667D01*
X7274033Y-18871143D01*
X7302604Y-18871143D01*
X7321652Y-18880667D01*
X7331176Y-18899714D01*
X7331176Y-19004476D01*
X7426414Y-19004476D02*
X7426414Y-18871143D01*
X7426414Y-18890190D02*
X7435938Y-18880667D01*
X7454985Y-18871143D01*
X7483557Y-18871143D01*
X7502604Y-18880667D01*
X7512128Y-18899714D01*
X7512128Y-19004476D01*
X7512128Y-18899714D02*
X7521652Y-18880667D01*
X7540700Y-18871143D01*
X7569271Y-18871143D01*
X7588319Y-18880667D01*
X7597842Y-18899714D01*
X7597842Y-19004476D01*
X7988319Y-18794952D02*
X7816890Y-19052095D01*
X8245461Y-18804476D02*
X8264509Y-18804476D01*
X8283557Y-18814000D01*
X8293081Y-18823524D01*
X8302604Y-18842571D01*
X8312128Y-18880667D01*
X8312128Y-18928286D01*
X8302604Y-18966381D01*
X8293081Y-18985429D01*
X8283557Y-18994952D01*
X8264509Y-19004476D01*
X8245461Y-19004476D01*
X8226414Y-18994952D01*
X8216890Y-18985429D01*
X8207366Y-18966381D01*
X8197842Y-18928286D01*
X8197842Y-18880667D01*
X8207366Y-18842571D01*
X8216890Y-18823524D01*
X8226414Y-18814000D01*
X8245461Y-18804476D01*
X8397843Y-18985429D02*
X8407366Y-18994952D01*
X8397843Y-19004476D01*
X8388319Y-18994952D01*
X8397843Y-18985429D01*
X8397843Y-19004476D01*
X8531176Y-18804476D02*
X8550223Y-18804476D01*
X8569271Y-18814000D01*
X8578795Y-18823524D01*
X8588319Y-18842571D01*
X8597843Y-18880667D01*
X8597843Y-18928286D01*
X8588319Y-18966381D01*
X8578795Y-18985429D01*
X8569271Y-18994952D01*
X8550223Y-19004476D01*
X8531176Y-19004476D01*
X8512128Y-18994952D01*
X8502604Y-18985429D01*
X8493081Y-18966381D01*
X8483557Y-18928286D01*
X8483557Y-18880667D01*
X8493081Y-18842571D01*
X8502604Y-18823524D01*
X8512128Y-18814000D01*
X8531176Y-18804476D01*
X8788319Y-19004476D02*
X8674033Y-19004476D01*
X8731176Y-19004476D02*
X8731176Y-18804476D01*
X8712128Y-18833048D01*
X8693081Y-18852095D01*
X8674033Y-18861619D01*
X8969271Y-18804476D02*
X8874033Y-18804476D01*
X8864509Y-18899714D01*
X8874033Y-18890190D01*
X8893081Y-18880667D01*
X8940700Y-18880667D01*
X8959747Y-18890190D01*
X8969271Y-18899714D01*
X8978795Y-18918762D01*
X8978795Y-18966381D01*
X8969271Y-18985429D01*
X8959747Y-18994952D01*
X8940700Y-19004476D01*
X8893081Y-19004476D01*
X8874033Y-18994952D01*
X8864509Y-18985429D01*
X9045462Y-18804476D02*
X9178795Y-18804476D01*
X9093081Y-19004476D01*
X9245462Y-18804476D02*
X9245462Y-18842571D01*
X9321652Y-18804476D02*
X9321652Y-18842571D01*
X9616890Y-19080667D02*
X9607366Y-19071143D01*
X9588319Y-19042571D01*
X9578795Y-19023524D01*
X9569271Y-18994952D01*
X9559747Y-18947333D01*
X9559747Y-18909238D01*
X9569271Y-18861619D01*
X9578795Y-18833048D01*
X9588319Y-18814000D01*
X9607366Y-18785429D01*
X9616890Y-18775905D01*
X9797843Y-19004476D02*
X9683557Y-19004476D01*
X9740700Y-19004476D02*
X9740700Y-18804476D01*
X9721652Y-18833048D01*
X9702604Y-18852095D01*
X9683557Y-18861619D01*
X9921652Y-18804476D02*
X9940700Y-18804476D01*
X9959747Y-18814000D01*
X9969271Y-18823524D01*
X9978795Y-18842571D01*
X9988319Y-18880667D01*
X9988319Y-18928286D01*
X9978795Y-18966381D01*
X9969271Y-18985429D01*
X9959747Y-18994952D01*
X9940700Y-19004476D01*
X9921652Y-19004476D01*
X9902604Y-18994952D01*
X9893081Y-18985429D01*
X9883557Y-18966381D01*
X9874033Y-18928286D01*
X9874033Y-18880667D01*
X9883557Y-18842571D01*
X9893081Y-18823524D01*
X9902604Y-18814000D01*
X9921652Y-18804476D01*
X10112128Y-18804476D02*
X10131176Y-18804476D01*
X10150223Y-18814000D01*
X10159747Y-18823524D01*
X10169271Y-18842571D01*
X10178795Y-18880667D01*
X10178795Y-18928286D01*
X10169271Y-18966381D01*
X10159747Y-18985429D01*
X10150223Y-18994952D01*
X10131176Y-19004476D01*
X10112128Y-19004476D01*
X10093081Y-18994952D01*
X10083557Y-18985429D01*
X10074033Y-18966381D01*
X10064509Y-18928286D01*
X10064509Y-18880667D01*
X10074033Y-18842571D01*
X10083557Y-18823524D01*
X10093081Y-18814000D01*
X10112128Y-18804476D01*
X10416890Y-19004476D02*
X10416890Y-18804476D01*
X10502604Y-19004476D02*
X10502604Y-18899714D01*
X10493081Y-18880667D01*
X10474033Y-18871143D01*
X10445462Y-18871143D01*
X10426414Y-18880667D01*
X10416890Y-18890190D01*
X10626414Y-19004476D02*
X10607366Y-18994952D01*
X10597843Y-18985429D01*
X10588319Y-18966381D01*
X10588319Y-18909238D01*
X10597843Y-18890190D01*
X10607366Y-18880667D01*
X10626414Y-18871143D01*
X10654985Y-18871143D01*
X10674033Y-18880667D01*
X10683557Y-18890190D01*
X10693081Y-18909238D01*
X10693081Y-18966381D01*
X10683557Y-18985429D01*
X10674033Y-18994952D01*
X10654985Y-19004476D01*
X10626414Y-19004476D01*
X10807366Y-19004476D02*
X10788319Y-18994952D01*
X10778795Y-18975905D01*
X10778795Y-18804476D01*
X10959747Y-18994952D02*
X10940700Y-19004476D01*
X10902604Y-19004476D01*
X10883557Y-18994952D01*
X10874033Y-18975905D01*
X10874033Y-18899714D01*
X10883557Y-18880667D01*
X10902604Y-18871143D01*
X10940700Y-18871143D01*
X10959747Y-18880667D01*
X10969271Y-18899714D01*
X10969271Y-18918762D01*
X10874033Y-18937810D01*
X11045462Y-18994952D02*
X11064509Y-19004476D01*
X11102604Y-19004476D01*
X11121652Y-18994952D01*
X11131176Y-18975905D01*
X11131176Y-18966381D01*
X11121652Y-18947333D01*
X11102604Y-18937810D01*
X11074033Y-18937810D01*
X11054985Y-18928286D01*
X11045462Y-18909238D01*
X11045462Y-18899714D01*
X11054985Y-18880667D01*
X11074033Y-18871143D01*
X11102604Y-18871143D01*
X11121652Y-18880667D01*
X11197842Y-19080667D02*
X11207366Y-19071143D01*
X11226414Y-19042571D01*
X11235938Y-19023524D01*
X11245461Y-18994952D01*
X11254985Y-18947333D01*
X11254985Y-18909238D01*
X11245461Y-18861619D01*
X11235938Y-18833048D01*
X11226414Y-18814000D01*
X11207366Y-18785429D01*
X11197842Y-18775905D01*
D15*
X6034734Y-19202749D02*
X6034734Y-19153251D01*
X5985236Y-19153251D01*
X5985236Y-19202749D01*
X6034734Y-19202749D01*
D11*
X6340700Y-19068476D02*
X6359747Y-19068476D01*
X6378795Y-19078000D01*
X6388319Y-19087524D01*
X6397842Y-19106571D01*
X6407366Y-19144667D01*
X6407366Y-19192286D01*
X6397842Y-19230381D01*
X6388319Y-19249429D01*
X6378795Y-19258952D01*
X6359747Y-19268476D01*
X6340700Y-19268476D01*
X6321652Y-19258952D01*
X6312128Y-19249429D01*
X6302604Y-19230381D01*
X6293081Y-19192286D01*
X6293081Y-19144667D01*
X6302604Y-19106571D01*
X6312128Y-19087524D01*
X6321652Y-19078000D01*
X6340700Y-19068476D01*
X6493081Y-19249429D02*
X6502604Y-19258952D01*
X6493081Y-19268476D01*
X6483557Y-19258952D01*
X6493081Y-19249429D01*
X6493081Y-19268476D01*
X6569271Y-19068476D02*
X6702604Y-19068476D01*
X6616890Y-19268476D01*
X6816890Y-19068476D02*
X6835938Y-19068476D01*
X6854985Y-19078000D01*
X6864509Y-19087524D01*
X6874033Y-19106571D01*
X6883557Y-19144667D01*
X6883557Y-19192286D01*
X6874033Y-19230381D01*
X6864509Y-19249429D01*
X6854985Y-19258952D01*
X6835938Y-19268476D01*
X6816890Y-19268476D01*
X6797842Y-19258952D01*
X6788319Y-19249429D01*
X6778795Y-19230381D01*
X6769271Y-19192286D01*
X6769271Y-19144667D01*
X6778795Y-19106571D01*
X6788319Y-19087524D01*
X6797842Y-19078000D01*
X6816890Y-19068476D01*
X7007366Y-19068476D02*
X7026414Y-19068476D01*
X7045461Y-19078000D01*
X7054985Y-19087524D01*
X7064509Y-19106571D01*
X7074033Y-19144667D01*
X7074033Y-19192286D01*
X7064509Y-19230381D01*
X7054985Y-19249429D01*
X7045461Y-19258952D01*
X7026414Y-19268476D01*
X7007366Y-19268476D01*
X6988319Y-19258952D01*
X6978795Y-19249429D01*
X6969271Y-19230381D01*
X6959747Y-19192286D01*
X6959747Y-19144667D01*
X6969271Y-19106571D01*
X6978795Y-19087524D01*
X6988319Y-19078000D01*
X7007366Y-19068476D01*
X7159747Y-19268476D02*
X7159747Y-19135143D01*
X7159747Y-19154190D02*
X7169271Y-19144667D01*
X7188319Y-19135143D01*
X7216890Y-19135143D01*
X7235938Y-19144667D01*
X7245461Y-19163714D01*
X7245461Y-19268476D01*
X7245461Y-19163714D02*
X7254985Y-19144667D01*
X7274033Y-19135143D01*
X7302604Y-19135143D01*
X7321652Y-19144667D01*
X7331176Y-19163714D01*
X7331176Y-19268476D01*
X7426414Y-19268476D02*
X7426414Y-19135143D01*
X7426414Y-19154190D02*
X7435938Y-19144667D01*
X7454985Y-19135143D01*
X7483557Y-19135143D01*
X7502604Y-19144667D01*
X7512128Y-19163714D01*
X7512128Y-19268476D01*
X7512128Y-19163714D02*
X7521652Y-19144667D01*
X7540700Y-19135143D01*
X7569271Y-19135143D01*
X7588319Y-19144667D01*
X7597842Y-19163714D01*
X7597842Y-19268476D01*
X7988319Y-19058952D02*
X7816890Y-19316095D01*
X8245461Y-19068476D02*
X8264509Y-19068476D01*
X8283557Y-19078000D01*
X8293081Y-19087524D01*
X8302604Y-19106571D01*
X8312128Y-19144667D01*
X8312128Y-19192286D01*
X8302604Y-19230381D01*
X8293081Y-19249429D01*
X8283557Y-19258952D01*
X8264509Y-19268476D01*
X8245461Y-19268476D01*
X8226414Y-19258952D01*
X8216890Y-19249429D01*
X8207366Y-19230381D01*
X8197842Y-19192286D01*
X8197842Y-19144667D01*
X8207366Y-19106571D01*
X8216890Y-19087524D01*
X8226414Y-19078000D01*
X8245461Y-19068476D01*
X8397843Y-19249429D02*
X8407366Y-19258952D01*
X8397843Y-19268476D01*
X8388319Y-19258952D01*
X8397843Y-19249429D01*
X8397843Y-19268476D01*
X8531176Y-19068476D02*
X8550223Y-19068476D01*
X8569271Y-19078000D01*
X8578795Y-19087524D01*
X8588319Y-19106571D01*
X8597843Y-19144667D01*
X8597843Y-19192286D01*
X8588319Y-19230381D01*
X8578795Y-19249429D01*
X8569271Y-19258952D01*
X8550223Y-19268476D01*
X8531176Y-19268476D01*
X8512128Y-19258952D01*
X8502604Y-19249429D01*
X8493081Y-19230381D01*
X8483557Y-19192286D01*
X8483557Y-19144667D01*
X8493081Y-19106571D01*
X8502604Y-19087524D01*
X8512128Y-19078000D01*
X8531176Y-19068476D01*
X8674033Y-19087524D02*
X8683557Y-19078000D01*
X8702604Y-19068476D01*
X8750223Y-19068476D01*
X8769271Y-19078000D01*
X8778795Y-19087524D01*
X8788319Y-19106571D01*
X8788319Y-19125619D01*
X8778795Y-19154190D01*
X8664509Y-19268476D01*
X8788319Y-19268476D01*
X8854985Y-19068476D02*
X8988319Y-19068476D01*
X8902604Y-19268476D01*
X9150223Y-19068476D02*
X9112128Y-19068476D01*
X9093081Y-19078000D01*
X9083557Y-19087524D01*
X9064509Y-19116095D01*
X9054985Y-19154190D01*
X9054985Y-19230381D01*
X9064509Y-19249429D01*
X9074033Y-19258952D01*
X9093081Y-19268476D01*
X9131176Y-19268476D01*
X9150223Y-19258952D01*
X9159747Y-19249429D01*
X9169271Y-19230381D01*
X9169271Y-19182762D01*
X9159747Y-19163714D01*
X9150223Y-19154190D01*
X9131176Y-19144667D01*
X9093081Y-19144667D01*
X9074033Y-19154190D01*
X9064509Y-19163714D01*
X9054985Y-19182762D01*
X9245462Y-19068476D02*
X9245462Y-19106571D01*
X9321652Y-19068476D02*
X9321652Y-19106571D01*
X9616890Y-19344667D02*
X9607366Y-19335143D01*
X9588319Y-19306571D01*
X9578795Y-19287524D01*
X9569271Y-19258952D01*
X9559747Y-19211333D01*
X9559747Y-19173238D01*
X9569271Y-19125619D01*
X9578795Y-19097048D01*
X9588319Y-19078000D01*
X9607366Y-19049429D01*
X9616890Y-19039905D01*
X9683557Y-19087524D02*
X9693081Y-19078000D01*
X9712128Y-19068476D01*
X9759747Y-19068476D01*
X9778795Y-19078000D01*
X9788319Y-19087524D01*
X9797843Y-19106571D01*
X9797843Y-19125619D01*
X9788319Y-19154190D01*
X9674033Y-19268476D01*
X9797843Y-19268476D01*
X10035938Y-19268476D02*
X10035938Y-19068476D01*
X10121652Y-19268476D02*
X10121652Y-19163714D01*
X10112128Y-19144667D01*
X10093081Y-19135143D01*
X10064509Y-19135143D01*
X10045462Y-19144667D01*
X10035938Y-19154190D01*
X10245462Y-19268476D02*
X10226414Y-19258952D01*
X10216890Y-19249429D01*
X10207366Y-19230381D01*
X10207366Y-19173238D01*
X10216890Y-19154190D01*
X10226414Y-19144667D01*
X10245462Y-19135143D01*
X10274033Y-19135143D01*
X10293081Y-19144667D01*
X10302604Y-19154190D01*
X10312128Y-19173238D01*
X10312128Y-19230381D01*
X10302604Y-19249429D01*
X10293081Y-19258952D01*
X10274033Y-19268476D01*
X10245462Y-19268476D01*
X10426414Y-19268476D02*
X10407366Y-19258952D01*
X10397843Y-19239905D01*
X10397843Y-19068476D01*
X10578795Y-19258952D02*
X10559747Y-19268476D01*
X10521652Y-19268476D01*
X10502604Y-19258952D01*
X10493081Y-19239905D01*
X10493081Y-19163714D01*
X10502604Y-19144667D01*
X10521652Y-19135143D01*
X10559747Y-19135143D01*
X10578795Y-19144667D01*
X10588319Y-19163714D01*
X10588319Y-19182762D01*
X10493081Y-19201810D01*
X10664509Y-19258952D02*
X10683557Y-19268476D01*
X10721652Y-19268476D01*
X10740700Y-19258952D01*
X10750223Y-19239905D01*
X10750223Y-19230381D01*
X10740700Y-19211333D01*
X10721652Y-19201810D01*
X10693081Y-19201810D01*
X10674033Y-19192286D01*
X10664509Y-19173238D01*
X10664509Y-19163714D01*
X10674033Y-19144667D01*
X10693081Y-19135143D01*
X10721652Y-19135143D01*
X10740700Y-19144667D01*
X10816890Y-19344667D02*
X10826414Y-19335143D01*
X10845462Y-19306571D01*
X10854985Y-19287524D01*
X10864509Y-19258952D01*
X10874033Y-19211333D01*
X10874033Y-19173238D01*
X10864509Y-19125619D01*
X10854985Y-19097048D01*
X10845462Y-19078000D01*
X10826414Y-19049429D01*
X10816890Y-19039905D01*
D16*
X6007485Y-19479500D02*
X6044985Y-19442000D01*
X6007485Y-19404500D01*
X5969985Y-19442000D01*
X6007485Y-19479500D01*
D11*
X6340700Y-19332476D02*
X6359747Y-19332476D01*
X6378795Y-19342000D01*
X6388319Y-19351524D01*
X6397842Y-19370571D01*
X6407366Y-19408667D01*
X6407366Y-19456286D01*
X6397842Y-19494381D01*
X6388319Y-19513429D01*
X6378795Y-19522952D01*
X6359747Y-19532476D01*
X6340700Y-19532476D01*
X6321652Y-19522952D01*
X6312128Y-19513429D01*
X6302604Y-19494381D01*
X6293081Y-19456286D01*
X6293081Y-19408667D01*
X6302604Y-19370571D01*
X6312128Y-19351524D01*
X6321652Y-19342000D01*
X6340700Y-19332476D01*
X6493081Y-19513429D02*
X6502604Y-19522952D01*
X6493081Y-19532476D01*
X6483557Y-19522952D01*
X6493081Y-19513429D01*
X6493081Y-19532476D01*
X6569271Y-19332476D02*
X6702604Y-19332476D01*
X6616890Y-19532476D01*
X6874033Y-19332476D02*
X6778795Y-19332476D01*
X6769271Y-19427714D01*
X6778795Y-19418190D01*
X6797842Y-19408667D01*
X6845461Y-19408667D01*
X6864509Y-19418190D01*
X6874033Y-19427714D01*
X6883557Y-19446762D01*
X6883557Y-19494381D01*
X6874033Y-19513429D01*
X6864509Y-19522952D01*
X6845461Y-19532476D01*
X6797842Y-19532476D01*
X6778795Y-19522952D01*
X6769271Y-19513429D01*
X7007366Y-19332476D02*
X7026414Y-19332476D01*
X7045461Y-19342000D01*
X7054985Y-19351524D01*
X7064509Y-19370571D01*
X7074033Y-19408667D01*
X7074033Y-19456286D01*
X7064509Y-19494381D01*
X7054985Y-19513429D01*
X7045461Y-19522952D01*
X7026414Y-19532476D01*
X7007366Y-19532476D01*
X6988319Y-19522952D01*
X6978795Y-19513429D01*
X6969271Y-19494381D01*
X6959747Y-19456286D01*
X6959747Y-19408667D01*
X6969271Y-19370571D01*
X6978795Y-19351524D01*
X6988319Y-19342000D01*
X7007366Y-19332476D01*
X7159747Y-19532476D02*
X7159747Y-19399143D01*
X7159747Y-19418190D02*
X7169271Y-19408667D01*
X7188319Y-19399143D01*
X7216890Y-19399143D01*
X7235938Y-19408667D01*
X7245461Y-19427714D01*
X7245461Y-19532476D01*
X7245461Y-19427714D02*
X7254985Y-19408667D01*
X7274033Y-19399143D01*
X7302604Y-19399143D01*
X7321652Y-19408667D01*
X7331176Y-19427714D01*
X7331176Y-19532476D01*
X7426414Y-19532476D02*
X7426414Y-19399143D01*
X7426414Y-19418190D02*
X7435938Y-19408667D01*
X7454985Y-19399143D01*
X7483557Y-19399143D01*
X7502604Y-19408667D01*
X7512128Y-19427714D01*
X7512128Y-19532476D01*
X7512128Y-19427714D02*
X7521652Y-19408667D01*
X7540700Y-19399143D01*
X7569271Y-19399143D01*
X7588319Y-19408667D01*
X7597842Y-19427714D01*
X7597842Y-19532476D01*
X7988319Y-19322952D02*
X7816890Y-19580095D01*
X8245461Y-19332476D02*
X8264509Y-19332476D01*
X8283557Y-19342000D01*
X8293081Y-19351524D01*
X8302604Y-19370571D01*
X8312128Y-19408667D01*
X8312128Y-19456286D01*
X8302604Y-19494381D01*
X8293081Y-19513429D01*
X8283557Y-19522952D01*
X8264509Y-19532476D01*
X8245461Y-19532476D01*
X8226414Y-19522952D01*
X8216890Y-19513429D01*
X8207366Y-19494381D01*
X8197842Y-19456286D01*
X8197842Y-19408667D01*
X8207366Y-19370571D01*
X8216890Y-19351524D01*
X8226414Y-19342000D01*
X8245461Y-19332476D01*
X8397843Y-19513429D02*
X8407366Y-19522952D01*
X8397843Y-19532476D01*
X8388319Y-19522952D01*
X8397843Y-19513429D01*
X8397843Y-19532476D01*
X8531176Y-19332476D02*
X8550223Y-19332476D01*
X8569271Y-19342000D01*
X8578795Y-19351524D01*
X8588319Y-19370571D01*
X8597843Y-19408667D01*
X8597843Y-19456286D01*
X8588319Y-19494381D01*
X8578795Y-19513429D01*
X8569271Y-19522952D01*
X8550223Y-19532476D01*
X8531176Y-19532476D01*
X8512128Y-19522952D01*
X8502604Y-19513429D01*
X8493081Y-19494381D01*
X8483557Y-19456286D01*
X8483557Y-19408667D01*
X8493081Y-19370571D01*
X8502604Y-19351524D01*
X8512128Y-19342000D01*
X8531176Y-19332476D01*
X8674033Y-19351524D02*
X8683557Y-19342000D01*
X8702604Y-19332476D01*
X8750223Y-19332476D01*
X8769271Y-19342000D01*
X8778795Y-19351524D01*
X8788319Y-19370571D01*
X8788319Y-19389619D01*
X8778795Y-19418190D01*
X8664509Y-19532476D01*
X8788319Y-19532476D01*
X8883557Y-19532476D02*
X8921652Y-19532476D01*
X8940700Y-19522952D01*
X8950223Y-19513429D01*
X8969271Y-19484857D01*
X8978795Y-19446762D01*
X8978795Y-19370571D01*
X8969271Y-19351524D01*
X8959747Y-19342000D01*
X8940700Y-19332476D01*
X8902604Y-19332476D01*
X8883557Y-19342000D01*
X8874033Y-19351524D01*
X8864509Y-19370571D01*
X8864509Y-19418190D01*
X8874033Y-19437238D01*
X8883557Y-19446762D01*
X8902604Y-19456286D01*
X8940700Y-19456286D01*
X8959747Y-19446762D01*
X8969271Y-19437238D01*
X8978795Y-19418190D01*
X9159747Y-19332476D02*
X9064509Y-19332476D01*
X9054985Y-19427714D01*
X9064509Y-19418190D01*
X9083557Y-19408667D01*
X9131176Y-19408667D01*
X9150223Y-19418190D01*
X9159747Y-19427714D01*
X9169271Y-19446762D01*
X9169271Y-19494381D01*
X9159747Y-19513429D01*
X9150223Y-19522952D01*
X9131176Y-19532476D01*
X9083557Y-19532476D01*
X9064509Y-19522952D01*
X9054985Y-19513429D01*
X9245462Y-19332476D02*
X9245462Y-19370571D01*
X9321652Y-19332476D02*
X9321652Y-19370571D01*
X9616890Y-19608667D02*
X9607366Y-19599143D01*
X9588319Y-19570571D01*
X9578795Y-19551524D01*
X9569271Y-19522952D01*
X9559747Y-19475333D01*
X9559747Y-19437238D01*
X9569271Y-19389619D01*
X9578795Y-19361048D01*
X9588319Y-19342000D01*
X9607366Y-19313429D01*
X9616890Y-19303905D01*
X9788319Y-19332476D02*
X9693081Y-19332476D01*
X9683557Y-19427714D01*
X9693081Y-19418190D01*
X9712128Y-19408667D01*
X9759747Y-19408667D01*
X9778795Y-19418190D01*
X9788319Y-19427714D01*
X9797843Y-19446762D01*
X9797843Y-19494381D01*
X9788319Y-19513429D01*
X9778795Y-19522952D01*
X9759747Y-19532476D01*
X9712128Y-19532476D01*
X9693081Y-19522952D01*
X9683557Y-19513429D01*
X9969271Y-19332476D02*
X9931176Y-19332476D01*
X9912128Y-19342000D01*
X9902604Y-19351524D01*
X9883557Y-19380095D01*
X9874033Y-19418190D01*
X9874033Y-19494381D01*
X9883557Y-19513429D01*
X9893081Y-19522952D01*
X9912128Y-19532476D01*
X9950223Y-19532476D01*
X9969271Y-19522952D01*
X9978795Y-19513429D01*
X9988319Y-19494381D01*
X9988319Y-19446762D01*
X9978795Y-19427714D01*
X9969271Y-19418190D01*
X9950223Y-19408667D01*
X9912128Y-19408667D01*
X9893081Y-19418190D01*
X9883557Y-19427714D01*
X9874033Y-19446762D01*
X10226414Y-19532476D02*
X10226414Y-19332476D01*
X10312128Y-19532476D02*
X10312128Y-19427714D01*
X10302604Y-19408667D01*
X10283557Y-19399143D01*
X10254985Y-19399143D01*
X10235938Y-19408667D01*
X10226414Y-19418190D01*
X10435938Y-19532476D02*
X10416890Y-19522952D01*
X10407366Y-19513429D01*
X10397843Y-19494381D01*
X10397843Y-19437238D01*
X10407366Y-19418190D01*
X10416890Y-19408667D01*
X10435938Y-19399143D01*
X10464509Y-19399143D01*
X10483557Y-19408667D01*
X10493081Y-19418190D01*
X10502604Y-19437238D01*
X10502604Y-19494381D01*
X10493081Y-19513429D01*
X10483557Y-19522952D01*
X10464509Y-19532476D01*
X10435938Y-19532476D01*
X10616890Y-19532476D02*
X10597843Y-19522952D01*
X10588319Y-19503905D01*
X10588319Y-19332476D01*
X10769271Y-19522952D02*
X10750223Y-19532476D01*
X10712128Y-19532476D01*
X10693081Y-19522952D01*
X10683557Y-19503905D01*
X10683557Y-19427714D01*
X10693081Y-19408667D01*
X10712128Y-19399143D01*
X10750223Y-19399143D01*
X10769271Y-19408667D01*
X10778795Y-19427714D01*
X10778795Y-19446762D01*
X10683557Y-19465810D01*
X10854985Y-19522952D02*
X10874033Y-19532476D01*
X10912128Y-19532476D01*
X10931176Y-19522952D01*
X10940700Y-19503905D01*
X10940700Y-19494381D01*
X10931176Y-19475333D01*
X10912128Y-19465810D01*
X10883557Y-19465810D01*
X10864509Y-19456286D01*
X10854985Y-19437238D01*
X10854985Y-19427714D01*
X10864509Y-19408667D01*
X10883557Y-19399143D01*
X10912128Y-19399143D01*
X10931176Y-19408667D01*
X11007366Y-19608667D02*
X11016890Y-19599143D01*
X11035938Y-19570571D01*
X11045462Y-19551524D01*
X11054985Y-19522952D01*
X11064509Y-19475333D01*
X11064509Y-19437238D01*
X11054985Y-19389619D01*
X11045462Y-19361048D01*
X11035938Y-19342000D01*
X11016890Y-19313429D01*
X11007366Y-19303905D01*
D17*
X5964985Y-19666000D02*
X6044985Y-19746000D01*
X6044985Y-19666000D02*
X5964985Y-19746000D01*
X6044985Y-19706000D02*
G75*
G03*
X6044985Y-19706000I-40000J0D01*
G01*
D11*
X6340700Y-19596476D02*
X6359747Y-19596476D01*
X6378795Y-19606000D01*
X6388319Y-19615524D01*
X6397842Y-19634571D01*
X6407366Y-19672667D01*
X6407366Y-19720286D01*
X6397842Y-19758381D01*
X6388319Y-19777429D01*
X6378795Y-19786952D01*
X6359747Y-19796476D01*
X6340700Y-19796476D01*
X6321652Y-19786952D01*
X6312128Y-19777429D01*
X6302604Y-19758381D01*
X6293081Y-19720286D01*
X6293081Y-19672667D01*
X6302604Y-19634571D01*
X6312128Y-19615524D01*
X6321652Y-19606000D01*
X6340700Y-19596476D01*
X6493081Y-19777429D02*
X6502604Y-19786952D01*
X6493081Y-19796476D01*
X6483557Y-19786952D01*
X6493081Y-19777429D01*
X6493081Y-19796476D01*
X6616890Y-19682190D02*
X6597842Y-19672667D01*
X6588319Y-19663143D01*
X6578795Y-19644095D01*
X6578795Y-19634571D01*
X6588319Y-19615524D01*
X6597842Y-19606000D01*
X6616890Y-19596476D01*
X6654985Y-19596476D01*
X6674033Y-19606000D01*
X6683557Y-19615524D01*
X6693081Y-19634571D01*
X6693081Y-19644095D01*
X6683557Y-19663143D01*
X6674033Y-19672667D01*
X6654985Y-19682190D01*
X6616890Y-19682190D01*
X6597842Y-19691714D01*
X6588319Y-19701238D01*
X6578795Y-19720286D01*
X6578795Y-19758381D01*
X6588319Y-19777429D01*
X6597842Y-19786952D01*
X6616890Y-19796476D01*
X6654985Y-19796476D01*
X6674033Y-19786952D01*
X6683557Y-19777429D01*
X6693081Y-19758381D01*
X6693081Y-19720286D01*
X6683557Y-19701238D01*
X6674033Y-19691714D01*
X6654985Y-19682190D01*
X6816890Y-19596476D02*
X6835938Y-19596476D01*
X6854985Y-19606000D01*
X6864509Y-19615524D01*
X6874033Y-19634571D01*
X6883557Y-19672667D01*
X6883557Y-19720286D01*
X6874033Y-19758381D01*
X6864509Y-19777429D01*
X6854985Y-19786952D01*
X6835938Y-19796476D01*
X6816890Y-19796476D01*
X6797842Y-19786952D01*
X6788319Y-19777429D01*
X6778795Y-19758381D01*
X6769271Y-19720286D01*
X6769271Y-19672667D01*
X6778795Y-19634571D01*
X6788319Y-19615524D01*
X6797842Y-19606000D01*
X6816890Y-19596476D01*
X7007366Y-19596476D02*
X7026414Y-19596476D01*
X7045461Y-19606000D01*
X7054985Y-19615524D01*
X7064509Y-19634571D01*
X7074033Y-19672667D01*
X7074033Y-19720286D01*
X7064509Y-19758381D01*
X7054985Y-19777429D01*
X7045461Y-19786952D01*
X7026414Y-19796476D01*
X7007366Y-19796476D01*
X6988319Y-19786952D01*
X6978795Y-19777429D01*
X6969271Y-19758381D01*
X6959747Y-19720286D01*
X6959747Y-19672667D01*
X6969271Y-19634571D01*
X6978795Y-19615524D01*
X6988319Y-19606000D01*
X7007366Y-19596476D01*
X7159747Y-19796476D02*
X7159747Y-19663143D01*
X7159747Y-19682190D02*
X7169271Y-19672667D01*
X7188319Y-19663143D01*
X7216890Y-19663143D01*
X7235938Y-19672667D01*
X7245461Y-19691714D01*
X7245461Y-19796476D01*
X7245461Y-19691714D02*
X7254985Y-19672667D01*
X7274033Y-19663143D01*
X7302604Y-19663143D01*
X7321652Y-19672667D01*
X7331176Y-19691714D01*
X7331176Y-19796476D01*
X7426414Y-19796476D02*
X7426414Y-19663143D01*
X7426414Y-19682190D02*
X7435938Y-19672667D01*
X7454985Y-19663143D01*
X7483557Y-19663143D01*
X7502604Y-19672667D01*
X7512128Y-19691714D01*
X7512128Y-19796476D01*
X7512128Y-19691714D02*
X7521652Y-19672667D01*
X7540700Y-19663143D01*
X7569271Y-19663143D01*
X7588319Y-19672667D01*
X7597842Y-19691714D01*
X7597842Y-19796476D01*
X7988319Y-19586952D02*
X7816890Y-19844095D01*
X8245461Y-19596476D02*
X8264509Y-19596476D01*
X8283557Y-19606000D01*
X8293081Y-19615524D01*
X8302604Y-19634571D01*
X8312128Y-19672667D01*
X8312128Y-19720286D01*
X8302604Y-19758381D01*
X8293081Y-19777429D01*
X8283557Y-19786952D01*
X8264509Y-19796476D01*
X8245461Y-19796476D01*
X8226414Y-19786952D01*
X8216890Y-19777429D01*
X8207366Y-19758381D01*
X8197842Y-19720286D01*
X8197842Y-19672667D01*
X8207366Y-19634571D01*
X8216890Y-19615524D01*
X8226414Y-19606000D01*
X8245461Y-19596476D01*
X8397843Y-19777429D02*
X8407366Y-19786952D01*
X8397843Y-19796476D01*
X8388319Y-19786952D01*
X8397843Y-19777429D01*
X8397843Y-19796476D01*
X8531176Y-19596476D02*
X8550223Y-19596476D01*
X8569271Y-19606000D01*
X8578795Y-19615524D01*
X8588319Y-19634571D01*
X8597843Y-19672667D01*
X8597843Y-19720286D01*
X8588319Y-19758381D01*
X8578795Y-19777429D01*
X8569271Y-19786952D01*
X8550223Y-19796476D01*
X8531176Y-19796476D01*
X8512128Y-19786952D01*
X8502604Y-19777429D01*
X8493081Y-19758381D01*
X8483557Y-19720286D01*
X8483557Y-19672667D01*
X8493081Y-19634571D01*
X8502604Y-19615524D01*
X8512128Y-19606000D01*
X8531176Y-19596476D01*
X8664509Y-19596476D02*
X8788319Y-19596476D01*
X8721652Y-19672667D01*
X8750223Y-19672667D01*
X8769271Y-19682190D01*
X8778795Y-19691714D01*
X8788319Y-19710762D01*
X8788319Y-19758381D01*
X8778795Y-19777429D01*
X8769271Y-19786952D01*
X8750223Y-19796476D01*
X8693081Y-19796476D01*
X8674033Y-19786952D01*
X8664509Y-19777429D01*
X8978795Y-19796476D02*
X8864509Y-19796476D01*
X8921652Y-19796476D02*
X8921652Y-19596476D01*
X8902604Y-19625048D01*
X8883557Y-19644095D01*
X8864509Y-19653619D01*
X9159747Y-19596476D02*
X9064509Y-19596476D01*
X9054985Y-19691714D01*
X9064509Y-19682190D01*
X9083557Y-19672667D01*
X9131176Y-19672667D01*
X9150223Y-19682190D01*
X9159747Y-19691714D01*
X9169271Y-19710762D01*
X9169271Y-19758381D01*
X9159747Y-19777429D01*
X9150223Y-19786952D01*
X9131176Y-19796476D01*
X9083557Y-19796476D01*
X9064509Y-19786952D01*
X9054985Y-19777429D01*
X9245462Y-19596476D02*
X9245462Y-19634571D01*
X9321652Y-19596476D02*
X9321652Y-19634571D01*
X9616890Y-19872667D02*
X9607366Y-19863143D01*
X9588319Y-19834571D01*
X9578795Y-19815524D01*
X9569271Y-19786952D01*
X9559747Y-19739333D01*
X9559747Y-19701238D01*
X9569271Y-19653619D01*
X9578795Y-19625048D01*
X9588319Y-19606000D01*
X9607366Y-19577429D01*
X9616890Y-19567905D01*
X9797843Y-19796476D02*
X9683557Y-19796476D01*
X9740700Y-19796476D02*
X9740700Y-19596476D01*
X9721652Y-19625048D01*
X9702604Y-19644095D01*
X9683557Y-19653619D01*
X9912128Y-19682190D02*
X9893081Y-19672667D01*
X9883557Y-19663143D01*
X9874033Y-19644095D01*
X9874033Y-19634571D01*
X9883557Y-19615524D01*
X9893081Y-19606000D01*
X9912128Y-19596476D01*
X9950223Y-19596476D01*
X9969271Y-19606000D01*
X9978795Y-19615524D01*
X9988319Y-19634571D01*
X9988319Y-19644095D01*
X9978795Y-19663143D01*
X9969271Y-19672667D01*
X9950223Y-19682190D01*
X9912128Y-19682190D01*
X9893081Y-19691714D01*
X9883557Y-19701238D01*
X9874033Y-19720286D01*
X9874033Y-19758381D01*
X9883557Y-19777429D01*
X9893081Y-19786952D01*
X9912128Y-19796476D01*
X9950223Y-19796476D01*
X9969271Y-19786952D01*
X9978795Y-19777429D01*
X9988319Y-19758381D01*
X9988319Y-19720286D01*
X9978795Y-19701238D01*
X9969271Y-19691714D01*
X9950223Y-19682190D01*
X10226414Y-19796476D02*
X10226414Y-19596476D01*
X10312128Y-19796476D02*
X10312128Y-19691714D01*
X10302604Y-19672667D01*
X10283557Y-19663143D01*
X10254985Y-19663143D01*
X10235938Y-19672667D01*
X10226414Y-19682190D01*
X10435938Y-19796476D02*
X10416890Y-19786952D01*
X10407366Y-19777429D01*
X10397843Y-19758381D01*
X10397843Y-19701238D01*
X10407366Y-19682190D01*
X10416890Y-19672667D01*
X10435938Y-19663143D01*
X10464509Y-19663143D01*
X10483557Y-19672667D01*
X10493081Y-19682190D01*
X10502604Y-19701238D01*
X10502604Y-19758381D01*
X10493081Y-19777429D01*
X10483557Y-19786952D01*
X10464509Y-19796476D01*
X10435938Y-19796476D01*
X10616890Y-19796476D02*
X10597843Y-19786952D01*
X10588319Y-19767905D01*
X10588319Y-19596476D01*
X10769271Y-19786952D02*
X10750223Y-19796476D01*
X10712128Y-19796476D01*
X10693081Y-19786952D01*
X10683557Y-19767905D01*
X10683557Y-19691714D01*
X10693081Y-19672667D01*
X10712128Y-19663143D01*
X10750223Y-19663143D01*
X10769271Y-19672667D01*
X10778795Y-19691714D01*
X10778795Y-19710762D01*
X10683557Y-19729810D01*
X10854985Y-19786952D02*
X10874033Y-19796476D01*
X10912128Y-19796476D01*
X10931176Y-19786952D01*
X10940700Y-19767905D01*
X10940700Y-19758381D01*
X10931176Y-19739333D01*
X10912128Y-19729810D01*
X10883557Y-19729810D01*
X10864509Y-19720286D01*
X10854985Y-19701238D01*
X10854985Y-19691714D01*
X10864509Y-19672667D01*
X10883557Y-19663143D01*
X10912128Y-19663143D01*
X10931176Y-19672667D01*
X11007366Y-19872667D02*
X11016890Y-19863143D01*
X11035938Y-19834571D01*
X11045462Y-19815524D01*
X11054985Y-19786952D01*
X11064509Y-19739333D01*
X11064509Y-19701238D01*
X11054985Y-19653619D01*
X11045462Y-19625048D01*
X11035938Y-19606000D01*
X11016890Y-19577429D01*
X11007366Y-19567905D01*
D10*
X5944985Y-19920000D02*
X6044985Y-20020000D01*
X6044985Y-19920000D02*
X5944985Y-20020000D01*
X5994985Y-19920000D02*
X5994985Y-20020000D01*
X5944985Y-19970000D02*
X6044985Y-19970000D01*
D11*
X6407366Y-20060476D02*
X6293081Y-20060476D01*
X6350223Y-20060476D02*
X6350223Y-19860476D01*
X6331176Y-19889048D01*
X6312128Y-19908095D01*
X6293081Y-19917619D01*
X6493081Y-20041429D02*
X6502604Y-20050952D01*
X6493081Y-20060476D01*
X6483557Y-20050952D01*
X6493081Y-20041429D01*
X6493081Y-20060476D01*
X6626414Y-19860476D02*
X6645461Y-19860476D01*
X6664509Y-19870000D01*
X6674033Y-19879524D01*
X6683557Y-19898571D01*
X6693081Y-19936667D01*
X6693081Y-19984286D01*
X6683557Y-20022381D01*
X6674033Y-20041429D01*
X6664509Y-20050952D01*
X6645461Y-20060476D01*
X6626414Y-20060476D01*
X6607366Y-20050952D01*
X6597842Y-20041429D01*
X6588319Y-20022381D01*
X6578795Y-19984286D01*
X6578795Y-19936667D01*
X6588319Y-19898571D01*
X6597842Y-19879524D01*
X6607366Y-19870000D01*
X6626414Y-19860476D01*
X6816890Y-19860476D02*
X6835938Y-19860476D01*
X6854985Y-19870000D01*
X6864509Y-19879524D01*
X6874033Y-19898571D01*
X6883557Y-19936667D01*
X6883557Y-19984286D01*
X6874033Y-20022381D01*
X6864509Y-20041429D01*
X6854985Y-20050952D01*
X6835938Y-20060476D01*
X6816890Y-20060476D01*
X6797842Y-20050952D01*
X6788319Y-20041429D01*
X6778795Y-20022381D01*
X6769271Y-19984286D01*
X6769271Y-19936667D01*
X6778795Y-19898571D01*
X6788319Y-19879524D01*
X6797842Y-19870000D01*
X6816890Y-19860476D01*
X7007366Y-19860476D02*
X7026414Y-19860476D01*
X7045461Y-19870000D01*
X7054985Y-19879524D01*
X7064509Y-19898571D01*
X7074033Y-19936667D01*
X7074033Y-19984286D01*
X7064509Y-20022381D01*
X7054985Y-20041429D01*
X7045461Y-20050952D01*
X7026414Y-20060476D01*
X7007366Y-20060476D01*
X6988319Y-20050952D01*
X6978795Y-20041429D01*
X6969271Y-20022381D01*
X6959747Y-19984286D01*
X6959747Y-19936667D01*
X6969271Y-19898571D01*
X6978795Y-19879524D01*
X6988319Y-19870000D01*
X7007366Y-19860476D01*
X7159747Y-20060476D02*
X7159747Y-19927143D01*
X7159747Y-19946190D02*
X7169271Y-19936667D01*
X7188319Y-19927143D01*
X7216890Y-19927143D01*
X7235938Y-19936667D01*
X7245461Y-19955714D01*
X7245461Y-20060476D01*
X7245461Y-19955714D02*
X7254985Y-19936667D01*
X7274033Y-19927143D01*
X7302604Y-19927143D01*
X7321652Y-19936667D01*
X7331176Y-19955714D01*
X7331176Y-20060476D01*
X7426414Y-20060476D02*
X7426414Y-19927143D01*
X7426414Y-19946190D02*
X7435938Y-19936667D01*
X7454985Y-19927143D01*
X7483557Y-19927143D01*
X7502604Y-19936667D01*
X7512128Y-19955714D01*
X7512128Y-20060476D01*
X7512128Y-19955714D02*
X7521652Y-19936667D01*
X7540700Y-19927143D01*
X7569271Y-19927143D01*
X7588319Y-19936667D01*
X7597842Y-19955714D01*
X7597842Y-20060476D01*
X7988319Y-19850952D02*
X7816890Y-20108095D01*
X8245461Y-19860476D02*
X8264509Y-19860476D01*
X8283557Y-19870000D01*
X8293081Y-19879524D01*
X8302604Y-19898571D01*
X8312128Y-19936667D01*
X8312128Y-19984286D01*
X8302604Y-20022381D01*
X8293081Y-20041429D01*
X8283557Y-20050952D01*
X8264509Y-20060476D01*
X8245461Y-20060476D01*
X8226414Y-20050952D01*
X8216890Y-20041429D01*
X8207366Y-20022381D01*
X8197842Y-19984286D01*
X8197842Y-19936667D01*
X8207366Y-19898571D01*
X8216890Y-19879524D01*
X8226414Y-19870000D01*
X8245461Y-19860476D01*
X8397843Y-20041429D02*
X8407366Y-20050952D01*
X8397843Y-20060476D01*
X8388319Y-20050952D01*
X8397843Y-20041429D01*
X8397843Y-20060476D01*
X8531176Y-19860476D02*
X8550223Y-19860476D01*
X8569271Y-19870000D01*
X8578795Y-19879524D01*
X8588319Y-19898571D01*
X8597843Y-19936667D01*
X8597843Y-19984286D01*
X8588319Y-20022381D01*
X8578795Y-20041429D01*
X8569271Y-20050952D01*
X8550223Y-20060476D01*
X8531176Y-20060476D01*
X8512128Y-20050952D01*
X8502604Y-20041429D01*
X8493081Y-20022381D01*
X8483557Y-19984286D01*
X8483557Y-19936667D01*
X8493081Y-19898571D01*
X8502604Y-19879524D01*
X8512128Y-19870000D01*
X8531176Y-19860476D01*
X8664509Y-19860476D02*
X8788319Y-19860476D01*
X8721652Y-19936667D01*
X8750223Y-19936667D01*
X8769271Y-19946190D01*
X8778795Y-19955714D01*
X8788319Y-19974762D01*
X8788319Y-20022381D01*
X8778795Y-20041429D01*
X8769271Y-20050952D01*
X8750223Y-20060476D01*
X8693081Y-20060476D01*
X8674033Y-20050952D01*
X8664509Y-20041429D01*
X8883557Y-20060476D02*
X8921652Y-20060476D01*
X8940700Y-20050952D01*
X8950223Y-20041429D01*
X8969271Y-20012857D01*
X8978795Y-19974762D01*
X8978795Y-19898571D01*
X8969271Y-19879524D01*
X8959747Y-19870000D01*
X8940700Y-19860476D01*
X8902604Y-19860476D01*
X8883557Y-19870000D01*
X8874033Y-19879524D01*
X8864509Y-19898571D01*
X8864509Y-19946190D01*
X8874033Y-19965238D01*
X8883557Y-19974762D01*
X8902604Y-19984286D01*
X8940700Y-19984286D01*
X8959747Y-19974762D01*
X8969271Y-19965238D01*
X8978795Y-19946190D01*
X9150223Y-19927143D02*
X9150223Y-20060476D01*
X9102604Y-19850952D02*
X9054985Y-19993810D01*
X9178795Y-19993810D01*
X9245462Y-19860476D02*
X9245462Y-19898571D01*
X9321652Y-19860476D02*
X9321652Y-19898571D01*
X9616890Y-20136667D02*
X9607366Y-20127143D01*
X9588319Y-20098571D01*
X9578795Y-20079524D01*
X9569271Y-20050952D01*
X9559747Y-20003333D01*
X9559747Y-19965238D01*
X9569271Y-19917619D01*
X9578795Y-19889048D01*
X9588319Y-19870000D01*
X9607366Y-19841429D01*
X9616890Y-19831905D01*
X9683557Y-19879524D02*
X9693081Y-19870000D01*
X9712128Y-19860476D01*
X9759747Y-19860476D01*
X9778795Y-19870000D01*
X9788319Y-19879524D01*
X9797843Y-19898571D01*
X9797843Y-19917619D01*
X9788319Y-19946190D01*
X9674033Y-20060476D01*
X9797843Y-20060476D01*
X9988319Y-20060476D02*
X9874033Y-20060476D01*
X9931176Y-20060476D02*
X9931176Y-19860476D01*
X9912128Y-19889048D01*
X9893081Y-19908095D01*
X9874033Y-19917619D01*
X10054985Y-19860476D02*
X10178795Y-19860476D01*
X10112128Y-19936667D01*
X10140700Y-19936667D01*
X10159747Y-19946190D01*
X10169271Y-19955714D01*
X10178795Y-19974762D01*
X10178795Y-20022381D01*
X10169271Y-20041429D01*
X10159747Y-20050952D01*
X10140700Y-20060476D01*
X10083557Y-20060476D01*
X10064509Y-20050952D01*
X10054985Y-20041429D01*
X10416890Y-20060476D02*
X10416890Y-19860476D01*
X10502604Y-20060476D02*
X10502604Y-19955714D01*
X10493081Y-19936667D01*
X10474033Y-19927143D01*
X10445462Y-19927143D01*
X10426414Y-19936667D01*
X10416890Y-19946190D01*
X10626414Y-20060476D02*
X10607366Y-20050952D01*
X10597843Y-20041429D01*
X10588319Y-20022381D01*
X10588319Y-19965238D01*
X10597843Y-19946190D01*
X10607366Y-19936667D01*
X10626414Y-19927143D01*
X10654985Y-19927143D01*
X10674033Y-19936667D01*
X10683557Y-19946190D01*
X10693081Y-19965238D01*
X10693081Y-20022381D01*
X10683557Y-20041429D01*
X10674033Y-20050952D01*
X10654985Y-20060476D01*
X10626414Y-20060476D01*
X10807366Y-20060476D02*
X10788319Y-20050952D01*
X10778795Y-20031905D01*
X10778795Y-19860476D01*
X10959747Y-20050952D02*
X10940700Y-20060476D01*
X10902604Y-20060476D01*
X10883557Y-20050952D01*
X10874033Y-20031905D01*
X10874033Y-19955714D01*
X10883557Y-19936667D01*
X10902604Y-19927143D01*
X10940700Y-19927143D01*
X10959747Y-19936667D01*
X10969271Y-19955714D01*
X10969271Y-19974762D01*
X10874033Y-19993810D01*
X11045462Y-20050952D02*
X11064509Y-20060476D01*
X11102604Y-20060476D01*
X11121652Y-20050952D01*
X11131176Y-20031905D01*
X11131176Y-20022381D01*
X11121652Y-20003333D01*
X11102604Y-19993810D01*
X11074033Y-19993810D01*
X11054985Y-19984286D01*
X11045462Y-19965238D01*
X11045462Y-19955714D01*
X11054985Y-19936667D01*
X11074033Y-19927143D01*
X11102604Y-19927143D01*
X11121652Y-19936667D01*
X11197842Y-20136667D02*
X11207366Y-20127143D01*
X11226414Y-20098571D01*
X11235938Y-20079524D01*
X11245461Y-20050952D01*
X11254985Y-20003333D01*
X11254985Y-19965238D01*
X11245461Y-19917619D01*
X11235938Y-19889048D01*
X11226414Y-19870000D01*
X11207366Y-19841429D01*
X11197842Y-19831905D01*
M02*
