%TF.GenerationSoftware,KiCad,Pcbnew,(6.0.2-0)*%
%TF.CreationDate,2022-04-19T20:24:01-05:00*%
%TF.ProjectId,UDNISOC-1,55444e49-534f-4432-9d31-2e6b69636164,rev?*%
%TF.SameCoordinates,Original*%
%TF.FileFunction,Legend,Bot*%
%TF.FilePolarity,Positive*%
%FSLAX46Y46*%
G04 Gerber Fmt 4.6, Leading zero omitted, Abs format (unit mm)*
G04 Created by KiCad (PCBNEW (6.0.2-0)) date 2022-04-19 20:24:01*
%MOMM*%
%LPD*%
G01*
G04 APERTURE LIST*
%ADD10C,0.150000*%
%ADD11C,0.120000*%
G04 APERTURE END LIST*
D10*
%TO.C,U1*%
X181619523Y-103578095D02*
X181581428Y-103540000D01*
X181505238Y-103501904D01*
X181314761Y-103501904D01*
X181238571Y-103540000D01*
X181200476Y-103578095D01*
X181162380Y-103654285D01*
X181162380Y-103730476D01*
X181200476Y-103844761D01*
X181657619Y-104301904D01*
X181162380Y-104301904D01*
X180781428Y-104301904D02*
X180629047Y-104301904D01*
X180552857Y-104263809D01*
X180514761Y-104225714D01*
X180438571Y-104111428D01*
X180400476Y-103959047D01*
X180400476Y-103654285D01*
X180438571Y-103578095D01*
X180476666Y-103540000D01*
X180552857Y-103501904D01*
X180705238Y-103501904D01*
X180781428Y-103540000D01*
X180819523Y-103578095D01*
X180857619Y-103654285D01*
X180857619Y-103844761D01*
X180819523Y-103920952D01*
X180781428Y-103959047D01*
X180705238Y-103997142D01*
X180552857Y-103997142D01*
X180476666Y-103959047D01*
X180438571Y-103920952D01*
X180400476Y-103844761D01*
X153157619Y-91768571D02*
X153157619Y-92301904D01*
X153348095Y-91463809D02*
X153538571Y-92035238D01*
X153043333Y-92035238D01*
X178457619Y-102601904D02*
X177962380Y-102601904D01*
X178229047Y-102906666D01*
X178114761Y-102906666D01*
X178038571Y-102944761D01*
X178000476Y-102982857D01*
X177962380Y-103059047D01*
X177962380Y-103249523D01*
X178000476Y-103325714D01*
X178038571Y-103363809D01*
X178114761Y-103401904D01*
X178343333Y-103401904D01*
X178419523Y-103363809D01*
X178457619Y-103325714D01*
X177200476Y-103401904D02*
X177657619Y-103401904D01*
X177429047Y-103401904D02*
X177429047Y-102601904D01*
X177505238Y-102716190D01*
X177581428Y-102792380D01*
X177657619Y-102830476D01*
X153081428Y-90801904D02*
X153538571Y-90801904D01*
X153310000Y-90801904D02*
X153310000Y-90001904D01*
X153386190Y-90116190D01*
X153462380Y-90192380D01*
X153538571Y-90230476D01*
X150138571Y-90578095D02*
X150100476Y-90540000D01*
X150024285Y-90501904D01*
X149833809Y-90501904D01*
X149757619Y-90540000D01*
X149719523Y-90578095D01*
X149681428Y-90654285D01*
X149681428Y-90730476D01*
X149719523Y-90844761D01*
X150176666Y-91301904D01*
X149681428Y-91301904D01*
X181200476Y-90101904D02*
X181581428Y-90101904D01*
X181619523Y-90482857D01*
X181581428Y-90444761D01*
X181505238Y-90406666D01*
X181314761Y-90406666D01*
X181238571Y-90444761D01*
X181200476Y-90482857D01*
X181162380Y-90559047D01*
X181162380Y-90749523D01*
X181200476Y-90825714D01*
X181238571Y-90863809D01*
X181314761Y-90901904D01*
X181505238Y-90901904D01*
X181581428Y-90863809D01*
X181619523Y-90825714D01*
X180476666Y-90101904D02*
X180629047Y-90101904D01*
X180705238Y-90140000D01*
X180743333Y-90178095D01*
X180819523Y-90292380D01*
X180857619Y-90444761D01*
X180857619Y-90749523D01*
X180819523Y-90825714D01*
X180781428Y-90863809D01*
X180705238Y-90901904D01*
X180552857Y-90901904D01*
X180476666Y-90863809D01*
X180438571Y-90825714D01*
X180400476Y-90749523D01*
X180400476Y-90559047D01*
X180438571Y-90482857D01*
X180476666Y-90444761D01*
X180552857Y-90406666D01*
X180705238Y-90406666D01*
X180781428Y-90444761D01*
X180819523Y-90482857D01*
X180857619Y-90559047D01*
X181657619Y-102101904D02*
X181162380Y-102101904D01*
X181429047Y-102406666D01*
X181314761Y-102406666D01*
X181238571Y-102444761D01*
X181200476Y-102482857D01*
X181162380Y-102559047D01*
X181162380Y-102749523D01*
X181200476Y-102825714D01*
X181238571Y-102863809D01*
X181314761Y-102901904D01*
X181543333Y-102901904D01*
X181619523Y-102863809D01*
X181657619Y-102825714D01*
X180857619Y-102178095D02*
X180819523Y-102140000D01*
X180743333Y-102101904D01*
X180552857Y-102101904D01*
X180476666Y-102140000D01*
X180438571Y-102178095D01*
X180400476Y-102254285D01*
X180400476Y-102330476D01*
X180438571Y-102444761D01*
X180895714Y-102901904D01*
X180400476Y-102901904D01*
X146776666Y-91001904D02*
X146281428Y-91001904D01*
X146548095Y-91306666D01*
X146433809Y-91306666D01*
X146357619Y-91344761D01*
X146319523Y-91382857D01*
X146281428Y-91459047D01*
X146281428Y-91649523D01*
X146319523Y-91725714D01*
X146357619Y-91763809D01*
X146433809Y-91801904D01*
X146662380Y-91801904D01*
X146738571Y-91763809D01*
X146776666Y-91725714D01*
X175057619Y-101601904D02*
X174562380Y-101601904D01*
X174829047Y-101906666D01*
X174714761Y-101906666D01*
X174638571Y-101944761D01*
X174600476Y-101982857D01*
X174562380Y-102059047D01*
X174562380Y-102249523D01*
X174600476Y-102325714D01*
X174638571Y-102363809D01*
X174714761Y-102401904D01*
X174943333Y-102401904D01*
X175019523Y-102363809D01*
X175057619Y-102325714D01*
X174295714Y-101601904D02*
X173800476Y-101601904D01*
X174067142Y-101906666D01*
X173952857Y-101906666D01*
X173876666Y-101944761D01*
X173838571Y-101982857D01*
X173800476Y-102059047D01*
X173800476Y-102249523D01*
X173838571Y-102325714D01*
X173876666Y-102363809D01*
X173952857Y-102401904D01*
X174181428Y-102401904D01*
X174257619Y-102363809D01*
X174295714Y-102325714D01*
X154219523Y-103578095D02*
X154181428Y-103540000D01*
X154105238Y-103501904D01*
X153914761Y-103501904D01*
X153838571Y-103540000D01*
X153800476Y-103578095D01*
X153762380Y-103654285D01*
X153762380Y-103730476D01*
X153800476Y-103844761D01*
X154257619Y-104301904D01*
X153762380Y-104301904D01*
X153305238Y-103844761D02*
X153381428Y-103806666D01*
X153419523Y-103768571D01*
X153457619Y-103692380D01*
X153457619Y-103654285D01*
X153419523Y-103578095D01*
X153381428Y-103540000D01*
X153305238Y-103501904D01*
X153152857Y-103501904D01*
X153076666Y-103540000D01*
X153038571Y-103578095D01*
X153000476Y-103654285D01*
X153000476Y-103692380D01*
X153038571Y-103768571D01*
X153076666Y-103806666D01*
X153152857Y-103844761D01*
X153305238Y-103844761D01*
X153381428Y-103882857D01*
X153419523Y-103920952D01*
X153457619Y-103997142D01*
X153457619Y-104149523D01*
X153419523Y-104225714D01*
X153381428Y-104263809D01*
X153305238Y-104301904D01*
X153152857Y-104301904D01*
X153076666Y-104263809D01*
X153038571Y-104225714D01*
X153000476Y-104149523D01*
X153000476Y-103997142D01*
X153038571Y-103920952D01*
X153076666Y-103882857D01*
X153152857Y-103844761D01*
X175057619Y-103001904D02*
X174562380Y-103001904D01*
X174829047Y-103306666D01*
X174714761Y-103306666D01*
X174638571Y-103344761D01*
X174600476Y-103382857D01*
X174562380Y-103459047D01*
X174562380Y-103649523D01*
X174600476Y-103725714D01*
X174638571Y-103763809D01*
X174714761Y-103801904D01*
X174943333Y-103801904D01*
X175019523Y-103763809D01*
X175057619Y-103725714D01*
X174067142Y-103001904D02*
X173990952Y-103001904D01*
X173914761Y-103040000D01*
X173876666Y-103078095D01*
X173838571Y-103154285D01*
X173800476Y-103306666D01*
X173800476Y-103497142D01*
X173838571Y-103649523D01*
X173876666Y-103725714D01*
X173914761Y-103763809D01*
X173990952Y-103801904D01*
X174067142Y-103801904D01*
X174143333Y-103763809D01*
X174181428Y-103725714D01*
X174219523Y-103649523D01*
X174257619Y-103497142D01*
X174257619Y-103306666D01*
X174219523Y-103154285D01*
X174181428Y-103078095D01*
X174143333Y-103040000D01*
X174067142Y-103001904D01*
%TO.C,C1*%
X181557142Y-107783333D02*
X181604761Y-107735714D01*
X181652380Y-107592857D01*
X181652380Y-107497619D01*
X181604761Y-107354761D01*
X181509523Y-107259523D01*
X181414285Y-107211904D01*
X181223809Y-107164285D01*
X181080952Y-107164285D01*
X180890476Y-107211904D01*
X180795238Y-107259523D01*
X180700000Y-107354761D01*
X180652380Y-107497619D01*
X180652380Y-107592857D01*
X180700000Y-107735714D01*
X180747619Y-107783333D01*
X181652380Y-108735714D02*
X181652380Y-108164285D01*
X181652380Y-108450000D02*
X180652380Y-108450000D01*
X180795238Y-108354761D01*
X180890476Y-108259523D01*
X180938095Y-108164285D01*
%TO.C,C2*%
X176696666Y-86307142D02*
X176744285Y-86354761D01*
X176887142Y-86402380D01*
X176982380Y-86402380D01*
X177125238Y-86354761D01*
X177220476Y-86259523D01*
X177268095Y-86164285D01*
X177315714Y-85973809D01*
X177315714Y-85830952D01*
X177268095Y-85640476D01*
X177220476Y-85545238D01*
X177125238Y-85450000D01*
X176982380Y-85402380D01*
X176887142Y-85402380D01*
X176744285Y-85450000D01*
X176696666Y-85497619D01*
X176315714Y-85497619D02*
X176268095Y-85450000D01*
X176172857Y-85402380D01*
X175934761Y-85402380D01*
X175839523Y-85450000D01*
X175791904Y-85497619D01*
X175744285Y-85592857D01*
X175744285Y-85688095D01*
X175791904Y-85830952D01*
X176363333Y-86402380D01*
X175744285Y-86402380D01*
D11*
%TO.C,C1*%
X182145000Y-107688748D02*
X182145000Y-108211252D01*
X183615000Y-107688748D02*
X183615000Y-108211252D01*
%TO.C,C2*%
X176791252Y-86895000D02*
X176268748Y-86895000D01*
X176791252Y-88365000D02*
X176268748Y-88365000D01*
%TD*%
M02*
