%TF.GenerationSoftware,KiCad,Pcbnew,(6.0.2-0)*%
%TF.CreationDate,2022-04-19T20:24:02-05:00*%
%TF.ProjectId,UDNISOC-1,55444e49-534f-4432-9d31-2e6b69636164,rev?*%
%TF.SameCoordinates,Original*%
%TF.FileFunction,Soldermask,Bot*%
%TF.FilePolarity,Negative*%
%FSLAX46Y46*%
G04 Gerber Fmt 4.6, Leading zero omitted, Abs format (unit mm)*
G04 Created by KiCad (PCBNEW (6.0.2-0)) date 2022-04-19 20:24:02*
%MOMM*%
%LPD*%
G01*
G04 APERTURE LIST*
G04 Aperture macros list*
%AMRoundRect*
0 Rectangle with rounded corners*
0 $1 Rounding radius*
0 $2 $3 $4 $5 $6 $7 $8 $9 X,Y pos of 4 corners*
0 Add a 4 corners polygon primitive as box body*
4,1,4,$2,$3,$4,$5,$6,$7,$8,$9,$2,$3,0*
0 Add four circle primitives for the rounded corners*
1,1,$1+$1,$2,$3*
1,1,$1+$1,$4,$5*
1,1,$1+$1,$6,$7*
1,1,$1+$1,$8,$9*
0 Add four rect primitives between the rounded corners*
20,1,$1+$1,$2,$3,$4,$5,0*
20,1,$1+$1,$4,$5,$6,$7,0*
20,1,$1+$1,$6,$7,$8,$9,0*
20,1,$1+$1,$8,$9,$2,$3,0*%
G04 Aperture macros list end*
%ADD10C,6.400000*%
%ADD11R,1.700000X1.700000*%
%ADD12O,1.700000X1.700000*%
%ADD13C,1.000000*%
%ADD14R,1.200000X1.200000*%
%ADD15C,1.200000*%
%ADD16RoundRect,0.250000X-0.475000X0.250000X-0.475000X-0.250000X0.475000X-0.250000X0.475000X0.250000X0*%
%ADD17RoundRect,0.250000X0.250000X0.475000X-0.250000X0.475000X-0.250000X-0.475000X0.250000X-0.475000X0*%
G04 APERTURE END LIST*
D10*
%TO.C,MH3*%
X154940000Y-111760000D03*
%TD*%
D11*
%TO.C,J1*%
X131445000Y-80010000D03*
D12*
X128905000Y-80010000D03*
X131445000Y-82550000D03*
X128905000Y-82550000D03*
X131445000Y-85090000D03*
X128905000Y-85090000D03*
X131445000Y-87630000D03*
X128905000Y-87630000D03*
X131445000Y-90170000D03*
X128905000Y-90170000D03*
X131445000Y-92710000D03*
X128905000Y-92710000D03*
X131445000Y-95250000D03*
X128905000Y-95250000D03*
X131445000Y-97790000D03*
X128905000Y-97790000D03*
X131445000Y-100330000D03*
X128905000Y-100330000D03*
X131445000Y-102870000D03*
X128905000Y-102870000D03*
X131445000Y-105410000D03*
X128905000Y-105410000D03*
X131445000Y-107950000D03*
X128905000Y-107950000D03*
X131445000Y-110490000D03*
X128905000Y-110490000D03*
X131445000Y-113030000D03*
X128905000Y-113030000D03*
%TD*%
D10*
%TO.C,MH2*%
X172720000Y-81280000D03*
%TD*%
%TO.C,MH1*%
X154940000Y-81280000D03*
%TD*%
D11*
%TO.C,J2*%
X198750000Y-80010000D03*
D12*
X196210000Y-80010000D03*
X198750000Y-82550000D03*
X196210000Y-82550000D03*
X198750000Y-85090000D03*
X196210000Y-85090000D03*
X198750000Y-87630000D03*
X196210000Y-87630000D03*
X198750000Y-90170000D03*
X196210000Y-90170000D03*
X198750000Y-92710000D03*
X196210000Y-92710000D03*
X198750000Y-95250000D03*
X196210000Y-95250000D03*
X198750000Y-97790000D03*
X196210000Y-97790000D03*
X198750000Y-100330000D03*
X196210000Y-100330000D03*
X198750000Y-102870000D03*
X196210000Y-102870000D03*
X198750000Y-105410000D03*
X196210000Y-105410000D03*
X198750000Y-107950000D03*
X196210000Y-107950000D03*
X198750000Y-110490000D03*
X196210000Y-110490000D03*
X198750000Y-113030000D03*
X196210000Y-113030000D03*
%TD*%
D10*
%TO.C,MH4*%
X172720000Y-111760000D03*
%TD*%
D13*
%TO.C,U1*%
X175500000Y-106115000D03*
X152500000Y-88265000D03*
D14*
X152010000Y-90440000D03*
D15*
X148710000Y-90940000D03*
X145410000Y-91440000D03*
X152010000Y-91940000D03*
X148710000Y-92440000D03*
X145410000Y-92940000D03*
X152010000Y-93440000D03*
X148710000Y-93940000D03*
X145410000Y-94440000D03*
X152010000Y-94940000D03*
X148710000Y-95440000D03*
X145410000Y-95940000D03*
X152010000Y-96440000D03*
X148710000Y-96940000D03*
X145410000Y-97440000D03*
X152010000Y-97940000D03*
X148710000Y-98440000D03*
X145410000Y-98940000D03*
X152010000Y-99440000D03*
X148710000Y-99940000D03*
X145410000Y-100440000D03*
X152010000Y-100940000D03*
X148710000Y-101440000D03*
X145410000Y-101940000D03*
X152010000Y-102440000D03*
X148710000Y-102940000D03*
X145410000Y-103440000D03*
X152010000Y-103940000D03*
X182590000Y-103940000D03*
X175990000Y-103440000D03*
X179290000Y-102940000D03*
X182590000Y-102440000D03*
X175990000Y-101940000D03*
X179290000Y-101440000D03*
X182590000Y-100940000D03*
X175990000Y-100440000D03*
X179290000Y-99940000D03*
X182590000Y-99440000D03*
X175990000Y-98940000D03*
X179290000Y-98440000D03*
X182590000Y-97940000D03*
X175990000Y-97440000D03*
X179290000Y-96940000D03*
X182590000Y-96440000D03*
X175990000Y-95940000D03*
X179290000Y-95440000D03*
X182590000Y-94940000D03*
X175990000Y-94440000D03*
X179290000Y-93940000D03*
X182590000Y-93440000D03*
X175990000Y-92940000D03*
X179290000Y-92440000D03*
X182590000Y-91940000D03*
X175990000Y-91440000D03*
X179290000Y-90940000D03*
X182590000Y-90440000D03*
%TD*%
D16*
%TO.C,C1*%
X182880000Y-107000000D03*
X182880000Y-108900000D03*
%TD*%
D17*
%TO.C,C2*%
X177480000Y-87630000D03*
X175580000Y-87630000D03*
%TD*%
M02*
