M48
; DRILL file {KiCad (6.0.2-0)} date Tuesday, April 19, 2022 at 08:03:03 PM
; FORMAT={-:-/ absolute / inch / decimal}
; #@! TF.CreationDate,2022-04-19T20:03:03-05:00
; #@! TF.GenerationSoftware,Kicad,Pcbnew,(6.0.2-0)
; #@! TF.FileFunction,Plated,1,2,PTH
FMAT,2
INCH
; #@! TA.AperFunction,Plated,PTH,ViaDrill
T1C0.0157
; #@! TA.AperFunction,Plated,PTH,ComponentDrill
T2C0.0295
; #@! TA.AperFunction,Plated,PTH,ComponentDrill
T3C0.0394
; #@! TA.AperFunction,Plated,PTH,ComponentDrill
T4C0.1260
%
G90
G05
T1
X7.2Y-3.49
X7.285Y-4.265
X7.335Y-3.46
X7.44Y-4.255
T2
X5.7248Y-3.6
X5.7248Y-3.6591
X5.7248Y-3.7181
X5.7248Y-3.7772
X5.7248Y-3.8362
X5.7248Y-3.8953
X5.7248Y-3.9543
X5.7248Y-4.0134
X5.7248Y-4.0724
X5.8547Y-3.5803
X5.8547Y-3.6394
X5.8547Y-3.6984
X5.8547Y-3.7575
X5.8547Y-3.8165
X5.8547Y-3.8756
X5.8547Y-3.9346
X5.8547Y-3.9937
X5.8547Y-4.0528
X5.9846Y-3.5606
X5.9846Y-3.6197
X5.9846Y-3.6787
X5.9846Y-3.7378
X5.9846Y-3.7969
X5.9846Y-3.8559
X5.9846Y-3.915
X5.9846Y-3.974
X5.9846Y-4.0331
X5.9846Y-4.0921
X6.9287Y-3.6
X6.9287Y-3.6591
X6.9287Y-3.7181
X6.9287Y-3.7772
X6.9287Y-3.8362
X6.9287Y-3.8953
X6.9287Y-3.9543
X6.9287Y-4.0134
X6.9287Y-4.0724
X7.0587Y-3.5803
X7.0587Y-3.6394
X7.0587Y-3.6984
X7.0587Y-3.7575
X7.0587Y-3.8165
X7.0587Y-3.8756
X7.0587Y-3.9346
X7.0587Y-3.9937
X7.0587Y-4.0528
X7.1886Y-3.5606
X7.1886Y-3.6197
X7.1886Y-3.6787
X7.1886Y-3.7378
X7.1886Y-3.7969
X7.1886Y-3.8559
X7.1886Y-3.915
X7.1886Y-3.974
X7.1886Y-4.0331
X7.1886Y-4.0921
T3
X5.075Y-3.15
X5.075Y-3.25
X5.075Y-3.35
X5.075Y-3.45
X5.075Y-3.55
X5.075Y-3.65
X5.075Y-3.75
X5.075Y-3.85
X5.075Y-3.95
X5.075Y-4.05
X5.075Y-4.15
X5.075Y-4.25
X5.075Y-4.35
X5.075Y-4.45
X5.175Y-3.15
X5.175Y-3.25
X5.175Y-3.35
X5.175Y-3.45
X5.175Y-3.55
X5.175Y-3.65
X5.175Y-3.75
X5.175Y-3.85
X5.175Y-3.95
X5.175Y-4.05
X5.175Y-4.15
X5.175Y-4.25
X5.175Y-4.35
X5.175Y-4.45
X7.7248Y-3.15
X7.7248Y-3.25
X7.7248Y-3.35
X7.7248Y-3.45
X7.7248Y-3.55
X7.7248Y-3.65
X7.7248Y-3.75
X7.7248Y-3.85
X7.7248Y-3.95
X7.7248Y-4.05
X7.7248Y-4.15
X7.7248Y-4.25
X7.7248Y-4.35
X7.7248Y-4.45
X7.8248Y-3.15
X7.8248Y-3.25
X7.8248Y-3.35
X7.8248Y-3.45
X7.8248Y-3.55
X7.8248Y-3.65
X7.8248Y-3.75
X7.8248Y-3.85
X7.8248Y-3.95
X7.8248Y-4.05
X7.8248Y-4.15
X7.8248Y-4.25
X7.8248Y-4.35
X7.8248Y-4.45
T4
X6.1Y-3.2
X6.1Y-4.4
X6.8Y-3.2
X6.8Y-4.4
T0
M30
