%TF.GenerationSoftware,KiCad,Pcbnew,(6.0.8-1)-1*%
%TF.CreationDate,2022-10-19T15:00:50-05:00*%
%TF.ProjectId,NR1B-SQT56,4e523142-2d53-4515-9435-362e6b696361,rev?*%
%TF.SameCoordinates,Original*%
%TF.FileFunction,Paste,Bot*%
%TF.FilePolarity,Positive*%
%FSLAX46Y46*%
G04 Gerber Fmt 4.6, Leading zero omitted, Abs format (unit mm)*
G04 Created by KiCad (PCBNEW (6.0.8-1)-1) date 2022-10-19 15:00:50*
%MOMM*%
%LPD*%
G01*
G04 APERTURE LIST*
G04 Aperture macros list*
%AMRoundRect*
0 Rectangle with rounded corners*
0 $1 Rounding radius*
0 $2 $3 $4 $5 $6 $7 $8 $9 X,Y pos of 4 corners*
0 Add a 4 corners polygon primitive as box body*
4,1,4,$2,$3,$4,$5,$6,$7,$8,$9,$2,$3,0*
0 Add four circle primitives for the rounded corners*
1,1,$1+$1,$2,$3*
1,1,$1+$1,$4,$5*
1,1,$1+$1,$6,$7*
1,1,$1+$1,$8,$9*
0 Add four rect primitives between the rounded corners*
20,1,$1+$1,$2,$3,$4,$5,0*
20,1,$1+$1,$4,$5,$6,$7,0*
20,1,$1+$1,$6,$7,$8,$9,0*
20,1,$1+$1,$8,$9,$2,$3,0*%
G04 Aperture macros list end*
%ADD10RoundRect,0.225000X0.225000X0.250000X-0.225000X0.250000X-0.225000X-0.250000X0.225000X-0.250000X0*%
%ADD11RoundRect,0.140000X-0.219203X-0.021213X-0.021213X-0.219203X0.219203X0.021213X0.021213X0.219203X0*%
%ADD12RoundRect,0.140000X0.219203X0.021213X0.021213X0.219203X-0.219203X-0.021213X-0.021213X-0.219203X0*%
%ADD13RoundRect,0.140000X-0.021213X0.219203X-0.219203X0.021213X0.021213X-0.219203X0.219203X-0.021213X0*%
%ADD14RoundRect,0.250000X-0.159099X0.512652X-0.512652X0.159099X0.159099X-0.512652X0.512652X-0.159099X0*%
%ADD15RoundRect,0.225000X-0.225000X-0.250000X0.225000X-0.250000X0.225000X0.250000X-0.225000X0.250000X0*%
%ADD16R,0.450000X1.450000*%
%ADD17RoundRect,0.250000X-0.450000X0.262500X-0.450000X-0.262500X0.450000X-0.262500X0.450000X0.262500X0*%
%ADD18RoundRect,0.200000X0.335876X0.053033X0.053033X0.335876X-0.335876X-0.053033X-0.053033X-0.335876X0*%
%ADD19RoundRect,0.225000X-0.017678X0.335876X-0.335876X0.017678X0.017678X-0.335876X0.335876X-0.017678X0*%
%ADD20RoundRect,0.140000X0.021213X-0.219203X0.219203X-0.021213X-0.021213X0.219203X-0.219203X0.021213X0*%
%ADD21R,1.450000X0.450000*%
%ADD22RoundRect,0.225000X0.250000X-0.225000X0.250000X0.225000X-0.250000X0.225000X-0.250000X-0.225000X0*%
%ADD23RoundRect,0.200000X0.053033X-0.335876X0.335876X-0.053033X-0.053033X0.335876X-0.335876X0.053033X0*%
%ADD24RoundRect,0.150000X-0.825000X-0.150000X0.825000X-0.150000X0.825000X0.150000X-0.825000X0.150000X0*%
%ADD25RoundRect,0.150000X0.150000X-0.512500X0.150000X0.512500X-0.150000X0.512500X-0.150000X-0.512500X0*%
G04 APERTURE END LIST*
D10*
%TO.C,C9*%
X111010000Y-106530000D03*
X109460000Y-106530000D03*
%TD*%
D11*
%TO.C,C21*%
X95873978Y-131007868D03*
X96552800Y-131686690D03*
%TD*%
D12*
%TO.C,C20*%
X95951760Y-124608551D03*
X95272938Y-123929729D03*
%TD*%
D13*
%TO.C,C30*%
X94403196Y-129126964D03*
X93724374Y-129805786D03*
%TD*%
D14*
%TO.C,C12*%
X90457540Y-119496170D03*
X89114038Y-120839672D03*
%TD*%
D15*
%TO.C,C8*%
X118825000Y-97300000D03*
X120375000Y-97300000D03*
%TD*%
D16*
%TO.C,U1*%
X79525000Y-87000000D03*
X80175000Y-87000000D03*
X80825000Y-87000000D03*
X81475000Y-87000000D03*
X81475000Y-82600000D03*
X80825000Y-82600000D03*
X80175000Y-82600000D03*
X79525000Y-82600000D03*
%TD*%
D11*
%TO.C,C29*%
X98476131Y-125591430D03*
X99154953Y-126270252D03*
%TD*%
D14*
%TO.C,C11*%
X100017623Y-129579512D03*
X98674121Y-130923014D03*
%TD*%
D17*
%TO.C,R1*%
X87800000Y-99187500D03*
X87800000Y-101012500D03*
%TD*%
D15*
%TO.C,C3*%
X91725000Y-95400000D03*
X93275000Y-95400000D03*
%TD*%
D18*
%TO.C,R5*%
X101117175Y-128388037D03*
X99950449Y-127221311D03*
%TD*%
D19*
%TO.C,C14*%
X91649015Y-120920989D03*
X90552999Y-122017005D03*
%TD*%
D20*
%TO.C,C22*%
X95265866Y-126482384D03*
X95944688Y-125803562D03*
%TD*%
D21*
%TO.C,U2*%
X94700000Y-97525000D03*
X94700000Y-98175000D03*
X94700000Y-98825000D03*
X94700000Y-99475000D03*
X90300000Y-99475000D03*
X90300000Y-98825000D03*
X90300000Y-98175000D03*
X90300000Y-97525000D03*
%TD*%
D22*
%TO.C,C2*%
X77500000Y-85575000D03*
X77500000Y-84025000D03*
%TD*%
D19*
%TO.C,C13*%
X98621088Y-128388037D03*
X97525072Y-129484053D03*
%TD*%
D23*
%TO.C,R6*%
X87916637Y-119383363D03*
X89083363Y-118216637D03*
%TD*%
D15*
%TO.C,C10*%
X116550000Y-105040000D03*
X118100000Y-105040000D03*
%TD*%
D24*
%TO.C,U5*%
X116925000Y-102895000D03*
X116925000Y-101625000D03*
X116925000Y-100355000D03*
X116925000Y-99085000D03*
X121875000Y-99085000D03*
X121875000Y-100355000D03*
X121875000Y-101625000D03*
X121875000Y-102895000D03*
%TD*%
D11*
%TO.C,C24*%
X93392034Y-125811466D03*
X94070856Y-126490288D03*
%TD*%
D13*
%TO.C,C26*%
X94063784Y-123922658D03*
X93384962Y-124601480D03*
%TD*%
D17*
%TO.C,R2*%
X92000000Y-101087500D03*
X92000000Y-102912500D03*
%TD*%
D12*
%TO.C,C28*%
X90804022Y-124891394D03*
X90125200Y-124212572D03*
%TD*%
D25*
%TO.C,D18*%
X89650000Y-90637500D03*
X88700000Y-90637500D03*
X87750000Y-90637500D03*
X87750000Y-88362500D03*
X88700000Y-88362500D03*
X89650000Y-88362500D03*
%TD*%
M02*
