%TF.GenerationSoftware,KiCad,Pcbnew,(6.0.8-1)-1*%
%TF.CreationDate,2022-10-19T15:00:50-05:00*%
%TF.ProjectId,NR1B-SQT56,4e523142-2d53-4515-9435-362e6b696361,rev?*%
%TF.SameCoordinates,Original*%
%TF.FileFunction,Copper,L1,Top*%
%TF.FilePolarity,Positive*%
%FSLAX46Y46*%
G04 Gerber Fmt 4.6, Leading zero omitted, Abs format (unit mm)*
G04 Created by KiCad (PCBNEW (6.0.8-1)-1) date 2022-10-19 15:00:50*
%MOMM*%
%LPD*%
G01*
G04 APERTURE LIST*
G04 Aperture macros list*
%AMRoundRect*
0 Rectangle with rounded corners*
0 $1 Rounding radius*
0 $2 $3 $4 $5 $6 $7 $8 $9 X,Y pos of 4 corners*
0 Add a 4 corners polygon primitive as box body*
4,1,4,$2,$3,$4,$5,$6,$7,$8,$9,$2,$3,0*
0 Add four circle primitives for the rounded corners*
1,1,$1+$1,$2,$3*
1,1,$1+$1,$4,$5*
1,1,$1+$1,$6,$7*
1,1,$1+$1,$8,$9*
0 Add four rect primitives between the rounded corners*
20,1,$1+$1,$2,$3,$4,$5,0*
20,1,$1+$1,$4,$5,$6,$7,0*
20,1,$1+$1,$6,$7,$8,$9,0*
20,1,$1+$1,$8,$9,$2,$3,0*%
G04 Aperture macros list end*
%TA.AperFunction,ComponentPad*%
%ADD10C,1.400000*%
%TD*%
%TA.AperFunction,SMDPad,CuDef*%
%ADD11R,0.250000X0.625000*%
%TD*%
%TA.AperFunction,SMDPad,CuDef*%
%ADD12R,0.450000X0.700000*%
%TD*%
%TA.AperFunction,SMDPad,CuDef*%
%ADD13R,0.450000X0.575000*%
%TD*%
%TA.AperFunction,SMDPad,CuDef*%
%ADD14R,0.625000X0.250000*%
%TD*%
%TA.AperFunction,SMDPad,CuDef*%
%ADD15R,0.700000X0.450000*%
%TD*%
%TA.AperFunction,SMDPad,CuDef*%
%ADD16R,0.575000X0.450000*%
%TD*%
%TA.AperFunction,ComponentPad*%
%ADD17R,1.700000X1.700000*%
%TD*%
%TA.AperFunction,ComponentPad*%
%ADD18O,1.700000X1.700000*%
%TD*%
%TA.AperFunction,SMDPad,CuDef*%
%ADD19RoundRect,0.225000X-0.250000X0.225000X-0.250000X-0.225000X0.250000X-0.225000X0.250000X0.225000X0*%
%TD*%
%TA.AperFunction,SMDPad,CuDef*%
%ADD20RoundRect,0.225000X-0.225000X-0.250000X0.225000X-0.250000X0.225000X0.250000X-0.225000X0.250000X0*%
%TD*%
%TA.AperFunction,SMDPad,CuDef*%
%ADD21C,0.500000*%
%TD*%
%TA.AperFunction,SMDPad,CuDef*%
%ADD22RoundRect,0.140000X-0.219203X-0.021213X-0.021213X-0.219203X0.219203X0.021213X0.021213X0.219203X0*%
%TD*%
%TA.AperFunction,SMDPad,CuDef*%
%ADD23RoundRect,0.200000X-0.053033X0.335876X-0.335876X0.053033X0.053033X-0.335876X0.335876X-0.053033X0*%
%TD*%
%TA.AperFunction,SMDPad,CuDef*%
%ADD24RoundRect,0.200000X-0.200000X-0.275000X0.200000X-0.275000X0.200000X0.275000X-0.200000X0.275000X0*%
%TD*%
%TA.AperFunction,SMDPad,CuDef*%
%ADD25RoundRect,0.243750X0.456250X-0.243750X0.456250X0.243750X-0.456250X0.243750X-0.456250X-0.243750X0*%
%TD*%
%TA.AperFunction,SMDPad,CuDef*%
%ADD26RoundRect,0.250000X0.262500X0.450000X-0.262500X0.450000X-0.262500X-0.450000X0.262500X-0.450000X0*%
%TD*%
%TA.AperFunction,SMDPad,CuDef*%
%ADD27RoundRect,0.150000X-0.256326X-0.468458X0.468458X0.256326X0.256326X0.468458X-0.468458X-0.256326X0*%
%TD*%
%TA.AperFunction,SMDPad,CuDef*%
%ADD28RoundRect,0.225000X-0.017678X0.335876X-0.335876X0.017678X0.017678X-0.335876X0.335876X-0.017678X0*%
%TD*%
%TA.AperFunction,ComponentPad*%
%ADD29R,1.200000X1.200000*%
%TD*%
%TA.AperFunction,ComponentPad*%
%ADD30C,1.200000*%
%TD*%
%TA.AperFunction,SMDPad,CuDef*%
%ADD31RoundRect,0.225000X0.250000X-0.225000X0.250000X0.225000X-0.250000X0.225000X-0.250000X-0.225000X0*%
%TD*%
%TA.AperFunction,SMDPad,CuDef*%
%ADD32RoundRect,0.225000X0.225000X0.250000X-0.225000X0.250000X-0.225000X-0.250000X0.225000X-0.250000X0*%
%TD*%
%TA.AperFunction,SMDPad,CuDef*%
%ADD33RoundRect,0.200000X0.275000X-0.200000X0.275000X0.200000X-0.275000X0.200000X-0.275000X-0.200000X0*%
%TD*%
%TA.AperFunction,SMDPad,CuDef*%
%ADD34R,2.500000X1.800000*%
%TD*%
%TA.AperFunction,SMDPad,CuDef*%
%ADD35RoundRect,0.200000X0.053033X-0.335876X0.335876X-0.053033X-0.053033X0.335876X-0.335876X0.053033X0*%
%TD*%
%TA.AperFunction,SMDPad,CuDef*%
%ADD36RoundRect,0.140000X0.021213X-0.219203X0.219203X-0.021213X-0.021213X0.219203X-0.219203X0.021213X0*%
%TD*%
%TA.AperFunction,SMDPad,CuDef*%
%ADD37R,1.100000X4.600000*%
%TD*%
%TA.AperFunction,SMDPad,CuDef*%
%ADD38R,10.800000X9.400000*%
%TD*%
%TA.AperFunction,SMDPad,CuDef*%
%ADD39R,0.600000X0.450000*%
%TD*%
%TA.AperFunction,ComponentPad*%
%ADD40C,1.500000*%
%TD*%
%TA.AperFunction,ComponentPad*%
%ADD41C,1.700000*%
%TD*%
%TA.AperFunction,SMDPad,CuDef*%
%ADD42R,1.397000X1.600200*%
%TD*%
%TA.AperFunction,SMDPad,CuDef*%
%ADD43RoundRect,0.250000X0.550000X-1.250000X0.550000X1.250000X-0.550000X1.250000X-0.550000X-1.250000X0*%
%TD*%
%TA.AperFunction,SMDPad,CuDef*%
%ADD44RoundRect,0.150000X0.150000X-0.650000X0.150000X0.650000X-0.150000X0.650000X-0.150000X-0.650000X0*%
%TD*%
%TA.AperFunction,BGAPad,CuDef*%
%ADD45C,0.277500*%
%TD*%
%TA.AperFunction,SMDPad,CuDef*%
%ADD46R,0.450000X0.600000*%
%TD*%
%TA.AperFunction,SMDPad,CuDef*%
%ADD47RoundRect,0.250000X-0.250000X-0.475000X0.250000X-0.475000X0.250000X0.475000X-0.250000X0.475000X0*%
%TD*%
%TA.AperFunction,SMDPad,CuDef*%
%ADD48RoundRect,0.150000X-0.512500X-0.150000X0.512500X-0.150000X0.512500X0.150000X-0.512500X0.150000X0*%
%TD*%
%TA.AperFunction,ViaPad*%
%ADD49C,0.800000*%
%TD*%
%TA.AperFunction,ViaPad*%
%ADD50C,0.228600*%
%TD*%
%TA.AperFunction,ViaPad*%
%ADD51C,0.457200*%
%TD*%
%TA.AperFunction,Conductor*%
%ADD52C,0.400000*%
%TD*%
%TA.AperFunction,Conductor*%
%ADD53C,1.000000*%
%TD*%
%TA.AperFunction,Conductor*%
%ADD54C,0.076200*%
%TD*%
%TA.AperFunction,Conductor*%
%ADD55C,0.100000*%
%TD*%
%TA.AperFunction,Conductor*%
%ADD56C,0.254000*%
%TD*%
%TA.AperFunction,Conductor*%
%ADD57C,0.220000*%
%TD*%
%TA.AperFunction,Conductor*%
%ADD58C,0.300000*%
%TD*%
%TA.AperFunction,Conductor*%
%ADD59C,0.250000*%
%TD*%
G04 APERTURE END LIST*
D10*
%TO.P,TP5,1,1*%
%TO.N,+3.3V*%
X97140000Y-144460000D03*
%TO.P,TP5,2,2*%
%TO.N,GND*%
X97140000Y-147000000D03*
%TD*%
D11*
%TO.P,D14,1,1*%
%TO.N,/FPGA/DQ10*%
X107600000Y-112112500D03*
%TO.P,D14,2,2*%
%TO.N,/FPGA/DQ5*%
X107100000Y-112112500D03*
D12*
%TO.P,D14,3,C*%
%TO.N,GND*%
X106600000Y-112150000D03*
D11*
%TO.P,D14,4,4*%
%TO.N,/FPGA/DQ14*%
X106100000Y-112112500D03*
%TO.P,D14,5,5*%
%TO.N,/FPGA/A25*%
X105600000Y-112112500D03*
%TO.P,D14,6,6*%
X105600000Y-112887500D03*
%TO.P,D14,7,7*%
%TO.N,/FPGA/DQ14*%
X106100000Y-112887500D03*
D13*
%TO.P,D14,8,C*%
%TO.N,GND*%
X106600000Y-112912500D03*
D11*
%TO.P,D14,9,9*%
%TO.N,/FPGA/DQ5*%
X107100000Y-112887500D03*
%TO.P,D14,10,10*%
%TO.N,/FPGA/DQ10*%
X107600000Y-112887500D03*
%TD*%
D10*
%TO.P,TP6,1,1*%
%TO.N,/ANA_CE*%
X108420000Y-70610000D03*
%TO.P,TP6,2,2*%
%TO.N,GND*%
X110960000Y-70610000D03*
%TD*%
D11*
%TO.P,D9,1,1*%
%TO.N,/RY{slash}~{BY}*%
X84000000Y-112012500D03*
%TO.P,D9,2,2*%
%TO.N,/FPGA/A7*%
X83500000Y-112012500D03*
D12*
%TO.P,D9,3,C*%
%TO.N,GND*%
X83000000Y-112050000D03*
D11*
%TO.P,D9,4,4*%
%TO.N,/FPGA/A4*%
X82500000Y-112012500D03*
%TO.P,D9,5,5*%
%TO.N,/FPGA/A1*%
X82000000Y-112012500D03*
%TO.P,D9,6,6*%
X82000000Y-112787500D03*
%TO.P,D9,7,7*%
%TO.N,/FPGA/A4*%
X82500000Y-112787500D03*
D13*
%TO.P,D9,8,C*%
%TO.N,GND*%
X83000000Y-112812500D03*
D11*
%TO.P,D9,9,9*%
%TO.N,/FPGA/A7*%
X83500000Y-112787500D03*
%TO.P,D9,10,10*%
%TO.N,/RY{slash}~{BY}*%
X84000000Y-112787500D03*
%TD*%
D14*
%TO.P,D23,1,1*%
%TO.N,/FPGA/IOL_12+*%
X84612500Y-152500000D03*
%TO.P,D23,2,2*%
%TO.N,/FPGA/IOL_12-*%
X84612500Y-153000000D03*
D15*
%TO.P,D23,3,C*%
%TO.N,GND*%
X84650000Y-153500000D03*
D14*
%TO.P,D23,4,4*%
%TO.N,/FPGA/IOL_18+*%
X84612500Y-154000000D03*
%TO.P,D23,5,5*%
%TO.N,/FPGA/IOL_18-*%
X84612500Y-154500000D03*
%TO.P,D23,6,6*%
X85387500Y-154500000D03*
%TO.P,D23,7,7*%
%TO.N,/FPGA/IOL_18+*%
X85387500Y-154000000D03*
D16*
%TO.P,D23,8,C*%
%TO.N,GND*%
X85412500Y-153500000D03*
D14*
%TO.P,D23,9,9*%
%TO.N,/FPGA/IOL_12-*%
X85387500Y-153000000D03*
%TO.P,D23,10,10*%
%TO.N,/FPGA/IOL_12+*%
X85387500Y-152500000D03*
%TD*%
D17*
%TO.P,J1,1,Pin_1*%
%TO.N,/ANA_WP_SENSE*%
X125000000Y-57510000D03*
D18*
%TO.P,J1,2,Pin_2*%
%TO.N,unconnected-(J1-Pad2)*%
X127540000Y-57510000D03*
%TO.P,J1,3,Pin_3*%
%TO.N,/ANA_WP*%
X125000000Y-60050000D03*
%TO.P,J1,4,Pin_4*%
%TO.N,unconnected-(J1-Pad4)*%
X127540000Y-60050000D03*
%TO.P,J1,5,Pin_5*%
%TO.N,/ANA_VWL_SENSE*%
X125000000Y-62590000D03*
%TO.P,J1,6,Pin_6*%
%TO.N,unconnected-(J1-Pad6)*%
X127540000Y-62590000D03*
%TO.P,J1,7,Pin_7*%
%TO.N,/ANA_VWL*%
X125000000Y-65130000D03*
%TO.P,J1,8,Pin_8*%
%TO.N,unconnected-(J1-Pad8)*%
X127540000Y-65130000D03*
%TD*%
D19*
%TO.P,C7,1*%
%TO.N,+1V2*%
X84360000Y-127885000D03*
%TO.P,C7,2*%
%TO.N,GND*%
X84360000Y-129435000D03*
%TD*%
D20*
%TO.P,C6,1*%
%TO.N,+3.3V*%
X79785000Y-131460000D03*
%TO.P,C6,2*%
%TO.N,GND*%
X81335000Y-131460000D03*
%TD*%
D21*
%TO.P,FID1,*%
%TO.N,*%
X62300000Y-45300000D03*
%TD*%
D11*
%TO.P,D7,1,1*%
%TO.N,/FPGA/A3*%
X77600000Y-112012500D03*
%TO.P,D7,2,2*%
%TO.N,/FPGA/A6*%
X77100000Y-112012500D03*
D12*
%TO.P,D7,3,C*%
%TO.N,GND*%
X76600000Y-112050000D03*
D11*
%TO.P,D7,4,4*%
%TO.N,/FPGA/A18*%
X76100000Y-112012500D03*
%TO.P,D7,5,5*%
%TO.N,/FPGA/A21*%
X75600000Y-112012500D03*
%TO.P,D7,6,6*%
X75600000Y-112787500D03*
%TO.P,D7,7,7*%
%TO.N,/FPGA/A18*%
X76100000Y-112787500D03*
D13*
%TO.P,D7,8,C*%
%TO.N,GND*%
X76600000Y-112812500D03*
D11*
%TO.P,D7,9,9*%
%TO.N,/FPGA/A6*%
X77100000Y-112787500D03*
%TO.P,D7,10,10*%
%TO.N,/FPGA/A3*%
X77600000Y-112787500D03*
%TD*%
%TO.P,D13,1,1*%
%TO.N,GND*%
X104400000Y-112112500D03*
%TO.P,D13,2,2*%
%TO.N,/FPGA/DQ8*%
X103900000Y-112112500D03*
D12*
%TO.P,D13,3,C*%
%TO.N,GND*%
X103400000Y-112150000D03*
D11*
%TO.P,D13,4,4*%
%TO.N,/FPGA/DQ2*%
X102900000Y-112112500D03*
%TO.P,D13,5,5*%
%TO.N,/FPGA/DQ11*%
X102400000Y-112112500D03*
%TO.P,D13,6,6*%
X102400000Y-112887500D03*
%TO.P,D13,7,7*%
%TO.N,/FPGA/DQ2*%
X102900000Y-112887500D03*
D13*
%TO.P,D13,8,C*%
%TO.N,GND*%
X103400000Y-112912500D03*
D11*
%TO.P,D13,9,9*%
%TO.N,/FPGA/DQ8*%
X103900000Y-112887500D03*
%TO.P,D13,10,10*%
%TO.N,GND*%
X104400000Y-112887500D03*
%TD*%
D22*
%TO.P,C18,1*%
%TO.N,+3.3V*%
X90054490Y-127705679D03*
%TO.P,C18,2*%
%TO.N,GND*%
X90733312Y-128384501D03*
%TD*%
D14*
%TO.P,D21,1,1*%
%TO.N,/FPGA/IOL_5+*%
X84612500Y-137200000D03*
%TO.P,D21,2,2*%
%TO.N,/FPGA/IOL_5-*%
X84612500Y-137700000D03*
D15*
%TO.P,D21,3,C*%
%TO.N,GND*%
X84650000Y-138200000D03*
D14*
%TO.P,D21,4,4*%
%TO.N,/FPGA/IOL_9+*%
X84612500Y-138700000D03*
%TO.P,D21,5,5*%
%TO.N,/FPGA/IOL_9-*%
X84612500Y-139200000D03*
%TO.P,D21,6,6*%
X85387500Y-139200000D03*
%TO.P,D21,7,7*%
%TO.N,/FPGA/IOL_9+*%
X85387500Y-138700000D03*
D16*
%TO.P,D21,8,C*%
%TO.N,GND*%
X85412500Y-138200000D03*
D14*
%TO.P,D21,9,9*%
%TO.N,/FPGA/IOL_5-*%
X85387500Y-137700000D03*
%TO.P,D21,10,10*%
%TO.N,/FPGA/IOL_5+*%
X85387500Y-137200000D03*
%TD*%
D23*
%TO.P,R10,1*%
%TO.N,Net-(R10-Pad1)*%
X99476687Y-132793312D03*
%TO.P,R10,2*%
%TO.N,+3.3V*%
X98309961Y-133960038D03*
%TD*%
D22*
%TO.P,C23,1*%
%TO.N,+3.3V*%
X91984891Y-129636081D03*
%TO.P,C23,2*%
%TO.N,GND*%
X92663713Y-130314903D03*
%TD*%
D11*
%TO.P,D10,1,1*%
%TO.N,/FC.~{WE}*%
X87200000Y-112012500D03*
%TO.P,D10,2,2*%
%TO.N,/FPGA/A17*%
X86700000Y-112012500D03*
D12*
%TO.P,D10,3,C*%
%TO.N,GND*%
X86200000Y-112050000D03*
D11*
%TO.P,D10,4,4*%
%TO.N,/FPGA/A5*%
X85700000Y-112012500D03*
%TO.P,D10,5,5*%
%TO.N,/FPGA/A2*%
X85200000Y-112012500D03*
%TO.P,D10,6,6*%
X85200000Y-112787500D03*
%TO.P,D10,7,7*%
%TO.N,/FPGA/A5*%
X85700000Y-112787500D03*
D13*
%TO.P,D10,8,C*%
%TO.N,GND*%
X86200000Y-112812500D03*
D11*
%TO.P,D10,9,9*%
%TO.N,/FPGA/A17*%
X86700000Y-112787500D03*
%TO.P,D10,10,10*%
%TO.N,/FC.~{WE}*%
X87200000Y-112787500D03*
%TD*%
D17*
%TO.P,J2,1,Pin_1*%
%TO.N,/-15V_IN*%
X63960000Y-57510000D03*
D18*
%TO.P,J2,2,Pin_2*%
%TO.N,/+15V_IN*%
X66500000Y-57510000D03*
%TO.P,J2,3,Pin_3*%
%TO.N,GND*%
X63960000Y-60050000D03*
%TO.P,J2,4,Pin_4*%
X66500000Y-60050000D03*
%TO.P,J2,5,Pin_5*%
%TO.N,unconnected-(J2-Pad5)*%
X63960000Y-62590000D03*
%TO.P,J2,6,Pin_6*%
%TO.N,unconnected-(J2-Pad6)*%
X66500000Y-62590000D03*
%TO.P,J2,7,Pin_7*%
%TO.N,GND*%
X63960000Y-65130000D03*
%TO.P,J2,8,Pin_8*%
%TO.N,unconnected-(J2-Pad8)*%
X66500000Y-65130000D03*
%TD*%
D14*
%TO.P,D27,1,1*%
%TO.N,/FPGA/IOB_104_CBSEL1*%
X106112500Y-143600000D03*
%TO.P,D27,2,2*%
%TO.N,/FPGA/IOB_103_CBSEL0*%
X106112500Y-144100000D03*
D15*
%TO.P,D27,3,C*%
%TO.N,GND*%
X106150000Y-144600000D03*
D14*
%TO.P,D27,4,4*%
%TO.N,/FPGA/IOB_89*%
X106112500Y-145100000D03*
%TO.P,D27,5,5*%
%TO.N,/FPGA/IOB_82_GBIN4*%
X106112500Y-145600000D03*
%TO.P,D27,6,6*%
X106887500Y-145600000D03*
%TO.P,D27,7,7*%
%TO.N,/FPGA/IOB_89*%
X106887500Y-145100000D03*
D16*
%TO.P,D27,8,C*%
%TO.N,GND*%
X106912500Y-144600000D03*
D14*
%TO.P,D27,9,9*%
%TO.N,/FPGA/IOB_103_CBSEL0*%
X106887500Y-144100000D03*
%TO.P,D27,10,10*%
%TO.N,/FPGA/IOB_104_CBSEL1*%
X106887500Y-143600000D03*
%TD*%
D11*
%TO.P,D6,1,1*%
%TO.N,/FPGA/A20*%
X74400000Y-112012500D03*
%TO.P,D6,2,2*%
%TO.N,/FPGA/A9*%
X73900000Y-112012500D03*
D12*
%TO.P,D6,3,C*%
%TO.N,GND*%
X73400000Y-112050000D03*
D11*
%TO.P,D6,4,4*%
%TO.N,/FPGA/A12*%
X72900000Y-112012500D03*
%TO.P,D6,5,5*%
%TO.N,/FPGA/A15*%
X72400000Y-112012500D03*
%TO.P,D6,6,6*%
X72400000Y-112787500D03*
%TO.P,D6,7,7*%
%TO.N,/FPGA/A12*%
X72900000Y-112787500D03*
D13*
%TO.P,D6,8,C*%
%TO.N,GND*%
X73400000Y-112812500D03*
D11*
%TO.P,D6,9,9*%
%TO.N,/FPGA/A9*%
X73900000Y-112787500D03*
%TO.P,D6,10,10*%
%TO.N,/FPGA/A20*%
X74400000Y-112787500D03*
%TD*%
D10*
%TO.P,TP9,1,1*%
%TO.N,GND*%
X117850000Y-163550000D03*
%TO.P,TP9,2,2*%
%TO.N,/FPGA/CDONE*%
X115310000Y-163550000D03*
%TD*%
D24*
%TO.P,R11,1*%
%TO.N,/FPGA/~{CRESET}*%
X78675000Y-163750000D03*
%TO.P,R11,2*%
%TO.N,+3.3V*%
X80325000Y-163750000D03*
%TD*%
D25*
%TO.P,D19,1,K*%
%TO.N,GND*%
X116600000Y-172987500D03*
%TO.P,D19,2,A*%
%TO.N,Net-(D19-Pad2)*%
X116600000Y-171112500D03*
%TD*%
D17*
%TO.P,JP1,1,A*%
%TO.N,GND*%
X83250000Y-169975000D03*
D18*
%TO.P,JP1,2,B*%
%TO.N,/FPGA/~{CRESET}*%
X83250000Y-172515000D03*
%TD*%
D26*
%TO.P,R4,1*%
%TO.N,/ANA_WP*%
X120912500Y-60000000D03*
%TO.P,R4,2*%
%TO.N,GND*%
X119087500Y-60000000D03*
%TD*%
D27*
%TO.P,Y1,1,GND*%
%TO.N,GND*%
X96506485Y-130856194D03*
%TO.P,Y1,2,NC*%
%TO.N,unconnected-(Y1-Pad2)*%
X97178236Y-131527945D03*
%TO.P,Y1,3,OE/~{ST}/NC*%
%TO.N,Net-(R10-Pad1)*%
X97849987Y-132199696D03*
%TO.P,Y1,4,VDD*%
%TO.N,/FPGA/CLK_VDD*%
X99458655Y-130591028D03*
%TO.P,Y1,5,OUT*%
%TO.N,/FPGA/FPGA_CLK*%
X98115153Y-129247526D03*
%TD*%
D28*
%TO.P,C15,1*%
%TO.N,GND*%
X101598008Y-130671992D03*
%TO.P,C15,2*%
%TO.N,/FPGA/CLK_VDD*%
X100501992Y-131768008D03*
%TD*%
D29*
%TO.P,U6,1,A23*%
%TO.N,/FPGA/A23*%
X83694258Y-91549258D03*
D30*
%TO.P,U6,2,A22*%
%TO.N,/FPGA/A22*%
X80394258Y-92049258D03*
%TO.P,U6,3,A15*%
%TO.N,/FPGA/A15*%
X77094258Y-92549258D03*
%TO.P,U6,4,A14*%
%TO.N,/FPGA/A14*%
X83694258Y-93049258D03*
%TO.P,U6,5,A13*%
%TO.N,/FPGA/A13*%
X80394258Y-93549258D03*
%TO.P,U6,6,A12*%
%TO.N,/FPGA/A12*%
X77094258Y-94049258D03*
%TO.P,U6,7,A11*%
%TO.N,/FPGA/A11*%
X83694258Y-94549258D03*
%TO.P,U6,8,A10*%
%TO.N,/FPGA/A10*%
X80394258Y-95049258D03*
%TO.P,U6,9,A9*%
%TO.N,/FPGA/A9*%
X77094258Y-95549258D03*
%TO.P,U6,10,A8*%
%TO.N,/FPGA/A8*%
X83694258Y-96049258D03*
%TO.P,U6,11,A19*%
%TO.N,/FPGA/A19*%
X80394258Y-96549258D03*
%TO.P,U6,12,A20*%
%TO.N,/FPGA/A20*%
X77094258Y-97049258D03*
%TO.P,U6,13,~{WE}*%
%TO.N,/FC.~{WE}*%
X83694258Y-97549258D03*
%TO.P,U6,14,~{RESET}*%
%TO.N,/VWL_BUF*%
X80394258Y-98049258D03*
%TO.P,U6,15,A21*%
%TO.N,/FPGA/A21*%
X77094258Y-98549258D03*
%TO.P,U6,16,~{WP}/ACC*%
%TO.N,/WP_BUF*%
X83694258Y-99049258D03*
%TO.P,U6,17,RY/~{BY}*%
%TO.N,/RY{slash}~{BY}*%
X80394258Y-99549258D03*
%TO.P,U6,18,A18*%
%TO.N,/FPGA/A18*%
X77094258Y-100049258D03*
%TO.P,U6,19,A17*%
%TO.N,/FPGA/A17*%
X83694258Y-100549258D03*
%TO.P,U6,20,A7*%
%TO.N,/FPGA/A7*%
X80394258Y-101049258D03*
%TO.P,U6,21,A6*%
%TO.N,/FPGA/A6*%
X77094258Y-101549258D03*
%TO.P,U6,22,A5*%
%TO.N,/FPGA/A5*%
X83694258Y-102049258D03*
%TO.P,U6,23,A4*%
%TO.N,/FPGA/A4*%
X80394258Y-102549258D03*
%TO.P,U6,24,A3*%
%TO.N,/FPGA/A3*%
X77094258Y-103049258D03*
%TO.P,U6,25,A2*%
%TO.N,/FPGA/A2*%
X83694258Y-103549258D03*
%TO.P,U6,26,A1*%
%TO.N,/FPGA/A1*%
X80394258Y-104049258D03*
%TO.P,U6,27,NC*%
%TO.N,unconnected-(U6-Pad27)*%
X77094258Y-104549258D03*
%TO.P,U6,28,NC*%
%TO.N,unconnected-(U6-Pad28)*%
X83694258Y-105049258D03*
%TO.P,U6,29,VIO*%
%TO.N,+3.3V*%
X114274258Y-105049258D03*
%TO.P,U6,30,NC*%
%TO.N,unconnected-(U6-Pad30)*%
X107674258Y-104549258D03*
%TO.P,U6,31,A0*%
%TO.N,/FPGA/A0*%
X110974258Y-104049258D03*
%TO.P,U6,32,~{CE}*%
%TO.N,/~{CE}*%
X114274258Y-103549258D03*
%TO.P,U6,33,VSS*%
%TO.N,GND*%
X107674258Y-103049258D03*
%TO.P,U6,34,~{OE}*%
%TO.N,/FC.~{OE}*%
X110974258Y-102549258D03*
%TO.P,U6,35,DQ0*%
%TO.N,/FPGA/DQ0*%
X114274258Y-102049258D03*
%TO.P,U6,36,DQ8*%
%TO.N,/FPGA/DQ8*%
X107674258Y-101549258D03*
%TO.P,U6,37,DQ1*%
%TO.N,/FPGA/DQ1*%
X110974258Y-101049258D03*
%TO.P,U6,38,DQ9*%
%TO.N,/FPGA/DQ9*%
X114274258Y-100549258D03*
%TO.P,U6,39,DQ2*%
%TO.N,/FPGA/DQ2*%
X107674258Y-100049258D03*
%TO.P,U6,40,DQ10*%
%TO.N,/FPGA/DQ10*%
X110974258Y-99549258D03*
%TO.P,U6,41,DQ3*%
%TO.N,/FPGA/DQ3*%
X114274258Y-99049258D03*
%TO.P,U6,42,DQ11*%
%TO.N,/FPGA/DQ11*%
X107674258Y-98549258D03*
%TO.P,U6,43,VCC*%
%TO.N,+3.3V*%
X110974258Y-98049258D03*
%TO.P,U6,44,DQ4*%
%TO.N,/FPGA/DQ4*%
X114274258Y-97549258D03*
%TO.P,U6,45,DQ12*%
%TO.N,/FPGA/DQ12*%
X107674258Y-97049258D03*
%TO.P,U6,46,DQ5*%
%TO.N,/FPGA/DQ5*%
X110974258Y-96549258D03*
%TO.P,U6,47,DQ13*%
%TO.N,/FPGA/DQ13*%
X114274258Y-96049258D03*
%TO.P,U6,48,DQ6*%
%TO.N,/FPGA/DQ6*%
X107674258Y-95549258D03*
%TO.P,U6,49,DQ14*%
%TO.N,/FPGA/DQ14*%
X110974258Y-95049258D03*
%TO.P,U6,50,DQ7*%
%TO.N,/FPGA/DQ7*%
X114274258Y-94549258D03*
%TO.P,U6,51,DQ15/A-1*%
%TO.N,/FPGA/DQ15*%
X107674258Y-94049258D03*
%TO.P,U6,52,VSS*%
%TO.N,GND*%
X110974258Y-93549258D03*
%TO.P,U6,53,~{BYTE}*%
%TO.N,/FC.~{BYTE}*%
X114274258Y-93049258D03*
%TO.P,U6,54,A16*%
%TO.N,/FPGA/A16*%
X107674258Y-92549258D03*
%TO.P,U6,55,A25*%
%TO.N,/FPGA/A25*%
X110974258Y-92049258D03*
%TO.P,U6,56,A24*%
%TO.N,/FPGA/A24*%
X114274258Y-91549258D03*
%TD*%
D21*
%TO.P,FID3,*%
%TO.N,*%
X129200000Y-175500000D03*
%TD*%
D31*
%TO.P,C16,1*%
%TO.N,GND*%
X103790000Y-123215000D03*
%TO.P,C16,2*%
%TO.N,+3.3V*%
X103790000Y-121665000D03*
%TD*%
D32*
%TO.P,C5,1*%
%TO.N,/ANA_CE*%
X108425000Y-62800000D03*
%TO.P,C5,2*%
%TO.N,GND*%
X106875000Y-62800000D03*
%TD*%
D14*
%TO.P,D24,1,1*%
%TO.N,/FPGA/IOL_23+*%
X84612500Y-157700000D03*
%TO.P,D24,2,2*%
%TO.N,/FPGA/IOL_23-*%
X84612500Y-158200000D03*
D15*
%TO.P,D24,3,C*%
%TO.N,GND*%
X84650000Y-158700000D03*
D14*
%TO.P,D24,4,4*%
%TO.N,/FPGA/IOL_25+*%
X84612500Y-159200000D03*
%TO.P,D24,5,5*%
%TO.N,/FPGA/IOL_25-*%
X84612500Y-159700000D03*
%TO.P,D24,6,6*%
X85387500Y-159700000D03*
%TO.P,D24,7,7*%
%TO.N,/FPGA/IOL_25+*%
X85387500Y-159200000D03*
D16*
%TO.P,D24,8,C*%
%TO.N,GND*%
X85412500Y-158700000D03*
D14*
%TO.P,D24,9,9*%
%TO.N,/FPGA/IOL_23-*%
X85387500Y-158200000D03*
%TO.P,D24,10,10*%
%TO.N,/FPGA/IOL_23+*%
X85387500Y-157700000D03*
%TD*%
D32*
%TO.P,C17,1*%
%TO.N,/FPGA/~{CRESET}*%
X77025000Y-166250000D03*
%TO.P,C17,2*%
%TO.N,GND*%
X75475000Y-166250000D03*
%TD*%
D33*
%TO.P,R9,1*%
%TO.N,Net-(D19-Pad2)*%
X118600000Y-169125000D03*
%TO.P,R9,2*%
%TO.N,/FPGA/CDONE*%
X118600000Y-167475000D03*
%TD*%
D34*
%TO.P,D2,1,K*%
%TO.N,+15V*%
X75600000Y-57000000D03*
%TO.P,D2,2,A*%
%TO.N,/+15V_IN*%
X71600000Y-57000000D03*
%TD*%
D35*
%TO.P,R8,1*%
%TO.N,+3.3V*%
X99405977Y-135056054D03*
%TO.P,R8,2*%
%TO.N,/FPGA/CLK_VDD*%
X100572703Y-133889328D03*
%TD*%
D36*
%TO.P,C19,1*%
%TO.N,+3.3V*%
X91150505Y-121645774D03*
%TO.P,C19,2*%
%TO.N,GND*%
X91829327Y-120966952D03*
%TD*%
D37*
%TO.P,U3,1,IN*%
%TO.N,+15V*%
X103210000Y-59025000D03*
%TO.P,U3,2,GND*%
%TO.N,GND*%
X105750000Y-59025000D03*
D38*
X105750000Y-49875000D03*
D37*
%TO.P,U3,3,OUT*%
%TO.N,/ANA_CE*%
X108290000Y-59025000D03*
%TD*%
D14*
%TO.P,D22,1,1*%
%TO.N,/FPGA/IOL_13+*%
X84612500Y-142350000D03*
%TO.P,D22,2,2*%
%TO.N,/FPGA/IOL_13-*%
X84612500Y-142850000D03*
D15*
%TO.P,D22,3,C*%
%TO.N,GND*%
X84650000Y-143350000D03*
D14*
%TO.P,D22,4,4*%
%TO.N,/FPGA/IOL_14+*%
X84612500Y-143850000D03*
%TO.P,D22,5,5*%
%TO.N,/FPGA/IOL_14-*%
X84612500Y-144350000D03*
%TO.P,D22,6,6*%
X85387500Y-144350000D03*
%TO.P,D22,7,7*%
%TO.N,/FPGA/IOL_14+*%
X85387500Y-143850000D03*
D16*
%TO.P,D22,8,C*%
%TO.N,GND*%
X85412500Y-143350000D03*
D14*
%TO.P,D22,9,9*%
%TO.N,/FPGA/IOL_13-*%
X85387500Y-142850000D03*
%TO.P,D22,10,10*%
%TO.N,/FPGA/IOL_13+*%
X85387500Y-142350000D03*
%TD*%
D33*
%TO.P,R7,1*%
%TO.N,Net-(D19-Pad2)*%
X116600000Y-169125000D03*
%TO.P,R7,2*%
%TO.N,/FPGA/CDONE*%
X116600000Y-167475000D03*
%TD*%
D11*
%TO.P,D11,1,1*%
%TO.N,/FPGA/A23*%
X90400000Y-112000000D03*
%TO.P,D11,2,2*%
%TO.N,/FPGA/A14*%
X89900000Y-112000000D03*
D12*
%TO.P,D11,3,C*%
%TO.N,GND*%
X89400000Y-112037500D03*
D11*
%TO.P,D11,4,4*%
%TO.N,/FPGA/A11*%
X88900000Y-112000000D03*
%TO.P,D11,5,5*%
%TO.N,/FPGA/A8*%
X88400000Y-112000000D03*
%TO.P,D11,6,6*%
X88400000Y-112775000D03*
%TO.P,D11,7,7*%
%TO.N,/FPGA/A11*%
X88900000Y-112775000D03*
D13*
%TO.P,D11,8,C*%
%TO.N,GND*%
X89400000Y-112800000D03*
D11*
%TO.P,D11,9,9*%
%TO.N,/FPGA/A14*%
X89900000Y-112775000D03*
%TO.P,D11,10,10*%
%TO.N,/FPGA/A23*%
X90400000Y-112775000D03*
%TD*%
D10*
%TO.P,TP8,1,1*%
%TO.N,GND*%
X119900000Y-109580000D03*
%TO.P,TP8,2,2*%
%TO.N,/~{CE}*%
X119900000Y-107040000D03*
%TD*%
D14*
%TO.P,D28,1,1*%
%TO.N,/FPGA/IOB_91*%
X106112500Y-153775000D03*
%TO.P,D28,2,2*%
%TO.N,/FPGA/IOB_87*%
X106112500Y-154275000D03*
D15*
%TO.P,D28,3,C*%
%TO.N,GND*%
X106150000Y-154775000D03*
D14*
%TO.P,D28,4,4*%
%TO.N,/FPGA/IOB_74*%
X106112500Y-155275000D03*
%TO.P,D28,5,5*%
%TO.N,/FPGA/IOB_73*%
X106112500Y-155775000D03*
%TO.P,D28,6,6*%
X106887500Y-155775000D03*
%TO.P,D28,7,7*%
%TO.N,/FPGA/IOB_74*%
X106887500Y-155275000D03*
D16*
%TO.P,D28,8,C*%
%TO.N,GND*%
X106912500Y-154775000D03*
D14*
%TO.P,D28,9,9*%
%TO.N,/FPGA/IOB_87*%
X106887500Y-154275000D03*
%TO.P,D28,10,10*%
%TO.N,/FPGA/IOB_91*%
X106887500Y-153775000D03*
%TD*%
D17*
%TO.P,J4,1,Pin_1*%
%TO.N,/FPGA/IOL_5-*%
X79000000Y-137000000D03*
D18*
%TO.P,J4,2,Pin_2*%
%TO.N,/FPGA/IOL_5+*%
X81540000Y-137000000D03*
%TO.P,J4,3,Pin_3*%
%TO.N,/FPGA/IOL_9-*%
X79000000Y-139540000D03*
%TO.P,J4,4,Pin_4*%
%TO.N,/FPGA/IOL_9+*%
X81540000Y-139540000D03*
%TO.P,J4,5,Pin_5*%
%TO.N,/FPGA/IOL_13-*%
X79000000Y-142080000D03*
%TO.P,J4,6,Pin_6*%
%TO.N,/FPGA/IOL_13+*%
X81540000Y-142080000D03*
%TO.P,J4,7,Pin_7*%
%TO.N,/FPGA/IOL_14-*%
X79000000Y-144620000D03*
%TO.P,J4,8,Pin_8*%
%TO.N,/FPGA/IOL_14+*%
X81540000Y-144620000D03*
%TO.P,J4,9,Pin_9*%
%TO.N,GND*%
X79000000Y-147160000D03*
%TO.P,J4,10,Pin_10*%
X81540000Y-147160000D03*
%TO.P,J4,11,Pin_11*%
X79000000Y-149700000D03*
%TO.P,J4,12,Pin_12*%
X81540000Y-149700000D03*
%TO.P,J4,13,Pin_13*%
%TO.N,/FPGA/IOL_12-*%
X79000000Y-152240000D03*
%TO.P,J4,14,Pin_14*%
%TO.N,/FPGA/IOL_12+*%
X81540000Y-152240000D03*
%TO.P,J4,15,Pin_15*%
%TO.N,/FPGA/IOL_18-*%
X79000000Y-154780000D03*
%TO.P,J4,16,Pin_16*%
%TO.N,/FPGA/IOL_18+*%
X81540000Y-154780000D03*
%TO.P,J4,17,Pin_17*%
%TO.N,/FPGA/IOL_23-*%
X79000000Y-157320000D03*
%TO.P,J4,18,Pin_18*%
%TO.N,/FPGA/IOL_23+*%
X81540000Y-157320000D03*
%TO.P,J4,19,Pin_19*%
%TO.N,/FPGA/IOL_25-*%
X79000000Y-159860000D03*
%TO.P,J4,20,Pin_20*%
%TO.N,/FPGA/IOL_25+*%
X81540000Y-159860000D03*
%TD*%
D11*
%TO.P,D12,1,1*%
%TO.N,/FPGA/DQ12*%
X101200000Y-112112500D03*
%TO.P,D12,2,2*%
%TO.N,/FPGA/DQ6*%
X100700000Y-112112500D03*
D12*
%TO.P,D12,3,C*%
%TO.N,GND*%
X100200000Y-112150000D03*
D11*
%TO.P,D12,4,4*%
%TO.N,/FPGA/DQ15*%
X99700000Y-112112500D03*
%TO.P,D12,5,5*%
%TO.N,/FPGA/A16*%
X99200000Y-112112500D03*
%TO.P,D12,6,6*%
X99200000Y-112887500D03*
%TO.P,D12,7,7*%
%TO.N,/FPGA/DQ15*%
X99700000Y-112887500D03*
D13*
%TO.P,D12,8,C*%
%TO.N,GND*%
X100200000Y-112912500D03*
D11*
%TO.P,D12,9,9*%
%TO.N,/FPGA/DQ6*%
X100700000Y-112887500D03*
%TO.P,D12,10,10*%
%TO.N,/FPGA/DQ12*%
X101200000Y-112887500D03*
%TD*%
D10*
%TO.P,TP4,1,1*%
%TO.N,+15V*%
X91100000Y-49400000D03*
%TO.P,TP4,2,2*%
%TO.N,GND*%
X93640000Y-49400000D03*
%TD*%
D17*
%TO.P,J3,1,Pin_1*%
%TO.N,/FPGA/FLASH.~{CS}*%
X119300000Y-120900000D03*
D18*
%TO.P,J3,2,Pin_2*%
%TO.N,/FPGA/FLASH.SCK*%
X119300000Y-123440000D03*
%TO.P,J3,3,Pin_3*%
%TO.N,/FPGA/FLASH.DI_IO0*%
X119300000Y-125980000D03*
%TO.P,J3,4,Pin_4*%
%TO.N,/FPGA/FLASH.DO_IO1*%
X119300000Y-128520000D03*
%TO.P,J3,5,Pin_5*%
%TO.N,/FPGA/FLASH.~{WP}_IO2*%
X119300000Y-131060000D03*
%TO.P,J3,6,Pin_6*%
%TO.N,/FPGA/FLASH.~{RST}_IO3*%
X119300000Y-133600000D03*
%TO.P,J3,7,Pin_7*%
%TO.N,GND*%
X119300000Y-136140000D03*
%TD*%
D10*
%TO.P,TP7,1,1*%
%TO.N,GND*%
X94600000Y-147000000D03*
%TO.P,TP7,2,2*%
%TO.N,+1V2*%
X94600000Y-144460000D03*
%TD*%
D39*
%TO.P,D20,1,K*%
%TO.N,/~{MCU_RESET}*%
X74950000Y-163750000D03*
%TO.P,D20,2,A*%
%TO.N,/FPGA/~{CRESET}*%
X77050000Y-163750000D03*
%TD*%
D40*
%TO.P,TP10,1,1*%
%TO.N,/FPGA/IOR_109*%
X120600000Y-117000000D03*
%TD*%
D10*
%TO.P,TP2,1,1*%
%TO.N,/WP_BUF*%
X98775000Y-83000000D03*
%TO.P,TP2,2,2*%
%TO.N,GND*%
X98775000Y-80460000D03*
%TD*%
D11*
%TO.P,D8,1,1*%
%TO.N,/FPGA/A19*%
X80800000Y-112012500D03*
%TO.P,D8,2,2*%
%TO.N,/FPGA/A10*%
X80300000Y-112012500D03*
D12*
%TO.P,D8,3,C*%
%TO.N,GND*%
X79800000Y-112050000D03*
D11*
%TO.P,D8,4,4*%
%TO.N,/FPGA/A13*%
X79300000Y-112012500D03*
%TO.P,D8,5,5*%
%TO.N,/FPGA/A22*%
X78800000Y-112012500D03*
%TO.P,D8,6,6*%
X78800000Y-112787500D03*
%TO.P,D8,7,7*%
%TO.N,/FPGA/A13*%
X79300000Y-112787500D03*
D13*
%TO.P,D8,8,C*%
%TO.N,GND*%
X79800000Y-112812500D03*
D11*
%TO.P,D8,9,9*%
%TO.N,/FPGA/A10*%
X80300000Y-112787500D03*
%TO.P,D8,10,10*%
%TO.N,/FPGA/A19*%
X80800000Y-112787500D03*
%TD*%
D10*
%TO.P,TP1,2,2*%
%TO.N,GND*%
X95150000Y-80460000D03*
%TO.P,TP1,1,1*%
%TO.N,/VWL_BUF*%
X95150000Y-83000000D03*
%TD*%
D11*
%TO.P,D15,1,1*%
%TO.N,GND*%
X117200000Y-112112500D03*
%TO.P,D15,2,2*%
%TO.N,/FPGA/DQ13*%
X116700000Y-112112500D03*
D12*
%TO.P,D15,3,C*%
%TO.N,GND*%
X116200000Y-112150000D03*
D11*
%TO.P,D15,4,4*%
%TO.N,/FPGA/DQ4*%
X115700000Y-112112500D03*
%TO.P,D15,5,5*%
%TO.N,/FPGA/DQ3*%
X115200000Y-112112500D03*
%TO.P,D15,6,6*%
X115200000Y-112887500D03*
%TO.P,D15,7,7*%
%TO.N,/FPGA/DQ4*%
X115700000Y-112887500D03*
D13*
%TO.P,D15,8,C*%
%TO.N,GND*%
X116200000Y-112912500D03*
D11*
%TO.P,D15,9,9*%
%TO.N,/FPGA/DQ13*%
X116700000Y-112887500D03*
%TO.P,D15,10,10*%
%TO.N,GND*%
X117200000Y-112887500D03*
%TD*%
D26*
%TO.P,R3,1*%
%TO.N,/ANA_VWL*%
X120912500Y-65000000D03*
%TO.P,R3,2*%
%TO.N,GND*%
X119087500Y-65000000D03*
%TD*%
D22*
%TO.P,C25,1*%
%TO.N,+3.3V*%
X98348852Y-121773053D03*
%TO.P,C25,2*%
%TO.N,GND*%
X99027674Y-122451875D03*
%TD*%
D39*
%TO.P,D4,1,K*%
%TO.N,+15V*%
X80050000Y-56200000D03*
%TO.P,D4,2,A*%
%TO.N,GND*%
X82150000Y-56200000D03*
%TD*%
D41*
%TO.P,X1,1,PC10*%
%TO.N,/CE_SW*%
X64000000Y-75500000D03*
%TO.P,X1,2,PC11*%
%TO.N,unconnected-(X1-Pad2)*%
X66540000Y-75500000D03*
%TO.P,X1,3,PC12*%
%TO.N,unconnected-(X1-Pad3)*%
X64000000Y-78040000D03*
%TO.P,X1,4,PD2*%
%TO.N,unconnected-(X1-Pad4)*%
X66540000Y-78040000D03*
%TO.P,X1,5,VDD*%
%TO.N,unconnected-(X1-Pad5)*%
X64000000Y-80580000D03*
%TO.P,X1,6,E5V*%
%TO.N,unconnected-(X1-Pad6)*%
X66540000Y-80580000D03*
%TO.P,X1,7,~{BOOT0}*%
%TO.N,unconnected-(X1-Pad7)*%
X64000000Y-83120000D03*
%TO.P,X1,8,GND*%
%TO.N,GND*%
X66540000Y-83120000D03*
%TO.P,X1,9,PF6*%
%TO.N,/QSPI.IO3*%
X64000000Y-85660000D03*
%TO.P,X1,10,NC*%
%TO.N,unconnected-(X1-Pad10)*%
X66540000Y-85660000D03*
%TO.P,X1,11,PF7*%
%TO.N,/QSPI.IO2*%
X64000000Y-88200000D03*
%TO.P,X1,12,IOREF*%
%TO.N,unconnected-(X1-Pad12)*%
X66540000Y-88200000D03*
%TO.P,X1,13,TMS/PA13*%
%TO.N,unconnected-(X1-Pad13)*%
X64000000Y-90740000D03*
%TO.P,X1,14,~{RST}*%
%TO.N,/~{MCU_RESET}*%
X66540000Y-90740000D03*
%TO.P,X1,15,TCK/PA14*%
%TO.N,unconnected-(X1-Pad15)*%
X64000000Y-93280000D03*
%TO.P,X1,16,+3V3*%
%TO.N,+3.3V*%
X66540000Y-93280000D03*
%TO.P,X1,17,PA15*%
%TO.N,unconnected-(X1-Pad17)*%
X64000000Y-95820000D03*
%TO.P,X1,18,+5V*%
%TO.N,unconnected-(X1-Pad18)*%
X66540000Y-95820000D03*
%TO.P,X1,19,GND*%
%TO.N,GND*%
X64000000Y-98360000D03*
%TO.P,X1,20,GND*%
X66540000Y-98360000D03*
%TO.P,X1,21,LD2/PB7*%
%TO.N,unconnected-(X1-Pad21)*%
X64000000Y-100900000D03*
%TO.P,X1,22,GND*%
%TO.N,GND*%
X66540000Y-100900000D03*
%TO.P,X1,23,BT/PC13*%
%TO.N,unconnected-(X1-Pad23)*%
X64000000Y-103440000D03*
%TO.P,X1,24,VIN*%
%TO.N,unconnected-(X1-Pad24)*%
X66540000Y-103440000D03*
%TO.P,X1,25,RTC_CRYSTAL/PC14*%
%TO.N,unconnected-(X1-Pad25)*%
X64000000Y-105980000D03*
%TO.P,X1,26,NC*%
%TO.N,unconnected-(X1-Pad26)*%
X66540000Y-105980000D03*
%TO.P,X1,27,RTC_CRYSTAL/PC15*%
%TO.N,unconnected-(X1-Pad27)*%
X64000000Y-108520000D03*
%TO.P,X1,28,ETH_REF_CLK/PA0*%
%TO.N,unconnected-(X1-Pad28)*%
X66540000Y-108520000D03*
%TO.P,X1,29,PH0*%
%TO.N,unconnected-(X1-Pad29)*%
X64000000Y-111060000D03*
%TO.P,X1,30,ETH_MDIO/PA1*%
%TO.N,unconnected-(X1-Pad30)*%
X66540000Y-111060000D03*
%TO.P,X1,31,PH1*%
%TO.N,unconnected-(X1-Pad31)*%
X64000000Y-113600000D03*
%TO.P,X1,32,PA4*%
%TO.N,unconnected-(X1-Pad32)*%
X66540000Y-113600000D03*
%TO.P,X1,33,VBAT*%
%TO.N,unconnected-(X1-Pad33)*%
X64000000Y-116140000D03*
%TO.P,X1,34,PB0*%
%TO.N,unconnected-(X1-Pad34)*%
X66540000Y-116140000D03*
%TO.P,X1,35,PC2*%
%TO.N,unconnected-(X1-Pad35)*%
X64000000Y-118680000D03*
%TO.P,X1,36,ETH_MDC/PC1*%
%TO.N,unconnected-(X1-Pad36)*%
X66540000Y-118680000D03*
%TO.P,X1,37,PC3*%
%TO.N,unconnected-(X1-Pad37)*%
X64000000Y-121220000D03*
%TO.P,X1,38,PC0*%
%TO.N,unconnected-(X1-Pad38)*%
X66540000Y-121220000D03*
%TO.P,X1,39,PD4*%
%TO.N,unconnected-(X1-Pad39)*%
X64000000Y-123760000D03*
%TO.P,X1,40,PD3*%
%TO.N,unconnected-(X1-Pad40)*%
X66540000Y-123760000D03*
%TO.P,X1,41,PD5*%
%TO.N,unconnected-(X1-Pad41)*%
X64000000Y-126300000D03*
%TO.P,X1,42,PG2*%
%TO.N,unconnected-(X1-Pad42)*%
X66540000Y-126300000D03*
%TO.P,X1,43,PD6*%
%TO.N,unconnected-(X1-Pad43)*%
X64000000Y-128840000D03*
%TO.P,X1,44,PG3*%
%TO.N,unconnected-(X1-Pad44)*%
X66540000Y-128840000D03*
%TO.P,X1,45,PD7*%
%TO.N,unconnected-(X1-Pad45)*%
X64000000Y-131380000D03*
%TO.P,X1,46,PE2*%
%TO.N,unconnected-(X1-Pad46)*%
X66540000Y-131380000D03*
%TO.P,X1,47,PE3*%
%TO.N,unconnected-(X1-Pad47)*%
X64000000Y-133920000D03*
%TO.P,X1,48,PE4*%
%TO.N,unconnected-(X1-Pad48)*%
X66540000Y-133920000D03*
%TO.P,X1,49,GND*%
%TO.N,GND*%
X64000000Y-136460000D03*
%TO.P,X1,50,PE5*%
%TO.N,unconnected-(X1-Pad50)*%
X66540000Y-136460000D03*
%TO.P,X1,51,PF1*%
%TO.N,unconnected-(X1-Pad51)*%
X64000000Y-139000000D03*
%TO.P,X1,52,PF2*%
%TO.N,unconnected-(X1-Pad52)*%
X66540000Y-139000000D03*
%TO.P,X1,53,PF0*%
%TO.N,unconnected-(X1-Pad53)*%
X64000000Y-141540000D03*
%TO.P,X1,54,PF8*%
%TO.N,/QSPI.IO1*%
X66540000Y-141540000D03*
%TO.P,X1,55,PD1*%
%TO.N,unconnected-(X1-Pad55)*%
X64000000Y-144080000D03*
%TO.P,X1,56,PF9*%
%TO.N,/QSPI.IO0*%
X66540000Y-144080000D03*
%TO.P,X1,57,PD0*%
%TO.N,unconnected-(X1-Pad57)*%
X64000000Y-146620000D03*
%TO.P,X1,58,PG1*%
%TO.N,unconnected-(X1-Pad58)*%
X66540000Y-146620000D03*
%TO.P,X1,59,PG0*%
%TO.N,unconnected-(X1-Pad59)*%
X64000000Y-149160000D03*
%TO.P,X1,60,GND*%
%TO.N,GND*%
X66540000Y-149160000D03*
%TO.P,X1,61,PE1*%
%TO.N,unconnected-(X1-Pad61)*%
X64000000Y-151700000D03*
%TO.P,X1,62,PE6*%
%TO.N,unconnected-(X1-Pad62)*%
X66540000Y-151700000D03*
%TO.P,X1,63,PG9*%
%TO.N,unconnected-(X1-Pad63)*%
X64000000Y-154240000D03*
%TO.P,X1,64,PG15*%
%TO.N,unconnected-(X1-Pad64)*%
X66540000Y-154240000D03*
%TO.P,X1,65,PG12*%
%TO.N,unconnected-(X1-Pad65)*%
X64000000Y-156780000D03*
%TO.P,X1,66,PG10*%
%TO.N,unconnected-(X1-Pad66)*%
X66540000Y-156780000D03*
%TO.P,X1,67,NC*%
%TO.N,unconnected-(X1-Pad67)*%
X64000000Y-159320000D03*
%TO.P,X1,68,PG13/ETH_TXD0*%
%TO.N,unconnected-(X1-Pad68)*%
X66540000Y-159320000D03*
%TO.P,X1,69,STLINK_RX/PD9*%
%TO.N,unconnected-(X1-Pad69)*%
X64000000Y-161860000D03*
%TO.P,X1,70,PG11/ETH_TX_EN*%
%TO.N,unconnected-(X1-Pad70)*%
X66540000Y-161860000D03*
%TO.P,X1,71,GND*%
%TO.N,GND*%
X64000000Y-164400000D03*
%TO.P,X1,72,GND*%
X66540000Y-164400000D03*
%TO.P,X1,73,PC9*%
%TO.N,unconnected-(X1-Pad73)*%
X124960000Y-75500000D03*
%TO.P,X1,74,PC8*%
%TO.N,unconnected-(X1-Pad74)*%
X127500000Y-75500000D03*
%TO.P,X1,75,PB8*%
%TO.N,unconnected-(X1-Pad75)*%
X124960000Y-78040000D03*
%TO.P,X1,76,PC6*%
%TO.N,unconnected-(X1-Pad76)*%
X127500000Y-78040000D03*
%TO.P,X1,77,PB9*%
%TO.N,unconnected-(X1-Pad77)*%
X124960000Y-80580000D03*
%TO.P,X1,78,ETH_RXD1/PC5*%
%TO.N,unconnected-(X1-Pad78)*%
X127500000Y-80580000D03*
%TO.P,X1,79,AVDD*%
%TO.N,unconnected-(X1-Pad79)*%
X124960000Y-83120000D03*
%TO.P,X1,80,U5V*%
%TO.N,unconnected-(X1-Pad80)*%
X127500000Y-83120000D03*
%TO.P,X1,81,GND*%
%TO.N,GND*%
X124960000Y-85660000D03*
%TO.P,X1,82,STLINK_TX/PD8*%
%TO.N,unconnected-(X1-Pad82)*%
X127500000Y-85660000D03*
%TO.P,X1,83,PA5*%
%TO.N,unconnected-(X1-Pad83)*%
X124960000Y-88200000D03*
%TO.P,X1,84,USB_DP/PA12*%
%TO.N,unconnected-(X1-Pad84)*%
X127500000Y-88200000D03*
%TO.P,X1,85,PA6*%
%TO.N,unconnected-(X1-Pad85)*%
X124960000Y-90740000D03*
%TO.P,X1,86,USB_DM/PA11*%
%TO.N,unconnected-(X1-Pad86)*%
X127500000Y-90740000D03*
%TO.P,X1,87,ETH_CRS_DV/PA7*%
%TO.N,unconnected-(X1-Pad87)*%
X124960000Y-93280000D03*
%TO.P,X1,88,PB12*%
%TO.N,unconnected-(X1-Pad88)*%
X127500000Y-93280000D03*
%TO.P,X1,89,PB6*%
%TO.N,unconnected-(X1-Pad89)*%
X124960000Y-95820000D03*
%TO.P,X1,90,PB11*%
%TO.N,unconnected-(X1-Pad90)*%
X127500000Y-95820000D03*
%TO.P,X1,91,PC7*%
%TO.N,unconnected-(X1-Pad91)*%
X124960000Y-98360000D03*
%TO.P,X1,92,GND*%
%TO.N,GND*%
X127500000Y-98360000D03*
%TO.P,X1,93,USB_VBUS/PA9*%
%TO.N,unconnected-(X1-Pad93)*%
X124960000Y-100900000D03*
%TO.P,X1,94,PB2*%
%TO.N,unconnected-(X1-Pad94)*%
X127500000Y-100900000D03*
%TO.P,X1,95,USB_SOF/PA8*%
%TO.N,unconnected-(X1-Pad95)*%
X124960000Y-103440000D03*
%TO.P,X1,96,PB1*%
%TO.N,unconnected-(X1-Pad96)*%
X127500000Y-103440000D03*
%TO.P,X1,97,PB10*%
%TO.N,/QSPI.~{CS}*%
X124960000Y-105980000D03*
%TO.P,X1,98,PB15*%
%TO.N,unconnected-(X1-Pad98)*%
X127500000Y-105980000D03*
%TO.P,X1,99,PB4*%
%TO.N,unconnected-(X1-Pad99)*%
X124960000Y-108520000D03*
%TO.P,X1,100,LD3/PB14*%
%TO.N,unconnected-(X1-Pad100)*%
X127500000Y-108520000D03*
%TO.P,X1,101,PB5*%
%TO.N,unconnected-(X1-Pad101)*%
X124960000Y-111060000D03*
%TO.P,X1,102,ETH_TXD1/PB13*%
%TO.N,unconnected-(X1-Pad102)*%
X127500000Y-111060000D03*
%TO.P,X1,103,SWO/PB3*%
%TO.N,unconnected-(X1-Pad103)*%
X124960000Y-113600000D03*
%TO.P,X1,104,AGND*%
%TO.N,unconnected-(X1-Pad104)*%
X127500000Y-113600000D03*
%TO.P,X1,105,USB_ID/PA10*%
%TO.N,unconnected-(X1-Pad105)*%
X124960000Y-116140000D03*
%TO.P,X1,106,ETH_RXD0/PC4*%
%TO.N,unconnected-(X1-Pad106)*%
X127500000Y-116140000D03*
%TO.P,X1,107,PA2*%
%TO.N,unconnected-(X1-Pad107)*%
X124960000Y-118680000D03*
%TO.P,X1,108,PF5*%
%TO.N,unconnected-(X1-Pad108)*%
X127500000Y-118680000D03*
%TO.P,X1,109,PA3*%
%TO.N,unconnected-(X1-Pad109)*%
X124960000Y-121220000D03*
%TO.P,X1,110,PF4*%
%TO.N,unconnected-(X1-Pad110)*%
X127500000Y-121220000D03*
%TO.P,X1,111,GND*%
%TO.N,GND*%
X124960000Y-123760000D03*
%TO.P,X1,112,PE8*%
%TO.N,unconnected-(X1-Pad112)*%
X127500000Y-123760000D03*
%TO.P,X1,113,PD13*%
%TO.N,unconnected-(X1-Pad113)*%
X124960000Y-126300000D03*
%TO.P,X1,114,PF10*%
%TO.N,/QSPI.SCK*%
X127500000Y-126300000D03*
%TO.P,X1,115,PD12*%
%TO.N,unconnected-(X1-Pad115)*%
X124960000Y-128840000D03*
%TO.P,X1,116,PE7*%
%TO.N,unconnected-(X1-Pad116)*%
X127500000Y-128840000D03*
%TO.P,X1,117,PD11*%
%TO.N,unconnected-(X1-Pad117)*%
X124960000Y-131380000D03*
%TO.P,X1,118,PD14*%
%TO.N,unconnected-(X1-Pad118)*%
X127500000Y-131380000D03*
%TO.P,X1,119,PE10*%
%TO.N,unconnected-(X1-Pad119)*%
X124960000Y-133920000D03*
%TO.P,X1,120,PD15*%
%TO.N,unconnected-(X1-Pad120)*%
X127500000Y-133920000D03*
%TO.P,X1,121,PE12*%
%TO.N,unconnected-(X1-Pad121)*%
X124960000Y-136460000D03*
%TO.P,X1,122,PF14*%
%TO.N,unconnected-(X1-Pad122)*%
X127500000Y-136460000D03*
%TO.P,X1,123,PE14*%
%TO.N,unconnected-(X1-Pad123)*%
X124960000Y-139000000D03*
%TO.P,X1,124,PE9*%
%TO.N,unconnected-(X1-Pad124)*%
X127500000Y-139000000D03*
%TO.P,X1,125,PE15*%
%TO.N,unconnected-(X1-Pad125)*%
X124960000Y-141540000D03*
%TO.P,X1,126,GND*%
%TO.N,GND*%
X127500000Y-141540000D03*
%TO.P,X1,127,PE13*%
%TO.N,unconnected-(X1-Pad127)*%
X124960000Y-144080000D03*
%TO.P,X1,128,PE11*%
%TO.N,unconnected-(X1-Pad128)*%
X127500000Y-144080000D03*
%TO.P,X1,129,PF13*%
%TO.N,unconnected-(X1-Pad129)*%
X124960000Y-146620000D03*
%TO.P,X1,130,PF3*%
%TO.N,unconnected-(X1-Pad130)*%
X127500000Y-146620000D03*
%TO.P,X1,131,PF12*%
%TO.N,unconnected-(X1-Pad131)*%
X124960000Y-149160000D03*
%TO.P,X1,132,PF15*%
%TO.N,unconnected-(X1-Pad132)*%
X127500000Y-149160000D03*
%TO.P,X1,133,PG14*%
%TO.N,unconnected-(X1-Pad133)*%
X124960000Y-151700000D03*
%TO.P,X1,134,PF11*%
%TO.N,unconnected-(X1-Pad134)*%
X127500000Y-151700000D03*
%TO.P,X1,135,GND*%
%TO.N,GND*%
X124960000Y-154240000D03*
%TO.P,X1,136,PE0*%
%TO.N,unconnected-(X1-Pad136)*%
X127500000Y-154240000D03*
%TO.P,X1,137,PD10*%
%TO.N,unconnected-(X1-Pad137)*%
X124960000Y-156780000D03*
%TO.P,X1,138,PG8*%
%TO.N,unconnected-(X1-Pad138)*%
X127500000Y-156780000D03*
%TO.P,X1,139,PG7/USB_GPIO_IN*%
%TO.N,unconnected-(X1-Pad139)*%
X124960000Y-159320000D03*
%TO.P,X1,140,PG5*%
%TO.N,unconnected-(X1-Pad140)*%
X127500000Y-159320000D03*
%TO.P,X1,141,PG4*%
%TO.N,unconnected-(X1-Pad141)*%
X124960000Y-161860000D03*
%TO.P,X1,142,PG6/USB_GPIO_OUT*%
%TO.N,unconnected-(X1-Pad142)*%
X127500000Y-161860000D03*
%TO.P,X1,143,GND*%
%TO.N,GND*%
X124960000Y-164400000D03*
%TO.P,X1,144,GND*%
X127500000Y-164400000D03*
%TO.P,X1,145,NC*%
%TO.N,unconnected-(X1-Pad145)*%
X64000000Y-47560000D03*
%TO.P,X1,146,NC*%
%TO.N,unconnected-(X1-Pad146)*%
X64000000Y-50100000D03*
%TO.P,X1,147,NC*%
%TO.N,unconnected-(X1-Pad147)*%
X127500000Y-47560000D03*
%TO.P,X1,148,NC*%
%TO.N,unconnected-(X1-Pad148)*%
X127500000Y-50100000D03*
%TD*%
D42*
%TO.P,SW1,1,1*%
%TO.N,GND*%
X70296300Y-168752100D03*
X70296300Y-173247900D03*
%TO.P,SW1,2,2*%
%TO.N,/FPGA/~{CRESET}*%
X78703700Y-168752100D03*
X78703700Y-173247900D03*
%TO.P,SW1,3,3*%
%TO.N,GND*%
X78703700Y-171000000D03*
%TD*%
D43*
%TO.P,C4,1*%
%TO.N,+3.3V*%
X72130000Y-129160000D03*
%TO.P,C4,2*%
%TO.N,GND*%
X72130000Y-124760000D03*
%TD*%
D10*
%TO.P,TP3,1,1*%
%TO.N,-15V*%
X91100000Y-46860000D03*
%TO.P,TP3,2,2*%
%TO.N,GND*%
X93640000Y-46860000D03*
%TD*%
D40*
%TO.P,TP11,1,1*%
%TO.N,/FPGA/IOT_188*%
X86500000Y-117300000D03*
%TD*%
D39*
%TO.P,D3,1,K*%
%TO.N,GND*%
X82150000Y-48200000D03*
%TO.P,D3,2,A*%
%TO.N,-15V*%
X80050000Y-48200000D03*
%TD*%
D36*
%TO.P,C27,1*%
%TO.N,+3.3V*%
X95881178Y-119248822D03*
%TO.P,C27,2*%
%TO.N,GND*%
X96560000Y-118570000D03*
%TD*%
D11*
%TO.P,D17,1,1*%
%TO.N,/FPGA/DQ9*%
X114000000Y-112112500D03*
%TO.P,D17,2,2*%
%TO.N,/FPGA/DQ0*%
X113500000Y-112112500D03*
D12*
%TO.P,D17,3,C*%
%TO.N,GND*%
X113000000Y-112150000D03*
D11*
%TO.P,D17,4,4*%
%TO.N,/FPGA/DQ7*%
X112500000Y-112112500D03*
%TO.P,D17,5,5*%
%TO.N,/FC.~{BYTE}*%
X112000000Y-112112500D03*
%TO.P,D17,6,6*%
X112000000Y-112887500D03*
%TO.P,D17,7,7*%
%TO.N,/FPGA/DQ7*%
X112500000Y-112887500D03*
D13*
%TO.P,D17,8,C*%
%TO.N,GND*%
X113000000Y-112912500D03*
D11*
%TO.P,D17,9,9*%
%TO.N,/FPGA/DQ0*%
X113500000Y-112887500D03*
%TO.P,D17,10,10*%
%TO.N,/FPGA/DQ9*%
X114000000Y-112887500D03*
%TD*%
D44*
%TO.P,U8,1,~{CS}*%
%TO.N,/FPGA/FLASH.~{CS}*%
X105675000Y-127510000D03*
%TO.P,U8,2,DO(IO1)*%
%TO.N,/FPGA/FLASH.DO_IO1*%
X106945000Y-127510000D03*
%TO.P,U8,3,IO2*%
%TO.N,/FPGA/FLASH.~{WP}_IO2*%
X108215000Y-127510000D03*
%TO.P,U8,4,GND*%
%TO.N,GND*%
X109485000Y-127510000D03*
%TO.P,U8,5,DI(IO0)*%
%TO.N,/FPGA/FLASH.DI_IO0*%
X109485000Y-120310000D03*
%TO.P,U8,6,CLK*%
%TO.N,/FPGA/FLASH.SCK*%
X108215000Y-120310000D03*
%TO.P,U8,7,IO3*%
%TO.N,/FPGA/FLASH.~{RST}_IO3*%
X106945000Y-120310000D03*
%TO.P,U8,8,VCC*%
%TO.N,+3.3V*%
X105675000Y-120310000D03*
%TD*%
D11*
%TO.P,D16,1,1*%
%TO.N,/FPGA/A24*%
X110800000Y-112112500D03*
%TO.P,D16,2,2*%
%TO.N,/FPGA/DQ1*%
X110300000Y-112112500D03*
D12*
%TO.P,D16,3,C*%
%TO.N,GND*%
X109800000Y-112150000D03*
D11*
%TO.P,D16,4,4*%
%TO.N,/FC.~{OE}*%
X109300000Y-112112500D03*
%TO.P,D16,5,5*%
%TO.N,/FPGA/A0*%
X108800000Y-112112500D03*
%TO.P,D16,6,6*%
X108800000Y-112887500D03*
%TO.P,D16,7,7*%
%TO.N,/FC.~{OE}*%
X109300000Y-112887500D03*
D13*
%TO.P,D16,8,C*%
%TO.N,GND*%
X109800000Y-112912500D03*
D11*
%TO.P,D16,9,9*%
%TO.N,/FPGA/DQ1*%
X110300000Y-112887500D03*
%TO.P,D16,10,10*%
%TO.N,/FPGA/A24*%
X110800000Y-112887500D03*
%TD*%
D17*
%TO.P,J5,1,Pin_1*%
%TO.N,GND*%
X109950000Y-137000000D03*
D18*
%TO.P,J5,2,Pin_2*%
X112490000Y-137000000D03*
%TO.P,J5,3,Pin_3*%
X109950000Y-139540000D03*
%TO.P,J5,4,Pin_4*%
X112490000Y-139540000D03*
%TO.P,J5,5,Pin_5*%
%TO.N,/FPGA/IOB_104_CBSEL1*%
X109950000Y-142080000D03*
%TO.P,J5,6,Pin_6*%
%TO.N,/FPGA/IOB_103_CBSEL0*%
X112490000Y-142080000D03*
%TO.P,J5,7,Pin_7*%
%TO.N,GND*%
X109950000Y-144620000D03*
%TO.P,J5,8,Pin_8*%
X112490000Y-144620000D03*
%TO.P,J5,9,Pin_9*%
%TO.N,/FPGA/IOB_82_GBIN4*%
X109950000Y-147160000D03*
%TO.P,J5,10,Pin_10*%
%TO.N,/FPGA/IOB_89*%
X112490000Y-147160000D03*
%TO.P,J5,11,Pin_11*%
%TO.N,GND*%
X109950000Y-149700000D03*
%TO.P,J5,12,Pin_12*%
X112490000Y-149700000D03*
%TO.P,J5,13,Pin_13*%
%TO.N,/FPGA/IOB_91*%
X109950000Y-152240000D03*
%TO.P,J5,14,Pin_14*%
%TO.N,/FPGA/IOB_87*%
X112490000Y-152240000D03*
%TO.P,J5,15,Pin_15*%
%TO.N,GND*%
X109950000Y-154780000D03*
%TO.P,J5,16,Pin_16*%
X112490000Y-154780000D03*
%TO.P,J5,17,Pin_17*%
%TO.N,/FPGA/IOB_73*%
X109950000Y-157320000D03*
%TO.P,J5,18,Pin_18*%
%TO.N,/FPGA/IOB_74*%
X112490000Y-157320000D03*
%TO.P,J5,19,Pin_19*%
%TO.N,+3.3V*%
X109950000Y-159860000D03*
%TO.P,J5,20,Pin_20*%
X112490000Y-159860000D03*
%TD*%
D21*
%TO.P,FID2,*%
%TO.N,*%
X129200000Y-45300000D03*
%TD*%
D34*
%TO.P,D1,1,K*%
%TO.N,/-15V_IN*%
X71600000Y-49000000D03*
%TO.P,D1,2,A*%
%TO.N,-15V*%
X75600000Y-49000000D03*
%TD*%
D45*
%TO.P,U7,A1,IOT_225*%
%TO.N,/FPGA/A6*%
X90072167Y-125206056D03*
%TO.P,U7,A2,IOT_223*%
%TO.N,/FPGA/A3*%
X90425720Y-124852503D03*
%TO.P,U7,A3,IOT_222*%
%TO.N,/FPGA/A22*%
X90779274Y-124498949D03*
%TO.P,U7,A4,IOT_219*%
%TO.N,/FPGA/A13*%
X91132827Y-124145396D03*
%TO.P,U7,A5,IOT_208*%
%TO.N,/FPGA/A10*%
X91486380Y-123791842D03*
%TO.P,U7,A6,IOT_198_GBIN0*%
%TO.N,/FPGA/A19*%
X91839934Y-123438289D03*
%TO.P,U7,A7,IOT_197_GBIN1*%
%TO.N,/FPGA/A1*%
X92193487Y-123084736D03*
%TO.P,U7,A8,VCCIO_0*%
%TO.N,+3.3V*%
X92547041Y-122731182D03*
%TO.P,U7,A9,GND*%
%TO.N,GND*%
X92900594Y-122377629D03*
%TO.P,U7,A10,IOT_181*%
%TO.N,/FPGA/A2*%
X93254147Y-122024075D03*
%TO.P,U7,A11,IOT_179*%
%TO.N,/FPGA/A5*%
X93607701Y-121670522D03*
%TO.P,U7,A12,IOT_170*%
%TO.N,/FPGA/A23*%
X93961254Y-121316969D03*
%TO.P,U7,A13,VPP_FAST*%
%TO.N,unconnected-(U7-PadA13)*%
X94314808Y-120963415D03*
%TO.P,U7,A14,VPP_2V5*%
%TO.N,+3.3V*%
X94668361Y-120609862D03*
%TO.P,U7,B1,IOL_2A*%
%TO.N,/FPGA/A12*%
X90425720Y-125559609D03*
%TO.P,U7,B14,IOR_161*%
%TO.N,/FPGA/A16*%
X95021914Y-120963415D03*
%TO.P,U7,C1,IOL_2B*%
%TO.N,/FPGA/A15*%
X90779274Y-125913163D03*
%TO.P,U7,C3,IOL_4A*%
%TO.N,unconnected-(U7-PadC3)*%
X91486380Y-125206056D03*
%TO.P,U7,C4,IOT_221*%
%TO.N,/FPGA/A21*%
X91839934Y-124852503D03*
%TO.P,U7,C5,IOT_212*%
%TO.N,/FPGA/A20*%
X92193487Y-124498949D03*
%TO.P,U7,C6,IOT_206*%
%TO.N,/FPGA/A4*%
X92547041Y-124145396D03*
%TO.P,U7,C7,IOT_200*%
%TO.N,/RY{slash}~{BY}*%
X92900594Y-123791842D03*
%TO.P,U7,C8,VCCPLL1*%
%TO.N,/FPGA/VCCPLL1*%
X93254147Y-123438289D03*
%TO.P,U7,C9,IOT_190*%
%TO.N,unconnected-(U7-PadC9)*%
X93607701Y-123084736D03*
%TO.P,U7,C10,IOT_186*%
%TO.N,/FPGA/A17*%
X93961254Y-122731182D03*
%TO.P,U7,C11,IOT_174*%
%TO.N,/FPGA/A8*%
X94314808Y-122377629D03*
%TO.P,U7,C12,IOT_172*%
%TO.N,/FPGA/A11*%
X94668361Y-122024075D03*
%TO.P,U7,C14,IOR_154*%
%TO.N,/FPGA/DQ11*%
X95375468Y-121316969D03*
%TO.P,U7,D1,IOL_5A*%
%TO.N,/FPGA/IOL_5+*%
X91132827Y-126266716D03*
%TO.P,U7,D3,IOL_4B*%
%TO.N,unconnected-(U7-PadD3)*%
X91839934Y-125559609D03*
%TO.P,U7,D4,IOL_8A*%
%TO.N,unconnected-(U7-PadD4)*%
X92193487Y-125206056D03*
%TO.P,U7,D5,IOT_211*%
%TO.N,/FPGA/A9*%
X92547041Y-124852503D03*
%TO.P,U7,D6,IOT_207*%
%TO.N,/FPGA/A18*%
X92900594Y-124498949D03*
%TO.P,U7,D7,IOT_202*%
%TO.N,/FPGA/A7*%
X93254147Y-124145396D03*
%TO.P,U7,D8,GNDPLL1*%
%TO.N,/FPGA/GNDPLL1*%
X93607701Y-123791842D03*
%TO.P,U7,D9,IOT_188*%
%TO.N,/FPGA/IOT_188*%
X93961254Y-123438289D03*
%TO.P,U7,D10,IOT_177*%
%TO.N,/FC.~{WE}*%
X94314808Y-123084736D03*
%TO.P,U7,D11,IOT_178*%
%TO.N,/FPGA/A14*%
X94668361Y-122731182D03*
%TO.P,U7,D12,IOR_160*%
%TO.N,/FPGA/DQ15*%
X95021914Y-122377629D03*
%TO.P,U7,D14,IOR_152*%
%TO.N,/FPGA/DQ2*%
X95729021Y-121670522D03*
%TO.P,U7,E1,IOL_5B*%
%TO.N,/FPGA/IOL_5-*%
X91486380Y-126620270D03*
%TO.P,U7,E3,VCCIO_3*%
%TO.N,+3.3V*%
X92193487Y-125913163D03*
%TO.P,U7,E4,IOL_8B*%
%TO.N,unconnected-(U7-PadE4)*%
X92547041Y-125559609D03*
%TO.P,U7,E11,IOR_146*%
%TO.N,/FPGA/DQ6*%
X95021914Y-123084736D03*
%TO.P,U7,E12,IOR_147*%
%TO.N,/FPGA/DQ12*%
X95375468Y-122731182D03*
%TO.P,U7,E14,IOR_148*%
%TO.N,/FPGA/DQ8*%
X96082575Y-122024075D03*
%TO.P,U7,F1,GND*%
%TO.N,GND*%
X91839934Y-126973823D03*
%TO.P,U7,F3,IOL_9B*%
%TO.N,/FPGA/IOL_9-*%
X92547041Y-126266716D03*
%TO.P,U7,F4,IOL_9A*%
%TO.N,/FPGA/IOL_9+*%
X92900594Y-125913163D03*
%TO.P,U7,F6,VCCIO_0*%
%TO.N,+3.3V*%
X93607701Y-125206056D03*
%TO.P,U7,F7,GND*%
%TO.N,GND*%
X93961254Y-124852503D03*
%TO.P,U7,F8,VCC*%
%TO.N,+1V2*%
X94314808Y-124498949D03*
%TO.P,U7,F9,VCCIO_1*%
%TO.N,+3.3V*%
X94668361Y-124145396D03*
%TO.P,U7,F11,IOR_144*%
%TO.N,/FPGA/A25*%
X95375468Y-123438289D03*
%TO.P,U7,F12,IOR_137*%
%TO.N,/FPGA/DQ14*%
X95729021Y-123084736D03*
%TO.P,U7,F14,IOR_140_GBIN3*%
%TO.N,/FPGA/DQ5*%
X96436128Y-122377629D03*
%TO.P,U7,G1,IOL_13B_GBIN7*%
%TO.N,/FPGA/IOL_13-*%
X92193487Y-127327376D03*
%TO.P,U7,G3,IOL_13A*%
%TO.N,/FPGA/IOL_13+*%
X92900594Y-126620270D03*
%TO.P,U7,G4,IOL_10B*%
%TO.N,unconnected-(U7-PadG4)*%
X93254147Y-126266716D03*
%TO.P,U7,G6,VCC*%
%TO.N,+1V2*%
X93961254Y-125559609D03*
%TO.P,U7,G7,GND*%
%TO.N,GND*%
X94314808Y-125206056D03*
%TO.P,U7,G8,GND*%
X94668361Y-124852503D03*
%TO.P,U7,G9,GND*%
X95021914Y-124498949D03*
%TO.P,U7,G11,IOR_136*%
%TO.N,/FPGA/A0*%
X95729021Y-123791842D03*
%TO.P,U7,G12,IOR_129*%
%TO.N,/FC.~{OE}*%
X96082575Y-123438289D03*
%TO.P,U7,G14,IOR_141_GBIN2*%
%TO.N,/FPGA/DQ10*%
X96789681Y-122731182D03*
%TO.P,U7,H1,IOL_14A_GBIN6*%
%TO.N,/FPGA/IOL_14+*%
X92547041Y-127680930D03*
%TO.P,U7,H3,IOL_14B*%
%TO.N,/FPGA/IOL_14-*%
X93254147Y-126973823D03*
%TO.P,U7,H4,IOL_10A*%
%TO.N,unconnected-(U7-PadH4)*%
X93607701Y-126620270D03*
%TO.P,U7,H6,GND*%
%TO.N,GND*%
X94314808Y-125913163D03*
%TO.P,U7,H7,GND*%
X94668361Y-125559609D03*
%TO.P,U7,H8,GND*%
X95021914Y-125206056D03*
%TO.P,U7,H9,VCC*%
%TO.N,+1V2*%
X95375468Y-124852503D03*
%TO.P,U7,H11,IOR_128*%
%TO.N,/FPGA/A24*%
X96082575Y-124145396D03*
%TO.P,U7,H12,IOR_120*%
%TO.N,/FPGA/DQ1*%
X96436128Y-123791842D03*
%TO.P,U7,H14,VCCIO_1*%
%TO.N,+3.3V*%
X97143235Y-123084736D03*
%TO.P,U7,J1,IOL_12B*%
%TO.N,/FPGA/IOL_12-*%
X92900594Y-128034483D03*
%TO.P,U7,J3,IOL_12A*%
%TO.N,/FPGA/IOL_12+*%
X93607701Y-127327376D03*
%TO.P,U7,J4,VCC*%
%TO.N,+1V2*%
X93961254Y-126973823D03*
%TO.P,U7,J6,VCCIO_3*%
%TO.N,+3.3V*%
X94668361Y-126266716D03*
%TO.P,U7,J7,VCC*%
%TO.N,+1V2*%
X95021914Y-125913163D03*
%TO.P,U7,J8,GND*%
%TO.N,GND*%
X95375468Y-125559609D03*
%TO.P,U7,J9,VCCIO_2*%
%TO.N,+3.3V*%
X95729021Y-125206056D03*
%TO.P,U7,J11,IOR_119*%
%TO.N,unconnected-(U7-PadJ11)*%
X96436128Y-124498949D03*
%TO.P,U7,J12,IOR_118*%
%TO.N,/FPGA/DQ7*%
X96789681Y-124145396D03*
%TO.P,U7,J14,GND*%
%TO.N,GND*%
X97496788Y-123438289D03*
%TO.P,U7,K1,VCCIO_3*%
%TO.N,+3.3V*%
X93254147Y-128388037D03*
%TO.P,U7,K3,IOL_18A*%
%TO.N,/FPGA/IOL_18+*%
X93961254Y-127680930D03*
%TO.P,U7,K4,IOL_18B*%
%TO.N,/FPGA/IOL_18-*%
X94314808Y-127327376D03*
%TO.P,U7,K11,IOR_116*%
%TO.N,/FC.~{CE}*%
X96789681Y-124852503D03*
%TO.P,U7,K12,IOR_115*%
%TO.N,/FPGA/DQ0*%
X97143235Y-124498949D03*
%TO.P,U7,K14,IOR_117*%
%TO.N,/FC.~{BYTE}*%
X97850342Y-123791842D03*
%TO.P,U7,L1,IOL_23A*%
%TO.N,/FPGA/IOL_23+*%
X93607701Y-128741590D03*
%TO.P,U7,L3,GND*%
%TO.N,GND*%
X94314808Y-128034483D03*
%TO.P,U7,L4,IOB_72*%
%TO.N,/QSPI.~{CS}*%
X94668361Y-127680930D03*
%TO.P,U7,L5,IOB_71*%
%TO.N,/QSPI.SCK*%
X95021914Y-127327376D03*
%TO.P,U7,L6,IOB_78*%
%TO.N,unconnected-(U7-PadL6)*%
X95375468Y-126973823D03*
%TO.P,U7,L7,GNDPLL0*%
%TO.N,/FPGA/GNDPLL0*%
X95729021Y-126620270D03*
%TO.P,U7,L8,IOB_87*%
%TO.N,/FPGA/IOB_87*%
X96082575Y-126266716D03*
%TO.P,U7,L9,IOB_103_CBSEL0*%
%TO.N,/FPGA/IOB_103_CBSEL0*%
X96436128Y-125913163D03*
%TO.P,U7,L10,~{CRESET}*%
%TO.N,/FPGA/~{CRESET}*%
X96789681Y-125559609D03*
%TO.P,U7,L11,VCC_SPI*%
%TO.N,+3.3V*%
X97143235Y-125206056D03*
%TO.P,U7,L12,IOR_111*%
%TO.N,/FPGA/DQ9*%
X97496788Y-124852503D03*
%TO.P,U7,L14,IOR_114*%
%TO.N,/FPGA/DQ3*%
X98203895Y-124145396D03*
%TO.P,U7,M1,IOL_23B*%
%TO.N,/FPGA/IOL_23-*%
X93961254Y-129095143D03*
%TO.P,U7,M3,IOB_64*%
%TO.N,/QSPI.IO0*%
X94668361Y-128388037D03*
%TO.P,U7,M4,IOB_63*%
%TO.N,/QSPI.IO1*%
X95021914Y-128034483D03*
%TO.P,U7,M5,VCCIO_2*%
%TO.N,+3.3V*%
X95375468Y-127680930D03*
%TO.P,U7,M6,IOB_77*%
%TO.N,unconnected-(U7-PadM6)*%
X95729021Y-127327376D03*
%TO.P,U7,M7,IOB_79*%
%TO.N,unconnected-(U7-PadM7)*%
X96082575Y-126973823D03*
%TO.P,U7,M8,VCCPLL0*%
%TO.N,/FPGA/VCCPLL0*%
X96436128Y-126620270D03*
%TO.P,U7,M9,IOB_91*%
%TO.N,/FPGA/IOB_91*%
X96789681Y-126266716D03*
%TO.P,U7,M10,CDONE*%
%TO.N,/FPGA/CDONE*%
X97143235Y-125913163D03*
%TO.P,U7,M11,IOB_105_SDO*%
%TO.N,/FPGA/FLASH.DO_IO1*%
X97496788Y-125559609D03*
%TO.P,U7,M12,IOR_109*%
%TO.N,/FPGA/IOR_109*%
X97850342Y-125206056D03*
%TO.P,U7,M14,NC*%
%TO.N,unconnected-(U7-PadM14)*%
X98557448Y-124498949D03*
%TO.P,U7,N1,IOL_25A*%
%TO.N,/FPGA/IOL_25+*%
X94314808Y-129448697D03*
%TO.P,U7,N14,IOR_112*%
%TO.N,/FPGA/DQ4*%
X98911002Y-124852503D03*
%TO.P,U7,P1,IOL_25B*%
%TO.N,/FPGA/IOL_25-*%
X94668361Y-129802250D03*
%TO.P,U7,P2,IOB_56*%
%TO.N,/QSPI.IO3*%
X95021914Y-129448697D03*
%TO.P,U7,P3,IOB_59*%
%TO.N,/QSPI.IO2*%
X95375468Y-129095143D03*
%TO.P,U7,P4,IOB_73*%
%TO.N,/FPGA/IOB_73*%
X95729021Y-128741590D03*
%TO.P,U7,P5,IOB_74*%
%TO.N,/FPGA/IOB_74*%
X96082575Y-128388037D03*
%TO.P,U7,P6,GND*%
%TO.N,GND*%
X96436128Y-128034483D03*
%TO.P,U7,P7,IOB_81_GBIN5*%
%TO.N,/FPGA/FPGA_CLK*%
X96789681Y-127680930D03*
%TO.P,U7,P8,IOB_82_GBIN4*%
%TO.N,/FPGA/IOB_82_GBIN4*%
X97143235Y-127327376D03*
%TO.P,U7,P9,IOB_89*%
%TO.N,/FPGA/IOB_89*%
X97496788Y-126973823D03*
%TO.P,U7,P10,IOB_104_CBSEL1*%
%TO.N,/FPGA/IOB_104_CBSEL1*%
X97850342Y-126620270D03*
%TO.P,U7,P11,IOB_106_SDI*%
%TO.N,/FPGA/FLASH.DI_IO0*%
X98203895Y-126266716D03*
%TO.P,U7,P12,IOB_107_SCK*%
%TO.N,/FPGA/FLASH.~{CS}*%
X98557448Y-125913163D03*
%TO.P,U7,P13,IOB_108_SS*%
%TO.N,/FPGA/FLASH.SCK*%
X98911002Y-125559609D03*
%TO.P,U7,P14,IOR_110*%
%TO.N,/FPGA/DQ13*%
X99264555Y-125206056D03*
%TD*%
D46*
%TO.P,D5,1,K*%
%TO.N,+3.3V*%
X76530000Y-128110000D03*
%TO.P,D5,2,A*%
%TO.N,GND*%
X76530000Y-126010000D03*
%TD*%
D47*
%TO.P,C1,1*%
%TO.N,+15V*%
X103250000Y-62800000D03*
%TO.P,C1,2*%
%TO.N,GND*%
X105150000Y-62800000D03*
%TD*%
D48*
%TO.P,U4,1,IN*%
%TO.N,+3.3V*%
X80222500Y-127710000D03*
%TO.P,U4,2,GND*%
%TO.N,GND*%
X80222500Y-128660000D03*
%TO.P,U4,3,EN*%
%TO.N,+3.3V*%
X80222500Y-129610000D03*
%TO.P,U4,4,NC*%
%TO.N,unconnected-(U4-Pad4)*%
X82497500Y-129610000D03*
%TO.P,U4,5,OUT*%
%TO.N,+1V2*%
X82497500Y-127710000D03*
%TD*%
D49*
%TO.N,GND*%
X74830000Y-126060000D03*
D50*
X106715000Y-111520000D03*
X103520000Y-113480000D03*
D49*
X74830000Y-123760000D03*
D50*
X103280000Y-113720000D03*
X76475000Y-113615000D03*
X100320000Y-111280000D03*
X83115000Y-113620000D03*
X103515000Y-111280000D03*
X116315000Y-111280000D03*
D49*
X82100000Y-49500000D03*
X101250000Y-55250000D03*
D50*
X116080000Y-113720000D03*
X113120000Y-113480000D03*
X113115000Y-111280000D03*
X107715000Y-154650000D03*
X86075000Y-113620000D03*
X106475000Y-111520000D03*
X109680000Y-113720000D03*
X76475000Y-111400000D03*
D49*
X83300000Y-56300000D03*
D50*
X100080000Y-113720000D03*
X79675000Y-111405000D03*
X89285000Y-111400000D03*
D49*
X103800000Y-124200000D03*
X120290000Y-101620000D03*
D50*
X103515000Y-111520000D03*
X93879937Y-128476425D03*
X103280000Y-113480000D03*
D49*
X119390000Y-105040000D03*
D50*
X79675000Y-113620000D03*
D49*
X75500000Y-171000000D03*
D50*
X89525000Y-113375000D03*
X105515000Y-144475000D03*
D49*
X102750000Y-55250000D03*
X83550000Y-143350000D03*
D50*
X86315000Y-111165000D03*
X82875000Y-111165000D03*
X116075000Y-111520000D03*
X106715000Y-111280000D03*
X112880000Y-113720000D03*
D51*
X88700000Y-89400000D03*
D50*
X100320000Y-111520000D03*
X117210000Y-111280000D03*
X107475000Y-154890000D03*
X94668361Y-125206056D03*
X79915000Y-113620000D03*
X105275000Y-154890000D03*
X107715000Y-144715000D03*
D49*
X110250000Y-55250000D03*
D50*
X79915000Y-113380000D03*
D49*
X74830000Y-124960000D03*
X83600000Y-158700000D03*
D51*
X82060000Y-128660000D03*
D50*
X106475000Y-111280000D03*
D49*
X107250000Y-55250000D03*
D50*
X79675000Y-111165000D03*
X107475000Y-144475000D03*
D49*
X106100000Y-61900000D03*
D50*
X93046512Y-129801715D03*
X116315000Y-111520000D03*
X90300000Y-128800000D03*
D49*
X117750000Y-65000000D03*
X83300000Y-49500000D03*
X73730000Y-122560000D03*
D50*
X79675000Y-113380000D03*
X76475000Y-111160000D03*
X109675000Y-111520000D03*
X96650000Y-128425000D03*
D51*
X82760000Y-128660000D03*
D49*
X77030000Y-123760000D03*
X71530000Y-122560000D03*
D50*
X109915000Y-111280000D03*
X105275000Y-144715000D03*
X106720000Y-113480000D03*
X94311272Y-126121760D03*
X106480000Y-113720000D03*
X82875000Y-113620000D03*
X89285000Y-111160000D03*
D49*
X77030000Y-122560000D03*
X72630000Y-122560000D03*
X73730000Y-124960000D03*
D50*
X83115000Y-111405000D03*
D51*
X82360000Y-131860000D03*
D50*
X86075000Y-111405000D03*
X104400000Y-111520000D03*
X100080000Y-111520000D03*
D51*
X84360000Y-130460000D03*
D50*
X100320000Y-113720000D03*
D49*
X83300000Y-48300000D03*
D50*
X86315000Y-113620000D03*
X99825000Y-125600000D03*
X76715000Y-113375000D03*
D49*
X108750000Y-55250000D03*
D50*
X79915000Y-111165000D03*
D49*
X83700000Y-153550000D03*
D50*
X106720000Y-113720000D03*
X73515000Y-113615000D03*
X89285000Y-113375000D03*
D49*
X118500000Y-100350000D03*
D50*
X89525000Y-111160000D03*
D51*
X83660000Y-130460000D03*
D49*
X73730000Y-123760000D03*
D50*
X105515000Y-154890000D03*
D49*
X82100000Y-47100000D03*
D50*
X100080000Y-111280000D03*
X86315000Y-113380000D03*
X106480000Y-113480000D03*
X109920000Y-113720000D03*
D51*
X82360000Y-131160000D03*
D50*
X82875000Y-113380000D03*
D49*
X104250000Y-55250000D03*
D50*
X100080000Y-113480000D03*
X76715000Y-113615000D03*
D49*
X117750000Y-60000000D03*
X74830000Y-122560000D03*
D50*
X112875000Y-111520000D03*
X92098982Y-121576018D03*
X73275000Y-111160000D03*
X112880000Y-113480000D03*
X95576993Y-125563145D03*
X89525000Y-113615000D03*
X107715000Y-154890000D03*
X73275000Y-113615000D03*
X113115000Y-111520000D03*
X73515000Y-111400000D03*
X97075000Y-118075000D03*
X107715000Y-144475000D03*
D49*
X83550000Y-138150000D03*
X75930000Y-124960000D03*
X109480000Y-129010000D03*
D50*
X107475000Y-154650000D03*
D49*
X82100000Y-55100000D03*
D50*
X86075000Y-111165000D03*
D49*
X82100000Y-57500000D03*
D50*
X112875000Y-111280000D03*
D51*
X102425000Y-131350000D03*
D49*
X75930000Y-122560000D03*
D50*
X100320000Y-113480000D03*
D49*
X92000000Y-104200000D03*
X105750000Y-55250000D03*
D50*
X103275000Y-111520000D03*
X79915000Y-111405000D03*
D49*
X83300000Y-47100000D03*
D50*
X98483203Y-122451875D03*
X76715000Y-111400000D03*
D49*
X73730000Y-126060000D03*
D50*
X105515000Y-154650000D03*
D51*
X116600000Y-174300000D03*
D50*
X116080000Y-113480000D03*
X73275000Y-111400000D03*
X73515000Y-113375000D03*
X103275000Y-111280000D03*
X109920000Y-113480000D03*
X89285000Y-113615000D03*
X109680000Y-113480000D03*
D49*
X83300000Y-57500000D03*
D50*
X76715000Y-111160000D03*
D49*
X75930000Y-123760000D03*
D50*
X105515000Y-144715000D03*
X86315000Y-111405000D03*
X89525000Y-111400000D03*
X116320000Y-113720000D03*
X73275000Y-113375000D03*
X83115000Y-113380000D03*
X76475000Y-113375000D03*
X103520000Y-113720000D03*
X73515000Y-111160000D03*
X89820000Y-123910000D03*
X82875000Y-111405000D03*
X105275000Y-144475000D03*
X105275000Y-154650000D03*
D49*
X83300000Y-55100000D03*
X77030000Y-124960000D03*
D51*
X81360000Y-128660000D03*
D50*
X93759729Y-124848967D03*
X116320000Y-113480000D03*
X83115000Y-111165000D03*
X109915000Y-111520000D03*
X95025450Y-124290353D03*
X107475000Y-144715000D03*
D49*
X96200000Y-132550000D03*
D50*
X86075000Y-113380000D03*
X113120000Y-113720000D03*
X109675000Y-111280000D03*
X116075000Y-111280000D03*
D49*
%TO.N,+3.3V*%
X121600000Y-97900000D03*
D50*
X90600000Y-132000000D03*
D49*
X73730000Y-129160000D03*
X98750000Y-135700000D03*
X77030000Y-129160000D03*
D51*
X113500000Y-120250000D03*
D50*
X91892804Y-125992804D03*
D49*
X75930000Y-130260000D03*
X74830000Y-129160000D03*
D50*
X91100000Y-132500000D03*
X97344760Y-125209592D03*
D49*
X72630000Y-131360000D03*
X73730000Y-130260000D03*
X122500000Y-97000000D03*
D50*
X91100000Y-132000000D03*
X94671897Y-126538953D03*
X91650000Y-129960000D03*
D49*
X73730000Y-128160000D03*
D51*
X105175000Y-123800000D03*
D50*
X93000000Y-131200000D03*
X97500000Y-130400000D03*
D49*
X74830000Y-128160000D03*
D50*
X90500000Y-127400000D03*
X95810338Y-128115801D03*
D49*
X77030000Y-130260000D03*
D50*
X90600000Y-132500000D03*
D49*
X122500000Y-97900000D03*
D50*
X93377891Y-125202521D03*
D49*
X121600000Y-97000000D03*
D50*
X94664825Y-123943871D03*
X96001257Y-125209592D03*
D49*
X74830000Y-130260000D03*
D50*
X88400000Y-129200000D03*
D51*
X113500000Y-121700000D03*
D49*
X75930000Y-131360000D03*
D50*
X95289112Y-119989112D03*
X88400000Y-130600000D03*
X98700000Y-121300000D03*
D49*
X74830000Y-131360000D03*
X71530000Y-131360000D03*
X77030000Y-131360000D03*
D51*
X106125000Y-124750000D03*
D49*
X73730000Y-131360000D03*
X75930000Y-129160000D03*
D50*
X90850000Y-121220000D03*
D49*
X105600000Y-121700000D03*
D51*
X89650000Y-86800000D03*
D50*
%TO.N,+1V2*%
X93766800Y-125563145D03*
X95569922Y-124848967D03*
D49*
X85700000Y-126300000D03*
D50*
X94318343Y-124304495D03*
D49*
X83300000Y-126300000D03*
D50*
X93957719Y-127168278D03*
D49*
X82100000Y-126300000D03*
X85700000Y-127300000D03*
D50*
X95018379Y-126107618D03*
D49*
X84500000Y-126300000D03*
X85700000Y-128300000D03*
X85700000Y-134300000D03*
X87150000Y-118600000D03*
%TO.N,+15V*%
X101600000Y-58700000D03*
X77000000Y-86900000D03*
X90500000Y-95100000D03*
X78000000Y-87900000D03*
X77000000Y-87900000D03*
X80100000Y-58700000D03*
X117000000Y-97200000D03*
X78000000Y-86900000D03*
X90500000Y-96100000D03*
X89500000Y-96100000D03*
X89500000Y-95100000D03*
%TO.N,-15V*%
X95600000Y-95900000D03*
X94600000Y-94900000D03*
X94600000Y-95900000D03*
X95600000Y-94900000D03*
X85100000Y-81100000D03*
X85100000Y-83100000D03*
X80020000Y-47140000D03*
X85100000Y-82100000D03*
D50*
%TO.N,/FPGA/A11*%
X94680000Y-121610000D03*
X88900000Y-115000000D03*
%TO.N,/FPGA/A9*%
X92345515Y-124848967D03*
X83430000Y-124240000D03*
%TO.N,/FPGA/A8*%
X94176922Y-122239743D03*
X88400000Y-115000000D03*
%TO.N,/FPGA/A21*%
X91405063Y-124417632D03*
X84890000Y-124210000D03*
%TO.N,/FPGA/A20*%
X92055601Y-124361064D03*
X84240000Y-124230000D03*
%TO.N,/CE_SW*%
X92200000Y-73700000D03*
X114225000Y-74800000D03*
%TO.N,/FPGA/A7*%
X93052622Y-124141861D03*
X83500000Y-115000000D03*
%TO.N,/FPGA/A4*%
X92112170Y-123710526D03*
X82500000Y-115000000D03*
%TO.N,/FPGA/A18*%
X92699069Y-124495414D03*
X85510000Y-124210000D03*
%TO.N,/FPGA/A17*%
X86700000Y-115000000D03*
X93526384Y-122296312D03*
%TO.N,/FPGA/A0*%
X108800000Y-115000000D03*
X95732557Y-123597388D03*
%TO.N,/FPGA/A14*%
X89900000Y-115000000D03*
X94671897Y-122536728D03*
%TO.N,/RY{slash}~{BY}*%
X92762708Y-123653957D03*
X84000000Y-115000000D03*
%TO.N,/FPGA/DQ0*%
X97281121Y-124368135D03*
X113500000Y-115000000D03*
%TO.N,/FPGA/DQ1*%
X110300000Y-115000000D03*
X96566943Y-123653957D03*
%TO.N,/FC.~{OE}*%
X109300000Y-115000000D03*
X96524516Y-123003419D03*
%TO.N,/FC.~{WE}*%
X87200000Y-115000000D03*
X94311272Y-122883211D03*
%TO.N,/FPGA/DQ6*%
X100700000Y-115000000D03*
X95018379Y-122883211D03*
%TO.N,/FPGA/DQ7*%
X112500000Y-115000000D03*
X97224552Y-123703454D03*
%TO.N,/FC.~{CE}*%
X96991207Y-124856039D03*
D49*
%TO.N,/WP_BUF*%
X95500000Y-91750000D03*
D50*
%TO.N,/FPGA/DQ9*%
X114000000Y-115000000D03*
X97931659Y-124410561D03*
%TO.N,/FPGA/DQ12*%
X95782054Y-122303383D03*
X101200000Y-115000000D03*
%TO.N,/FPGA/DQ14*%
X106100000Y-115000000D03*
X95859836Y-122946850D03*
%TO.N,/FPGA/DQ15*%
X99700000Y-115000000D03*
X95152729Y-122239743D03*
%TO.N,/~{MCU_RESET}*%
X73800000Y-163700000D03*
%TO.N,/FPGA/VCCPLL0*%
X96574014Y-126758156D03*
%TO.N,/FPGA/GNDPLL0*%
X95732557Y-126821795D03*
%TO.N,/FPGA/VCCPLL1*%
X92819277Y-123003419D03*
%TO.N,/FPGA/GNDPLL1*%
X93400000Y-123790000D03*
%TO.N,/FPGA/IOL_9+*%
X88550000Y-127972200D03*
X92699069Y-125909628D03*
%TO.N,/FPGA/IOL_9-*%
X88550000Y-128327800D03*
X92409155Y-126397531D03*
%TO.N,/FPGA/IOL_12+*%
X92300000Y-128350000D03*
X93165759Y-127762247D03*
%TO.N,/FPGA/IOL_13+*%
X89900000Y-129850000D03*
X92458652Y-127055141D03*
%TO.N,/FPGA/IOL_14-*%
X90550000Y-130550000D03*
X93116262Y-127104638D03*
%TO.N,/FPGA/IOL_18+*%
X91922200Y-131850000D03*
X93823368Y-127811745D03*
%TO.N,/FPGA/IOL_18-*%
X92277800Y-131850000D03*
X94304201Y-127514760D03*
%TO.N,/FPGA/IOB_87*%
X102800000Y-130150000D03*
X96277029Y-126263181D03*
%TO.N,/FPGA/~{CRESET}*%
X96991207Y-125563145D03*
D49*
%TO.N,/ANA_WP_SENSE*%
X98925000Y-93350000D03*
%TO.N,/ANA_WP*%
X97950000Y-96350000D03*
D50*
%TO.N,/FPGA/FLASH.~{CS}*%
X105130000Y-125420000D03*
%TO.N,/FPGA/FLASH.SCK*%
X108220000Y-123310000D03*
X99413048Y-125559610D03*
%TO.N,/FPGA/FLASH.DI_IO0*%
X109470000Y-124580000D03*
X102700000Y-126660000D03*
%TO.N,/FPGA/FLASH.DO_IO1*%
X106940000Y-126270000D03*
X97917517Y-125994480D03*
%TO.N,/FPGA/FLASH.~{RST}_IO3*%
X107850000Y-126240000D03*
%TO.N,/FPGA/IOB_91*%
X97224552Y-126701587D03*
X103350000Y-130150000D03*
%TO.N,/FPGA/CDONE*%
X97281121Y-126051049D03*
X100975000Y-126325000D03*
%TO.N,/FPGA/A25*%
X95371932Y-123236764D03*
X105600000Y-115000000D03*
%TO.N,/FPGA/A24*%
X96284100Y-124148932D03*
X110800000Y-115000000D03*
%TO.N,/FPGA/IOB_103_CBSEL0*%
X98799222Y-127284840D03*
X96637653Y-125916699D03*
%TO.N,/QSPI.IO2*%
X93025000Y-135475000D03*
%TO.N,/QSPI.~{CS}*%
X105425000Y-129725000D03*
X94671897Y-127882456D03*
%TO.N,/QSPI.IO3*%
X93025000Y-135000000D03*
%TO.N,/QSPI.SCK*%
X105550000Y-129100000D03*
X95025450Y-127528902D03*
%TO.N,/QSPI.IO1*%
X95145658Y-128172369D03*
X75160000Y-132950000D03*
X92690000Y-132130000D03*
%TO.N,/QSPI.IO0*%
X77290000Y-133380000D03*
X93100000Y-132150000D03*
X95103232Y-128822908D03*
%TO.N,/FPGA/IOR_109*%
X97988227Y-125075242D03*
%TO.N,/FPGA/IOT_188*%
X93957719Y-123236764D03*
%TD*%
D52*
%TO.N,GND*%
X110250000Y-55250000D02*
X110250000Y-54375000D01*
X84650000Y-143350000D02*
X83550000Y-143350000D01*
X84650000Y-138200000D02*
X83600000Y-138200000D01*
D53*
X70296300Y-168752100D02*
X70296300Y-173247900D01*
D54*
X97496788Y-123438289D02*
X98483203Y-122451875D01*
X94668361Y-125559609D02*
X95019609Y-125559609D01*
D53*
X105750000Y-61550000D02*
X106100000Y-61900000D01*
D54*
X90715499Y-128384501D02*
X90300000Y-128800000D01*
X117200000Y-112112500D02*
X117200000Y-112887500D01*
X95021914Y-124858086D02*
X95021914Y-125206056D01*
X90733312Y-128080445D02*
X90733312Y-128384501D01*
X93879937Y-128469354D02*
X93879937Y-128476425D01*
X94314808Y-125206056D02*
X94668361Y-125206056D01*
X90733312Y-128384501D02*
X90715499Y-128384501D01*
X95021914Y-125206056D02*
X94668361Y-125206056D01*
D55*
X76600000Y-112050000D02*
X76600000Y-112812500D01*
D54*
X95379003Y-125563145D02*
X95576993Y-125563145D01*
D52*
X85412500Y-153500000D02*
X84650000Y-153500000D01*
X83600000Y-138200000D02*
X83550000Y-138150000D01*
D54*
X96560000Y-118570000D02*
X97055000Y-118075000D01*
X95025450Y-124495414D02*
X95025450Y-124290353D01*
D52*
X101250000Y-55250000D02*
X110250000Y-55250000D01*
D54*
X96436128Y-128211128D02*
X96650000Y-128425000D01*
X104400000Y-112112500D02*
X104400000Y-111520000D01*
D53*
X105750000Y-59025000D02*
X105750000Y-61550000D01*
D54*
X95375468Y-125559610D02*
X95379003Y-125563145D01*
D52*
X102750000Y-52875000D02*
X105750000Y-49875000D01*
D54*
X94319225Y-125559609D02*
X94668361Y-125559609D01*
D52*
X101598008Y-130671992D02*
X101746992Y-130671992D01*
D54*
X94314808Y-125913163D02*
X94311272Y-125916699D01*
D52*
X119087500Y-60000000D02*
X117750000Y-60000000D01*
D54*
X94314808Y-125206056D02*
X94314808Y-125555192D01*
X117200000Y-111290000D02*
X117210000Y-111280000D01*
X117200000Y-112112500D02*
X117200000Y-111290000D01*
D52*
X84650000Y-158700000D02*
X83600000Y-158700000D01*
D54*
X94668361Y-124852503D02*
X94317497Y-124852503D01*
X104400000Y-112112500D02*
X104400000Y-112887500D01*
X94317497Y-124852503D02*
X93961254Y-124852503D01*
D52*
X83750000Y-153500000D02*
X83700000Y-153550000D01*
D54*
X98483203Y-122451875D02*
X99027674Y-122451875D01*
D52*
X75475000Y-166250000D02*
X75475000Y-170975000D01*
X85412500Y-158700000D02*
X84650000Y-158700000D01*
D54*
X92900594Y-122377629D02*
X92098982Y-121576018D01*
X95021914Y-124498950D02*
X95025450Y-124495414D01*
X92663713Y-130314903D02*
X93046512Y-129932104D01*
X95016331Y-124852503D02*
X95021914Y-124858086D01*
D52*
X109485000Y-127510000D02*
X109485000Y-129005000D01*
X100200000Y-112912500D02*
X100200000Y-112150000D01*
X95750000Y-131612679D02*
X96506485Y-130856194D01*
D53*
X70342600Y-171000000D02*
X70296300Y-170953700D01*
D54*
X94314808Y-125555192D02*
X94319225Y-125559609D01*
D53*
X75500000Y-171000000D02*
X70342600Y-171000000D01*
D52*
X75475000Y-170975000D02*
X75500000Y-171000000D01*
X113000000Y-112150000D02*
X113000000Y-112912500D01*
X116200000Y-112150000D02*
X116200000Y-112912500D01*
X85412500Y-143350000D02*
X84650000Y-143350000D01*
D54*
X94668361Y-125206056D02*
X94668361Y-125559609D01*
D52*
X110250000Y-54375000D02*
X105750000Y-49875000D01*
X84650000Y-153500000D02*
X83750000Y-153500000D01*
D54*
X94311272Y-125916699D02*
X94311272Y-126121760D01*
D52*
X104250000Y-51375000D02*
X105750000Y-49875000D01*
D54*
X97055000Y-118075000D02*
X97075000Y-118075000D01*
X95021914Y-125557304D02*
X95021914Y-125206056D01*
D53*
X105750000Y-55250000D02*
X105750000Y-49875000D01*
D52*
X108750000Y-55250000D02*
X108750000Y-52875000D01*
D53*
X78703700Y-171000000D02*
X75500000Y-171000000D01*
D52*
X101250000Y-54375000D02*
X105750000Y-49875000D01*
X103400000Y-112150000D02*
X103400000Y-112912500D01*
X107250000Y-51375000D02*
X105750000Y-49875000D01*
X101250000Y-55250000D02*
X101250000Y-54375000D01*
D54*
X95019609Y-125559609D02*
X95375468Y-125559609D01*
X94668361Y-124852503D02*
X94668361Y-125206056D01*
D53*
X105750000Y-59025000D02*
X105750000Y-55250000D01*
D52*
X104250000Y-55250000D02*
X104250000Y-51375000D01*
X109800000Y-112150000D02*
X109800000Y-112912500D01*
X102750000Y-55250000D02*
X102750000Y-52875000D01*
D54*
X93957719Y-124848967D02*
X93759729Y-124848967D01*
X94314808Y-124855192D02*
X94317497Y-124852503D01*
X93046512Y-129932104D02*
X93046512Y-129801715D01*
D52*
X96200000Y-132550000D02*
X95750000Y-132100000D01*
D54*
X94314808Y-128034484D02*
X93879937Y-128469354D01*
X92098982Y-121576018D02*
X91829327Y-121306363D01*
D52*
X101746992Y-130671992D02*
X102425000Y-131350000D01*
D54*
X95021914Y-124498949D02*
X95021914Y-124858086D01*
X91829327Y-121306363D02*
X91829327Y-120966951D01*
X94314808Y-125555192D02*
X94314808Y-125913163D01*
D52*
X80222500Y-128660000D02*
X81360000Y-128660000D01*
X103790000Y-124190000D02*
X103800000Y-124200000D01*
D54*
X91839934Y-126973823D02*
X90733312Y-128080445D01*
D52*
X116600000Y-172987500D02*
X116600000Y-174300000D01*
D54*
X96436128Y-128034483D02*
X96436128Y-128211128D01*
X94314808Y-125206056D02*
X94314808Y-124855192D01*
D52*
X95750000Y-132100000D02*
X95750000Y-131612679D01*
D54*
X93961254Y-124852503D02*
X93957719Y-124848967D01*
D52*
X103790000Y-123215000D02*
X103790000Y-124190000D01*
X107250000Y-55250000D02*
X107250000Y-51375000D01*
X109485000Y-129005000D02*
X109480000Y-129010000D01*
X119087500Y-65000000D02*
X117750000Y-65000000D01*
D54*
X94668361Y-124852503D02*
X95016331Y-124852503D01*
D52*
X106600000Y-112150000D02*
X106600000Y-112912500D01*
D54*
X95019609Y-125559609D02*
X95021914Y-125557304D01*
D52*
X85412500Y-138200000D02*
X84650000Y-138200000D01*
X108750000Y-52875000D02*
X105750000Y-49875000D01*
D54*
%TO.N,+3.3V*%
X97341225Y-125206056D02*
X97344760Y-125209592D01*
X98348852Y-121651148D02*
X98700000Y-121300000D01*
X94671897Y-126538953D02*
X94664825Y-126270252D01*
X91972445Y-125913163D02*
X91892804Y-125992804D01*
D52*
X98762031Y-135700000D02*
X98750000Y-135700000D01*
D54*
X90194321Y-127705679D02*
X90500000Y-127400000D01*
X94664825Y-126270252D02*
X94668361Y-126266717D01*
X98348852Y-121773053D02*
X98348852Y-121651148D01*
X95732557Y-125202521D02*
X95729021Y-125206056D01*
X97143235Y-125206056D02*
X97341225Y-125206056D01*
X94668361Y-124145396D02*
X94678968Y-124134790D01*
X95289112Y-119989112D02*
X95881178Y-119397045D01*
X96001257Y-125209592D02*
X95732557Y-125202521D01*
X95881178Y-119397045D02*
X95881178Y-119248822D01*
X91150505Y-121645774D02*
X91150505Y-121520505D01*
X91150505Y-121645774D02*
X91405063Y-121645774D01*
D56*
X92450000Y-163750000D02*
X96340000Y-159860000D01*
D52*
X103790000Y-121665000D02*
X105565000Y-121665000D01*
D54*
X98348852Y-121879119D02*
X98348852Y-121773053D01*
X97143235Y-123084736D02*
X98348852Y-121879119D01*
X92547041Y-122731183D02*
X91433347Y-121617489D01*
X91150505Y-121520505D02*
X90850000Y-121220000D01*
D53*
X69140000Y-129160000D02*
X72130000Y-129160000D01*
D54*
X95375468Y-127680930D02*
X95810338Y-128115801D01*
X93254147Y-128388037D02*
X92006104Y-129636080D01*
D53*
X68070000Y-93280000D02*
X69140000Y-94350000D01*
D54*
X92193487Y-125913163D02*
X91972445Y-125913163D01*
D52*
X105600000Y-121700000D02*
X105675000Y-121625000D01*
D54*
X92006104Y-129636080D02*
X91984891Y-129636080D01*
D52*
X98309961Y-133960038D02*
X99405977Y-135056054D01*
D56*
X96340000Y-159860000D02*
X109950000Y-159860000D01*
D52*
X99405977Y-135056054D02*
X98762031Y-135700000D01*
D54*
X91973919Y-129636081D02*
X91650000Y-129960000D01*
X94668361Y-120609862D02*
X95289112Y-119989112D01*
X91984891Y-129636081D02*
X91973919Y-129636081D01*
X90054490Y-127705679D02*
X90194321Y-127705679D01*
D53*
X69140000Y-94350000D02*
X69140000Y-129160000D01*
X66540000Y-93280000D02*
X68070000Y-93280000D01*
D54*
X93607701Y-125206056D02*
X93590023Y-125188379D01*
X91405063Y-121645774D02*
X91433347Y-121617489D01*
D52*
X105675000Y-121625000D02*
X105675000Y-120310000D01*
D56*
X80325000Y-163750000D02*
X92450000Y-163750000D01*
D54*
X93590023Y-125188379D02*
X93392033Y-125188379D01*
X94678968Y-124134790D02*
X94678968Y-123958013D01*
D52*
X105565000Y-121665000D02*
X105600000Y-121700000D01*
D54*
%TO.N,+1V2*%
X93957719Y-125563145D02*
X93766800Y-125563145D01*
X95018379Y-125916699D02*
X95018379Y-126107618D01*
X93961254Y-125559610D02*
X93957719Y-125563145D01*
X94318343Y-124495414D02*
X94318343Y-124304495D01*
X94314808Y-124498950D02*
X94318343Y-124495414D01*
X93961254Y-126973823D02*
X93957719Y-126977359D01*
X95021914Y-125913163D02*
X95018379Y-125916699D01*
X93957719Y-126977359D02*
X93957719Y-127168278D01*
X95379003Y-124848967D02*
X95569922Y-124848967D01*
X95375468Y-124852503D02*
X95379003Y-124848967D01*
D52*
X85700000Y-128300000D02*
X85700000Y-134300000D01*
%TO.N,+15V*%
X103210000Y-59025000D02*
X103210000Y-62760000D01*
D53*
X117000000Y-97200000D02*
X117000000Y-89900000D01*
X91300000Y-96900000D02*
X90500000Y-96100000D01*
D52*
X103210000Y-62760000D02*
X103250000Y-62800000D01*
D53*
X90100000Y-94700000D02*
X90500000Y-95100000D01*
X95500000Y-101800000D02*
X92700000Y-101800000D01*
X79900000Y-87700000D02*
X85200000Y-87700000D01*
X92700000Y-101800000D02*
X91300000Y-100400000D01*
X85200000Y-87700000D02*
X90100000Y-92600000D01*
X116900000Y-89800000D02*
X107500000Y-89800000D01*
X77700000Y-58700000D02*
X77700000Y-85700000D01*
D52*
X101600000Y-58700000D02*
X102885000Y-58700000D01*
D53*
X117000000Y-89900000D02*
X116900000Y-89800000D01*
X90100000Y-92600000D02*
X90100000Y-94700000D01*
X107500000Y-89800000D02*
X95500000Y-101800000D01*
D52*
X102885000Y-58700000D02*
X103210000Y-59025000D01*
D53*
X91300000Y-100400000D02*
X91300000Y-96900000D01*
%TO.N,-15V*%
X85100000Y-83800000D02*
X94900000Y-93600000D01*
X85100000Y-52600000D02*
X85100000Y-81100000D01*
X77700000Y-50700000D02*
X77700000Y-52600000D01*
X85100000Y-81100000D02*
X85100000Y-83800000D01*
X77700000Y-52600000D02*
X85100000Y-52600000D01*
X94900000Y-93600000D02*
X94900000Y-94600000D01*
X94900000Y-94600000D02*
X94600000Y-94900000D01*
D57*
%TO.N,/ANA_CE*%
X108425000Y-62800000D02*
X108425000Y-70595000D01*
X108290000Y-59025000D02*
X108290000Y-62665000D01*
X108290000Y-62665000D02*
X108425000Y-62800000D01*
D53*
%TO.N,/-15V_IN*%
X63960000Y-57510000D02*
X63960000Y-54340000D01*
X69300000Y-49000000D02*
X71600000Y-49000000D01*
X63960000Y-54340000D02*
X69300000Y-49000000D01*
%TO.N,/+15V_IN*%
X71700000Y-57000000D02*
X67010000Y-57000000D01*
X67010000Y-57000000D02*
X66500000Y-57510000D01*
D55*
%TO.N,/FPGA/A11*%
X88900000Y-112775000D02*
X88900000Y-99755000D01*
D54*
X88900000Y-115000000D02*
X88900000Y-112775000D01*
D55*
X88900000Y-99755000D02*
X83694258Y-94549258D01*
D54*
X94668361Y-121621639D02*
X94680000Y-121610000D01*
X94668361Y-122024075D02*
X94668361Y-121621639D01*
D55*
%TO.N,/FPGA/A10*%
X78900000Y-96543516D02*
X78900000Y-108000000D01*
X80394258Y-95049258D02*
X78900000Y-96543516D01*
D54*
X80300000Y-115000000D02*
X80300000Y-112787500D01*
X91486380Y-123791843D02*
X90634317Y-122939779D01*
D55*
X80300000Y-109400000D02*
X80300000Y-112012500D01*
D54*
X88239779Y-122939779D02*
X80300000Y-115000000D01*
D55*
X78900000Y-108000000D02*
X80300000Y-109400000D01*
D54*
X90634317Y-122939779D02*
X88239779Y-122939779D01*
D55*
X80300000Y-112012500D02*
X80300000Y-112787500D01*
%TO.N,/FPGA/A9*%
X73700000Y-98943516D02*
X77094258Y-95549258D01*
D54*
X73900000Y-114710000D02*
X73900000Y-112787500D01*
D55*
X73900000Y-110900000D02*
X73700000Y-110700000D01*
X73900000Y-112012500D02*
X73900000Y-112787500D01*
X73700000Y-110700000D02*
X73700000Y-98943516D01*
D54*
X92349051Y-124852503D02*
X92345515Y-124848967D01*
X92547041Y-124852503D02*
X92349051Y-124852503D01*
D55*
X73900000Y-112012500D02*
X73900000Y-110900000D01*
D54*
X83430000Y-124240000D02*
X73900000Y-114710000D01*
%TO.N,/FPGA/A8*%
X94314808Y-122377629D02*
X94176922Y-122239743D01*
D55*
X88400000Y-100755000D02*
X83694258Y-96049258D01*
D54*
X88400000Y-115000000D02*
X88400000Y-112775000D01*
D55*
X88400000Y-112775000D02*
X88400000Y-100755000D01*
D54*
%TO.N,/FPGA/A23*%
X93765032Y-121316969D02*
X90400000Y-117951937D01*
D55*
X90400000Y-112775000D02*
X90400000Y-98255000D01*
D54*
X90400000Y-117951937D02*
X90400000Y-112775000D01*
D55*
X90400000Y-98255000D02*
X83694258Y-91549258D01*
D54*
X93961254Y-121316969D02*
X93765032Y-121316969D01*
D55*
%TO.N,/FPGA/A22*%
X80394258Y-92049258D02*
X78000000Y-94443516D01*
X78000000Y-108500000D02*
X78800000Y-109300000D01*
X78800000Y-112012500D02*
X78800000Y-112787500D01*
D54*
X90206175Y-123576175D02*
X87366175Y-123576175D01*
D55*
X78000000Y-94443516D02*
X78000000Y-108500000D01*
D54*
X90779274Y-124498949D02*
X90779274Y-124149274D01*
X90779274Y-124149274D02*
X90206175Y-123576175D01*
X87366175Y-123576175D02*
X78800000Y-115010000D01*
X78800000Y-115010000D02*
X78800000Y-112787500D01*
D55*
X78800000Y-109300000D02*
X78800000Y-112012500D01*
%TO.N,/FPGA/A21*%
X74700000Y-110500000D02*
X75600000Y-111400000D01*
X75600000Y-111400000D02*
X75600000Y-112012500D01*
D54*
X75600000Y-114920000D02*
X75600000Y-112787500D01*
D55*
X77094258Y-98549258D02*
X74700000Y-100943516D01*
X74700000Y-100943516D02*
X74700000Y-110500000D01*
D54*
X84890000Y-124210000D02*
X75600000Y-114920000D01*
X91839934Y-124852503D02*
X91405063Y-124417632D01*
D55*
X75600000Y-112012500D02*
X75600000Y-112787500D01*
%TO.N,/FPGA/A20*%
X74400000Y-112012500D02*
X74400000Y-110900000D01*
D54*
X74400000Y-114390000D02*
X74400000Y-112787500D01*
D55*
X74400000Y-110900000D02*
X74200000Y-110700000D01*
X74400000Y-112012500D02*
X74400000Y-112787500D01*
D54*
X84240000Y-124230000D02*
X74400000Y-114390000D01*
X92193487Y-124498950D02*
X92055601Y-124361064D01*
D55*
X74200000Y-99943516D02*
X77094258Y-97049258D01*
X74200000Y-110700000D02*
X74200000Y-99943516D01*
%TO.N,/CE_SW*%
X113125000Y-73700000D02*
X114225000Y-74800000D01*
X92200000Y-73700000D02*
X113125000Y-73700000D01*
D54*
%TO.N,/FPGA/A7*%
X93056158Y-124145396D02*
X93052622Y-124141861D01*
D55*
X83500000Y-108900000D02*
X83500000Y-112787500D01*
X81900000Y-107300000D02*
X83500000Y-108900000D01*
D54*
X83500000Y-115000000D02*
X83500000Y-112787500D01*
D55*
X80394258Y-101049258D02*
X81900000Y-102555000D01*
X81900000Y-102555000D02*
X81900000Y-107300000D01*
D54*
X93254147Y-124145396D02*
X93056158Y-124145396D01*
D55*
%TO.N,/FPGA/A6*%
X77100000Y-112012500D02*
X77100000Y-110950000D01*
D54*
X89135250Y-124269140D02*
X86369140Y-124269140D01*
D55*
X75700000Y-109550000D02*
X75700000Y-102943516D01*
X75700000Y-102943516D02*
X77094258Y-101549258D01*
X77100000Y-110950000D02*
X75700000Y-109550000D01*
X77100000Y-112012500D02*
X77100000Y-112787500D01*
D54*
X90072167Y-125206056D02*
X89135250Y-124269140D01*
X86369140Y-124269140D02*
X77100000Y-115000000D01*
X77100000Y-115000000D02*
X77100000Y-112787500D01*
D55*
%TO.N,/FPGA/A5*%
X85700000Y-112787500D02*
X85700000Y-104055000D01*
D54*
X87467179Y-115530000D02*
X86370000Y-115530000D01*
X86370000Y-115530000D02*
X85700000Y-114860000D01*
X85700000Y-114860000D02*
X85700000Y-112787500D01*
X93607701Y-121670522D02*
X87467179Y-115530000D01*
D55*
X85700000Y-104055000D02*
X83694258Y-102049258D01*
%TO.N,/FPGA/A4*%
X82500000Y-112012500D02*
X82500000Y-112787500D01*
D54*
X82500000Y-115000000D02*
X82500000Y-112787500D01*
D55*
X81400000Y-107600000D02*
X82500000Y-108700000D01*
X80394258Y-102549258D02*
X81400000Y-103555000D01*
X82500000Y-108700000D02*
X82500000Y-112012500D01*
D54*
X92547041Y-124145396D02*
X92112170Y-123710526D01*
D55*
X81400000Y-103555000D02*
X81400000Y-107600000D01*
%TO.N,/FPGA/A19*%
X80800000Y-109200000D02*
X80800000Y-112012500D01*
D54*
X91839934Y-123438289D02*
X90973728Y-122572084D01*
X80800000Y-115010000D02*
X80800000Y-112787500D01*
D55*
X79400000Y-107800000D02*
X80800000Y-109200000D01*
X80800000Y-112012500D02*
X80800000Y-112787500D01*
D54*
X88362084Y-122572084D02*
X80800000Y-115010000D01*
D55*
X80394258Y-96549258D02*
X79400000Y-97543516D01*
D54*
X90973728Y-122572084D02*
X88362084Y-122572084D01*
D55*
X79400000Y-97543516D02*
X79400000Y-107800000D01*
%TO.N,/FPGA/A18*%
X76100000Y-112012500D02*
X76100000Y-112787500D01*
D54*
X92900594Y-124498950D02*
X92702604Y-124498950D01*
D55*
X76100000Y-111200000D02*
X76100000Y-112012500D01*
D54*
X85510000Y-124210000D02*
X76100000Y-114800000D01*
X92702604Y-124498950D02*
X92699069Y-124495414D01*
D55*
X75200000Y-110300000D02*
X76100000Y-111200000D01*
D54*
X76100000Y-114800000D02*
X76100000Y-112787500D01*
D55*
X77094258Y-100049258D02*
X75200000Y-101943516D01*
X75200000Y-101943516D02*
X75200000Y-110300000D01*
%TO.N,/FPGA/A17*%
X86700000Y-103555000D02*
X83694258Y-100549258D01*
D54*
X86700000Y-115000000D02*
X86700000Y-112787500D01*
D55*
X86700000Y-112012500D02*
X86700000Y-103555000D01*
X86700000Y-112787500D02*
X86700000Y-112012500D01*
D54*
X93961254Y-122731183D02*
X93526384Y-122296312D01*
D55*
%TO.N,/FPGA/A16*%
X99200000Y-101023516D02*
X107674258Y-92549258D01*
D54*
X99200000Y-116785330D02*
X99200000Y-112887500D01*
X95021914Y-120963416D02*
X99200000Y-116785330D01*
D55*
X99200000Y-112887500D02*
X99200000Y-101023516D01*
D54*
%TO.N,/FPGA/A3*%
X86515587Y-123915587D02*
X77600000Y-115000000D01*
X90425720Y-124852503D02*
X90042503Y-124852503D01*
D55*
X77600000Y-110740000D02*
X76200000Y-109340000D01*
X77600000Y-112012500D02*
X77600000Y-110740000D01*
X76200000Y-109340000D02*
X76200000Y-103943516D01*
D54*
X89105587Y-123915587D02*
X86515587Y-123915587D01*
X77600000Y-115000000D02*
X77600000Y-112787500D01*
X90042503Y-124852503D02*
X89105587Y-123915587D01*
D55*
X76200000Y-103943516D02*
X77094258Y-103049258D01*
X77600000Y-112012500D02*
X77600000Y-112787500D01*
D54*
%TO.N,/FPGA/A2*%
X93254147Y-122024075D02*
X92660000Y-121429928D01*
X87430000Y-115830000D02*
X86170000Y-115830000D01*
X85200000Y-114860000D02*
X85200000Y-112787500D01*
D55*
X85200000Y-105055000D02*
X83694258Y-103549258D01*
D54*
X92660000Y-121060000D02*
X87430000Y-115830000D01*
X86170000Y-115830000D02*
X85200000Y-114860000D01*
X92660000Y-121429928D02*
X92660000Y-121060000D01*
D55*
X85200000Y-112787500D02*
X85200000Y-105055000D01*
D54*
%TO.N,/FPGA/A1*%
X92193487Y-123084736D02*
X91355566Y-122246815D01*
D55*
X80394258Y-104049258D02*
X80394258Y-107394258D01*
X82000000Y-109000000D02*
X82000000Y-112787500D01*
D54*
X91355566Y-122246815D02*
X89246815Y-122246815D01*
X82000000Y-115000000D02*
X82000000Y-112787500D01*
X89246815Y-122246815D02*
X82000000Y-115000000D01*
D55*
X80394258Y-107394258D02*
X82000000Y-109000000D01*
%TO.N,/FPGA/A0*%
X108800000Y-111000000D02*
X110974258Y-108825742D01*
X110974258Y-108825742D02*
X110974258Y-104049258D01*
D54*
X95729021Y-123791843D02*
X95732557Y-123788307D01*
X95732557Y-123788307D02*
X95732557Y-123597388D01*
X108800000Y-115000000D02*
X108800000Y-112887500D01*
D55*
X108800000Y-112887500D02*
X108800000Y-111000000D01*
%TO.N,/FPGA/A15*%
X72400000Y-112012500D02*
X72400000Y-112787500D01*
D54*
X88810000Y-125520000D02*
X82920000Y-125520000D01*
X90552437Y-126140000D02*
X89430000Y-126140000D01*
X90779274Y-125913163D02*
X90552437Y-126140000D01*
D55*
X72700000Y-96943516D02*
X77094258Y-92549258D01*
D54*
X82920000Y-125520000D02*
X72400000Y-115000000D01*
D55*
X72400000Y-111000000D02*
X72700000Y-110700000D01*
D54*
X89430000Y-126140000D02*
X88810000Y-125520000D01*
D55*
X72400000Y-112012500D02*
X72400000Y-111000000D01*
D54*
X72400000Y-115000000D02*
X72400000Y-112787500D01*
D55*
X72700000Y-110700000D02*
X72700000Y-96943516D01*
%TO.N,/FPGA/A14*%
X89900000Y-112775000D02*
X89900000Y-99255000D01*
D54*
X89900000Y-115000000D02*
X89900000Y-112775000D01*
D55*
X89900000Y-99255000D02*
X83694258Y-93049258D01*
D54*
X94671897Y-122727647D02*
X94671897Y-122536728D01*
X94668361Y-122731183D02*
X94671897Y-122727647D01*
D55*
%TO.N,/FPGA/A13*%
X78400000Y-95543516D02*
X78400000Y-108200000D01*
X78400000Y-108200000D02*
X79300000Y-109100000D01*
X79300000Y-112012500D02*
X79300000Y-112787500D01*
D54*
X87579190Y-123279190D02*
X79300000Y-115000000D01*
D55*
X79300000Y-109100000D02*
X79300000Y-112012500D01*
X80394258Y-93549258D02*
X78400000Y-95543516D01*
D54*
X90266621Y-123279190D02*
X87579190Y-123279190D01*
X91132827Y-124145396D02*
X90266621Y-123279190D01*
X79300000Y-115000000D02*
X79300000Y-112787500D01*
%TO.N,/FPGA/A12*%
X89460000Y-125710000D02*
X88990000Y-125240000D01*
X83140000Y-125240000D02*
X72900000Y-115000000D01*
X90275329Y-125710000D02*
X89460000Y-125710000D01*
X72900000Y-115000000D02*
X72900000Y-112787500D01*
D55*
X72900000Y-112012500D02*
X72900000Y-112787500D01*
X72900000Y-111000000D02*
X73200000Y-110700000D01*
X72900000Y-112012500D02*
X72900000Y-111000000D01*
X73200000Y-97943516D02*
X77094258Y-94049258D01*
D54*
X88990000Y-125240000D02*
X83140000Y-125240000D01*
D55*
X73200000Y-110700000D02*
X73200000Y-97943516D01*
D54*
X90425720Y-125559609D02*
X90275329Y-125710000D01*
%TO.N,/RY{slash}~{BY}*%
X92900594Y-123791843D02*
X92762708Y-123653957D01*
D55*
X84000000Y-108600000D02*
X84000000Y-112787500D01*
X80394258Y-99549258D02*
X82400000Y-101555000D01*
X82400000Y-101555000D02*
X82400000Y-107000000D01*
D54*
X84000000Y-115000000D02*
X84000000Y-112787500D01*
D55*
X82400000Y-107000000D02*
X84000000Y-108600000D01*
D54*
%TO.N,/FPGA/DQ0*%
X113500000Y-115000000D02*
X113500000Y-112887500D01*
D55*
X115200000Y-108500000D02*
X113500000Y-110200000D01*
D54*
X97143235Y-124498950D02*
X97274050Y-124368135D01*
X97274050Y-124368135D02*
X97281121Y-124368135D01*
D55*
X115200000Y-102975000D02*
X115200000Y-108500000D01*
X113500000Y-110200000D02*
X113500000Y-112887500D01*
X114274258Y-102049258D02*
X115200000Y-102975000D01*
%TO.N,/FPGA/DQ1*%
X112300000Y-108900000D02*
X112300000Y-102375000D01*
D54*
X96616440Y-123611531D02*
X96436128Y-123791843D01*
X96566943Y-123653957D02*
X96616440Y-123611531D01*
D55*
X110300000Y-112887500D02*
X110300000Y-110900000D01*
X112300000Y-102375000D02*
X110974258Y-101049258D01*
X110300000Y-110900000D02*
X112300000Y-108900000D01*
D54*
X110300000Y-115000000D02*
X110300000Y-112887500D01*
D55*
%TO.N,/FPGA/DQ2*%
X102900000Y-104823516D02*
X107674258Y-100049258D01*
D54*
X102900000Y-114499544D02*
X102900000Y-112887500D01*
D55*
X102900000Y-112887500D02*
X102900000Y-104823516D01*
D54*
X95729021Y-121670522D02*
X102900000Y-114499544D01*
D55*
%TO.N,/FPGA/DQ3*%
X114274258Y-99049258D02*
X116100000Y-100875000D01*
D54*
X99041816Y-123307475D02*
X99222525Y-123307475D01*
X99222525Y-123307475D02*
X105490000Y-117040000D01*
D55*
X115200000Y-109900000D02*
X115200000Y-112887500D01*
D54*
X98203895Y-124145396D02*
X99041816Y-123307475D01*
X115200000Y-114625000D02*
X115200000Y-112887500D01*
X112785000Y-117040000D02*
X115200000Y-114625000D01*
D55*
X116100000Y-100875000D02*
X116100000Y-109000000D01*
D54*
X105490000Y-117040000D02*
X112785000Y-117040000D01*
D55*
X116100000Y-109000000D02*
X115200000Y-109900000D01*
D54*
%TO.N,/FC.~{OE}*%
X109300000Y-115000000D02*
X109300000Y-112887500D01*
D55*
X109300000Y-112112500D02*
X109300000Y-111200000D01*
X111900000Y-108600000D02*
X111900000Y-103475000D01*
X111900000Y-103475000D02*
X110974258Y-102549258D01*
X109300000Y-112112500D02*
X109300000Y-112887500D01*
D54*
X96082575Y-123438289D02*
X96517445Y-123003419D01*
X96517445Y-123003419D02*
X96524516Y-123003419D01*
D55*
X109300000Y-111200000D02*
X111900000Y-108600000D01*
%TO.N,/FC.~{WE}*%
X87200000Y-101055000D02*
X83694258Y-97549258D01*
X87200000Y-112787500D02*
X87200000Y-112012500D01*
D54*
X94314808Y-122886746D02*
X94311272Y-122883211D01*
D55*
X87200000Y-112012500D02*
X87200000Y-101055000D01*
D54*
X87200000Y-115000000D02*
X87200000Y-112787500D01*
X94314808Y-123084736D02*
X94314808Y-122886746D01*
%TO.N,/FC.~{BYTE}*%
X110270000Y-116730000D02*
X112000000Y-115000000D01*
D55*
X112000000Y-110500000D02*
X113100000Y-109400000D01*
D54*
X99129510Y-123010490D02*
X105410000Y-116730000D01*
X105410000Y-116730000D02*
X110270000Y-116730000D01*
D55*
X113100000Y-109400000D02*
X113100000Y-94223516D01*
X113100000Y-94223516D02*
X114274258Y-93049258D01*
D54*
X98631695Y-123010490D02*
X99129510Y-123010490D01*
X112000000Y-115000000D02*
X112000000Y-112887500D01*
X97850342Y-123791842D02*
X98631695Y-123010490D01*
D55*
X112000000Y-112887500D02*
X112000000Y-110500000D01*
%TO.N,/FPGA/DQ4*%
X116600000Y-99875000D02*
X116600000Y-109300000D01*
D54*
X115700000Y-115125000D02*
X115700000Y-112887500D01*
D55*
X115700000Y-110200000D02*
X115700000Y-112887500D01*
D54*
X105560000Y-117340000D02*
X113485000Y-117340000D01*
D55*
X114274258Y-97549258D02*
X116600000Y-99875000D01*
X116600000Y-109300000D02*
X115700000Y-110200000D01*
D54*
X100024695Y-123738810D02*
X100024695Y-122875305D01*
X98911002Y-124852503D02*
X100024695Y-123738810D01*
X100024695Y-122875305D02*
X105560000Y-117340000D01*
X113485000Y-117340000D02*
X115700000Y-115125000D01*
%TO.N,/FPGA/DQ5*%
X96436128Y-122377629D02*
X103183757Y-115630000D01*
D55*
X109600000Y-97923516D02*
X109600000Y-108800000D01*
X110974258Y-96549258D02*
X109600000Y-97923516D01*
X107100000Y-111300000D02*
X107100000Y-112887500D01*
D54*
X103183757Y-115630000D02*
X106145000Y-115630000D01*
X107100000Y-114675000D02*
X107100000Y-112887500D01*
X106145000Y-115630000D02*
X107100000Y-114675000D01*
D55*
X109600000Y-108800000D02*
X107100000Y-111300000D01*
D54*
%TO.N,/FPGA/DQ6*%
X100700000Y-115000000D02*
X100700000Y-112887500D01*
D55*
X100700000Y-112887500D02*
X100700000Y-102523516D01*
D54*
X95021914Y-123084736D02*
X95021914Y-122886746D01*
X95021914Y-122886746D02*
X95018379Y-122883211D01*
D55*
X100700000Y-102523516D02*
X107674258Y-95549258D01*
D54*
%TO.N,/FPGA/DQ7*%
X96789681Y-124145396D02*
X97224552Y-123710526D01*
X112500000Y-115000000D02*
X112500000Y-112887500D01*
D55*
X112500000Y-110700000D02*
X113400000Y-109800000D01*
X112500000Y-112887500D02*
X112500000Y-110700000D01*
D54*
X97224552Y-123710526D02*
X97224552Y-123703454D01*
D55*
X113400000Y-109800000D02*
X113400000Y-95400000D01*
X113400000Y-95400000D02*
X114274258Y-94549258D01*
D54*
%TO.N,/FC.~{CE}*%
X96789681Y-124852503D02*
X96987671Y-124852503D01*
X96987671Y-124852503D02*
X96991207Y-124856039D01*
D57*
%TO.N,/WP_BUF*%
X95500000Y-91750000D02*
X98775000Y-88475000D01*
X98775000Y-88475000D02*
X98775000Y-83000000D01*
D54*
%TO.N,/FPGA/DQ8*%
X96082575Y-122024076D02*
X103900000Y-114206650D01*
D55*
X103900000Y-112887500D02*
X103900000Y-105323516D01*
D54*
X103900000Y-114206650D02*
X103900000Y-112887500D01*
D55*
X103900000Y-105323516D02*
X107674258Y-101549258D01*
D54*
%TO.N,/FPGA/DQ9*%
X97496788Y-124852503D02*
X97931659Y-124417632D01*
X114000000Y-115000000D02*
X114000000Y-112887500D01*
D55*
X115600000Y-108700000D02*
X114000000Y-110300000D01*
X114274258Y-100549258D02*
X115600000Y-101875000D01*
X115600000Y-101875000D02*
X115600000Y-108700000D01*
X114000000Y-110300000D02*
X114000000Y-112887500D01*
D54*
X97931659Y-124417632D02*
X97931659Y-124410561D01*
%TO.N,/FPGA/DQ10*%
X107600000Y-114670000D02*
X107600000Y-112887500D01*
X106390000Y-115880000D02*
X107600000Y-114670000D01*
D55*
X110000000Y-100523516D02*
X110000000Y-109100000D01*
X107600000Y-111500000D02*
X107600000Y-112887500D01*
D54*
X96789681Y-122731183D02*
X97514466Y-122006398D01*
D55*
X110000000Y-109100000D02*
X107600000Y-111500000D01*
D54*
X97514466Y-122006398D02*
X97514466Y-121675534D01*
X103310000Y-115880000D02*
X106390000Y-115880000D01*
X97514466Y-121675534D02*
X103310000Y-115880000D01*
D55*
X110974258Y-99549258D02*
X110000000Y-100523516D01*
%TO.N,/FPGA/DQ11*%
X102400000Y-103823516D02*
X107674258Y-98549258D01*
D54*
X95375468Y-121316969D02*
X102400000Y-114292437D01*
D55*
X102400000Y-112887500D02*
X102400000Y-103823516D01*
D54*
X102400000Y-114292437D02*
X102400000Y-112887500D01*
D55*
%TO.N,/FPGA/DQ12*%
X101200000Y-103523516D02*
X107674258Y-97049258D01*
X101200000Y-112887500D02*
X101200000Y-103523516D01*
D54*
X101200000Y-115000000D02*
X101200000Y-112887500D01*
X95375468Y-122731183D02*
X95782054Y-122324596D01*
X95782054Y-122324596D02*
X95782054Y-122303383D01*
D55*
%TO.N,/FPGA/DQ13*%
X117100000Y-109600000D02*
X116700000Y-110000000D01*
X114274258Y-96049258D02*
X117100000Y-98875000D01*
X117100000Y-98875000D02*
X117100000Y-109600000D01*
D54*
X113865000Y-117760000D02*
X116700000Y-114925000D01*
X105630000Y-117760000D02*
X113865000Y-117760000D01*
X116700000Y-114925000D02*
X116700000Y-112887500D01*
D55*
X116700000Y-110000000D02*
X116700000Y-112887500D01*
D54*
X99264555Y-125206056D02*
X100385319Y-124085292D01*
X100385319Y-124085292D02*
X100385319Y-123004681D01*
X100385319Y-123004681D02*
X105630000Y-117760000D01*
D55*
%TO.N,/FPGA/DQ14*%
X106100000Y-110800000D02*
X109200000Y-107700000D01*
D54*
X106100000Y-115000000D02*
X106100000Y-112887500D01*
X95859836Y-122946850D02*
X95909333Y-122904424D01*
D55*
X109200000Y-96823516D02*
X110974258Y-95049258D01*
X106100000Y-112887500D02*
X106100000Y-110800000D01*
X109200000Y-107700000D02*
X109200000Y-96823516D01*
D54*
X95909333Y-122904424D02*
X95729021Y-123084736D01*
%TO.N,/FPGA/DQ15*%
X95152729Y-122239743D02*
X95195156Y-122204388D01*
X95195156Y-122204388D02*
X95021914Y-122377629D01*
D55*
X99700000Y-112887500D02*
X99700000Y-102023516D01*
X99700000Y-102023516D02*
X107674258Y-94049258D01*
D54*
X99700000Y-115000000D02*
X99700000Y-112887500D01*
%TO.N,/~{MCU_RESET}*%
X73850000Y-163750000D02*
X74950000Y-163750000D01*
X73800000Y-163700000D02*
X73850000Y-163750000D01*
%TO.N,/FPGA/VCCPLL0*%
X96436128Y-126620270D02*
X96574014Y-126758156D01*
%TO.N,/FPGA/GNDPLL0*%
X95729021Y-126620270D02*
X95729021Y-126818260D01*
X95729021Y-126818260D02*
X95732557Y-126821795D01*
%TO.N,/FPGA/VCCPLL1*%
X93254147Y-123438289D02*
X92819277Y-123003419D01*
%TO.N,/FPGA/GNDPLL1*%
X93607701Y-123791842D02*
X93401842Y-123791842D01*
X93401842Y-123791842D02*
X93400000Y-123790000D01*
%TO.N,/FPGA/IOL_5+*%
X86001600Y-137200000D02*
X86001600Y-137201600D01*
X90643686Y-126500000D02*
X90899543Y-126500000D01*
X86707914Y-137348400D02*
X86998400Y-137057914D01*
X80742086Y-138148400D02*
X80401600Y-137807914D01*
X85387500Y-137200000D02*
X86001600Y-137200000D01*
X90899543Y-126500000D02*
X91132827Y-126266716D01*
X80851600Y-137000000D02*
X81540000Y-137000000D01*
X88157914Y-126298400D02*
X90442086Y-126298400D01*
X80401600Y-137450000D02*
X80851600Y-137000000D01*
X84000000Y-137200000D02*
X83850000Y-137350000D01*
X86998400Y-137057914D02*
X86998400Y-136648400D01*
X86998400Y-136248400D02*
X86998400Y-127457914D01*
X84612500Y-137200000D02*
X84000000Y-137200000D01*
X83850000Y-137350000D02*
X83106314Y-137350000D01*
X86827293Y-136348400D02*
X86898400Y-136348400D01*
X83106314Y-137350000D02*
X82307914Y-138148400D01*
X90442086Y-126298400D02*
X90643686Y-126500000D01*
X86998400Y-127457914D02*
X88157914Y-126298400D01*
X80401600Y-137807914D02*
X80401600Y-137450000D01*
X82307914Y-138148400D02*
X80742086Y-138148400D01*
X86898400Y-136548400D02*
X86827293Y-136548400D01*
X85387500Y-137200000D02*
X84612500Y-137200000D01*
X86148400Y-137348400D02*
X86707914Y-137348400D01*
X86001600Y-137201600D02*
X86148400Y-137348400D01*
X86727300Y-136448400D02*
G75*
G03*
X86827293Y-136548400I100000J0D01*
G01*
X86998400Y-136248400D02*
G75*
G02*
X86898400Y-136348400I-100000J0D01*
G01*
X86827293Y-136348393D02*
G75*
G03*
X86727293Y-136448400I7J-100007D01*
G01*
X86898400Y-136548400D02*
G75*
G02*
X86998400Y-136648400I0J-100000D01*
G01*
%TO.N,/FPGA/IOL_5-*%
X86000000Y-137700000D02*
X85387500Y-137700000D01*
X90357914Y-126501600D02*
X88242086Y-126501600D01*
X80198400Y-137450000D02*
X79748400Y-137000000D01*
X80657914Y-138351600D02*
X80198400Y-137892086D01*
X83850000Y-137600000D02*
X83143686Y-137600000D01*
X83143686Y-137600000D02*
X82392086Y-138351600D01*
X85387500Y-137700000D02*
X84612500Y-137700000D01*
X84612500Y-137700000D02*
X83950000Y-137700000D01*
X90656314Y-126800000D02*
X90357914Y-126501600D01*
X82392086Y-138351600D02*
X80657914Y-138351600D01*
X86148400Y-137551600D02*
X86000000Y-137700000D01*
X88242086Y-126501600D02*
X87201600Y-127542086D01*
X87201600Y-137142086D02*
X86792086Y-137551600D01*
X83950000Y-137700000D02*
X83850000Y-137600000D01*
X91486380Y-126620270D02*
X91306650Y-126800000D01*
X79748400Y-137000000D02*
X79000000Y-137000000D01*
X87201600Y-127542086D02*
X87201600Y-137142086D01*
X86792086Y-137551600D02*
X86148400Y-137551600D01*
X80198400Y-137892086D02*
X80198400Y-137450000D01*
X91306650Y-126800000D02*
X90656314Y-126800000D01*
%TO.N,/FPGA/IOL_9+*%
X86148400Y-138848400D02*
X87157914Y-138848400D01*
X83900000Y-138800000D02*
X83556314Y-138800000D01*
X84000000Y-138700000D02*
X83900000Y-138800000D01*
X84612500Y-138700000D02*
X84000000Y-138700000D01*
X87157914Y-138848400D02*
X87648400Y-138357914D01*
X83556314Y-138800000D02*
X82998400Y-139357914D01*
X87648400Y-138357914D02*
X87648400Y-128307914D01*
X92702604Y-125913163D02*
X92699069Y-125909628D01*
X82998400Y-140257914D02*
X82507914Y-140748400D01*
X88473801Y-128048399D02*
X88550000Y-127972200D01*
X80642086Y-140748400D02*
X80351600Y-140457914D01*
X80351600Y-139950000D02*
X80761600Y-139540000D01*
X82507914Y-140748400D02*
X80642086Y-140748400D01*
X86000000Y-138700000D02*
X86148400Y-138848400D01*
X85387500Y-138700000D02*
X86000000Y-138700000D01*
X92900594Y-125913163D02*
X92702604Y-125913163D01*
X87648400Y-128307914D02*
X87907914Y-128048400D01*
X80761600Y-139540000D02*
X81540000Y-139540000D01*
X84612500Y-138700000D02*
X85387500Y-138700000D01*
X80351600Y-140457914D02*
X80351600Y-139950000D01*
X87907914Y-128048400D02*
X88473801Y-128048399D01*
X82998400Y-139357914D02*
X82998400Y-140257914D01*
%TO.N,/FPGA/IOL_9-*%
X84612500Y-139200000D02*
X84000000Y-139200000D01*
X84612500Y-139200000D02*
X85387500Y-139200000D01*
X87992086Y-128251600D02*
X88473801Y-128251601D01*
X86148400Y-139051600D02*
X87242086Y-139051600D01*
X85387500Y-139200000D02*
X86000000Y-139200000D01*
X92416226Y-126397531D02*
X92547041Y-126266716D01*
X87851600Y-138442086D02*
X87851600Y-128392086D01*
X83201600Y-140342086D02*
X82592086Y-140951600D01*
X79738400Y-139540000D02*
X79000000Y-139540000D01*
X83201600Y-139442086D02*
X83201600Y-140342086D01*
X80148400Y-140542086D02*
X80148400Y-139950000D01*
X84000000Y-139200000D02*
X83900000Y-139100000D01*
X87242086Y-139051600D02*
X87851600Y-138442086D01*
X83900000Y-139100000D02*
X83543686Y-139100000D01*
X87851600Y-128392086D02*
X87992086Y-128251600D01*
X80148400Y-139950000D02*
X79738400Y-139540000D01*
X83543686Y-139100000D02*
X83201600Y-139442086D01*
X88473801Y-128251601D02*
X88550000Y-128327800D01*
X92547041Y-126266717D02*
X92416226Y-126397531D01*
X92409155Y-126397531D02*
X92416226Y-126397531D01*
X82592086Y-140951600D02*
X80557914Y-140951600D01*
X86000000Y-139200000D02*
X86148400Y-139051600D01*
X80557914Y-140951600D02*
X80148400Y-140542086D01*
%TO.N,/FPGA/IOL_12+*%
X93172830Y-127762247D02*
X93165759Y-127762247D01*
X80351600Y-153093076D02*
X80351600Y-152600000D01*
X82757914Y-153398400D02*
X80656924Y-153398400D01*
X80351600Y-152600000D02*
X80711600Y-152240000D01*
X80351600Y-153093076D02*
X80656924Y-153398400D01*
X92300000Y-128350000D02*
X92156314Y-128350000D01*
X83507914Y-152648400D02*
X82757914Y-153398400D01*
X80711600Y-152240000D02*
X81540000Y-152240000D01*
X89998400Y-131907914D02*
X89998400Y-151957914D01*
X91048400Y-129457914D02*
X92156314Y-128350000D01*
X89456314Y-152500000D02*
X89998400Y-151957914D01*
X93607701Y-127327377D02*
X93172830Y-127762247D01*
X85387500Y-152500000D02*
X84612500Y-152500000D01*
X84143749Y-152500000D02*
X83995349Y-152648400D01*
X84612500Y-152500000D02*
X84143749Y-152500000D01*
X91048400Y-130857914D02*
X89998400Y-131907914D01*
X85387500Y-152500000D02*
X89456314Y-152500000D01*
X91048400Y-129457914D02*
X91048400Y-130857914D01*
X83995349Y-152648400D02*
X83507914Y-152648400D01*
D58*
%TO.N,/FPGA/CLK_VDD*%
X100505527Y-131764472D02*
X99459009Y-130717954D01*
X101148995Y-133313036D02*
X101148995Y-132415010D01*
X99459009Y-130717954D02*
X99459009Y-130590675D01*
X100572703Y-133889328D02*
X101148995Y-133313036D01*
X101148995Y-132415010D02*
X100501992Y-131768007D01*
D54*
%TO.N,/FPGA/IOL_12-*%
X86250000Y-153139722D02*
X86250000Y-153100000D01*
X86250000Y-153100000D02*
X86250000Y-152860278D01*
X90201600Y-131992086D02*
X91251600Y-130942086D01*
X80148400Y-153177248D02*
X80148400Y-152600000D01*
X88650000Y-153139722D02*
X88650000Y-152860278D01*
X92900594Y-128299406D02*
X92450000Y-128750000D01*
X87450000Y-153139722D02*
X87450000Y-152860278D01*
X88050000Y-152860278D02*
X88050000Y-153139722D01*
X80148400Y-153177248D02*
X80572752Y-153601600D01*
X92450000Y-128750000D02*
X92043686Y-128750000D01*
X86850000Y-152860278D02*
X86850000Y-153139722D01*
X91251600Y-129542086D02*
X92043686Y-128750000D01*
X87250000Y-152860278D02*
X87250000Y-153139722D01*
X83592086Y-152851600D02*
X82842086Y-153601600D01*
X86050000Y-153100000D02*
X86050000Y-153139722D01*
X87850000Y-153139722D02*
X87850000Y-152860278D01*
X90201600Y-152042086D02*
X90201600Y-131992086D01*
X83995349Y-152851600D02*
X83592086Y-152851600D01*
X85387500Y-153000000D02*
X85950000Y-153000000D01*
X86450000Y-152860278D02*
X86450000Y-153139722D01*
X89243686Y-153000000D02*
X90201600Y-152042086D01*
X86650000Y-153139722D02*
X86650000Y-152860278D01*
X88450000Y-152860278D02*
X88450000Y-153139722D01*
X84612500Y-153000000D02*
X84143749Y-153000000D01*
X87650000Y-152860278D02*
X87650000Y-153139722D01*
X87050000Y-153139722D02*
X87050000Y-152860278D01*
X79788400Y-152240000D02*
X79000000Y-152240000D01*
X92900594Y-128034483D02*
X92900594Y-128299406D01*
X82842086Y-153601600D02*
X80572752Y-153601600D01*
X88850000Y-152860278D02*
X88850000Y-152900000D01*
X88250000Y-153139722D02*
X88250000Y-152860278D01*
X80148400Y-152600000D02*
X79788400Y-152240000D01*
X85387500Y-153000000D02*
X84612500Y-153000000D01*
X91251600Y-130942086D02*
X91251600Y-129542086D01*
X88950000Y-153000000D02*
X89243686Y-153000000D01*
X84143749Y-153000000D02*
X83995349Y-152851600D01*
X86050000Y-153100000D02*
G75*
G03*
X85950000Y-153000000I-100000J0D01*
G01*
X88750000Y-152760300D02*
G75*
G03*
X88650000Y-152860278I0J-100000D01*
G01*
X86750000Y-152760300D02*
G75*
G03*
X86650000Y-152860278I0J-100000D01*
G01*
X86550000Y-153239700D02*
G75*
G02*
X86450000Y-153139722I0J100000D01*
G01*
X87150000Y-152760300D02*
G75*
G03*
X87050000Y-152860278I0J-100000D01*
G01*
X88850022Y-152860278D02*
G75*
G03*
X88750000Y-152760278I-100022J-22D01*
G01*
X87550000Y-152760300D02*
G75*
G03*
X87450000Y-152860278I0J-100000D01*
G01*
X86850022Y-152860278D02*
G75*
G03*
X86750000Y-152760278I-100022J-22D01*
G01*
X87650022Y-152860278D02*
G75*
G03*
X87550000Y-152760278I-100022J-22D01*
G01*
X86450022Y-152860278D02*
G75*
G03*
X86350000Y-152760278I-100022J-22D01*
G01*
X88250022Y-153139722D02*
G75*
G02*
X88150000Y-153239722I-100022J22D01*
G01*
X88150000Y-153239700D02*
G75*
G02*
X88050000Y-153139722I0J100000D01*
G01*
X86150000Y-153239700D02*
G75*
G02*
X86050000Y-153139722I0J100000D01*
G01*
X87850022Y-153139722D02*
G75*
G02*
X87750000Y-153239722I-100022J22D01*
G01*
X88450022Y-152860278D02*
G75*
G03*
X88350000Y-152760278I-100022J-22D01*
G01*
X87250022Y-152860278D02*
G75*
G03*
X87150000Y-152760278I-100022J-22D01*
G01*
X87050022Y-153139722D02*
G75*
G02*
X86950000Y-153239722I-100022J22D01*
G01*
X86350000Y-152760300D02*
G75*
G03*
X86250000Y-152860278I0J-100000D01*
G01*
X86650022Y-153139722D02*
G75*
G02*
X86550000Y-153239722I-100022J22D01*
G01*
X86950000Y-153239700D02*
G75*
G02*
X86850000Y-153139722I0J100000D01*
G01*
X88950000Y-153000000D02*
G75*
G02*
X88850000Y-152900000I0J100000D01*
G01*
X87350000Y-153239700D02*
G75*
G02*
X87250000Y-153139722I0J100000D01*
G01*
X88050022Y-152860278D02*
G75*
G03*
X87950000Y-152760278I-100022J-22D01*
G01*
X88550000Y-153239700D02*
G75*
G02*
X88450000Y-153139722I0J100000D01*
G01*
X87450022Y-153139722D02*
G75*
G02*
X87350000Y-153239722I-100022J22D01*
G01*
X87750000Y-153239700D02*
G75*
G02*
X87650000Y-153139722I0J100000D01*
G01*
X88350000Y-152760300D02*
G75*
G03*
X88250000Y-152860278I0J-100000D01*
G01*
X86250022Y-153139722D02*
G75*
G02*
X86150000Y-153239722I-100022J22D01*
G01*
X87950000Y-152760300D02*
G75*
G03*
X87850000Y-152860278I0J-100000D01*
G01*
X88650022Y-153139722D02*
G75*
G02*
X88550000Y-153239722I-100022J22D01*
G01*
%TO.N,/FPGA/IOL_13+*%
X80351600Y-142400000D02*
X80671600Y-142080000D01*
X88298400Y-131451600D02*
X88298400Y-142007914D01*
X80351600Y-142957914D02*
X80351600Y-142400000D01*
X85387500Y-142350000D02*
X84612500Y-142350000D01*
X92900594Y-126620270D02*
X92465723Y-127055141D01*
X82307914Y-143248400D02*
X80642086Y-143248400D01*
X92465723Y-127055141D02*
X92458652Y-127055141D01*
X88298400Y-142007914D02*
X87956314Y-142350000D01*
X83057914Y-142498400D02*
X82307914Y-143248400D01*
X83995349Y-142498400D02*
X83057914Y-142498400D01*
X80642086Y-143248400D02*
X80351600Y-142957914D01*
X84612500Y-142350000D02*
X84143749Y-142350000D01*
X89900000Y-129850000D02*
X88298400Y-131451600D01*
X87956314Y-142350000D02*
X85387500Y-142350000D01*
X80671600Y-142080000D02*
X81540000Y-142080000D01*
X84143749Y-142350000D02*
X83995349Y-142498400D01*
%TO.N,/FPGA/IOL_13-*%
X84612500Y-142850000D02*
X84143749Y-142850000D01*
X88601600Y-141698400D02*
X88651600Y-141698400D01*
X88601600Y-141248400D02*
X88651600Y-141248400D01*
X87100000Y-143000000D02*
X87100000Y-142700000D01*
X80148400Y-142400000D02*
X79828400Y-142080000D01*
X87600000Y-142850000D02*
X87743686Y-142850000D01*
X90550000Y-129250000D02*
X91300000Y-128500000D01*
X85387500Y-142850000D02*
X86000000Y-142850000D01*
X86300000Y-142950000D02*
X86300000Y-142700000D01*
X83995349Y-142701600D02*
X83142086Y-142701600D01*
X87300000Y-142700000D02*
X87300000Y-143000000D01*
X83142086Y-142701600D02*
X82392086Y-143451600D01*
X88651600Y-141048400D02*
X88601600Y-141048400D01*
X88501600Y-140898400D02*
X88501600Y-131671816D01*
X86700000Y-143000000D02*
X86700000Y-142700000D01*
X88501600Y-142092086D02*
X88501600Y-141798400D01*
X85387500Y-142850000D02*
X84612500Y-142850000D01*
X88501600Y-141398400D02*
X88501600Y-141348400D01*
X86500000Y-142700000D02*
X86500000Y-143000000D01*
X79828400Y-142080000D02*
X79000000Y-142080000D01*
X88651600Y-141498400D02*
X88601600Y-141498400D01*
X91300000Y-128500000D02*
X91300000Y-128220863D01*
X80148400Y-143042086D02*
X80148400Y-142400000D01*
X86900000Y-142700000D02*
X86900000Y-143000000D01*
X87500000Y-143000000D02*
X87500000Y-142950000D01*
X88501600Y-140948400D02*
X88501600Y-140898400D01*
X87743686Y-142850000D02*
X88501600Y-142092086D01*
X86100000Y-142950000D02*
X86100000Y-143000000D01*
X90550000Y-129623416D02*
X90550000Y-129250000D01*
X91300000Y-128220863D02*
X92193487Y-127327376D01*
X84143749Y-142850000D02*
X83995349Y-142701600D01*
X82392086Y-143451600D02*
X80557914Y-143451600D01*
X88501600Y-131671816D02*
X90550000Y-129623416D01*
X86300000Y-143000000D02*
X86300000Y-142950000D01*
X80557914Y-143451600D02*
X80148400Y-143042086D01*
X87400000Y-143100000D02*
G75*
G02*
X87300000Y-143000000I0J100000D01*
G01*
X86500000Y-142700000D02*
G75*
G03*
X86400000Y-142600000I-100000J0D01*
G01*
X87000000Y-143100000D02*
G75*
G02*
X86900000Y-143000000I0J100000D01*
G01*
X88751600Y-141598400D02*
G75*
G02*
X88651600Y-141698400I-100000J0D01*
G01*
X86100000Y-142950000D02*
G75*
G03*
X86000000Y-142850000I-100000J0D01*
G01*
X87200000Y-142600000D02*
G75*
G03*
X87100000Y-142700000I0J-100000D01*
G01*
X88751600Y-141148400D02*
G75*
G02*
X88651600Y-141248400I-100000J0D01*
G01*
X87100000Y-143000000D02*
G75*
G02*
X87000000Y-143100000I-100000J0D01*
G01*
X88601600Y-141698400D02*
G75*
G03*
X88501600Y-141798400I0J-100000D01*
G01*
X86300000Y-143000000D02*
G75*
G02*
X86200000Y-143100000I-100000J0D01*
G01*
X86600000Y-143100000D02*
G75*
G02*
X86500000Y-143000000I0J100000D01*
G01*
X86900000Y-142700000D02*
G75*
G03*
X86800000Y-142600000I-100000J0D01*
G01*
X88501600Y-141398400D02*
G75*
G03*
X88601600Y-141498400I100000J0D01*
G01*
X87500000Y-143000000D02*
G75*
G02*
X87400000Y-143100000I-100000J0D01*
G01*
X88601600Y-141248400D02*
G75*
G03*
X88501600Y-141348400I0J-100000D01*
G01*
X86200000Y-143100000D02*
G75*
G02*
X86100000Y-143000000I0J100000D01*
G01*
X86700000Y-143000000D02*
G75*
G02*
X86600000Y-143100000I-100000J0D01*
G01*
X87300000Y-142700000D02*
G75*
G03*
X87200000Y-142600000I-100000J0D01*
G01*
X86400000Y-142600000D02*
G75*
G03*
X86300000Y-142700000I0J-100000D01*
G01*
X88651600Y-141498400D02*
G75*
G02*
X88751600Y-141598400I0J-100000D01*
G01*
X87600000Y-142850000D02*
G75*
G03*
X87500000Y-142950000I0J-100000D01*
G01*
X86800000Y-142600000D02*
G75*
G03*
X86700000Y-142700000I0J-100000D01*
G01*
X88501600Y-140948400D02*
G75*
G03*
X88601600Y-141048400I100000J0D01*
G01*
X88651600Y-141048400D02*
G75*
G02*
X88751600Y-141148400I0J-100000D01*
G01*
%TO.N,/FPGA/IOL_14+*%
X88200000Y-144000000D02*
X88200000Y-143700000D01*
X87000000Y-144000000D02*
X87000000Y-143700000D01*
X86000000Y-143950000D02*
X86000000Y-144000000D01*
X80681600Y-144620000D02*
X81540000Y-144620000D01*
X88998762Y-142551600D02*
X89148400Y-142551600D01*
X88400000Y-143700000D02*
X88400000Y-143750000D01*
X89148400Y-141951600D02*
X88998762Y-141951600D01*
X84143749Y-143850000D02*
X83995349Y-143998400D01*
X83657914Y-143998400D02*
X81857914Y-145798400D01*
X86600000Y-144000000D02*
X86600000Y-143700000D01*
X89148400Y-143357914D02*
X89148400Y-143251600D01*
X87600000Y-143700000D02*
X87600000Y-144000000D01*
X89198038Y-142126781D02*
X89198038Y-141976419D01*
X89173219Y-142751600D02*
X89148400Y-142751600D01*
X80351600Y-145407914D02*
X80742086Y-145798400D01*
X87800000Y-144000000D02*
X87800000Y-143700000D01*
X89148400Y-141751600D02*
X89173219Y-141751600D01*
X80351600Y-145407914D02*
X80351600Y-144950000D01*
X89198038Y-142526781D02*
X89198038Y-142376419D01*
X87200000Y-143700000D02*
X87200000Y-144000000D01*
X92469070Y-127680930D02*
X92547041Y-127680930D01*
X81857914Y-145798400D02*
X80742086Y-145798400D01*
X87400000Y-144000000D02*
X87400000Y-143700000D01*
X89173219Y-141951600D02*
X89148400Y-141951600D01*
X89048400Y-143151600D02*
X88998762Y-143151600D01*
X88998762Y-142151600D02*
X89148400Y-142151600D01*
X83995349Y-143998400D02*
X83657914Y-143998400D01*
X89148400Y-131451600D02*
X90800000Y-129800000D01*
X86400000Y-143700000D02*
X86400000Y-144000000D01*
X88656314Y-143850000D02*
X89148400Y-143357914D01*
X89148400Y-141526781D02*
X89148400Y-131451600D01*
X84612500Y-143850000D02*
X84143749Y-143850000D01*
X88000000Y-143700000D02*
X88000000Y-144000000D01*
X85387500Y-143850000D02*
X85900000Y-143850000D01*
X86800000Y-143700000D02*
X86800000Y-144000000D01*
X90800000Y-129350000D02*
X92469070Y-127680930D01*
X89148400Y-142551600D02*
X89173219Y-142551600D01*
X90800000Y-129800000D02*
X90800000Y-129350000D01*
X86200000Y-143950000D02*
X86200000Y-143700000D01*
X89148400Y-142151600D02*
X89173219Y-142151600D01*
X89198038Y-141726781D02*
X89198038Y-141576419D01*
X80351600Y-144950000D02*
X80681600Y-144620000D01*
X89173219Y-142351600D02*
X89148400Y-142351600D01*
X88500000Y-143850000D02*
X88656314Y-143850000D01*
X89148400Y-142351600D02*
X88998762Y-142351600D01*
X85387500Y-143850000D02*
X84612500Y-143850000D01*
X89148400Y-142751600D02*
X88998762Y-142751600D01*
X88998762Y-141751600D02*
X89148400Y-141751600D01*
X89048400Y-142951600D02*
X89173219Y-142951600D01*
X88998762Y-142951600D02*
X89048400Y-142951600D01*
X86200000Y-144000000D02*
X86200000Y-143950000D01*
X89198038Y-142926781D02*
X89198038Y-142776419D01*
X88898800Y-141851600D02*
G75*
G03*
X88998762Y-141951600I100000J0D01*
G01*
X86800000Y-143700000D02*
G75*
G03*
X86700000Y-143600000I-100000J0D01*
G01*
X88898800Y-142251600D02*
G75*
G03*
X88998762Y-142351600I100000J0D01*
G01*
X87300000Y-144100000D02*
G75*
G02*
X87200000Y-144000000I0J100000D01*
G01*
X86600000Y-144000000D02*
G75*
G02*
X86500000Y-144100000I-100000J0D01*
G01*
X86000000Y-143950000D02*
G75*
G03*
X85900000Y-143850000I-100000J0D01*
G01*
X89173219Y-142751562D02*
G75*
G02*
X89198038Y-142776419I-19J-24838D01*
G01*
X89173219Y-142351562D02*
G75*
G02*
X89198038Y-142376419I-19J-24838D01*
G01*
X88898800Y-142651600D02*
G75*
G03*
X88998762Y-142751600I100000J0D01*
G01*
X86300000Y-143600000D02*
G75*
G03*
X86200000Y-143700000I0J-100000D01*
G01*
X86400000Y-143700000D02*
G75*
G03*
X86300000Y-143600000I-100000J0D01*
G01*
X88400000Y-143700000D02*
G75*
G03*
X88300000Y-143600000I-100000J0D01*
G01*
X88998762Y-141751562D02*
G75*
G03*
X88898762Y-141851600I38J-100038D01*
G01*
X88100000Y-144100000D02*
G75*
G02*
X88000000Y-144000000I0J100000D01*
G01*
X89173219Y-141951562D02*
G75*
G02*
X89198038Y-141976419I-19J-24838D01*
G01*
X87800000Y-144000000D02*
G75*
G02*
X87700000Y-144100000I-100000J0D01*
G01*
X89173219Y-141551562D02*
G75*
G02*
X89198038Y-141576419I-19J-24838D01*
G01*
X87900000Y-143600000D02*
G75*
G03*
X87800000Y-143700000I0J-100000D01*
G01*
X88998762Y-142951562D02*
G75*
G03*
X88898762Y-143051600I38J-100038D01*
G01*
X86700000Y-143600000D02*
G75*
G03*
X86600000Y-143700000I0J-100000D01*
G01*
X88998762Y-142151562D02*
G75*
G03*
X88898762Y-142251600I38J-100038D01*
G01*
X86500000Y-144100000D02*
G75*
G02*
X86400000Y-144000000I0J100000D01*
G01*
X87100000Y-143600000D02*
G75*
G03*
X87000000Y-143700000I0J-100000D01*
G01*
X87500000Y-143600000D02*
G75*
G03*
X87400000Y-143700000I0J-100000D01*
G01*
X89198000Y-142926781D02*
G75*
G02*
X89173219Y-142951600I-24800J-19D01*
G01*
X89148400Y-141526781D02*
G75*
G03*
X89173219Y-141551600I24800J-19D01*
G01*
X88500000Y-143850000D02*
G75*
G02*
X88400000Y-143750000I0J100000D01*
G01*
X86200000Y-144000000D02*
G75*
G02*
X86100000Y-144100000I-100000J0D01*
G01*
X88898800Y-143051600D02*
G75*
G03*
X88998762Y-143151600I100000J0D01*
G01*
X88998762Y-142551562D02*
G75*
G03*
X88898762Y-142651600I38J-100038D01*
G01*
X86900000Y-144100000D02*
G75*
G02*
X86800000Y-144000000I0J100000D01*
G01*
X86100000Y-144100000D02*
G75*
G02*
X86000000Y-144000000I0J100000D01*
G01*
X87200000Y-143700000D02*
G75*
G03*
X87100000Y-143600000I-100000J0D01*
G01*
X87600000Y-143700000D02*
G75*
G03*
X87500000Y-143600000I-100000J0D01*
G01*
X89048400Y-143151600D02*
G75*
G02*
X89148400Y-143251600I0J-100000D01*
G01*
X87700000Y-144100000D02*
G75*
G02*
X87600000Y-144000000I0J100000D01*
G01*
X88000000Y-143700000D02*
G75*
G03*
X87900000Y-143600000I-100000J0D01*
G01*
X89198000Y-142126781D02*
G75*
G02*
X89173219Y-142151600I-24800J-19D01*
G01*
X88200000Y-144000000D02*
G75*
G02*
X88100000Y-144100000I-100000J0D01*
G01*
X89198000Y-141726781D02*
G75*
G02*
X89173219Y-141751600I-24800J-19D01*
G01*
X87000000Y-144000000D02*
G75*
G02*
X86900000Y-144100000I-100000J0D01*
G01*
X87400000Y-144000000D02*
G75*
G02*
X87300000Y-144100000I-100000J0D01*
G01*
X89198000Y-142526781D02*
G75*
G02*
X89173219Y-142551600I-24800J-19D01*
G01*
X88300000Y-143600000D02*
G75*
G03*
X88200000Y-143700000I0J-100000D01*
G01*
%TO.N,/FPGA/IOL_14-*%
X80148400Y-145492086D02*
X80657914Y-146001600D01*
X93254147Y-126973823D02*
X93123333Y-127104638D01*
X88443686Y-144350000D02*
X89351600Y-143442086D01*
X85387500Y-144350000D02*
X84612500Y-144350000D01*
X90550000Y-130550000D02*
X89351600Y-131748400D01*
X80148400Y-145492086D02*
X80148400Y-144950000D01*
X84612500Y-144350000D02*
X84143749Y-144350000D01*
X80148400Y-144950000D02*
X79818400Y-144620000D01*
X83742086Y-144201600D02*
X81942086Y-146001600D01*
X84143749Y-144350000D02*
X83995349Y-144201600D01*
X93123333Y-127104638D02*
X93116262Y-127104638D01*
X81942086Y-146001600D02*
X80657914Y-146001600D01*
X83995349Y-144201600D02*
X83742086Y-144201600D01*
X89351600Y-131748400D02*
X89351600Y-143442086D01*
X79818400Y-144620000D02*
X79000000Y-144620000D01*
X85387500Y-144350000D02*
X88443686Y-144350000D01*
%TO.N,/FPGA/IOB_73*%
X106887500Y-155775000D02*
X108405000Y-155775000D01*
X102025000Y-143350000D02*
X102025000Y-155125000D01*
X106112500Y-155775000D02*
X106887500Y-155775000D01*
X108405000Y-155775000D02*
X109950000Y-157320000D01*
X102025000Y-155125000D02*
X102675000Y-155775000D01*
X95122600Y-131136874D02*
X95122600Y-136447600D01*
X102675000Y-155775000D02*
X106112500Y-155775000D01*
X96175000Y-130084474D02*
X95122600Y-131136874D01*
X96041590Y-128741590D02*
X96175000Y-128875000D01*
X96175000Y-128875000D02*
X96175000Y-130084474D01*
X95122600Y-136447600D02*
X102025000Y-143350000D01*
X95729021Y-128741590D02*
X96041590Y-128741590D01*
%TO.N,/FPGA/IOB_74*%
X96082575Y-128388037D02*
X96375000Y-128680462D01*
X95275000Y-131200000D02*
X95275000Y-136150000D01*
X108425000Y-155275000D02*
X109250000Y-156100000D01*
X106887500Y-155275000D02*
X108425000Y-155275000D01*
X102325000Y-154650000D02*
X102950000Y-155275000D01*
X96375000Y-128680462D02*
X96375000Y-130100000D01*
X106112500Y-155275000D02*
X106887500Y-155275000D01*
X96375000Y-130100000D02*
X95275000Y-131200000D01*
X102950000Y-155275000D02*
X106112500Y-155275000D01*
X111270000Y-156100000D02*
X112490000Y-157320000D01*
X102325000Y-143200000D02*
X102325000Y-154650000D01*
X109250000Y-156100000D02*
X111270000Y-156100000D01*
X95275000Y-136150000D02*
X102325000Y-143200000D01*
%TO.N,/FPGA/IOL_18+*%
X80351600Y-155557914D02*
X80742086Y-155948400D01*
X87401600Y-154148400D02*
X90007914Y-154148400D01*
X86901600Y-154000211D02*
X86901600Y-154048400D01*
X85856251Y-154000000D02*
X86004651Y-154148400D01*
X80351600Y-155557914D02*
X80351600Y-155150000D01*
X80721600Y-154780000D02*
X81540000Y-154780000D01*
X84612500Y-154000000D02*
X84143749Y-154000000D01*
X87101600Y-154148400D02*
X87101600Y-154000211D01*
X83995349Y-154148400D02*
X83657914Y-154148400D01*
X85387500Y-154000000D02*
X85856251Y-154000000D01*
X90007914Y-154148400D02*
X90648400Y-153507914D01*
X81857914Y-155948400D02*
X80742086Y-155948400D01*
X91998399Y-131926199D02*
X91922200Y-131850000D01*
X90648400Y-133857914D02*
X91998400Y-132507914D01*
X86901600Y-154048400D02*
X86901600Y-154172495D01*
X83657914Y-154148400D02*
X81857914Y-155948400D01*
X80351600Y-155150000D02*
X80721600Y-154780000D01*
X90648400Y-153507914D02*
X90648400Y-133857914D01*
X93830439Y-127811745D02*
X93823368Y-127811745D01*
X85387500Y-154000000D02*
X84612500Y-154000000D01*
X86701600Y-154048400D02*
X86701600Y-154000211D01*
X86925694Y-154196589D02*
X87077506Y-154196589D01*
X84143749Y-154000000D02*
X83995349Y-154148400D01*
X87301600Y-154000211D02*
X87301600Y-154048400D01*
X86004651Y-154148400D02*
X86601600Y-154148400D01*
X93961254Y-127680930D02*
X93830439Y-127811745D01*
X91998400Y-132507914D02*
X91998399Y-131926199D01*
X87101600Y-154172495D02*
X87101600Y-154148400D01*
X86901589Y-154000211D02*
G75*
G03*
X86801600Y-153900211I-99989J11D01*
G01*
X86701600Y-154048400D02*
G75*
G02*
X86601600Y-154148400I-100000J0D01*
G01*
X86801600Y-153900200D02*
G75*
G03*
X86701600Y-154000211I0J-100000D01*
G01*
X87401600Y-154148400D02*
G75*
G02*
X87301600Y-154048400I0J100000D01*
G01*
X87101589Y-154172495D02*
G75*
G02*
X87077506Y-154196589I-24089J-5D01*
G01*
X87201600Y-153900200D02*
G75*
G03*
X87101600Y-154000211I0J-100000D01*
G01*
X87301589Y-154000211D02*
G75*
G03*
X87201600Y-153900211I-99989J11D01*
G01*
X86925694Y-154196600D02*
G75*
G02*
X86901600Y-154172495I6J24100D01*
G01*
%TO.N,/FPGA/IOB_82_GBIN4*%
X97143235Y-127327376D02*
X97740859Y-127925000D01*
X104900000Y-145600000D02*
X106112500Y-145600000D01*
X108390000Y-145600000D02*
X109950000Y-147160000D01*
X103800000Y-144500000D02*
X104900000Y-145600000D01*
X97740859Y-127925000D02*
X101700000Y-127925000D01*
X106112500Y-145600000D02*
X106887500Y-145600000D01*
X103800000Y-130025000D02*
X103800000Y-144500000D01*
X101700000Y-127925000D02*
X103800000Y-130025000D01*
X106887500Y-145600000D02*
X108390000Y-145600000D01*
%TO.N,/FPGA/IOL_18-*%
X90851600Y-133942086D02*
X90851600Y-153592086D01*
X92201600Y-132592086D02*
X90851600Y-133942086D01*
X85387500Y-154500000D02*
X84612500Y-154500000D01*
X80148400Y-155642086D02*
X80657914Y-156151600D01*
X90092086Y-154351600D02*
X86004651Y-154351600D01*
X92201601Y-131926199D02*
X92201600Y-132592086D01*
X86004651Y-154351600D02*
X85856251Y-154500000D01*
X84612500Y-154500000D02*
X84143749Y-154500000D01*
X83995349Y-154351600D02*
X83742086Y-154351600D01*
X94304201Y-127337983D02*
X94304201Y-127514760D01*
X85856251Y-154500000D02*
X85387500Y-154500000D01*
X84143749Y-154500000D02*
X83995349Y-154351600D01*
X83742086Y-154351600D02*
X81942086Y-156151600D01*
X92277800Y-131850000D02*
X92201601Y-131926199D01*
X79778400Y-154780000D02*
X79000000Y-154780000D01*
X94314808Y-127327377D02*
X94304201Y-127337983D01*
X81942086Y-156151600D02*
X80657914Y-156151600D01*
X80148400Y-155150000D02*
X79778400Y-154780000D01*
X90851600Y-153592086D02*
X90092086Y-154351600D01*
X80148400Y-155642086D02*
X80148400Y-155150000D01*
%TO.N,/FPGA/IOL_23+*%
X93607701Y-128951458D02*
X93607701Y-128741590D01*
X84612500Y-157700000D02*
X84143749Y-157700000D01*
X87357914Y-157848400D02*
X91298400Y-153907914D01*
X91298400Y-153907914D02*
X91298400Y-134407914D01*
X86471610Y-157848400D02*
X86501600Y-157848400D01*
X86186605Y-157763395D02*
X86186605Y-157763394D01*
X80351600Y-157750000D02*
X80781600Y-157320000D01*
X86271610Y-157678389D02*
X86301600Y-157678389D01*
X86386605Y-157763394D02*
X86386605Y-157763395D01*
X85856251Y-157700000D02*
X86004651Y-157848400D01*
X93398400Y-129160759D02*
X93607701Y-128951458D01*
X80351600Y-158157914D02*
X80692086Y-158498400D01*
X84143749Y-157700000D02*
X83995349Y-157848400D01*
X93398400Y-132307914D02*
X93398400Y-129160759D01*
X80351600Y-158157914D02*
X80351600Y-157750000D01*
X85387500Y-157700000D02*
X85856251Y-157700000D01*
X86501600Y-157848400D02*
X87357914Y-157848400D01*
X83057914Y-157848400D02*
X82407914Y-158498400D01*
X85387500Y-157700000D02*
X84612500Y-157700000D01*
X86004651Y-157848400D02*
X86101600Y-157848400D01*
X82407914Y-158498400D02*
X80692086Y-158498400D01*
X80781600Y-157320000D02*
X81540000Y-157320000D01*
X83995349Y-157848400D02*
X83057914Y-157848400D01*
X91298400Y-134407914D02*
X93398400Y-132307914D01*
X86271610Y-157678405D02*
G75*
G03*
X86186605Y-157763394I-10J-84995D01*
G01*
X86186600Y-157763395D02*
G75*
G02*
X86101600Y-157848400I-85000J-5D01*
G01*
X86471610Y-157848395D02*
G75*
G02*
X86386605Y-157763395I-10J84995D01*
G01*
X86386611Y-157763394D02*
G75*
G03*
X86301600Y-157678389I-85011J-6D01*
G01*
%TO.N,/FPGA/IOB_87*%
X109250000Y-153475000D02*
X111255000Y-153475000D01*
X106887500Y-154275000D02*
X108450000Y-154275000D01*
X103475000Y-154275000D02*
X106112500Y-154275000D01*
X108450000Y-154275000D02*
X109250000Y-153475000D01*
X102800000Y-153600000D02*
X103475000Y-154275000D01*
X111255000Y-153475000D02*
X112490000Y-152240000D01*
X102800000Y-130150000D02*
X102800000Y-153600000D01*
X96082575Y-126266717D02*
X96086110Y-126263181D01*
X96086110Y-126263181D02*
X96277029Y-126263181D01*
X106112500Y-154275000D02*
X106887500Y-154275000D01*
%TO.N,/FPGA/IOL_23-*%
X93601600Y-132392086D02*
X91501600Y-134492086D01*
X84612500Y-158200000D02*
X84143749Y-158200000D01*
X84143749Y-158200000D02*
X83995349Y-158051600D01*
X93961254Y-129095143D02*
X93751386Y-129095143D01*
X79718400Y-157320000D02*
X79000000Y-157320000D01*
X80148400Y-157750000D02*
X79718400Y-157320000D01*
X85387500Y-158200000D02*
X84612500Y-158200000D01*
X93751386Y-129095143D02*
X93601600Y-129244929D01*
X82492086Y-158701600D02*
X80607914Y-158701600D01*
X80148400Y-158242086D02*
X80148400Y-157750000D01*
X80148400Y-158242086D02*
X80607914Y-158701600D01*
X87442086Y-158051600D02*
X86004651Y-158051600D01*
X93601600Y-129244929D02*
X93601600Y-132392086D01*
X91501600Y-134492086D02*
X91501600Y-153992086D01*
X83142086Y-158051600D02*
X82492086Y-158701600D01*
X85856251Y-158200000D02*
X85387500Y-158200000D01*
X86004651Y-158051600D02*
X85856251Y-158200000D01*
X91501600Y-153992086D02*
X87442086Y-158051600D01*
X83995349Y-158051600D02*
X83142086Y-158051600D01*
%TO.N,/FPGA/IOL_25+*%
X87007914Y-159348400D02*
X92148400Y-154207914D01*
X86136605Y-159263395D02*
X86136605Y-159263394D01*
X80791600Y-159860000D02*
X81540000Y-159860000D01*
X84143749Y-159200000D02*
X83995349Y-159348400D01*
X94048400Y-132707914D02*
X94048400Y-129924973D01*
X85856251Y-159200000D02*
X86004651Y-159348400D01*
X86221610Y-159178389D02*
X86251600Y-159178389D01*
X92148400Y-154207914D02*
X92148400Y-134607914D01*
X82007914Y-161048400D02*
X80842086Y-161048400D01*
X85387500Y-159200000D02*
X85856251Y-159200000D01*
X94048400Y-129924973D02*
X94314808Y-129658565D01*
X86004651Y-159348400D02*
X86051600Y-159348400D01*
X80351600Y-160557914D02*
X80351600Y-160300000D01*
X84612500Y-159200000D02*
X84143749Y-159200000D01*
X80842086Y-161048400D02*
X80351600Y-160557914D01*
X86336605Y-159263394D02*
X86336605Y-159263395D01*
X94314808Y-129658565D02*
X94314808Y-129448697D01*
X85387500Y-159200000D02*
X84612500Y-159200000D01*
X86451600Y-159348400D02*
X87007914Y-159348400D01*
X86421610Y-159348400D02*
X86451600Y-159348400D01*
X83995349Y-159348400D02*
X83707914Y-159348400D01*
X92148400Y-134607914D02*
X94048400Y-132707914D01*
X80351600Y-160300000D02*
X80791600Y-159860000D01*
X83707914Y-159348400D02*
X82007914Y-161048400D01*
X86136600Y-159263395D02*
G75*
G02*
X86051600Y-159348400I-85000J-5D01*
G01*
X86336611Y-159263394D02*
G75*
G03*
X86251600Y-159178389I-85011J-6D01*
G01*
X86421610Y-159348395D02*
G75*
G02*
X86336605Y-159263395I-10J84995D01*
G01*
X86221610Y-159178405D02*
G75*
G03*
X86136605Y-159263394I-10J-84995D01*
G01*
D56*
%TO.N,/FPGA/~{CRESET}*%
X77025000Y-166250000D02*
X78657400Y-166250000D01*
X78703700Y-168752100D02*
X78703700Y-166296300D01*
X79502100Y-173247900D02*
X80250000Y-172500000D01*
X80265000Y-172515000D02*
X83250000Y-172515000D01*
X79502100Y-168752100D02*
X78703700Y-168752100D01*
D54*
X96789681Y-125559610D02*
X96987671Y-125559610D01*
X96987671Y-125559610D02*
X96991207Y-125563145D01*
D56*
X78657400Y-166250000D02*
X78703700Y-166296300D01*
X80250000Y-169500000D02*
X79502100Y-168752100D01*
X80250000Y-172500000D02*
X80250000Y-169500000D01*
X77050000Y-163750000D02*
X78675000Y-163750000D01*
X78703700Y-166296300D02*
X78703700Y-163778700D01*
X80250000Y-172500000D02*
X80265000Y-172515000D01*
X78703700Y-163778700D02*
X78675000Y-163750000D01*
X78703700Y-173247900D02*
X79502100Y-173247900D01*
D54*
%TO.N,/FPGA/IOB_89*%
X106112500Y-145100000D02*
X106887500Y-145100000D01*
X97496788Y-126973823D02*
X98122965Y-127600000D01*
X106887500Y-145100000D02*
X108425000Y-145100000D01*
X98122965Y-127600000D02*
X101900000Y-127600000D01*
X101900000Y-127600000D02*
X104175000Y-129875000D01*
X108425000Y-145100000D02*
X109275000Y-145950000D01*
X104950000Y-145100000D02*
X106112500Y-145100000D01*
X109275000Y-145950000D02*
X111280000Y-145950000D01*
X104175000Y-144325000D02*
X104950000Y-145100000D01*
X111280000Y-145950000D02*
X112490000Y-147160000D01*
X104175000Y-129875000D02*
X104175000Y-144325000D01*
D57*
%TO.N,/ANA_WP_SENSE*%
X116790000Y-57510000D02*
X115325000Y-58975000D01*
X125000000Y-57510000D02*
X116790000Y-57510000D01*
X115325000Y-58975000D02*
X115275000Y-59025000D01*
X115275000Y-59025000D02*
X115275000Y-77925000D01*
X99850000Y-93350000D02*
X98925000Y-93350000D01*
X99850000Y-93350000D02*
X115275000Y-77925000D01*
%TO.N,/ANA_WP*%
X120912500Y-60000000D02*
X120912500Y-61712500D01*
X115925000Y-64250000D02*
X115925000Y-78225000D01*
X120912500Y-61712500D02*
X119650000Y-62975000D01*
X125000000Y-60050000D02*
X120962500Y-60050000D01*
X117200000Y-62975000D02*
X115925000Y-64250000D01*
X97950000Y-96200000D02*
X115925000Y-78225000D01*
X97950000Y-96200000D02*
X97950000Y-96350000D01*
X119650000Y-62975000D02*
X117200000Y-62975000D01*
X120962500Y-60050000D02*
X120912500Y-60000000D01*
%TO.N,/ANA_VWL*%
X125000000Y-65130000D02*
X121042500Y-65130000D01*
X121042500Y-65130000D02*
X120912500Y-65000000D01*
D54*
%TO.N,/FPGA/FLASH.~{CS}*%
X105130000Y-125420000D02*
X105130000Y-125766326D01*
X98557448Y-125913163D02*
X104983163Y-125913163D01*
X105675000Y-126605000D02*
X105675000Y-127510000D01*
X104983163Y-125913163D02*
X105675000Y-126605000D01*
X105130000Y-125766326D02*
X104983163Y-125913163D01*
%TO.N,/FPGA/FLASH.SCK*%
X98911002Y-125559610D02*
X99413048Y-125559610D01*
X108215000Y-123305000D02*
X108220000Y-123310000D01*
X108215000Y-120310000D02*
X108215000Y-123305000D01*
%TO.N,/FPGA/FLASH.DI_IO0*%
X98596339Y-126659161D02*
X102699161Y-126659161D01*
X109485000Y-120310000D02*
X109480000Y-120315000D01*
X102699161Y-126659161D02*
X102700000Y-126660000D01*
X109480000Y-120315000D02*
X109480000Y-124570000D01*
X98203895Y-126266717D02*
X98596339Y-126659161D01*
X109480000Y-124570000D02*
X109470000Y-124580000D01*
%TO.N,/FPGA/FLASH.DO_IO1*%
X106940000Y-126270000D02*
X106940000Y-127505000D01*
X106940000Y-127505000D02*
X106945000Y-127510000D01*
X97496788Y-125559610D02*
X97917517Y-125980338D01*
X97917517Y-125980338D02*
X97917517Y-125994480D01*
%TO.N,/FPGA/FLASH.~{WP}_IO2*%
X116640000Y-131060000D02*
X119300000Y-131060000D01*
X108215000Y-127510000D02*
X108215000Y-126655000D01*
X111810000Y-126230000D02*
X116640000Y-131060000D01*
X108640000Y-126230000D02*
X111810000Y-126230000D01*
X108215000Y-126655000D02*
X108640000Y-126230000D01*
%TO.N,/FPGA/FLASH.~{RST}_IO3*%
X107820000Y-126240000D02*
X107850000Y-126240000D01*
X106945000Y-120310000D02*
X106945000Y-125365000D01*
X106945000Y-125365000D02*
X107820000Y-126240000D01*
%TO.N,/FPGA/IOB_91*%
X103350000Y-153250000D02*
X103875000Y-153775000D01*
X108415000Y-153775000D02*
X109950000Y-152240000D01*
X96789681Y-126266717D02*
X97224552Y-126701587D01*
X103350000Y-130150000D02*
X103350000Y-153250000D01*
X106112500Y-153775000D02*
X106887500Y-153775000D01*
X106887500Y-153775000D02*
X108415000Y-153775000D01*
X103875000Y-153775000D02*
X106112500Y-153775000D01*
D56*
%TO.N,/FPGA/CDONE*%
X116600000Y-167475000D02*
X116600000Y-164840000D01*
X116600000Y-164840000D02*
X115310000Y-163550000D01*
X116600000Y-167475000D02*
X118600000Y-167475000D01*
D54*
X97143235Y-125913163D02*
X97281121Y-126051049D01*
D55*
%TO.N,/FPGA/A25*%
X108800000Y-107400000D02*
X108800000Y-94223516D01*
X108800000Y-94223516D02*
X110974258Y-92049258D01*
X105600000Y-112887500D02*
X105600000Y-110600000D01*
D54*
X105600000Y-115000000D02*
X105600000Y-112887500D01*
D55*
X105600000Y-110600000D02*
X108800000Y-107400000D01*
D54*
X95375468Y-123240300D02*
X95371932Y-123236764D01*
X95375468Y-123438289D02*
X95375468Y-123240300D01*
D55*
%TO.N,/FPGA/A24*%
X112700000Y-109200000D02*
X112700000Y-93123516D01*
D54*
X96082575Y-124145396D02*
X96280564Y-124145396D01*
X96280564Y-124145396D02*
X96284100Y-124148932D01*
X110800000Y-115000000D02*
X110800000Y-112887500D01*
D55*
X110800000Y-111100000D02*
X112700000Y-109200000D01*
X112700000Y-93123516D02*
X114274258Y-91549258D01*
X110800000Y-112887500D02*
X110800000Y-111100000D01*
D54*
%TO.N,/FPGA/IOB_103_CBSEL0*%
X111270000Y-143300000D02*
X112490000Y-142080000D01*
X102059840Y-127284840D02*
X104500000Y-129725000D01*
X106112500Y-144100000D02*
X106887500Y-144100000D01*
X109275000Y-143300000D02*
X111270000Y-143300000D01*
X104500000Y-129725000D02*
X104500000Y-143225000D01*
X98799222Y-127284840D02*
X102059840Y-127284840D01*
X96634118Y-125913163D02*
X96637653Y-125916699D01*
X104500000Y-143225000D02*
X105375000Y-144100000D01*
X105375000Y-144100000D02*
X106112500Y-144100000D01*
X108475000Y-144100000D02*
X109275000Y-143300000D01*
X106887500Y-144100000D02*
X108475000Y-144100000D01*
X96436128Y-125913163D02*
X96634118Y-125913163D01*
%TO.N,/QSPI.IO2*%
X95375468Y-129095143D02*
X95375468Y-130174532D01*
X94800000Y-130750000D02*
X94800000Y-133700000D01*
X94800000Y-130750000D02*
X95375468Y-130174532D01*
X94800000Y-133700000D02*
X93025000Y-135475000D01*
%TO.N,/QSPI.~{CS}*%
X94668361Y-127878920D02*
X94671897Y-127882456D01*
X94668361Y-127680930D02*
X94668361Y-127878920D01*
%TO.N,/QSPI.IO3*%
X95021914Y-129448697D02*
X95021914Y-130128086D01*
X94550000Y-130600000D02*
X95021914Y-130128086D01*
X94550000Y-130600000D02*
X94550000Y-133475000D01*
X94550000Y-133475000D02*
X93025000Y-135000000D01*
%TO.N,/QSPI.SCK*%
X108750000Y-132300000D02*
X120300000Y-132300000D01*
X95021914Y-127327377D02*
X95021914Y-127525367D01*
X121600000Y-131000000D02*
X121600000Y-129900000D01*
X123925000Y-127575000D02*
X126225000Y-127575000D01*
X95021914Y-127525367D02*
X95025450Y-127528902D01*
X121600000Y-129900000D02*
X123925000Y-127575000D01*
X105550000Y-129100000D02*
X108750000Y-132300000D01*
X120300000Y-132300000D02*
X121600000Y-131000000D01*
X126225000Y-127575000D02*
X127500000Y-126300000D01*
%TO.N,/FPGA/IOB_104_CBSEL1*%
X102250000Y-127000000D02*
X104800000Y-129550000D01*
X104800000Y-129550000D02*
X104800000Y-142950000D01*
X97850342Y-126620270D02*
X98230072Y-127000000D01*
X106112500Y-143600000D02*
X106887500Y-143600000D01*
X98230072Y-127000000D02*
X102250000Y-127000000D01*
X105450000Y-143600000D02*
X106112500Y-143600000D01*
X104800000Y-142950000D02*
X105450000Y-143600000D01*
X106887500Y-143600000D02*
X108430000Y-143600000D01*
X108430000Y-143600000D02*
X109950000Y-142080000D01*
%TO.N,/QSPI.IO1*%
X75130000Y-132950000D02*
X75160000Y-132950000D01*
X66540000Y-141540000D02*
X75130000Y-132950000D01*
X95145658Y-128158227D02*
X95145658Y-128172369D01*
X95021914Y-128034484D02*
X95145658Y-128158227D01*
%TO.N,/QSPI.IO0*%
X94668361Y-128388037D02*
X95103232Y-128822908D01*
X66540000Y-144080000D02*
X77240000Y-133380000D01*
X77240000Y-133380000D02*
X77290000Y-133380000D01*
%TO.N,/FPGA/FPGA_CLK*%
X98115153Y-129247526D02*
X98115153Y-129006402D01*
X98115507Y-129006755D02*
X98115507Y-129247172D01*
X98115153Y-129006402D02*
X96789681Y-127680930D01*
%TO.N,/FPGA/IOL_25-*%
X80757914Y-161251600D02*
X80148400Y-160642086D01*
X94251600Y-130009143D02*
X94251600Y-132792086D01*
X83995349Y-159551600D02*
X83792086Y-159551600D01*
X84612500Y-159700000D02*
X84143749Y-159700000D01*
X86004651Y-159551600D02*
X85856251Y-159700000D01*
X94668361Y-129802250D02*
X94458493Y-129802250D01*
X94251600Y-132792086D02*
X92351600Y-134692086D01*
X92351600Y-154292086D02*
X87092086Y-159551600D01*
X80148400Y-160642086D02*
X80148400Y-160300000D01*
X80148400Y-160300000D02*
X79708400Y-159860000D01*
X85387500Y-159700000D02*
X84612500Y-159700000D01*
X79708400Y-159860000D02*
X79000000Y-159860000D01*
X83792086Y-159551600D02*
X82092086Y-161251600D01*
X85856251Y-159700000D02*
X85387500Y-159700000D01*
X87092086Y-159551600D02*
X86004651Y-159551600D01*
X94458493Y-129802250D02*
X94251600Y-130009143D01*
X82092086Y-161251600D02*
X80757914Y-161251600D01*
X84143749Y-159700000D02*
X83995349Y-159551600D01*
X92351600Y-134692086D02*
X92351600Y-154292086D01*
D52*
%TO.N,Net-(D19-Pad2)*%
X116600000Y-171112500D02*
X116600000Y-169125000D01*
D56*
X118600000Y-169125000D02*
X116600000Y-169125000D01*
D59*
%TO.N,Net-(R10-Pad1)*%
X98377136Y-132365513D02*
X98211320Y-132199696D01*
X99048888Y-132365513D02*
X98377136Y-132365513D01*
X98211320Y-132199696D02*
X97849988Y-132199696D01*
X99476687Y-132793312D02*
X99048888Y-132365513D01*
D54*
%TO.N,/FPGA/IOR_109*%
X97981156Y-125075242D02*
X97988227Y-125075242D01*
X97850342Y-125206056D02*
X97981156Y-125075242D01*
%TO.N,/FPGA/IOT_188*%
X93961254Y-123438289D02*
X93961254Y-123240300D01*
X93961254Y-123240300D02*
X93957719Y-123236764D01*
%TD*%
%TA.AperFunction,Conductor*%
%TO.N,GND*%
G36*
X89686694Y-110998306D02*
G01*
X89705000Y-111042500D01*
X89705000Y-111549466D01*
X89686979Y-111592971D01*
X89683078Y-111595578D01*
X89673719Y-111609585D01*
X89665949Y-111619051D01*
X89523306Y-111761694D01*
X89479112Y-111780000D01*
X89330888Y-111780000D01*
X89286694Y-111761694D01*
X89123306Y-111598306D01*
X89105000Y-111554112D01*
X89105000Y-111042500D01*
X89123306Y-110998306D01*
X89167500Y-110980000D01*
X89642500Y-110980000D01*
X89686694Y-110998306D01*
G37*
%TD.AperFunction*%
%TD*%
%TA.AperFunction,Conductor*%
%TO.N,GND*%
G36*
X80076694Y-111003306D02*
G01*
X80095000Y-111047500D01*
X80095000Y-111559112D01*
X80076694Y-111603306D01*
X79913306Y-111766694D01*
X79869112Y-111785000D01*
X79720888Y-111785000D01*
X79676694Y-111766694D01*
X79513306Y-111603306D01*
X79495000Y-111559112D01*
X79495000Y-111047500D01*
X79513306Y-111003306D01*
X79557500Y-110985000D01*
X80032500Y-110985000D01*
X80076694Y-111003306D01*
G37*
%TD.AperFunction*%
%TD*%
%TA.AperFunction,Conductor*%
%TO.N,GND*%
G36*
X83022194Y-128278306D02*
G01*
X83040500Y-128322500D01*
X83040500Y-128674000D01*
X83046430Y-128729159D01*
X83057816Y-128781501D01*
X83058033Y-128782292D01*
X83058195Y-128782951D01*
X83060000Y-128797863D01*
X83060000Y-128960000D01*
X83146956Y-128960000D01*
X83188030Y-128976585D01*
X83188209Y-128976337D01*
X83189218Y-128977065D01*
X83190354Y-128977523D01*
X83195051Y-128982056D01*
X83284770Y-129028987D01*
X83287720Y-129029853D01*
X83287722Y-129029854D01*
X83304683Y-129034834D01*
X83352891Y-129048989D01*
X83355094Y-129049306D01*
X83355100Y-129049307D01*
X83408099Y-129056926D01*
X83426000Y-129059500D01*
X83702809Y-129059500D01*
X83747003Y-129077806D01*
X83765309Y-129122000D01*
X83764654Y-129131022D01*
X83758870Y-129170670D01*
X83761641Y-129177359D01*
X83770431Y-129181000D01*
X84551500Y-129181000D01*
X84595694Y-129199306D01*
X84614000Y-129243500D01*
X84614000Y-129999568D01*
X84617641Y-130008358D01*
X84626431Y-130011999D01*
X84641083Y-130011999D01*
X84645614Y-130011667D01*
X84707743Y-130002522D01*
X84716910Y-129999674D01*
X84813105Y-129952444D01*
X84821387Y-129946516D01*
X84896883Y-129870889D01*
X84902799Y-129862594D01*
X84941349Y-129783730D01*
X84977204Y-129752064D01*
X85024947Y-129755026D01*
X85056613Y-129790881D01*
X85060000Y-129811177D01*
X85060000Y-130334112D01*
X85041694Y-130378306D01*
X83178306Y-132241694D01*
X83134112Y-132260000D01*
X80622500Y-132260000D01*
X80578306Y-132241694D01*
X80560000Y-132197500D01*
X80560000Y-131741083D01*
X80758001Y-131741083D01*
X80758333Y-131745614D01*
X80767478Y-131807743D01*
X80770326Y-131816910D01*
X80817556Y-131913105D01*
X80823484Y-131921387D01*
X80899111Y-131996883D01*
X80907406Y-132002799D01*
X81003687Y-132049863D01*
X81012851Y-132052695D01*
X81070670Y-132061130D01*
X81077359Y-132058359D01*
X81081000Y-132049569D01*
X81081000Y-132049568D01*
X81589000Y-132049568D01*
X81592641Y-132058358D01*
X81599316Y-132061123D01*
X81657743Y-132052522D01*
X81666910Y-132049674D01*
X81763105Y-132002444D01*
X81771387Y-131996516D01*
X81846883Y-131920889D01*
X81852799Y-131912594D01*
X81899863Y-131816313D01*
X81902695Y-131807149D01*
X81911672Y-131745609D01*
X81912000Y-131741096D01*
X81912000Y-131726431D01*
X81908359Y-131717641D01*
X81899569Y-131714000D01*
X81601431Y-131714000D01*
X81592641Y-131717641D01*
X81589000Y-131726431D01*
X81589000Y-132049568D01*
X81081000Y-132049568D01*
X81081000Y-131726431D01*
X81077359Y-131717641D01*
X81068569Y-131714000D01*
X80770432Y-131714000D01*
X80761642Y-131717641D01*
X80758001Y-131726431D01*
X80758001Y-131741083D01*
X80560000Y-131741083D01*
X80560000Y-131193569D01*
X80758000Y-131193569D01*
X80761641Y-131202359D01*
X80770431Y-131206000D01*
X81068569Y-131206000D01*
X81077359Y-131202359D01*
X81081000Y-131193569D01*
X81589000Y-131193569D01*
X81592641Y-131202359D01*
X81601431Y-131206000D01*
X81899568Y-131206000D01*
X81908358Y-131202359D01*
X81911999Y-131193569D01*
X81911999Y-131178917D01*
X81911667Y-131174386D01*
X81902522Y-131112257D01*
X81899674Y-131103090D01*
X81852444Y-131006895D01*
X81846516Y-130998613D01*
X81770889Y-130923117D01*
X81762594Y-130917201D01*
X81666313Y-130870137D01*
X81657149Y-130867305D01*
X81599330Y-130858870D01*
X81592641Y-130861641D01*
X81589000Y-130870431D01*
X81589000Y-131193569D01*
X81081000Y-131193569D01*
X81081000Y-130870432D01*
X81077359Y-130861642D01*
X81070684Y-130858877D01*
X81012257Y-130867478D01*
X81003090Y-130870326D01*
X80906895Y-130917556D01*
X80898613Y-130923484D01*
X80823117Y-130999111D01*
X80817201Y-131007406D01*
X80770137Y-131103687D01*
X80767305Y-131112851D01*
X80758328Y-131174391D01*
X80758000Y-131178904D01*
X80758000Y-131193569D01*
X80560000Y-131193569D01*
X80560000Y-130585888D01*
X80578306Y-130541694D01*
X81060000Y-130060000D01*
X81060000Y-129801230D01*
X81707500Y-129801230D01*
X81710379Y-129825424D01*
X81712283Y-129829710D01*
X81712283Y-129829711D01*
X81730795Y-129871387D01*
X81752343Y-129919900D01*
X81825506Y-129992935D01*
X81847583Y-130002695D01*
X81915756Y-130032835D01*
X81915759Y-130032836D01*
X81920055Y-130034735D01*
X81924722Y-130035279D01*
X81924725Y-130035280D01*
X81936038Y-130036599D01*
X81943770Y-130037500D01*
X83051230Y-130037500D01*
X83053060Y-130037282D01*
X83053064Y-130037282D01*
X83059647Y-130036498D01*
X83075424Y-130034621D01*
X83079711Y-130032717D01*
X83164628Y-129994999D01*
X83164629Y-129994998D01*
X83169900Y-129992657D01*
X83242935Y-129919494D01*
X83267865Y-129863105D01*
X83282835Y-129829244D01*
X83282836Y-129829241D01*
X83284735Y-129824945D01*
X83285279Y-129820278D01*
X83285280Y-129820275D01*
X83287288Y-129803046D01*
X83287500Y-129801230D01*
X83287500Y-129699316D01*
X83758877Y-129699316D01*
X83767478Y-129757743D01*
X83770326Y-129766910D01*
X83817556Y-129863105D01*
X83823484Y-129871387D01*
X83899111Y-129946883D01*
X83907406Y-129952799D01*
X84003687Y-129999863D01*
X84012851Y-130002695D01*
X84074391Y-130011672D01*
X84078904Y-130012000D01*
X84093569Y-130012000D01*
X84102359Y-130008359D01*
X84106000Y-129999569D01*
X84106000Y-129701431D01*
X84102359Y-129692641D01*
X84093569Y-129689000D01*
X83770432Y-129689000D01*
X83761642Y-129692641D01*
X83758877Y-129699316D01*
X83287500Y-129699316D01*
X83287500Y-129418770D01*
X83284621Y-129394576D01*
X83242657Y-129300100D01*
X83169494Y-129227065D01*
X83106705Y-129199306D01*
X83079244Y-129187165D01*
X83079241Y-129187164D01*
X83074945Y-129185265D01*
X83070278Y-129184721D01*
X83070275Y-129184720D01*
X83058962Y-129183401D01*
X83051230Y-129182500D01*
X81943770Y-129182500D01*
X81941940Y-129182718D01*
X81941936Y-129182718D01*
X81935353Y-129183502D01*
X81919576Y-129185379D01*
X81915290Y-129187283D01*
X81915289Y-129187283D01*
X81830372Y-129225001D01*
X81830371Y-129225002D01*
X81825100Y-129227343D01*
X81752065Y-129300506D01*
X81732139Y-129345576D01*
X81712165Y-129390756D01*
X81712164Y-129390759D01*
X81710265Y-129395055D01*
X81709721Y-129399722D01*
X81709720Y-129399725D01*
X81708401Y-129411038D01*
X81707500Y-129418770D01*
X81707500Y-129801230D01*
X81060000Y-129801230D01*
X81060000Y-128322500D01*
X81078306Y-128278306D01*
X81122500Y-128260000D01*
X82978000Y-128260000D01*
X83022194Y-128278306D01*
G37*
%TD.AperFunction*%
%TD*%
%TA.AperFunction,Conductor*%
%TO.N,-15V*%
G36*
X80842121Y-46620002D02*
G01*
X80888614Y-46673658D01*
X80900000Y-46726000D01*
X80900000Y-51074000D01*
X80879998Y-51142121D01*
X80826342Y-51188614D01*
X80774000Y-51200000D01*
X73726000Y-51200000D01*
X73657879Y-51179998D01*
X73611386Y-51126342D01*
X73600000Y-51074000D01*
X73600000Y-49918828D01*
X74096001Y-49918828D01*
X74097209Y-49931088D01*
X74108315Y-49986931D01*
X74117633Y-50009427D01*
X74159983Y-50072808D01*
X74177192Y-50090017D01*
X74240575Y-50132368D01*
X74263066Y-50141684D01*
X74318915Y-50152793D01*
X74331170Y-50154000D01*
X75327885Y-50154000D01*
X75343124Y-50149525D01*
X75344329Y-50148135D01*
X75346000Y-50140452D01*
X75346000Y-50135884D01*
X75854000Y-50135884D01*
X75858475Y-50151123D01*
X75859865Y-50152328D01*
X75867548Y-50153999D01*
X76868828Y-50153999D01*
X76881088Y-50152791D01*
X76936931Y-50141685D01*
X76959427Y-50132367D01*
X77022808Y-50090017D01*
X77040017Y-50072808D01*
X77082368Y-50009425D01*
X77091684Y-49986934D01*
X77102793Y-49931085D01*
X77104000Y-49918830D01*
X77104000Y-49272115D01*
X77099525Y-49256876D01*
X77098135Y-49255671D01*
X77090452Y-49254000D01*
X75872115Y-49254000D01*
X75856876Y-49258475D01*
X75855671Y-49259865D01*
X75854000Y-49267548D01*
X75854000Y-50135884D01*
X75346000Y-50135884D01*
X75346000Y-49272115D01*
X75341525Y-49256876D01*
X75340135Y-49255671D01*
X75332452Y-49254000D01*
X74114116Y-49254000D01*
X74098877Y-49258475D01*
X74097672Y-49259865D01*
X74096001Y-49267548D01*
X74096001Y-49918828D01*
X73600000Y-49918828D01*
X73600000Y-48727885D01*
X74096000Y-48727885D01*
X74100475Y-48743124D01*
X74101865Y-48744329D01*
X74109548Y-48746000D01*
X75327885Y-48746000D01*
X75343124Y-48741525D01*
X75344329Y-48740135D01*
X75346000Y-48732452D01*
X75346000Y-48727885D01*
X75854000Y-48727885D01*
X75858475Y-48743124D01*
X75859865Y-48744329D01*
X75867548Y-48746000D01*
X77085884Y-48746000D01*
X77101123Y-48741525D01*
X77102328Y-48740135D01*
X77103999Y-48732452D01*
X77103999Y-48443828D01*
X79496001Y-48443828D01*
X79497209Y-48456088D01*
X79508315Y-48511931D01*
X79517633Y-48534427D01*
X79559983Y-48597808D01*
X79577192Y-48615017D01*
X79640575Y-48657368D01*
X79663066Y-48666684D01*
X79718915Y-48677793D01*
X79731170Y-48679000D01*
X79806885Y-48679000D01*
X79822124Y-48674525D01*
X79823329Y-48673135D01*
X79825000Y-48665452D01*
X79825000Y-48660884D01*
X80275000Y-48660884D01*
X80279475Y-48676123D01*
X80280865Y-48677328D01*
X80288548Y-48678999D01*
X80368828Y-48678999D01*
X80381088Y-48677791D01*
X80436931Y-48666685D01*
X80459427Y-48657367D01*
X80522808Y-48615017D01*
X80540017Y-48597808D01*
X80582368Y-48534425D01*
X80591684Y-48511934D01*
X80602793Y-48456085D01*
X80604000Y-48443830D01*
X80604000Y-48443115D01*
X80599525Y-48427876D01*
X80598135Y-48426671D01*
X80590452Y-48425000D01*
X80293115Y-48425000D01*
X80277876Y-48429475D01*
X80276671Y-48430865D01*
X80275000Y-48438548D01*
X80275000Y-48660884D01*
X79825000Y-48660884D01*
X79825000Y-48443115D01*
X79820525Y-48427876D01*
X79819135Y-48426671D01*
X79811452Y-48425000D01*
X79514116Y-48425000D01*
X79498877Y-48429475D01*
X79497672Y-48430865D01*
X79496001Y-48438548D01*
X79496001Y-48443828D01*
X77103999Y-48443828D01*
X77103999Y-48081172D01*
X77102791Y-48068912D01*
X77091685Y-48013069D01*
X77082367Y-47990573D01*
X77059857Y-47956885D01*
X79496000Y-47956885D01*
X79500475Y-47972124D01*
X79501865Y-47973329D01*
X79509548Y-47975000D01*
X79806885Y-47975000D01*
X79822124Y-47970525D01*
X79823329Y-47969135D01*
X79825000Y-47961452D01*
X79825000Y-47956885D01*
X80275000Y-47956885D01*
X80279475Y-47972124D01*
X80280865Y-47973329D01*
X80288548Y-47975000D01*
X80585884Y-47975000D01*
X80601123Y-47970525D01*
X80602328Y-47969135D01*
X80603999Y-47961452D01*
X80603999Y-47956172D01*
X80602791Y-47943912D01*
X80591685Y-47888069D01*
X80582367Y-47865573D01*
X80540017Y-47802192D01*
X80522808Y-47784983D01*
X80459425Y-47742632D01*
X80436934Y-47733316D01*
X80381085Y-47722207D01*
X80368830Y-47721000D01*
X80293115Y-47721000D01*
X80277876Y-47725475D01*
X80276671Y-47726865D01*
X80275000Y-47734548D01*
X80275000Y-47956885D01*
X79825000Y-47956885D01*
X79825000Y-47739116D01*
X79820525Y-47723877D01*
X79819135Y-47722672D01*
X79811452Y-47721001D01*
X79731172Y-47721001D01*
X79718912Y-47722209D01*
X79663069Y-47733315D01*
X79640573Y-47742633D01*
X79577192Y-47784983D01*
X79559983Y-47802192D01*
X79517632Y-47865575D01*
X79508316Y-47888066D01*
X79497207Y-47943915D01*
X79496000Y-47956170D01*
X79496000Y-47956885D01*
X77059857Y-47956885D01*
X77040017Y-47927192D01*
X77022808Y-47909983D01*
X76959425Y-47867632D01*
X76936934Y-47858316D01*
X76881085Y-47847207D01*
X76868830Y-47846000D01*
X75872115Y-47846000D01*
X75856876Y-47850475D01*
X75855671Y-47851865D01*
X75854000Y-47859548D01*
X75854000Y-48727885D01*
X75346000Y-48727885D01*
X75346000Y-47864116D01*
X75341525Y-47848877D01*
X75340135Y-47847672D01*
X75332452Y-47846001D01*
X74331172Y-47846001D01*
X74318912Y-47847209D01*
X74263069Y-47858315D01*
X74240573Y-47867633D01*
X74177192Y-47909983D01*
X74159983Y-47927192D01*
X74117632Y-47990575D01*
X74108316Y-48013066D01*
X74097207Y-48068915D01*
X74096000Y-48081170D01*
X74096000Y-48727885D01*
X73600000Y-48727885D01*
X73600000Y-46726000D01*
X73620002Y-46657879D01*
X73673658Y-46611386D01*
X73726000Y-46600000D01*
X80774000Y-46600000D01*
X80842121Y-46620002D01*
G37*
%TD.AperFunction*%
%TD*%
%TA.AperFunction,Conductor*%
%TO.N,GND*%
G36*
X83276694Y-111003306D02*
G01*
X83295000Y-111047500D01*
X83295000Y-111559112D01*
X83276694Y-111603306D01*
X83113306Y-111766694D01*
X83069112Y-111785000D01*
X82920888Y-111785000D01*
X82876694Y-111766694D01*
X82713306Y-111603306D01*
X82695000Y-111559112D01*
X82695000Y-111047500D01*
X82713306Y-111003306D01*
X82757500Y-110985000D01*
X83232500Y-110985000D01*
X83276694Y-111003306D01*
G37*
%TD.AperFunction*%
%TD*%
%TA.AperFunction,Conductor*%
%TO.N,GND*%
G36*
X109918306Y-113118306D02*
G01*
X110060915Y-113260915D01*
X110068688Y-113270386D01*
X110082794Y-113291498D01*
X110082795Y-113291499D01*
X110083078Y-113291922D01*
X110082994Y-113291978D01*
X110100000Y-113333034D01*
X110100000Y-113837500D01*
X110081694Y-113881694D01*
X110037500Y-113900000D01*
X109562500Y-113900000D01*
X109518306Y-113881694D01*
X109500000Y-113837500D01*
X109500000Y-113333034D01*
X109517006Y-113291978D01*
X109516922Y-113291922D01*
X109517205Y-113291499D01*
X109517206Y-113291498D01*
X109531312Y-113270386D01*
X109539085Y-113260915D01*
X109681694Y-113118306D01*
X109725888Y-113100000D01*
X109874112Y-113100000D01*
X109918306Y-113118306D01*
G37*
%TD.AperFunction*%
%TD*%
%TA.AperFunction,Conductor*%
%TO.N,GND*%
G36*
X110076694Y-111118306D02*
G01*
X110095000Y-111162500D01*
X110095000Y-111671965D01*
X110080699Y-111706489D01*
X110083077Y-111708078D01*
X110078753Y-111714549D01*
X110070981Y-111724019D01*
X109913306Y-111881694D01*
X109869112Y-111900000D01*
X109720888Y-111900000D01*
X109676694Y-111881694D01*
X109549154Y-111754154D01*
X109541381Y-111744683D01*
X109529924Y-111727537D01*
X109516922Y-111708078D01*
X109513021Y-111705471D01*
X109495000Y-111661966D01*
X109495000Y-111281911D01*
X109513306Y-111237717D01*
X109632717Y-111118306D01*
X109676911Y-111100000D01*
X110032500Y-111100000D01*
X110076694Y-111118306D01*
G37*
%TD.AperFunction*%
%TD*%
%TA.AperFunction,Conductor*%
%TO.N,+3.3V*%
G36*
X78040469Y-127269104D02*
G01*
X78260000Y-127460000D01*
X78260000Y-131960000D01*
X77530000Y-131960000D01*
X77530000Y-127260000D01*
X78016126Y-127260000D01*
X78040469Y-127269104D01*
G37*
%TD.AperFunction*%
%TD*%
%TA.AperFunction,Conductor*%
%TO.N,+1V2*%
G36*
X82757340Y-125768267D02*
G01*
X82760940Y-125771607D01*
X82771745Y-125775918D01*
X82776486Y-125778915D01*
X82784672Y-125783286D01*
X82789807Y-125785561D01*
X82799403Y-125792144D01*
X82822517Y-125797629D01*
X82840110Y-125803192D01*
X82862183Y-125811999D01*
X82868312Y-125812600D01*
X82871391Y-125812600D01*
X82874463Y-125812750D01*
X82874450Y-125813021D01*
X82883875Y-125814124D01*
X82894137Y-125814626D01*
X82905459Y-125817313D01*
X82916988Y-125815744D01*
X82916989Y-125815744D01*
X82926960Y-125814387D01*
X82931633Y-125813751D01*
X82948623Y-125812600D01*
X86194000Y-125812600D01*
X86262121Y-125832602D01*
X86308614Y-125886258D01*
X86320000Y-125938600D01*
X86320000Y-128674000D01*
X86299998Y-128742121D01*
X86246342Y-128788614D01*
X86194000Y-128800000D01*
X84899466Y-128800000D01*
X84843403Y-128785659D01*
X84842635Y-128785083D01*
X84834230Y-128781932D01*
X84834228Y-128781931D01*
X84721419Y-128739642D01*
X84721418Y-128739642D01*
X84714024Y-128736870D01*
X84706174Y-128736017D01*
X84706173Y-128736017D01*
X84658786Y-128730869D01*
X84658785Y-128730869D01*
X84655389Y-128730500D01*
X84360044Y-128730500D01*
X84064612Y-128730501D01*
X84061218Y-128730870D01*
X84061212Y-128730870D01*
X84013834Y-128736016D01*
X84013830Y-128736017D01*
X84005976Y-128736870D01*
X83943566Y-128760266D01*
X83885772Y-128781931D01*
X83885770Y-128781932D01*
X83877365Y-128785083D01*
X83876597Y-128785659D01*
X83820534Y-128800000D01*
X83426000Y-128800000D01*
X83357879Y-128779998D01*
X83311386Y-128726342D01*
X83300000Y-128674000D01*
X83300000Y-128148841D01*
X83758807Y-128148841D01*
X83766759Y-128202859D01*
X83772502Y-128221342D01*
X83815241Y-128308392D01*
X83827201Y-128325097D01*
X83895397Y-128393175D01*
X83912120Y-128405103D01*
X83999263Y-128447700D01*
X84017724Y-128453406D01*
X84072110Y-128461340D01*
X84081210Y-128462000D01*
X84087885Y-128462000D01*
X84103124Y-128457525D01*
X84104329Y-128456135D01*
X84106000Y-128448452D01*
X84106000Y-128443884D01*
X84614000Y-128443884D01*
X84618475Y-128459123D01*
X84619865Y-128460328D01*
X84627548Y-128461999D01*
X84638755Y-128461999D01*
X84647919Y-128461328D01*
X84702859Y-128453241D01*
X84721342Y-128447498D01*
X84808392Y-128404759D01*
X84825097Y-128392799D01*
X84893175Y-128324603D01*
X84905103Y-128307880D01*
X84947700Y-128220737D01*
X84953406Y-128202276D01*
X84960660Y-128152551D01*
X84957525Y-128141876D01*
X84956135Y-128140671D01*
X84948452Y-128139000D01*
X84632115Y-128139000D01*
X84616876Y-128143475D01*
X84615671Y-128144865D01*
X84614000Y-128152548D01*
X84614000Y-128443884D01*
X84106000Y-128443884D01*
X84106000Y-128157115D01*
X84101525Y-128141876D01*
X84100135Y-128140671D01*
X84092452Y-128139000D01*
X83776116Y-128139000D01*
X83760877Y-128143475D01*
X83759672Y-128144865D01*
X83758807Y-128148841D01*
X83300000Y-128148841D01*
X83300000Y-127970000D01*
X83286453Y-127970000D01*
X83277911Y-127968142D01*
X83272562Y-127965964D01*
X83258289Y-127964000D01*
X81746176Y-127964000D01*
X81743125Y-127964896D01*
X81707627Y-127970000D01*
X81526000Y-127970000D01*
X81457879Y-127949998D01*
X81411386Y-127896342D01*
X81400000Y-127844000D01*
X81400000Y-127617449D01*
X83759340Y-127617449D01*
X83762475Y-127628124D01*
X83763865Y-127629329D01*
X83771548Y-127631000D01*
X84087885Y-127631000D01*
X84103124Y-127626525D01*
X84104329Y-127625135D01*
X84106000Y-127617452D01*
X84106000Y-127612885D01*
X84614000Y-127612885D01*
X84618475Y-127628124D01*
X84619865Y-127629329D01*
X84627548Y-127631000D01*
X84943884Y-127631000D01*
X84959123Y-127626525D01*
X84960328Y-127625135D01*
X84961193Y-127621159D01*
X84953241Y-127567141D01*
X84947498Y-127548658D01*
X84904759Y-127461608D01*
X84892799Y-127444903D01*
X84824603Y-127376825D01*
X84807880Y-127364897D01*
X84720737Y-127322300D01*
X84702276Y-127316594D01*
X84647890Y-127308660D01*
X84638790Y-127308000D01*
X84632115Y-127308000D01*
X84616876Y-127312475D01*
X84615671Y-127313865D01*
X84614000Y-127321548D01*
X84614000Y-127612885D01*
X84106000Y-127612885D01*
X84106000Y-127326116D01*
X84101525Y-127310877D01*
X84100135Y-127309672D01*
X84092452Y-127308001D01*
X84081245Y-127308001D01*
X84072081Y-127308672D01*
X84017141Y-127316759D01*
X83998658Y-127322502D01*
X83911608Y-127365241D01*
X83894903Y-127377201D01*
X83826825Y-127445397D01*
X83814897Y-127462120D01*
X83772300Y-127549263D01*
X83766594Y-127567724D01*
X83759340Y-127617449D01*
X81400000Y-127617449D01*
X81400000Y-127453413D01*
X81733566Y-127453413D01*
X81737702Y-127456000D01*
X82225385Y-127456000D01*
X82240624Y-127451525D01*
X82241829Y-127450135D01*
X82243500Y-127442452D01*
X82243500Y-127437885D01*
X82751500Y-127437885D01*
X82755975Y-127453124D01*
X82757365Y-127454329D01*
X82765048Y-127456000D01*
X83248824Y-127456000D01*
X83262355Y-127452027D01*
X83263044Y-127447232D01*
X83246961Y-127411023D01*
X83234003Y-127392168D01*
X83177439Y-127335703D01*
X83158568Y-127322781D01*
X83083494Y-127289591D01*
X83065417Y-127284663D01*
X83054795Y-127283425D01*
X83047491Y-127283000D01*
X82769615Y-127283000D01*
X82754376Y-127287475D01*
X82753171Y-127288865D01*
X82751500Y-127296548D01*
X82751500Y-127437885D01*
X82243500Y-127437885D01*
X82243500Y-127301115D01*
X82239025Y-127285876D01*
X82237635Y-127284671D01*
X82229952Y-127283000D01*
X81947580Y-127283000D01*
X81940136Y-127283441D01*
X81929088Y-127284756D01*
X81911048Y-127289714D01*
X81836022Y-127323039D01*
X81817168Y-127335997D01*
X81760703Y-127392561D01*
X81747781Y-127411432D01*
X81735404Y-127439430D01*
X81733566Y-127453413D01*
X81400000Y-127453413D01*
X81400000Y-125876000D01*
X81420002Y-125807879D01*
X81473658Y-125761386D01*
X81526000Y-125750000D01*
X82694260Y-125750000D01*
X82757340Y-125768267D01*
G37*
%TD.AperFunction*%
%TD*%
%TA.AperFunction,Conductor*%
%TO.N,GND*%
G36*
X105705471Y-154488021D02*
G01*
X105708078Y-154491922D01*
X105713195Y-154495341D01*
X105729614Y-154506312D01*
X105739085Y-154514085D01*
X105876694Y-154651694D01*
X105895000Y-154695888D01*
X105895000Y-154844112D01*
X105876694Y-154888306D01*
X105713306Y-155051694D01*
X105669112Y-155070000D01*
X105157500Y-155070000D01*
X105113306Y-155051694D01*
X105095000Y-155007500D01*
X105095000Y-154532500D01*
X105113306Y-154488306D01*
X105157500Y-154470000D01*
X105661966Y-154470000D01*
X105705471Y-154488021D01*
G37*
%TD.AperFunction*%
%TD*%
%TA.AperFunction,Conductor*%
%TO.N,GND*%
G36*
X79913306Y-113018306D02*
G01*
X80070981Y-113175981D01*
X80078753Y-113185451D01*
X80083077Y-113191922D01*
X80080699Y-113193511D01*
X80095000Y-113228035D01*
X80095000Y-113737500D01*
X80076694Y-113781694D01*
X80032500Y-113800000D01*
X79557500Y-113800000D01*
X79513306Y-113781694D01*
X79495000Y-113737500D01*
X79495000Y-113238034D01*
X79513021Y-113194529D01*
X79516922Y-113191922D01*
X79541381Y-113155317D01*
X79549154Y-113145846D01*
X79676694Y-113018306D01*
X79720888Y-113000000D01*
X79869112Y-113000000D01*
X79913306Y-113018306D01*
G37*
%TD.AperFunction*%
%TD*%
%TA.AperFunction,Conductor*%
%TO.N,GND*%
G36*
X113276694Y-111118306D02*
G01*
X113295000Y-111162500D01*
X113295000Y-111671965D01*
X113280699Y-111706489D01*
X113283077Y-111708078D01*
X113278753Y-111714549D01*
X113270981Y-111724019D01*
X113113306Y-111881694D01*
X113069112Y-111900000D01*
X112920888Y-111900000D01*
X112876694Y-111881694D01*
X112749154Y-111754154D01*
X112741381Y-111744683D01*
X112729924Y-111727537D01*
X112716922Y-111708078D01*
X112713021Y-111705471D01*
X112695000Y-111661966D01*
X112695000Y-111162500D01*
X112713306Y-111118306D01*
X112757500Y-111100000D01*
X113232500Y-111100000D01*
X113276694Y-111118306D01*
G37*
%TD.AperFunction*%
%TD*%
%TA.AperFunction,Conductor*%
%TO.N,GND*%
G36*
X83781694Y-46618306D02*
G01*
X83800000Y-46662500D01*
X83800000Y-49937500D01*
X83781694Y-49981694D01*
X83737500Y-50000000D01*
X81362500Y-50000000D01*
X81318306Y-49981694D01*
X81300000Y-49937500D01*
X81300000Y-48446945D01*
X81596001Y-48446945D01*
X81596600Y-48453030D01*
X81609536Y-48518068D01*
X81614157Y-48529224D01*
X81663457Y-48603007D01*
X81671993Y-48611543D01*
X81745775Y-48660843D01*
X81756933Y-48665464D01*
X81821970Y-48678401D01*
X81828054Y-48679000D01*
X81912569Y-48679000D01*
X81921359Y-48675359D01*
X81925000Y-48666569D01*
X81925000Y-48666568D01*
X82375000Y-48666568D01*
X82378641Y-48675358D01*
X82387431Y-48678999D01*
X82471945Y-48678999D01*
X82478030Y-48678400D01*
X82543068Y-48665464D01*
X82554224Y-48660843D01*
X82628007Y-48611543D01*
X82636543Y-48603007D01*
X82685843Y-48529225D01*
X82690464Y-48518067D01*
X82703401Y-48453030D01*
X82704000Y-48446946D01*
X82704000Y-48437431D01*
X82700359Y-48428641D01*
X82691569Y-48425000D01*
X82387431Y-48425000D01*
X82378641Y-48428641D01*
X82375000Y-48437431D01*
X82375000Y-48666568D01*
X81925000Y-48666568D01*
X81925000Y-48437431D01*
X81921359Y-48428641D01*
X81912569Y-48425000D01*
X81608432Y-48425000D01*
X81599642Y-48428641D01*
X81596001Y-48437431D01*
X81596001Y-48446945D01*
X81300000Y-48446945D01*
X81300000Y-47962569D01*
X81596000Y-47962569D01*
X81599641Y-47971359D01*
X81608431Y-47975000D01*
X81912569Y-47975000D01*
X81921359Y-47971359D01*
X81925000Y-47962569D01*
X82375000Y-47962569D01*
X82378641Y-47971359D01*
X82387431Y-47975000D01*
X82691568Y-47975000D01*
X82700358Y-47971359D01*
X82703999Y-47962569D01*
X82703999Y-47953055D01*
X82703400Y-47946970D01*
X82690464Y-47881932D01*
X82685843Y-47870776D01*
X82636543Y-47796993D01*
X82628007Y-47788457D01*
X82554225Y-47739157D01*
X82543067Y-47734536D01*
X82478030Y-47721599D01*
X82471946Y-47721000D01*
X82387431Y-47721000D01*
X82378641Y-47724641D01*
X82375000Y-47733431D01*
X82375000Y-47962569D01*
X81925000Y-47962569D01*
X81925000Y-47733432D01*
X81921359Y-47724642D01*
X81912569Y-47721001D01*
X81828055Y-47721001D01*
X81821970Y-47721600D01*
X81756932Y-47734536D01*
X81745776Y-47739157D01*
X81671993Y-47788457D01*
X81663457Y-47796993D01*
X81614157Y-47870775D01*
X81609536Y-47881933D01*
X81596599Y-47946970D01*
X81596000Y-47953054D01*
X81596000Y-47962569D01*
X81300000Y-47962569D01*
X81300000Y-46662500D01*
X81318306Y-46618306D01*
X81362500Y-46600000D01*
X83737500Y-46600000D01*
X83781694Y-46618306D01*
G37*
%TD.AperFunction*%
%TD*%
%TA.AperFunction,Conductor*%
%TO.N,+15V*%
G36*
X80842121Y-54620002D02*
G01*
X80888614Y-54673658D01*
X80900000Y-54726000D01*
X80900000Y-59074000D01*
X80879998Y-59142121D01*
X80826342Y-59188614D01*
X80774000Y-59200000D01*
X73726000Y-59200000D01*
X73657879Y-59179998D01*
X73611386Y-59126342D01*
X73600000Y-59074000D01*
X73600000Y-57918828D01*
X74096001Y-57918828D01*
X74097209Y-57931088D01*
X74108315Y-57986931D01*
X74117633Y-58009427D01*
X74159983Y-58072808D01*
X74177192Y-58090017D01*
X74240575Y-58132368D01*
X74263066Y-58141684D01*
X74318915Y-58152793D01*
X74331170Y-58154000D01*
X75327885Y-58154000D01*
X75343124Y-58149525D01*
X75344329Y-58148135D01*
X75346000Y-58140452D01*
X75346000Y-58135884D01*
X75854000Y-58135884D01*
X75858475Y-58151123D01*
X75859865Y-58152328D01*
X75867548Y-58153999D01*
X76868828Y-58153999D01*
X76881088Y-58152791D01*
X76936931Y-58141685D01*
X76959427Y-58132367D01*
X77022808Y-58090017D01*
X77040017Y-58072808D01*
X77082368Y-58009425D01*
X77091684Y-57986934D01*
X77102793Y-57931085D01*
X77104000Y-57918830D01*
X77104000Y-57272115D01*
X77099525Y-57256876D01*
X77098135Y-57255671D01*
X77090452Y-57254000D01*
X75872115Y-57254000D01*
X75856876Y-57258475D01*
X75855671Y-57259865D01*
X75854000Y-57267548D01*
X75854000Y-58135884D01*
X75346000Y-58135884D01*
X75346000Y-57272115D01*
X75341525Y-57256876D01*
X75340135Y-57255671D01*
X75332452Y-57254000D01*
X74114116Y-57254000D01*
X74098877Y-57258475D01*
X74097672Y-57259865D01*
X74096001Y-57267548D01*
X74096001Y-57918828D01*
X73600000Y-57918828D01*
X73600000Y-56727885D01*
X74096000Y-56727885D01*
X74100475Y-56743124D01*
X74101865Y-56744329D01*
X74109548Y-56746000D01*
X75327885Y-56746000D01*
X75343124Y-56741525D01*
X75344329Y-56740135D01*
X75346000Y-56732452D01*
X75346000Y-56727885D01*
X75854000Y-56727885D01*
X75858475Y-56743124D01*
X75859865Y-56744329D01*
X75867548Y-56746000D01*
X77085884Y-56746000D01*
X77101123Y-56741525D01*
X77102328Y-56740135D01*
X77103999Y-56732452D01*
X77103999Y-56443828D01*
X79496001Y-56443828D01*
X79497209Y-56456088D01*
X79508315Y-56511931D01*
X79517633Y-56534427D01*
X79559983Y-56597808D01*
X79577192Y-56615017D01*
X79640575Y-56657368D01*
X79663066Y-56666684D01*
X79718915Y-56677793D01*
X79731170Y-56679000D01*
X79806885Y-56679000D01*
X79822124Y-56674525D01*
X79823329Y-56673135D01*
X79825000Y-56665452D01*
X79825000Y-56660884D01*
X80275000Y-56660884D01*
X80279475Y-56676123D01*
X80280865Y-56677328D01*
X80288548Y-56678999D01*
X80368828Y-56678999D01*
X80381088Y-56677791D01*
X80436931Y-56666685D01*
X80459427Y-56657367D01*
X80522808Y-56615017D01*
X80540017Y-56597808D01*
X80582368Y-56534425D01*
X80591684Y-56511934D01*
X80602793Y-56456085D01*
X80604000Y-56443830D01*
X80604000Y-56443115D01*
X80599525Y-56427876D01*
X80598135Y-56426671D01*
X80590452Y-56425000D01*
X80293115Y-56425000D01*
X80277876Y-56429475D01*
X80276671Y-56430865D01*
X80275000Y-56438548D01*
X80275000Y-56660884D01*
X79825000Y-56660884D01*
X79825000Y-56443115D01*
X79820525Y-56427876D01*
X79819135Y-56426671D01*
X79811452Y-56425000D01*
X79514116Y-56425000D01*
X79498877Y-56429475D01*
X79497672Y-56430865D01*
X79496001Y-56438548D01*
X79496001Y-56443828D01*
X77103999Y-56443828D01*
X77103999Y-56081172D01*
X77102791Y-56068912D01*
X77091685Y-56013069D01*
X77082367Y-55990573D01*
X77059857Y-55956885D01*
X79496000Y-55956885D01*
X79500475Y-55972124D01*
X79501865Y-55973329D01*
X79509548Y-55975000D01*
X79806885Y-55975000D01*
X79822124Y-55970525D01*
X79823329Y-55969135D01*
X79825000Y-55961452D01*
X79825000Y-55956885D01*
X80275000Y-55956885D01*
X80279475Y-55972124D01*
X80280865Y-55973329D01*
X80288548Y-55975000D01*
X80585884Y-55975000D01*
X80601123Y-55970525D01*
X80602328Y-55969135D01*
X80603999Y-55961452D01*
X80603999Y-55956172D01*
X80602791Y-55943912D01*
X80591685Y-55888069D01*
X80582367Y-55865573D01*
X80540017Y-55802192D01*
X80522808Y-55784983D01*
X80459425Y-55742632D01*
X80436934Y-55733316D01*
X80381085Y-55722207D01*
X80368830Y-55721000D01*
X80293115Y-55721000D01*
X80277876Y-55725475D01*
X80276671Y-55726865D01*
X80275000Y-55734548D01*
X80275000Y-55956885D01*
X79825000Y-55956885D01*
X79825000Y-55739116D01*
X79820525Y-55723877D01*
X79819135Y-55722672D01*
X79811452Y-55721001D01*
X79731172Y-55721001D01*
X79718912Y-55722209D01*
X79663069Y-55733315D01*
X79640573Y-55742633D01*
X79577192Y-55784983D01*
X79559983Y-55802192D01*
X79517632Y-55865575D01*
X79508316Y-55888066D01*
X79497207Y-55943915D01*
X79496000Y-55956170D01*
X79496000Y-55956885D01*
X77059857Y-55956885D01*
X77040017Y-55927192D01*
X77022808Y-55909983D01*
X76959425Y-55867632D01*
X76936934Y-55858316D01*
X76881085Y-55847207D01*
X76868830Y-55846000D01*
X75872115Y-55846000D01*
X75856876Y-55850475D01*
X75855671Y-55851865D01*
X75854000Y-55859548D01*
X75854000Y-56727885D01*
X75346000Y-56727885D01*
X75346000Y-55864116D01*
X75341525Y-55848877D01*
X75340135Y-55847672D01*
X75332452Y-55846001D01*
X74331172Y-55846001D01*
X74318912Y-55847209D01*
X74263069Y-55858315D01*
X74240573Y-55867633D01*
X74177192Y-55909983D01*
X74159983Y-55927192D01*
X74117632Y-55990575D01*
X74108316Y-56013066D01*
X74097207Y-56068915D01*
X74096000Y-56081170D01*
X74096000Y-56727885D01*
X73600000Y-56727885D01*
X73600000Y-54726000D01*
X73620002Y-54657879D01*
X73673658Y-54611386D01*
X73726000Y-54600000D01*
X80774000Y-54600000D01*
X80842121Y-54620002D01*
G37*
%TD.AperFunction*%
%TD*%
%TA.AperFunction,Conductor*%
%TO.N,GND*%
G36*
X103676694Y-111118306D02*
G01*
X103695000Y-111162500D01*
X103695000Y-111671965D01*
X103680699Y-111706489D01*
X103683077Y-111708078D01*
X103678753Y-111714549D01*
X103670981Y-111724019D01*
X103513306Y-111881694D01*
X103469112Y-111900000D01*
X103320888Y-111900000D01*
X103276694Y-111881694D01*
X103149154Y-111754154D01*
X103141381Y-111744683D01*
X103129924Y-111727537D01*
X103116922Y-111708078D01*
X103113021Y-111705471D01*
X103095000Y-111661966D01*
X103095000Y-111162500D01*
X103113306Y-111118306D01*
X103157500Y-111100000D01*
X103632500Y-111100000D01*
X103676694Y-111118306D01*
G37*
%TD.AperFunction*%
%TD*%
%TA.AperFunction,Conductor*%
%TO.N,GND*%
G36*
X76876694Y-110998306D02*
G01*
X76895000Y-111042500D01*
X76895000Y-111554112D01*
X76876694Y-111598306D01*
X76713306Y-111761694D01*
X76669112Y-111780000D01*
X76520888Y-111780000D01*
X76476694Y-111761694D01*
X76313306Y-111598306D01*
X76295000Y-111554112D01*
X76295000Y-111042500D01*
X76313306Y-110998306D01*
X76357500Y-110980000D01*
X76832500Y-110980000D01*
X76876694Y-110998306D01*
G37*
%TD.AperFunction*%
%TD*%
%TA.AperFunction,Conductor*%
%TO.N,GND*%
G36*
X113118306Y-113118306D02*
G01*
X113260915Y-113260915D01*
X113268688Y-113270386D01*
X113282794Y-113291498D01*
X113282795Y-113291499D01*
X113283078Y-113291922D01*
X113282994Y-113291978D01*
X113300000Y-113333034D01*
X113300000Y-113837500D01*
X113281694Y-113881694D01*
X113237500Y-113900000D01*
X112762500Y-113900000D01*
X112718306Y-113881694D01*
X112700000Y-113837500D01*
X112700000Y-113333034D01*
X112717006Y-113291978D01*
X112716922Y-113291922D01*
X112717205Y-113291499D01*
X112717206Y-113291498D01*
X112731312Y-113270386D01*
X112739085Y-113260915D01*
X112881694Y-113118306D01*
X112925888Y-113100000D01*
X113074112Y-113100000D01*
X113118306Y-113118306D01*
G37*
%TD.AperFunction*%
%TD*%
%TA.AperFunction,Conductor*%
%TO.N,GND*%
G36*
X86313306Y-113018306D02*
G01*
X86470981Y-113175981D01*
X86478753Y-113185451D01*
X86483077Y-113191922D01*
X86480699Y-113193511D01*
X86495000Y-113228035D01*
X86495000Y-113737500D01*
X86476694Y-113781694D01*
X86432500Y-113800000D01*
X85957500Y-113800000D01*
X85913306Y-113781694D01*
X85895000Y-113737500D01*
X85895000Y-113238034D01*
X85913021Y-113194529D01*
X85916922Y-113191922D01*
X85941381Y-113155317D01*
X85949154Y-113145846D01*
X86076694Y-113018306D01*
X86120888Y-113000000D01*
X86269112Y-113000000D01*
X86313306Y-113018306D01*
G37*
%TD.AperFunction*%
%TD*%
%TA.AperFunction,Conductor*%
%TO.N,+15V*%
G36*
X80342121Y-85320002D02*
G01*
X80388614Y-85373658D01*
X80400000Y-85426000D01*
X80400000Y-88374000D01*
X80379998Y-88442121D01*
X80326342Y-88488614D01*
X80274000Y-88500000D01*
X76526000Y-88500000D01*
X76457879Y-88479998D01*
X76411386Y-88426342D01*
X76400000Y-88374000D01*
X76400000Y-85426000D01*
X76420002Y-85357879D01*
X76473658Y-85311386D01*
X76526000Y-85300000D01*
X80274000Y-85300000D01*
X80342121Y-85320002D01*
G37*
%TD.AperFunction*%
%TD*%
%TA.AperFunction,Conductor*%
%TO.N,GND*%
G36*
X107042121Y-61220002D02*
G01*
X107088614Y-61273658D01*
X107100000Y-61326000D01*
X107100000Y-62974000D01*
X107079998Y-63042121D01*
X107026342Y-63088614D01*
X106974000Y-63100000D01*
X105026000Y-63100000D01*
X104957879Y-63079998D01*
X104911386Y-63026342D01*
X104900000Y-62974000D01*
X104900000Y-61326000D01*
X104920002Y-61257879D01*
X104973658Y-61211386D01*
X105026000Y-61200000D01*
X106974000Y-61200000D01*
X107042121Y-61220002D01*
G37*
%TD.AperFunction*%
%TD*%
%TA.AperFunction,Conductor*%
%TO.N,GND*%
G36*
X77972121Y-121980002D02*
G01*
X78018614Y-122033658D01*
X78030000Y-122086000D01*
X78030000Y-126734000D01*
X78009998Y-126802121D01*
X77956342Y-126848614D01*
X77904000Y-126860000D01*
X70656000Y-126860000D01*
X70587879Y-126839998D01*
X70541386Y-126786342D01*
X70530000Y-126734000D01*
X70530000Y-126054292D01*
X71076001Y-126054292D01*
X71076370Y-126061110D01*
X71081841Y-126111482D01*
X71085470Y-126126741D01*
X71130222Y-126246118D01*
X71138754Y-126261704D01*
X71214572Y-126362867D01*
X71227133Y-126375428D01*
X71328296Y-126451246D01*
X71343882Y-126459778D01*
X71463265Y-126504533D01*
X71478510Y-126508158D01*
X71528892Y-126513631D01*
X71535706Y-126514000D01*
X71857885Y-126514000D01*
X71873124Y-126509525D01*
X71874329Y-126508135D01*
X71876000Y-126500452D01*
X71876000Y-126495884D01*
X72384000Y-126495884D01*
X72388475Y-126511123D01*
X72389865Y-126512328D01*
X72397548Y-126513999D01*
X72724292Y-126513999D01*
X72731110Y-126513630D01*
X72781482Y-126508159D01*
X72796741Y-126504530D01*
X72916118Y-126459778D01*
X72931704Y-126451246D01*
X73032867Y-126375428D01*
X73045428Y-126362867D01*
X73070939Y-126328828D01*
X76051001Y-126328828D01*
X76052209Y-126341088D01*
X76063315Y-126396931D01*
X76072633Y-126419427D01*
X76114983Y-126482808D01*
X76132192Y-126500017D01*
X76195575Y-126542368D01*
X76218066Y-126551684D01*
X76273915Y-126562793D01*
X76286170Y-126564000D01*
X76286885Y-126564000D01*
X76302124Y-126559525D01*
X76303329Y-126558135D01*
X76305000Y-126550452D01*
X76305000Y-126545884D01*
X76755000Y-126545884D01*
X76759475Y-126561123D01*
X76760865Y-126562328D01*
X76768548Y-126563999D01*
X76773828Y-126563999D01*
X76786088Y-126562791D01*
X76841931Y-126551685D01*
X76864427Y-126542367D01*
X76927808Y-126500017D01*
X76945017Y-126482808D01*
X76987368Y-126419425D01*
X76996684Y-126396934D01*
X77007793Y-126341085D01*
X77009000Y-126328830D01*
X77009000Y-126253115D01*
X77004525Y-126237876D01*
X77003135Y-126236671D01*
X76995452Y-126235000D01*
X76773115Y-126235000D01*
X76757876Y-126239475D01*
X76756671Y-126240865D01*
X76755000Y-126248548D01*
X76755000Y-126545884D01*
X76305000Y-126545884D01*
X76305000Y-126253115D01*
X76300525Y-126237876D01*
X76299135Y-126236671D01*
X76291452Y-126235000D01*
X76069116Y-126235000D01*
X76053877Y-126239475D01*
X76052672Y-126240865D01*
X76051001Y-126248548D01*
X76051001Y-126328828D01*
X73070939Y-126328828D01*
X73121246Y-126261704D01*
X73129778Y-126246118D01*
X73174533Y-126126735D01*
X73178158Y-126111490D01*
X73183631Y-126061108D01*
X73184000Y-126054294D01*
X73184000Y-125766885D01*
X76051000Y-125766885D01*
X76055475Y-125782124D01*
X76056865Y-125783329D01*
X76064548Y-125785000D01*
X76286885Y-125785000D01*
X76302124Y-125780525D01*
X76303329Y-125779135D01*
X76305000Y-125771452D01*
X76305000Y-125766885D01*
X76755000Y-125766885D01*
X76759475Y-125782124D01*
X76760865Y-125783329D01*
X76768548Y-125785000D01*
X76990884Y-125785000D01*
X77006123Y-125780525D01*
X77007328Y-125779135D01*
X77008999Y-125771452D01*
X77008999Y-125691172D01*
X77007791Y-125678912D01*
X76996685Y-125623069D01*
X76987367Y-125600573D01*
X76945017Y-125537192D01*
X76927808Y-125519983D01*
X76864425Y-125477632D01*
X76841934Y-125468316D01*
X76786085Y-125457207D01*
X76773830Y-125456000D01*
X76773115Y-125456000D01*
X76757876Y-125460475D01*
X76756671Y-125461865D01*
X76755000Y-125469548D01*
X76755000Y-125766885D01*
X76305000Y-125766885D01*
X76305000Y-125474116D01*
X76300525Y-125458877D01*
X76299135Y-125457672D01*
X76291452Y-125456001D01*
X76286172Y-125456001D01*
X76273912Y-125457209D01*
X76218069Y-125468315D01*
X76195573Y-125477633D01*
X76132192Y-125519983D01*
X76114983Y-125537192D01*
X76072632Y-125600575D01*
X76063316Y-125623066D01*
X76052207Y-125678915D01*
X76051000Y-125691170D01*
X76051000Y-125766885D01*
X73184000Y-125766885D01*
X73184000Y-125032115D01*
X73179525Y-125016876D01*
X73178135Y-125015671D01*
X73170452Y-125014000D01*
X72402115Y-125014000D01*
X72386876Y-125018475D01*
X72385671Y-125019865D01*
X72384000Y-125027548D01*
X72384000Y-126495884D01*
X71876000Y-126495884D01*
X71876000Y-125032115D01*
X71871525Y-125016876D01*
X71870135Y-125015671D01*
X71862452Y-125014000D01*
X71094116Y-125014000D01*
X71078877Y-125018475D01*
X71077672Y-125019865D01*
X71076001Y-125027548D01*
X71076001Y-126054292D01*
X70530000Y-126054292D01*
X70530000Y-124487885D01*
X71076000Y-124487885D01*
X71080475Y-124503124D01*
X71081865Y-124504329D01*
X71089548Y-124506000D01*
X71857885Y-124506000D01*
X71873124Y-124501525D01*
X71874329Y-124500135D01*
X71876000Y-124492452D01*
X71876000Y-124487885D01*
X72384000Y-124487885D01*
X72388475Y-124503124D01*
X72389865Y-124504329D01*
X72397548Y-124506000D01*
X73165884Y-124506000D01*
X73181123Y-124501525D01*
X73182328Y-124500135D01*
X73183999Y-124492452D01*
X73183999Y-123465708D01*
X73183630Y-123458890D01*
X73178159Y-123408518D01*
X73174530Y-123393259D01*
X73129778Y-123273882D01*
X73121246Y-123258296D01*
X73045428Y-123157133D01*
X73032867Y-123144572D01*
X72931704Y-123068754D01*
X72916118Y-123060222D01*
X72796735Y-123015467D01*
X72781490Y-123011842D01*
X72731108Y-123006369D01*
X72724294Y-123006000D01*
X72402115Y-123006000D01*
X72386876Y-123010475D01*
X72385671Y-123011865D01*
X72384000Y-123019548D01*
X72384000Y-124487885D01*
X71876000Y-124487885D01*
X71876000Y-123024116D01*
X71871525Y-123008877D01*
X71870135Y-123007672D01*
X71862452Y-123006001D01*
X71535708Y-123006001D01*
X71528890Y-123006370D01*
X71478518Y-123011841D01*
X71463259Y-123015470D01*
X71343882Y-123060222D01*
X71328296Y-123068754D01*
X71227133Y-123144572D01*
X71214572Y-123157133D01*
X71138754Y-123258296D01*
X71130222Y-123273882D01*
X71085467Y-123393265D01*
X71081842Y-123408510D01*
X71076369Y-123458892D01*
X71076000Y-123465706D01*
X71076000Y-124487885D01*
X70530000Y-124487885D01*
X70530000Y-122086000D01*
X70550002Y-122017879D01*
X70603658Y-121971386D01*
X70656000Y-121960000D01*
X77904000Y-121960000D01*
X77972121Y-121980002D01*
G37*
%TD.AperFunction*%
%TD*%
%TA.AperFunction,Conductor*%
%TO.N,GND*%
G36*
X83113306Y-113018306D02*
G01*
X83270981Y-113175981D01*
X83278753Y-113185451D01*
X83283077Y-113191922D01*
X83280699Y-113193511D01*
X83295000Y-113228035D01*
X83295000Y-113737500D01*
X83276694Y-113781694D01*
X83232500Y-113800000D01*
X82757500Y-113800000D01*
X82713306Y-113781694D01*
X82695000Y-113737500D01*
X82695000Y-113238034D01*
X82713021Y-113194529D01*
X82716922Y-113191922D01*
X82741381Y-113155317D01*
X82749154Y-113145846D01*
X82876694Y-113018306D01*
X82920888Y-113000000D01*
X83069112Y-113000000D01*
X83113306Y-113018306D01*
G37*
%TD.AperFunction*%
%TD*%
%TA.AperFunction,Conductor*%
%TO.N,GND*%
G36*
X73676694Y-110998306D02*
G01*
X73695000Y-111042500D01*
X73695000Y-111554112D01*
X73676694Y-111598306D01*
X73513306Y-111761694D01*
X73469112Y-111780000D01*
X73320888Y-111780000D01*
X73276694Y-111761694D01*
X73113306Y-111598306D01*
X73095000Y-111554112D01*
X73095000Y-111081911D01*
X73113306Y-111037717D01*
X73152717Y-110998306D01*
X73196911Y-110980000D01*
X73632500Y-110980000D01*
X73676694Y-110998306D01*
G37*
%TD.AperFunction*%
%TD*%
%TA.AperFunction,Conductor*%
%TO.N,+15V*%
G36*
X91942121Y-94320002D02*
G01*
X91988614Y-94373658D01*
X92000000Y-94426000D01*
X92000000Y-98274000D01*
X91979998Y-98342121D01*
X91926342Y-98388614D01*
X91874000Y-98400000D01*
X91052190Y-98400000D01*
X90984069Y-98379998D01*
X90963095Y-98363095D01*
X88836905Y-96236905D01*
X88802879Y-96174593D01*
X88800000Y-96147810D01*
X88800000Y-94426000D01*
X88820002Y-94357879D01*
X88873658Y-94311386D01*
X88926000Y-94300000D01*
X91874000Y-94300000D01*
X91942121Y-94320002D01*
G37*
%TD.AperFunction*%
%TD*%
%TA.AperFunction,Conductor*%
%TO.N,GND*%
G36*
X116318306Y-113118306D02*
G01*
X116460915Y-113260915D01*
X116468688Y-113270386D01*
X116482794Y-113291498D01*
X116482795Y-113291499D01*
X116483078Y-113291922D01*
X116482994Y-113291978D01*
X116500000Y-113333034D01*
X116500000Y-113837500D01*
X116481694Y-113881694D01*
X116437500Y-113900000D01*
X115962500Y-113900000D01*
X115918306Y-113881694D01*
X115900000Y-113837500D01*
X115900000Y-113333034D01*
X115917006Y-113291978D01*
X115916922Y-113291922D01*
X115917205Y-113291499D01*
X115917206Y-113291498D01*
X115931312Y-113270386D01*
X115939085Y-113260915D01*
X116081694Y-113118306D01*
X116125888Y-113100000D01*
X116274112Y-113100000D01*
X116318306Y-113118306D01*
G37*
%TD.AperFunction*%
%TD*%
%TA.AperFunction,Conductor*%
%TO.N,GND*%
G36*
X107876694Y-154488306D02*
G01*
X107895000Y-154532500D01*
X107895000Y-155007500D01*
X107876694Y-155051694D01*
X107832500Y-155070000D01*
X107328034Y-155070000D01*
X107293511Y-155055700D01*
X107291922Y-155058078D01*
X107270386Y-155043688D01*
X107260915Y-155035915D01*
X107113306Y-154888306D01*
X107095000Y-154844112D01*
X107095000Y-154695888D01*
X107113306Y-154651694D01*
X107234897Y-154530103D01*
X107249784Y-154520157D01*
X107249748Y-154520102D01*
X107286805Y-154495341D01*
X107291922Y-154491922D01*
X107294529Y-154488021D01*
X107338034Y-154470000D01*
X107832500Y-154470000D01*
X107876694Y-154488306D01*
G37*
%TD.AperFunction*%
%TD*%
%TA.AperFunction,Conductor*%
%TO.N,GND*%
G36*
X73513306Y-113013306D02*
G01*
X73660915Y-113160915D01*
X73668688Y-113170386D01*
X73683078Y-113191922D01*
X73680700Y-113193511D01*
X73695000Y-113228034D01*
X73695000Y-113732500D01*
X73676694Y-113776694D01*
X73632500Y-113795000D01*
X73157500Y-113795000D01*
X73113306Y-113776694D01*
X73095000Y-113732500D01*
X73095000Y-113238034D01*
X73113021Y-113194529D01*
X73116922Y-113191922D01*
X73145102Y-113149748D01*
X73145157Y-113149784D01*
X73155103Y-113134897D01*
X73276694Y-113013306D01*
X73320888Y-112995000D01*
X73469112Y-112995000D01*
X73513306Y-113013306D01*
G37*
%TD.AperFunction*%
%TD*%
%TA.AperFunction,Conductor*%
%TO.N,GND*%
G36*
X89523306Y-113013306D02*
G01*
X89665949Y-113155949D01*
X89673719Y-113165415D01*
X89683078Y-113179422D01*
X89686979Y-113182029D01*
X89705000Y-113225534D01*
X89705000Y-113732500D01*
X89686694Y-113776694D01*
X89642500Y-113795000D01*
X89167500Y-113795000D01*
X89123306Y-113776694D01*
X89105000Y-113732500D01*
X89105000Y-113220888D01*
X89123306Y-113176694D01*
X89286694Y-113013306D01*
X89330888Y-112995000D01*
X89479112Y-112995000D01*
X89523306Y-113013306D01*
G37*
%TD.AperFunction*%
%TD*%
%TA.AperFunction,Conductor*%
%TO.N,GND*%
G36*
X76713306Y-113013306D02*
G01*
X76860915Y-113160915D01*
X76868688Y-113170386D01*
X76883078Y-113191922D01*
X76880700Y-113193511D01*
X76895000Y-113228034D01*
X76895000Y-113732500D01*
X76876694Y-113776694D01*
X76832500Y-113795000D01*
X76357500Y-113795000D01*
X76313306Y-113776694D01*
X76295000Y-113732500D01*
X76295000Y-113238034D01*
X76313021Y-113194529D01*
X76316922Y-113191922D01*
X76345102Y-113149748D01*
X76345157Y-113149784D01*
X76355103Y-113134897D01*
X76476694Y-113013306D01*
X76520888Y-112995000D01*
X76669112Y-112995000D01*
X76713306Y-113013306D01*
G37*
%TD.AperFunction*%
%TD*%
%TA.AperFunction,Conductor*%
%TO.N,GND*%
G36*
X100481694Y-111118306D02*
G01*
X100500000Y-111162500D01*
X100500000Y-111666966D01*
X100482994Y-111708022D01*
X100483078Y-111708078D01*
X100479659Y-111713195D01*
X100468688Y-111729614D01*
X100460915Y-111739085D01*
X100318306Y-111881694D01*
X100274112Y-111900000D01*
X100125888Y-111900000D01*
X100081694Y-111881694D01*
X99939085Y-111739085D01*
X99931312Y-111729614D01*
X99920341Y-111713195D01*
X99916922Y-111708078D01*
X99917006Y-111708022D01*
X99900000Y-111666966D01*
X99900000Y-111162500D01*
X99918306Y-111118306D01*
X99962500Y-111100000D01*
X100437500Y-111100000D01*
X100481694Y-111118306D01*
G37*
%TD.AperFunction*%
%TD*%
%TA.AperFunction,Conductor*%
%TO.N,GND*%
G36*
X116476694Y-111118306D02*
G01*
X116495000Y-111162500D01*
X116495000Y-111671965D01*
X116480699Y-111706489D01*
X116483077Y-111708078D01*
X116478753Y-111714549D01*
X116470981Y-111724019D01*
X116313306Y-111881694D01*
X116269112Y-111900000D01*
X116120888Y-111900000D01*
X116076694Y-111881694D01*
X115949154Y-111754154D01*
X115941381Y-111744683D01*
X115929924Y-111727537D01*
X115916922Y-111708078D01*
X115913021Y-111705471D01*
X115895000Y-111661966D01*
X115895000Y-111162500D01*
X115913306Y-111118306D01*
X115957500Y-111100000D01*
X116432500Y-111100000D01*
X116476694Y-111118306D01*
G37*
%TD.AperFunction*%
%TD*%
%TA.AperFunction,Conductor*%
%TO.N,GND*%
G36*
X106876694Y-111118306D02*
G01*
X106895000Y-111162500D01*
X106895000Y-111671965D01*
X106880699Y-111706489D01*
X106883077Y-111708078D01*
X106878753Y-111714549D01*
X106870981Y-111724019D01*
X106713306Y-111881694D01*
X106669112Y-111900000D01*
X106520888Y-111900000D01*
X106476694Y-111881694D01*
X106349154Y-111754154D01*
X106341381Y-111744683D01*
X106329924Y-111727537D01*
X106316922Y-111708078D01*
X106313021Y-111705471D01*
X106295000Y-111661966D01*
X106295000Y-111162500D01*
X106313306Y-111118306D01*
X106357500Y-111100000D01*
X106832500Y-111100000D01*
X106876694Y-111118306D01*
G37*
%TD.AperFunction*%
%TD*%
%TA.AperFunction,Conductor*%
%TO.N,GND*%
G36*
X86476694Y-111003306D02*
G01*
X86495000Y-111047500D01*
X86495000Y-111559112D01*
X86476694Y-111603306D01*
X86313306Y-111766694D01*
X86269112Y-111785000D01*
X86120888Y-111785000D01*
X86076694Y-111766694D01*
X85913306Y-111603306D01*
X85895000Y-111559112D01*
X85895000Y-111047500D01*
X85913306Y-111003306D01*
X85957500Y-110985000D01*
X86432500Y-110985000D01*
X86476694Y-111003306D01*
G37*
%TD.AperFunction*%
%TD*%
%TA.AperFunction,Conductor*%
%TO.N,GND*%
G36*
X103518306Y-113118306D02*
G01*
X103660915Y-113260915D01*
X103668688Y-113270386D01*
X103682794Y-113291498D01*
X103682795Y-113291499D01*
X103683078Y-113291922D01*
X103682994Y-113291978D01*
X103700000Y-113333034D01*
X103700000Y-113837500D01*
X103681694Y-113881694D01*
X103637500Y-113900000D01*
X103162500Y-113900000D01*
X103118306Y-113881694D01*
X103100000Y-113837500D01*
X103100000Y-113333034D01*
X103117006Y-113291978D01*
X103116922Y-113291922D01*
X103117205Y-113291499D01*
X103117206Y-113291498D01*
X103131312Y-113270386D01*
X103139085Y-113260915D01*
X103281694Y-113118306D01*
X103325888Y-113100000D01*
X103474112Y-113100000D01*
X103518306Y-113118306D01*
G37*
%TD.AperFunction*%
%TD*%
%TA.AperFunction,Conductor*%
%TO.N,+3.3V*%
G36*
X80458194Y-127474306D02*
G01*
X80460000Y-127478666D01*
X80460000Y-127941334D01*
X80458194Y-127945694D01*
X80423657Y-127960000D01*
X79360000Y-127960000D01*
X79360000Y-129360000D01*
X80423657Y-129360000D01*
X80458194Y-129374306D01*
X80460000Y-129378666D01*
X80460000Y-130060000D01*
X80060000Y-130460000D01*
X80060000Y-130812690D01*
X80050058Y-130836692D01*
X80052548Y-130837724D01*
X80039000Y-130870431D01*
X80039000Y-131651500D01*
X80020694Y-131695694D01*
X79976500Y-131714000D01*
X79220432Y-131714000D01*
X79211642Y-131717641D01*
X79208001Y-131726431D01*
X79208001Y-131741083D01*
X79208333Y-131745614D01*
X79217478Y-131807743D01*
X79220326Y-131816910D01*
X79246370Y-131869955D01*
X79249415Y-131917693D01*
X79217812Y-131953603D01*
X79190267Y-131960000D01*
X78260000Y-131960000D01*
X78260000Y-131193569D01*
X79208000Y-131193569D01*
X79211641Y-131202359D01*
X79220431Y-131206000D01*
X79518569Y-131206000D01*
X79527359Y-131202359D01*
X79531000Y-131193569D01*
X79531000Y-130870432D01*
X79527359Y-130861642D01*
X79520684Y-130858877D01*
X79462257Y-130867478D01*
X79453090Y-130870326D01*
X79356895Y-130917556D01*
X79348613Y-130923484D01*
X79273117Y-130999111D01*
X79267201Y-131007406D01*
X79220137Y-131103687D01*
X79217305Y-131112851D01*
X79208328Y-131174391D01*
X79208000Y-131178904D01*
X79208000Y-131193569D01*
X78260000Y-131193569D01*
X78260000Y-129869999D01*
X79455726Y-129869999D01*
X79475421Y-129914339D01*
X79481846Y-129923688D01*
X79546711Y-129988440D01*
X79556069Y-129994848D01*
X79640876Y-130032341D01*
X79649838Y-130034784D01*
X79667050Y-130036791D01*
X79670658Y-130037000D01*
X79956069Y-130037000D01*
X79964859Y-130033359D01*
X79968500Y-130024569D01*
X79968500Y-129876431D01*
X79964859Y-129867641D01*
X79956069Y-129864000D01*
X79465492Y-129864000D01*
X79456702Y-129867641D01*
X79455726Y-129869999D01*
X78260000Y-129869999D01*
X78260000Y-127460000D01*
X80423657Y-127460000D01*
X80458194Y-127474306D01*
G37*
%TD.AperFunction*%
%TD*%
%TA.AperFunction,Conductor*%
%TO.N,-15V*%
G36*
X96142121Y-94320002D02*
G01*
X96188614Y-94373658D01*
X96200000Y-94426000D01*
X96200000Y-96374000D01*
X96179998Y-96442121D01*
X96126342Y-96488614D01*
X96074000Y-96500000D01*
X94026000Y-96500000D01*
X93957879Y-96479998D01*
X93911386Y-96426342D01*
X93900000Y-96374000D01*
X93900000Y-94426000D01*
X93920002Y-94357879D01*
X93973658Y-94311386D01*
X94026000Y-94300000D01*
X96074000Y-94300000D01*
X96142121Y-94320002D01*
G37*
%TD.AperFunction*%
%TD*%
%TA.AperFunction,Conductor*%
%TO.N,GND*%
G36*
X107876694Y-144313306D02*
G01*
X107895000Y-144357500D01*
X107895000Y-144832500D01*
X107876694Y-144876694D01*
X107832500Y-144895000D01*
X107328034Y-144895000D01*
X107293511Y-144880700D01*
X107291922Y-144883078D01*
X107270386Y-144868688D01*
X107260915Y-144860915D01*
X107113306Y-144713306D01*
X107095000Y-144669112D01*
X107095000Y-144520888D01*
X107113306Y-144476694D01*
X107234897Y-144355103D01*
X107249784Y-144345157D01*
X107249748Y-144345102D01*
X107286805Y-144320341D01*
X107291922Y-144316922D01*
X107294529Y-144313021D01*
X107338034Y-144295000D01*
X107832500Y-144295000D01*
X107876694Y-144313306D01*
G37*
%TD.AperFunction*%
%TD*%
%TA.AperFunction,Conductor*%
%TO.N,GND*%
G36*
X83781694Y-54618306D02*
G01*
X83800000Y-54662500D01*
X83800000Y-57937500D01*
X83781694Y-57981694D01*
X83737500Y-58000000D01*
X81362500Y-58000000D01*
X81318306Y-57981694D01*
X81300000Y-57937500D01*
X81300000Y-56446945D01*
X81596001Y-56446945D01*
X81596600Y-56453030D01*
X81609536Y-56518068D01*
X81614157Y-56529224D01*
X81663457Y-56603007D01*
X81671993Y-56611543D01*
X81745775Y-56660843D01*
X81756933Y-56665464D01*
X81821970Y-56678401D01*
X81828054Y-56679000D01*
X81912569Y-56679000D01*
X81921359Y-56675359D01*
X81925000Y-56666569D01*
X81925000Y-56666568D01*
X82375000Y-56666568D01*
X82378641Y-56675358D01*
X82387431Y-56678999D01*
X82471945Y-56678999D01*
X82478030Y-56678400D01*
X82543068Y-56665464D01*
X82554224Y-56660843D01*
X82628007Y-56611543D01*
X82636543Y-56603007D01*
X82685843Y-56529225D01*
X82690464Y-56518067D01*
X82703401Y-56453030D01*
X82704000Y-56446946D01*
X82704000Y-56437431D01*
X82700359Y-56428641D01*
X82691569Y-56425000D01*
X82387431Y-56425000D01*
X82378641Y-56428641D01*
X82375000Y-56437431D01*
X82375000Y-56666568D01*
X81925000Y-56666568D01*
X81925000Y-56437431D01*
X81921359Y-56428641D01*
X81912569Y-56425000D01*
X81608432Y-56425000D01*
X81599642Y-56428641D01*
X81596001Y-56437431D01*
X81596001Y-56446945D01*
X81300000Y-56446945D01*
X81300000Y-55962569D01*
X81596000Y-55962569D01*
X81599641Y-55971359D01*
X81608431Y-55975000D01*
X81912569Y-55975000D01*
X81921359Y-55971359D01*
X81925000Y-55962569D01*
X82375000Y-55962569D01*
X82378641Y-55971359D01*
X82387431Y-55975000D01*
X82691568Y-55975000D01*
X82700358Y-55971359D01*
X82703999Y-55962569D01*
X82703999Y-55953055D01*
X82703400Y-55946970D01*
X82690464Y-55881932D01*
X82685843Y-55870776D01*
X82636543Y-55796993D01*
X82628007Y-55788457D01*
X82554225Y-55739157D01*
X82543067Y-55734536D01*
X82478030Y-55721599D01*
X82471946Y-55721000D01*
X82387431Y-55721000D01*
X82378641Y-55724641D01*
X82375000Y-55733431D01*
X82375000Y-55962569D01*
X81925000Y-55962569D01*
X81925000Y-55733432D01*
X81921359Y-55724642D01*
X81912569Y-55721001D01*
X81828055Y-55721001D01*
X81821970Y-55721600D01*
X81756932Y-55734536D01*
X81745776Y-55739157D01*
X81671993Y-55788457D01*
X81663457Y-55796993D01*
X81614157Y-55870775D01*
X81609536Y-55881933D01*
X81596599Y-55946970D01*
X81596000Y-55953054D01*
X81596000Y-55962569D01*
X81300000Y-55962569D01*
X81300000Y-54662500D01*
X81318306Y-54618306D01*
X81362500Y-54600000D01*
X83737500Y-54600000D01*
X83781694Y-54618306D01*
G37*
%TD.AperFunction*%
%TD*%
%TA.AperFunction,Conductor*%
%TO.N,+3.3V*%
G36*
X78030000Y-127273836D02*
G01*
X78030000Y-131960000D01*
X70656000Y-131960000D01*
X70587879Y-131939998D01*
X70541386Y-131886342D01*
X70530000Y-131834000D01*
X70530000Y-130441124D01*
X71203001Y-130441124D01*
X71203672Y-130450290D01*
X71212482Y-130510143D01*
X71218225Y-130528625D01*
X71264632Y-130623147D01*
X71276592Y-130639852D01*
X71350677Y-130713808D01*
X71367405Y-130725740D01*
X71462018Y-130771987D01*
X71480486Y-130777695D01*
X71539741Y-130786340D01*
X71548840Y-130787000D01*
X71857885Y-130787000D01*
X71873124Y-130782525D01*
X71874329Y-130781135D01*
X71876000Y-130773452D01*
X71876000Y-130768884D01*
X72384000Y-130768884D01*
X72388475Y-130784123D01*
X72389865Y-130785328D01*
X72397548Y-130786999D01*
X72711124Y-130786999D01*
X72720290Y-130786328D01*
X72780143Y-130777518D01*
X72798625Y-130771775D01*
X72893147Y-130725368D01*
X72909852Y-130713408D01*
X72983808Y-130639323D01*
X72995740Y-130622595D01*
X73041987Y-130527982D01*
X73047695Y-130509514D01*
X73056340Y-130450259D01*
X73057000Y-130441160D01*
X73057000Y-129432115D01*
X73052525Y-129416876D01*
X73051135Y-129415671D01*
X73043452Y-129414000D01*
X72402115Y-129414000D01*
X72386876Y-129418475D01*
X72385671Y-129419865D01*
X72384000Y-129427548D01*
X72384000Y-130768884D01*
X71876000Y-130768884D01*
X71876000Y-129432115D01*
X71871525Y-129416876D01*
X71870135Y-129415671D01*
X71862452Y-129414000D01*
X71221116Y-129414000D01*
X71205877Y-129418475D01*
X71204672Y-129419865D01*
X71203001Y-129427548D01*
X71203001Y-130441124D01*
X70530000Y-130441124D01*
X70530000Y-128887885D01*
X71203000Y-128887885D01*
X71207475Y-128903124D01*
X71208865Y-128904329D01*
X71216548Y-128906000D01*
X71857885Y-128906000D01*
X71873124Y-128901525D01*
X71874329Y-128900135D01*
X71876000Y-128892452D01*
X71876000Y-128887885D01*
X72384000Y-128887885D01*
X72388475Y-128903124D01*
X72389865Y-128904329D01*
X72397548Y-128906000D01*
X73038884Y-128906000D01*
X73054123Y-128901525D01*
X73055328Y-128900135D01*
X73056999Y-128892452D01*
X73056999Y-128416321D01*
X76178000Y-128416321D01*
X76179207Y-128428575D01*
X76182948Y-128447382D01*
X76192263Y-128469871D01*
X76206546Y-128491247D01*
X76223753Y-128508454D01*
X76245129Y-128522737D01*
X76267618Y-128532052D01*
X76286425Y-128535793D01*
X76289847Y-128536130D01*
X76302124Y-128532525D01*
X76303329Y-128531135D01*
X76305000Y-128523452D01*
X76305000Y-128518885D01*
X76755000Y-128518885D01*
X76759475Y-128534124D01*
X76760865Y-128535329D01*
X76766296Y-128536510D01*
X76773575Y-128535793D01*
X76792382Y-128532052D01*
X76814871Y-128522737D01*
X76836247Y-128508454D01*
X76853454Y-128491247D01*
X76867737Y-128469871D01*
X76877052Y-128447382D01*
X76880793Y-128428575D01*
X76882000Y-128416321D01*
X76882000Y-128353115D01*
X76877525Y-128337876D01*
X76876135Y-128336671D01*
X76868452Y-128335000D01*
X76773115Y-128335000D01*
X76757876Y-128339475D01*
X76756671Y-128340865D01*
X76755000Y-128348548D01*
X76755000Y-128518885D01*
X76305000Y-128518885D01*
X76305000Y-128353115D01*
X76300525Y-128337876D01*
X76299135Y-128336671D01*
X76291452Y-128335000D01*
X76196115Y-128335000D01*
X76180876Y-128339475D01*
X76179671Y-128340865D01*
X76178000Y-128348548D01*
X76178000Y-128416321D01*
X73056999Y-128416321D01*
X73056999Y-127878876D01*
X73056328Y-127869710D01*
X73055912Y-127866885D01*
X76178000Y-127866885D01*
X76182475Y-127882124D01*
X76183865Y-127883329D01*
X76191548Y-127885000D01*
X76286885Y-127885000D01*
X76302124Y-127880525D01*
X76303329Y-127879135D01*
X76305000Y-127871452D01*
X76305000Y-127866885D01*
X76755000Y-127866885D01*
X76759475Y-127882124D01*
X76760865Y-127883329D01*
X76768548Y-127885000D01*
X76863885Y-127885000D01*
X76879124Y-127880525D01*
X76880329Y-127879135D01*
X76882000Y-127871452D01*
X76882000Y-127803679D01*
X76880793Y-127791425D01*
X76877052Y-127772618D01*
X76867737Y-127750129D01*
X76853454Y-127728753D01*
X76836247Y-127711546D01*
X76814871Y-127697263D01*
X76792382Y-127687948D01*
X76773575Y-127684207D01*
X76770153Y-127683870D01*
X76757876Y-127687475D01*
X76756671Y-127688865D01*
X76755000Y-127696548D01*
X76755000Y-127866885D01*
X76305000Y-127866885D01*
X76305000Y-127701115D01*
X76300525Y-127685876D01*
X76299135Y-127684671D01*
X76293704Y-127683490D01*
X76286425Y-127684207D01*
X76267618Y-127687948D01*
X76245129Y-127697263D01*
X76223753Y-127711546D01*
X76206546Y-127728753D01*
X76192263Y-127750129D01*
X76182948Y-127772618D01*
X76179207Y-127791425D01*
X76178000Y-127803679D01*
X76178000Y-127866885D01*
X73055912Y-127866885D01*
X73047518Y-127809857D01*
X73041775Y-127791375D01*
X72995368Y-127696853D01*
X72983408Y-127680148D01*
X72909323Y-127606192D01*
X72892595Y-127594260D01*
X72797982Y-127548013D01*
X72779514Y-127542305D01*
X72720259Y-127533660D01*
X72711160Y-127533000D01*
X72402115Y-127533000D01*
X72386876Y-127537475D01*
X72385671Y-127538865D01*
X72384000Y-127546548D01*
X72384000Y-128887885D01*
X71876000Y-128887885D01*
X71876000Y-127551116D01*
X71871525Y-127535877D01*
X71870135Y-127534672D01*
X71862452Y-127533001D01*
X71548876Y-127533001D01*
X71539710Y-127533672D01*
X71479857Y-127542482D01*
X71461375Y-127548225D01*
X71366853Y-127594632D01*
X71350148Y-127606592D01*
X71276192Y-127680677D01*
X71264260Y-127697405D01*
X71218013Y-127792018D01*
X71212305Y-127810486D01*
X71203660Y-127869741D01*
X71203000Y-127878840D01*
X71203000Y-128887885D01*
X70530000Y-128887885D01*
X70530000Y-127386000D01*
X70550002Y-127317879D01*
X70603658Y-127271386D01*
X70656000Y-127260000D01*
X77982879Y-127260000D01*
X78030000Y-127273836D01*
G37*
%TD.AperFunction*%
%TD*%
%TA.AperFunction,Conductor*%
%TO.N,GND*%
G36*
X105705471Y-144313021D02*
G01*
X105708078Y-144316922D01*
X105713195Y-144320341D01*
X105729614Y-144331312D01*
X105739085Y-144339085D01*
X105876694Y-144476694D01*
X105895000Y-144520888D01*
X105895000Y-144669112D01*
X105876694Y-144713306D01*
X105713306Y-144876694D01*
X105669112Y-144895000D01*
X105157500Y-144895000D01*
X105113306Y-144876694D01*
X105095000Y-144832500D01*
X105095000Y-144357500D01*
X105113306Y-144313306D01*
X105157500Y-144295000D01*
X105661966Y-144295000D01*
X105705471Y-144313021D01*
G37*
%TD.AperFunction*%
%TD*%
%TA.AperFunction,Conductor*%
%TO.N,GND*%
G36*
X100318306Y-113118306D02*
G01*
X100460915Y-113260915D01*
X100468688Y-113270386D01*
X100482794Y-113291498D01*
X100482795Y-113291499D01*
X100483078Y-113291922D01*
X100482994Y-113291978D01*
X100500000Y-113333034D01*
X100500000Y-113837500D01*
X100481694Y-113881694D01*
X100437500Y-113900000D01*
X99962500Y-113900000D01*
X99918306Y-113881694D01*
X99900000Y-113837500D01*
X99900000Y-113333034D01*
X99917006Y-113291978D01*
X99916922Y-113291922D01*
X99917205Y-113291499D01*
X99917206Y-113291498D01*
X99931312Y-113270386D01*
X99939085Y-113260915D01*
X100081694Y-113118306D01*
X100125888Y-113100000D01*
X100274112Y-113100000D01*
X100318306Y-113118306D01*
G37*
%TD.AperFunction*%
%TD*%
%TA.AperFunction,Conductor*%
%TO.N,GND*%
G36*
X106718306Y-113118306D02*
G01*
X106860915Y-113260915D01*
X106868688Y-113270386D01*
X106882794Y-113291498D01*
X106882795Y-113291499D01*
X106883078Y-113291922D01*
X106882994Y-113291978D01*
X106900000Y-113333034D01*
X106900000Y-113837500D01*
X106881694Y-113881694D01*
X106837500Y-113900000D01*
X106362500Y-113900000D01*
X106318306Y-113881694D01*
X106300000Y-113837500D01*
X106300000Y-113333034D01*
X106317006Y-113291978D01*
X106316922Y-113291922D01*
X106317205Y-113291499D01*
X106317206Y-113291498D01*
X106331312Y-113270386D01*
X106339085Y-113260915D01*
X106481694Y-113118306D01*
X106525888Y-113100000D01*
X106674112Y-113100000D01*
X106718306Y-113118306D01*
G37*
%TD.AperFunction*%
%TD*%
M02*
