%TF.GenerationSoftware,KiCad,Pcbnew,(6.0.8-1)-1*%
%TF.CreationDate,2022-10-19T15:00:50-05:00*%
%TF.ProjectId,NR1B-SQT56,4e523142-2d53-4515-9435-362e6b696361,rev?*%
%TF.SameCoordinates,Original*%
%TF.FileFunction,Legend,Top*%
%TF.FilePolarity,Positive*%
%FSLAX46Y46*%
G04 Gerber Fmt 4.6, Leading zero omitted, Abs format (unit mm)*
G04 Created by KiCad (PCBNEW (6.0.8-1)-1) date 2022-10-19 15:00:50*
%MOMM*%
%LPD*%
G01*
G04 APERTURE LIST*
%ADD10C,0.150000*%
%ADD11C,0.100000*%
%ADD12C,0.120000*%
%ADD13C,0.598516*%
%ADD14C,0.310000*%
%ADD15C,0.549999*%
G04 APERTURE END LIST*
D10*
X62600000Y-85600000D02*
X62600000Y-85100000D01*
X122100000Y-63500000D02*
X123000000Y-64100000D01*
X119500000Y-63500000D02*
X122100000Y-63500000D01*
X62900000Y-85600000D02*
X62600000Y-85600000D01*
X62850000Y-88200000D02*
X62550000Y-88200000D01*
X118800000Y-58500000D02*
X122100000Y-58500000D01*
X129000000Y-126350000D02*
X129000000Y-125850000D01*
X62550000Y-88750000D02*
X62550000Y-88200000D01*
X129000000Y-126350000D02*
X128700000Y-126350000D01*
X122100000Y-58500000D02*
X123000000Y-59100000D01*
D11*
X114898333Y-63316666D02*
X115231666Y-63316666D01*
X114831666Y-63516666D02*
X115065000Y-62816666D01*
X115298333Y-63516666D01*
X115531666Y-63516666D02*
X115531666Y-62816666D01*
X115931666Y-63516666D01*
X115931666Y-62816666D01*
X116231666Y-63316666D02*
X116565000Y-63316666D01*
X116165000Y-63516666D02*
X116398333Y-62816666D01*
X116631666Y-63516666D01*
X116698333Y-63583333D02*
X117231666Y-63583333D01*
X117298333Y-62816666D02*
X117531666Y-63516666D01*
X117765000Y-62816666D01*
X117931666Y-62816666D02*
X118098333Y-63516666D01*
X118231666Y-63016666D01*
X118365000Y-63516666D01*
X118531666Y-62816666D01*
X119131666Y-63516666D02*
X118798333Y-63516666D01*
X118798333Y-62816666D01*
X61840000Y-76650000D02*
X61873333Y-76683333D01*
X61906666Y-76783333D01*
X61906666Y-76850000D01*
X61873333Y-76950000D01*
X61806666Y-77016666D01*
X61740000Y-77050000D01*
X61606666Y-77083333D01*
X61506666Y-77083333D01*
X61373333Y-77050000D01*
X61306666Y-77016666D01*
X61240000Y-76950000D01*
X61206666Y-76850000D01*
X61206666Y-76783333D01*
X61240000Y-76683333D01*
X61273333Y-76650000D01*
X61540000Y-76350000D02*
X61540000Y-76116666D01*
X61906666Y-76016666D02*
X61906666Y-76350000D01*
X61206666Y-76350000D01*
X61206666Y-76016666D01*
X61973333Y-75883333D02*
X61973333Y-75350000D01*
X61873333Y-75216666D02*
X61906666Y-75116666D01*
X61906666Y-74950000D01*
X61873333Y-74883333D01*
X61840000Y-74850000D01*
X61773333Y-74816666D01*
X61706666Y-74816666D01*
X61640000Y-74850000D01*
X61606666Y-74883333D01*
X61573333Y-74950000D01*
X61540000Y-75083333D01*
X61506666Y-75150000D01*
X61473333Y-75183333D01*
X61406666Y-75216666D01*
X61340000Y-75216666D01*
X61273333Y-75183333D01*
X61240000Y-75150000D01*
X61206666Y-75083333D01*
X61206666Y-74916666D01*
X61240000Y-74816666D01*
X61206666Y-74583333D02*
X61906666Y-74416666D01*
X61406666Y-74283333D01*
X61906666Y-74150000D01*
X61206666Y-73983333D01*
D10*
X62347619Y-91387142D02*
X62300000Y-91482380D01*
X62204761Y-91577619D01*
X62061904Y-91720476D01*
X62014285Y-91815714D01*
X62014285Y-91910952D01*
X62252380Y-91863333D02*
X62204761Y-91958571D01*
X62109523Y-92053809D01*
X61919047Y-92101428D01*
X61585714Y-92101428D01*
X61395238Y-92053809D01*
X61300000Y-91958571D01*
X61252380Y-91863333D01*
X61252380Y-91672857D01*
X61300000Y-91577619D01*
X61395238Y-91482380D01*
X61585714Y-91434761D01*
X61919047Y-91434761D01*
X62109523Y-91482380D01*
X62204761Y-91577619D01*
X62252380Y-91672857D01*
X62252380Y-91863333D01*
X62252380Y-91006190D02*
X61252380Y-91006190D01*
X61252380Y-90339523D02*
X61252380Y-90149047D01*
X61300000Y-90053809D01*
X61395238Y-89958571D01*
X61585714Y-89910952D01*
X61919047Y-89910952D01*
X62109523Y-89958571D01*
X62204761Y-90053809D01*
X62252380Y-90149047D01*
X62252380Y-90339523D01*
X62204761Y-90434761D01*
X62109523Y-90530000D01*
X61919047Y-90577619D01*
X61585714Y-90577619D01*
X61395238Y-90530000D01*
X61300000Y-90434761D01*
X61252380Y-90339523D01*
X61347619Y-89530000D02*
X61300000Y-89482380D01*
X61252380Y-89387142D01*
X61252380Y-89149047D01*
X61300000Y-89053809D01*
X61347619Y-89006190D01*
X61442857Y-88958571D01*
X61538095Y-88958571D01*
X61680952Y-89006190D01*
X62252380Y-89577619D01*
X62252380Y-88958571D01*
D11*
X112868333Y-133119000D02*
X113568333Y-133119000D01*
X113435000Y-134016666D02*
X113201666Y-133683333D01*
X113035000Y-134016666D02*
X113035000Y-133316666D01*
X113301666Y-133316666D01*
X113368333Y-133350000D01*
X113401666Y-133383333D01*
X113435000Y-133450000D01*
X113435000Y-133550000D01*
X113401666Y-133616666D01*
X113368333Y-133650000D01*
X113301666Y-133683333D01*
X113035000Y-133683333D01*
X113568333Y-133119000D02*
X114235000Y-133119000D01*
X113701666Y-133983333D02*
X113801666Y-134016666D01*
X113968333Y-134016666D01*
X114035000Y-133983333D01*
X114068333Y-133950000D01*
X114101666Y-133883333D01*
X114101666Y-133816666D01*
X114068333Y-133750000D01*
X114035000Y-133716666D01*
X113968333Y-133683333D01*
X113835000Y-133650000D01*
X113768333Y-133616666D01*
X113735000Y-133583333D01*
X113701666Y-133516666D01*
X113701666Y-133450000D01*
X113735000Y-133383333D01*
X113768333Y-133350000D01*
X113835000Y-133316666D01*
X114001666Y-133316666D01*
X114101666Y-133350000D01*
X114235000Y-133119000D02*
X114768333Y-133119000D01*
X114301666Y-133316666D02*
X114701666Y-133316666D01*
X114501666Y-134016666D02*
X114501666Y-133316666D01*
X115435000Y-133283333D02*
X114835000Y-134183333D01*
X115668333Y-134016666D02*
X115668333Y-133316666D01*
X116135000Y-133316666D02*
X116268333Y-133316666D01*
X116335000Y-133350000D01*
X116401666Y-133416666D01*
X116435000Y-133550000D01*
X116435000Y-133783333D01*
X116401666Y-133916666D01*
X116335000Y-133983333D01*
X116268333Y-134016666D01*
X116135000Y-134016666D01*
X116068333Y-133983333D01*
X116001666Y-133916666D01*
X115968333Y-133783333D01*
X115968333Y-133550000D01*
X116001666Y-133416666D01*
X116068333Y-133350000D01*
X116135000Y-133316666D01*
X116668333Y-133316666D02*
X117101666Y-133316666D01*
X116868333Y-133583333D01*
X116968333Y-133583333D01*
X117035000Y-133616666D01*
X117068333Y-133650000D01*
X117101666Y-133716666D01*
X117101666Y-133883333D01*
X117068333Y-133950000D01*
X117035000Y-133983333D01*
X116968333Y-134016666D01*
X116768333Y-134016666D01*
X116701666Y-133983333D01*
X116668333Y-133950000D01*
D10*
X107247619Y-131357142D02*
X107200000Y-131404761D01*
X107057142Y-131452380D01*
X106961904Y-131452380D01*
X106819047Y-131404761D01*
X106723809Y-131309523D01*
X106676190Y-131214285D01*
X106628571Y-131023809D01*
X106628571Y-130880952D01*
X106676190Y-130690476D01*
X106723809Y-130595238D01*
X106819047Y-130500000D01*
X106961904Y-130452380D01*
X107057142Y-130452380D01*
X107200000Y-130500000D01*
X107247619Y-130547619D01*
X108009523Y-130928571D02*
X107676190Y-130928571D01*
X107676190Y-131452380D02*
X107676190Y-130452380D01*
X108152380Y-130452380D01*
X109009523Y-131452380D02*
X108533333Y-131452380D01*
X108533333Y-130452380D01*
X109295238Y-131166666D02*
X109771428Y-131166666D01*
X109200000Y-131452380D02*
X109533333Y-130452380D01*
X109866666Y-131452380D01*
X110152380Y-131404761D02*
X110295238Y-131452380D01*
X110533333Y-131452380D01*
X110628571Y-131404761D01*
X110676190Y-131357142D01*
X110723809Y-131261904D01*
X110723809Y-131166666D01*
X110676190Y-131071428D01*
X110628571Y-131023809D01*
X110533333Y-130976190D01*
X110342857Y-130928571D01*
X110247619Y-130880952D01*
X110200000Y-130833333D01*
X110152380Y-130738095D01*
X110152380Y-130642857D01*
X110200000Y-130547619D01*
X110247619Y-130500000D01*
X110342857Y-130452380D01*
X110580952Y-130452380D01*
X110723809Y-130500000D01*
X111152380Y-131452380D02*
X111152380Y-130452380D01*
X111152380Y-130928571D02*
X111723809Y-130928571D01*
X111723809Y-131452380D02*
X111723809Y-130452380D01*
D11*
X90831666Y-166689666D02*
X90831666Y-165989666D01*
X91231666Y-166689666D01*
X91231666Y-165989666D01*
X91965000Y-166689666D02*
X91731666Y-166356333D01*
X91565000Y-166689666D02*
X91565000Y-165989666D01*
X91831666Y-165989666D01*
X91898333Y-166023000D01*
X91931666Y-166056333D01*
X91965000Y-166123000D01*
X91965000Y-166223000D01*
X91931666Y-166289666D01*
X91898333Y-166323000D01*
X91831666Y-166356333D01*
X91565000Y-166356333D01*
X92631666Y-166689666D02*
X92231666Y-166689666D01*
X92431666Y-166689666D02*
X92431666Y-165989666D01*
X92365000Y-166089666D01*
X92298333Y-166156333D01*
X92231666Y-166189666D01*
X93165000Y-166323000D02*
X93265000Y-166356333D01*
X93298333Y-166389666D01*
X93331666Y-166456333D01*
X93331666Y-166556333D01*
X93298333Y-166623000D01*
X93265000Y-166656333D01*
X93198333Y-166689666D01*
X92931666Y-166689666D01*
X92931666Y-165989666D01*
X93165000Y-165989666D01*
X93231666Y-166023000D01*
X93265000Y-166056333D01*
X93298333Y-166123000D01*
X93298333Y-166189666D01*
X93265000Y-166256333D01*
X93231666Y-166289666D01*
X93165000Y-166323000D01*
X92931666Y-166323000D01*
X93631666Y-166423000D02*
X94165000Y-166423000D01*
X94465000Y-166656333D02*
X94565000Y-166689666D01*
X94731666Y-166689666D01*
X94798333Y-166656333D01*
X94831666Y-166623000D01*
X94865000Y-166556333D01*
X94865000Y-166489666D01*
X94831666Y-166423000D01*
X94798333Y-166389666D01*
X94731666Y-166356333D01*
X94598333Y-166323000D01*
X94531666Y-166289666D01*
X94498333Y-166256333D01*
X94465000Y-166189666D01*
X94465000Y-166123000D01*
X94498333Y-166056333D01*
X94531666Y-166023000D01*
X94598333Y-165989666D01*
X94765000Y-165989666D01*
X94865000Y-166023000D01*
X95631666Y-166756333D02*
X95565000Y-166723000D01*
X95498333Y-166656333D01*
X95398333Y-166556333D01*
X95331666Y-166523000D01*
X95265000Y-166523000D01*
X95298333Y-166689666D02*
X95231666Y-166656333D01*
X95165000Y-166589666D01*
X95131666Y-166456333D01*
X95131666Y-166223000D01*
X95165000Y-166089666D01*
X95231666Y-166023000D01*
X95298333Y-165989666D01*
X95431666Y-165989666D01*
X95498333Y-166023000D01*
X95565000Y-166089666D01*
X95598333Y-166223000D01*
X95598333Y-166456333D01*
X95565000Y-166589666D01*
X95498333Y-166656333D01*
X95431666Y-166689666D01*
X95298333Y-166689666D01*
X95798333Y-165989666D02*
X96198333Y-165989666D01*
X95998333Y-166689666D02*
X95998333Y-165989666D01*
X96765000Y-165989666D02*
X96431666Y-165989666D01*
X96398333Y-166323000D01*
X96431666Y-166289666D01*
X96498333Y-166256333D01*
X96665000Y-166256333D01*
X96731666Y-166289666D01*
X96765000Y-166323000D01*
X96798333Y-166389666D01*
X96798333Y-166556333D01*
X96765000Y-166623000D01*
X96731666Y-166656333D01*
X96665000Y-166689666D01*
X96498333Y-166689666D01*
X96431666Y-166656333D01*
X96398333Y-166623000D01*
X97398333Y-165989666D02*
X97265000Y-165989666D01*
X97198333Y-166023000D01*
X97165000Y-166056333D01*
X97098333Y-166156333D01*
X97065000Y-166289666D01*
X97065000Y-166556333D01*
X97098333Y-166623000D01*
X97131666Y-166656333D01*
X97198333Y-166689666D01*
X97331666Y-166689666D01*
X97398333Y-166656333D01*
X97431666Y-166623000D01*
X97465000Y-166556333D01*
X97465000Y-166389666D01*
X97431666Y-166323000D01*
X97398333Y-166289666D01*
X97331666Y-166256333D01*
X97198333Y-166256333D01*
X97131666Y-166289666D01*
X97098333Y-166323000D01*
X97065000Y-166389666D01*
X90798333Y-167616666D02*
X91131666Y-167616666D01*
X90731666Y-167816666D02*
X90965000Y-167116666D01*
X91198333Y-167816666D01*
X91431666Y-167350000D02*
X91431666Y-167816666D01*
X91431666Y-167416666D02*
X91465000Y-167383333D01*
X91531666Y-167350000D01*
X91631666Y-167350000D01*
X91698333Y-167383333D01*
X91731666Y-167450000D01*
X91731666Y-167816666D01*
X92365000Y-167350000D02*
X92365000Y-167916666D01*
X92331666Y-167983333D01*
X92298333Y-168016666D01*
X92231666Y-168050000D01*
X92131666Y-168050000D01*
X92065000Y-168016666D01*
X92365000Y-167783333D02*
X92298333Y-167816666D01*
X92165000Y-167816666D01*
X92098333Y-167783333D01*
X92065000Y-167750000D01*
X92031666Y-167683333D01*
X92031666Y-167483333D01*
X92065000Y-167416666D01*
X92098333Y-167383333D01*
X92165000Y-167350000D01*
X92298333Y-167350000D01*
X92365000Y-167383333D01*
X92965000Y-167783333D02*
X92898333Y-167816666D01*
X92765000Y-167816666D01*
X92698333Y-167783333D01*
X92665000Y-167716666D01*
X92665000Y-167450000D01*
X92698333Y-167383333D01*
X92765000Y-167350000D01*
X92898333Y-167350000D01*
X92965000Y-167383333D01*
X92998333Y-167450000D01*
X92998333Y-167516666D01*
X92665000Y-167583333D01*
X93398333Y-167816666D02*
X93331666Y-167783333D01*
X93298333Y-167716666D01*
X93298333Y-167116666D01*
X93965000Y-167816666D02*
X93965000Y-167450000D01*
X93931666Y-167383333D01*
X93865000Y-167350000D01*
X93731666Y-167350000D01*
X93665000Y-167383333D01*
X93965000Y-167783333D02*
X93898333Y-167816666D01*
X93731666Y-167816666D01*
X93665000Y-167783333D01*
X93631666Y-167716666D01*
X93631666Y-167650000D01*
X93665000Y-167583333D01*
X93731666Y-167550000D01*
X93898333Y-167550000D01*
X93965000Y-167516666D01*
X95031666Y-167116666D02*
X95031666Y-167616666D01*
X94998333Y-167716666D01*
X94931666Y-167783333D01*
X94831666Y-167816666D01*
X94765000Y-167816666D01*
X95365000Y-167816666D02*
X95365000Y-167350000D01*
X95365000Y-167116666D02*
X95331666Y-167150000D01*
X95365000Y-167183333D01*
X95398333Y-167150000D01*
X95365000Y-167116666D01*
X95365000Y-167183333D01*
X95698333Y-167816666D02*
X95698333Y-167350000D01*
X95698333Y-167416666D02*
X95731666Y-167383333D01*
X95798333Y-167350000D01*
X95898333Y-167350000D01*
X95965000Y-167383333D01*
X95998333Y-167450000D01*
X95998333Y-167816666D01*
X95998333Y-167450000D02*
X96031666Y-167383333D01*
X96098333Y-167350000D01*
X96198333Y-167350000D01*
X96265000Y-167383333D01*
X96298333Y-167450000D01*
X96298333Y-167816666D01*
X96898333Y-167783333D02*
X96831666Y-167816666D01*
X96698333Y-167816666D01*
X96631666Y-167783333D01*
X96598333Y-167716666D01*
X96598333Y-167450000D01*
X96631666Y-167383333D01*
X96698333Y-167350000D01*
X96831666Y-167350000D01*
X96898333Y-167383333D01*
X96931666Y-167450000D01*
X96931666Y-167516666D01*
X96598333Y-167583333D01*
X97231666Y-167350000D02*
X97231666Y-167816666D01*
X97231666Y-167416666D02*
X97265000Y-167383333D01*
X97331666Y-167350000D01*
X97431666Y-167350000D01*
X97498333Y-167383333D01*
X97531666Y-167450000D01*
X97531666Y-167816666D01*
X98131666Y-167783333D02*
X98065000Y-167816666D01*
X97931666Y-167816666D01*
X97865000Y-167783333D01*
X97831666Y-167716666D01*
X97831666Y-167450000D01*
X97865000Y-167383333D01*
X97931666Y-167350000D01*
X98065000Y-167350000D01*
X98131666Y-167383333D01*
X98165000Y-167450000D01*
X98165000Y-167516666D01*
X97831666Y-167583333D01*
X98398333Y-167350000D02*
X98765000Y-167350000D01*
X98398333Y-167816666D01*
X98765000Y-167816666D01*
X99065000Y-167783333D02*
X99065000Y-167816666D01*
X99031666Y-167883333D01*
X98998333Y-167916666D01*
X99865000Y-167616666D02*
X100198333Y-167616666D01*
X99798333Y-167816666D02*
X100031666Y-167116666D01*
X100265000Y-167816666D01*
X100498333Y-167816666D02*
X100498333Y-167350000D01*
X100498333Y-167116666D02*
X100465000Y-167150000D01*
X100498333Y-167183333D01*
X100531666Y-167150000D01*
X100498333Y-167116666D01*
X100498333Y-167183333D01*
X101131666Y-167816666D02*
X101131666Y-167116666D01*
X101131666Y-167783333D02*
X101065000Y-167816666D01*
X100931666Y-167816666D01*
X100865000Y-167783333D01*
X100831666Y-167750000D01*
X100798333Y-167683333D01*
X100798333Y-167483333D01*
X100831666Y-167416666D01*
X100865000Y-167383333D01*
X100931666Y-167350000D01*
X101065000Y-167350000D01*
X101131666Y-167383333D01*
X101765000Y-167816666D02*
X101765000Y-167450000D01*
X101731666Y-167383333D01*
X101665000Y-167350000D01*
X101531666Y-167350000D01*
X101465000Y-167383333D01*
X101765000Y-167783333D02*
X101698333Y-167816666D01*
X101531666Y-167816666D01*
X101465000Y-167783333D01*
X101431666Y-167716666D01*
X101431666Y-167650000D01*
X101465000Y-167583333D01*
X101531666Y-167550000D01*
X101698333Y-167550000D01*
X101765000Y-167516666D01*
X102098333Y-167350000D02*
X102098333Y-167816666D01*
X102098333Y-167416666D02*
X102131666Y-167383333D01*
X102198333Y-167350000D01*
X102298333Y-167350000D01*
X102365000Y-167383333D01*
X102398333Y-167450000D01*
X102398333Y-167816666D01*
X103265000Y-167816666D02*
X103265000Y-167116666D01*
X103498333Y-167616666D01*
X103731666Y-167116666D01*
X103731666Y-167816666D01*
X104331666Y-167783333D02*
X104265000Y-167816666D01*
X104131666Y-167816666D01*
X104065000Y-167783333D01*
X104031666Y-167716666D01*
X104031666Y-167450000D01*
X104065000Y-167383333D01*
X104131666Y-167350000D01*
X104265000Y-167350000D01*
X104331666Y-167383333D01*
X104365000Y-167450000D01*
X104365000Y-167516666D01*
X104031666Y-167583333D01*
X104965000Y-167816666D02*
X104965000Y-167116666D01*
X104965000Y-167783333D02*
X104898333Y-167816666D01*
X104765000Y-167816666D01*
X104698333Y-167783333D01*
X104665000Y-167750000D01*
X104631666Y-167683333D01*
X104631666Y-167483333D01*
X104665000Y-167416666D01*
X104698333Y-167383333D01*
X104765000Y-167350000D01*
X104898333Y-167350000D01*
X104965000Y-167383333D01*
X105598333Y-167783333D02*
X105531666Y-167816666D01*
X105398333Y-167816666D01*
X105331666Y-167783333D01*
X105298333Y-167750000D01*
X105265000Y-167683333D01*
X105265000Y-167483333D01*
X105298333Y-167416666D01*
X105331666Y-167383333D01*
X105398333Y-167350000D01*
X105531666Y-167350000D01*
X105598333Y-167383333D01*
X106198333Y-167816666D02*
X106198333Y-167450000D01*
X106165000Y-167383333D01*
X106098333Y-167350000D01*
X105965000Y-167350000D01*
X105898333Y-167383333D01*
X106198333Y-167783333D02*
X106131666Y-167816666D01*
X105965000Y-167816666D01*
X105898333Y-167783333D01*
X105865000Y-167716666D01*
X105865000Y-167650000D01*
X105898333Y-167583333D01*
X105965000Y-167550000D01*
X106131666Y-167550000D01*
X106198333Y-167516666D01*
X106631666Y-167816666D02*
X106565000Y-167783333D01*
X106531666Y-167716666D01*
X106531666Y-167116666D01*
X106798333Y-167350000D02*
X107065000Y-167350000D01*
X106898333Y-167816666D02*
X106898333Y-167216666D01*
X106931666Y-167150000D01*
X106998333Y-167116666D01*
X107065000Y-167116666D01*
X90798333Y-168310333D02*
X90831666Y-168277000D01*
X90898333Y-168243666D01*
X91065000Y-168243666D01*
X91131666Y-168277000D01*
X91165000Y-168310333D01*
X91198333Y-168377000D01*
X91198333Y-168443666D01*
X91165000Y-168543666D01*
X90765000Y-168943666D01*
X91198333Y-168943666D01*
X91631666Y-168243666D02*
X91698333Y-168243666D01*
X91765000Y-168277000D01*
X91798333Y-168310333D01*
X91831666Y-168377000D01*
X91865000Y-168510333D01*
X91865000Y-168677000D01*
X91831666Y-168810333D01*
X91798333Y-168877000D01*
X91765000Y-168910333D01*
X91698333Y-168943666D01*
X91631666Y-168943666D01*
X91565000Y-168910333D01*
X91531666Y-168877000D01*
X91498333Y-168810333D01*
X91465000Y-168677000D01*
X91465000Y-168510333D01*
X91498333Y-168377000D01*
X91531666Y-168310333D01*
X91565000Y-168277000D01*
X91631666Y-168243666D01*
X92131666Y-168310333D02*
X92165000Y-168277000D01*
X92231666Y-168243666D01*
X92398333Y-168243666D01*
X92465000Y-168277000D01*
X92498333Y-168310333D01*
X92531666Y-168377000D01*
X92531666Y-168443666D01*
X92498333Y-168543666D01*
X92098333Y-168943666D01*
X92531666Y-168943666D01*
X92798333Y-168310333D02*
X92831666Y-168277000D01*
X92898333Y-168243666D01*
X93065000Y-168243666D01*
X93131666Y-168277000D01*
X93165000Y-168310333D01*
X93198333Y-168377000D01*
X93198333Y-168443666D01*
X93165000Y-168543666D01*
X92765000Y-168943666D01*
X93198333Y-168943666D01*
X94031666Y-168243666D02*
X94031666Y-168810333D01*
X94065000Y-168877000D01*
X94098333Y-168910333D01*
X94165000Y-168943666D01*
X94298333Y-168943666D01*
X94365000Y-168910333D01*
X94398333Y-168877000D01*
X94431666Y-168810333D01*
X94431666Y-168243666D01*
X94765000Y-168477000D02*
X94765000Y-168943666D01*
X94765000Y-168543666D02*
X94798333Y-168510333D01*
X94865000Y-168477000D01*
X94965000Y-168477000D01*
X95031666Y-168510333D01*
X95065000Y-168577000D01*
X95065000Y-168943666D01*
X95398333Y-168943666D02*
X95398333Y-168477000D01*
X95398333Y-168243666D02*
X95365000Y-168277000D01*
X95398333Y-168310333D01*
X95431666Y-168277000D01*
X95398333Y-168243666D01*
X95398333Y-168310333D01*
X95665000Y-168477000D02*
X95831666Y-168943666D01*
X95998333Y-168477000D01*
X96531666Y-168910333D02*
X96465000Y-168943666D01*
X96331666Y-168943666D01*
X96265000Y-168910333D01*
X96231666Y-168843666D01*
X96231666Y-168577000D01*
X96265000Y-168510333D01*
X96331666Y-168477000D01*
X96465000Y-168477000D01*
X96531666Y-168510333D01*
X96565000Y-168577000D01*
X96565000Y-168643666D01*
X96231666Y-168710333D01*
X96865000Y-168943666D02*
X96865000Y-168477000D01*
X96865000Y-168610333D02*
X96898333Y-168543666D01*
X96931666Y-168510333D01*
X96998333Y-168477000D01*
X97065000Y-168477000D01*
X97265000Y-168910333D02*
X97331666Y-168943666D01*
X97465000Y-168943666D01*
X97531666Y-168910333D01*
X97565000Y-168843666D01*
X97565000Y-168810333D01*
X97531666Y-168743666D01*
X97465000Y-168710333D01*
X97365000Y-168710333D01*
X97298333Y-168677000D01*
X97265000Y-168610333D01*
X97265000Y-168577000D01*
X97298333Y-168510333D01*
X97365000Y-168477000D01*
X97465000Y-168477000D01*
X97531666Y-168510333D01*
X97865000Y-168943666D02*
X97865000Y-168477000D01*
X97865000Y-168243666D02*
X97831666Y-168277000D01*
X97865000Y-168310333D01*
X97898333Y-168277000D01*
X97865000Y-168243666D01*
X97865000Y-168310333D01*
X98098333Y-168477000D02*
X98365000Y-168477000D01*
X98198333Y-168243666D02*
X98198333Y-168843666D01*
X98231666Y-168910333D01*
X98298333Y-168943666D01*
X98365000Y-168943666D01*
X98531666Y-168477000D02*
X98698333Y-168943666D01*
X98865000Y-168477000D02*
X98698333Y-168943666D01*
X98631666Y-169110333D01*
X98598333Y-169143666D01*
X98531666Y-169177000D01*
X99765000Y-168943666D02*
X99698333Y-168910333D01*
X99665000Y-168877000D01*
X99631666Y-168810333D01*
X99631666Y-168610333D01*
X99665000Y-168543666D01*
X99698333Y-168510333D01*
X99765000Y-168477000D01*
X99865000Y-168477000D01*
X99931666Y-168510333D01*
X99965000Y-168543666D01*
X99998333Y-168610333D01*
X99998333Y-168810333D01*
X99965000Y-168877000D01*
X99931666Y-168910333D01*
X99865000Y-168943666D01*
X99765000Y-168943666D01*
X100198333Y-168477000D02*
X100465000Y-168477000D01*
X100298333Y-168943666D02*
X100298333Y-168343666D01*
X100331666Y-168277000D01*
X100398333Y-168243666D01*
X100465000Y-168243666D01*
X101231666Y-168943666D02*
X101231666Y-168243666D01*
X101398333Y-168243666D01*
X101498333Y-168277000D01*
X101565000Y-168343666D01*
X101598333Y-168410333D01*
X101631666Y-168543666D01*
X101631666Y-168643666D01*
X101598333Y-168777000D01*
X101565000Y-168843666D01*
X101498333Y-168910333D01*
X101398333Y-168943666D01*
X101231666Y-168943666D01*
X102231666Y-168943666D02*
X102231666Y-168577000D01*
X102198333Y-168510333D01*
X102131666Y-168477000D01*
X101998333Y-168477000D01*
X101931666Y-168510333D01*
X102231666Y-168910333D02*
X102165000Y-168943666D01*
X101998333Y-168943666D01*
X101931666Y-168910333D01*
X101898333Y-168843666D01*
X101898333Y-168777000D01*
X101931666Y-168710333D01*
X101998333Y-168677000D01*
X102165000Y-168677000D01*
X102231666Y-168643666D01*
X102665000Y-168943666D02*
X102598333Y-168910333D01*
X102565000Y-168843666D01*
X102565000Y-168243666D01*
X103031666Y-168943666D02*
X102965000Y-168910333D01*
X102931666Y-168843666D01*
X102931666Y-168243666D01*
X103598333Y-168943666D02*
X103598333Y-168577000D01*
X103565000Y-168510333D01*
X103498333Y-168477000D01*
X103365000Y-168477000D01*
X103298333Y-168510333D01*
X103598333Y-168910333D02*
X103531666Y-168943666D01*
X103365000Y-168943666D01*
X103298333Y-168910333D01*
X103265000Y-168843666D01*
X103265000Y-168777000D01*
X103298333Y-168710333D01*
X103365000Y-168677000D01*
X103531666Y-168677000D01*
X103598333Y-168643666D01*
X103898333Y-168910333D02*
X103965000Y-168943666D01*
X104098333Y-168943666D01*
X104165000Y-168910333D01*
X104198333Y-168843666D01*
X104198333Y-168810333D01*
X104165000Y-168743666D01*
X104098333Y-168710333D01*
X103998333Y-168710333D01*
X103931666Y-168677000D01*
X103898333Y-168610333D01*
X103898333Y-168577000D01*
X103931666Y-168510333D01*
X103998333Y-168477000D01*
X104098333Y-168477000D01*
X104165000Y-168510333D01*
D10*
X114909523Y-175907142D02*
X114861904Y-175954761D01*
X114719047Y-176002380D01*
X114623809Y-176002380D01*
X114480952Y-175954761D01*
X114385714Y-175859523D01*
X114338095Y-175764285D01*
X114290476Y-175573809D01*
X114290476Y-175430952D01*
X114338095Y-175240476D01*
X114385714Y-175145238D01*
X114480952Y-175050000D01*
X114623809Y-175002380D01*
X114719047Y-175002380D01*
X114861904Y-175050000D01*
X114909523Y-175097619D01*
X115338095Y-176002380D02*
X115338095Y-175002380D01*
X115576190Y-175002380D01*
X115719047Y-175050000D01*
X115814285Y-175145238D01*
X115861904Y-175240476D01*
X115909523Y-175430952D01*
X115909523Y-175573809D01*
X115861904Y-175764285D01*
X115814285Y-175859523D01*
X115719047Y-175954761D01*
X115576190Y-176002380D01*
X115338095Y-176002380D01*
X116528571Y-175002380D02*
X116719047Y-175002380D01*
X116814285Y-175050000D01*
X116909523Y-175145238D01*
X116957142Y-175335714D01*
X116957142Y-175669047D01*
X116909523Y-175859523D01*
X116814285Y-175954761D01*
X116719047Y-176002380D01*
X116528571Y-176002380D01*
X116433333Y-175954761D01*
X116338095Y-175859523D01*
X116290476Y-175669047D01*
X116290476Y-175335714D01*
X116338095Y-175145238D01*
X116433333Y-175050000D01*
X116528571Y-175002380D01*
X117385714Y-176002380D02*
X117385714Y-175002380D01*
X117957142Y-176002380D01*
X117957142Y-175002380D01*
X118433333Y-175478571D02*
X118766666Y-175478571D01*
X118909523Y-176002380D02*
X118433333Y-176002380D01*
X118433333Y-175002380D01*
X118909523Y-175002380D01*
D11*
X68500000Y-141983333D02*
X68433333Y-141950000D01*
X68366666Y-141883333D01*
X68266666Y-141783333D01*
X68200000Y-141750000D01*
X68133333Y-141750000D01*
X68166666Y-141916666D02*
X68100000Y-141883333D01*
X68033333Y-141816666D01*
X68000000Y-141683333D01*
X68000000Y-141450000D01*
X68033333Y-141316666D01*
X68100000Y-141250000D01*
X68166666Y-141216666D01*
X68300000Y-141216666D01*
X68366666Y-141250000D01*
X68433333Y-141316666D01*
X68466666Y-141450000D01*
X68466666Y-141683333D01*
X68433333Y-141816666D01*
X68366666Y-141883333D01*
X68300000Y-141916666D01*
X68166666Y-141916666D01*
X68766666Y-141916666D02*
X68766666Y-141216666D01*
X69233333Y-141216666D02*
X69366666Y-141216666D01*
X69433333Y-141250000D01*
X69500000Y-141316666D01*
X69533333Y-141450000D01*
X69533333Y-141683333D01*
X69500000Y-141816666D01*
X69433333Y-141883333D01*
X69366666Y-141916666D01*
X69233333Y-141916666D01*
X69166666Y-141883333D01*
X69100000Y-141816666D01*
X69066666Y-141683333D01*
X69066666Y-141450000D01*
X69100000Y-141316666D01*
X69166666Y-141250000D01*
X69233333Y-141216666D01*
X70200000Y-141916666D02*
X69800000Y-141916666D01*
X70000000Y-141916666D02*
X70000000Y-141216666D01*
X69933333Y-141316666D01*
X69866666Y-141383333D01*
X69800000Y-141416666D01*
X115635000Y-135850000D02*
X115568333Y-135816666D01*
X115468333Y-135816666D01*
X115368333Y-135850000D01*
X115301666Y-135916666D01*
X115268333Y-135983333D01*
X115235000Y-136116666D01*
X115235000Y-136216666D01*
X115268333Y-136350000D01*
X115301666Y-136416666D01*
X115368333Y-136483333D01*
X115468333Y-136516666D01*
X115535000Y-136516666D01*
X115635000Y-136483333D01*
X115668333Y-136450000D01*
X115668333Y-136216666D01*
X115535000Y-136216666D01*
X115968333Y-136516666D02*
X115968333Y-135816666D01*
X116368333Y-136516666D01*
X116368333Y-135816666D01*
X116701666Y-136516666D02*
X116701666Y-135816666D01*
X116868333Y-135816666D01*
X116968333Y-135850000D01*
X117035000Y-135916666D01*
X117068333Y-135983333D01*
X117101666Y-136116666D01*
X117101666Y-136216666D01*
X117068333Y-136350000D01*
X117035000Y-136416666D01*
X116968333Y-136483333D01*
X116868333Y-136516666D01*
X116701666Y-136516666D01*
X66650000Y-55233333D02*
X66650000Y-54700000D01*
X66916666Y-54966666D02*
X66383333Y-54966666D01*
X66916666Y-54000000D02*
X66916666Y-54400000D01*
X66916666Y-54200000D02*
X66216666Y-54200000D01*
X66316666Y-54266666D01*
X66383333Y-54333333D01*
X66416666Y-54400000D01*
X66216666Y-53366666D02*
X66216666Y-53700000D01*
X66550000Y-53733333D01*
X66516666Y-53700000D01*
X66483333Y-53633333D01*
X66483333Y-53466666D01*
X66516666Y-53400000D01*
X66550000Y-53366666D01*
X66616666Y-53333333D01*
X66783333Y-53333333D01*
X66850000Y-53366666D01*
X66883333Y-53400000D01*
X66916666Y-53466666D01*
X66916666Y-53633333D01*
X66883333Y-53700000D01*
X66850000Y-53733333D01*
X66216666Y-53133333D02*
X66916666Y-52900000D01*
X66216666Y-52666666D01*
X115668333Y-120319000D02*
X116368333Y-120319000D01*
X116235000Y-121150000D02*
X116201666Y-121183333D01*
X116101666Y-121216666D01*
X116035000Y-121216666D01*
X115935000Y-121183333D01*
X115868333Y-121116666D01*
X115835000Y-121050000D01*
X115801666Y-120916666D01*
X115801666Y-120816666D01*
X115835000Y-120683333D01*
X115868333Y-120616666D01*
X115935000Y-120550000D01*
X116035000Y-120516666D01*
X116101666Y-120516666D01*
X116201666Y-120550000D01*
X116235000Y-120583333D01*
X116368333Y-120319000D02*
X117035000Y-120319000D01*
X116501666Y-121183333D02*
X116601666Y-121216666D01*
X116768333Y-121216666D01*
X116835000Y-121183333D01*
X116868333Y-121150000D01*
X116901666Y-121083333D01*
X116901666Y-121016666D01*
X116868333Y-120950000D01*
X116835000Y-120916666D01*
X116768333Y-120883333D01*
X116635000Y-120850000D01*
X116568333Y-120816666D01*
X116535000Y-120783333D01*
X116501666Y-120716666D01*
X116501666Y-120650000D01*
X116535000Y-120583333D01*
X116568333Y-120550000D01*
X116635000Y-120516666D01*
X116801666Y-120516666D01*
X116901666Y-120550000D01*
X115101666Y-123583333D02*
X115201666Y-123616666D01*
X115368333Y-123616666D01*
X115435000Y-123583333D01*
X115468333Y-123550000D01*
X115501666Y-123483333D01*
X115501666Y-123416666D01*
X115468333Y-123350000D01*
X115435000Y-123316666D01*
X115368333Y-123283333D01*
X115235000Y-123250000D01*
X115168333Y-123216666D01*
X115135000Y-123183333D01*
X115101666Y-123116666D01*
X115101666Y-123050000D01*
X115135000Y-122983333D01*
X115168333Y-122950000D01*
X115235000Y-122916666D01*
X115401666Y-122916666D01*
X115501666Y-122950000D01*
X116201666Y-123550000D02*
X116168333Y-123583333D01*
X116068333Y-123616666D01*
X116001666Y-123616666D01*
X115901666Y-123583333D01*
X115835000Y-123516666D01*
X115801666Y-123450000D01*
X115768333Y-123316666D01*
X115768333Y-123216666D01*
X115801666Y-123083333D01*
X115835000Y-123016666D01*
X115901666Y-122950000D01*
X116001666Y-122916666D01*
X116068333Y-122916666D01*
X116168333Y-122950000D01*
X116201666Y-122983333D01*
X116501666Y-123616666D02*
X116501666Y-122916666D01*
X116901666Y-123616666D02*
X116601666Y-123216666D01*
X116901666Y-122916666D02*
X116501666Y-123316666D01*
D10*
X73047619Y-176202380D02*
X72714285Y-175726190D01*
X72476190Y-176202380D02*
X72476190Y-175202380D01*
X72857142Y-175202380D01*
X72952380Y-175250000D01*
X73000000Y-175297619D01*
X73047619Y-175392857D01*
X73047619Y-175535714D01*
X73000000Y-175630952D01*
X72952380Y-175678571D01*
X72857142Y-175726190D01*
X72476190Y-175726190D01*
X73476190Y-175678571D02*
X73809523Y-175678571D01*
X73952380Y-176202380D02*
X73476190Y-176202380D01*
X73476190Y-175202380D01*
X73952380Y-175202380D01*
X74333333Y-176154761D02*
X74476190Y-176202380D01*
X74714285Y-176202380D01*
X74809523Y-176154761D01*
X74857142Y-176107142D01*
X74904761Y-176011904D01*
X74904761Y-175916666D01*
X74857142Y-175821428D01*
X74809523Y-175773809D01*
X74714285Y-175726190D01*
X74523809Y-175678571D01*
X74428571Y-175630952D01*
X74380952Y-175583333D01*
X74333333Y-175488095D01*
X74333333Y-175392857D01*
X74380952Y-175297619D01*
X74428571Y-175250000D01*
X74523809Y-175202380D01*
X74761904Y-175202380D01*
X74904761Y-175250000D01*
X75333333Y-175678571D02*
X75666666Y-175678571D01*
X75809523Y-176202380D02*
X75333333Y-176202380D01*
X75333333Y-175202380D01*
X75809523Y-175202380D01*
X76095238Y-175202380D02*
X76666666Y-175202380D01*
X76380952Y-176202380D02*
X76380952Y-175202380D01*
D11*
X90831666Y-171989666D02*
X90831666Y-171289666D01*
X91231666Y-171989666D01*
X91231666Y-171289666D01*
X91565000Y-171989666D02*
X91565000Y-171289666D01*
X91865000Y-171956333D02*
X91965000Y-171989666D01*
X92131666Y-171989666D01*
X92198333Y-171956333D01*
X92231666Y-171923000D01*
X92265000Y-171856333D01*
X92265000Y-171789666D01*
X92231666Y-171723000D01*
X92198333Y-171689666D01*
X92131666Y-171656333D01*
X91998333Y-171623000D01*
X91931666Y-171589666D01*
X91898333Y-171556333D01*
X91865000Y-171489666D01*
X91865000Y-171423000D01*
X91898333Y-171356333D01*
X91931666Y-171323000D01*
X91998333Y-171289666D01*
X92165000Y-171289666D01*
X92265000Y-171323000D01*
X92665000Y-171989666D02*
X92598333Y-171956333D01*
X92565000Y-171923000D01*
X92531666Y-171856333D01*
X92531666Y-171656333D01*
X92565000Y-171589666D01*
X92598333Y-171556333D01*
X92665000Y-171523000D01*
X92765000Y-171523000D01*
X92831666Y-171556333D01*
X92865000Y-171589666D01*
X92898333Y-171656333D01*
X92898333Y-171856333D01*
X92865000Y-171923000D01*
X92831666Y-171956333D01*
X92765000Y-171989666D01*
X92665000Y-171989666D01*
X93598333Y-171923000D02*
X93565000Y-171956333D01*
X93465000Y-171989666D01*
X93398333Y-171989666D01*
X93298333Y-171956333D01*
X93231666Y-171889666D01*
X93198333Y-171823000D01*
X93165000Y-171689666D01*
X93165000Y-171589666D01*
X93198333Y-171456333D01*
X93231666Y-171389666D01*
X93298333Y-171323000D01*
X93398333Y-171289666D01*
X93465000Y-171289666D01*
X93565000Y-171323000D01*
X93598333Y-171356333D01*
X94398333Y-171956333D02*
X94465000Y-171989666D01*
X94598333Y-171989666D01*
X94665000Y-171956333D01*
X94698333Y-171889666D01*
X94698333Y-171856333D01*
X94665000Y-171789666D01*
X94598333Y-171756333D01*
X94498333Y-171756333D01*
X94431666Y-171723000D01*
X94398333Y-171656333D01*
X94398333Y-171623000D01*
X94431666Y-171556333D01*
X94498333Y-171523000D01*
X94598333Y-171523000D01*
X94665000Y-171556333D01*
X95098333Y-171989666D02*
X95031666Y-171956333D01*
X94998333Y-171923000D01*
X94965000Y-171856333D01*
X94965000Y-171656333D01*
X94998333Y-171589666D01*
X95031666Y-171556333D01*
X95098333Y-171523000D01*
X95198333Y-171523000D01*
X95265000Y-171556333D01*
X95298333Y-171589666D01*
X95331666Y-171656333D01*
X95331666Y-171856333D01*
X95298333Y-171923000D01*
X95265000Y-171956333D01*
X95198333Y-171989666D01*
X95098333Y-171989666D01*
X95931666Y-171956333D02*
X95865000Y-171989666D01*
X95731666Y-171989666D01*
X95665000Y-171956333D01*
X95631666Y-171923000D01*
X95598333Y-171856333D01*
X95598333Y-171656333D01*
X95631666Y-171589666D01*
X95665000Y-171556333D01*
X95731666Y-171523000D01*
X95865000Y-171523000D01*
X95931666Y-171556333D01*
X96231666Y-171989666D02*
X96231666Y-171289666D01*
X96298333Y-171723000D02*
X96498333Y-171989666D01*
X96498333Y-171523000D02*
X96231666Y-171789666D01*
X97065000Y-171956333D02*
X96998333Y-171989666D01*
X96865000Y-171989666D01*
X96798333Y-171956333D01*
X96765000Y-171889666D01*
X96765000Y-171623000D01*
X96798333Y-171556333D01*
X96865000Y-171523000D01*
X96998333Y-171523000D01*
X97065000Y-171556333D01*
X97098333Y-171623000D01*
X97098333Y-171689666D01*
X96765000Y-171756333D01*
X97298333Y-171523000D02*
X97565000Y-171523000D01*
X97398333Y-171289666D02*
X97398333Y-171889666D01*
X97431666Y-171956333D01*
X97498333Y-171989666D01*
X97565000Y-171989666D01*
X98631666Y-171956333D02*
X98565000Y-171989666D01*
X98431666Y-171989666D01*
X98365000Y-171956333D01*
X98331666Y-171923000D01*
X98298333Y-171856333D01*
X98298333Y-171656333D01*
X98331666Y-171589666D01*
X98365000Y-171556333D01*
X98431666Y-171523000D01*
X98565000Y-171523000D01*
X98631666Y-171556333D01*
X99231666Y-171989666D02*
X99231666Y-171623000D01*
X99198333Y-171556333D01*
X99131666Y-171523000D01*
X98998333Y-171523000D01*
X98931666Y-171556333D01*
X99231666Y-171956333D02*
X99165000Y-171989666D01*
X98998333Y-171989666D01*
X98931666Y-171956333D01*
X98898333Y-171889666D01*
X98898333Y-171823000D01*
X98931666Y-171756333D01*
X98998333Y-171723000D01*
X99165000Y-171723000D01*
X99231666Y-171689666D01*
X99565000Y-171989666D02*
X99565000Y-171523000D01*
X99565000Y-171656333D02*
X99598333Y-171589666D01*
X99631666Y-171556333D01*
X99698333Y-171523000D01*
X99765000Y-171523000D01*
X99998333Y-171989666D02*
X99998333Y-171523000D01*
X99998333Y-171656333D02*
X100031666Y-171589666D01*
X100065000Y-171556333D01*
X100131666Y-171523000D01*
X100198333Y-171523000D01*
X100431666Y-171989666D02*
X100431666Y-171523000D01*
X100431666Y-171289666D02*
X100398333Y-171323000D01*
X100431666Y-171356333D01*
X100465000Y-171323000D01*
X100431666Y-171289666D01*
X100431666Y-171356333D01*
X101031666Y-171956333D02*
X100965000Y-171989666D01*
X100831666Y-171989666D01*
X100765000Y-171956333D01*
X100731666Y-171889666D01*
X100731666Y-171623000D01*
X100765000Y-171556333D01*
X100831666Y-171523000D01*
X100965000Y-171523000D01*
X101031666Y-171556333D01*
X101065000Y-171623000D01*
X101065000Y-171689666D01*
X100731666Y-171756333D01*
X101365000Y-171989666D02*
X101365000Y-171523000D01*
X101365000Y-171656333D02*
X101398333Y-171589666D01*
X101431666Y-171556333D01*
X101498333Y-171523000D01*
X101565000Y-171523000D01*
X91198333Y-173116666D02*
X90798333Y-173116666D01*
X90998333Y-173116666D02*
X90998333Y-172416666D01*
X90931666Y-172516666D01*
X90865000Y-172583333D01*
X90798333Y-172616666D01*
X91965000Y-173116666D02*
X92331666Y-172650000D01*
X91965000Y-172650000D02*
X92331666Y-173116666D01*
X93031666Y-172416666D02*
X93431666Y-172416666D01*
X93231666Y-173116666D02*
X93231666Y-172416666D01*
X93631666Y-173083333D02*
X93731666Y-173116666D01*
X93898333Y-173116666D01*
X93965000Y-173083333D01*
X93998333Y-173050000D01*
X94031666Y-172983333D01*
X94031666Y-172916666D01*
X93998333Y-172850000D01*
X93965000Y-172816666D01*
X93898333Y-172783333D01*
X93765000Y-172750000D01*
X93698333Y-172716666D01*
X93665000Y-172683333D01*
X93631666Y-172616666D01*
X93631666Y-172550000D01*
X93665000Y-172483333D01*
X93698333Y-172450000D01*
X93765000Y-172416666D01*
X93931666Y-172416666D01*
X94031666Y-172450000D01*
X94465000Y-172416666D02*
X94598333Y-172416666D01*
X94665000Y-172450000D01*
X94731666Y-172516666D01*
X94765000Y-172650000D01*
X94765000Y-172883333D01*
X94731666Y-173016666D01*
X94665000Y-173083333D01*
X94598333Y-173116666D01*
X94465000Y-173116666D01*
X94398333Y-173083333D01*
X94331666Y-173016666D01*
X94298333Y-172883333D01*
X94298333Y-172650000D01*
X94331666Y-172516666D01*
X94398333Y-172450000D01*
X94465000Y-172416666D01*
X95065000Y-173116666D02*
X95065000Y-172416666D01*
X95331666Y-172416666D01*
X95398333Y-172450000D01*
X95431666Y-172483333D01*
X95465000Y-172550000D01*
X95465000Y-172650000D01*
X95431666Y-172716666D01*
X95398333Y-172750000D01*
X95331666Y-172783333D01*
X95065000Y-172783333D01*
X95765000Y-172850000D02*
X96298333Y-172850000D01*
X96965000Y-172416666D02*
X96631666Y-172416666D01*
X96598333Y-172750000D01*
X96631666Y-172716666D01*
X96698333Y-172683333D01*
X96865000Y-172683333D01*
X96931666Y-172716666D01*
X96965000Y-172750000D01*
X96998333Y-172816666D01*
X96998333Y-172983333D01*
X96965000Y-173050000D01*
X96931666Y-173083333D01*
X96865000Y-173116666D01*
X96698333Y-173116666D01*
X96631666Y-173083333D01*
X96598333Y-173050000D01*
X97598333Y-172416666D02*
X97465000Y-172416666D01*
X97398333Y-172450000D01*
X97365000Y-172483333D01*
X97298333Y-172583333D01*
X97265000Y-172716666D01*
X97265000Y-172983333D01*
X97298333Y-173050000D01*
X97331666Y-173083333D01*
X97398333Y-173116666D01*
X97531666Y-173116666D01*
X97598333Y-173083333D01*
X97631666Y-173050000D01*
X97665000Y-172983333D01*
X97665000Y-172816666D01*
X97631666Y-172750000D01*
X97598333Y-172716666D01*
X97531666Y-172683333D01*
X97398333Y-172683333D01*
X97331666Y-172716666D01*
X97298333Y-172750000D01*
X97265000Y-172816666D01*
X91298333Y-174310333D02*
X91231666Y-174277000D01*
X91165000Y-174210333D01*
X91065000Y-174110333D01*
X90998333Y-174077000D01*
X90931666Y-174077000D01*
X90965000Y-174243666D02*
X90898333Y-174210333D01*
X90831666Y-174143666D01*
X90798333Y-174010333D01*
X90798333Y-173777000D01*
X90831666Y-173643666D01*
X90898333Y-173577000D01*
X90965000Y-173543666D01*
X91098333Y-173543666D01*
X91165000Y-173577000D01*
X91231666Y-173643666D01*
X91265000Y-173777000D01*
X91265000Y-174010333D01*
X91231666Y-174143666D01*
X91165000Y-174210333D01*
X91098333Y-174243666D01*
X90965000Y-174243666D01*
X91531666Y-174210333D02*
X91631666Y-174243666D01*
X91798333Y-174243666D01*
X91865000Y-174210333D01*
X91898333Y-174177000D01*
X91931666Y-174110333D01*
X91931666Y-174043666D01*
X91898333Y-173977000D01*
X91865000Y-173943666D01*
X91798333Y-173910333D01*
X91665000Y-173877000D01*
X91598333Y-173843666D01*
X91565000Y-173810333D01*
X91531666Y-173743666D01*
X91531666Y-173677000D01*
X91565000Y-173610333D01*
X91598333Y-173577000D01*
X91665000Y-173543666D01*
X91831666Y-173543666D01*
X91931666Y-173577000D01*
X92231666Y-174243666D02*
X92231666Y-173543666D01*
X92498333Y-173543666D01*
X92565000Y-173577000D01*
X92598333Y-173610333D01*
X92631666Y-173677000D01*
X92631666Y-173777000D01*
X92598333Y-173843666D01*
X92565000Y-173877000D01*
X92498333Y-173910333D01*
X92231666Y-173910333D01*
X92931666Y-174243666D02*
X92931666Y-173543666D01*
X93798333Y-174243666D02*
X93798333Y-173777000D01*
X93798333Y-173543666D02*
X93765000Y-173577000D01*
X93798333Y-173610333D01*
X93831666Y-173577000D01*
X93798333Y-173543666D01*
X93798333Y-173610333D01*
X94131666Y-173777000D02*
X94131666Y-174243666D01*
X94131666Y-173843666D02*
X94165000Y-173810333D01*
X94231666Y-173777000D01*
X94331666Y-173777000D01*
X94398333Y-173810333D01*
X94431666Y-173877000D01*
X94431666Y-174243666D01*
X94665000Y-173777000D02*
X94931666Y-173777000D01*
X94765000Y-173543666D02*
X94765000Y-174143666D01*
X94798333Y-174210333D01*
X94865000Y-174243666D01*
X94931666Y-174243666D01*
X95431666Y-174210333D02*
X95365000Y-174243666D01*
X95231666Y-174243666D01*
X95165000Y-174210333D01*
X95131666Y-174143666D01*
X95131666Y-173877000D01*
X95165000Y-173810333D01*
X95231666Y-173777000D01*
X95365000Y-173777000D01*
X95431666Y-173810333D01*
X95465000Y-173877000D01*
X95465000Y-173943666D01*
X95131666Y-174010333D01*
X95765000Y-174243666D02*
X95765000Y-173777000D01*
X95765000Y-173910333D02*
X95798333Y-173843666D01*
X95831666Y-173810333D01*
X95898333Y-173777000D01*
X95965000Y-173777000D01*
X96098333Y-173777000D02*
X96365000Y-173777000D01*
X96198333Y-174243666D02*
X96198333Y-173643666D01*
X96231666Y-173577000D01*
X96298333Y-173543666D01*
X96365000Y-173543666D01*
X96898333Y-174243666D02*
X96898333Y-173877000D01*
X96865000Y-173810333D01*
X96798333Y-173777000D01*
X96665000Y-173777000D01*
X96598333Y-173810333D01*
X96898333Y-174210333D02*
X96831666Y-174243666D01*
X96665000Y-174243666D01*
X96598333Y-174210333D01*
X96565000Y-174143666D01*
X96565000Y-174077000D01*
X96598333Y-174010333D01*
X96665000Y-173977000D01*
X96831666Y-173977000D01*
X96898333Y-173943666D01*
X97531666Y-174210333D02*
X97465000Y-174243666D01*
X97331666Y-174243666D01*
X97265000Y-174210333D01*
X97231666Y-174177000D01*
X97198333Y-174110333D01*
X97198333Y-173910333D01*
X97231666Y-173843666D01*
X97265000Y-173810333D01*
X97331666Y-173777000D01*
X97465000Y-173777000D01*
X97531666Y-173810333D01*
X98098333Y-174210333D02*
X98031666Y-174243666D01*
X97898333Y-174243666D01*
X97831666Y-174210333D01*
X97798333Y-174143666D01*
X97798333Y-173877000D01*
X97831666Y-173810333D01*
X97898333Y-173777000D01*
X98031666Y-173777000D01*
X98098333Y-173810333D01*
X98131666Y-173877000D01*
X98131666Y-173943666D01*
X97798333Y-174010333D01*
X114898333Y-56816666D02*
X115231666Y-56816666D01*
X114831666Y-57016666D02*
X115065000Y-56316666D01*
X115298333Y-57016666D01*
X115531666Y-57016666D02*
X115531666Y-56316666D01*
X115931666Y-57016666D01*
X115931666Y-56316666D01*
X116231666Y-56816666D02*
X116565000Y-56816666D01*
X116165000Y-57016666D02*
X116398333Y-56316666D01*
X116631666Y-57016666D01*
X116698333Y-57083333D02*
X117231666Y-57083333D01*
X117331666Y-56316666D02*
X117498333Y-57016666D01*
X117631666Y-56516666D01*
X117765000Y-57016666D01*
X117931666Y-56316666D01*
X118198333Y-57016666D02*
X118198333Y-56316666D01*
X118465000Y-56316666D01*
X118531666Y-56350000D01*
X118565000Y-56383333D01*
X118598333Y-56450000D01*
X118598333Y-56550000D01*
X118565000Y-56616666D01*
X118531666Y-56650000D01*
X118465000Y-56683333D01*
X118198333Y-56683333D01*
X118731666Y-57083333D02*
X119265000Y-57083333D01*
X119398333Y-56983333D02*
X119498333Y-57016666D01*
X119665000Y-57016666D01*
X119731666Y-56983333D01*
X119765000Y-56950000D01*
X119798333Y-56883333D01*
X119798333Y-56816666D01*
X119765000Y-56750000D01*
X119731666Y-56716666D01*
X119665000Y-56683333D01*
X119531666Y-56650000D01*
X119465000Y-56616666D01*
X119431666Y-56583333D01*
X119398333Y-56516666D01*
X119398333Y-56450000D01*
X119431666Y-56383333D01*
X119465000Y-56350000D01*
X119531666Y-56316666D01*
X119698333Y-56316666D01*
X119798333Y-56350000D01*
X120098333Y-56650000D02*
X120331666Y-56650000D01*
X120431666Y-57016666D02*
X120098333Y-57016666D01*
X120098333Y-56316666D01*
X120431666Y-56316666D01*
X120731666Y-57016666D02*
X120731666Y-56316666D01*
X121131666Y-57016666D01*
X121131666Y-56316666D01*
X121431666Y-56983333D02*
X121531666Y-57016666D01*
X121698333Y-57016666D01*
X121765000Y-56983333D01*
X121798333Y-56950000D01*
X121831666Y-56883333D01*
X121831666Y-56816666D01*
X121798333Y-56750000D01*
X121765000Y-56716666D01*
X121698333Y-56683333D01*
X121565000Y-56650000D01*
X121498333Y-56616666D01*
X121465000Y-56583333D01*
X121431666Y-56516666D01*
X121431666Y-56450000D01*
X121465000Y-56383333D01*
X121498333Y-56350000D01*
X121565000Y-56316666D01*
X121731666Y-56316666D01*
X121831666Y-56350000D01*
X122131666Y-56650000D02*
X122365000Y-56650000D01*
X122465000Y-57016666D02*
X122131666Y-57016666D01*
X122131666Y-56316666D01*
X122465000Y-56316666D01*
X129983333Y-125366666D02*
X129950000Y-125433333D01*
X129883333Y-125500000D01*
X129783333Y-125600000D01*
X129750000Y-125666666D01*
X129750000Y-125733333D01*
X129916666Y-125700000D02*
X129883333Y-125766666D01*
X129816666Y-125833333D01*
X129683333Y-125866666D01*
X129450000Y-125866666D01*
X129316666Y-125833333D01*
X129250000Y-125766666D01*
X129216666Y-125700000D01*
X129216666Y-125566666D01*
X129250000Y-125500000D01*
X129316666Y-125433333D01*
X129450000Y-125400000D01*
X129683333Y-125400000D01*
X129816666Y-125433333D01*
X129883333Y-125500000D01*
X129916666Y-125566666D01*
X129916666Y-125700000D01*
X129883333Y-125133333D02*
X129916666Y-125033333D01*
X129916666Y-124866666D01*
X129883333Y-124800000D01*
X129850000Y-124766666D01*
X129783333Y-124733333D01*
X129716666Y-124733333D01*
X129650000Y-124766666D01*
X129616666Y-124800000D01*
X129583333Y-124866666D01*
X129550000Y-125000000D01*
X129516666Y-125066666D01*
X129483333Y-125100000D01*
X129416666Y-125133333D01*
X129350000Y-125133333D01*
X129283333Y-125100000D01*
X129250000Y-125066666D01*
X129216666Y-125000000D01*
X129216666Y-124833333D01*
X129250000Y-124733333D01*
X129850000Y-124033333D02*
X129883333Y-124066666D01*
X129916666Y-124166666D01*
X129916666Y-124233333D01*
X129883333Y-124333333D01*
X129816666Y-124400000D01*
X129750000Y-124433333D01*
X129616666Y-124466666D01*
X129516666Y-124466666D01*
X129383333Y-124433333D01*
X129316666Y-124400000D01*
X129250000Y-124333333D01*
X129216666Y-124233333D01*
X129216666Y-124166666D01*
X129250000Y-124066666D01*
X129283333Y-124033333D01*
X129916666Y-123733333D02*
X129216666Y-123733333D01*
X129916666Y-123333333D02*
X129516666Y-123633333D01*
X129216666Y-123333333D02*
X129616666Y-123733333D01*
X113501666Y-128816666D02*
X113501666Y-128116666D01*
X113668333Y-128116666D01*
X113768333Y-128150000D01*
X113835000Y-128216666D01*
X113868333Y-128283333D01*
X113901666Y-128416666D01*
X113901666Y-128516666D01*
X113868333Y-128650000D01*
X113835000Y-128716666D01*
X113768333Y-128783333D01*
X113668333Y-128816666D01*
X113501666Y-128816666D01*
X114335000Y-128116666D02*
X114468333Y-128116666D01*
X114535000Y-128150000D01*
X114601666Y-128216666D01*
X114635000Y-128350000D01*
X114635000Y-128583333D01*
X114601666Y-128716666D01*
X114535000Y-128783333D01*
X114468333Y-128816666D01*
X114335000Y-128816666D01*
X114268333Y-128783333D01*
X114201666Y-128716666D01*
X114168333Y-128583333D01*
X114168333Y-128350000D01*
X114201666Y-128216666D01*
X114268333Y-128150000D01*
X114335000Y-128116666D01*
X115435000Y-128083333D02*
X114835000Y-128983333D01*
X115668333Y-128816666D02*
X115668333Y-128116666D01*
X116135000Y-128116666D02*
X116268333Y-128116666D01*
X116335000Y-128150000D01*
X116401666Y-128216666D01*
X116435000Y-128350000D01*
X116435000Y-128583333D01*
X116401666Y-128716666D01*
X116335000Y-128783333D01*
X116268333Y-128816666D01*
X116135000Y-128816666D01*
X116068333Y-128783333D01*
X116001666Y-128716666D01*
X115968333Y-128583333D01*
X115968333Y-128350000D01*
X116001666Y-128216666D01*
X116068333Y-128150000D01*
X116135000Y-128116666D01*
X117101666Y-128816666D02*
X116701666Y-128816666D01*
X116901666Y-128816666D02*
X116901666Y-128116666D01*
X116835000Y-128216666D01*
X116768333Y-128283333D01*
X116701666Y-128316666D01*
D10*
X86047619Y-173952380D02*
X85714285Y-173476190D01*
X85476190Y-173952380D02*
X85476190Y-172952380D01*
X85857142Y-172952380D01*
X85952380Y-173000000D01*
X86000000Y-173047619D01*
X86047619Y-173142857D01*
X86047619Y-173285714D01*
X86000000Y-173380952D01*
X85952380Y-173428571D01*
X85857142Y-173476190D01*
X85476190Y-173476190D01*
X86476190Y-173428571D02*
X86809523Y-173428571D01*
X86952380Y-173952380D02*
X86476190Y-173952380D01*
X86476190Y-172952380D01*
X86952380Y-172952380D01*
X87333333Y-173904761D02*
X87476190Y-173952380D01*
X87714285Y-173952380D01*
X87809523Y-173904761D01*
X87857142Y-173857142D01*
X87904761Y-173761904D01*
X87904761Y-173666666D01*
X87857142Y-173571428D01*
X87809523Y-173523809D01*
X87714285Y-173476190D01*
X87523809Y-173428571D01*
X87428571Y-173380952D01*
X87380952Y-173333333D01*
X87333333Y-173238095D01*
X87333333Y-173142857D01*
X87380952Y-173047619D01*
X87428571Y-173000000D01*
X87523809Y-172952380D01*
X87761904Y-172952380D01*
X87904761Y-173000000D01*
X88333333Y-173428571D02*
X88666666Y-173428571D01*
X88809523Y-173952380D02*
X88333333Y-173952380D01*
X88333333Y-172952380D01*
X88809523Y-172952380D01*
X89095238Y-172952380D02*
X89666666Y-172952380D01*
X89380952Y-173952380D02*
X89380952Y-172952380D01*
X86238095Y-169750000D02*
X86142857Y-169702380D01*
X86000000Y-169702380D01*
X85857142Y-169750000D01*
X85761904Y-169845238D01*
X85714285Y-169940476D01*
X85666666Y-170130952D01*
X85666666Y-170273809D01*
X85714285Y-170464285D01*
X85761904Y-170559523D01*
X85857142Y-170654761D01*
X86000000Y-170702380D01*
X86095238Y-170702380D01*
X86238095Y-170654761D01*
X86285714Y-170607142D01*
X86285714Y-170273809D01*
X86095238Y-170273809D01*
X86714285Y-170702380D02*
X86714285Y-169702380D01*
X87285714Y-170702380D01*
X87285714Y-169702380D01*
X87761904Y-170702380D02*
X87761904Y-169702380D01*
X88000000Y-169702380D01*
X88142857Y-169750000D01*
X88238095Y-169845238D01*
X88285714Y-169940476D01*
X88333333Y-170130952D01*
X88333333Y-170273809D01*
X88285714Y-170464285D01*
X88238095Y-170559523D01*
X88142857Y-170654761D01*
X88000000Y-170702380D01*
X87761904Y-170702380D01*
D11*
X61783333Y-64750000D02*
X61716666Y-64716666D01*
X61616666Y-64716666D01*
X61516666Y-64750000D01*
X61450000Y-64816666D01*
X61416666Y-64883333D01*
X61383333Y-65016666D01*
X61383333Y-65116666D01*
X61416666Y-65250000D01*
X61450000Y-65316666D01*
X61516666Y-65383333D01*
X61616666Y-65416666D01*
X61683333Y-65416666D01*
X61783333Y-65383333D01*
X61816666Y-65350000D01*
X61816666Y-65116666D01*
X61683333Y-65116666D01*
D10*
X62447619Y-84657142D02*
X62400000Y-84752380D01*
X62304761Y-84847619D01*
X62161904Y-84990476D01*
X62114285Y-85085714D01*
X62114285Y-85180952D01*
X62352380Y-85133333D02*
X62304761Y-85228571D01*
X62209523Y-85323809D01*
X62019047Y-85371428D01*
X61685714Y-85371428D01*
X61495238Y-85323809D01*
X61400000Y-85228571D01*
X61352380Y-85133333D01*
X61352380Y-84942857D01*
X61400000Y-84847619D01*
X61495238Y-84752380D01*
X61685714Y-84704761D01*
X62019047Y-84704761D01*
X62209523Y-84752380D01*
X62304761Y-84847619D01*
X62352380Y-84942857D01*
X62352380Y-85133333D01*
X62352380Y-84276190D02*
X61352380Y-84276190D01*
X61352380Y-83609523D02*
X61352380Y-83419047D01*
X61400000Y-83323809D01*
X61495238Y-83228571D01*
X61685714Y-83180952D01*
X62019047Y-83180952D01*
X62209523Y-83228571D01*
X62304761Y-83323809D01*
X62352380Y-83419047D01*
X62352380Y-83609523D01*
X62304761Y-83704761D01*
X62209523Y-83800000D01*
X62019047Y-83847619D01*
X61685714Y-83847619D01*
X61495238Y-83800000D01*
X61400000Y-83704761D01*
X61352380Y-83609523D01*
X61352380Y-82847619D02*
X61352380Y-82228571D01*
X61733333Y-82561904D01*
X61733333Y-82419047D01*
X61780952Y-82323809D01*
X61828571Y-82276190D01*
X61923809Y-82228571D01*
X62161904Y-82228571D01*
X62257142Y-82276190D01*
X62304761Y-82323809D01*
X62352380Y-82419047D01*
X62352380Y-82704761D01*
X62304761Y-82800000D01*
X62257142Y-82847619D01*
D11*
X121550000Y-105702000D02*
X122283333Y-105702000D01*
X122183333Y-106528571D02*
X122116666Y-106500000D01*
X122050000Y-106442857D01*
X121950000Y-106357142D01*
X121883333Y-106328571D01*
X121816666Y-106328571D01*
X121850000Y-106471428D02*
X121783333Y-106442857D01*
X121716666Y-106385714D01*
X121683333Y-106271428D01*
X121683333Y-106071428D01*
X121716666Y-105957142D01*
X121783333Y-105900000D01*
X121850000Y-105871428D01*
X121983333Y-105871428D01*
X122050000Y-105900000D01*
X122116666Y-105957142D01*
X122150000Y-106071428D01*
X122150000Y-106271428D01*
X122116666Y-106385714D01*
X122050000Y-106442857D01*
X121983333Y-106471428D01*
X121850000Y-106471428D01*
X122283333Y-105702000D02*
X122983333Y-105702000D01*
X122850000Y-106414285D02*
X122816666Y-106442857D01*
X122716666Y-106471428D01*
X122650000Y-106471428D01*
X122550000Y-106442857D01*
X122483333Y-106385714D01*
X122450000Y-106328571D01*
X122416666Y-106214285D01*
X122416666Y-106128571D01*
X122450000Y-106014285D01*
X122483333Y-105957142D01*
X122550000Y-105900000D01*
X122650000Y-105871428D01*
X122716666Y-105871428D01*
X122816666Y-105900000D01*
X122850000Y-105928571D01*
X122983333Y-105702000D02*
X123650000Y-105702000D01*
X123116666Y-106442857D02*
X123216666Y-106471428D01*
X123383333Y-106471428D01*
X123450000Y-106442857D01*
X123483333Y-106414285D01*
X123516666Y-106357142D01*
X123516666Y-106300000D01*
X123483333Y-106242857D01*
X123450000Y-106214285D01*
X123383333Y-106185714D01*
X123250000Y-106157142D01*
X123183333Y-106128571D01*
X123150000Y-106100000D01*
X123116666Y-106042857D01*
X123116666Y-105985714D01*
X123150000Y-105928571D01*
X123183333Y-105900000D01*
X123250000Y-105871428D01*
X123416666Y-105871428D01*
X123516666Y-105900000D01*
X68333333Y-90319000D02*
X69133333Y-90319000D01*
X68500000Y-91216666D02*
X68500000Y-90516666D01*
X68733333Y-91016666D01*
X68966666Y-90516666D01*
X68966666Y-91216666D01*
X69133333Y-90319000D02*
X69833333Y-90319000D01*
X69700000Y-91150000D02*
X69666666Y-91183333D01*
X69566666Y-91216666D01*
X69500000Y-91216666D01*
X69400000Y-91183333D01*
X69333333Y-91116666D01*
X69300000Y-91050000D01*
X69266666Y-90916666D01*
X69266666Y-90816666D01*
X69300000Y-90683333D01*
X69333333Y-90616666D01*
X69400000Y-90550000D01*
X69500000Y-90516666D01*
X69566666Y-90516666D01*
X69666666Y-90550000D01*
X69700000Y-90583333D01*
X69833333Y-90319000D02*
X70566666Y-90319000D01*
X70000000Y-90516666D02*
X70000000Y-91083333D01*
X70033333Y-91150000D01*
X70066666Y-91183333D01*
X70133333Y-91216666D01*
X70266666Y-91216666D01*
X70333333Y-91183333D01*
X70366666Y-91150000D01*
X70400000Y-91083333D01*
X70400000Y-90516666D01*
X70566666Y-90319000D02*
X71100000Y-90319000D01*
X70566666Y-91283333D02*
X71100000Y-91283333D01*
X71100000Y-90319000D02*
X71800000Y-90319000D01*
X71666666Y-91216666D02*
X71433333Y-90883333D01*
X71266666Y-91216666D02*
X71266666Y-90516666D01*
X71533333Y-90516666D01*
X71600000Y-90550000D01*
X71633333Y-90583333D01*
X71666666Y-90650000D01*
X71666666Y-90750000D01*
X71633333Y-90816666D01*
X71600000Y-90850000D01*
X71533333Y-90883333D01*
X71266666Y-90883333D01*
X71800000Y-90319000D02*
X72433333Y-90319000D01*
X71966666Y-90850000D02*
X72200000Y-90850000D01*
X72300000Y-91216666D02*
X71966666Y-91216666D01*
X71966666Y-90516666D01*
X72300000Y-90516666D01*
X72433333Y-90319000D02*
X73100000Y-90319000D01*
X72566666Y-91183333D02*
X72666666Y-91216666D01*
X72833333Y-91216666D01*
X72900000Y-91183333D01*
X72933333Y-91150000D01*
X72966666Y-91083333D01*
X72966666Y-91016666D01*
X72933333Y-90950000D01*
X72900000Y-90916666D01*
X72833333Y-90883333D01*
X72700000Y-90850000D01*
X72633333Y-90816666D01*
X72600000Y-90783333D01*
X72566666Y-90716666D01*
X72566666Y-90650000D01*
X72600000Y-90583333D01*
X72633333Y-90550000D01*
X72700000Y-90516666D01*
X72866666Y-90516666D01*
X72966666Y-90550000D01*
X73100000Y-90319000D02*
X73733333Y-90319000D01*
X73266666Y-90850000D02*
X73500000Y-90850000D01*
X73600000Y-91216666D02*
X73266666Y-91216666D01*
X73266666Y-90516666D01*
X73600000Y-90516666D01*
X73733333Y-90319000D02*
X74266666Y-90319000D01*
X73800000Y-90516666D02*
X74200000Y-90516666D01*
X74000000Y-91216666D02*
X74000000Y-90516666D01*
X63950000Y-55233333D02*
X63950000Y-54700000D01*
X64216666Y-54000000D02*
X64216666Y-54400000D01*
X64216666Y-54200000D02*
X63516666Y-54200000D01*
X63616666Y-54266666D01*
X63683333Y-54333333D01*
X63716666Y-54400000D01*
X63516666Y-53366666D02*
X63516666Y-53700000D01*
X63850000Y-53733333D01*
X63816666Y-53700000D01*
X63783333Y-53633333D01*
X63783333Y-53466666D01*
X63816666Y-53400000D01*
X63850000Y-53366666D01*
X63916666Y-53333333D01*
X64083333Y-53333333D01*
X64150000Y-53366666D01*
X64183333Y-53400000D01*
X64216666Y-53466666D01*
X64216666Y-53633333D01*
X64183333Y-53700000D01*
X64150000Y-53733333D01*
X63516666Y-53133333D02*
X64216666Y-52900000D01*
X63516666Y-52666666D01*
X68500000Y-144483333D02*
X68433333Y-144450000D01*
X68366666Y-144383333D01*
X68266666Y-144283333D01*
X68200000Y-144250000D01*
X68133333Y-144250000D01*
X68166666Y-144416666D02*
X68100000Y-144383333D01*
X68033333Y-144316666D01*
X68000000Y-144183333D01*
X68000000Y-143950000D01*
X68033333Y-143816666D01*
X68100000Y-143750000D01*
X68166666Y-143716666D01*
X68300000Y-143716666D01*
X68366666Y-143750000D01*
X68433333Y-143816666D01*
X68466666Y-143950000D01*
X68466666Y-144183333D01*
X68433333Y-144316666D01*
X68366666Y-144383333D01*
X68300000Y-144416666D01*
X68166666Y-144416666D01*
X68766666Y-144416666D02*
X68766666Y-143716666D01*
X69233333Y-143716666D02*
X69366666Y-143716666D01*
X69433333Y-143750000D01*
X69500000Y-143816666D01*
X69533333Y-143950000D01*
X69533333Y-144183333D01*
X69500000Y-144316666D01*
X69433333Y-144383333D01*
X69366666Y-144416666D01*
X69233333Y-144416666D01*
X69166666Y-144383333D01*
X69100000Y-144316666D01*
X69066666Y-144183333D01*
X69066666Y-143950000D01*
X69100000Y-143816666D01*
X69166666Y-143750000D01*
X69233333Y-143716666D01*
X69966666Y-143716666D02*
X70033333Y-143716666D01*
X70100000Y-143750000D01*
X70133333Y-143783333D01*
X70166666Y-143850000D01*
X70200000Y-143983333D01*
X70200000Y-144150000D01*
X70166666Y-144283333D01*
X70133333Y-144350000D01*
X70100000Y-144383333D01*
X70033333Y-144416666D01*
X69966666Y-144416666D01*
X69900000Y-144383333D01*
X69866666Y-144350000D01*
X69833333Y-144283333D01*
X69800000Y-144150000D01*
X69800000Y-143983333D01*
X69833333Y-143850000D01*
X69866666Y-143783333D01*
X69900000Y-143750000D01*
X69966666Y-143716666D01*
X113268333Y-130519000D02*
X114068333Y-130519000D01*
X113368333Y-130716666D02*
X113535000Y-131416666D01*
X113668333Y-130916666D01*
X113801666Y-131416666D01*
X113968333Y-130716666D01*
X114068333Y-130519000D02*
X114768333Y-130519000D01*
X114235000Y-131416666D02*
X114235000Y-130716666D01*
X114501666Y-130716666D01*
X114568333Y-130750000D01*
X114601666Y-130783333D01*
X114635000Y-130850000D01*
X114635000Y-130950000D01*
X114601666Y-131016666D01*
X114568333Y-131050000D01*
X114501666Y-131083333D01*
X114235000Y-131083333D01*
X115435000Y-130683333D02*
X114835000Y-131583333D01*
X115668333Y-131416666D02*
X115668333Y-130716666D01*
X116135000Y-130716666D02*
X116268333Y-130716666D01*
X116335000Y-130750000D01*
X116401666Y-130816666D01*
X116435000Y-130950000D01*
X116435000Y-131183333D01*
X116401666Y-131316666D01*
X116335000Y-131383333D01*
X116268333Y-131416666D01*
X116135000Y-131416666D01*
X116068333Y-131383333D01*
X116001666Y-131316666D01*
X115968333Y-131183333D01*
X115968333Y-130950000D01*
X116001666Y-130816666D01*
X116068333Y-130750000D01*
X116135000Y-130716666D01*
X116701666Y-130783333D02*
X116735000Y-130750000D01*
X116801666Y-130716666D01*
X116968333Y-130716666D01*
X117035000Y-130750000D01*
X117068333Y-130783333D01*
X117101666Y-130850000D01*
X117101666Y-130916666D01*
X117068333Y-131016666D01*
X116668333Y-131416666D01*
X117101666Y-131416666D01*
X68366666Y-93016666D02*
X68600000Y-93716666D01*
X68833333Y-93016666D01*
X69466666Y-93650000D02*
X69433333Y-93683333D01*
X69333333Y-93716666D01*
X69266666Y-93716666D01*
X69166666Y-93683333D01*
X69100000Y-93616666D01*
X69066666Y-93550000D01*
X69033333Y-93416666D01*
X69033333Y-93316666D01*
X69066666Y-93183333D01*
X69100000Y-93116666D01*
X69166666Y-93050000D01*
X69266666Y-93016666D01*
X69333333Y-93016666D01*
X69433333Y-93050000D01*
X69466666Y-93083333D01*
X70166666Y-93650000D02*
X70133333Y-93683333D01*
X70033333Y-93716666D01*
X69966666Y-93716666D01*
X69866666Y-93683333D01*
X69800000Y-93616666D01*
X69766666Y-93550000D01*
X69733333Y-93416666D01*
X69733333Y-93316666D01*
X69766666Y-93183333D01*
X69800000Y-93116666D01*
X69866666Y-93050000D01*
X69966666Y-93016666D01*
X70033333Y-93016666D01*
X70133333Y-93050000D01*
X70166666Y-93083333D01*
X114898333Y-58216666D02*
X115231666Y-58216666D01*
X114831666Y-58416666D02*
X115065000Y-57716666D01*
X115298333Y-58416666D01*
X115531666Y-58416666D02*
X115531666Y-57716666D01*
X115931666Y-58416666D01*
X115931666Y-57716666D01*
X116231666Y-58216666D02*
X116565000Y-58216666D01*
X116165000Y-58416666D02*
X116398333Y-57716666D01*
X116631666Y-58416666D01*
X116698333Y-58483333D02*
X117231666Y-58483333D01*
X117331666Y-57716666D02*
X117498333Y-58416666D01*
X117631666Y-57916666D01*
X117765000Y-58416666D01*
X117931666Y-57716666D01*
X118198333Y-58416666D02*
X118198333Y-57716666D01*
X118465000Y-57716666D01*
X118531666Y-57750000D01*
X118565000Y-57783333D01*
X118598333Y-57850000D01*
X118598333Y-57950000D01*
X118565000Y-58016666D01*
X118531666Y-58050000D01*
X118465000Y-58083333D01*
X118198333Y-58083333D01*
X113801666Y-126316666D02*
X113801666Y-125616666D01*
X113968333Y-125616666D01*
X114068333Y-125650000D01*
X114135000Y-125716666D01*
X114168333Y-125783333D01*
X114201666Y-125916666D01*
X114201666Y-126016666D01*
X114168333Y-126150000D01*
X114135000Y-126216666D01*
X114068333Y-126283333D01*
X113968333Y-126316666D01*
X113801666Y-126316666D01*
X114501666Y-126316666D02*
X114501666Y-125616666D01*
X115335000Y-125583333D02*
X114735000Y-126483333D01*
X115568333Y-126316666D02*
X115568333Y-125616666D01*
X116035000Y-125616666D02*
X116168333Y-125616666D01*
X116235000Y-125650000D01*
X116301666Y-125716666D01*
X116335000Y-125850000D01*
X116335000Y-126083333D01*
X116301666Y-126216666D01*
X116235000Y-126283333D01*
X116168333Y-126316666D01*
X116035000Y-126316666D01*
X115968333Y-126283333D01*
X115901666Y-126216666D01*
X115868333Y-126083333D01*
X115868333Y-125850000D01*
X115901666Y-125716666D01*
X115968333Y-125650000D01*
X116035000Y-125616666D01*
X116768333Y-125616666D02*
X116835000Y-125616666D01*
X116901666Y-125650000D01*
X116935000Y-125683333D01*
X116968333Y-125750000D01*
X117001666Y-125883333D01*
X117001666Y-126050000D01*
X116968333Y-126183333D01*
X116935000Y-126250000D01*
X116901666Y-126283333D01*
X116835000Y-126316666D01*
X116768333Y-126316666D01*
X116701666Y-126283333D01*
X116668333Y-126250000D01*
X116635000Y-126183333D01*
X116601666Y-126050000D01*
X116601666Y-125883333D01*
X116635000Y-125750000D01*
X116668333Y-125683333D01*
X116701666Y-125650000D01*
X116768333Y-125616666D01*
X61783333Y-59750000D02*
X61716666Y-59716666D01*
X61616666Y-59716666D01*
X61516666Y-59750000D01*
X61450000Y-59816666D01*
X61416666Y-59883333D01*
X61383333Y-60016666D01*
X61383333Y-60116666D01*
X61416666Y-60250000D01*
X61450000Y-60316666D01*
X61516666Y-60383333D01*
X61616666Y-60416666D01*
X61683333Y-60416666D01*
X61783333Y-60383333D01*
X61816666Y-60350000D01*
X61816666Y-60116666D01*
X61683333Y-60116666D01*
X114898333Y-62016666D02*
X115231666Y-62016666D01*
X114831666Y-62216666D02*
X115065000Y-61516666D01*
X115298333Y-62216666D01*
X115531666Y-62216666D02*
X115531666Y-61516666D01*
X115931666Y-62216666D01*
X115931666Y-61516666D01*
X116231666Y-62016666D02*
X116565000Y-62016666D01*
X116165000Y-62216666D02*
X116398333Y-61516666D01*
X116631666Y-62216666D01*
X116698333Y-62283333D02*
X117231666Y-62283333D01*
X117298333Y-61516666D02*
X117531666Y-62216666D01*
X117765000Y-61516666D01*
X117931666Y-61516666D02*
X118098333Y-62216666D01*
X118231666Y-61716666D01*
X118365000Y-62216666D01*
X118531666Y-61516666D01*
X119131666Y-62216666D02*
X118798333Y-62216666D01*
X118798333Y-61516666D01*
X119198333Y-62283333D02*
X119731666Y-62283333D01*
X119865000Y-62183333D02*
X119965000Y-62216666D01*
X120131666Y-62216666D01*
X120198333Y-62183333D01*
X120231666Y-62150000D01*
X120265000Y-62083333D01*
X120265000Y-62016666D01*
X120231666Y-61950000D01*
X120198333Y-61916666D01*
X120131666Y-61883333D01*
X119998333Y-61850000D01*
X119931666Y-61816666D01*
X119898333Y-61783333D01*
X119865000Y-61716666D01*
X119865000Y-61650000D01*
X119898333Y-61583333D01*
X119931666Y-61550000D01*
X119998333Y-61516666D01*
X120165000Y-61516666D01*
X120265000Y-61550000D01*
X120565000Y-61850000D02*
X120798333Y-61850000D01*
X120898333Y-62216666D02*
X120565000Y-62216666D01*
X120565000Y-61516666D01*
X120898333Y-61516666D01*
X121198333Y-62216666D02*
X121198333Y-61516666D01*
X121598333Y-62216666D01*
X121598333Y-61516666D01*
X121898333Y-62183333D02*
X121998333Y-62216666D01*
X122165000Y-62216666D01*
X122231666Y-62183333D01*
X122265000Y-62150000D01*
X122298333Y-62083333D01*
X122298333Y-62016666D01*
X122265000Y-61950000D01*
X122231666Y-61916666D01*
X122165000Y-61883333D01*
X122031666Y-61850000D01*
X121965000Y-61816666D01*
X121931666Y-61783333D01*
X121898333Y-61716666D01*
X121898333Y-61650000D01*
X121931666Y-61583333D01*
X121965000Y-61550000D01*
X122031666Y-61516666D01*
X122198333Y-61516666D01*
X122298333Y-61550000D01*
X122598333Y-61850000D02*
X122831666Y-61850000D01*
X122931666Y-62216666D02*
X122598333Y-62216666D01*
X122598333Y-61516666D01*
X122931666Y-61516666D01*
D10*
%TO.C,TP5*%
X96572380Y-151021904D02*
X96572380Y-150450476D01*
X97572380Y-150736190D02*
X96572380Y-150736190D01*
X97572380Y-150117142D02*
X96572380Y-150117142D01*
X96572380Y-149736190D01*
X96620000Y-149640952D01*
X96667619Y-149593333D01*
X96762857Y-149545714D01*
X96905714Y-149545714D01*
X97000952Y-149593333D01*
X97048571Y-149640952D01*
X97096190Y-149736190D01*
X97096190Y-150117142D01*
X96572380Y-148640952D02*
X96572380Y-149117142D01*
X97048571Y-149164761D01*
X97000952Y-149117142D01*
X96953333Y-149021904D01*
X96953333Y-148783809D01*
X97000952Y-148688571D01*
X97048571Y-148640952D01*
X97143809Y-148593333D01*
X97381904Y-148593333D01*
X97477142Y-148640952D01*
X97524761Y-148688571D01*
X97572380Y-148783809D01*
X97572380Y-149021904D01*
X97524761Y-149117142D01*
X97477142Y-149164761D01*
X96572380Y-142936190D02*
X96572380Y-142317142D01*
X96953333Y-142650476D01*
X96953333Y-142507619D01*
X97000952Y-142412380D01*
X97048571Y-142364761D01*
X97143809Y-142317142D01*
X97381904Y-142317142D01*
X97477142Y-142364761D01*
X97524761Y-142412380D01*
X97572380Y-142507619D01*
X97572380Y-142793333D01*
X97524761Y-142888571D01*
X97477142Y-142936190D01*
X97477142Y-141888571D02*
X97524761Y-141840952D01*
X97572380Y-141888571D01*
X97524761Y-141936190D01*
X97477142Y-141888571D01*
X97572380Y-141888571D01*
X96572380Y-141507619D02*
X96572380Y-140888571D01*
X96953333Y-141221904D01*
X96953333Y-141079047D01*
X97000952Y-140983809D01*
X97048571Y-140936190D01*
X97143809Y-140888571D01*
X97381904Y-140888571D01*
X97477142Y-140936190D01*
X97524761Y-140983809D01*
X97572380Y-141079047D01*
X97572380Y-141364761D01*
X97524761Y-141460000D01*
X97477142Y-141507619D01*
X96572380Y-140602857D02*
X97572380Y-140269523D01*
X96572380Y-139936190D01*
%TO.C,D14*%
X105235595Y-114652380D02*
X105235595Y-113652380D01*
X105473690Y-113652380D01*
X105616547Y-113700000D01*
X105711785Y-113795238D01*
X105759404Y-113890476D01*
X105807023Y-114080952D01*
X105807023Y-114223809D01*
X105759404Y-114414285D01*
X105711785Y-114509523D01*
X105616547Y-114604761D01*
X105473690Y-114652380D01*
X105235595Y-114652380D01*
X106759404Y-114652380D02*
X106187976Y-114652380D01*
X106473690Y-114652380D02*
X106473690Y-113652380D01*
X106378452Y-113795238D01*
X106283214Y-113890476D01*
X106187976Y-113938095D01*
X107616547Y-113985714D02*
X107616547Y-114652380D01*
X107378452Y-113604761D02*
X107140357Y-114319047D01*
X107759404Y-114319047D01*
%TO.C,TP6*%
X112488095Y-70072380D02*
X113059523Y-70072380D01*
X112773809Y-71072380D02*
X112773809Y-70072380D01*
X113392857Y-71072380D02*
X113392857Y-70072380D01*
X113773809Y-70072380D01*
X113869047Y-70120000D01*
X113916666Y-70167619D01*
X113964285Y-70262857D01*
X113964285Y-70405714D01*
X113916666Y-70500952D01*
X113869047Y-70548571D01*
X113773809Y-70596190D01*
X113392857Y-70596190D01*
X114821428Y-70072380D02*
X114630952Y-70072380D01*
X114535714Y-70120000D01*
X114488095Y-70167619D01*
X114392857Y-70310476D01*
X114345238Y-70500952D01*
X114345238Y-70881904D01*
X114392857Y-70977142D01*
X114440476Y-71024761D01*
X114535714Y-71072380D01*
X114726190Y-71072380D01*
X114821428Y-71024761D01*
X114869047Y-70977142D01*
X114916666Y-70881904D01*
X114916666Y-70643809D01*
X114869047Y-70548571D01*
X114821428Y-70500952D01*
X114726190Y-70453333D01*
X114535714Y-70453333D01*
X114440476Y-70500952D01*
X114392857Y-70548571D01*
X114345238Y-70643809D01*
X101746190Y-70696666D02*
X102222380Y-70696666D01*
X101650952Y-70982380D02*
X101984285Y-69982380D01*
X102317619Y-70982380D01*
X102650952Y-70982380D02*
X102650952Y-69982380D01*
X103222380Y-70982380D01*
X103222380Y-69982380D01*
X103650952Y-70696666D02*
X104127142Y-70696666D01*
X103555714Y-70982380D02*
X103889047Y-69982380D01*
X104222380Y-70982380D01*
X104317619Y-71077619D02*
X105079523Y-71077619D01*
X105889047Y-70887142D02*
X105841428Y-70934761D01*
X105698571Y-70982380D01*
X105603333Y-70982380D01*
X105460476Y-70934761D01*
X105365238Y-70839523D01*
X105317619Y-70744285D01*
X105270000Y-70553809D01*
X105270000Y-70410952D01*
X105317619Y-70220476D01*
X105365238Y-70125238D01*
X105460476Y-70030000D01*
X105603333Y-69982380D01*
X105698571Y-69982380D01*
X105841428Y-70030000D01*
X105889047Y-70077619D01*
X106317619Y-70458571D02*
X106650952Y-70458571D01*
X106793809Y-70982380D02*
X106317619Y-70982380D01*
X106317619Y-69982380D01*
X106793809Y-69982380D01*
%TO.C,D9*%
X81635595Y-114552380D02*
X81635595Y-113552380D01*
X81873690Y-113552380D01*
X82016547Y-113600000D01*
X82111785Y-113695238D01*
X82159404Y-113790476D01*
X82207023Y-113980952D01*
X82207023Y-114123809D01*
X82159404Y-114314285D01*
X82111785Y-114409523D01*
X82016547Y-114504761D01*
X81873690Y-114552380D01*
X81635595Y-114552380D01*
X82683214Y-114552380D02*
X82873690Y-114552380D01*
X82968928Y-114504761D01*
X83016547Y-114457142D01*
X83111785Y-114314285D01*
X83159404Y-114123809D01*
X83159404Y-113742857D01*
X83111785Y-113647619D01*
X83064166Y-113600000D01*
X82968928Y-113552380D01*
X82778452Y-113552380D01*
X82683214Y-113600000D01*
X82635595Y-113647619D01*
X82587976Y-113742857D01*
X82587976Y-113980952D01*
X82635595Y-114076190D01*
X82683214Y-114123809D01*
X82778452Y-114171428D01*
X82968928Y-114171428D01*
X83064166Y-114123809D01*
X83111785Y-114076190D01*
X83159404Y-113980952D01*
%TO.C,D23*%
X83785714Y-151412380D02*
X83785714Y-150412380D01*
X84023809Y-150412380D01*
X84166666Y-150460000D01*
X84261904Y-150555238D01*
X84309523Y-150650476D01*
X84357142Y-150840952D01*
X84357142Y-150983809D01*
X84309523Y-151174285D01*
X84261904Y-151269523D01*
X84166666Y-151364761D01*
X84023809Y-151412380D01*
X83785714Y-151412380D01*
X84738095Y-150507619D02*
X84785714Y-150460000D01*
X84880952Y-150412380D01*
X85119047Y-150412380D01*
X85214285Y-150460000D01*
X85261904Y-150507619D01*
X85309523Y-150602857D01*
X85309523Y-150698095D01*
X85261904Y-150840952D01*
X84690476Y-151412380D01*
X85309523Y-151412380D01*
X85642857Y-150412380D02*
X86261904Y-150412380D01*
X85928571Y-150793333D01*
X86071428Y-150793333D01*
X86166666Y-150840952D01*
X86214285Y-150888571D01*
X86261904Y-150983809D01*
X86261904Y-151221904D01*
X86214285Y-151317142D01*
X86166666Y-151364761D01*
X86071428Y-151412380D01*
X85785714Y-151412380D01*
X85690476Y-151364761D01*
X85642857Y-151317142D01*
%TO.C,J1*%
X125936666Y-54632380D02*
X125936666Y-55346666D01*
X125889047Y-55489523D01*
X125793809Y-55584761D01*
X125650952Y-55632380D01*
X125555714Y-55632380D01*
X126936666Y-55632380D02*
X126365238Y-55632380D01*
X126650952Y-55632380D02*
X126650952Y-54632380D01*
X126555714Y-54775238D01*
X126460476Y-54870476D01*
X126365238Y-54918095D01*
%TO.C,C7*%
X86147142Y-128826666D02*
X86194761Y-128874285D01*
X86242380Y-129017142D01*
X86242380Y-129112380D01*
X86194761Y-129255238D01*
X86099523Y-129350476D01*
X86004285Y-129398095D01*
X85813809Y-129445714D01*
X85670952Y-129445714D01*
X85480476Y-129398095D01*
X85385238Y-129350476D01*
X85290000Y-129255238D01*
X85242380Y-129112380D01*
X85242380Y-129017142D01*
X85290000Y-128874285D01*
X85337619Y-128826666D01*
X85242380Y-128493333D02*
X85242380Y-127826666D01*
X86242380Y-128255238D01*
%TO.C,C6*%
X80393333Y-133217142D02*
X80345714Y-133264761D01*
X80202857Y-133312380D01*
X80107619Y-133312380D01*
X79964761Y-133264761D01*
X79869523Y-133169523D01*
X79821904Y-133074285D01*
X79774285Y-132883809D01*
X79774285Y-132740952D01*
X79821904Y-132550476D01*
X79869523Y-132455238D01*
X79964761Y-132360000D01*
X80107619Y-132312380D01*
X80202857Y-132312380D01*
X80345714Y-132360000D01*
X80393333Y-132407619D01*
X81250476Y-132312380D02*
X81060000Y-132312380D01*
X80964761Y-132360000D01*
X80917142Y-132407619D01*
X80821904Y-132550476D01*
X80774285Y-132740952D01*
X80774285Y-133121904D01*
X80821904Y-133217142D01*
X80869523Y-133264761D01*
X80964761Y-133312380D01*
X81155238Y-133312380D01*
X81250476Y-133264761D01*
X81298095Y-133217142D01*
X81345714Y-133121904D01*
X81345714Y-132883809D01*
X81298095Y-132788571D01*
X81250476Y-132740952D01*
X81155238Y-132693333D01*
X80964761Y-132693333D01*
X80869523Y-132740952D01*
X80821904Y-132788571D01*
X80774285Y-132883809D01*
%TO.C,FID1*%
X63628571Y-45228571D02*
X63295238Y-45228571D01*
X63295238Y-45752380D02*
X63295238Y-44752380D01*
X63771428Y-44752380D01*
X64152380Y-45752380D02*
X64152380Y-44752380D01*
X64628571Y-45752380D02*
X64628571Y-44752380D01*
X64866666Y-44752380D01*
X65009523Y-44800000D01*
X65104761Y-44895238D01*
X65152380Y-44990476D01*
X65200000Y-45180952D01*
X65200000Y-45323809D01*
X65152380Y-45514285D01*
X65104761Y-45609523D01*
X65009523Y-45704761D01*
X64866666Y-45752380D01*
X64628571Y-45752380D01*
X66152380Y-45752380D02*
X65580952Y-45752380D01*
X65866666Y-45752380D02*
X65866666Y-44752380D01*
X65771428Y-44895238D01*
X65676190Y-44990476D01*
X65580952Y-45038095D01*
%TO.C,D7*%
X75235595Y-114552380D02*
X75235595Y-113552380D01*
X75473690Y-113552380D01*
X75616547Y-113600000D01*
X75711785Y-113695238D01*
X75759404Y-113790476D01*
X75807023Y-113980952D01*
X75807023Y-114123809D01*
X75759404Y-114314285D01*
X75711785Y-114409523D01*
X75616547Y-114504761D01*
X75473690Y-114552380D01*
X75235595Y-114552380D01*
X76140357Y-113552380D02*
X76807023Y-113552380D01*
X76378452Y-114552380D01*
%TO.C,D13*%
X102035595Y-114652380D02*
X102035595Y-113652380D01*
X102273690Y-113652380D01*
X102416547Y-113700000D01*
X102511785Y-113795238D01*
X102559404Y-113890476D01*
X102607023Y-114080952D01*
X102607023Y-114223809D01*
X102559404Y-114414285D01*
X102511785Y-114509523D01*
X102416547Y-114604761D01*
X102273690Y-114652380D01*
X102035595Y-114652380D01*
X103559404Y-114652380D02*
X102987976Y-114652380D01*
X103273690Y-114652380D02*
X103273690Y-113652380D01*
X103178452Y-113795238D01*
X103083214Y-113890476D01*
X102987976Y-113938095D01*
X103892738Y-113652380D02*
X104511785Y-113652380D01*
X104178452Y-114033333D01*
X104321309Y-114033333D01*
X104416547Y-114080952D01*
X104464166Y-114128571D01*
X104511785Y-114223809D01*
X104511785Y-114461904D01*
X104464166Y-114557142D01*
X104416547Y-114604761D01*
X104321309Y-114652380D01*
X104035595Y-114652380D01*
X103940357Y-114604761D01*
X103892738Y-114557142D01*
D11*
%TO.C,C18*%
X90068631Y-129006755D02*
X90115772Y-129006755D01*
X90210053Y-129053895D01*
X90257193Y-129101036D01*
X90304334Y-129195317D01*
X90304334Y-129289598D01*
X90280763Y-129360308D01*
X90210053Y-129478159D01*
X90139342Y-129548870D01*
X90021491Y-129619581D01*
X89950780Y-129643151D01*
X89856499Y-129643151D01*
X89762218Y-129596011D01*
X89715078Y-129548870D01*
X89667937Y-129454589D01*
X89667937Y-129407449D01*
X89644367Y-128488210D02*
X89927210Y-128771053D01*
X89785789Y-128629631D02*
X89290814Y-129124606D01*
X89408665Y-129101036D01*
X89502946Y-129101036D01*
X89573657Y-129124606D01*
X89078682Y-128488210D02*
X89102252Y-128558921D01*
X89102252Y-128606061D01*
X89078682Y-128676772D01*
X89055112Y-128700342D01*
X88984401Y-128723912D01*
X88937260Y-128723912D01*
X88866550Y-128700342D01*
X88772269Y-128606061D01*
X88748699Y-128535350D01*
X88748699Y-128488210D01*
X88772269Y-128417499D01*
X88795839Y-128393929D01*
X88866550Y-128370359D01*
X88913690Y-128370359D01*
X88984401Y-128393929D01*
X89078682Y-128488210D01*
X89149392Y-128511780D01*
X89196533Y-128511780D01*
X89267244Y-128488210D01*
X89361524Y-128393929D01*
X89385095Y-128323218D01*
X89385095Y-128276078D01*
X89361524Y-128205367D01*
X89267244Y-128111086D01*
X89196533Y-128087516D01*
X89149392Y-128087516D01*
X89078682Y-128111086D01*
X88984401Y-128205367D01*
X88960831Y-128276078D01*
X88960831Y-128323218D01*
X88984401Y-128393929D01*
D10*
%TO.C,D21*%
X83785714Y-136112380D02*
X83785714Y-135112380D01*
X84023809Y-135112380D01*
X84166666Y-135160000D01*
X84261904Y-135255238D01*
X84309523Y-135350476D01*
X84357142Y-135540952D01*
X84357142Y-135683809D01*
X84309523Y-135874285D01*
X84261904Y-135969523D01*
X84166666Y-136064761D01*
X84023809Y-136112380D01*
X83785714Y-136112380D01*
X84738095Y-135207619D02*
X84785714Y-135160000D01*
X84880952Y-135112380D01*
X85119047Y-135112380D01*
X85214285Y-135160000D01*
X85261904Y-135207619D01*
X85309523Y-135302857D01*
X85309523Y-135398095D01*
X85261904Y-135540952D01*
X84690476Y-136112380D01*
X85309523Y-136112380D01*
X86261904Y-136112380D02*
X85690476Y-136112380D01*
X85976190Y-136112380D02*
X85976190Y-135112380D01*
X85880952Y-135255238D01*
X85785714Y-135350476D01*
X85690476Y-135398095D01*
%TO.C,R10*%
X96669135Y-136219412D02*
X96096716Y-136118397D01*
X96265074Y-136623473D02*
X95557968Y-135916366D01*
X95827342Y-135646992D01*
X95928357Y-135613320D01*
X95995700Y-135613320D01*
X96096716Y-135646992D01*
X96197731Y-135748007D01*
X96231403Y-135849023D01*
X96231403Y-135916366D01*
X96197731Y-136017381D01*
X95928357Y-136286755D01*
X97342571Y-135545977D02*
X96938510Y-135950038D01*
X97140540Y-135748007D02*
X96433433Y-135040900D01*
X96467105Y-135209259D01*
X96467105Y-135343946D01*
X96433433Y-135444962D01*
X97073197Y-134401137D02*
X97140540Y-134333794D01*
X97241555Y-134300122D01*
X97308899Y-134300122D01*
X97409914Y-134333794D01*
X97578273Y-134434809D01*
X97746632Y-134603168D01*
X97847647Y-134771526D01*
X97881319Y-134872542D01*
X97881319Y-134939885D01*
X97847647Y-135040900D01*
X97780303Y-135108244D01*
X97679288Y-135141916D01*
X97611945Y-135141916D01*
X97510929Y-135108244D01*
X97342571Y-135007229D01*
X97174212Y-134838870D01*
X97073197Y-134670511D01*
X97039525Y-134569496D01*
X97039525Y-134502152D01*
X97073197Y-134401137D01*
D11*
%TO.C,C23*%
X92112169Y-130824020D02*
X92159310Y-130824020D01*
X92253591Y-130871160D01*
X92300731Y-130918301D01*
X92347872Y-131012582D01*
X92347872Y-131106863D01*
X92324301Y-131177573D01*
X92253591Y-131295424D01*
X92182880Y-131366135D01*
X92065029Y-131436846D01*
X91994318Y-131460416D01*
X91900037Y-131460416D01*
X91805756Y-131413276D01*
X91758616Y-131366135D01*
X91711475Y-131271854D01*
X91711475Y-131224714D01*
X91522914Y-131036152D02*
X91475773Y-131036152D01*
X91405062Y-131012582D01*
X91287211Y-130894731D01*
X91263641Y-130824020D01*
X91263641Y-130776879D01*
X91287211Y-130706169D01*
X91334352Y-130659028D01*
X91428633Y-130611888D01*
X91994318Y-130611888D01*
X91687905Y-130305475D01*
X91027939Y-130635458D02*
X90721526Y-130329045D01*
X91075079Y-130305475D01*
X91004369Y-130234764D01*
X90980798Y-130164054D01*
X90980798Y-130116913D01*
X91004369Y-130046202D01*
X91122220Y-129928351D01*
X91192930Y-129904781D01*
X91240071Y-129904781D01*
X91310782Y-129928351D01*
X91452203Y-130069773D01*
X91475773Y-130140483D01*
X91475773Y-130187624D01*
D10*
%TO.C,D10*%
X84835595Y-114552380D02*
X84835595Y-113552380D01*
X85073690Y-113552380D01*
X85216547Y-113600000D01*
X85311785Y-113695238D01*
X85359404Y-113790476D01*
X85407023Y-113980952D01*
X85407023Y-114123809D01*
X85359404Y-114314285D01*
X85311785Y-114409523D01*
X85216547Y-114504761D01*
X85073690Y-114552380D01*
X84835595Y-114552380D01*
X86359404Y-114552380D02*
X85787976Y-114552380D01*
X86073690Y-114552380D02*
X86073690Y-113552380D01*
X85978452Y-113695238D01*
X85883214Y-113790476D01*
X85787976Y-113838095D01*
X86978452Y-113552380D02*
X87073690Y-113552380D01*
X87168928Y-113600000D01*
X87216547Y-113647619D01*
X87264166Y-113742857D01*
X87311785Y-113933333D01*
X87311785Y-114171428D01*
X87264166Y-114361904D01*
X87216547Y-114457142D01*
X87168928Y-114504761D01*
X87073690Y-114552380D01*
X86978452Y-114552380D01*
X86883214Y-114504761D01*
X86835595Y-114457142D01*
X86787976Y-114361904D01*
X86740357Y-114171428D01*
X86740357Y-113933333D01*
X86787976Y-113742857D01*
X86835595Y-113647619D01*
X86883214Y-113600000D01*
X86978452Y-113552380D01*
%TO.C,J2*%
X64896666Y-54632380D02*
X64896666Y-55346666D01*
X64849047Y-55489523D01*
X64753809Y-55584761D01*
X64610952Y-55632380D01*
X64515714Y-55632380D01*
X65325238Y-54727619D02*
X65372857Y-54680000D01*
X65468095Y-54632380D01*
X65706190Y-54632380D01*
X65801428Y-54680000D01*
X65849047Y-54727619D01*
X65896666Y-54822857D01*
X65896666Y-54918095D01*
X65849047Y-55060952D01*
X65277619Y-55632380D01*
X65896666Y-55632380D01*
%TO.C,D27*%
X105285714Y-142512380D02*
X105285714Y-141512380D01*
X105523809Y-141512380D01*
X105666666Y-141560000D01*
X105761904Y-141655238D01*
X105809523Y-141750476D01*
X105857142Y-141940952D01*
X105857142Y-142083809D01*
X105809523Y-142274285D01*
X105761904Y-142369523D01*
X105666666Y-142464761D01*
X105523809Y-142512380D01*
X105285714Y-142512380D01*
X106238095Y-141607619D02*
X106285714Y-141560000D01*
X106380952Y-141512380D01*
X106619047Y-141512380D01*
X106714285Y-141560000D01*
X106761904Y-141607619D01*
X106809523Y-141702857D01*
X106809523Y-141798095D01*
X106761904Y-141940952D01*
X106190476Y-142512380D01*
X106809523Y-142512380D01*
X107142857Y-141512380D02*
X107809523Y-141512380D01*
X107380952Y-142512380D01*
%TO.C,D6*%
X72035595Y-114552380D02*
X72035595Y-113552380D01*
X72273690Y-113552380D01*
X72416547Y-113600000D01*
X72511785Y-113695238D01*
X72559404Y-113790476D01*
X72607023Y-113980952D01*
X72607023Y-114123809D01*
X72559404Y-114314285D01*
X72511785Y-114409523D01*
X72416547Y-114504761D01*
X72273690Y-114552380D01*
X72035595Y-114552380D01*
X73464166Y-113552380D02*
X73273690Y-113552380D01*
X73178452Y-113600000D01*
X73130833Y-113647619D01*
X73035595Y-113790476D01*
X72987976Y-113980952D01*
X72987976Y-114361904D01*
X73035595Y-114457142D01*
X73083214Y-114504761D01*
X73178452Y-114552380D01*
X73368928Y-114552380D01*
X73464166Y-114504761D01*
X73511785Y-114457142D01*
X73559404Y-114361904D01*
X73559404Y-114123809D01*
X73511785Y-114028571D01*
X73464166Y-113980952D01*
X73368928Y-113933333D01*
X73178452Y-113933333D01*
X73083214Y-113980952D01*
X73035595Y-114028571D01*
X72987976Y-114123809D01*
%TO.C,TP9*%
X119398095Y-163022380D02*
X119969523Y-163022380D01*
X119683809Y-164022380D02*
X119683809Y-163022380D01*
X120302857Y-164022380D02*
X120302857Y-163022380D01*
X120683809Y-163022380D01*
X120779047Y-163070000D01*
X120826666Y-163117619D01*
X120874285Y-163212857D01*
X120874285Y-163355714D01*
X120826666Y-163450952D01*
X120779047Y-163498571D01*
X120683809Y-163546190D01*
X120302857Y-163546190D01*
X121350476Y-164022380D02*
X121540952Y-164022380D01*
X121636190Y-163974761D01*
X121683809Y-163927142D01*
X121779047Y-163784285D01*
X121826666Y-163593809D01*
X121826666Y-163212857D01*
X121779047Y-163117619D01*
X121731428Y-163070000D01*
X121636190Y-163022380D01*
X121445714Y-163022380D01*
X121350476Y-163070000D01*
X121302857Y-163117619D01*
X121255238Y-163212857D01*
X121255238Y-163450952D01*
X121302857Y-163546190D01*
X121350476Y-163593809D01*
X121445714Y-163641428D01*
X121636190Y-163641428D01*
X121731428Y-163593809D01*
X121779047Y-163546190D01*
X121826666Y-163450952D01*
X109839523Y-163967142D02*
X109791904Y-164014761D01*
X109649047Y-164062380D01*
X109553809Y-164062380D01*
X109410952Y-164014761D01*
X109315714Y-163919523D01*
X109268095Y-163824285D01*
X109220476Y-163633809D01*
X109220476Y-163490952D01*
X109268095Y-163300476D01*
X109315714Y-163205238D01*
X109410952Y-163110000D01*
X109553809Y-163062380D01*
X109649047Y-163062380D01*
X109791904Y-163110000D01*
X109839523Y-163157619D01*
X110268095Y-164062380D02*
X110268095Y-163062380D01*
X110506190Y-163062380D01*
X110649047Y-163110000D01*
X110744285Y-163205238D01*
X110791904Y-163300476D01*
X110839523Y-163490952D01*
X110839523Y-163633809D01*
X110791904Y-163824285D01*
X110744285Y-163919523D01*
X110649047Y-164014761D01*
X110506190Y-164062380D01*
X110268095Y-164062380D01*
X111458571Y-163062380D02*
X111649047Y-163062380D01*
X111744285Y-163110000D01*
X111839523Y-163205238D01*
X111887142Y-163395714D01*
X111887142Y-163729047D01*
X111839523Y-163919523D01*
X111744285Y-164014761D01*
X111649047Y-164062380D01*
X111458571Y-164062380D01*
X111363333Y-164014761D01*
X111268095Y-163919523D01*
X111220476Y-163729047D01*
X111220476Y-163395714D01*
X111268095Y-163205238D01*
X111363333Y-163110000D01*
X111458571Y-163062380D01*
X112315714Y-164062380D02*
X112315714Y-163062380D01*
X112887142Y-164062380D01*
X112887142Y-163062380D01*
X113363333Y-163538571D02*
X113696666Y-163538571D01*
X113839523Y-164062380D02*
X113363333Y-164062380D01*
X113363333Y-163062380D01*
X113839523Y-163062380D01*
%TO.C,R11*%
X78857142Y-162772380D02*
X78523809Y-162296190D01*
X78285714Y-162772380D02*
X78285714Y-161772380D01*
X78666666Y-161772380D01*
X78761904Y-161820000D01*
X78809523Y-161867619D01*
X78857142Y-161962857D01*
X78857142Y-162105714D01*
X78809523Y-162200952D01*
X78761904Y-162248571D01*
X78666666Y-162296190D01*
X78285714Y-162296190D01*
X79809523Y-162772380D02*
X79238095Y-162772380D01*
X79523809Y-162772380D02*
X79523809Y-161772380D01*
X79428571Y-161915238D01*
X79333333Y-162010476D01*
X79238095Y-162058095D01*
X80761904Y-162772380D02*
X80190476Y-162772380D01*
X80476190Y-162772380D02*
X80476190Y-161772380D01*
X80380952Y-161915238D01*
X80285714Y-162010476D01*
X80190476Y-162058095D01*
%TO.C,D19*%
X115402380Y-173264285D02*
X114402380Y-173264285D01*
X114402380Y-173026190D01*
X114450000Y-172883333D01*
X114545238Y-172788095D01*
X114640476Y-172740476D01*
X114830952Y-172692857D01*
X114973809Y-172692857D01*
X115164285Y-172740476D01*
X115259523Y-172788095D01*
X115354761Y-172883333D01*
X115402380Y-173026190D01*
X115402380Y-173264285D01*
X115402380Y-171740476D02*
X115402380Y-172311904D01*
X115402380Y-172026190D02*
X114402380Y-172026190D01*
X114545238Y-172121428D01*
X114640476Y-172216666D01*
X114688095Y-172311904D01*
X115402380Y-171264285D02*
X115402380Y-171073809D01*
X115354761Y-170978571D01*
X115307142Y-170930952D01*
X115164285Y-170835714D01*
X114973809Y-170788095D01*
X114592857Y-170788095D01*
X114497619Y-170835714D01*
X114450000Y-170883333D01*
X114402380Y-170978571D01*
X114402380Y-171169047D01*
X114450000Y-171264285D01*
X114497619Y-171311904D01*
X114592857Y-171359523D01*
X114830952Y-171359523D01*
X114926190Y-171311904D01*
X114973809Y-171264285D01*
X115021428Y-171169047D01*
X115021428Y-170978571D01*
X114973809Y-170883333D01*
X114926190Y-170835714D01*
X114830952Y-170788095D01*
%TO.C,JP1*%
X82416666Y-167097380D02*
X82416666Y-167811666D01*
X82369047Y-167954523D01*
X82273809Y-168049761D01*
X82130952Y-168097380D01*
X82035714Y-168097380D01*
X82892857Y-168097380D02*
X82892857Y-167097380D01*
X83273809Y-167097380D01*
X83369047Y-167145000D01*
X83416666Y-167192619D01*
X83464285Y-167287857D01*
X83464285Y-167430714D01*
X83416666Y-167525952D01*
X83369047Y-167573571D01*
X83273809Y-167621190D01*
X82892857Y-167621190D01*
X84416666Y-168097380D02*
X83845238Y-168097380D01*
X84130952Y-168097380D02*
X84130952Y-167097380D01*
X84035714Y-167240238D01*
X83940476Y-167335476D01*
X83845238Y-167383095D01*
%TO.C,R4*%
X116033333Y-60452380D02*
X115700000Y-59976190D01*
X115461904Y-60452380D02*
X115461904Y-59452380D01*
X115842857Y-59452380D01*
X115938095Y-59500000D01*
X115985714Y-59547619D01*
X116033333Y-59642857D01*
X116033333Y-59785714D01*
X115985714Y-59880952D01*
X115938095Y-59928571D01*
X115842857Y-59976190D01*
X115461904Y-59976190D01*
X116890476Y-59785714D02*
X116890476Y-60452380D01*
X116652380Y-59404761D02*
X116414285Y-60119047D01*
X117033333Y-60119047D01*
%TO.C,Y1*%
X94767355Y-132399016D02*
X95104073Y-132735734D01*
X94161264Y-132264329D02*
X94767355Y-132399016D01*
X94632668Y-131792925D01*
X95945866Y-131893940D02*
X95541805Y-132298001D01*
X95743836Y-132095970D02*
X95036729Y-131388864D01*
X95070401Y-131557222D01*
X95070401Y-131691909D01*
X95036729Y-131792925D01*
%TO.C,C15*%
X102951612Y-129802250D02*
X102951612Y-129869594D01*
X102884268Y-130004281D01*
X102816925Y-130071624D01*
X102682238Y-130138968D01*
X102547551Y-130138968D01*
X102446536Y-130105296D01*
X102278177Y-130004281D01*
X102177162Y-129903266D01*
X102076146Y-129734907D01*
X102042475Y-129633892D01*
X102042475Y-129499205D01*
X102109818Y-129364518D01*
X102177162Y-129297174D01*
X102311849Y-129229831D01*
X102379192Y-129229831D01*
X103692391Y-129196159D02*
X103288330Y-129600220D01*
X103490360Y-129398189D02*
X102783253Y-128691082D01*
X102816925Y-128859441D01*
X102816925Y-128994128D01*
X102783253Y-129095144D01*
X103625047Y-127849289D02*
X103288330Y-128186006D01*
X103591375Y-128556395D01*
X103591375Y-128489052D01*
X103625047Y-128388037D01*
X103793406Y-128219678D01*
X103894421Y-128186006D01*
X103961765Y-128186006D01*
X104062780Y-128219678D01*
X104231139Y-128388037D01*
X104264810Y-128489052D01*
X104264810Y-128556395D01*
X104231139Y-128657411D01*
X104062780Y-128825769D01*
X103961765Y-128859441D01*
X103894421Y-128859441D01*
%TO.C,U6*%
X78582353Y-85001638D02*
X78582353Y-85811162D01*
X78629972Y-85906400D01*
X78677591Y-85954019D01*
X78772829Y-86001638D01*
X78963305Y-86001638D01*
X79058543Y-85954019D01*
X79106162Y-85906400D01*
X79153781Y-85811162D01*
X79153781Y-85001638D01*
X80058543Y-85001638D02*
X79868067Y-85001638D01*
X79772829Y-85049258D01*
X79725210Y-85096877D01*
X79629972Y-85239734D01*
X79582353Y-85430210D01*
X79582353Y-85811162D01*
X79629972Y-85906400D01*
X79677591Y-85954019D01*
X79772829Y-86001638D01*
X79963305Y-86001638D01*
X80058543Y-85954019D01*
X80106162Y-85906400D01*
X80153781Y-85811162D01*
X80153781Y-85573067D01*
X80106162Y-85477829D01*
X80058543Y-85430210D01*
X79963305Y-85382591D01*
X79772829Y-85382591D01*
X79677591Y-85430210D01*
X79629972Y-85477829D01*
X79582353Y-85573067D01*
%TO.C,FID3*%
X125628571Y-175428571D02*
X125295238Y-175428571D01*
X125295238Y-175952380D02*
X125295238Y-174952380D01*
X125771428Y-174952380D01*
X126152380Y-175952380D02*
X126152380Y-174952380D01*
X126628571Y-175952380D02*
X126628571Y-174952380D01*
X126866666Y-174952380D01*
X127009523Y-175000000D01*
X127104761Y-175095238D01*
X127152380Y-175190476D01*
X127200000Y-175380952D01*
X127200000Y-175523809D01*
X127152380Y-175714285D01*
X127104761Y-175809523D01*
X127009523Y-175904761D01*
X126866666Y-175952380D01*
X126628571Y-175952380D01*
X127533333Y-174952380D02*
X128152380Y-174952380D01*
X127819047Y-175333333D01*
X127961904Y-175333333D01*
X128057142Y-175380952D01*
X128104761Y-175428571D01*
X128152380Y-175523809D01*
X128152380Y-175761904D01*
X128104761Y-175857142D01*
X128057142Y-175904761D01*
X127961904Y-175952380D01*
X127676190Y-175952380D01*
X127580952Y-175904761D01*
X127533333Y-175857142D01*
%TO.C,C16*%
X102717142Y-123082857D02*
X102764761Y-123130476D01*
X102812380Y-123273333D01*
X102812380Y-123368571D01*
X102764761Y-123511428D01*
X102669523Y-123606666D01*
X102574285Y-123654285D01*
X102383809Y-123701904D01*
X102240952Y-123701904D01*
X102050476Y-123654285D01*
X101955238Y-123606666D01*
X101860000Y-123511428D01*
X101812380Y-123368571D01*
X101812380Y-123273333D01*
X101860000Y-123130476D01*
X101907619Y-123082857D01*
X102812380Y-122130476D02*
X102812380Y-122701904D01*
X102812380Y-122416190D02*
X101812380Y-122416190D01*
X101955238Y-122511428D01*
X102050476Y-122606666D01*
X102098095Y-122701904D01*
X101812380Y-121273333D02*
X101812380Y-121463809D01*
X101860000Y-121559047D01*
X101907619Y-121606666D01*
X102050476Y-121701904D01*
X102240952Y-121749523D01*
X102621904Y-121749523D01*
X102717142Y-121701904D01*
X102764761Y-121654285D01*
X102812380Y-121559047D01*
X102812380Y-121368571D01*
X102764761Y-121273333D01*
X102717142Y-121225714D01*
X102621904Y-121178095D01*
X102383809Y-121178095D01*
X102288571Y-121225714D01*
X102240952Y-121273333D01*
X102193333Y-121368571D01*
X102193333Y-121559047D01*
X102240952Y-121654285D01*
X102288571Y-121701904D01*
X102383809Y-121749523D01*
%TO.C,C5*%
X110023333Y-63187142D02*
X109975714Y-63234761D01*
X109832857Y-63282380D01*
X109737619Y-63282380D01*
X109594761Y-63234761D01*
X109499523Y-63139523D01*
X109451904Y-63044285D01*
X109404285Y-62853809D01*
X109404285Y-62710952D01*
X109451904Y-62520476D01*
X109499523Y-62425238D01*
X109594761Y-62330000D01*
X109737619Y-62282380D01*
X109832857Y-62282380D01*
X109975714Y-62330000D01*
X110023333Y-62377619D01*
X110928095Y-62282380D02*
X110451904Y-62282380D01*
X110404285Y-62758571D01*
X110451904Y-62710952D01*
X110547142Y-62663333D01*
X110785238Y-62663333D01*
X110880476Y-62710952D01*
X110928095Y-62758571D01*
X110975714Y-62853809D01*
X110975714Y-63091904D01*
X110928095Y-63187142D01*
X110880476Y-63234761D01*
X110785238Y-63282380D01*
X110547142Y-63282380D01*
X110451904Y-63234761D01*
X110404285Y-63187142D01*
%TO.C,D24*%
X83785714Y-156612380D02*
X83785714Y-155612380D01*
X84023809Y-155612380D01*
X84166666Y-155660000D01*
X84261904Y-155755238D01*
X84309523Y-155850476D01*
X84357142Y-156040952D01*
X84357142Y-156183809D01*
X84309523Y-156374285D01*
X84261904Y-156469523D01*
X84166666Y-156564761D01*
X84023809Y-156612380D01*
X83785714Y-156612380D01*
X84738095Y-155707619D02*
X84785714Y-155660000D01*
X84880952Y-155612380D01*
X85119047Y-155612380D01*
X85214285Y-155660000D01*
X85261904Y-155707619D01*
X85309523Y-155802857D01*
X85309523Y-155898095D01*
X85261904Y-156040952D01*
X84690476Y-156612380D01*
X85309523Y-156612380D01*
X86166666Y-155945714D02*
X86166666Y-156612380D01*
X85928571Y-155564761D02*
X85690476Y-156279047D01*
X86309523Y-156279047D01*
%TO.C,C17*%
X78757142Y-166657142D02*
X78709523Y-166704761D01*
X78566666Y-166752380D01*
X78471428Y-166752380D01*
X78328571Y-166704761D01*
X78233333Y-166609523D01*
X78185714Y-166514285D01*
X78138095Y-166323809D01*
X78138095Y-166180952D01*
X78185714Y-165990476D01*
X78233333Y-165895238D01*
X78328571Y-165800000D01*
X78471428Y-165752380D01*
X78566666Y-165752380D01*
X78709523Y-165800000D01*
X78757142Y-165847619D01*
X79709523Y-166752380D02*
X79138095Y-166752380D01*
X79423809Y-166752380D02*
X79423809Y-165752380D01*
X79328571Y-165895238D01*
X79233333Y-165990476D01*
X79138095Y-166038095D01*
X80042857Y-165752380D02*
X80709523Y-165752380D01*
X80280952Y-166752380D01*
%TO.C,R9*%
X119052380Y-165966666D02*
X118576190Y-166300000D01*
X119052380Y-166538095D02*
X118052380Y-166538095D01*
X118052380Y-166157142D01*
X118100000Y-166061904D01*
X118147619Y-166014285D01*
X118242857Y-165966666D01*
X118385714Y-165966666D01*
X118480952Y-166014285D01*
X118528571Y-166061904D01*
X118576190Y-166157142D01*
X118576190Y-166538095D01*
X119052380Y-165490476D02*
X119052380Y-165300000D01*
X119004761Y-165204761D01*
X118957142Y-165157142D01*
X118814285Y-165061904D01*
X118623809Y-165014285D01*
X118242857Y-165014285D01*
X118147619Y-165061904D01*
X118100000Y-165109523D01*
X118052380Y-165204761D01*
X118052380Y-165395238D01*
X118100000Y-165490476D01*
X118147619Y-165538095D01*
X118242857Y-165585714D01*
X118480952Y-165585714D01*
X118576190Y-165538095D01*
X118623809Y-165490476D01*
X118671428Y-165395238D01*
X118671428Y-165204761D01*
X118623809Y-165109523D01*
X118576190Y-165061904D01*
X118480952Y-165014285D01*
%TO.C,D2*%
X72861904Y-59952380D02*
X72861904Y-58952380D01*
X73100000Y-58952380D01*
X73242857Y-59000000D01*
X73338095Y-59095238D01*
X73385714Y-59190476D01*
X73433333Y-59380952D01*
X73433333Y-59523809D01*
X73385714Y-59714285D01*
X73338095Y-59809523D01*
X73242857Y-59904761D01*
X73100000Y-59952380D01*
X72861904Y-59952380D01*
X73814285Y-59047619D02*
X73861904Y-59000000D01*
X73957142Y-58952380D01*
X74195238Y-58952380D01*
X74290476Y-59000000D01*
X74338095Y-59047619D01*
X74385714Y-59142857D01*
X74385714Y-59238095D01*
X74338095Y-59380952D01*
X73766666Y-59952380D01*
X74385714Y-59952380D01*
%TO.C,R8*%
X97762458Y-137318122D02*
X97190038Y-137217107D01*
X97358397Y-137722183D02*
X96651290Y-137015077D01*
X96920664Y-136745702D01*
X97021679Y-136712031D01*
X97089023Y-136712031D01*
X97190038Y-136745702D01*
X97291053Y-136846718D01*
X97324725Y-136947733D01*
X97324725Y-137015077D01*
X97291053Y-137116092D01*
X97021679Y-137385466D01*
X97762458Y-136510000D02*
X97661443Y-136543672D01*
X97594099Y-136543672D01*
X97493084Y-136510000D01*
X97459412Y-136476328D01*
X97425740Y-136375313D01*
X97425740Y-136307970D01*
X97459412Y-136206954D01*
X97594099Y-136072267D01*
X97695115Y-136038596D01*
X97762458Y-136038596D01*
X97863473Y-136072267D01*
X97897145Y-136105939D01*
X97930817Y-136206954D01*
X97930817Y-136274298D01*
X97897145Y-136375313D01*
X97762458Y-136510000D01*
X97728786Y-136611015D01*
X97728786Y-136678359D01*
X97762458Y-136779374D01*
X97897145Y-136914061D01*
X97998160Y-136947733D01*
X98065504Y-136947733D01*
X98166519Y-136914061D01*
X98301206Y-136779374D01*
X98334878Y-136678359D01*
X98334878Y-136611015D01*
X98301206Y-136510000D01*
X98166519Y-136375313D01*
X98065504Y-136341641D01*
X97998160Y-136341641D01*
X97897145Y-136375313D01*
D11*
%TO.C,C19*%
X90558578Y-121044975D02*
X90558578Y-121092116D01*
X90511438Y-121186397D01*
X90464297Y-121233537D01*
X90370016Y-121280678D01*
X90275735Y-121280678D01*
X90205025Y-121257107D01*
X90087174Y-121186397D01*
X90016463Y-121115686D01*
X89945752Y-120997835D01*
X89922182Y-120927124D01*
X89922182Y-120832843D01*
X89969322Y-120738562D01*
X90016463Y-120691422D01*
X90110744Y-120644281D01*
X90157884Y-120644281D01*
X91077123Y-120620711D02*
X90794280Y-120903554D01*
X90935702Y-120762133D02*
X90440727Y-120267158D01*
X90464297Y-120385009D01*
X90464297Y-120479290D01*
X90440727Y-120550001D01*
X91312825Y-120385009D02*
X91407106Y-120290728D01*
X91430677Y-120220017D01*
X91430677Y-120172877D01*
X91407106Y-120055026D01*
X91336396Y-119937175D01*
X91147834Y-119748613D01*
X91077123Y-119725043D01*
X91029983Y-119725043D01*
X90959272Y-119748613D01*
X90864991Y-119842894D01*
X90841421Y-119913604D01*
X90841421Y-119960745D01*
X90864991Y-120031456D01*
X90982842Y-120149307D01*
X91053553Y-120172877D01*
X91100693Y-120172877D01*
X91171404Y-120149307D01*
X91265685Y-120055026D01*
X91289255Y-119984315D01*
X91289255Y-119937175D01*
X91265685Y-119866464D01*
D10*
%TO.C,U3*%
X98552380Y-54011904D02*
X99361904Y-54011904D01*
X99457142Y-53964285D01*
X99504761Y-53916666D01*
X99552380Y-53821428D01*
X99552380Y-53630952D01*
X99504761Y-53535714D01*
X99457142Y-53488095D01*
X99361904Y-53440476D01*
X98552380Y-53440476D01*
X98552380Y-53059523D02*
X98552380Y-52440476D01*
X98933333Y-52773809D01*
X98933333Y-52630952D01*
X98980952Y-52535714D01*
X99028571Y-52488095D01*
X99123809Y-52440476D01*
X99361904Y-52440476D01*
X99457142Y-52488095D01*
X99504761Y-52535714D01*
X99552380Y-52630952D01*
X99552380Y-52916666D01*
X99504761Y-53011904D01*
X99457142Y-53059523D01*
%TO.C,D22*%
X83785714Y-141262380D02*
X83785714Y-140262380D01*
X84023809Y-140262380D01*
X84166666Y-140310000D01*
X84261904Y-140405238D01*
X84309523Y-140500476D01*
X84357142Y-140690952D01*
X84357142Y-140833809D01*
X84309523Y-141024285D01*
X84261904Y-141119523D01*
X84166666Y-141214761D01*
X84023809Y-141262380D01*
X83785714Y-141262380D01*
X84738095Y-140357619D02*
X84785714Y-140310000D01*
X84880952Y-140262380D01*
X85119047Y-140262380D01*
X85214285Y-140310000D01*
X85261904Y-140357619D01*
X85309523Y-140452857D01*
X85309523Y-140548095D01*
X85261904Y-140690952D01*
X84690476Y-141262380D01*
X85309523Y-141262380D01*
X85690476Y-140357619D02*
X85738095Y-140310000D01*
X85833333Y-140262380D01*
X86071428Y-140262380D01*
X86166666Y-140310000D01*
X86214285Y-140357619D01*
X86261904Y-140452857D01*
X86261904Y-140548095D01*
X86214285Y-140690952D01*
X85642857Y-141262380D01*
X86261904Y-141262380D01*
%TO.C,R7*%
X117052380Y-165966666D02*
X116576190Y-166300000D01*
X117052380Y-166538095D02*
X116052380Y-166538095D01*
X116052380Y-166157142D01*
X116100000Y-166061904D01*
X116147619Y-166014285D01*
X116242857Y-165966666D01*
X116385714Y-165966666D01*
X116480952Y-166014285D01*
X116528571Y-166061904D01*
X116576190Y-166157142D01*
X116576190Y-166538095D01*
X116052380Y-165633333D02*
X116052380Y-164966666D01*
X117052380Y-165395238D01*
%TO.C,D11*%
X88035595Y-114539880D02*
X88035595Y-113539880D01*
X88273690Y-113539880D01*
X88416547Y-113587500D01*
X88511785Y-113682738D01*
X88559404Y-113777976D01*
X88607023Y-113968452D01*
X88607023Y-114111309D01*
X88559404Y-114301785D01*
X88511785Y-114397023D01*
X88416547Y-114492261D01*
X88273690Y-114539880D01*
X88035595Y-114539880D01*
X89559404Y-114539880D02*
X88987976Y-114539880D01*
X89273690Y-114539880D02*
X89273690Y-113539880D01*
X89178452Y-113682738D01*
X89083214Y-113777976D01*
X88987976Y-113825595D01*
X90511785Y-114539880D02*
X89940357Y-114539880D01*
X90226071Y-114539880D02*
X90226071Y-113539880D01*
X90130833Y-113682738D01*
X90035595Y-113777976D01*
X89940357Y-113825595D01*
%TO.C,TP8*%
X118618095Y-111072380D02*
X119189523Y-111072380D01*
X118903809Y-112072380D02*
X118903809Y-111072380D01*
X119522857Y-112072380D02*
X119522857Y-111072380D01*
X119903809Y-111072380D01*
X119999047Y-111120000D01*
X120046666Y-111167619D01*
X120094285Y-111262857D01*
X120094285Y-111405714D01*
X120046666Y-111500952D01*
X119999047Y-111548571D01*
X119903809Y-111596190D01*
X119522857Y-111596190D01*
X120665714Y-111500952D02*
X120570476Y-111453333D01*
X120522857Y-111405714D01*
X120475238Y-111310476D01*
X120475238Y-111262857D01*
X120522857Y-111167619D01*
X120570476Y-111120000D01*
X120665714Y-111072380D01*
X120856190Y-111072380D01*
X120951428Y-111120000D01*
X120999047Y-111167619D01*
X121046666Y-111262857D01*
X121046666Y-111310476D01*
X120999047Y-111405714D01*
X120951428Y-111453333D01*
X120856190Y-111500952D01*
X120665714Y-111500952D01*
X120570476Y-111548571D01*
X120522857Y-111596190D01*
X120475238Y-111691428D01*
X120475238Y-111881904D01*
X120522857Y-111977142D01*
X120570476Y-112024761D01*
X120665714Y-112072380D01*
X120856190Y-112072380D01*
X120951428Y-112024761D01*
X120999047Y-111977142D01*
X121046666Y-111881904D01*
X121046666Y-111691428D01*
X120999047Y-111596190D01*
X120951428Y-111548571D01*
X120856190Y-111500952D01*
X119747619Y-103970000D02*
X120747619Y-103970000D01*
X120557142Y-105157142D02*
X120509523Y-105204761D01*
X120366666Y-105252380D01*
X120271428Y-105252380D01*
X120128571Y-105204761D01*
X120033333Y-105109523D01*
X119985714Y-105014285D01*
X119938095Y-104823809D01*
X119938095Y-104680952D01*
X119985714Y-104490476D01*
X120033333Y-104395238D01*
X120128571Y-104300000D01*
X120271428Y-104252380D01*
X120366666Y-104252380D01*
X120509523Y-104300000D01*
X120557142Y-104347619D01*
X120747619Y-103970000D02*
X121652380Y-103970000D01*
X120985714Y-104728571D02*
X121319047Y-104728571D01*
X121461904Y-105252380D02*
X120985714Y-105252380D01*
X120985714Y-104252380D01*
X121461904Y-104252380D01*
%TO.C,D28*%
X105285714Y-152687380D02*
X105285714Y-151687380D01*
X105523809Y-151687380D01*
X105666666Y-151735000D01*
X105761904Y-151830238D01*
X105809523Y-151925476D01*
X105857142Y-152115952D01*
X105857142Y-152258809D01*
X105809523Y-152449285D01*
X105761904Y-152544523D01*
X105666666Y-152639761D01*
X105523809Y-152687380D01*
X105285714Y-152687380D01*
X106238095Y-151782619D02*
X106285714Y-151735000D01*
X106380952Y-151687380D01*
X106619047Y-151687380D01*
X106714285Y-151735000D01*
X106761904Y-151782619D01*
X106809523Y-151877857D01*
X106809523Y-151973095D01*
X106761904Y-152115952D01*
X106190476Y-152687380D01*
X106809523Y-152687380D01*
X107380952Y-152115952D02*
X107285714Y-152068333D01*
X107238095Y-152020714D01*
X107190476Y-151925476D01*
X107190476Y-151877857D01*
X107238095Y-151782619D01*
X107285714Y-151735000D01*
X107380952Y-151687380D01*
X107571428Y-151687380D01*
X107666666Y-151735000D01*
X107714285Y-151782619D01*
X107761904Y-151877857D01*
X107761904Y-151925476D01*
X107714285Y-152020714D01*
X107666666Y-152068333D01*
X107571428Y-152115952D01*
X107380952Y-152115952D01*
X107285714Y-152163571D01*
X107238095Y-152211190D01*
X107190476Y-152306428D01*
X107190476Y-152496904D01*
X107238095Y-152592142D01*
X107285714Y-152639761D01*
X107380952Y-152687380D01*
X107571428Y-152687380D01*
X107666666Y-152639761D01*
X107714285Y-152592142D01*
X107761904Y-152496904D01*
X107761904Y-152306428D01*
X107714285Y-152211190D01*
X107666666Y-152163571D01*
X107571428Y-152115952D01*
%TO.C,J4*%
X79936666Y-134122380D02*
X79936666Y-134836666D01*
X79889047Y-134979523D01*
X79793809Y-135074761D01*
X79650952Y-135122380D01*
X79555714Y-135122380D01*
X80841428Y-134455714D02*
X80841428Y-135122380D01*
X80603333Y-134074761D02*
X80365238Y-134789047D01*
X80984285Y-134789047D01*
%TO.C,D12*%
X98835595Y-114652380D02*
X98835595Y-113652380D01*
X99073690Y-113652380D01*
X99216547Y-113700000D01*
X99311785Y-113795238D01*
X99359404Y-113890476D01*
X99407023Y-114080952D01*
X99407023Y-114223809D01*
X99359404Y-114414285D01*
X99311785Y-114509523D01*
X99216547Y-114604761D01*
X99073690Y-114652380D01*
X98835595Y-114652380D01*
X100359404Y-114652380D02*
X99787976Y-114652380D01*
X100073690Y-114652380D02*
X100073690Y-113652380D01*
X99978452Y-113795238D01*
X99883214Y-113890476D01*
X99787976Y-113938095D01*
X100740357Y-113747619D02*
X100787976Y-113700000D01*
X100883214Y-113652380D01*
X101121309Y-113652380D01*
X101216547Y-113700000D01*
X101264166Y-113747619D01*
X101311785Y-113842857D01*
X101311785Y-113938095D01*
X101264166Y-114080952D01*
X100692738Y-114652380D01*
X101311785Y-114652380D01*
%TO.C,TP4*%
X95138095Y-48912380D02*
X95709523Y-48912380D01*
X95423809Y-49912380D02*
X95423809Y-48912380D01*
X96042857Y-49912380D02*
X96042857Y-48912380D01*
X96423809Y-48912380D01*
X96519047Y-48960000D01*
X96566666Y-49007619D01*
X96614285Y-49102857D01*
X96614285Y-49245714D01*
X96566666Y-49340952D01*
X96519047Y-49388571D01*
X96423809Y-49436190D01*
X96042857Y-49436190D01*
X97471428Y-49245714D02*
X97471428Y-49912380D01*
X97233333Y-48864761D02*
X96995238Y-49579047D01*
X97614285Y-49579047D01*
X85938095Y-49531428D02*
X86700000Y-49531428D01*
X86319047Y-49912380D02*
X86319047Y-49150476D01*
X87700000Y-49912380D02*
X87128571Y-49912380D01*
X87414285Y-49912380D02*
X87414285Y-48912380D01*
X87319047Y-49055238D01*
X87223809Y-49150476D01*
X87128571Y-49198095D01*
X88604761Y-48912380D02*
X88128571Y-48912380D01*
X88080952Y-49388571D01*
X88128571Y-49340952D01*
X88223809Y-49293333D01*
X88461904Y-49293333D01*
X88557142Y-49340952D01*
X88604761Y-49388571D01*
X88652380Y-49483809D01*
X88652380Y-49721904D01*
X88604761Y-49817142D01*
X88557142Y-49864761D01*
X88461904Y-49912380D01*
X88223809Y-49912380D01*
X88128571Y-49864761D01*
X88080952Y-49817142D01*
X88938095Y-48912380D02*
X89271428Y-49912380D01*
X89604761Y-48912380D01*
%TO.C,J3*%
X118966666Y-118022380D02*
X118966666Y-118736666D01*
X118919047Y-118879523D01*
X118823809Y-118974761D01*
X118680952Y-119022380D01*
X118585714Y-119022380D01*
X119347619Y-118022380D02*
X119966666Y-118022380D01*
X119633333Y-118403333D01*
X119776190Y-118403333D01*
X119871428Y-118450952D01*
X119919047Y-118498571D01*
X119966666Y-118593809D01*
X119966666Y-118831904D01*
X119919047Y-118927142D01*
X119871428Y-118974761D01*
X119776190Y-119022380D01*
X119490476Y-119022380D01*
X119395238Y-118974761D01*
X119347619Y-118927142D01*
%TO.C,TP7*%
X94052380Y-151061904D02*
X94052380Y-150490476D01*
X95052380Y-150776190D02*
X94052380Y-150776190D01*
X95052380Y-150157142D02*
X94052380Y-150157142D01*
X94052380Y-149776190D01*
X94100000Y-149680952D01*
X94147619Y-149633333D01*
X94242857Y-149585714D01*
X94385714Y-149585714D01*
X94480952Y-149633333D01*
X94528571Y-149680952D01*
X94576190Y-149776190D01*
X94576190Y-150157142D01*
X94052380Y-149252380D02*
X94052380Y-148585714D01*
X95052380Y-149014285D01*
X95052380Y-142357142D02*
X95052380Y-142928571D01*
X95052380Y-142642857D02*
X94052380Y-142642857D01*
X94195238Y-142738095D01*
X94290476Y-142833333D01*
X94338095Y-142928571D01*
X94957142Y-141928571D02*
X95004761Y-141880952D01*
X95052380Y-141928571D01*
X95004761Y-141976190D01*
X94957142Y-141928571D01*
X95052380Y-141928571D01*
X94147619Y-141500000D02*
X94100000Y-141452380D01*
X94052380Y-141357142D01*
X94052380Y-141119047D01*
X94100000Y-141023809D01*
X94147619Y-140976190D01*
X94242857Y-140928571D01*
X94338095Y-140928571D01*
X94480952Y-140976190D01*
X95052380Y-141547619D01*
X95052380Y-140928571D01*
X94052380Y-140642857D02*
X95052380Y-140309523D01*
X94052380Y-139976190D01*
%TO.C,D20*%
X74785714Y-162352380D02*
X74785714Y-161352380D01*
X75023809Y-161352380D01*
X75166666Y-161400000D01*
X75261904Y-161495238D01*
X75309523Y-161590476D01*
X75357142Y-161780952D01*
X75357142Y-161923809D01*
X75309523Y-162114285D01*
X75261904Y-162209523D01*
X75166666Y-162304761D01*
X75023809Y-162352380D01*
X74785714Y-162352380D01*
X75738095Y-161447619D02*
X75785714Y-161400000D01*
X75880952Y-161352380D01*
X76119047Y-161352380D01*
X76214285Y-161400000D01*
X76261904Y-161447619D01*
X76309523Y-161542857D01*
X76309523Y-161638095D01*
X76261904Y-161780952D01*
X75690476Y-162352380D01*
X76309523Y-162352380D01*
X76928571Y-161352380D02*
X77023809Y-161352380D01*
X77119047Y-161400000D01*
X77166666Y-161447619D01*
X77214285Y-161542857D01*
X77261904Y-161733333D01*
X77261904Y-161971428D01*
X77214285Y-162161904D01*
X77166666Y-162257142D01*
X77119047Y-162304761D01*
X77023809Y-162352380D01*
X76928571Y-162352380D01*
X76833333Y-162304761D01*
X76785714Y-162257142D01*
X76738095Y-162161904D01*
X76690476Y-161971428D01*
X76690476Y-161733333D01*
X76738095Y-161542857D01*
X76785714Y-161447619D01*
X76833333Y-161400000D01*
X76928571Y-161352380D01*
%TO.C,TP10*%
X118861904Y-114804380D02*
X119433333Y-114804380D01*
X119147619Y-115804380D02*
X119147619Y-114804380D01*
X119766666Y-115804380D02*
X119766666Y-114804380D01*
X120147619Y-114804380D01*
X120242857Y-114852000D01*
X120290476Y-114899619D01*
X120338095Y-114994857D01*
X120338095Y-115137714D01*
X120290476Y-115232952D01*
X120242857Y-115280571D01*
X120147619Y-115328190D01*
X119766666Y-115328190D01*
X121290476Y-115804380D02*
X120719047Y-115804380D01*
X121004761Y-115804380D02*
X121004761Y-114804380D01*
X120909523Y-114947238D01*
X120814285Y-115042476D01*
X120719047Y-115090095D01*
X121909523Y-114804380D02*
X122004761Y-114804380D01*
X122100000Y-114852000D01*
X122147619Y-114899619D01*
X122195238Y-114994857D01*
X122242857Y-115185333D01*
X122242857Y-115423428D01*
X122195238Y-115613904D01*
X122147619Y-115709142D01*
X122100000Y-115756761D01*
X122004761Y-115804380D01*
X121909523Y-115804380D01*
X121814285Y-115756761D01*
X121766666Y-115709142D01*
X121719047Y-115613904D01*
X121671428Y-115423428D01*
X121671428Y-115185333D01*
X121719047Y-114994857D01*
X121766666Y-114899619D01*
X121814285Y-114852000D01*
X121909523Y-114804380D01*
%TO.C,TP2*%
X98227380Y-79111904D02*
X98227380Y-78540476D01*
X99227380Y-78826190D02*
X98227380Y-78826190D01*
X99227380Y-78207142D02*
X98227380Y-78207142D01*
X98227380Y-77826190D01*
X98275000Y-77730952D01*
X98322619Y-77683333D01*
X98417857Y-77635714D01*
X98560714Y-77635714D01*
X98655952Y-77683333D01*
X98703571Y-77730952D01*
X98751190Y-77826190D01*
X98751190Y-78207142D01*
X98322619Y-77254761D02*
X98275000Y-77207142D01*
X98227380Y-77111904D01*
X98227380Y-76873809D01*
X98275000Y-76778571D01*
X98322619Y-76730952D01*
X98417857Y-76683333D01*
X98513095Y-76683333D01*
X98655952Y-76730952D01*
X99227380Y-77302380D01*
X99227380Y-76683333D01*
X100088095Y-82527380D02*
X100326190Y-83527380D01*
X100516666Y-82813095D01*
X100707142Y-83527380D01*
X100945238Y-82527380D01*
X101326190Y-83527380D02*
X101326190Y-82527380D01*
X101707142Y-82527380D01*
X101802380Y-82575000D01*
X101850000Y-82622619D01*
X101897619Y-82717857D01*
X101897619Y-82860714D01*
X101850000Y-82955952D01*
X101802380Y-83003571D01*
X101707142Y-83051190D01*
X101326190Y-83051190D01*
X102088095Y-83622619D02*
X102850000Y-83622619D01*
X103421428Y-83003571D02*
X103564285Y-83051190D01*
X103611904Y-83098809D01*
X103659523Y-83194047D01*
X103659523Y-83336904D01*
X103611904Y-83432142D01*
X103564285Y-83479761D01*
X103469047Y-83527380D01*
X103088095Y-83527380D01*
X103088095Y-82527380D01*
X103421428Y-82527380D01*
X103516666Y-82575000D01*
X103564285Y-82622619D01*
X103611904Y-82717857D01*
X103611904Y-82813095D01*
X103564285Y-82908333D01*
X103516666Y-82955952D01*
X103421428Y-83003571D01*
X103088095Y-83003571D01*
X104088095Y-82527380D02*
X104088095Y-83336904D01*
X104135714Y-83432142D01*
X104183333Y-83479761D01*
X104278571Y-83527380D01*
X104469047Y-83527380D01*
X104564285Y-83479761D01*
X104611904Y-83432142D01*
X104659523Y-83336904D01*
X104659523Y-82527380D01*
X105469047Y-83003571D02*
X105135714Y-83003571D01*
X105135714Y-83527380D02*
X105135714Y-82527380D01*
X105611904Y-82527380D01*
%TO.C,D8*%
X78435595Y-114552380D02*
X78435595Y-113552380D01*
X78673690Y-113552380D01*
X78816547Y-113600000D01*
X78911785Y-113695238D01*
X78959404Y-113790476D01*
X79007023Y-113980952D01*
X79007023Y-114123809D01*
X78959404Y-114314285D01*
X78911785Y-114409523D01*
X78816547Y-114504761D01*
X78673690Y-114552380D01*
X78435595Y-114552380D01*
X79578452Y-113980952D02*
X79483214Y-113933333D01*
X79435595Y-113885714D01*
X79387976Y-113790476D01*
X79387976Y-113742857D01*
X79435595Y-113647619D01*
X79483214Y-113600000D01*
X79578452Y-113552380D01*
X79768928Y-113552380D01*
X79864166Y-113600000D01*
X79911785Y-113647619D01*
X79959404Y-113742857D01*
X79959404Y-113790476D01*
X79911785Y-113885714D01*
X79864166Y-113933333D01*
X79768928Y-113980952D01*
X79578452Y-113980952D01*
X79483214Y-114028571D01*
X79435595Y-114076190D01*
X79387976Y-114171428D01*
X79387976Y-114361904D01*
X79435595Y-114457142D01*
X79483214Y-114504761D01*
X79578452Y-114552380D01*
X79768928Y-114552380D01*
X79864166Y-114504761D01*
X79911785Y-114457142D01*
X79959404Y-114361904D01*
X79959404Y-114171428D01*
X79911785Y-114076190D01*
X79864166Y-114028571D01*
X79768928Y-113980952D01*
%TO.C,TP1*%
X94602380Y-79061904D02*
X94602380Y-78490476D01*
X95602380Y-78776190D02*
X94602380Y-78776190D01*
X95602380Y-78157142D02*
X94602380Y-78157142D01*
X94602380Y-77776190D01*
X94650000Y-77680952D01*
X94697619Y-77633333D01*
X94792857Y-77585714D01*
X94935714Y-77585714D01*
X95030952Y-77633333D01*
X95078571Y-77680952D01*
X95126190Y-77776190D01*
X95126190Y-78157142D01*
X95602380Y-76633333D02*
X95602380Y-77204761D01*
X95602380Y-76919047D02*
X94602380Y-76919047D01*
X94745238Y-77014285D01*
X94840476Y-77109523D01*
X94888095Y-77204761D01*
X87582142Y-82602380D02*
X87915476Y-83602380D01*
X88248809Y-82602380D01*
X88486904Y-82602380D02*
X88725000Y-83602380D01*
X88915476Y-82888095D01*
X89105952Y-83602380D01*
X89344047Y-82602380D01*
X90201190Y-83602380D02*
X89725000Y-83602380D01*
X89725000Y-82602380D01*
X90296428Y-83697619D02*
X91058333Y-83697619D01*
X91629761Y-83078571D02*
X91772619Y-83126190D01*
X91820238Y-83173809D01*
X91867857Y-83269047D01*
X91867857Y-83411904D01*
X91820238Y-83507142D01*
X91772619Y-83554761D01*
X91677380Y-83602380D01*
X91296428Y-83602380D01*
X91296428Y-82602380D01*
X91629761Y-82602380D01*
X91725000Y-82650000D01*
X91772619Y-82697619D01*
X91820238Y-82792857D01*
X91820238Y-82888095D01*
X91772619Y-82983333D01*
X91725000Y-83030952D01*
X91629761Y-83078571D01*
X91296428Y-83078571D01*
X92296428Y-82602380D02*
X92296428Y-83411904D01*
X92344047Y-83507142D01*
X92391666Y-83554761D01*
X92486904Y-83602380D01*
X92677380Y-83602380D01*
X92772619Y-83554761D01*
X92820238Y-83507142D01*
X92867857Y-83411904D01*
X92867857Y-82602380D01*
X93677380Y-83078571D02*
X93344047Y-83078571D01*
X93344047Y-83602380D02*
X93344047Y-82602380D01*
X93820238Y-82602380D01*
%TO.C,D15*%
X114835595Y-114652380D02*
X114835595Y-113652380D01*
X115073690Y-113652380D01*
X115216547Y-113700000D01*
X115311785Y-113795238D01*
X115359404Y-113890476D01*
X115407023Y-114080952D01*
X115407023Y-114223809D01*
X115359404Y-114414285D01*
X115311785Y-114509523D01*
X115216547Y-114604761D01*
X115073690Y-114652380D01*
X114835595Y-114652380D01*
X116359404Y-114652380D02*
X115787976Y-114652380D01*
X116073690Y-114652380D02*
X116073690Y-113652380D01*
X115978452Y-113795238D01*
X115883214Y-113890476D01*
X115787976Y-113938095D01*
X117264166Y-113652380D02*
X116787976Y-113652380D01*
X116740357Y-114128571D01*
X116787976Y-114080952D01*
X116883214Y-114033333D01*
X117121309Y-114033333D01*
X117216547Y-114080952D01*
X117264166Y-114128571D01*
X117311785Y-114223809D01*
X117311785Y-114461904D01*
X117264166Y-114557142D01*
X117216547Y-114604761D01*
X117121309Y-114652380D01*
X116883214Y-114652380D01*
X116787976Y-114604761D01*
X116740357Y-114557142D01*
%TO.C,R3*%
X116133333Y-65352380D02*
X115800000Y-64876190D01*
X115561904Y-65352380D02*
X115561904Y-64352380D01*
X115942857Y-64352380D01*
X116038095Y-64400000D01*
X116085714Y-64447619D01*
X116133333Y-64542857D01*
X116133333Y-64685714D01*
X116085714Y-64780952D01*
X116038095Y-64828571D01*
X115942857Y-64876190D01*
X115561904Y-64876190D01*
X116466666Y-64352380D02*
X117085714Y-64352380D01*
X116752380Y-64733333D01*
X116895238Y-64733333D01*
X116990476Y-64780952D01*
X117038095Y-64828571D01*
X117085714Y-64923809D01*
X117085714Y-65161904D01*
X117038095Y-65257142D01*
X116990476Y-65304761D01*
X116895238Y-65352380D01*
X116609523Y-65352380D01*
X116514285Y-65304761D01*
X116466666Y-65257142D01*
D11*
%TO.C,C25*%
X100003481Y-121433641D02*
X100050622Y-121433641D01*
X100144903Y-121480781D01*
X100192043Y-121527922D01*
X100239184Y-121622203D01*
X100239184Y-121716484D01*
X100215613Y-121787194D01*
X100144903Y-121905045D01*
X100074192Y-121975756D01*
X99956341Y-122046467D01*
X99885630Y-122070037D01*
X99791349Y-122070037D01*
X99697068Y-122022897D01*
X99649928Y-121975756D01*
X99602787Y-121881475D01*
X99602787Y-121834335D01*
X99414226Y-121645773D02*
X99367085Y-121645773D01*
X99296374Y-121622203D01*
X99178523Y-121504352D01*
X99154953Y-121433641D01*
X99154953Y-121386500D01*
X99178523Y-121315790D01*
X99225664Y-121268649D01*
X99319945Y-121221509D01*
X99885630Y-121221509D01*
X99579217Y-120915096D01*
X98636408Y-120962236D02*
X98872110Y-121197939D01*
X99131383Y-120985807D01*
X99084242Y-120985807D01*
X99013532Y-120962236D01*
X98895681Y-120844385D01*
X98872110Y-120773675D01*
X98872110Y-120726534D01*
X98895681Y-120655823D01*
X99013532Y-120537972D01*
X99084242Y-120514402D01*
X99131383Y-120514402D01*
X99202094Y-120537972D01*
X99319945Y-120655823D01*
X99343515Y-120726534D01*
X99343515Y-120773675D01*
D10*
%TO.C,D4*%
X80361904Y-54802380D02*
X80361904Y-53802380D01*
X80600000Y-53802380D01*
X80742857Y-53850000D01*
X80838095Y-53945238D01*
X80885714Y-54040476D01*
X80933333Y-54230952D01*
X80933333Y-54373809D01*
X80885714Y-54564285D01*
X80838095Y-54659523D01*
X80742857Y-54754761D01*
X80600000Y-54802380D01*
X80361904Y-54802380D01*
X81790476Y-54135714D02*
X81790476Y-54802380D01*
X81552380Y-53754761D02*
X81314285Y-54469047D01*
X81933333Y-54469047D01*
%TO.C,X1*%
X63090476Y-71752380D02*
X63757142Y-72752380D01*
X63757142Y-71752380D02*
X63090476Y-72752380D01*
X64661904Y-72752380D02*
X64090476Y-72752380D01*
X64376190Y-72752380D02*
X64376190Y-71752380D01*
X64280952Y-71895238D01*
X64185714Y-71990476D01*
X64090476Y-72038095D01*
%TO.C,SW1*%
X69466666Y-166904761D02*
X69609523Y-166952380D01*
X69847619Y-166952380D01*
X69942857Y-166904761D01*
X69990476Y-166857142D01*
X70038095Y-166761904D01*
X70038095Y-166666666D01*
X69990476Y-166571428D01*
X69942857Y-166523809D01*
X69847619Y-166476190D01*
X69657142Y-166428571D01*
X69561904Y-166380952D01*
X69514285Y-166333333D01*
X69466666Y-166238095D01*
X69466666Y-166142857D01*
X69514285Y-166047619D01*
X69561904Y-166000000D01*
X69657142Y-165952380D01*
X69895238Y-165952380D01*
X70038095Y-166000000D01*
X70371428Y-165952380D02*
X70609523Y-166952380D01*
X70800000Y-166238095D01*
X70990476Y-166952380D01*
X71228571Y-165952380D01*
X72133333Y-166952380D02*
X71561904Y-166952380D01*
X71847619Y-166952380D02*
X71847619Y-165952380D01*
X71752380Y-166095238D01*
X71657142Y-166190476D01*
X71561904Y-166238095D01*
%TO.C,C4*%
X68763333Y-130517142D02*
X68715714Y-130564761D01*
X68572857Y-130612380D01*
X68477619Y-130612380D01*
X68334761Y-130564761D01*
X68239523Y-130469523D01*
X68191904Y-130374285D01*
X68144285Y-130183809D01*
X68144285Y-130040952D01*
X68191904Y-129850476D01*
X68239523Y-129755238D01*
X68334761Y-129660000D01*
X68477619Y-129612380D01*
X68572857Y-129612380D01*
X68715714Y-129660000D01*
X68763333Y-129707619D01*
X69620476Y-129945714D02*
X69620476Y-130612380D01*
X69382380Y-129564761D02*
X69144285Y-130279047D01*
X69763333Y-130279047D01*
%TO.C,TP3*%
X95138095Y-46312380D02*
X95709523Y-46312380D01*
X95423809Y-47312380D02*
X95423809Y-46312380D01*
X96042857Y-47312380D02*
X96042857Y-46312380D01*
X96423809Y-46312380D01*
X96519047Y-46360000D01*
X96566666Y-46407619D01*
X96614285Y-46502857D01*
X96614285Y-46645714D01*
X96566666Y-46740952D01*
X96519047Y-46788571D01*
X96423809Y-46836190D01*
X96042857Y-46836190D01*
X96947619Y-46312380D02*
X97566666Y-46312380D01*
X97233333Y-46693333D01*
X97376190Y-46693333D01*
X97471428Y-46740952D01*
X97519047Y-46788571D01*
X97566666Y-46883809D01*
X97566666Y-47121904D01*
X97519047Y-47217142D01*
X97471428Y-47264761D01*
X97376190Y-47312380D01*
X97090476Y-47312380D01*
X96995238Y-47264761D01*
X96947619Y-47217142D01*
X85938095Y-46931428D02*
X86700000Y-46931428D01*
X87700000Y-47312380D02*
X87128571Y-47312380D01*
X87414285Y-47312380D02*
X87414285Y-46312380D01*
X87319047Y-46455238D01*
X87223809Y-46550476D01*
X87128571Y-46598095D01*
X88604761Y-46312380D02*
X88128571Y-46312380D01*
X88080952Y-46788571D01*
X88128571Y-46740952D01*
X88223809Y-46693333D01*
X88461904Y-46693333D01*
X88557142Y-46740952D01*
X88604761Y-46788571D01*
X88652380Y-46883809D01*
X88652380Y-47121904D01*
X88604761Y-47217142D01*
X88557142Y-47264761D01*
X88461904Y-47312380D01*
X88223809Y-47312380D01*
X88128571Y-47264761D01*
X88080952Y-47217142D01*
X88938095Y-46312380D02*
X89271428Y-47312380D01*
X89604761Y-46312380D01*
%TO.C,TP11*%
X84761904Y-115104380D02*
X85333333Y-115104380D01*
X85047619Y-116104380D02*
X85047619Y-115104380D01*
X85666666Y-116104380D02*
X85666666Y-115104380D01*
X86047619Y-115104380D01*
X86142857Y-115152000D01*
X86190476Y-115199619D01*
X86238095Y-115294857D01*
X86238095Y-115437714D01*
X86190476Y-115532952D01*
X86142857Y-115580571D01*
X86047619Y-115628190D01*
X85666666Y-115628190D01*
X87190476Y-116104380D02*
X86619047Y-116104380D01*
X86904761Y-116104380D02*
X86904761Y-115104380D01*
X86809523Y-115247238D01*
X86714285Y-115342476D01*
X86619047Y-115390095D01*
X88142857Y-116104380D02*
X87571428Y-116104380D01*
X87857142Y-116104380D02*
X87857142Y-115104380D01*
X87761904Y-115247238D01*
X87666666Y-115342476D01*
X87571428Y-115390095D01*
%TO.C,D3*%
X80361904Y-50502380D02*
X80361904Y-49502380D01*
X80600000Y-49502380D01*
X80742857Y-49550000D01*
X80838095Y-49645238D01*
X80885714Y-49740476D01*
X80933333Y-49930952D01*
X80933333Y-50073809D01*
X80885714Y-50264285D01*
X80838095Y-50359523D01*
X80742857Y-50454761D01*
X80600000Y-50502380D01*
X80361904Y-50502380D01*
X81266666Y-49502380D02*
X81885714Y-49502380D01*
X81552380Y-49883333D01*
X81695238Y-49883333D01*
X81790476Y-49930952D01*
X81838095Y-49978571D01*
X81885714Y-50073809D01*
X81885714Y-50311904D01*
X81838095Y-50407142D01*
X81790476Y-50454761D01*
X81695238Y-50502380D01*
X81409523Y-50502380D01*
X81314285Y-50454761D01*
X81266666Y-50407142D01*
D11*
%TO.C,C27*%
X95258923Y-118584141D02*
X95258923Y-118631282D01*
X95211783Y-118725563D01*
X95164642Y-118772703D01*
X95070361Y-118819844D01*
X94976080Y-118819844D01*
X94905370Y-118796273D01*
X94787519Y-118725563D01*
X94716808Y-118654852D01*
X94646097Y-118537001D01*
X94622527Y-118466290D01*
X94622527Y-118372009D01*
X94669667Y-118277728D01*
X94716808Y-118230588D01*
X94811089Y-118183447D01*
X94858229Y-118183447D01*
X95046791Y-117994886D02*
X95046791Y-117947745D01*
X95070361Y-117877034D01*
X95188212Y-117759183D01*
X95258923Y-117735613D01*
X95306064Y-117735613D01*
X95376774Y-117759183D01*
X95423915Y-117806324D01*
X95471055Y-117900605D01*
X95471055Y-118466290D01*
X95777468Y-118159877D01*
X95447485Y-117499911D02*
X95777468Y-117169928D01*
X96060311Y-117877034D01*
D10*
%TO.C,D17*%
X111635595Y-114652380D02*
X111635595Y-113652380D01*
X111873690Y-113652380D01*
X112016547Y-113700000D01*
X112111785Y-113795238D01*
X112159404Y-113890476D01*
X112207023Y-114080952D01*
X112207023Y-114223809D01*
X112159404Y-114414285D01*
X112111785Y-114509523D01*
X112016547Y-114604761D01*
X111873690Y-114652380D01*
X111635595Y-114652380D01*
X113159404Y-114652380D02*
X112587976Y-114652380D01*
X112873690Y-114652380D02*
X112873690Y-113652380D01*
X112778452Y-113795238D01*
X112683214Y-113890476D01*
X112587976Y-113938095D01*
X113492738Y-113652380D02*
X114159404Y-113652380D01*
X113730833Y-114652380D01*
%TO.C,U8*%
X103442380Y-127281904D02*
X104251904Y-127281904D01*
X104347142Y-127234285D01*
X104394761Y-127186666D01*
X104442380Y-127091428D01*
X104442380Y-126900952D01*
X104394761Y-126805714D01*
X104347142Y-126758095D01*
X104251904Y-126710476D01*
X103442380Y-126710476D01*
X103870952Y-126091428D02*
X103823333Y-126186666D01*
X103775714Y-126234285D01*
X103680476Y-126281904D01*
X103632857Y-126281904D01*
X103537619Y-126234285D01*
X103490000Y-126186666D01*
X103442380Y-126091428D01*
X103442380Y-125900952D01*
X103490000Y-125805714D01*
X103537619Y-125758095D01*
X103632857Y-125710476D01*
X103680476Y-125710476D01*
X103775714Y-125758095D01*
X103823333Y-125805714D01*
X103870952Y-125900952D01*
X103870952Y-126091428D01*
X103918571Y-126186666D01*
X103966190Y-126234285D01*
X104061428Y-126281904D01*
X104251904Y-126281904D01*
X104347142Y-126234285D01*
X104394761Y-126186666D01*
X104442380Y-126091428D01*
X104442380Y-125900952D01*
X104394761Y-125805714D01*
X104347142Y-125758095D01*
X104251904Y-125710476D01*
X104061428Y-125710476D01*
X103966190Y-125758095D01*
X103918571Y-125805714D01*
X103870952Y-125900952D01*
%TO.C,D16*%
X108435595Y-114652380D02*
X108435595Y-113652380D01*
X108673690Y-113652380D01*
X108816547Y-113700000D01*
X108911785Y-113795238D01*
X108959404Y-113890476D01*
X109007023Y-114080952D01*
X109007023Y-114223809D01*
X108959404Y-114414285D01*
X108911785Y-114509523D01*
X108816547Y-114604761D01*
X108673690Y-114652380D01*
X108435595Y-114652380D01*
X109959404Y-114652380D02*
X109387976Y-114652380D01*
X109673690Y-114652380D02*
X109673690Y-113652380D01*
X109578452Y-113795238D01*
X109483214Y-113890476D01*
X109387976Y-113938095D01*
X110816547Y-113652380D02*
X110626071Y-113652380D01*
X110530833Y-113700000D01*
X110483214Y-113747619D01*
X110387976Y-113890476D01*
X110340357Y-114080952D01*
X110340357Y-114461904D01*
X110387976Y-114557142D01*
X110435595Y-114604761D01*
X110530833Y-114652380D01*
X110721309Y-114652380D01*
X110816547Y-114604761D01*
X110864166Y-114557142D01*
X110911785Y-114461904D01*
X110911785Y-114223809D01*
X110864166Y-114128571D01*
X110816547Y-114080952D01*
X110721309Y-114033333D01*
X110530833Y-114033333D01*
X110435595Y-114080952D01*
X110387976Y-114128571D01*
X110340357Y-114223809D01*
%TO.C,J5*%
X110891666Y-134117380D02*
X110891666Y-134831666D01*
X110844047Y-134974523D01*
X110748809Y-135069761D01*
X110605952Y-135117380D01*
X110510714Y-135117380D01*
X111844047Y-134117380D02*
X111367857Y-134117380D01*
X111320238Y-134593571D01*
X111367857Y-134545952D01*
X111463095Y-134498333D01*
X111701190Y-134498333D01*
X111796428Y-134545952D01*
X111844047Y-134593571D01*
X111891666Y-134688809D01*
X111891666Y-134926904D01*
X111844047Y-135022142D01*
X111796428Y-135069761D01*
X111701190Y-135117380D01*
X111463095Y-135117380D01*
X111367857Y-135069761D01*
X111320238Y-135022142D01*
%TO.C,FID2*%
X125728571Y-45228571D02*
X125395238Y-45228571D01*
X125395238Y-45752380D02*
X125395238Y-44752380D01*
X125871428Y-44752380D01*
X126252380Y-45752380D02*
X126252380Y-44752380D01*
X126728571Y-45752380D02*
X126728571Y-44752380D01*
X126966666Y-44752380D01*
X127109523Y-44800000D01*
X127204761Y-44895238D01*
X127252380Y-44990476D01*
X127300000Y-45180952D01*
X127300000Y-45323809D01*
X127252380Y-45514285D01*
X127204761Y-45609523D01*
X127109523Y-45704761D01*
X126966666Y-45752380D01*
X126728571Y-45752380D01*
X127680952Y-44847619D02*
X127728571Y-44800000D01*
X127823809Y-44752380D01*
X128061904Y-44752380D01*
X128157142Y-44800000D01*
X128204761Y-44847619D01*
X128252380Y-44942857D01*
X128252380Y-45038095D01*
X128204761Y-45180952D01*
X127633333Y-45752380D01*
X128252380Y-45752380D01*
%TO.C,D1*%
X72861904Y-46952380D02*
X72861904Y-45952380D01*
X73100000Y-45952380D01*
X73242857Y-46000000D01*
X73338095Y-46095238D01*
X73385714Y-46190476D01*
X73433333Y-46380952D01*
X73433333Y-46523809D01*
X73385714Y-46714285D01*
X73338095Y-46809523D01*
X73242857Y-46904761D01*
X73100000Y-46952380D01*
X72861904Y-46952380D01*
X74385714Y-46952380D02*
X73814285Y-46952380D01*
X74100000Y-46952380D02*
X74100000Y-45952380D01*
X74004761Y-46095238D01*
X73909523Y-46190476D01*
X73814285Y-46238095D01*
%TO.C,U7*%
X88032500Y-123989326D02*
X88604920Y-124561746D01*
X88705935Y-124595418D01*
X88773279Y-124595418D01*
X88874294Y-124561746D01*
X89008981Y-124427059D01*
X89042653Y-124326044D01*
X89042653Y-124258700D01*
X89008981Y-124157685D01*
X88436561Y-123585265D01*
X88705935Y-123315891D02*
X89177340Y-122844487D01*
X89581401Y-123854639D01*
%TO.C,D5*%
X78882380Y-128498095D02*
X77882380Y-128498095D01*
X77882380Y-128260000D01*
X77930000Y-128117142D01*
X78025238Y-128021904D01*
X78120476Y-127974285D01*
X78310952Y-127926666D01*
X78453809Y-127926666D01*
X78644285Y-127974285D01*
X78739523Y-128021904D01*
X78834761Y-128117142D01*
X78882380Y-128260000D01*
X78882380Y-128498095D01*
X77882380Y-127021904D02*
X77882380Y-127498095D01*
X78358571Y-127545714D01*
X78310952Y-127498095D01*
X78263333Y-127402857D01*
X78263333Y-127164761D01*
X78310952Y-127069523D01*
X78358571Y-127021904D01*
X78453809Y-126974285D01*
X78691904Y-126974285D01*
X78787142Y-127021904D01*
X78834761Y-127069523D01*
X78882380Y-127164761D01*
X78882380Y-127402857D01*
X78834761Y-127498095D01*
X78787142Y-127545714D01*
%TO.C,C1*%
X101193333Y-63087142D02*
X101145714Y-63134761D01*
X101002857Y-63182380D01*
X100907619Y-63182380D01*
X100764761Y-63134761D01*
X100669523Y-63039523D01*
X100621904Y-62944285D01*
X100574285Y-62753809D01*
X100574285Y-62610952D01*
X100621904Y-62420476D01*
X100669523Y-62325238D01*
X100764761Y-62230000D01*
X100907619Y-62182380D01*
X101002857Y-62182380D01*
X101145714Y-62230000D01*
X101193333Y-62277619D01*
X102145714Y-63182380D02*
X101574285Y-63182380D01*
X101860000Y-63182380D02*
X101860000Y-62182380D01*
X101764761Y-62325238D01*
X101669523Y-62420476D01*
X101574285Y-62468095D01*
%TO.C,U4*%
X79298095Y-125712380D02*
X79298095Y-126521904D01*
X79345714Y-126617142D01*
X79393333Y-126664761D01*
X79488571Y-126712380D01*
X79679047Y-126712380D01*
X79774285Y-126664761D01*
X79821904Y-126617142D01*
X79869523Y-126521904D01*
X79869523Y-125712380D01*
X80774285Y-126045714D02*
X80774285Y-126712380D01*
X80536190Y-125664761D02*
X80298095Y-126379047D01*
X80917142Y-126379047D01*
%TO.C,TP5*%
X98040000Y-147530000D02*
X97540000Y-148030000D01*
X97540000Y-148030000D02*
X96740000Y-148030000D01*
X96740000Y-143430000D02*
X97540000Y-143430000D01*
X98040000Y-143930000D02*
X98040000Y-147530000D01*
X96240000Y-147530000D02*
X96240000Y-143930000D01*
X96240000Y-143930000D02*
X96740000Y-143430000D01*
X96740000Y-148030000D02*
X96240000Y-147530000D01*
X97540000Y-143430000D02*
X98040000Y-143930000D01*
D12*
%TO.C,D14*%
X105250000Y-113000000D02*
X105250000Y-112000000D01*
X107950000Y-113000000D02*
X107950000Y-112500000D01*
D10*
%TO.C,TP6*%
X107890000Y-69710000D02*
X111490000Y-69710000D01*
X111490000Y-71510000D02*
X107890000Y-71510000D01*
X111490000Y-69710000D02*
X111990000Y-70210000D01*
X111990000Y-70210000D02*
X111990000Y-71010000D01*
X107390000Y-71010000D02*
X107390000Y-70210000D01*
X111990000Y-71010000D02*
X111490000Y-71510000D01*
X107390000Y-70210000D02*
X107890000Y-69710000D01*
X107890000Y-71510000D02*
X107390000Y-71010000D01*
D12*
%TO.C,D9*%
X81650000Y-112900000D02*
X81650000Y-111900000D01*
X84350000Y-112900000D02*
X84350000Y-112400000D01*
%TO.C,D23*%
X85500000Y-154850000D02*
X84500000Y-154850000D01*
X85500000Y-152150000D02*
X85000000Y-152150000D01*
%TO.C,J1*%
X128870000Y-56180000D02*
X128870000Y-66460000D01*
X123670000Y-58780000D02*
X123670000Y-66460000D01*
X123670000Y-58780000D02*
X126270000Y-58780000D01*
X126270000Y-56180000D02*
X128870000Y-56180000D01*
X123670000Y-66460000D02*
X128870000Y-66460000D01*
X126270000Y-58780000D02*
X126270000Y-56180000D01*
X123670000Y-57510000D02*
X123670000Y-56180000D01*
X123670000Y-56180000D02*
X125000000Y-56180000D01*
%TO.C,C7*%
X84870000Y-128519420D02*
X84870000Y-128800580D01*
X83850000Y-128519420D02*
X83850000Y-128800580D01*
%TO.C,C6*%
X80419420Y-131970000D02*
X80700580Y-131970000D01*
X80419420Y-130950000D02*
X80700580Y-130950000D01*
%TO.C,D7*%
X77950000Y-112900000D02*
X77950000Y-112400000D01*
X75250000Y-112900000D02*
X75250000Y-111900000D01*
%TO.C,D13*%
X102050000Y-113000000D02*
X102050000Y-112000000D01*
X104750000Y-113000000D02*
X104750000Y-112500000D01*
%TO.C,C18*%
X90572208Y-127714280D02*
X90724711Y-127866783D01*
X90063091Y-128223397D02*
X90215594Y-128375900D01*
%TO.C,D21*%
X85500000Y-139550000D02*
X84500000Y-139550000D01*
X85500000Y-136850000D02*
X85000000Y-136850000D01*
%TO.C,R10*%
X98691627Y-132839445D02*
X98356094Y-133174978D01*
X99430554Y-133578372D02*
X99095021Y-133913905D01*
%TO.C,C23*%
X91993492Y-130153799D02*
X92145995Y-130306302D01*
X92502609Y-129644682D02*
X92655112Y-129797185D01*
%TO.C,D10*%
X84850000Y-112900000D02*
X84850000Y-111900000D01*
X87550000Y-112900000D02*
X87550000Y-112400000D01*
%TO.C,J2*%
X62630000Y-58780000D02*
X65230000Y-58780000D01*
X62630000Y-57510000D02*
X62630000Y-56180000D01*
X65230000Y-58780000D02*
X65230000Y-56180000D01*
X62630000Y-66460000D02*
X67830000Y-66460000D01*
X62630000Y-56180000D02*
X63960000Y-56180000D01*
X67830000Y-56180000D02*
X67830000Y-66460000D01*
X62630000Y-58780000D02*
X62630000Y-66460000D01*
X65230000Y-56180000D02*
X67830000Y-56180000D01*
%TO.C,D27*%
X107000000Y-143250000D02*
X106500000Y-143250000D01*
X107000000Y-145950000D02*
X106000000Y-145950000D01*
%TO.C,D6*%
X72050000Y-112900000D02*
X72050000Y-111900000D01*
X74750000Y-112900000D02*
X74750000Y-112400000D01*
D10*
%TO.C,TP9*%
X118880000Y-163150000D02*
X118880000Y-163950000D01*
X118380000Y-162650000D02*
X118880000Y-163150000D01*
X114780000Y-162650000D02*
X118380000Y-162650000D01*
X114280000Y-163950000D02*
X114280000Y-163150000D01*
X118880000Y-163950000D02*
X118380000Y-164450000D01*
X114780000Y-164450000D02*
X114280000Y-163950000D01*
X118380000Y-164450000D02*
X114780000Y-164450000D01*
X114280000Y-163150000D02*
X114780000Y-162650000D01*
D12*
%TO.C,R11*%
X79262742Y-163227500D02*
X79737258Y-163227500D01*
X79262742Y-164272500D02*
X79737258Y-164272500D01*
%TO.C,D19*%
X117560000Y-173735000D02*
X117560000Y-171050000D01*
X115640000Y-171050000D02*
X115640000Y-173735000D01*
X115640000Y-173735000D02*
X117560000Y-173735000D01*
%TO.C,JP1*%
X81920000Y-168645000D02*
X83250000Y-168645000D01*
X81920000Y-171245000D02*
X81920000Y-173845000D01*
X81920000Y-169975000D02*
X81920000Y-168645000D01*
X84580000Y-171245000D02*
X84580000Y-173845000D01*
X81920000Y-171245000D02*
X84580000Y-171245000D01*
X81920000Y-173845000D02*
X84580000Y-173845000D01*
%TO.C,R4*%
X120227064Y-59265000D02*
X119772936Y-59265000D01*
X120227064Y-60735000D02*
X119772936Y-60735000D01*
%TO.C,Y1*%
X99085657Y-131826698D02*
X98519971Y-132392383D01*
X96879483Y-129620524D02*
X97445169Y-129054839D01*
X99085657Y-131826698D02*
X99651342Y-131261012D01*
X96879483Y-129620524D02*
X95606691Y-130893317D01*
%TO.C,C15*%
X100788781Y-130759970D02*
X100589970Y-130958781D01*
X101510030Y-131481219D02*
X101311219Y-131680030D01*
%TO.C,U6*%
X85694258Y-88949258D02*
X115694258Y-88949258D01*
X75694258Y-88949258D02*
X75694258Y-107749258D01*
X75694258Y-107749258D02*
X105694258Y-107749258D01*
X75694258Y-88949258D02*
X82694258Y-88949258D01*
X115694258Y-107749258D02*
X108694258Y-107749258D01*
X115694258Y-88949258D02*
X115694258Y-107749258D01*
D13*
X75943516Y-85549258D02*
G75*
G03*
X75943516Y-85549258I-299258J0D01*
G01*
D12*
%TO.C,C16*%
X104300000Y-122580580D02*
X104300000Y-122299420D01*
X103280000Y-122580580D02*
X103280000Y-122299420D01*
%TO.C,C5*%
X107790580Y-62290000D02*
X107509420Y-62290000D01*
X107790580Y-63310000D02*
X107509420Y-63310000D01*
%TO.C,D24*%
X85500000Y-160050000D02*
X84500000Y-160050000D01*
X85500000Y-157350000D02*
X85000000Y-157350000D01*
%TO.C,C17*%
X76390580Y-165740000D02*
X76109420Y-165740000D01*
X76390580Y-166760000D02*
X76109420Y-166760000D01*
%TO.C,R9*%
X118077500Y-168537258D02*
X118077500Y-168062742D01*
X119122500Y-168537258D02*
X119122500Y-168062742D01*
%TO.C,D2*%
X77000000Y-58650000D02*
X71600000Y-58650000D01*
X77000000Y-55350000D02*
X71600000Y-55350000D01*
X77000000Y-58650000D02*
X77000000Y-55350000D01*
%TO.C,R8*%
X99452110Y-134270994D02*
X99787643Y-133935461D01*
X100191037Y-135009921D02*
X100526570Y-134674388D01*
%TO.C,C19*%
X91668223Y-121637173D02*
X91820726Y-121484670D01*
X91159106Y-121128056D02*
X91311609Y-120975553D01*
%TO.C,U3*%
X100550000Y-54700000D02*
X100550000Y-56200000D01*
X109140000Y-56200000D02*
X109140000Y-57300000D01*
X110950000Y-54700000D02*
X110950000Y-56200000D01*
X110950000Y-56200000D02*
X109140000Y-56200000D01*
X102360000Y-56200000D02*
X102360000Y-61325000D01*
X100550000Y-56200000D02*
X102360000Y-56200000D01*
%TO.C,D22*%
X85500000Y-144700000D02*
X84500000Y-144700000D01*
X85500000Y-142000000D02*
X85000000Y-142000000D01*
%TO.C,R7*%
X117122500Y-168537258D02*
X117122500Y-168062742D01*
X116077500Y-168537258D02*
X116077500Y-168062742D01*
%TO.C,D11*%
X90750000Y-112887500D02*
X90750000Y-112387500D01*
X88050000Y-112887500D02*
X88050000Y-111887500D01*
D10*
%TO.C,TP8*%
X120300000Y-110610000D02*
X119500000Y-110610000D01*
X119000000Y-106510000D02*
X119500000Y-106010000D01*
X119000000Y-110110000D02*
X119000000Y-106510000D01*
X120800000Y-110110000D02*
X120300000Y-110610000D01*
X119500000Y-106010000D02*
X120300000Y-106010000D01*
X120300000Y-106010000D02*
X120800000Y-106510000D01*
X119500000Y-110610000D02*
X119000000Y-110110000D01*
X120800000Y-106510000D02*
X120800000Y-110110000D01*
D12*
%TO.C,D28*%
X107000000Y-153425000D02*
X106500000Y-153425000D01*
X107000000Y-156125000D02*
X106000000Y-156125000D01*
%TO.C,J4*%
X77670000Y-135670000D02*
X79000000Y-135670000D01*
X77670000Y-161190000D02*
X82870000Y-161190000D01*
X80270000Y-135670000D02*
X82870000Y-135670000D01*
X80270000Y-138270000D02*
X80270000Y-135670000D01*
X82870000Y-135670000D02*
X82870000Y-161190000D01*
X77670000Y-137000000D02*
X77670000Y-135670000D01*
X77670000Y-138270000D02*
X80270000Y-138270000D01*
X77670000Y-138270000D02*
X77670000Y-161190000D01*
%TO.C,D12*%
X101550000Y-113000000D02*
X101550000Y-112500000D01*
X98850000Y-113000000D02*
X98850000Y-112000000D01*
D10*
%TO.C,TP4*%
X90070000Y-49800000D02*
X90070000Y-49000000D01*
X90070000Y-49000000D02*
X90570000Y-48500000D01*
X94170000Y-48500000D02*
X94670000Y-49000000D01*
X94170000Y-50300000D02*
X90570000Y-50300000D01*
X90570000Y-50300000D02*
X90070000Y-49800000D01*
X94670000Y-49000000D02*
X94670000Y-49800000D01*
X90570000Y-48500000D02*
X94170000Y-48500000D01*
X94670000Y-49800000D02*
X94170000Y-50300000D01*
D12*
%TO.C,J3*%
X117970000Y-122170000D02*
X117970000Y-137470000D01*
X117970000Y-137470000D02*
X120630000Y-137470000D01*
X117970000Y-122170000D02*
X120630000Y-122170000D01*
X117970000Y-120900000D02*
X117970000Y-119570000D01*
X117970000Y-119570000D02*
X119300000Y-119570000D01*
X120630000Y-122170000D02*
X120630000Y-137470000D01*
D10*
%TO.C,TP7*%
X93700000Y-143930000D02*
X94200000Y-143430000D01*
X95500000Y-147530000D02*
X95000000Y-148030000D01*
X93700000Y-147530000D02*
X93700000Y-143930000D01*
X95500000Y-143930000D02*
X95500000Y-147530000D01*
X94200000Y-148030000D02*
X93700000Y-147530000D01*
X95000000Y-143430000D02*
X95500000Y-143930000D01*
X95000000Y-148030000D02*
X94200000Y-148030000D01*
X94200000Y-143430000D02*
X95000000Y-143430000D01*
D12*
%TO.C,D20*%
X74500000Y-162900000D02*
X77050000Y-162900000D01*
X74500000Y-162900000D02*
X74500000Y-164600000D01*
X74500000Y-164600000D02*
X77050000Y-164600000D01*
%TO.C,TP10*%
X121550000Y-117000000D02*
G75*
G03*
X121550000Y-117000000I-950000J0D01*
G01*
D10*
%TO.C,TP2*%
X99175000Y-84030000D02*
X98375000Y-84030000D01*
X97875000Y-79930000D02*
X98375000Y-79430000D01*
X99675000Y-79930000D02*
X99675000Y-83530000D01*
X98375000Y-79430000D02*
X99175000Y-79430000D01*
X98375000Y-84030000D02*
X97875000Y-83530000D01*
X99175000Y-79430000D02*
X99675000Y-79930000D01*
X99675000Y-83530000D02*
X99175000Y-84030000D01*
X97875000Y-83530000D02*
X97875000Y-79930000D01*
D12*
%TO.C,D8*%
X78450000Y-112900000D02*
X78450000Y-111900000D01*
X81150000Y-112900000D02*
X81150000Y-112400000D01*
D10*
%TO.C,TP1*%
X94750000Y-79430000D02*
X95550000Y-79430000D01*
X94750000Y-84030000D02*
X94250000Y-83530000D01*
X96050000Y-79930000D02*
X96050000Y-83530000D01*
X94250000Y-79930000D02*
X94750000Y-79430000D01*
X96050000Y-83530000D02*
X95550000Y-84030000D01*
X95550000Y-79430000D02*
X96050000Y-79930000D01*
X95550000Y-84030000D02*
X94750000Y-84030000D01*
X94250000Y-83530000D02*
X94250000Y-79930000D01*
D12*
%TO.C,D15*%
X117550000Y-113000000D02*
X117550000Y-112500000D01*
X114850000Y-113000000D02*
X114850000Y-112000000D01*
%TO.C,R3*%
X120227064Y-64265000D02*
X119772936Y-64265000D01*
X120227064Y-65735000D02*
X119772936Y-65735000D01*
%TO.C,C25*%
X98357453Y-122290771D02*
X98509956Y-122443274D01*
X98866570Y-121781654D02*
X99019073Y-121934157D01*
%TO.C,D4*%
X79600000Y-57050000D02*
X82150000Y-57050000D01*
X79600000Y-55350000D02*
X82150000Y-55350000D01*
X79600000Y-55350000D02*
X79600000Y-57050000D01*
%TO.C,SW1*%
X71274200Y-170111000D02*
X71274200Y-171889000D01*
X71274200Y-174225800D02*
X77725800Y-174225800D01*
X77725800Y-167774200D02*
X71274200Y-167774200D01*
D14*
X68905000Y-167000000D02*
G75*
G03*
X68905000Y-167000000I-155000J0D01*
G01*
D12*
X75998600Y-171000000D02*
G75*
G03*
X75998600Y-171000000I-1498600J0D01*
G01*
%TO.C,C4*%
X74890000Y-128655563D02*
X74890000Y-124200000D01*
X73825563Y-129720000D02*
X73190000Y-129720000D01*
X70434437Y-129720000D02*
X69370000Y-128655563D01*
X70445000Y-130585000D02*
X70445000Y-129960000D01*
X74890000Y-124200000D02*
X73190000Y-124200000D01*
X70434437Y-129720000D02*
X71070000Y-129720000D01*
X69370000Y-124200000D02*
X71070000Y-124200000D01*
X70132500Y-130272500D02*
X70757500Y-130272500D01*
X73825563Y-129720000D02*
X74890000Y-128655563D01*
X69370000Y-128655563D02*
X69370000Y-124200000D01*
D10*
%TO.C,TP3*%
X90570000Y-45960000D02*
X94170000Y-45960000D01*
X94670000Y-46460000D02*
X94670000Y-47260000D01*
X94170000Y-47760000D02*
X90570000Y-47760000D01*
X94670000Y-47260000D02*
X94170000Y-47760000D01*
X90570000Y-47760000D02*
X90070000Y-47260000D01*
X94170000Y-45960000D02*
X94670000Y-46460000D01*
X90070000Y-46460000D02*
X90570000Y-45960000D01*
X90070000Y-47260000D02*
X90070000Y-46460000D01*
D12*
%TO.C,TP11*%
X87450000Y-117300000D02*
G75*
G03*
X87450000Y-117300000I-950000J0D01*
G01*
%TO.C,D3*%
X82600000Y-49050000D02*
X80050000Y-49050000D01*
X82600000Y-47350000D02*
X80050000Y-47350000D01*
X82600000Y-49050000D02*
X82600000Y-47350000D01*
%TO.C,C27*%
X96398896Y-119240221D02*
X96551399Y-119087718D01*
X95889779Y-118731104D02*
X96042282Y-118578601D01*
%TO.C,D17*%
X114350000Y-113000000D02*
X114350000Y-112500000D01*
X111650000Y-113000000D02*
X111650000Y-112000000D01*
%TO.C,U8*%
X104855000Y-123910000D02*
X104855000Y-126635000D01*
X104855000Y-121185000D02*
X105115000Y-121185000D01*
X105115000Y-126635000D02*
X105115000Y-128310000D01*
X110305000Y-121185000D02*
X110045000Y-121185000D01*
X110305000Y-123910000D02*
X110305000Y-121185000D01*
X110305000Y-126635000D02*
X110045000Y-126635000D01*
X104855000Y-126635000D02*
X105115000Y-126635000D01*
X104855000Y-123910000D02*
X104855000Y-121185000D01*
X110305000Y-123910000D02*
X110305000Y-126635000D01*
%TO.C,D16*%
X111150000Y-113000000D02*
X111150000Y-112500000D01*
X108450000Y-113000000D02*
X108450000Y-112000000D01*
%TO.C,J5*%
X108620000Y-135670000D02*
X109950000Y-135670000D01*
X108620000Y-161190000D02*
X113820000Y-161190000D01*
X111220000Y-138270000D02*
X111220000Y-135670000D01*
X108620000Y-138270000D02*
X111220000Y-138270000D01*
X108620000Y-137000000D02*
X108620000Y-135670000D01*
X111220000Y-135670000D02*
X113820000Y-135670000D01*
X108620000Y-138270000D02*
X108620000Y-161190000D01*
X113820000Y-135670000D02*
X113820000Y-161190000D01*
%TO.C,D1*%
X70200000Y-47350000D02*
X70200000Y-50650000D01*
X70200000Y-47350000D02*
X75600000Y-47350000D01*
X70200000Y-50650000D02*
X75600000Y-50650000D01*
%TO.C,U7*%
X89541837Y-125736386D02*
X89541837Y-124675726D01*
X100325215Y-125206056D02*
X94668361Y-130862910D01*
X94668361Y-119549202D02*
X100325215Y-125206056D01*
X94668361Y-130862910D02*
X89541837Y-125736386D01*
X89541837Y-124675726D02*
X94668361Y-119549202D01*
D15*
X88013714Y-125206056D02*
G75*
G03*
X88013714Y-125206056I-274999J0D01*
G01*
D12*
%TO.C,D5*%
X75680000Y-128560000D02*
X77380000Y-128560000D01*
X77380000Y-128560000D02*
X77380000Y-126010000D01*
X75680000Y-128560000D02*
X75680000Y-126010000D01*
%TO.C,C1*%
X103938748Y-63535000D02*
X104461252Y-63535000D01*
X103938748Y-62065000D02*
X104461252Y-62065000D01*
%TO.C,U4*%
X81360000Y-130220000D02*
X82160000Y-130220000D01*
X81360000Y-127100000D02*
X82160000Y-127100000D01*
X81360000Y-127100000D02*
X79560000Y-127100000D01*
X81360000Y-130220000D02*
X80560000Y-130220000D01*
%TD*%
M02*
