%TF.GenerationSoftware,KiCad,Pcbnew,(6.0.8-1)-1*%
%TF.CreationDate,2022-10-19T15:00:50-05:00*%
%TF.ProjectId,NR1B-SQT56,4e523142-2d53-4515-9435-362e6b696361,rev?*%
%TF.SameCoordinates,Original*%
%TF.FileFunction,Soldermask,Top*%
%TF.FilePolarity,Negative*%
%FSLAX46Y46*%
G04 Gerber Fmt 4.6, Leading zero omitted, Abs format (unit mm)*
G04 Created by KiCad (PCBNEW (6.0.8-1)-1) date 2022-10-19 15:00:50*
%MOMM*%
%LPD*%
G01*
G04 APERTURE LIST*
G04 Aperture macros list*
%AMRoundRect*
0 Rectangle with rounded corners*
0 $1 Rounding radius*
0 $2 $3 $4 $5 $6 $7 $8 $9 X,Y pos of 4 corners*
0 Add a 4 corners polygon primitive as box body*
4,1,4,$2,$3,$4,$5,$6,$7,$8,$9,$2,$3,0*
0 Add four circle primitives for the rounded corners*
1,1,$1+$1,$2,$3*
1,1,$1+$1,$4,$5*
1,1,$1+$1,$6,$7*
1,1,$1+$1,$8,$9*
0 Add four rect primitives between the rounded corners*
20,1,$1+$1,$2,$3,$4,$5,0*
20,1,$1+$1,$4,$5,$6,$7,0*
20,1,$1+$1,$6,$7,$8,$9,0*
20,1,$1+$1,$8,$9,$2,$3,0*%
G04 Aperture macros list end*
%ADD10C,1.400000*%
%ADD11R,0.250000X0.625000*%
%ADD12R,0.450000X0.700000*%
%ADD13R,0.450000X0.575000*%
%ADD14R,0.625000X0.250000*%
%ADD15R,0.700000X0.450000*%
%ADD16R,0.575000X0.450000*%
%ADD17R,1.700000X1.700000*%
%ADD18O,1.700000X1.700000*%
%ADD19RoundRect,0.225000X-0.250000X0.225000X-0.250000X-0.225000X0.250000X-0.225000X0.250000X0.225000X0*%
%ADD20RoundRect,0.225000X-0.225000X-0.250000X0.225000X-0.250000X0.225000X0.250000X-0.225000X0.250000X0*%
%ADD21C,1.000000*%
%ADD22RoundRect,0.140000X-0.219203X-0.021213X-0.021213X-0.219203X0.219203X0.021213X0.021213X0.219203X0*%
%ADD23RoundRect,0.200000X-0.053033X0.335876X-0.335876X0.053033X0.053033X-0.335876X0.335876X-0.053033X0*%
%ADD24RoundRect,0.200000X-0.200000X-0.275000X0.200000X-0.275000X0.200000X0.275000X-0.200000X0.275000X0*%
%ADD25RoundRect,0.243750X0.456250X-0.243750X0.456250X0.243750X-0.456250X0.243750X-0.456250X-0.243750X0*%
%ADD26RoundRect,0.250000X0.262500X0.450000X-0.262500X0.450000X-0.262500X-0.450000X0.262500X-0.450000X0*%
%ADD27RoundRect,0.150000X-0.256326X-0.468458X0.468458X0.256326X0.256326X0.468458X-0.468458X-0.256326X0*%
%ADD28RoundRect,0.225000X-0.017678X0.335876X-0.335876X0.017678X0.017678X-0.335876X0.335876X-0.017678X0*%
%ADD29R,1.200000X1.200000*%
%ADD30C,1.200000*%
%ADD31RoundRect,0.225000X0.250000X-0.225000X0.250000X0.225000X-0.250000X0.225000X-0.250000X-0.225000X0*%
%ADD32RoundRect,0.225000X0.225000X0.250000X-0.225000X0.250000X-0.225000X-0.250000X0.225000X-0.250000X0*%
%ADD33RoundRect,0.200000X0.275000X-0.200000X0.275000X0.200000X-0.275000X0.200000X-0.275000X-0.200000X0*%
%ADD34R,2.500000X1.800000*%
%ADD35RoundRect,0.200000X0.053033X-0.335876X0.335876X-0.053033X-0.053033X0.335876X-0.335876X0.053033X0*%
%ADD36RoundRect,0.140000X0.021213X-0.219203X0.219203X-0.021213X-0.021213X0.219203X-0.219203X0.021213X0*%
%ADD37R,1.100000X4.600000*%
%ADD38R,10.800000X9.400000*%
%ADD39R,0.600000X0.450000*%
%ADD40C,1.500000*%
%ADD41C,3.000000*%
%ADD42C,1.700000*%
%ADD43R,1.397000X1.600200*%
%ADD44RoundRect,0.250000X0.550000X-1.250000X0.550000X1.250000X-0.550000X1.250000X-0.550000X-1.250000X0*%
%ADD45RoundRect,0.150000X0.150000X-0.650000X0.150000X0.650000X-0.150000X0.650000X-0.150000X-0.650000X0*%
%ADD46C,0.252500*%
%ADD47R,0.450000X0.600000*%
%ADD48RoundRect,0.250000X-0.250000X-0.475000X0.250000X-0.475000X0.250000X0.475000X-0.250000X0.475000X0*%
%ADD49RoundRect,0.150000X-0.512500X-0.150000X0.512500X-0.150000X0.512500X0.150000X-0.512500X0.150000X0*%
G04 APERTURE END LIST*
D10*
%TO.C,TP5*%
X97140000Y-144460000D03*
X97140000Y-147000000D03*
%TD*%
D11*
%TO.C,D14*%
X107600000Y-112112500D03*
X107100000Y-112112500D03*
D12*
X106600000Y-112150000D03*
D11*
X106100000Y-112112500D03*
X105600000Y-112112500D03*
X105600000Y-112887500D03*
X106100000Y-112887500D03*
D13*
X106600000Y-112912500D03*
D11*
X107100000Y-112887500D03*
X107600000Y-112887500D03*
%TD*%
D10*
%TO.C,TP6*%
X108420000Y-70610000D03*
X110960000Y-70610000D03*
%TD*%
D11*
%TO.C,D9*%
X84000000Y-112012500D03*
X83500000Y-112012500D03*
D12*
X83000000Y-112050000D03*
D11*
X82500000Y-112012500D03*
X82000000Y-112012500D03*
X82000000Y-112787500D03*
X82500000Y-112787500D03*
D13*
X83000000Y-112812500D03*
D11*
X83500000Y-112787500D03*
X84000000Y-112787500D03*
%TD*%
D14*
%TO.C,D23*%
X84612500Y-152500000D03*
X84612500Y-153000000D03*
D15*
X84650000Y-153500000D03*
D14*
X84612500Y-154000000D03*
X84612500Y-154500000D03*
X85387500Y-154500000D03*
X85387500Y-154000000D03*
D16*
X85412500Y-153500000D03*
D14*
X85387500Y-153000000D03*
X85387500Y-152500000D03*
%TD*%
D17*
%TO.C,J1*%
X125000000Y-57510000D03*
D18*
X127540000Y-57510000D03*
X125000000Y-60050000D03*
X127540000Y-60050000D03*
X125000000Y-62590000D03*
X127540000Y-62590000D03*
X125000000Y-65130000D03*
X127540000Y-65130000D03*
%TD*%
D19*
%TO.C,C7*%
X84360000Y-127885000D03*
X84360000Y-129435000D03*
%TD*%
D20*
%TO.C,C6*%
X79785000Y-131460000D03*
X81335000Y-131460000D03*
%TD*%
D21*
%TO.C,FID1*%
X62300000Y-45300000D03*
%TD*%
D11*
%TO.C,D7*%
X77600000Y-112012500D03*
X77100000Y-112012500D03*
D12*
X76600000Y-112050000D03*
D11*
X76100000Y-112012500D03*
X75600000Y-112012500D03*
X75600000Y-112787500D03*
X76100000Y-112787500D03*
D13*
X76600000Y-112812500D03*
D11*
X77100000Y-112787500D03*
X77600000Y-112787500D03*
%TD*%
%TO.C,D13*%
X104400000Y-112112500D03*
X103900000Y-112112500D03*
D12*
X103400000Y-112150000D03*
D11*
X102900000Y-112112500D03*
X102400000Y-112112500D03*
X102400000Y-112887500D03*
X102900000Y-112887500D03*
D13*
X103400000Y-112912500D03*
D11*
X103900000Y-112887500D03*
X104400000Y-112887500D03*
%TD*%
D22*
%TO.C,C18*%
X90054490Y-127705679D03*
X90733312Y-128384501D03*
%TD*%
D14*
%TO.C,D21*%
X84612500Y-137200000D03*
X84612500Y-137700000D03*
D15*
X84650000Y-138200000D03*
D14*
X84612500Y-138700000D03*
X84612500Y-139200000D03*
X85387500Y-139200000D03*
X85387500Y-138700000D03*
D16*
X85412500Y-138200000D03*
D14*
X85387500Y-137700000D03*
X85387500Y-137200000D03*
%TD*%
D23*
%TO.C,R10*%
X99476687Y-132793312D03*
X98309961Y-133960038D03*
%TD*%
D22*
%TO.C,C23*%
X91984891Y-129636081D03*
X92663713Y-130314903D03*
%TD*%
D11*
%TO.C,D10*%
X87200000Y-112012500D03*
X86700000Y-112012500D03*
D12*
X86200000Y-112050000D03*
D11*
X85700000Y-112012500D03*
X85200000Y-112012500D03*
X85200000Y-112787500D03*
X85700000Y-112787500D03*
D13*
X86200000Y-112812500D03*
D11*
X86700000Y-112787500D03*
X87200000Y-112787500D03*
%TD*%
D17*
%TO.C,J2*%
X63960000Y-57510000D03*
D18*
X66500000Y-57510000D03*
X63960000Y-60050000D03*
X66500000Y-60050000D03*
X63960000Y-62590000D03*
X66500000Y-62590000D03*
X63960000Y-65130000D03*
X66500000Y-65130000D03*
%TD*%
D14*
%TO.C,D27*%
X106112500Y-143600000D03*
X106112500Y-144100000D03*
D15*
X106150000Y-144600000D03*
D14*
X106112500Y-145100000D03*
X106112500Y-145600000D03*
X106887500Y-145600000D03*
X106887500Y-145100000D03*
D16*
X106912500Y-144600000D03*
D14*
X106887500Y-144100000D03*
X106887500Y-143600000D03*
%TD*%
D11*
%TO.C,D6*%
X74400000Y-112012500D03*
X73900000Y-112012500D03*
D12*
X73400000Y-112050000D03*
D11*
X72900000Y-112012500D03*
X72400000Y-112012500D03*
X72400000Y-112787500D03*
X72900000Y-112787500D03*
D13*
X73400000Y-112812500D03*
D11*
X73900000Y-112787500D03*
X74400000Y-112787500D03*
%TD*%
D10*
%TO.C,TP9*%
X117850000Y-163550000D03*
X115310000Y-163550000D03*
%TD*%
D24*
%TO.C,R11*%
X78675000Y-163750000D03*
X80325000Y-163750000D03*
%TD*%
D25*
%TO.C,D19*%
X116600000Y-172987500D03*
X116600000Y-171112500D03*
%TD*%
D17*
%TO.C,JP1*%
X83250000Y-169975000D03*
D18*
X83250000Y-172515000D03*
%TD*%
D26*
%TO.C,R4*%
X120912500Y-60000000D03*
X119087500Y-60000000D03*
%TD*%
D27*
%TO.C,Y1*%
X96506485Y-130856194D03*
X97178236Y-131527945D03*
X97849987Y-132199696D03*
X99458655Y-130591028D03*
X98115153Y-129247526D03*
%TD*%
D28*
%TO.C,C15*%
X101598008Y-130671992D03*
X100501992Y-131768008D03*
%TD*%
D21*
%TO.C,U6*%
X84184258Y-89374258D03*
X107184258Y-107224258D03*
D29*
X83694258Y-91549258D03*
D30*
X80394258Y-92049258D03*
X77094258Y-92549258D03*
X83694258Y-93049258D03*
X80394258Y-93549258D03*
X77094258Y-94049258D03*
X83694258Y-94549258D03*
X80394258Y-95049258D03*
X77094258Y-95549258D03*
X83694258Y-96049258D03*
X80394258Y-96549258D03*
X77094258Y-97049258D03*
X83694258Y-97549258D03*
X80394258Y-98049258D03*
X77094258Y-98549258D03*
X83694258Y-99049258D03*
X80394258Y-99549258D03*
X77094258Y-100049258D03*
X83694258Y-100549258D03*
X80394258Y-101049258D03*
X77094258Y-101549258D03*
X83694258Y-102049258D03*
X80394258Y-102549258D03*
X77094258Y-103049258D03*
X83694258Y-103549258D03*
X80394258Y-104049258D03*
X77094258Y-104549258D03*
X83694258Y-105049258D03*
X114274258Y-105049258D03*
X107674258Y-104549258D03*
X110974258Y-104049258D03*
X114274258Y-103549258D03*
X107674258Y-103049258D03*
X110974258Y-102549258D03*
X114274258Y-102049258D03*
X107674258Y-101549258D03*
X110974258Y-101049258D03*
X114274258Y-100549258D03*
X107674258Y-100049258D03*
X110974258Y-99549258D03*
X114274258Y-99049258D03*
X107674258Y-98549258D03*
X110974258Y-98049258D03*
X114274258Y-97549258D03*
X107674258Y-97049258D03*
X110974258Y-96549258D03*
X114274258Y-96049258D03*
X107674258Y-95549258D03*
X110974258Y-95049258D03*
X114274258Y-94549258D03*
X107674258Y-94049258D03*
X110974258Y-93549258D03*
X114274258Y-93049258D03*
X107674258Y-92549258D03*
X110974258Y-92049258D03*
X114274258Y-91549258D03*
%TD*%
D21*
%TO.C,FID3*%
X129200000Y-175500000D03*
%TD*%
D31*
%TO.C,C16*%
X103790000Y-123215000D03*
X103790000Y-121665000D03*
%TD*%
D32*
%TO.C,C5*%
X108425000Y-62800000D03*
X106875000Y-62800000D03*
%TD*%
D14*
%TO.C,D24*%
X84612500Y-157700000D03*
X84612500Y-158200000D03*
D15*
X84650000Y-158700000D03*
D14*
X84612500Y-159200000D03*
X84612500Y-159700000D03*
X85387500Y-159700000D03*
X85387500Y-159200000D03*
D16*
X85412500Y-158700000D03*
D14*
X85387500Y-158200000D03*
X85387500Y-157700000D03*
%TD*%
D32*
%TO.C,C17*%
X77025000Y-166250000D03*
X75475000Y-166250000D03*
%TD*%
D33*
%TO.C,R9*%
X118600000Y-169125000D03*
X118600000Y-167475000D03*
%TD*%
D34*
%TO.C,D2*%
X75600000Y-57000000D03*
X71600000Y-57000000D03*
%TD*%
D35*
%TO.C,R8*%
X99405977Y-135056054D03*
X100572703Y-133889328D03*
%TD*%
D36*
%TO.C,C19*%
X91150505Y-121645774D03*
X91829327Y-120966952D03*
%TD*%
D37*
%TO.C,U3*%
X103210000Y-59025000D03*
X105750000Y-59025000D03*
D38*
X105750000Y-49875000D03*
D37*
X108290000Y-59025000D03*
%TD*%
D14*
%TO.C,D22*%
X84612500Y-142350000D03*
X84612500Y-142850000D03*
D15*
X84650000Y-143350000D03*
D14*
X84612500Y-143850000D03*
X84612500Y-144350000D03*
X85387500Y-144350000D03*
X85387500Y-143850000D03*
D16*
X85412500Y-143350000D03*
D14*
X85387500Y-142850000D03*
X85387500Y-142350000D03*
%TD*%
D33*
%TO.C,R7*%
X116600000Y-169125000D03*
X116600000Y-167475000D03*
%TD*%
D11*
%TO.C,D11*%
X90400000Y-112000000D03*
X89900000Y-112000000D03*
D12*
X89400000Y-112037500D03*
D11*
X88900000Y-112000000D03*
X88400000Y-112000000D03*
X88400000Y-112775000D03*
X88900000Y-112775000D03*
D13*
X89400000Y-112800000D03*
D11*
X89900000Y-112775000D03*
X90400000Y-112775000D03*
%TD*%
D10*
%TO.C,TP8*%
X119900000Y-109580000D03*
X119900000Y-107040000D03*
%TD*%
D14*
%TO.C,D28*%
X106112500Y-153775000D03*
X106112500Y-154275000D03*
D15*
X106150000Y-154775000D03*
D14*
X106112500Y-155275000D03*
X106112500Y-155775000D03*
X106887500Y-155775000D03*
X106887500Y-155275000D03*
D16*
X106912500Y-154775000D03*
D14*
X106887500Y-154275000D03*
X106887500Y-153775000D03*
%TD*%
D17*
%TO.C,J4*%
X79000000Y-137000000D03*
D18*
X81540000Y-137000000D03*
X79000000Y-139540000D03*
X81540000Y-139540000D03*
X79000000Y-142080000D03*
X81540000Y-142080000D03*
X79000000Y-144620000D03*
X81540000Y-144620000D03*
X79000000Y-147160000D03*
X81540000Y-147160000D03*
X79000000Y-149700000D03*
X81540000Y-149700000D03*
X79000000Y-152240000D03*
X81540000Y-152240000D03*
X79000000Y-154780000D03*
X81540000Y-154780000D03*
X79000000Y-157320000D03*
X81540000Y-157320000D03*
X79000000Y-159860000D03*
X81540000Y-159860000D03*
%TD*%
D11*
%TO.C,D12*%
X101200000Y-112112500D03*
X100700000Y-112112500D03*
D12*
X100200000Y-112150000D03*
D11*
X99700000Y-112112500D03*
X99200000Y-112112500D03*
X99200000Y-112887500D03*
X99700000Y-112887500D03*
D13*
X100200000Y-112912500D03*
D11*
X100700000Y-112887500D03*
X101200000Y-112887500D03*
%TD*%
D10*
%TO.C,TP4*%
X91100000Y-49400000D03*
X93640000Y-49400000D03*
%TD*%
D17*
%TO.C,J3*%
X119300000Y-120900000D03*
D18*
X119300000Y-123440000D03*
X119300000Y-125980000D03*
X119300000Y-128520000D03*
X119300000Y-131060000D03*
X119300000Y-133600000D03*
X119300000Y-136140000D03*
%TD*%
D10*
%TO.C,TP7*%
X94600000Y-147000000D03*
X94600000Y-144460000D03*
%TD*%
D39*
%TO.C,D20*%
X74950000Y-163750000D03*
X77050000Y-163750000D03*
%TD*%
D40*
%TO.C,TP10*%
X120600000Y-117000000D03*
%TD*%
D10*
%TO.C,TP2*%
X98775000Y-83000000D03*
X98775000Y-80460000D03*
%TD*%
D11*
%TO.C,D8*%
X80800000Y-112012500D03*
X80300000Y-112012500D03*
D12*
X79800000Y-112050000D03*
D11*
X79300000Y-112012500D03*
X78800000Y-112012500D03*
X78800000Y-112787500D03*
X79300000Y-112787500D03*
D13*
X79800000Y-112812500D03*
D11*
X80300000Y-112787500D03*
X80800000Y-112787500D03*
%TD*%
D10*
%TO.C,TP1*%
X95150000Y-80460000D03*
X95150000Y-83000000D03*
%TD*%
D11*
%TO.C,D15*%
X117200000Y-112112500D03*
X116700000Y-112112500D03*
D12*
X116200000Y-112150000D03*
D11*
X115700000Y-112112500D03*
X115200000Y-112112500D03*
X115200000Y-112887500D03*
X115700000Y-112887500D03*
D13*
X116200000Y-112912500D03*
D11*
X116700000Y-112887500D03*
X117200000Y-112887500D03*
%TD*%
D26*
%TO.C,R3*%
X120912500Y-65000000D03*
X119087500Y-65000000D03*
%TD*%
D22*
%TO.C,C25*%
X98348852Y-121773053D03*
X99027674Y-122451875D03*
%TD*%
D39*
%TO.C,D4*%
X80050000Y-56200000D03*
X82150000Y-56200000D03*
%TD*%
D41*
%TO.C,X1*%
X119900000Y-73000000D03*
X71620000Y-71690000D03*
X118600000Y-147900000D03*
X72890000Y-147890000D03*
D42*
X64000000Y-75500000D03*
X66540000Y-75500000D03*
X64000000Y-78040000D03*
X66540000Y-78040000D03*
X64000000Y-80580000D03*
X66540000Y-80580000D03*
X64000000Y-83120000D03*
X66540000Y-83120000D03*
X64000000Y-85660000D03*
X66540000Y-85660000D03*
X64000000Y-88200000D03*
X66540000Y-88200000D03*
X64000000Y-90740000D03*
X66540000Y-90740000D03*
X64000000Y-93280000D03*
X66540000Y-93280000D03*
X64000000Y-95820000D03*
X66540000Y-95820000D03*
X64000000Y-98360000D03*
X66540000Y-98360000D03*
X64000000Y-100900000D03*
X66540000Y-100900000D03*
X64000000Y-103440000D03*
X66540000Y-103440000D03*
X64000000Y-105980000D03*
X66540000Y-105980000D03*
X64000000Y-108520000D03*
X66540000Y-108520000D03*
X64000000Y-111060000D03*
X66540000Y-111060000D03*
X64000000Y-113600000D03*
X66540000Y-113600000D03*
X64000000Y-116140000D03*
X66540000Y-116140000D03*
X64000000Y-118680000D03*
X66540000Y-118680000D03*
X64000000Y-121220000D03*
X66540000Y-121220000D03*
X64000000Y-123760000D03*
X66540000Y-123760000D03*
X64000000Y-126300000D03*
X66540000Y-126300000D03*
X64000000Y-128840000D03*
X66540000Y-128840000D03*
X64000000Y-131380000D03*
X66540000Y-131380000D03*
X64000000Y-133920000D03*
X66540000Y-133920000D03*
X64000000Y-136460000D03*
X66540000Y-136460000D03*
X64000000Y-139000000D03*
X66540000Y-139000000D03*
X64000000Y-141540000D03*
X66540000Y-141540000D03*
X64000000Y-144080000D03*
X66540000Y-144080000D03*
X64000000Y-146620000D03*
X66540000Y-146620000D03*
X64000000Y-149160000D03*
X66540000Y-149160000D03*
X64000000Y-151700000D03*
X66540000Y-151700000D03*
X64000000Y-154240000D03*
X66540000Y-154240000D03*
X64000000Y-156780000D03*
X66540000Y-156780000D03*
X64000000Y-159320000D03*
X66540000Y-159320000D03*
X64000000Y-161860000D03*
X66540000Y-161860000D03*
X64000000Y-164400000D03*
X66540000Y-164400000D03*
X124960000Y-75500000D03*
X127500000Y-75500000D03*
X124960000Y-78040000D03*
X127500000Y-78040000D03*
X124960000Y-80580000D03*
X127500000Y-80580000D03*
X124960000Y-83120000D03*
X127500000Y-83120000D03*
X124960000Y-85660000D03*
X127500000Y-85660000D03*
X124960000Y-88200000D03*
X127500000Y-88200000D03*
X124960000Y-90740000D03*
X127500000Y-90740000D03*
X124960000Y-93280000D03*
X127500000Y-93280000D03*
X124960000Y-95820000D03*
X127500000Y-95820000D03*
X124960000Y-98360000D03*
X127500000Y-98360000D03*
X124960000Y-100900000D03*
X127500000Y-100900000D03*
X124960000Y-103440000D03*
X127500000Y-103440000D03*
X124960000Y-105980000D03*
X127500000Y-105980000D03*
X124960000Y-108520000D03*
X127500000Y-108520000D03*
X124960000Y-111060000D03*
X127500000Y-111060000D03*
X124960000Y-113600000D03*
X127500000Y-113600000D03*
X124960000Y-116140000D03*
X127500000Y-116140000D03*
X124960000Y-118680000D03*
X127500000Y-118680000D03*
X124960000Y-121220000D03*
X127500000Y-121220000D03*
X124960000Y-123760000D03*
X127500000Y-123760000D03*
X124960000Y-126300000D03*
X127500000Y-126300000D03*
X124960000Y-128840000D03*
X127500000Y-128840000D03*
X124960000Y-131380000D03*
X127500000Y-131380000D03*
X124960000Y-133920000D03*
X127500000Y-133920000D03*
X124960000Y-136460000D03*
X127500000Y-136460000D03*
X124960000Y-139000000D03*
X127500000Y-139000000D03*
X124960000Y-141540000D03*
X127500000Y-141540000D03*
X124960000Y-144080000D03*
X127500000Y-144080000D03*
X124960000Y-146620000D03*
X127500000Y-146620000D03*
X124960000Y-149160000D03*
X127500000Y-149160000D03*
X124960000Y-151700000D03*
X127500000Y-151700000D03*
X124960000Y-154240000D03*
X127500000Y-154240000D03*
X124960000Y-156780000D03*
X127500000Y-156780000D03*
X124960000Y-159320000D03*
X127500000Y-159320000D03*
X124960000Y-161860000D03*
X127500000Y-161860000D03*
X124960000Y-164400000D03*
X127500000Y-164400000D03*
X64000000Y-47560000D03*
X64000000Y-50100000D03*
X127500000Y-47560000D03*
X127500000Y-50100000D03*
%TD*%
D43*
%TO.C,SW1*%
X70296300Y-168752100D03*
X70296300Y-173247900D03*
X78703700Y-168752100D03*
X78703700Y-173247900D03*
X78703700Y-171000000D03*
%TD*%
D44*
%TO.C,C4*%
X72130000Y-129160000D03*
X72130000Y-124760000D03*
%TD*%
D10*
%TO.C,TP3*%
X91100000Y-46860000D03*
X93640000Y-46860000D03*
%TD*%
D40*
%TO.C,TP11*%
X86500000Y-117300000D03*
%TD*%
D39*
%TO.C,D3*%
X82150000Y-48200000D03*
X80050000Y-48200000D03*
%TD*%
D36*
%TO.C,C27*%
X95881178Y-119248822D03*
X96560000Y-118570000D03*
%TD*%
D11*
%TO.C,D17*%
X114000000Y-112112500D03*
X113500000Y-112112500D03*
D12*
X113000000Y-112150000D03*
D11*
X112500000Y-112112500D03*
X112000000Y-112112500D03*
X112000000Y-112887500D03*
X112500000Y-112887500D03*
D13*
X113000000Y-112912500D03*
D11*
X113500000Y-112887500D03*
X114000000Y-112887500D03*
%TD*%
D45*
%TO.C,U8*%
X105675000Y-127510000D03*
X106945000Y-127510000D03*
X108215000Y-127510000D03*
X109485000Y-127510000D03*
X109485000Y-120310000D03*
X108215000Y-120310000D03*
X106945000Y-120310000D03*
X105675000Y-120310000D03*
%TD*%
D11*
%TO.C,D16*%
X110800000Y-112112500D03*
X110300000Y-112112500D03*
D12*
X109800000Y-112150000D03*
D11*
X109300000Y-112112500D03*
X108800000Y-112112500D03*
X108800000Y-112887500D03*
X109300000Y-112887500D03*
D13*
X109800000Y-112912500D03*
D11*
X110300000Y-112887500D03*
X110800000Y-112887500D03*
%TD*%
D17*
%TO.C,J5*%
X109950000Y-137000000D03*
D18*
X112490000Y-137000000D03*
X109950000Y-139540000D03*
X112490000Y-139540000D03*
X109950000Y-142080000D03*
X112490000Y-142080000D03*
X109950000Y-144620000D03*
X112490000Y-144620000D03*
X109950000Y-147160000D03*
X112490000Y-147160000D03*
X109950000Y-149700000D03*
X112490000Y-149700000D03*
X109950000Y-152240000D03*
X112490000Y-152240000D03*
X109950000Y-154780000D03*
X112490000Y-154780000D03*
X109950000Y-157320000D03*
X112490000Y-157320000D03*
X109950000Y-159860000D03*
X112490000Y-159860000D03*
%TD*%
D21*
%TO.C,FID2*%
X129200000Y-45300000D03*
%TD*%
D34*
%TO.C,D1*%
X71600000Y-49000000D03*
X75600000Y-49000000D03*
%TD*%
D46*
%TO.C,U7*%
X90072167Y-125206056D03*
X90425720Y-124852503D03*
X90779274Y-124498949D03*
X91132827Y-124145396D03*
X91486380Y-123791842D03*
X91839934Y-123438289D03*
X92193487Y-123084736D03*
X92547041Y-122731182D03*
X92900594Y-122377629D03*
X93254147Y-122024075D03*
X93607701Y-121670522D03*
X93961254Y-121316969D03*
X94314808Y-120963415D03*
X94668361Y-120609862D03*
X90425720Y-125559609D03*
X95021914Y-120963415D03*
X90779274Y-125913163D03*
X91486380Y-125206056D03*
X91839934Y-124852503D03*
X92193487Y-124498949D03*
X92547041Y-124145396D03*
X92900594Y-123791842D03*
X93254147Y-123438289D03*
X93607701Y-123084736D03*
X93961254Y-122731182D03*
X94314808Y-122377629D03*
X94668361Y-122024075D03*
X95375468Y-121316969D03*
X91132827Y-126266716D03*
X91839934Y-125559609D03*
X92193487Y-125206056D03*
X92547041Y-124852503D03*
X92900594Y-124498949D03*
X93254147Y-124145396D03*
X93607701Y-123791842D03*
X93961254Y-123438289D03*
X94314808Y-123084736D03*
X94668361Y-122731182D03*
X95021914Y-122377629D03*
X95729021Y-121670522D03*
X91486380Y-126620270D03*
X92193487Y-125913163D03*
X92547041Y-125559609D03*
X95021914Y-123084736D03*
X95375468Y-122731182D03*
X96082575Y-122024075D03*
X91839934Y-126973823D03*
X92547041Y-126266716D03*
X92900594Y-125913163D03*
X93607701Y-125206056D03*
X93961254Y-124852503D03*
X94314808Y-124498949D03*
X94668361Y-124145396D03*
X95375468Y-123438289D03*
X95729021Y-123084736D03*
X96436128Y-122377629D03*
X92193487Y-127327376D03*
X92900594Y-126620270D03*
X93254147Y-126266716D03*
X93961254Y-125559609D03*
X94314808Y-125206056D03*
X94668361Y-124852503D03*
X95021914Y-124498949D03*
X95729021Y-123791842D03*
X96082575Y-123438289D03*
X96789681Y-122731182D03*
X92547041Y-127680930D03*
X93254147Y-126973823D03*
X93607701Y-126620270D03*
X94314808Y-125913163D03*
X94668361Y-125559609D03*
X95021914Y-125206056D03*
X95375468Y-124852503D03*
X96082575Y-124145396D03*
X96436128Y-123791842D03*
X97143235Y-123084736D03*
X92900594Y-128034483D03*
X93607701Y-127327376D03*
X93961254Y-126973823D03*
X94668361Y-126266716D03*
X95021914Y-125913163D03*
X95375468Y-125559609D03*
X95729021Y-125206056D03*
X96436128Y-124498949D03*
X96789681Y-124145396D03*
X97496788Y-123438289D03*
X93254147Y-128388037D03*
X93961254Y-127680930D03*
X94314808Y-127327376D03*
X96789681Y-124852503D03*
X97143235Y-124498949D03*
X97850342Y-123791842D03*
X93607701Y-128741590D03*
X94314808Y-128034483D03*
X94668361Y-127680930D03*
X95021914Y-127327376D03*
X95375468Y-126973823D03*
X95729021Y-126620270D03*
X96082575Y-126266716D03*
X96436128Y-125913163D03*
X96789681Y-125559609D03*
X97143235Y-125206056D03*
X97496788Y-124852503D03*
X98203895Y-124145396D03*
X93961254Y-129095143D03*
X94668361Y-128388037D03*
X95021914Y-128034483D03*
X95375468Y-127680930D03*
X95729021Y-127327376D03*
X96082575Y-126973823D03*
X96436128Y-126620270D03*
X96789681Y-126266716D03*
X97143235Y-125913163D03*
X97496788Y-125559609D03*
X97850342Y-125206056D03*
X98557448Y-124498949D03*
X94314808Y-129448697D03*
X98911002Y-124852503D03*
X94668361Y-129802250D03*
X95021914Y-129448697D03*
X95375468Y-129095143D03*
X95729021Y-128741590D03*
X96082575Y-128388037D03*
X96436128Y-128034483D03*
X96789681Y-127680930D03*
X97143235Y-127327376D03*
X97496788Y-126973823D03*
X97850342Y-126620270D03*
X98203895Y-126266716D03*
X98557448Y-125913163D03*
X98911002Y-125559609D03*
X99264555Y-125206056D03*
%TD*%
D47*
%TO.C,D5*%
X76530000Y-128110000D03*
X76530000Y-126010000D03*
%TD*%
D48*
%TO.C,C1*%
X103250000Y-62800000D03*
X105150000Y-62800000D03*
%TD*%
D49*
%TO.C,U4*%
X80222500Y-127710000D03*
X80222500Y-128660000D03*
X80222500Y-129610000D03*
X82497500Y-129610000D03*
X82497500Y-127710000D03*
%TD*%
M02*
