%TF.GenerationSoftware,KiCad,Pcbnew,(6.0.8-1)-1*%
%TF.CreationDate,2022-10-19T15:00:50-05:00*%
%TF.ProjectId,NR1B-SQT56,4e523142-2d53-4515-9435-362e6b696361,rev?*%
%TF.SameCoordinates,Original*%
%TF.FileFunction,Copper,L4,Bot*%
%TF.FilePolarity,Positive*%
%FSLAX46Y46*%
G04 Gerber Fmt 4.6, Leading zero omitted, Abs format (unit mm)*
G04 Created by KiCad (PCBNEW (6.0.8-1)-1) date 2022-10-19 15:00:50*
%MOMM*%
%LPD*%
G01*
G04 APERTURE LIST*
G04 Aperture macros list*
%AMRoundRect*
0 Rectangle with rounded corners*
0 $1 Rounding radius*
0 $2 $3 $4 $5 $6 $7 $8 $9 X,Y pos of 4 corners*
0 Add a 4 corners polygon primitive as box body*
4,1,4,$2,$3,$4,$5,$6,$7,$8,$9,$2,$3,0*
0 Add four circle primitives for the rounded corners*
1,1,$1+$1,$2,$3*
1,1,$1+$1,$4,$5*
1,1,$1+$1,$6,$7*
1,1,$1+$1,$8,$9*
0 Add four rect primitives between the rounded corners*
20,1,$1+$1,$2,$3,$4,$5,0*
20,1,$1+$1,$4,$5,$6,$7,0*
20,1,$1+$1,$6,$7,$8,$9,0*
20,1,$1+$1,$8,$9,$2,$3,0*%
G04 Aperture macros list end*
%TA.AperFunction,ComponentPad*%
%ADD10C,1.400000*%
%TD*%
%TA.AperFunction,ComponentPad*%
%ADD11R,1.700000X1.700000*%
%TD*%
%TA.AperFunction,ComponentPad*%
%ADD12O,1.700000X1.700000*%
%TD*%
%TA.AperFunction,ComponentPad*%
%ADD13R,1.200000X1.200000*%
%TD*%
%TA.AperFunction,ComponentPad*%
%ADD14C,1.200000*%
%TD*%
%TA.AperFunction,ComponentPad*%
%ADD15C,1.500000*%
%TD*%
%TA.AperFunction,ComponentPad*%
%ADD16C,1.700000*%
%TD*%
%TA.AperFunction,SMDPad,CuDef*%
%ADD17RoundRect,0.225000X0.225000X0.250000X-0.225000X0.250000X-0.225000X-0.250000X0.225000X-0.250000X0*%
%TD*%
%TA.AperFunction,SMDPad,CuDef*%
%ADD18RoundRect,0.140000X-0.219203X-0.021213X-0.021213X-0.219203X0.219203X0.021213X0.021213X0.219203X0*%
%TD*%
%TA.AperFunction,SMDPad,CuDef*%
%ADD19RoundRect,0.140000X0.219203X0.021213X0.021213X0.219203X-0.219203X-0.021213X-0.021213X-0.219203X0*%
%TD*%
%TA.AperFunction,SMDPad,CuDef*%
%ADD20RoundRect,0.140000X-0.021213X0.219203X-0.219203X0.021213X0.021213X-0.219203X0.219203X-0.021213X0*%
%TD*%
%TA.AperFunction,SMDPad,CuDef*%
%ADD21RoundRect,0.250000X-0.159099X0.512652X-0.512652X0.159099X0.159099X-0.512652X0.512652X-0.159099X0*%
%TD*%
%TA.AperFunction,SMDPad,CuDef*%
%ADD22RoundRect,0.225000X-0.225000X-0.250000X0.225000X-0.250000X0.225000X0.250000X-0.225000X0.250000X0*%
%TD*%
%TA.AperFunction,SMDPad,CuDef*%
%ADD23R,0.450000X1.450000*%
%TD*%
%TA.AperFunction,SMDPad,CuDef*%
%ADD24C,0.500000*%
%TD*%
%TA.AperFunction,SMDPad,CuDef*%
%ADD25RoundRect,0.250000X-0.450000X0.262500X-0.450000X-0.262500X0.450000X-0.262500X0.450000X0.262500X0*%
%TD*%
%TA.AperFunction,SMDPad,CuDef*%
%ADD26RoundRect,0.200000X0.335876X0.053033X0.053033X0.335876X-0.335876X-0.053033X-0.053033X-0.335876X0*%
%TD*%
%TA.AperFunction,SMDPad,CuDef*%
%ADD27RoundRect,0.225000X-0.017678X0.335876X-0.335876X0.017678X0.017678X-0.335876X0.335876X-0.017678X0*%
%TD*%
%TA.AperFunction,SMDPad,CuDef*%
%ADD28RoundRect,0.140000X0.021213X-0.219203X0.219203X-0.021213X-0.021213X0.219203X-0.219203X0.021213X0*%
%TD*%
%TA.AperFunction,SMDPad,CuDef*%
%ADD29R,1.450000X0.450000*%
%TD*%
%TA.AperFunction,SMDPad,CuDef*%
%ADD30RoundRect,0.225000X0.250000X-0.225000X0.250000X0.225000X-0.250000X0.225000X-0.250000X-0.225000X0*%
%TD*%
%TA.AperFunction,SMDPad,CuDef*%
%ADD31RoundRect,0.200000X0.053033X-0.335876X0.335876X-0.053033X-0.053033X0.335876X-0.335876X0.053033X0*%
%TD*%
%TA.AperFunction,SMDPad,CuDef*%
%ADD32RoundRect,0.150000X-0.825000X-0.150000X0.825000X-0.150000X0.825000X0.150000X-0.825000X0.150000X0*%
%TD*%
%TA.AperFunction,SMDPad,CuDef*%
%ADD33RoundRect,0.150000X0.150000X-0.512500X0.150000X0.512500X-0.150000X0.512500X-0.150000X-0.512500X0*%
%TD*%
%TA.AperFunction,ViaPad*%
%ADD34C,0.800000*%
%TD*%
%TA.AperFunction,ViaPad*%
%ADD35C,0.228600*%
%TD*%
%TA.AperFunction,ViaPad*%
%ADD36C,0.457200*%
%TD*%
%TA.AperFunction,Conductor*%
%ADD37C,0.076200*%
%TD*%
%TA.AperFunction,Conductor*%
%ADD38C,0.400000*%
%TD*%
%TA.AperFunction,Conductor*%
%ADD39C,0.254000*%
%TD*%
%TA.AperFunction,Conductor*%
%ADD40C,0.300000*%
%TD*%
%TA.AperFunction,Conductor*%
%ADD41C,0.220000*%
%TD*%
%TA.AperFunction,Conductor*%
%ADD42C,0.100000*%
%TD*%
G04 APERTURE END LIST*
%TO.C,NT1*%
G36*
X83900000Y-85650000D02*
G01*
X82900000Y-85650000D01*
X82900000Y-85150000D01*
X83900000Y-85150000D01*
X83900000Y-85650000D01*
G37*
%TO.C,NT2*%
G36*
X95800000Y-102150000D02*
G01*
X94800000Y-102150000D01*
X94800000Y-101650000D01*
X95800000Y-101650000D01*
X95800000Y-102150000D01*
G37*
%TD*%
D10*
%TO.P,TP5,1,1*%
%TO.N,+3.3V*%
X97140000Y-144460000D03*
%TO.P,TP5,2,2*%
%TO.N,GND*%
X97140000Y-147000000D03*
%TD*%
%TO.P,TP6,1,1*%
%TO.N,/ANA_CE*%
X108420000Y-70610000D03*
%TO.P,TP6,2,2*%
%TO.N,GND*%
X110960000Y-70610000D03*
%TD*%
D11*
%TO.P,J1,1,Pin_1*%
%TO.N,/ANA_WP_SENSE*%
X125000000Y-57510000D03*
D12*
%TO.P,J1,2,Pin_2*%
%TO.N,unconnected-(J1-Pad2)*%
X127540000Y-57510000D03*
%TO.P,J1,3,Pin_3*%
%TO.N,/ANA_WP*%
X125000000Y-60050000D03*
%TO.P,J1,4,Pin_4*%
%TO.N,unconnected-(J1-Pad4)*%
X127540000Y-60050000D03*
%TO.P,J1,5,Pin_5*%
%TO.N,/ANA_VWL_SENSE*%
X125000000Y-62590000D03*
%TO.P,J1,6,Pin_6*%
%TO.N,unconnected-(J1-Pad6)*%
X127540000Y-62590000D03*
%TO.P,J1,7,Pin_7*%
%TO.N,/ANA_VWL*%
X125000000Y-65130000D03*
%TO.P,J1,8,Pin_8*%
%TO.N,unconnected-(J1-Pad8)*%
X127540000Y-65130000D03*
%TD*%
D11*
%TO.P,J2,1,Pin_1*%
%TO.N,/-15V_IN*%
X63960000Y-57510000D03*
D12*
%TO.P,J2,2,Pin_2*%
%TO.N,/+15V_IN*%
X66500000Y-57510000D03*
%TO.P,J2,3,Pin_3*%
%TO.N,GND*%
X63960000Y-60050000D03*
%TO.P,J2,4,Pin_4*%
X66500000Y-60050000D03*
%TO.P,J2,5,Pin_5*%
%TO.N,unconnected-(J2-Pad5)*%
X63960000Y-62590000D03*
%TO.P,J2,6,Pin_6*%
%TO.N,unconnected-(J2-Pad6)*%
X66500000Y-62590000D03*
%TO.P,J2,7,Pin_7*%
%TO.N,GND*%
X63960000Y-65130000D03*
%TO.P,J2,8,Pin_8*%
%TO.N,unconnected-(J2-Pad8)*%
X66500000Y-65130000D03*
%TD*%
D10*
%TO.P,TP9,1,1*%
%TO.N,GND*%
X117850000Y-163550000D03*
%TO.P,TP9,2,2*%
%TO.N,/FPGA/CDONE*%
X115310000Y-163550000D03*
%TD*%
D11*
%TO.P,JP1,1,A*%
%TO.N,GND*%
X83250000Y-169975000D03*
D12*
%TO.P,JP1,2,B*%
%TO.N,/FPGA/~{CRESET}*%
X83250000Y-172515000D03*
%TD*%
D13*
%TO.P,U6,1,A23*%
%TO.N,/FPGA/A23*%
X83694258Y-91549258D03*
D14*
%TO.P,U6,2,A22*%
%TO.N,/FPGA/A22*%
X80394258Y-92049258D03*
%TO.P,U6,3,A15*%
%TO.N,/FPGA/A15*%
X77094258Y-92549258D03*
%TO.P,U6,4,A14*%
%TO.N,/FPGA/A14*%
X83694258Y-93049258D03*
%TO.P,U6,5,A13*%
%TO.N,/FPGA/A13*%
X80394258Y-93549258D03*
%TO.P,U6,6,A12*%
%TO.N,/FPGA/A12*%
X77094258Y-94049258D03*
%TO.P,U6,7,A11*%
%TO.N,/FPGA/A11*%
X83694258Y-94549258D03*
%TO.P,U6,8,A10*%
%TO.N,/FPGA/A10*%
X80394258Y-95049258D03*
%TO.P,U6,9,A9*%
%TO.N,/FPGA/A9*%
X77094258Y-95549258D03*
%TO.P,U6,10,A8*%
%TO.N,/FPGA/A8*%
X83694258Y-96049258D03*
%TO.P,U6,11,A19*%
%TO.N,/FPGA/A19*%
X80394258Y-96549258D03*
%TO.P,U6,12,A20*%
%TO.N,/FPGA/A20*%
X77094258Y-97049258D03*
%TO.P,U6,13,~{WE}*%
%TO.N,/FC.~{WE}*%
X83694258Y-97549258D03*
%TO.P,U6,14,~{RESET}*%
%TO.N,/VWL_BUF*%
X80394258Y-98049258D03*
%TO.P,U6,15,A21*%
%TO.N,/FPGA/A21*%
X77094258Y-98549258D03*
%TO.P,U6,16,~{WP}/ACC*%
%TO.N,/WP_BUF*%
X83694258Y-99049258D03*
%TO.P,U6,17,RY/~{BY}*%
%TO.N,/RY{slash}~{BY}*%
X80394258Y-99549258D03*
%TO.P,U6,18,A18*%
%TO.N,/FPGA/A18*%
X77094258Y-100049258D03*
%TO.P,U6,19,A17*%
%TO.N,/FPGA/A17*%
X83694258Y-100549258D03*
%TO.P,U6,20,A7*%
%TO.N,/FPGA/A7*%
X80394258Y-101049258D03*
%TO.P,U6,21,A6*%
%TO.N,/FPGA/A6*%
X77094258Y-101549258D03*
%TO.P,U6,22,A5*%
%TO.N,/FPGA/A5*%
X83694258Y-102049258D03*
%TO.P,U6,23,A4*%
%TO.N,/FPGA/A4*%
X80394258Y-102549258D03*
%TO.P,U6,24,A3*%
%TO.N,/FPGA/A3*%
X77094258Y-103049258D03*
%TO.P,U6,25,A2*%
%TO.N,/FPGA/A2*%
X83694258Y-103549258D03*
%TO.P,U6,26,A1*%
%TO.N,/FPGA/A1*%
X80394258Y-104049258D03*
%TO.P,U6,27,NC*%
%TO.N,unconnected-(U6-Pad27)*%
X77094258Y-104549258D03*
%TO.P,U6,28,NC*%
%TO.N,unconnected-(U6-Pad28)*%
X83694258Y-105049258D03*
%TO.P,U6,29,VIO*%
%TO.N,+3.3V*%
X114274258Y-105049258D03*
%TO.P,U6,30,NC*%
%TO.N,unconnected-(U6-Pad30)*%
X107674258Y-104549258D03*
%TO.P,U6,31,A0*%
%TO.N,/FPGA/A0*%
X110974258Y-104049258D03*
%TO.P,U6,32,~{CE}*%
%TO.N,/~{CE}*%
X114274258Y-103549258D03*
%TO.P,U6,33,VSS*%
%TO.N,GND*%
X107674258Y-103049258D03*
%TO.P,U6,34,~{OE}*%
%TO.N,/FC.~{OE}*%
X110974258Y-102549258D03*
%TO.P,U6,35,DQ0*%
%TO.N,/FPGA/DQ0*%
X114274258Y-102049258D03*
%TO.P,U6,36,DQ8*%
%TO.N,/FPGA/DQ8*%
X107674258Y-101549258D03*
%TO.P,U6,37,DQ1*%
%TO.N,/FPGA/DQ1*%
X110974258Y-101049258D03*
%TO.P,U6,38,DQ9*%
%TO.N,/FPGA/DQ9*%
X114274258Y-100549258D03*
%TO.P,U6,39,DQ2*%
%TO.N,/FPGA/DQ2*%
X107674258Y-100049258D03*
%TO.P,U6,40,DQ10*%
%TO.N,/FPGA/DQ10*%
X110974258Y-99549258D03*
%TO.P,U6,41,DQ3*%
%TO.N,/FPGA/DQ3*%
X114274258Y-99049258D03*
%TO.P,U6,42,DQ11*%
%TO.N,/FPGA/DQ11*%
X107674258Y-98549258D03*
%TO.P,U6,43,VCC*%
%TO.N,+3.3V*%
X110974258Y-98049258D03*
%TO.P,U6,44,DQ4*%
%TO.N,/FPGA/DQ4*%
X114274258Y-97549258D03*
%TO.P,U6,45,DQ12*%
%TO.N,/FPGA/DQ12*%
X107674258Y-97049258D03*
%TO.P,U6,46,DQ5*%
%TO.N,/FPGA/DQ5*%
X110974258Y-96549258D03*
%TO.P,U6,47,DQ13*%
%TO.N,/FPGA/DQ13*%
X114274258Y-96049258D03*
%TO.P,U6,48,DQ6*%
%TO.N,/FPGA/DQ6*%
X107674258Y-95549258D03*
%TO.P,U6,49,DQ14*%
%TO.N,/FPGA/DQ14*%
X110974258Y-95049258D03*
%TO.P,U6,50,DQ7*%
%TO.N,/FPGA/DQ7*%
X114274258Y-94549258D03*
%TO.P,U6,51,DQ15/A-1*%
%TO.N,/FPGA/DQ15*%
X107674258Y-94049258D03*
%TO.P,U6,52,VSS*%
%TO.N,GND*%
X110974258Y-93549258D03*
%TO.P,U6,53,~{BYTE}*%
%TO.N,/FC.~{BYTE}*%
X114274258Y-93049258D03*
%TO.P,U6,54,A16*%
%TO.N,/FPGA/A16*%
X107674258Y-92549258D03*
%TO.P,U6,55,A25*%
%TO.N,/FPGA/A25*%
X110974258Y-92049258D03*
%TO.P,U6,56,A24*%
%TO.N,/FPGA/A24*%
X114274258Y-91549258D03*
%TD*%
D10*
%TO.P,TP8,1,1*%
%TO.N,GND*%
X119900000Y-109580000D03*
%TO.P,TP8,2,2*%
%TO.N,/~{CE}*%
X119900000Y-107040000D03*
%TD*%
D11*
%TO.P,J4,1,Pin_1*%
%TO.N,/FPGA/IOL_5-*%
X79000000Y-137000000D03*
D12*
%TO.P,J4,2,Pin_2*%
%TO.N,/FPGA/IOL_5+*%
X81540000Y-137000000D03*
%TO.P,J4,3,Pin_3*%
%TO.N,/FPGA/IOL_9-*%
X79000000Y-139540000D03*
%TO.P,J4,4,Pin_4*%
%TO.N,/FPGA/IOL_9+*%
X81540000Y-139540000D03*
%TO.P,J4,5,Pin_5*%
%TO.N,/FPGA/IOL_13-*%
X79000000Y-142080000D03*
%TO.P,J4,6,Pin_6*%
%TO.N,/FPGA/IOL_13+*%
X81540000Y-142080000D03*
%TO.P,J4,7,Pin_7*%
%TO.N,/FPGA/IOL_14-*%
X79000000Y-144620000D03*
%TO.P,J4,8,Pin_8*%
%TO.N,/FPGA/IOL_14+*%
X81540000Y-144620000D03*
%TO.P,J4,9,Pin_9*%
%TO.N,GND*%
X79000000Y-147160000D03*
%TO.P,J4,10,Pin_10*%
X81540000Y-147160000D03*
%TO.P,J4,11,Pin_11*%
X79000000Y-149700000D03*
%TO.P,J4,12,Pin_12*%
X81540000Y-149700000D03*
%TO.P,J4,13,Pin_13*%
%TO.N,/FPGA/IOL_12-*%
X79000000Y-152240000D03*
%TO.P,J4,14,Pin_14*%
%TO.N,/FPGA/IOL_12+*%
X81540000Y-152240000D03*
%TO.P,J4,15,Pin_15*%
%TO.N,/FPGA/IOL_18-*%
X79000000Y-154780000D03*
%TO.P,J4,16,Pin_16*%
%TO.N,/FPGA/IOL_18+*%
X81540000Y-154780000D03*
%TO.P,J4,17,Pin_17*%
%TO.N,/FPGA/IOL_23-*%
X79000000Y-157320000D03*
%TO.P,J4,18,Pin_18*%
%TO.N,/FPGA/IOL_23+*%
X81540000Y-157320000D03*
%TO.P,J4,19,Pin_19*%
%TO.N,/FPGA/IOL_25-*%
X79000000Y-159860000D03*
%TO.P,J4,20,Pin_20*%
%TO.N,/FPGA/IOL_25+*%
X81540000Y-159860000D03*
%TD*%
D10*
%TO.P,TP4,1,1*%
%TO.N,+15V*%
X91100000Y-49400000D03*
%TO.P,TP4,2,2*%
%TO.N,GND*%
X93640000Y-49400000D03*
%TD*%
D11*
%TO.P,J3,1,Pin_1*%
%TO.N,/FPGA/FLASH.~{CS}*%
X119300000Y-120900000D03*
D12*
%TO.P,J3,2,Pin_2*%
%TO.N,/FPGA/FLASH.SCK*%
X119300000Y-123440000D03*
%TO.P,J3,3,Pin_3*%
%TO.N,/FPGA/FLASH.DI_IO0*%
X119300000Y-125980000D03*
%TO.P,J3,4,Pin_4*%
%TO.N,/FPGA/FLASH.DO_IO1*%
X119300000Y-128520000D03*
%TO.P,J3,5,Pin_5*%
%TO.N,/FPGA/FLASH.~{WP}_IO2*%
X119300000Y-131060000D03*
%TO.P,J3,6,Pin_6*%
%TO.N,/FPGA/FLASH.~{RST}_IO3*%
X119300000Y-133600000D03*
%TO.P,J3,7,Pin_7*%
%TO.N,GND*%
X119300000Y-136140000D03*
%TD*%
D10*
%TO.P,TP7,1,1*%
%TO.N,GND*%
X94600000Y-147000000D03*
%TO.P,TP7,2,2*%
%TO.N,+1V2*%
X94600000Y-144460000D03*
%TD*%
D15*
%TO.P,TP10,1,1*%
%TO.N,/FPGA/IOR_109*%
X120600000Y-117000000D03*
%TD*%
D10*
%TO.P,TP2,1,1*%
%TO.N,/WP_BUF*%
X98775000Y-83000000D03*
%TO.P,TP2,2,2*%
%TO.N,GND*%
X98775000Y-80460000D03*
%TD*%
%TO.P,TP1,2,2*%
%TO.N,GND*%
X95150000Y-80460000D03*
%TO.P,TP1,1,1*%
%TO.N,/VWL_BUF*%
X95150000Y-83000000D03*
%TD*%
D16*
%TO.P,X1,1,PC10*%
%TO.N,/CE_SW*%
X64000000Y-75500000D03*
%TO.P,X1,2,PC11*%
%TO.N,unconnected-(X1-Pad2)*%
X66540000Y-75500000D03*
%TO.P,X1,3,PC12*%
%TO.N,unconnected-(X1-Pad3)*%
X64000000Y-78040000D03*
%TO.P,X1,4,PD2*%
%TO.N,unconnected-(X1-Pad4)*%
X66540000Y-78040000D03*
%TO.P,X1,5,VDD*%
%TO.N,unconnected-(X1-Pad5)*%
X64000000Y-80580000D03*
%TO.P,X1,6,E5V*%
%TO.N,unconnected-(X1-Pad6)*%
X66540000Y-80580000D03*
%TO.P,X1,7,~{BOOT0}*%
%TO.N,unconnected-(X1-Pad7)*%
X64000000Y-83120000D03*
%TO.P,X1,8,GND*%
%TO.N,GND*%
X66540000Y-83120000D03*
%TO.P,X1,9,PF6*%
%TO.N,/QSPI.IO3*%
X64000000Y-85660000D03*
%TO.P,X1,10,NC*%
%TO.N,unconnected-(X1-Pad10)*%
X66540000Y-85660000D03*
%TO.P,X1,11,PF7*%
%TO.N,/QSPI.IO2*%
X64000000Y-88200000D03*
%TO.P,X1,12,IOREF*%
%TO.N,unconnected-(X1-Pad12)*%
X66540000Y-88200000D03*
%TO.P,X1,13,TMS/PA13*%
%TO.N,unconnected-(X1-Pad13)*%
X64000000Y-90740000D03*
%TO.P,X1,14,~{RST}*%
%TO.N,/~{MCU_RESET}*%
X66540000Y-90740000D03*
%TO.P,X1,15,TCK/PA14*%
%TO.N,unconnected-(X1-Pad15)*%
X64000000Y-93280000D03*
%TO.P,X1,16,+3V3*%
%TO.N,+3.3V*%
X66540000Y-93280000D03*
%TO.P,X1,17,PA15*%
%TO.N,unconnected-(X1-Pad17)*%
X64000000Y-95820000D03*
%TO.P,X1,18,+5V*%
%TO.N,unconnected-(X1-Pad18)*%
X66540000Y-95820000D03*
%TO.P,X1,19,GND*%
%TO.N,GND*%
X64000000Y-98360000D03*
%TO.P,X1,20,GND*%
X66540000Y-98360000D03*
%TO.P,X1,21,LD2/PB7*%
%TO.N,unconnected-(X1-Pad21)*%
X64000000Y-100900000D03*
%TO.P,X1,22,GND*%
%TO.N,GND*%
X66540000Y-100900000D03*
%TO.P,X1,23,BT/PC13*%
%TO.N,unconnected-(X1-Pad23)*%
X64000000Y-103440000D03*
%TO.P,X1,24,VIN*%
%TO.N,unconnected-(X1-Pad24)*%
X66540000Y-103440000D03*
%TO.P,X1,25,RTC_CRYSTAL/PC14*%
%TO.N,unconnected-(X1-Pad25)*%
X64000000Y-105980000D03*
%TO.P,X1,26,NC*%
%TO.N,unconnected-(X1-Pad26)*%
X66540000Y-105980000D03*
%TO.P,X1,27,RTC_CRYSTAL/PC15*%
%TO.N,unconnected-(X1-Pad27)*%
X64000000Y-108520000D03*
%TO.P,X1,28,ETH_REF_CLK/PA0*%
%TO.N,unconnected-(X1-Pad28)*%
X66540000Y-108520000D03*
%TO.P,X1,29,PH0*%
%TO.N,unconnected-(X1-Pad29)*%
X64000000Y-111060000D03*
%TO.P,X1,30,ETH_MDIO/PA1*%
%TO.N,unconnected-(X1-Pad30)*%
X66540000Y-111060000D03*
%TO.P,X1,31,PH1*%
%TO.N,unconnected-(X1-Pad31)*%
X64000000Y-113600000D03*
%TO.P,X1,32,PA4*%
%TO.N,unconnected-(X1-Pad32)*%
X66540000Y-113600000D03*
%TO.P,X1,33,VBAT*%
%TO.N,unconnected-(X1-Pad33)*%
X64000000Y-116140000D03*
%TO.P,X1,34,PB0*%
%TO.N,unconnected-(X1-Pad34)*%
X66540000Y-116140000D03*
%TO.P,X1,35,PC2*%
%TO.N,unconnected-(X1-Pad35)*%
X64000000Y-118680000D03*
%TO.P,X1,36,ETH_MDC/PC1*%
%TO.N,unconnected-(X1-Pad36)*%
X66540000Y-118680000D03*
%TO.P,X1,37,PC3*%
%TO.N,unconnected-(X1-Pad37)*%
X64000000Y-121220000D03*
%TO.P,X1,38,PC0*%
%TO.N,unconnected-(X1-Pad38)*%
X66540000Y-121220000D03*
%TO.P,X1,39,PD4*%
%TO.N,unconnected-(X1-Pad39)*%
X64000000Y-123760000D03*
%TO.P,X1,40,PD3*%
%TO.N,unconnected-(X1-Pad40)*%
X66540000Y-123760000D03*
%TO.P,X1,41,PD5*%
%TO.N,unconnected-(X1-Pad41)*%
X64000000Y-126300000D03*
%TO.P,X1,42,PG2*%
%TO.N,unconnected-(X1-Pad42)*%
X66540000Y-126300000D03*
%TO.P,X1,43,PD6*%
%TO.N,unconnected-(X1-Pad43)*%
X64000000Y-128840000D03*
%TO.P,X1,44,PG3*%
%TO.N,unconnected-(X1-Pad44)*%
X66540000Y-128840000D03*
%TO.P,X1,45,PD7*%
%TO.N,unconnected-(X1-Pad45)*%
X64000000Y-131380000D03*
%TO.P,X1,46,PE2*%
%TO.N,unconnected-(X1-Pad46)*%
X66540000Y-131380000D03*
%TO.P,X1,47,PE3*%
%TO.N,unconnected-(X1-Pad47)*%
X64000000Y-133920000D03*
%TO.P,X1,48,PE4*%
%TO.N,unconnected-(X1-Pad48)*%
X66540000Y-133920000D03*
%TO.P,X1,49,GND*%
%TO.N,GND*%
X64000000Y-136460000D03*
%TO.P,X1,50,PE5*%
%TO.N,unconnected-(X1-Pad50)*%
X66540000Y-136460000D03*
%TO.P,X1,51,PF1*%
%TO.N,unconnected-(X1-Pad51)*%
X64000000Y-139000000D03*
%TO.P,X1,52,PF2*%
%TO.N,unconnected-(X1-Pad52)*%
X66540000Y-139000000D03*
%TO.P,X1,53,PF0*%
%TO.N,unconnected-(X1-Pad53)*%
X64000000Y-141540000D03*
%TO.P,X1,54,PF8*%
%TO.N,/QSPI.IO1*%
X66540000Y-141540000D03*
%TO.P,X1,55,PD1*%
%TO.N,unconnected-(X1-Pad55)*%
X64000000Y-144080000D03*
%TO.P,X1,56,PF9*%
%TO.N,/QSPI.IO0*%
X66540000Y-144080000D03*
%TO.P,X1,57,PD0*%
%TO.N,unconnected-(X1-Pad57)*%
X64000000Y-146620000D03*
%TO.P,X1,58,PG1*%
%TO.N,unconnected-(X1-Pad58)*%
X66540000Y-146620000D03*
%TO.P,X1,59,PG0*%
%TO.N,unconnected-(X1-Pad59)*%
X64000000Y-149160000D03*
%TO.P,X1,60,GND*%
%TO.N,GND*%
X66540000Y-149160000D03*
%TO.P,X1,61,PE1*%
%TO.N,unconnected-(X1-Pad61)*%
X64000000Y-151700000D03*
%TO.P,X1,62,PE6*%
%TO.N,unconnected-(X1-Pad62)*%
X66540000Y-151700000D03*
%TO.P,X1,63,PG9*%
%TO.N,unconnected-(X1-Pad63)*%
X64000000Y-154240000D03*
%TO.P,X1,64,PG15*%
%TO.N,unconnected-(X1-Pad64)*%
X66540000Y-154240000D03*
%TO.P,X1,65,PG12*%
%TO.N,unconnected-(X1-Pad65)*%
X64000000Y-156780000D03*
%TO.P,X1,66,PG10*%
%TO.N,unconnected-(X1-Pad66)*%
X66540000Y-156780000D03*
%TO.P,X1,67,NC*%
%TO.N,unconnected-(X1-Pad67)*%
X64000000Y-159320000D03*
%TO.P,X1,68,PG13/ETH_TXD0*%
%TO.N,unconnected-(X1-Pad68)*%
X66540000Y-159320000D03*
%TO.P,X1,69,STLINK_RX/PD9*%
%TO.N,unconnected-(X1-Pad69)*%
X64000000Y-161860000D03*
%TO.P,X1,70,PG11/ETH_TX_EN*%
%TO.N,unconnected-(X1-Pad70)*%
X66540000Y-161860000D03*
%TO.P,X1,71,GND*%
%TO.N,GND*%
X64000000Y-164400000D03*
%TO.P,X1,72,GND*%
X66540000Y-164400000D03*
%TO.P,X1,73,PC9*%
%TO.N,unconnected-(X1-Pad73)*%
X124960000Y-75500000D03*
%TO.P,X1,74,PC8*%
%TO.N,unconnected-(X1-Pad74)*%
X127500000Y-75500000D03*
%TO.P,X1,75,PB8*%
%TO.N,unconnected-(X1-Pad75)*%
X124960000Y-78040000D03*
%TO.P,X1,76,PC6*%
%TO.N,unconnected-(X1-Pad76)*%
X127500000Y-78040000D03*
%TO.P,X1,77,PB9*%
%TO.N,unconnected-(X1-Pad77)*%
X124960000Y-80580000D03*
%TO.P,X1,78,ETH_RXD1/PC5*%
%TO.N,unconnected-(X1-Pad78)*%
X127500000Y-80580000D03*
%TO.P,X1,79,AVDD*%
%TO.N,unconnected-(X1-Pad79)*%
X124960000Y-83120000D03*
%TO.P,X1,80,U5V*%
%TO.N,unconnected-(X1-Pad80)*%
X127500000Y-83120000D03*
%TO.P,X1,81,GND*%
%TO.N,GND*%
X124960000Y-85660000D03*
%TO.P,X1,82,STLINK_TX/PD8*%
%TO.N,unconnected-(X1-Pad82)*%
X127500000Y-85660000D03*
%TO.P,X1,83,PA5*%
%TO.N,unconnected-(X1-Pad83)*%
X124960000Y-88200000D03*
%TO.P,X1,84,USB_DP/PA12*%
%TO.N,unconnected-(X1-Pad84)*%
X127500000Y-88200000D03*
%TO.P,X1,85,PA6*%
%TO.N,unconnected-(X1-Pad85)*%
X124960000Y-90740000D03*
%TO.P,X1,86,USB_DM/PA11*%
%TO.N,unconnected-(X1-Pad86)*%
X127500000Y-90740000D03*
%TO.P,X1,87,ETH_CRS_DV/PA7*%
%TO.N,unconnected-(X1-Pad87)*%
X124960000Y-93280000D03*
%TO.P,X1,88,PB12*%
%TO.N,unconnected-(X1-Pad88)*%
X127500000Y-93280000D03*
%TO.P,X1,89,PB6*%
%TO.N,unconnected-(X1-Pad89)*%
X124960000Y-95820000D03*
%TO.P,X1,90,PB11*%
%TO.N,unconnected-(X1-Pad90)*%
X127500000Y-95820000D03*
%TO.P,X1,91,PC7*%
%TO.N,unconnected-(X1-Pad91)*%
X124960000Y-98360000D03*
%TO.P,X1,92,GND*%
%TO.N,GND*%
X127500000Y-98360000D03*
%TO.P,X1,93,USB_VBUS/PA9*%
%TO.N,unconnected-(X1-Pad93)*%
X124960000Y-100900000D03*
%TO.P,X1,94,PB2*%
%TO.N,unconnected-(X1-Pad94)*%
X127500000Y-100900000D03*
%TO.P,X1,95,USB_SOF/PA8*%
%TO.N,unconnected-(X1-Pad95)*%
X124960000Y-103440000D03*
%TO.P,X1,96,PB1*%
%TO.N,unconnected-(X1-Pad96)*%
X127500000Y-103440000D03*
%TO.P,X1,97,PB10*%
%TO.N,/QSPI.~{CS}*%
X124960000Y-105980000D03*
%TO.P,X1,98,PB15*%
%TO.N,unconnected-(X1-Pad98)*%
X127500000Y-105980000D03*
%TO.P,X1,99,PB4*%
%TO.N,unconnected-(X1-Pad99)*%
X124960000Y-108520000D03*
%TO.P,X1,100,LD3/PB14*%
%TO.N,unconnected-(X1-Pad100)*%
X127500000Y-108520000D03*
%TO.P,X1,101,PB5*%
%TO.N,unconnected-(X1-Pad101)*%
X124960000Y-111060000D03*
%TO.P,X1,102,ETH_TXD1/PB13*%
%TO.N,unconnected-(X1-Pad102)*%
X127500000Y-111060000D03*
%TO.P,X1,103,SWO/PB3*%
%TO.N,unconnected-(X1-Pad103)*%
X124960000Y-113600000D03*
%TO.P,X1,104,AGND*%
%TO.N,unconnected-(X1-Pad104)*%
X127500000Y-113600000D03*
%TO.P,X1,105,USB_ID/PA10*%
%TO.N,unconnected-(X1-Pad105)*%
X124960000Y-116140000D03*
%TO.P,X1,106,ETH_RXD0/PC4*%
%TO.N,unconnected-(X1-Pad106)*%
X127500000Y-116140000D03*
%TO.P,X1,107,PA2*%
%TO.N,unconnected-(X1-Pad107)*%
X124960000Y-118680000D03*
%TO.P,X1,108,PF5*%
%TO.N,unconnected-(X1-Pad108)*%
X127500000Y-118680000D03*
%TO.P,X1,109,PA3*%
%TO.N,unconnected-(X1-Pad109)*%
X124960000Y-121220000D03*
%TO.P,X1,110,PF4*%
%TO.N,unconnected-(X1-Pad110)*%
X127500000Y-121220000D03*
%TO.P,X1,111,GND*%
%TO.N,GND*%
X124960000Y-123760000D03*
%TO.P,X1,112,PE8*%
%TO.N,unconnected-(X1-Pad112)*%
X127500000Y-123760000D03*
%TO.P,X1,113,PD13*%
%TO.N,unconnected-(X1-Pad113)*%
X124960000Y-126300000D03*
%TO.P,X1,114,PF10*%
%TO.N,/QSPI.SCK*%
X127500000Y-126300000D03*
%TO.P,X1,115,PD12*%
%TO.N,unconnected-(X1-Pad115)*%
X124960000Y-128840000D03*
%TO.P,X1,116,PE7*%
%TO.N,unconnected-(X1-Pad116)*%
X127500000Y-128840000D03*
%TO.P,X1,117,PD11*%
%TO.N,unconnected-(X1-Pad117)*%
X124960000Y-131380000D03*
%TO.P,X1,118,PD14*%
%TO.N,unconnected-(X1-Pad118)*%
X127500000Y-131380000D03*
%TO.P,X1,119,PE10*%
%TO.N,unconnected-(X1-Pad119)*%
X124960000Y-133920000D03*
%TO.P,X1,120,PD15*%
%TO.N,unconnected-(X1-Pad120)*%
X127500000Y-133920000D03*
%TO.P,X1,121,PE12*%
%TO.N,unconnected-(X1-Pad121)*%
X124960000Y-136460000D03*
%TO.P,X1,122,PF14*%
%TO.N,unconnected-(X1-Pad122)*%
X127500000Y-136460000D03*
%TO.P,X1,123,PE14*%
%TO.N,unconnected-(X1-Pad123)*%
X124960000Y-139000000D03*
%TO.P,X1,124,PE9*%
%TO.N,unconnected-(X1-Pad124)*%
X127500000Y-139000000D03*
%TO.P,X1,125,PE15*%
%TO.N,unconnected-(X1-Pad125)*%
X124960000Y-141540000D03*
%TO.P,X1,126,GND*%
%TO.N,GND*%
X127500000Y-141540000D03*
%TO.P,X1,127,PE13*%
%TO.N,unconnected-(X1-Pad127)*%
X124960000Y-144080000D03*
%TO.P,X1,128,PE11*%
%TO.N,unconnected-(X1-Pad128)*%
X127500000Y-144080000D03*
%TO.P,X1,129,PF13*%
%TO.N,unconnected-(X1-Pad129)*%
X124960000Y-146620000D03*
%TO.P,X1,130,PF3*%
%TO.N,unconnected-(X1-Pad130)*%
X127500000Y-146620000D03*
%TO.P,X1,131,PF12*%
%TO.N,unconnected-(X1-Pad131)*%
X124960000Y-149160000D03*
%TO.P,X1,132,PF15*%
%TO.N,unconnected-(X1-Pad132)*%
X127500000Y-149160000D03*
%TO.P,X1,133,PG14*%
%TO.N,unconnected-(X1-Pad133)*%
X124960000Y-151700000D03*
%TO.P,X1,134,PF11*%
%TO.N,unconnected-(X1-Pad134)*%
X127500000Y-151700000D03*
%TO.P,X1,135,GND*%
%TO.N,GND*%
X124960000Y-154240000D03*
%TO.P,X1,136,PE0*%
%TO.N,unconnected-(X1-Pad136)*%
X127500000Y-154240000D03*
%TO.P,X1,137,PD10*%
%TO.N,unconnected-(X1-Pad137)*%
X124960000Y-156780000D03*
%TO.P,X1,138,PG8*%
%TO.N,unconnected-(X1-Pad138)*%
X127500000Y-156780000D03*
%TO.P,X1,139,PG7/USB_GPIO_IN*%
%TO.N,unconnected-(X1-Pad139)*%
X124960000Y-159320000D03*
%TO.P,X1,140,PG5*%
%TO.N,unconnected-(X1-Pad140)*%
X127500000Y-159320000D03*
%TO.P,X1,141,PG4*%
%TO.N,unconnected-(X1-Pad141)*%
X124960000Y-161860000D03*
%TO.P,X1,142,PG6/USB_GPIO_OUT*%
%TO.N,unconnected-(X1-Pad142)*%
X127500000Y-161860000D03*
%TO.P,X1,143,GND*%
%TO.N,GND*%
X124960000Y-164400000D03*
%TO.P,X1,144,GND*%
X127500000Y-164400000D03*
%TO.P,X1,145,NC*%
%TO.N,unconnected-(X1-Pad145)*%
X64000000Y-47560000D03*
%TO.P,X1,146,NC*%
%TO.N,unconnected-(X1-Pad146)*%
X64000000Y-50100000D03*
%TO.P,X1,147,NC*%
%TO.N,unconnected-(X1-Pad147)*%
X127500000Y-47560000D03*
%TO.P,X1,148,NC*%
%TO.N,unconnected-(X1-Pad148)*%
X127500000Y-50100000D03*
%TD*%
D10*
%TO.P,TP3,1,1*%
%TO.N,-15V*%
X91100000Y-46860000D03*
%TO.P,TP3,2,2*%
%TO.N,GND*%
X93640000Y-46860000D03*
%TD*%
D15*
%TO.P,TP11,1,1*%
%TO.N,/FPGA/IOT_188*%
X86500000Y-117300000D03*
%TD*%
D11*
%TO.P,J5,1,Pin_1*%
%TO.N,GND*%
X109950000Y-137000000D03*
D12*
%TO.P,J5,2,Pin_2*%
X112490000Y-137000000D03*
%TO.P,J5,3,Pin_3*%
X109950000Y-139540000D03*
%TO.P,J5,4,Pin_4*%
X112490000Y-139540000D03*
%TO.P,J5,5,Pin_5*%
%TO.N,/FPGA/IOB_104_CBSEL1*%
X109950000Y-142080000D03*
%TO.P,J5,6,Pin_6*%
%TO.N,/FPGA/IOB_103_CBSEL0*%
X112490000Y-142080000D03*
%TO.P,J5,7,Pin_7*%
%TO.N,GND*%
X109950000Y-144620000D03*
%TO.P,J5,8,Pin_8*%
X112490000Y-144620000D03*
%TO.P,J5,9,Pin_9*%
%TO.N,/FPGA/IOB_82_GBIN4*%
X109950000Y-147160000D03*
%TO.P,J5,10,Pin_10*%
%TO.N,/FPGA/IOB_89*%
X112490000Y-147160000D03*
%TO.P,J5,11,Pin_11*%
%TO.N,GND*%
X109950000Y-149700000D03*
%TO.P,J5,12,Pin_12*%
X112490000Y-149700000D03*
%TO.P,J5,13,Pin_13*%
%TO.N,/FPGA/IOB_91*%
X109950000Y-152240000D03*
%TO.P,J5,14,Pin_14*%
%TO.N,/FPGA/IOB_87*%
X112490000Y-152240000D03*
%TO.P,J5,15,Pin_15*%
%TO.N,GND*%
X109950000Y-154780000D03*
%TO.P,J5,16,Pin_16*%
X112490000Y-154780000D03*
%TO.P,J5,17,Pin_17*%
%TO.N,/FPGA/IOB_73*%
X109950000Y-157320000D03*
%TO.P,J5,18,Pin_18*%
%TO.N,/FPGA/IOB_74*%
X112490000Y-157320000D03*
%TO.P,J5,19,Pin_19*%
%TO.N,+3.3V*%
X109950000Y-159860000D03*
%TO.P,J5,20,Pin_20*%
X112490000Y-159860000D03*
%TD*%
D17*
%TO.P,C9,1*%
%TO.N,+3.3V*%
X111010000Y-106530000D03*
%TO.P,C9,2*%
%TO.N,GND*%
X109460000Y-106530000D03*
%TD*%
D18*
%TO.P,C21,1*%
%TO.N,+3.3V*%
X95873978Y-131007868D03*
%TO.P,C21,2*%
%TO.N,GND*%
X96552800Y-131686690D03*
%TD*%
D19*
%TO.P,C20,1*%
%TO.N,+1V2*%
X95951760Y-124608551D03*
%TO.P,C20,2*%
%TO.N,GND*%
X95272938Y-123929729D03*
%TD*%
D20*
%TO.P,C30,1*%
%TO.N,+3.3V*%
X94403196Y-129126964D03*
%TO.P,C30,2*%
%TO.N,GND*%
X93724374Y-129805786D03*
%TD*%
D21*
%TO.P,C12,1*%
%TO.N,/FPGA/VCCPLL1*%
X90457540Y-119496170D03*
%TO.P,C12,2*%
%TO.N,/FPGA/GNDPLL1*%
X89114038Y-120839672D03*
%TD*%
D22*
%TO.P,C8,1*%
%TO.N,GND*%
X118825000Y-97300000D03*
%TO.P,C8,2*%
%TO.N,+3.3V*%
X120375000Y-97300000D03*
%TD*%
D23*
%TO.P,U1,8,NC*%
%TO.N,unconnected-(U1-Pad8)*%
X79525000Y-87000000D03*
%TO.P,U1,7,V+*%
%TO.N,+15V*%
X80175000Y-87000000D03*
%TO.P,U1,6*%
%TO.N,/VWL_BUF*%
X80825000Y-87000000D03*
%TO.P,U1,5,NC*%
%TO.N,unconnected-(U1-Pad5)*%
X81475000Y-87000000D03*
%TO.P,U1,4,V-*%
%TO.N,-15V*%
X81475000Y-82600000D03*
%TO.P,U1,3,+*%
%TO.N,/ANA_VWL*%
X80825000Y-82600000D03*
%TO.P,U1,2,-*%
%TO.N,/VWL_BUF*%
X80175000Y-82600000D03*
%TO.P,U1,1,NC*%
%TO.N,unconnected-(U1-Pad1)*%
X79525000Y-82600000D03*
%TD*%
D18*
%TO.P,C29,1*%
%TO.N,+3.3V*%
X98476131Y-125591430D03*
%TO.P,C29,2*%
%TO.N,GND*%
X99154953Y-126270252D03*
%TD*%
D21*
%TO.P,C11,1*%
%TO.N,/FPGA/VCCPLL0*%
X100017623Y-129579512D03*
%TO.P,C11,2*%
%TO.N,/FPGA/GNDPLL0*%
X98674121Y-130923014D03*
%TD*%
D24*
%TO.P,NT1,1,1*%
%TO.N,/ANA_VWL_SENSE*%
X83900000Y-85400000D03*
%TO.P,NT1,2,2*%
%TO.N,/ANA_VWL*%
X82900000Y-85400000D03*
%TD*%
D25*
%TO.P,R1,1*%
%TO.N,/WP_BUF*%
X87800000Y-99187500D03*
%TO.P,R1,2*%
%TO.N,Net-(R1-Pad2)*%
X87800000Y-101012500D03*
%TD*%
D22*
%TO.P,C3,1*%
%TO.N,+15V*%
X91725000Y-95400000D03*
%TO.P,C3,2*%
%TO.N,-15V*%
X93275000Y-95400000D03*
%TD*%
D24*
%TO.P,NT2,1,1*%
%TO.N,/ANA_WP*%
X94800000Y-101900000D03*
%TO.P,NT2,2,2*%
%TO.N,/ANA_WP_SENSE*%
X95800000Y-101900000D03*
%TD*%
D26*
%TO.P,R5,1*%
%TO.N,+1V2*%
X101117175Y-128388037D03*
%TO.P,R5,2*%
%TO.N,/FPGA/VCCPLL0*%
X99950449Y-127221311D03*
%TD*%
D27*
%TO.P,C14,1*%
%TO.N,/FPGA/VCCPLL1*%
X91649015Y-120920989D03*
%TO.P,C14,2*%
%TO.N,/FPGA/GNDPLL1*%
X90552999Y-122017005D03*
%TD*%
D28*
%TO.P,C22,1*%
%TO.N,+1V2*%
X95265866Y-126482384D03*
%TO.P,C22,2*%
%TO.N,GND*%
X95944688Y-125803562D03*
%TD*%
D29*
%TO.P,U2,1,NC*%
%TO.N,unconnected-(U2-Pad1)*%
X94700000Y-97525000D03*
%TO.P,U2,2,-*%
%TO.N,Net-(R1-Pad2)*%
X94700000Y-98175000D03*
%TO.P,U2,3,+*%
%TO.N,/ANA_WP*%
X94700000Y-98825000D03*
%TO.P,U2,4,V-*%
%TO.N,-15V*%
X94700000Y-99475000D03*
%TO.P,U2,5,NC*%
%TO.N,unconnected-(U2-Pad5)*%
X90300000Y-99475000D03*
%TO.P,U2,6*%
%TO.N,/WP_BUF*%
X90300000Y-98825000D03*
%TO.P,U2,7,V+*%
%TO.N,+15V*%
X90300000Y-98175000D03*
%TO.P,U2,8,NC*%
%TO.N,unconnected-(U2-Pad8)*%
X90300000Y-97525000D03*
%TD*%
D30*
%TO.P,C2,1*%
%TO.N,+15V*%
X77500000Y-85575000D03*
%TO.P,C2,2*%
%TO.N,-15V*%
X77500000Y-84025000D03*
%TD*%
D27*
%TO.P,C13,1*%
%TO.N,/FPGA/VCCPLL0*%
X98621088Y-128388037D03*
%TO.P,C13,2*%
%TO.N,/FPGA/GNDPLL0*%
X97525072Y-129484053D03*
%TD*%
D31*
%TO.P,R6,1*%
%TO.N,+1V2*%
X87916637Y-119383363D03*
%TO.P,R6,2*%
%TO.N,/FPGA/VCCPLL1*%
X89083363Y-118216637D03*
%TD*%
D22*
%TO.P,C10,1*%
%TO.N,+3.3V*%
X116550000Y-105040000D03*
%TO.P,C10,2*%
%TO.N,GND*%
X118100000Y-105040000D03*
%TD*%
D32*
%TO.P,U5,1*%
%TO.N,/~{CE}*%
X116925000Y-102895000D03*
%TO.P,U5,2*%
%TO.N,/ANA_CE*%
X116925000Y-101625000D03*
%TO.P,U5,3,GND*%
%TO.N,GND*%
X116925000Y-100355000D03*
%TO.P,U5,4,V+*%
%TO.N,+15V*%
X116925000Y-99085000D03*
%TO.P,U5,5,VL*%
%TO.N,+3.3V*%
X121875000Y-99085000D03*
%TO.P,U5,6*%
%TO.N,/CE_SW*%
X121875000Y-100355000D03*
%TO.P,U5,7,V-*%
%TO.N,GND*%
X121875000Y-101625000D03*
%TO.P,U5,8*%
%TO.N,/FC.~{CE}*%
X121875000Y-102895000D03*
%TD*%
D18*
%TO.P,C24,1*%
%TO.N,+1V2*%
X93392034Y-125811466D03*
%TO.P,C24,2*%
%TO.N,GND*%
X94070856Y-126490288D03*
%TD*%
D20*
%TO.P,C26,1*%
%TO.N,+1V2*%
X94063784Y-123922658D03*
%TO.P,C26,2*%
%TO.N,GND*%
X93384962Y-124601480D03*
%TD*%
D25*
%TO.P,R2,1*%
%TO.N,Net-(R1-Pad2)*%
X92000000Y-101087500D03*
%TO.P,R2,2*%
%TO.N,GND*%
X92000000Y-102912500D03*
%TD*%
D19*
%TO.P,C28,1*%
%TO.N,+3.3V*%
X90804022Y-124891394D03*
%TO.P,C28,2*%
%TO.N,GND*%
X90125200Y-124212572D03*
%TD*%
D33*
%TO.P,D18,1,1*%
%TO.N,/~{CE}*%
X89650000Y-90637500D03*
%TO.P,D18,2,C*%
%TO.N,GND*%
X88700000Y-90637500D03*
%TO.P,D18,3,3*%
%TO.N,/WP_BUF*%
X87750000Y-90637500D03*
%TO.P,D18,4,4*%
%TO.N,/VWL_BUF*%
X87750000Y-88362500D03*
%TO.P,D18,5,C*%
%TO.N,GND*%
X88700000Y-88362500D03*
%TO.P,D18,6,6*%
%TO.N,+3.3V*%
X89650000Y-88362500D03*
%TD*%
D34*
%TO.N,GND*%
X74830000Y-126060000D03*
D35*
X106715000Y-111520000D03*
X103520000Y-113480000D03*
D34*
X74830000Y-123760000D03*
D35*
X103280000Y-113720000D03*
X76475000Y-113615000D03*
X100320000Y-111280000D03*
X83115000Y-113620000D03*
X103515000Y-111280000D03*
X116315000Y-111280000D03*
D34*
X82100000Y-49500000D03*
X101250000Y-55250000D03*
D35*
X116080000Y-113720000D03*
X113120000Y-113480000D03*
X113115000Y-111280000D03*
X107715000Y-154650000D03*
X86075000Y-113620000D03*
X106475000Y-111520000D03*
X109680000Y-113720000D03*
X76475000Y-111400000D03*
D34*
X83300000Y-56300000D03*
D35*
X100080000Y-113720000D03*
X79675000Y-111405000D03*
X89285000Y-111400000D03*
D34*
X103800000Y-124200000D03*
X120290000Y-101620000D03*
D35*
X103515000Y-111520000D03*
X93879937Y-128476425D03*
X103280000Y-113480000D03*
D34*
X119390000Y-105040000D03*
D35*
X79675000Y-113620000D03*
D34*
X75500000Y-171000000D03*
D35*
X89525000Y-113375000D03*
X105515000Y-144475000D03*
D34*
X102750000Y-55250000D03*
X83550000Y-143350000D03*
D35*
X86315000Y-111165000D03*
X82875000Y-111165000D03*
X116075000Y-111520000D03*
X106715000Y-111280000D03*
X112880000Y-113720000D03*
D36*
X88700000Y-89400000D03*
D35*
X100320000Y-111520000D03*
X117210000Y-111280000D03*
X107475000Y-154890000D03*
X94668361Y-125206056D03*
X79915000Y-113620000D03*
X105275000Y-154890000D03*
X107715000Y-144715000D03*
D34*
X110250000Y-55250000D03*
D35*
X79915000Y-113380000D03*
D34*
X74830000Y-124960000D03*
X83600000Y-158700000D03*
D36*
X82060000Y-128660000D03*
D35*
X106475000Y-111280000D03*
D34*
X107250000Y-55250000D03*
D35*
X79675000Y-111165000D03*
X107475000Y-144475000D03*
D34*
X106100000Y-61900000D03*
D35*
X93046512Y-129801715D03*
X116315000Y-111520000D03*
X90300000Y-128800000D03*
D34*
X117750000Y-65000000D03*
X83300000Y-49500000D03*
X73730000Y-122560000D03*
D35*
X79675000Y-113380000D03*
X76475000Y-111160000D03*
X109675000Y-111520000D03*
X96650000Y-128425000D03*
D36*
X82760000Y-128660000D03*
D34*
X77030000Y-123760000D03*
X71530000Y-122560000D03*
D35*
X109915000Y-111280000D03*
X105275000Y-144715000D03*
X106720000Y-113480000D03*
X94311272Y-126121760D03*
X106480000Y-113720000D03*
X82875000Y-113620000D03*
X89285000Y-111160000D03*
D34*
X77030000Y-122560000D03*
X72630000Y-122560000D03*
X73730000Y-124960000D03*
D35*
X83115000Y-111405000D03*
D36*
X82360000Y-131860000D03*
D35*
X86075000Y-111405000D03*
X104400000Y-111520000D03*
X100080000Y-111520000D03*
D36*
X84360000Y-130460000D03*
D35*
X100320000Y-113720000D03*
D34*
X83300000Y-48300000D03*
D35*
X86315000Y-113620000D03*
X99825000Y-125600000D03*
X76715000Y-113375000D03*
D34*
X108750000Y-55250000D03*
D35*
X79915000Y-111165000D03*
D34*
X83700000Y-153550000D03*
D35*
X106720000Y-113720000D03*
X73515000Y-113615000D03*
X89285000Y-113375000D03*
D34*
X118500000Y-100350000D03*
D35*
X89525000Y-111160000D03*
D36*
X83660000Y-130460000D03*
D34*
X73730000Y-123760000D03*
D35*
X105515000Y-154890000D03*
D34*
X82100000Y-47100000D03*
D35*
X100080000Y-111280000D03*
X86315000Y-113380000D03*
X106480000Y-113480000D03*
X109920000Y-113720000D03*
D36*
X82360000Y-131160000D03*
D35*
X82875000Y-113380000D03*
D34*
X104250000Y-55250000D03*
D35*
X100080000Y-113480000D03*
X76715000Y-113615000D03*
D34*
X117750000Y-60000000D03*
X74830000Y-122560000D03*
D35*
X112875000Y-111520000D03*
X92098982Y-121576018D03*
X73275000Y-111160000D03*
X112880000Y-113480000D03*
X95576993Y-125563145D03*
X89525000Y-113615000D03*
X107715000Y-154890000D03*
X73275000Y-113615000D03*
X113115000Y-111520000D03*
X73515000Y-111400000D03*
X97075000Y-118075000D03*
X107715000Y-144475000D03*
D34*
X83550000Y-138150000D03*
X75930000Y-124960000D03*
X109480000Y-129010000D03*
D35*
X107475000Y-154650000D03*
D34*
X82100000Y-55100000D03*
D35*
X86075000Y-111165000D03*
D34*
X82100000Y-57500000D03*
D35*
X112875000Y-111280000D03*
D36*
X102425000Y-131350000D03*
D34*
X75930000Y-122560000D03*
D35*
X100320000Y-113480000D03*
D34*
X92000000Y-104200000D03*
X105750000Y-55250000D03*
D35*
X103275000Y-111520000D03*
X79915000Y-111405000D03*
D34*
X83300000Y-47100000D03*
D35*
X98483203Y-122451875D03*
X76715000Y-111400000D03*
D34*
X73730000Y-126060000D03*
D35*
X105515000Y-154650000D03*
D36*
X116600000Y-174300000D03*
D35*
X116080000Y-113480000D03*
X73275000Y-111400000D03*
X73515000Y-113375000D03*
X103275000Y-111280000D03*
X109920000Y-113480000D03*
X89285000Y-113615000D03*
X109680000Y-113480000D03*
D34*
X83300000Y-57500000D03*
D35*
X76715000Y-111160000D03*
D34*
X75930000Y-123760000D03*
D35*
X105515000Y-144715000D03*
X86315000Y-111405000D03*
X89525000Y-111400000D03*
X116320000Y-113720000D03*
X73275000Y-113375000D03*
X83115000Y-113380000D03*
X76475000Y-113375000D03*
X103520000Y-113720000D03*
X73515000Y-111160000D03*
X89820000Y-123910000D03*
X82875000Y-111405000D03*
X105275000Y-144475000D03*
X105275000Y-154650000D03*
D34*
X83300000Y-55100000D03*
X77030000Y-124960000D03*
D36*
X81360000Y-128660000D03*
D35*
X93759729Y-124848967D03*
X116320000Y-113480000D03*
X83115000Y-111165000D03*
X109915000Y-111520000D03*
X95025450Y-124290353D03*
X107475000Y-144715000D03*
D34*
X96200000Y-132550000D03*
D35*
X86075000Y-113380000D03*
X113120000Y-113720000D03*
X109675000Y-111280000D03*
X116075000Y-111280000D03*
D34*
%TO.N,+3.3V*%
X121600000Y-97900000D03*
D35*
X90600000Y-132000000D03*
D34*
X73730000Y-129160000D03*
X98750000Y-135700000D03*
X77030000Y-129160000D03*
D36*
X113500000Y-120250000D03*
D35*
X91892804Y-125992804D03*
D34*
X75930000Y-130260000D03*
X74830000Y-129160000D03*
D35*
X91100000Y-132500000D03*
X97344760Y-125209592D03*
D34*
X72630000Y-131360000D03*
X73730000Y-130260000D03*
X122500000Y-97000000D03*
D35*
X91100000Y-132000000D03*
X94671897Y-126538953D03*
X91650000Y-129960000D03*
D34*
X73730000Y-128160000D03*
D36*
X105175000Y-123800000D03*
D35*
X93000000Y-131200000D03*
X97500000Y-130400000D03*
D34*
X74830000Y-128160000D03*
D35*
X90500000Y-127400000D03*
X95810338Y-128115801D03*
D34*
X77030000Y-130260000D03*
D35*
X90600000Y-132500000D03*
D34*
X122500000Y-97900000D03*
D35*
X93377891Y-125202521D03*
D34*
X121600000Y-97000000D03*
D35*
X94664825Y-123943871D03*
X96001257Y-125209592D03*
D34*
X74830000Y-130260000D03*
D35*
X88400000Y-129200000D03*
D36*
X113500000Y-121700000D03*
D34*
X75930000Y-131360000D03*
D35*
X95289112Y-119989112D03*
X88400000Y-130600000D03*
X98700000Y-121300000D03*
D34*
X74830000Y-131360000D03*
X71530000Y-131360000D03*
X77030000Y-131360000D03*
D36*
X106125000Y-124750000D03*
D34*
X73730000Y-131360000D03*
X75930000Y-129160000D03*
D35*
X90850000Y-121220000D03*
D34*
X105600000Y-121700000D03*
D36*
X89650000Y-86800000D03*
D35*
%TO.N,+1V2*%
X93766800Y-125563145D03*
X95569922Y-124848967D03*
D34*
X85700000Y-126300000D03*
D35*
X94318343Y-124304495D03*
D34*
X83300000Y-126300000D03*
D35*
X93957719Y-127168278D03*
D34*
X82100000Y-126300000D03*
X85700000Y-127300000D03*
D35*
X95018379Y-126107618D03*
D34*
X84500000Y-126300000D03*
X85700000Y-128300000D03*
X85700000Y-134300000D03*
X87150000Y-118600000D03*
%TO.N,+15V*%
X101600000Y-58700000D03*
X77000000Y-86900000D03*
X90500000Y-95100000D03*
X78000000Y-87900000D03*
X77000000Y-87900000D03*
X80100000Y-58700000D03*
X117000000Y-97200000D03*
X78000000Y-86900000D03*
X90500000Y-96100000D03*
X89500000Y-96100000D03*
X89500000Y-95100000D03*
%TO.N,-15V*%
X95600000Y-95900000D03*
X94600000Y-94900000D03*
X94600000Y-95900000D03*
X95600000Y-94900000D03*
X85100000Y-81100000D03*
X85100000Y-83100000D03*
X80020000Y-47140000D03*
X85100000Y-82100000D03*
D35*
%TO.N,/FPGA/A11*%
X94680000Y-121610000D03*
X88900000Y-115000000D03*
%TO.N,/FPGA/A9*%
X92345515Y-124848967D03*
X83430000Y-124240000D03*
%TO.N,/FPGA/A8*%
X94176922Y-122239743D03*
X88400000Y-115000000D03*
%TO.N,/FPGA/A21*%
X91405063Y-124417632D03*
X84890000Y-124210000D03*
%TO.N,/FPGA/A20*%
X92055601Y-124361064D03*
X84240000Y-124230000D03*
%TO.N,/CE_SW*%
X92200000Y-73700000D03*
X114225000Y-74800000D03*
%TO.N,/FPGA/A7*%
X93052622Y-124141861D03*
X83500000Y-115000000D03*
%TO.N,/FPGA/A4*%
X92112170Y-123710526D03*
X82500000Y-115000000D03*
%TO.N,/FPGA/A18*%
X92699069Y-124495414D03*
X85510000Y-124210000D03*
%TO.N,/FPGA/A17*%
X86700000Y-115000000D03*
X93526384Y-122296312D03*
%TO.N,/FPGA/A0*%
X108800000Y-115000000D03*
X95732557Y-123597388D03*
%TO.N,/FPGA/A14*%
X89900000Y-115000000D03*
X94671897Y-122536728D03*
%TO.N,/RY{slash}~{BY}*%
X92762708Y-123653957D03*
X84000000Y-115000000D03*
%TO.N,/FPGA/DQ0*%
X97281121Y-124368135D03*
X113500000Y-115000000D03*
%TO.N,/FPGA/DQ1*%
X110300000Y-115000000D03*
X96566943Y-123653957D03*
%TO.N,/FC.~{OE}*%
X109300000Y-115000000D03*
X96524516Y-123003419D03*
%TO.N,/FC.~{WE}*%
X87200000Y-115000000D03*
X94311272Y-122883211D03*
%TO.N,/FPGA/DQ6*%
X100700000Y-115000000D03*
X95018379Y-122883211D03*
%TO.N,/FPGA/DQ7*%
X112500000Y-115000000D03*
X97224552Y-123703454D03*
%TO.N,/FC.~{CE}*%
X96991207Y-124856039D03*
D34*
%TO.N,/WP_BUF*%
X95500000Y-91750000D03*
D35*
%TO.N,/FPGA/DQ9*%
X114000000Y-115000000D03*
X97931659Y-124410561D03*
%TO.N,/FPGA/DQ12*%
X95782054Y-122303383D03*
X101200000Y-115000000D03*
%TO.N,/FPGA/DQ14*%
X106100000Y-115000000D03*
X95859836Y-122946850D03*
%TO.N,/FPGA/DQ15*%
X99700000Y-115000000D03*
X95152729Y-122239743D03*
%TO.N,/~{MCU_RESET}*%
X73800000Y-163700000D03*
%TO.N,/FPGA/VCCPLL0*%
X96574014Y-126758156D03*
%TO.N,/FPGA/GNDPLL0*%
X95732557Y-126821795D03*
%TO.N,/FPGA/VCCPLL1*%
X92819277Y-123003419D03*
%TO.N,/FPGA/GNDPLL1*%
X93400000Y-123790000D03*
%TO.N,/FPGA/IOL_9+*%
X88550000Y-127972200D03*
X92699069Y-125909628D03*
%TO.N,/FPGA/IOL_9-*%
X88550000Y-128327800D03*
X92409155Y-126397531D03*
%TO.N,/FPGA/IOL_12+*%
X92300000Y-128350000D03*
X93165759Y-127762247D03*
%TO.N,/FPGA/IOL_13+*%
X89900000Y-129850000D03*
X92458652Y-127055141D03*
%TO.N,/FPGA/IOL_14-*%
X90550000Y-130550000D03*
X93116262Y-127104638D03*
%TO.N,/FPGA/IOL_18+*%
X91922200Y-131850000D03*
X93823368Y-127811745D03*
%TO.N,/FPGA/IOL_18-*%
X92277800Y-131850000D03*
X94304201Y-127514760D03*
%TO.N,/FPGA/IOB_87*%
X102800000Y-130150000D03*
X96277029Y-126263181D03*
%TO.N,/FPGA/~{CRESET}*%
X96991207Y-125563145D03*
D34*
%TO.N,/ANA_WP_SENSE*%
X98925000Y-93350000D03*
%TO.N,/ANA_WP*%
X97950000Y-96350000D03*
D35*
%TO.N,/FPGA/FLASH.~{CS}*%
X105130000Y-125420000D03*
%TO.N,/FPGA/FLASH.SCK*%
X108220000Y-123310000D03*
X99413048Y-125559610D03*
%TO.N,/FPGA/FLASH.DI_IO0*%
X109470000Y-124580000D03*
X102700000Y-126660000D03*
%TO.N,/FPGA/FLASH.DO_IO1*%
X106940000Y-126270000D03*
X97917517Y-125994480D03*
%TO.N,/FPGA/FLASH.~{RST}_IO3*%
X107850000Y-126240000D03*
%TO.N,/FPGA/IOB_91*%
X97224552Y-126701587D03*
X103350000Y-130150000D03*
%TO.N,/FPGA/CDONE*%
X97281121Y-126051049D03*
X100975000Y-126325000D03*
%TO.N,/FPGA/A25*%
X95371932Y-123236764D03*
X105600000Y-115000000D03*
%TO.N,/FPGA/A24*%
X96284100Y-124148932D03*
X110800000Y-115000000D03*
%TO.N,/FPGA/IOB_103_CBSEL0*%
X98799222Y-127284840D03*
X96637653Y-125916699D03*
%TO.N,/QSPI.IO2*%
X93025000Y-135475000D03*
%TO.N,/QSPI.~{CS}*%
X105425000Y-129725000D03*
X94671897Y-127882456D03*
%TO.N,/QSPI.IO3*%
X93025000Y-135000000D03*
%TO.N,/QSPI.SCK*%
X105550000Y-129100000D03*
X95025450Y-127528902D03*
%TO.N,/QSPI.IO1*%
X95145658Y-128172369D03*
X75160000Y-132950000D03*
X92690000Y-132130000D03*
%TO.N,/QSPI.IO0*%
X77290000Y-133380000D03*
X93100000Y-132150000D03*
X95103232Y-128822908D03*
%TO.N,/FPGA/IOR_109*%
X97988227Y-125075242D03*
%TO.N,/FPGA/IOT_188*%
X93957719Y-123236764D03*
%TD*%
D37*
%TO.N,GND*%
X93724374Y-129805786D02*
X93050583Y-129805786D01*
D38*
X109460000Y-106530000D02*
X109460000Y-103910000D01*
X118825000Y-100025000D02*
X118500000Y-100350000D01*
D37*
X93759729Y-124848967D02*
X93491028Y-124580267D01*
X94311272Y-126121760D02*
X94070856Y-126362176D01*
X90125200Y-124212572D02*
X90122572Y-124212572D01*
D38*
X118100000Y-105040000D02*
X119390000Y-105040000D01*
D37*
X93050583Y-129805786D02*
X93046512Y-129801715D01*
D38*
X108599258Y-103049258D02*
X107674258Y-103049258D01*
X120295000Y-101625000D02*
X120290000Y-101620000D01*
D37*
X99825000Y-125600205D02*
X99825000Y-125600000D01*
X99154953Y-126270252D02*
X99825000Y-125600205D01*
D38*
X88700000Y-88262500D02*
X88700000Y-89400000D01*
X116925000Y-100355000D02*
X118495000Y-100355000D01*
D37*
X93491028Y-124580267D02*
X93363749Y-124580267D01*
D38*
X92000000Y-102912500D02*
X92000000Y-104200000D01*
X96200000Y-132039490D02*
X96200000Y-132550000D01*
X118825000Y-97300000D02*
X118825000Y-100025000D01*
X109460000Y-103910000D02*
X108599258Y-103049258D01*
X88700000Y-90537500D02*
X88700000Y-89400000D01*
X118495000Y-100355000D02*
X118500000Y-100350000D01*
D37*
X90122572Y-124212572D02*
X89820000Y-123910000D01*
X95280008Y-124035795D02*
X95280008Y-123922658D01*
X94070856Y-126362176D02*
X94070856Y-126490288D01*
X95817410Y-125803562D02*
X95944689Y-125803562D01*
D38*
X121875000Y-101625000D02*
X120295000Y-101625000D01*
X96552800Y-131686690D02*
X96200000Y-132039490D01*
D37*
X95025450Y-124290353D02*
X95280008Y-124035795D01*
X95576993Y-125563145D02*
X95817410Y-125803562D01*
D38*
%TO.N,+3.3V*%
X112310000Y-98520000D02*
X111839258Y-98049258D01*
X111010000Y-106530000D02*
X111880000Y-106530000D01*
X111839258Y-98049258D02*
X110974258Y-98049258D01*
X114283516Y-105040000D02*
X114274258Y-105049258D01*
D37*
X97726598Y-125591430D02*
X97344760Y-125209592D01*
X98476131Y-125591430D02*
X97726598Y-125591430D01*
D38*
X89650000Y-88262500D02*
X89650000Y-86800000D01*
D39*
X113500000Y-120250000D02*
X113500000Y-121700000D01*
D38*
X111880000Y-106530000D02*
X112310000Y-106100000D01*
X112310000Y-106100000D02*
X112310000Y-98520000D01*
D37*
X90804022Y-124891394D02*
X90804022Y-124904022D01*
D39*
X105175000Y-123800000D02*
X106125000Y-124750000D01*
D38*
X116550000Y-105040000D02*
X114283516Y-105040000D01*
%TO.N,+1V2*%
X101850000Y-131600000D02*
X101850000Y-129120862D01*
D37*
X93518480Y-125811466D02*
X93392033Y-125811466D01*
X93766800Y-125563145D02*
X93518480Y-125811466D01*
X95265866Y-126355105D02*
X95265866Y-126482384D01*
X94042572Y-124028724D02*
X94042572Y-123901444D01*
D38*
X94525000Y-144385000D02*
X94600000Y-144460000D01*
X94525000Y-134300000D02*
X99150000Y-134300000D01*
X101850000Y-129120862D02*
X101117175Y-128388037D01*
D37*
X94318343Y-124304495D02*
X94042572Y-124028724D01*
D38*
X85700000Y-134300000D02*
X94525000Y-134300000D01*
X99150000Y-134300000D02*
X101850000Y-131600000D01*
D37*
X95569922Y-124848967D02*
X95817410Y-124601480D01*
X95018379Y-126107618D02*
X95265866Y-126355105D01*
D38*
X94525000Y-134300000D02*
X94525000Y-144385000D01*
X87150000Y-118616726D02*
X87916637Y-119383363D01*
D37*
X95817410Y-124601480D02*
X95958831Y-124601480D01*
D38*
X87150000Y-118600000D02*
X87150000Y-118616726D01*
D40*
%TO.N,+15V*%
X91100000Y-49400000D02*
X91100000Y-58670000D01*
D38*
X117000000Y-99010000D02*
X117000000Y-97200000D01*
X80100000Y-58700000D02*
X91070000Y-58700000D01*
X91070000Y-58700000D02*
X101600000Y-58700000D01*
D40*
X91100000Y-58670000D02*
X91070000Y-58700000D01*
D38*
X116925000Y-99085000D02*
X117000000Y-99010000D01*
D40*
%TO.N,-15V*%
X80000000Y-47100000D02*
X80000000Y-46400000D01*
X80400000Y-46000000D02*
X90240000Y-46000000D01*
X80000000Y-46400000D02*
X80400000Y-46000000D01*
X90240000Y-46000000D02*
X91100000Y-46860000D01*
D41*
%TO.N,/ANA_CE*%
X115400000Y-88075000D02*
X115400000Y-101200000D01*
X115400000Y-101200000D02*
X115825000Y-101625000D01*
X108420000Y-81095000D02*
X115400000Y-88075000D01*
X115825000Y-101625000D02*
X116925000Y-101625000D01*
X108420000Y-70610000D02*
X108420000Y-81095000D01*
D37*
%TO.N,/FPGA/A11*%
X91400000Y-115310000D02*
X94680000Y-118590000D01*
X91400000Y-115310000D02*
X89220000Y-115310000D01*
X89210000Y-115310000D02*
X88900000Y-115000000D01*
X89220000Y-115310000D02*
X89210000Y-115310000D01*
X94680000Y-121610000D02*
X94680000Y-118590000D01*
%TO.N,/FPGA/A8*%
X91260000Y-115570000D02*
X94370000Y-118680000D01*
X94370000Y-122046665D02*
X94370000Y-118680000D01*
X89000000Y-115570000D02*
X88970000Y-115570000D01*
X88970000Y-115570000D02*
X88400000Y-115000000D01*
X94176922Y-122239743D02*
X94370000Y-122046665D01*
X91260000Y-115570000D02*
X89000000Y-115570000D01*
D41*
%TO.N,Net-(R1-Pad2)*%
X92000000Y-99200000D02*
X93025000Y-98175000D01*
X87875000Y-101087500D02*
X87800000Y-101012500D01*
X92000000Y-101087500D02*
X87875000Y-101087500D01*
X92000000Y-101087500D02*
X92000000Y-99200000D01*
X93025000Y-98175000D02*
X94700000Y-98175000D01*
%TO.N,/~{CE}*%
X120060000Y-104090000D02*
X118865000Y-102895000D01*
X119900000Y-107040000D02*
X119900000Y-105740000D01*
X113000000Y-103100000D02*
X113000000Y-91800000D01*
X113449258Y-103549258D02*
X113000000Y-103100000D01*
X89750000Y-90537500D02*
X89650000Y-90637500D01*
X114940742Y-103549258D02*
X114274258Y-103549258D01*
X120060000Y-105580000D02*
X120060000Y-104090000D01*
X119900000Y-105740000D02*
X120060000Y-105580000D01*
X115595000Y-102895000D02*
X114940742Y-103549258D01*
X116925000Y-102895000D02*
X115595000Y-102895000D01*
X114274258Y-103549258D02*
X113449258Y-103549258D01*
X118865000Y-102895000D02*
X116925000Y-102895000D01*
X113000000Y-91800000D02*
X111737500Y-90537500D01*
X111737500Y-90537500D02*
X89750000Y-90537500D01*
D42*
%TO.N,/CE_SW*%
X64775000Y-73700000D02*
X92200000Y-73700000D01*
X64000000Y-75500000D02*
X64000000Y-74475000D01*
X64000000Y-74475000D02*
X64775000Y-73700000D01*
X123550000Y-84125000D02*
X123550000Y-99975000D01*
X114225000Y-74800000D02*
X123550000Y-84125000D01*
X123170000Y-100355000D02*
X121875000Y-100355000D01*
X123550000Y-99975000D02*
X123170000Y-100355000D01*
D37*
%TO.N,/FPGA/A7*%
X83500000Y-116820000D02*
X89782414Y-123102414D01*
X83500000Y-116820000D02*
X83500000Y-115000000D01*
X92827196Y-124141861D02*
X92411570Y-123726235D01*
X91928322Y-123102414D02*
X89782414Y-123102414D01*
X93052622Y-124141861D02*
X92827196Y-124141861D01*
X92411570Y-123726235D02*
X92411570Y-123585662D01*
X92411570Y-123585662D02*
X91928322Y-123102414D01*
%TO.N,/FPGA/A4*%
X89630000Y-123420000D02*
X91821644Y-123420000D01*
X82500000Y-116290000D02*
X82500000Y-115000000D01*
X92112170Y-123710526D02*
X91821644Y-123420000D01*
X82500000Y-116290000D02*
X89630000Y-123420000D01*
%TO.N,/FPGA/A17*%
X87950000Y-116250000D02*
X86700000Y-115000000D01*
X90950000Y-116250000D02*
X87950000Y-116250000D01*
X93730000Y-121900000D02*
X93730000Y-119030000D01*
X93730000Y-119030000D02*
X90950000Y-116250000D01*
X93526384Y-122103616D02*
X93730000Y-121900000D01*
X93526384Y-122296312D02*
X93526384Y-122103616D01*
%TO.N,/FPGA/A0*%
X103434519Y-115670000D02*
X108130000Y-115670000D01*
X108130000Y-115670000D02*
X108800000Y-115000000D01*
X96225116Y-122879404D02*
X103434519Y-115670000D01*
X95732557Y-123597388D02*
X96225116Y-123104829D01*
X96225116Y-123104829D02*
X96225116Y-122879404D01*
%TO.N,/FPGA/A14*%
X94671897Y-122536728D02*
X94671897Y-122048103D01*
X94671897Y-122048103D02*
X94979400Y-121740600D01*
X91420000Y-115000000D02*
X89900000Y-115000000D01*
X94979400Y-118559400D02*
X91420000Y-115000000D01*
X94979400Y-121740600D02*
X94979400Y-118559400D01*
%TO.N,/RY{slash}~{BY}*%
X84000000Y-116900000D02*
X84000000Y-115000000D01*
X92762708Y-123653957D02*
X91888751Y-122780000D01*
X84000000Y-116900000D02*
X89880000Y-122780000D01*
X89880000Y-122780000D02*
X91888751Y-122780000D01*
%TO.N,/FPGA/DQ0*%
X98760000Y-123170000D02*
X104550000Y-117380000D01*
X104550000Y-117380000D02*
X111120000Y-117380000D01*
X98479256Y-123170000D02*
X98760000Y-123170000D01*
X97281121Y-124368135D02*
X98479256Y-123170000D01*
X111120000Y-117380000D02*
X113500000Y-115000000D01*
%TO.N,/FPGA/DQ1*%
X109220000Y-116320000D02*
X110300000Y-115240000D01*
X96566943Y-123653957D02*
X98621500Y-121599400D01*
X104280000Y-116320000D02*
X109220000Y-116320000D01*
X98621500Y-121599400D02*
X99000600Y-121599400D01*
X110300000Y-115240000D02*
X110300000Y-115000000D01*
X99000600Y-121599400D02*
X104280000Y-116320000D01*
%TO.N,/FC.~{OE}*%
X96524516Y-123003419D02*
X103527935Y-116000000D01*
X108300000Y-116000000D02*
X109300000Y-115000000D01*
X103527935Y-116000000D02*
X108300000Y-116000000D01*
%TO.N,/FC.~{WE}*%
X91100000Y-115890000D02*
X93990000Y-118780000D01*
X93990000Y-121995517D02*
X93990000Y-118780000D01*
X93805784Y-122179733D02*
X93990000Y-121995517D01*
X94311272Y-122883211D02*
X93805784Y-122377723D01*
X93805784Y-122377723D02*
X93805784Y-122179733D01*
X88090000Y-115890000D02*
X87200000Y-115000000D01*
X88090000Y-115890000D02*
X91100000Y-115890000D01*
%TO.N,/FPGA/DQ6*%
X95482654Y-122418936D02*
X95482654Y-122178519D01*
X95018379Y-122883211D02*
X95482654Y-122418936D01*
X100700000Y-116961173D02*
X100700000Y-115000000D01*
X95482654Y-122178519D02*
X100700000Y-116961173D01*
%TO.N,/FPGA/DQ7*%
X104450000Y-117130000D02*
X110370000Y-117130000D01*
X97952872Y-122975135D02*
X98604865Y-122975135D01*
X98604865Y-122975135D02*
X104450000Y-117130000D01*
X97224552Y-123703454D02*
X97952872Y-122975135D01*
X110370000Y-117130000D02*
X112500000Y-115000000D01*
%TO.N,/FC.~{CE}*%
X98070039Y-124709961D02*
X104580000Y-118200000D01*
X97137285Y-124709961D02*
X98070039Y-124709961D01*
X104580000Y-118200000D02*
X117200000Y-118200000D01*
X117200000Y-118200000D02*
X121875000Y-113525000D01*
X96991207Y-124856039D02*
X97137285Y-124709961D01*
X121875000Y-113525000D02*
X121875000Y-102895000D01*
D41*
%TO.N,/WP_BUF*%
X87750000Y-92550000D02*
X87750000Y-99137500D01*
X87812500Y-99200000D02*
X87800000Y-99187500D01*
X87800000Y-99187500D02*
X87661758Y-99049258D01*
X87750000Y-90637500D02*
X87750000Y-92550000D01*
X87661758Y-99049258D02*
X83694258Y-99049258D01*
X95500000Y-91750000D02*
X94650000Y-92600000D01*
X94650000Y-92600000D02*
X87800000Y-92600000D01*
X89375000Y-98825000D02*
X89000000Y-99200000D01*
X87750000Y-99137500D02*
X87800000Y-99187500D01*
X87800000Y-92600000D02*
X87750000Y-92550000D01*
X89000000Y-99200000D02*
X87812500Y-99200000D01*
X90300000Y-98825000D02*
X89375000Y-98825000D01*
%TO.N,/VWL_BUF*%
X80175000Y-84475000D02*
X80825000Y-85125000D01*
X80825000Y-89025000D02*
X81500000Y-89700000D01*
X87750000Y-87150000D02*
X87750000Y-88362500D01*
X85562500Y-88262500D02*
X87650000Y-88262500D01*
X82100000Y-90300000D02*
X82100000Y-97100000D01*
X81150742Y-98049258D02*
X80394258Y-98049258D01*
X83500000Y-87700000D02*
X81500000Y-89700000D01*
X81500000Y-89700000D02*
X82100000Y-90300000D01*
X80825000Y-85125000D02*
X80825000Y-87000000D01*
X80175000Y-82600000D02*
X80175000Y-84475000D01*
X80825000Y-87000000D02*
X80825000Y-89025000D01*
X82100000Y-97100000D02*
X81150742Y-98049258D01*
X91900000Y-83000000D02*
X87750000Y-87150000D01*
X85000000Y-87700000D02*
X83500000Y-87700000D01*
X87650000Y-88262500D02*
X87750000Y-88362500D01*
X85562500Y-88262500D02*
X85000000Y-87700000D01*
X95150000Y-83000000D02*
X91900000Y-83000000D01*
D37*
%TO.N,/FPGA/DQ9*%
X104722220Y-117620000D02*
X111380000Y-117620000D01*
X111380000Y-117620000D02*
X114000000Y-115000000D01*
X97931659Y-124410561D02*
X104722220Y-117620000D01*
%TO.N,/FPGA/DQ12*%
X95782054Y-122303383D02*
X101200000Y-116885437D01*
X101200000Y-116885437D02*
X101200000Y-115000000D01*
%TO.N,/FPGA/DQ14*%
X103376687Y-115430000D02*
X105670000Y-115430000D01*
X95859836Y-122946850D02*
X103376687Y-115430000D01*
X105670000Y-115430000D02*
X106100000Y-115000000D01*
%TO.N,/FPGA/DQ15*%
X99700000Y-115000000D02*
X99700000Y-117692473D01*
X99700000Y-117692473D02*
X95152729Y-122239743D01*
%TO.N,/~{MCU_RESET}*%
X66540000Y-90740000D02*
X67700000Y-91900000D01*
X67700000Y-157600000D02*
X73800000Y-163700000D01*
X67700000Y-91900000D02*
X67700000Y-157600000D01*
%TO.N,/FPGA/VCCPLL0*%
X99812563Y-129579512D02*
X100017624Y-129579512D01*
X98621088Y-128388037D02*
X99812563Y-129579512D01*
X100017624Y-129225958D02*
X100017624Y-129579512D01*
X98203895Y-128388037D02*
X98621088Y-128388037D01*
X96574014Y-126758156D02*
X98203895Y-128388037D01*
%TO.N,/FPGA/GNDPLL0*%
X97525072Y-129484052D02*
X98674121Y-130633101D01*
X97525072Y-128812301D02*
X97525072Y-129484052D01*
X96227531Y-127514760D02*
X97525072Y-128812301D01*
X98674121Y-130633101D02*
X98674121Y-130923015D01*
X96227531Y-127316770D02*
X96227531Y-127514760D01*
X95732557Y-126821795D02*
X96227531Y-127316770D01*
%TO.N,/FPGA/VCCPLL1*%
X92819277Y-123003419D02*
X91649015Y-121833157D01*
D38*
X91649015Y-120687645D02*
X91649015Y-120920989D01*
D37*
X91649015Y-121833157D02*
X91649015Y-120920989D01*
D38*
X90362896Y-119496170D02*
X89083363Y-118216637D01*
X90457540Y-119496170D02*
X91649015Y-120687645D01*
X90457540Y-119496170D02*
X90362896Y-119496170D01*
%TO.N,/FPGA/GNDPLL1*%
X90291371Y-122017005D02*
X89114038Y-120839672D01*
D37*
X91437732Y-122017005D02*
X90553000Y-122017005D01*
X92734020Y-123313293D02*
X91437732Y-122017005D01*
X93400000Y-123790000D02*
X93400000Y-123770000D01*
D38*
X90552999Y-122017005D02*
X90291371Y-122017005D01*
D37*
X92943293Y-123313293D02*
X92734020Y-123313293D01*
X93400000Y-123770000D02*
X92943293Y-123313293D01*
%TO.N,/FPGA/IOL_9+*%
X92058017Y-126325254D02*
X92058017Y-126494111D01*
X90503729Y-128048399D02*
X88626199Y-128048399D01*
X92058017Y-126494111D02*
X90503729Y-128048399D01*
X88626199Y-128048399D02*
X88550000Y-127972200D01*
X92473643Y-125909628D02*
X92058017Y-126325254D01*
X92699069Y-125909628D02*
X92473643Y-125909628D01*
%TO.N,/FPGA/IOL_9-*%
X91600000Y-127206686D02*
X91600000Y-127250000D01*
X92409155Y-126397531D02*
X91600000Y-127206686D01*
X88626199Y-128251601D02*
X88550000Y-128327800D01*
X90598399Y-128251601D02*
X88626199Y-128251601D01*
X91600000Y-127250000D02*
X90598399Y-128251601D01*
%TO.N,/FPGA/IOL_12+*%
X92578006Y-128350000D02*
X92300000Y-128350000D01*
X93165759Y-127762247D02*
X92578006Y-128350000D01*
%TO.N,/FPGA/IOL_13+*%
X90700000Y-128813793D02*
X90700000Y-129100000D01*
X89950000Y-129850000D02*
X89900000Y-129850000D01*
X92458652Y-127055141D02*
X90700000Y-128813793D01*
X90700000Y-129100000D02*
X89950000Y-129850000D01*
%TO.N,/FPGA/IOL_14-*%
X90950000Y-129100000D02*
X90950000Y-130150000D01*
X90950000Y-129100000D02*
X92945362Y-127104638D01*
X93116262Y-127104638D02*
X92945362Y-127104638D01*
X90950000Y-130150000D02*
X90550000Y-130550000D01*
%TO.N,/FPGA/IOL_18+*%
X91998399Y-131773801D02*
X91922200Y-131850000D01*
X93823368Y-127811745D02*
X93788255Y-127811745D01*
X91998399Y-129601601D02*
X91998399Y-131773801D01*
X93788255Y-127811745D02*
X91998399Y-129601601D01*
%TO.N,/FPGA/IOL_18-*%
X93881504Y-128177025D02*
X93740931Y-128177025D01*
X92201601Y-129716355D02*
X92201601Y-131773801D01*
X93740931Y-128177025D02*
X92201601Y-129716355D01*
X94304201Y-127514760D02*
X94304201Y-127754328D01*
X94304201Y-127754328D02*
X93881504Y-128177025D01*
X92201601Y-131773801D02*
X92277800Y-131850000D01*
%TO.N,/FPGA/~{CRESET}*%
X99825000Y-126425000D02*
X100550000Y-126425000D01*
X97216632Y-125563145D02*
X97618116Y-125964629D01*
X97618116Y-125964629D02*
X97618116Y-126119344D01*
X88585000Y-172515000D02*
X83250000Y-172515000D01*
X98448772Y-126950000D02*
X99300000Y-126950000D01*
X103925000Y-129800000D02*
X103925000Y-157175000D01*
X97618116Y-126119344D02*
X98448772Y-126950000D01*
X96991207Y-125563145D02*
X97216632Y-125563145D01*
X100550000Y-126425000D02*
X103925000Y-129800000D01*
X103925000Y-157175000D02*
X88585000Y-172515000D01*
X99300000Y-126950000D02*
X99825000Y-126425000D01*
D41*
%TO.N,/ANA_WP_SENSE*%
X97200000Y-101900000D02*
X95800000Y-101900000D01*
X98925000Y-100175000D02*
X97200000Y-101900000D01*
X98925000Y-93350000D02*
X98925000Y-100175000D01*
%TO.N,/ANA_WP*%
X97950000Y-96350000D02*
X97950000Y-100175000D01*
X97950000Y-100175000D02*
X97025000Y-101100000D01*
X97025000Y-101100000D02*
X95025000Y-101100000D01*
X94700000Y-98825000D02*
X93175000Y-98825000D01*
X93175000Y-98825000D02*
X92800000Y-99200000D01*
X94400000Y-101900000D02*
X94800000Y-101900000D01*
X92800000Y-99200000D02*
X92800000Y-100300000D01*
X92800000Y-100300000D02*
X94400000Y-101900000D01*
X94800000Y-101325000D02*
X94800000Y-101900000D01*
X95025000Y-101100000D02*
X94800000Y-101325000D01*
%TO.N,/ANA_VWL_SENSE*%
X108135000Y-62590000D02*
X85325000Y-85400000D01*
X85325000Y-85400000D02*
X83900000Y-85400000D01*
X125000000Y-62590000D02*
X108135000Y-62590000D01*
%TO.N,/ANA_VWL*%
X85800000Y-86200000D02*
X83275000Y-86200000D01*
X80825000Y-84125000D02*
X80825000Y-82600000D01*
X82900000Y-85825000D02*
X82900000Y-85400000D01*
X82100000Y-85400000D02*
X80825000Y-84125000D01*
X123395000Y-63525000D02*
X108475000Y-63525000D01*
X108475000Y-63525000D02*
X85800000Y-86200000D01*
X83275000Y-86200000D02*
X82900000Y-85825000D01*
X82900000Y-85400000D02*
X82100000Y-85400000D01*
X125000000Y-65130000D02*
X123395000Y-63525000D01*
D37*
%TO.N,/FPGA/FLASH.SCK*%
X108220000Y-123310000D02*
X119170000Y-123310000D01*
X108220000Y-123310000D02*
X101662658Y-123310000D01*
X119170000Y-123310000D02*
X119300000Y-123440000D01*
X101662658Y-123310000D02*
X99413048Y-125559610D01*
%TO.N,/FPGA/FLASH.DI_IO0*%
X117900000Y-124580000D02*
X119277237Y-125957237D01*
X106930000Y-124580000D02*
X109470000Y-124580000D01*
X104850000Y-126660000D02*
X106930000Y-124580000D01*
X109470000Y-124580000D02*
X117900000Y-124580000D01*
X102700000Y-126660000D02*
X104850000Y-126660000D01*
%TO.N,/FPGA/FLASH.DO_IO1*%
X107360000Y-125850000D02*
X116630000Y-125850000D01*
X106940000Y-126270000D02*
X107360000Y-125850000D01*
X116630000Y-125850000D02*
X119300000Y-128520000D01*
%TO.N,/FPGA/FLASH.~{RST}_IO3*%
X111940000Y-126240000D02*
X119300000Y-133600000D01*
X107850000Y-126240000D02*
X111940000Y-126240000D01*
%TO.N,/FPGA/CDONE*%
X104350000Y-129700000D02*
X104350000Y-160050000D01*
X106900000Y-162600000D02*
X114360000Y-162600000D01*
X100975000Y-126325000D02*
X104350000Y-129700000D01*
X114360000Y-162600000D02*
X115310000Y-163550000D01*
X104350000Y-160050000D02*
X106900000Y-162600000D01*
%TO.N,/FPGA/A25*%
X95371932Y-123236764D02*
X95371932Y-122888890D01*
X95658039Y-122602783D02*
X95921060Y-122602783D01*
X95371932Y-122888890D02*
X95658039Y-122602783D01*
X103523844Y-115000000D02*
X105600000Y-115000000D01*
X95921060Y-122602783D02*
X103523844Y-115000000D01*
%TO.N,/FPGA/A24*%
X96870999Y-123773317D02*
X96870999Y-123632744D01*
X96870999Y-123632744D02*
X98603743Y-121900000D01*
X104670000Y-116530000D02*
X109590000Y-116530000D01*
X110800000Y-115320000D02*
X110800000Y-115000000D01*
X98603743Y-121900000D02*
X99300000Y-121900000D01*
X96495384Y-124148932D02*
X96870999Y-123773317D01*
X109590000Y-116530000D02*
X110800000Y-115320000D01*
X96284100Y-124148932D02*
X96495384Y-124148932D01*
X99300000Y-121900000D02*
X104670000Y-116530000D01*
%TO.N,/FPGA/IOB_103_CBSEL0*%
X97123142Y-126402187D02*
X97348567Y-126402187D01*
X98231220Y-127284840D02*
X98799222Y-127284840D01*
X96637653Y-125916699D02*
X97123142Y-126402187D01*
X97348567Y-126402187D02*
X98231220Y-127284840D01*
%TO.N,/QSPI.IO2*%
X67325000Y-89475000D02*
X68025000Y-90175000D01*
X68925000Y-135475000D02*
X93025000Y-135475000D01*
X64000000Y-88200000D02*
X65275000Y-89475000D01*
X68025000Y-90175000D02*
X68025000Y-134575000D01*
X65275000Y-89475000D02*
X67325000Y-89475000D01*
X68025000Y-134575000D02*
X68925000Y-135475000D01*
%TO.N,/QSPI.~{CS}*%
X121500000Y-134900000D02*
X122675000Y-133725000D01*
X110600000Y-134900000D02*
X121500000Y-134900000D01*
X105425000Y-129725000D02*
X110600000Y-134900000D01*
X122675000Y-133725000D02*
X122675000Y-107025000D01*
X123720000Y-105980000D02*
X124960000Y-105980000D01*
X122675000Y-107025000D02*
X123720000Y-105980000D01*
%TO.N,/QSPI.IO3*%
X69150000Y-135000000D02*
X93025000Y-135000000D01*
X68375000Y-87825000D02*
X68375000Y-134225000D01*
X67450000Y-86900000D02*
X68375000Y-87825000D01*
X65240000Y-86900000D02*
X67450000Y-86900000D01*
X68375000Y-134225000D02*
X69150000Y-135000000D01*
X64000000Y-85660000D02*
X65240000Y-86900000D01*
%TO.N,/QSPI.IO1*%
X75160000Y-132950000D02*
X91870000Y-132950000D01*
X92690000Y-132130000D02*
X91870000Y-132950000D01*
%TO.N,/QSPI.IO0*%
X77290000Y-133380000D02*
X91870000Y-133380000D01*
X91870000Y-133380000D02*
X93100000Y-132150000D01*
%TO.N,/FPGA/IOR_109*%
X97988227Y-125075242D02*
X104663469Y-118400000D01*
X119200000Y-118400000D02*
X120600000Y-117000000D01*
X104663469Y-118400000D02*
X119200000Y-118400000D01*
%TO.N,/FPGA/IOT_188*%
X93520000Y-121720000D02*
X93520000Y-119170000D01*
X87160000Y-116640000D02*
X86500000Y-117300000D01*
X93375713Y-122575713D02*
X93226984Y-122426984D01*
X93226984Y-122013016D02*
X93520000Y-121720000D01*
X93520000Y-119170000D02*
X90990000Y-116640000D01*
X93957719Y-123236764D02*
X93957719Y-123039623D01*
X93957719Y-123039623D02*
X93493809Y-122575713D01*
X93493809Y-122575713D02*
X93375713Y-122575713D01*
X90990000Y-116640000D02*
X87160000Y-116640000D01*
X93226984Y-122426984D02*
X93226984Y-122013016D01*
%TD*%
%TA.AperFunction,Conductor*%
%TO.N,+15V*%
G36*
X76763459Y-85316413D02*
G01*
X76784548Y-85321000D01*
X78210885Y-85321000D01*
X78260369Y-85306470D01*
X78262503Y-85305099D01*
X78297986Y-85300000D01*
X80274000Y-85300000D01*
X80342121Y-85320002D01*
X80388614Y-85373658D01*
X80400000Y-85426000D01*
X80400000Y-86078011D01*
X80378764Y-86148014D01*
X80367161Y-86165379D01*
X80367161Y-86165380D01*
X80360266Y-86175699D01*
X80357845Y-86187868D01*
X80357845Y-86187869D01*
X80351635Y-86219092D01*
X80345500Y-86249933D01*
X80345501Y-87750066D01*
X80360266Y-87824301D01*
X80367161Y-87834621D01*
X80367162Y-87834622D01*
X80378764Y-87851986D01*
X80400000Y-87921989D01*
X80400000Y-88374000D01*
X80379998Y-88442121D01*
X80326342Y-88488614D01*
X80274000Y-88500000D01*
X76526000Y-88500000D01*
X76457879Y-88479998D01*
X76411386Y-88426342D01*
X76400000Y-88374000D01*
X76400000Y-85842424D01*
X76771027Y-85842424D01*
X76771369Y-85848741D01*
X76776510Y-85896066D01*
X76780135Y-85911311D01*
X76822375Y-86023988D01*
X76830908Y-86039575D01*
X76902434Y-86135010D01*
X76914990Y-86147566D01*
X77010425Y-86219092D01*
X77026012Y-86227625D01*
X77138689Y-86269865D01*
X77153934Y-86273490D01*
X77201259Y-86278631D01*
X77208073Y-86279000D01*
X77227885Y-86279000D01*
X77243124Y-86274525D01*
X77244329Y-86273135D01*
X77246000Y-86265452D01*
X77246000Y-86260885D01*
X77754000Y-86260885D01*
X77758475Y-86276124D01*
X77759865Y-86277329D01*
X77767548Y-86279000D01*
X77791927Y-86279000D01*
X77798741Y-86278631D01*
X77846066Y-86273490D01*
X77861311Y-86269865D01*
X77914480Y-86249933D01*
X79045500Y-86249933D01*
X79045501Y-87750066D01*
X79060266Y-87824301D01*
X79116516Y-87908484D01*
X79200699Y-87964734D01*
X79274933Y-87979500D01*
X79524959Y-87979500D01*
X79775066Y-87979499D01*
X79826701Y-87969229D01*
X79875861Y-87969229D01*
X79918915Y-87977793D01*
X79931170Y-87979000D01*
X79931885Y-87979000D01*
X79947124Y-87974525D01*
X79948329Y-87973135D01*
X79950000Y-87965452D01*
X79950000Y-87921989D01*
X79971236Y-87851986D01*
X79982839Y-87834621D01*
X79982840Y-87834618D01*
X79989734Y-87824301D01*
X79992156Y-87812128D01*
X80003293Y-87756135D01*
X80004500Y-87750067D01*
X80004499Y-86249934D01*
X79989734Y-86175699D01*
X79982838Y-86165378D01*
X79971236Y-86148014D01*
X79950000Y-86078011D01*
X79950000Y-86039116D01*
X79945525Y-86023877D01*
X79944135Y-86022672D01*
X79936452Y-86021001D01*
X79931172Y-86021001D01*
X79918915Y-86022208D01*
X79875864Y-86030771D01*
X79826703Y-86030771D01*
X79781135Y-86021707D01*
X79775067Y-86020500D01*
X79525041Y-86020500D01*
X79274934Y-86020501D01*
X79239182Y-86027612D01*
X79212874Y-86032844D01*
X79212872Y-86032845D01*
X79200699Y-86035266D01*
X79190379Y-86042161D01*
X79190378Y-86042162D01*
X79136727Y-86078011D01*
X79116516Y-86091516D01*
X79060266Y-86175699D01*
X79045500Y-86249933D01*
X77914480Y-86249933D01*
X77973988Y-86227625D01*
X77989575Y-86219092D01*
X78085010Y-86147566D01*
X78097566Y-86135010D01*
X78169092Y-86039575D01*
X78177625Y-86023988D01*
X78219865Y-85911311D01*
X78223490Y-85896066D01*
X78228631Y-85848741D01*
X78228763Y-85846307D01*
X78224525Y-85831876D01*
X78223135Y-85830671D01*
X78215452Y-85829000D01*
X77772115Y-85829000D01*
X77756876Y-85833475D01*
X77755671Y-85834865D01*
X77754000Y-85842548D01*
X77754000Y-86260885D01*
X77246000Y-86260885D01*
X77246000Y-85847115D01*
X77241525Y-85831876D01*
X77240135Y-85830671D01*
X77232452Y-85829000D01*
X76789115Y-85829000D01*
X76773876Y-85833475D01*
X76772671Y-85834865D01*
X76771027Y-85842424D01*
X76400000Y-85842424D01*
X76400000Y-85426000D01*
X76420002Y-85357879D01*
X76473658Y-85311386D01*
X76526000Y-85300000D01*
X76707563Y-85300000D01*
X76763459Y-85316413D01*
G37*
%TD.AperFunction*%
%TD*%
%TA.AperFunction,Conductor*%
%TO.N,+3.3V*%
G36*
X123042121Y-96420002D02*
G01*
X123088614Y-96473658D01*
X123100000Y-96526000D01*
X123100000Y-98479777D01*
X123079998Y-98547898D01*
X123026342Y-98594391D01*
X122956068Y-98604495D01*
X122916797Y-98592044D01*
X122835232Y-98550485D01*
X122816608Y-98544433D01*
X122736685Y-98531775D01*
X122726842Y-98531000D01*
X122147115Y-98531000D01*
X122131876Y-98535475D01*
X122130671Y-98536865D01*
X122129000Y-98544548D01*
X122129000Y-99213000D01*
X122108998Y-99281121D01*
X122087210Y-99300000D01*
X119826000Y-99300000D01*
X119757879Y-99279998D01*
X119711386Y-99226342D01*
X119700000Y-99174000D01*
X119700000Y-98815045D01*
X120660521Y-98815045D01*
X120662038Y-98826788D01*
X120676012Y-98831000D01*
X121602885Y-98831000D01*
X121618124Y-98826525D01*
X121619329Y-98825135D01*
X121621000Y-98817452D01*
X121621000Y-98549116D01*
X121616525Y-98533877D01*
X121615135Y-98532672D01*
X121607452Y-98531001D01*
X121023160Y-98531001D01*
X121013313Y-98531776D01*
X120933393Y-98544433D01*
X120914767Y-98550485D01*
X120818407Y-98599583D01*
X120802564Y-98611094D01*
X120726094Y-98687564D01*
X120714583Y-98703407D01*
X120665484Y-98799769D01*
X120660521Y-98815045D01*
X119700000Y-98815045D01*
X119700000Y-98063278D01*
X119720002Y-97995157D01*
X119773658Y-97948664D01*
X119843932Y-97938560D01*
X119901565Y-97962452D01*
X119910421Y-97969089D01*
X119926012Y-97977625D01*
X120038689Y-98019865D01*
X120053934Y-98023490D01*
X120101259Y-98028631D01*
X120103693Y-98028763D01*
X120118124Y-98024525D01*
X120119329Y-98023135D01*
X120121000Y-98015452D01*
X120121000Y-98010885D01*
X120629000Y-98010885D01*
X120633475Y-98026124D01*
X120634865Y-98027329D01*
X120642424Y-98028973D01*
X120648741Y-98028631D01*
X120696066Y-98023490D01*
X120711311Y-98019865D01*
X120823988Y-97977625D01*
X120839575Y-97969092D01*
X120935010Y-97897566D01*
X120947566Y-97885010D01*
X121019092Y-97789575D01*
X121027625Y-97773988D01*
X121069865Y-97661311D01*
X121073490Y-97646066D01*
X121078631Y-97598741D01*
X121079000Y-97591927D01*
X121079000Y-97572115D01*
X121074525Y-97556876D01*
X121073135Y-97555671D01*
X121065452Y-97554000D01*
X120647115Y-97554000D01*
X120631876Y-97558475D01*
X120630671Y-97559865D01*
X120629000Y-97567548D01*
X120629000Y-98010885D01*
X120121000Y-98010885D01*
X120121000Y-97172000D01*
X120141002Y-97103879D01*
X120194658Y-97057386D01*
X120247000Y-97046000D01*
X121060885Y-97046000D01*
X121076124Y-97041525D01*
X121077329Y-97040135D01*
X121079000Y-97032452D01*
X121079000Y-97008073D01*
X121078631Y-97001259D01*
X121073490Y-96953934D01*
X121069865Y-96938689D01*
X121027625Y-96826012D01*
X121019092Y-96810425D01*
X120947566Y-96714990D01*
X120935010Y-96702434D01*
X120834128Y-96626826D01*
X120791614Y-96569966D01*
X120786589Y-96499147D01*
X120820649Y-96436854D01*
X120882980Y-96402864D01*
X120909694Y-96400000D01*
X122974000Y-96400000D01*
X123042121Y-96420002D01*
G37*
%TD.AperFunction*%
%TD*%
%TA.AperFunction,Conductor*%
%TO.N,+15V*%
G36*
X91942121Y-94320002D02*
G01*
X91988614Y-94373658D01*
X92000000Y-94426000D01*
X92000000Y-94607563D01*
X91983587Y-94663459D01*
X91979000Y-94684548D01*
X91979000Y-96110885D01*
X91993530Y-96160369D01*
X91994901Y-96162503D01*
X92000000Y-96197986D01*
X92000000Y-98274000D01*
X91979998Y-98342121D01*
X91926342Y-98388614D01*
X91874000Y-98400000D01*
X91221989Y-98400000D01*
X91151986Y-98378764D01*
X91134621Y-98367161D01*
X91134618Y-98367160D01*
X91124301Y-98360266D01*
X91112132Y-98357845D01*
X91112131Y-98357845D01*
X91056135Y-98346707D01*
X91050067Y-98345500D01*
X90300122Y-98345500D01*
X89549934Y-98345501D01*
X89475699Y-98360266D01*
X89465379Y-98367161D01*
X89465378Y-98367162D01*
X89448014Y-98378764D01*
X89378011Y-98400000D01*
X88926000Y-98400000D01*
X88857879Y-98379998D01*
X88811386Y-98326342D01*
X88800000Y-98274000D01*
X88800000Y-97274933D01*
X89320500Y-97274933D01*
X89320501Y-97775066D01*
X89326628Y-97805870D01*
X89330771Y-97826701D01*
X89330771Y-97875861D01*
X89322207Y-97918915D01*
X89321000Y-97931170D01*
X89321000Y-97931885D01*
X89325475Y-97947124D01*
X89326865Y-97948329D01*
X89334548Y-97950000D01*
X89378011Y-97950000D01*
X89448014Y-97971236D01*
X89465379Y-97982839D01*
X89465382Y-97982840D01*
X89475699Y-97989734D01*
X89487868Y-97992155D01*
X89487869Y-97992155D01*
X89542814Y-98003084D01*
X89549933Y-98004500D01*
X90299878Y-98004500D01*
X91050066Y-98004499D01*
X91124301Y-97989734D01*
X91134621Y-97982839D01*
X91134622Y-97982838D01*
X91151986Y-97971236D01*
X91221989Y-97950000D01*
X91260884Y-97950000D01*
X91276123Y-97945525D01*
X91277328Y-97944135D01*
X91278999Y-97936452D01*
X91278999Y-97931172D01*
X91277792Y-97918915D01*
X91269229Y-97875864D01*
X91269229Y-97826703D01*
X91278293Y-97781135D01*
X91279500Y-97775067D01*
X91279499Y-97274934D01*
X91264734Y-97200699D01*
X91208484Y-97116516D01*
X91124301Y-97060266D01*
X91050067Y-97045500D01*
X90300122Y-97045500D01*
X89549934Y-97045501D01*
X89514182Y-97052612D01*
X89487874Y-97057844D01*
X89487872Y-97057845D01*
X89475699Y-97060266D01*
X89465379Y-97067161D01*
X89465378Y-97067162D01*
X89404985Y-97107516D01*
X89391516Y-97116516D01*
X89335266Y-97200699D01*
X89320500Y-97274933D01*
X88800000Y-97274933D01*
X88800000Y-95691927D01*
X91021000Y-95691927D01*
X91021369Y-95698741D01*
X91026510Y-95746066D01*
X91030135Y-95761311D01*
X91072375Y-95873988D01*
X91080908Y-95889575D01*
X91152434Y-95985010D01*
X91164990Y-95997566D01*
X91260425Y-96069092D01*
X91276012Y-96077625D01*
X91388689Y-96119865D01*
X91403934Y-96123490D01*
X91451259Y-96128631D01*
X91453693Y-96128763D01*
X91468124Y-96124525D01*
X91469329Y-96123135D01*
X91471000Y-96115452D01*
X91471000Y-95672115D01*
X91466525Y-95656876D01*
X91465135Y-95655671D01*
X91457452Y-95654000D01*
X91039115Y-95654000D01*
X91023876Y-95658475D01*
X91022671Y-95659865D01*
X91021000Y-95667548D01*
X91021000Y-95691927D01*
X88800000Y-95691927D01*
X88800000Y-95127885D01*
X91021000Y-95127885D01*
X91025475Y-95143124D01*
X91026865Y-95144329D01*
X91034548Y-95146000D01*
X91452885Y-95146000D01*
X91468124Y-95141525D01*
X91469329Y-95140135D01*
X91471000Y-95132452D01*
X91471000Y-94689115D01*
X91466525Y-94673876D01*
X91465135Y-94672671D01*
X91457576Y-94671027D01*
X91451259Y-94671369D01*
X91403934Y-94676510D01*
X91388689Y-94680135D01*
X91276012Y-94722375D01*
X91260425Y-94730908D01*
X91164990Y-94802434D01*
X91152434Y-94814990D01*
X91080908Y-94910425D01*
X91072375Y-94926012D01*
X91030135Y-95038689D01*
X91026510Y-95053934D01*
X91021369Y-95101259D01*
X91021000Y-95108073D01*
X91021000Y-95127885D01*
X88800000Y-95127885D01*
X88800000Y-94426000D01*
X88820002Y-94357879D01*
X88873658Y-94311386D01*
X88926000Y-94300000D01*
X91874000Y-94300000D01*
X91942121Y-94320002D01*
G37*
%TD.AperFunction*%
%TD*%
%TA.AperFunction,Conductor*%
%TO.N,-15V*%
G36*
X85542121Y-80620002D02*
G01*
X85588614Y-80673658D01*
X85600000Y-80726000D01*
X85600000Y-83774000D01*
X85579998Y-83842121D01*
X85526342Y-83888614D01*
X85474000Y-83900000D01*
X81426000Y-83900000D01*
X81357879Y-83879998D01*
X81311386Y-83826342D01*
X81300000Y-83774000D01*
X81300000Y-83560884D01*
X81700000Y-83560884D01*
X81704475Y-83576123D01*
X81705865Y-83577328D01*
X81713548Y-83578999D01*
X81718828Y-83578999D01*
X81731088Y-83577791D01*
X81786931Y-83566685D01*
X81809427Y-83557367D01*
X81872808Y-83515017D01*
X81890017Y-83497808D01*
X81932368Y-83434425D01*
X81941684Y-83411934D01*
X81952793Y-83356085D01*
X81954000Y-83343830D01*
X81954000Y-82843115D01*
X81949525Y-82827876D01*
X81948135Y-82826671D01*
X81940452Y-82825000D01*
X81718115Y-82825000D01*
X81702876Y-82829475D01*
X81701671Y-82830865D01*
X81700000Y-82838548D01*
X81700000Y-83560884D01*
X81300000Y-83560884D01*
X81300000Y-83372690D01*
X81303293Y-83356135D01*
X81304500Y-83350067D01*
X81304499Y-82356885D01*
X81700000Y-82356885D01*
X81704475Y-82372124D01*
X81705865Y-82373329D01*
X81713548Y-82375000D01*
X81935884Y-82375000D01*
X81951123Y-82370525D01*
X81952328Y-82369135D01*
X81953999Y-82361452D01*
X81953999Y-81856172D01*
X81952791Y-81843912D01*
X81941685Y-81788069D01*
X81932367Y-81765573D01*
X81890017Y-81702192D01*
X81872808Y-81684983D01*
X81809425Y-81642632D01*
X81786934Y-81633316D01*
X81731085Y-81622207D01*
X81718830Y-81621000D01*
X81718115Y-81621000D01*
X81702876Y-81625475D01*
X81701671Y-81626865D01*
X81700000Y-81634548D01*
X81700000Y-82356885D01*
X81304499Y-82356885D01*
X81304499Y-81849934D01*
X81300000Y-81827314D01*
X81300000Y-81600000D01*
X78600000Y-81600000D01*
X78600000Y-84174000D01*
X78579998Y-84242121D01*
X78526342Y-84288614D01*
X78474000Y-84300000D01*
X78292437Y-84300000D01*
X78236541Y-84283587D01*
X78215452Y-84279000D01*
X76789115Y-84279000D01*
X76739631Y-84293530D01*
X76737497Y-84294901D01*
X76702014Y-84300000D01*
X76526000Y-84300000D01*
X76457879Y-84279998D01*
X76411386Y-84226342D01*
X76400000Y-84174000D01*
X76400000Y-83753693D01*
X76771237Y-83753693D01*
X76775475Y-83768124D01*
X76776865Y-83769329D01*
X76784548Y-83771000D01*
X77227885Y-83771000D01*
X77243124Y-83766525D01*
X77244329Y-83765135D01*
X77246000Y-83757452D01*
X77246000Y-83752885D01*
X77754000Y-83752885D01*
X77758475Y-83768124D01*
X77759865Y-83769329D01*
X77767548Y-83771000D01*
X78210885Y-83771000D01*
X78226124Y-83766525D01*
X78227329Y-83765135D01*
X78228973Y-83757576D01*
X78228631Y-83751259D01*
X78223490Y-83703934D01*
X78219865Y-83688689D01*
X78177625Y-83576012D01*
X78169092Y-83560425D01*
X78097566Y-83464990D01*
X78085010Y-83452434D01*
X77989575Y-83380908D01*
X77973988Y-83372375D01*
X77861311Y-83330135D01*
X77846066Y-83326510D01*
X77798741Y-83321369D01*
X77791927Y-83321000D01*
X77772115Y-83321000D01*
X77756876Y-83325475D01*
X77755671Y-83326865D01*
X77754000Y-83334548D01*
X77754000Y-83752885D01*
X77246000Y-83752885D01*
X77246000Y-83339115D01*
X77241525Y-83323876D01*
X77240135Y-83322671D01*
X77232452Y-83321000D01*
X77208073Y-83321000D01*
X77201259Y-83321369D01*
X77153934Y-83326510D01*
X77138689Y-83330135D01*
X77026012Y-83372375D01*
X77010425Y-83380908D01*
X76914990Y-83452434D01*
X76902434Y-83464990D01*
X76830908Y-83560425D01*
X76822375Y-83576012D01*
X76780135Y-83688689D01*
X76776510Y-83703934D01*
X76771369Y-83751259D01*
X76771237Y-83753693D01*
X76400000Y-83753693D01*
X76400000Y-80726000D01*
X76420002Y-80657879D01*
X76473658Y-80611386D01*
X76526000Y-80600000D01*
X85474000Y-80600000D01*
X85542121Y-80620002D01*
G37*
%TD.AperFunction*%
%TD*%
%TA.AperFunction,Conductor*%
%TO.N,/FPGA/VCCPLL0*%
G36*
X100184901Y-126550666D02*
G01*
X100917700Y-127283465D01*
X100928566Y-127309699D01*
X100917700Y-127335933D01*
X100166116Y-128087517D01*
X100166116Y-128653202D01*
X100171333Y-128658419D01*
X100917700Y-129404785D01*
X100928566Y-129431019D01*
X100917700Y-129457253D01*
X100840200Y-129534753D01*
X100813966Y-129545619D01*
X100787732Y-129534753D01*
X100609879Y-129356900D01*
X100604662Y-129354739D01*
X100599445Y-129356900D01*
X100098234Y-129858112D01*
X99073495Y-128833373D01*
X99633750Y-128833373D01*
X99635911Y-128838590D01*
X100012406Y-129215085D01*
X100017623Y-129217246D01*
X100022840Y-129215085D01*
X100240235Y-128997690D01*
X100242396Y-128992473D01*
X100240235Y-128987256D01*
X100063009Y-128810030D01*
X100061193Y-128808438D01*
X100026389Y-128781730D01*
X100021477Y-128779035D01*
X99919092Y-128741770D01*
X99912794Y-128740660D01*
X99804253Y-128740660D01*
X99797955Y-128741770D01*
X99695572Y-128779034D01*
X99690656Y-128781732D01*
X99655855Y-128808436D01*
X99654040Y-128810027D01*
X99635911Y-128828156D01*
X99633750Y-128833373D01*
X99073495Y-128833373D01*
X99040615Y-128800493D01*
X99029749Y-128774259D01*
X99040615Y-128748025D01*
X99200818Y-128587821D01*
X99202266Y-128586190D01*
X99216223Y-128568462D01*
X99218947Y-128563674D01*
X99257018Y-128464754D01*
X99258246Y-128458127D01*
X99258155Y-128352773D01*
X99256916Y-128346154D01*
X99218674Y-128247303D01*
X99215936Y-128242513D01*
X99202252Y-128225218D01*
X99200833Y-128223623D01*
X99177990Y-128200780D01*
X99172773Y-128198619D01*
X99167556Y-128200780D01*
X98804229Y-128564107D01*
X98447847Y-128207725D01*
X98849892Y-127805680D01*
X98849894Y-127805679D01*
X98868669Y-127786904D01*
X99747123Y-127786904D01*
X99748293Y-127789728D01*
X99786608Y-127815331D01*
X99793234Y-127818075D01*
X99893831Y-127838085D01*
X99901001Y-127838085D01*
X100001598Y-127818075D01*
X100008224Y-127815331D01*
X100071970Y-127772736D01*
X100074770Y-127770438D01*
X100102349Y-127742858D01*
X100104511Y-127737639D01*
X100102350Y-127732423D01*
X99955666Y-127585739D01*
X99950449Y-127583578D01*
X99945232Y-127585739D01*
X99749284Y-127781687D01*
X99747123Y-127786904D01*
X98868669Y-127786904D01*
X99291976Y-127363596D01*
X99318210Y-127352730D01*
X99344444Y-127363596D01*
X99352486Y-127375632D01*
X99356430Y-127385153D01*
X99380754Y-127421557D01*
X99385452Y-127424696D01*
X99388450Y-127424099D01*
X99591238Y-127221311D01*
X100312716Y-127221311D01*
X100314877Y-127226528D01*
X100461561Y-127373212D01*
X100466778Y-127375373D01*
X100471995Y-127373212D01*
X100499576Y-127345631D01*
X100501874Y-127342830D01*
X100544469Y-127279086D01*
X100547213Y-127272460D01*
X100567223Y-127171863D01*
X100567223Y-127164693D01*
X100547213Y-127064096D01*
X100544468Y-127057470D01*
X100520144Y-127021065D01*
X100515446Y-127017926D01*
X100512448Y-127018523D01*
X100314877Y-127216094D01*
X100312716Y-127221311D01*
X99591238Y-127221311D01*
X99829675Y-126982875D01*
X100151614Y-126660935D01*
X100153775Y-126655718D01*
X100152605Y-126652894D01*
X100114289Y-126627291D01*
X100104770Y-126623348D01*
X100084691Y-126603270D01*
X100084691Y-126574875D01*
X100092733Y-126562838D01*
X100104905Y-126550666D01*
X100131139Y-126539800D01*
X100158667Y-126539800D01*
X100184901Y-126550666D01*
G37*
%TD.AperFunction*%
%TD*%
%TA.AperFunction,Conductor*%
%TO.N,-15V*%
G36*
X96642121Y-94320002D02*
G01*
X96688614Y-94373658D01*
X96700000Y-94426000D01*
X96700000Y-100474000D01*
X96679998Y-100542121D01*
X96626342Y-100588614D01*
X96574000Y-100600000D01*
X93667671Y-100600000D01*
X93599550Y-100579998D01*
X93578576Y-100563095D01*
X93436905Y-100421424D01*
X93402879Y-100359112D01*
X93400000Y-100332329D01*
X93400000Y-99718828D01*
X93721001Y-99718828D01*
X93722209Y-99731088D01*
X93733315Y-99786931D01*
X93742633Y-99809427D01*
X93784983Y-99872808D01*
X93802192Y-99890017D01*
X93865575Y-99932368D01*
X93888066Y-99941684D01*
X93943915Y-99952793D01*
X93956170Y-99954000D01*
X94456885Y-99954000D01*
X94472124Y-99949525D01*
X94473329Y-99948135D01*
X94475000Y-99940452D01*
X94475000Y-99935884D01*
X94925000Y-99935884D01*
X94929475Y-99951123D01*
X94930865Y-99952328D01*
X94938548Y-99953999D01*
X95443828Y-99953999D01*
X95456088Y-99952791D01*
X95511931Y-99941685D01*
X95534427Y-99932367D01*
X95597808Y-99890017D01*
X95615017Y-99872808D01*
X95657368Y-99809425D01*
X95666684Y-99786934D01*
X95677793Y-99731085D01*
X95679000Y-99718830D01*
X95679000Y-99718115D01*
X95674525Y-99702876D01*
X95673135Y-99701671D01*
X95665452Y-99700000D01*
X94943115Y-99700000D01*
X94927876Y-99704475D01*
X94926671Y-99705865D01*
X94925000Y-99713548D01*
X94925000Y-99935884D01*
X94475000Y-99935884D01*
X94475000Y-99718115D01*
X94470525Y-99702876D01*
X94469135Y-99701671D01*
X94461452Y-99700000D01*
X93739116Y-99700000D01*
X93723877Y-99704475D01*
X93722672Y-99705865D01*
X93721001Y-99713548D01*
X93721001Y-99718828D01*
X93400000Y-99718828D01*
X93400000Y-99326000D01*
X93420002Y-99257879D01*
X93473658Y-99211386D01*
X93526000Y-99200000D01*
X93624095Y-99200000D01*
X93692216Y-99220002D01*
X93706607Y-99230775D01*
X93726865Y-99248329D01*
X93734548Y-99250000D01*
X93778011Y-99250000D01*
X93848014Y-99271236D01*
X93865379Y-99282839D01*
X93865382Y-99282840D01*
X93875699Y-99289734D01*
X93887868Y-99292155D01*
X93887869Y-99292155D01*
X93942814Y-99303084D01*
X93949933Y-99304500D01*
X94699878Y-99304500D01*
X95450066Y-99304499D01*
X95524301Y-99289734D01*
X95534621Y-99282839D01*
X95534622Y-99282838D01*
X95551986Y-99271236D01*
X95621989Y-99250000D01*
X95660884Y-99250000D01*
X95676123Y-99245525D01*
X95677328Y-99244135D01*
X95677975Y-99241160D01*
X95695880Y-99205391D01*
X95697053Y-99200000D01*
X95700000Y-99200000D01*
X95700000Y-96500000D01*
X93126000Y-96500000D01*
X93057879Y-96479998D01*
X93011386Y-96426342D01*
X93000000Y-96374000D01*
X93000000Y-96192437D01*
X93016413Y-96136541D01*
X93021000Y-96115452D01*
X93021000Y-96110885D01*
X93529000Y-96110885D01*
X93533475Y-96126124D01*
X93534865Y-96127329D01*
X93542424Y-96128973D01*
X93548741Y-96128631D01*
X93596066Y-96123490D01*
X93611311Y-96119865D01*
X93723988Y-96077625D01*
X93739575Y-96069092D01*
X93835010Y-95997566D01*
X93847566Y-95985010D01*
X93919092Y-95889575D01*
X93927625Y-95873988D01*
X93969865Y-95761311D01*
X93973490Y-95746066D01*
X93978631Y-95698741D01*
X93979000Y-95691927D01*
X93979000Y-95672115D01*
X93974525Y-95656876D01*
X93973135Y-95655671D01*
X93965452Y-95654000D01*
X93547115Y-95654000D01*
X93531876Y-95658475D01*
X93530671Y-95659865D01*
X93529000Y-95667548D01*
X93529000Y-96110885D01*
X93021000Y-96110885D01*
X93021000Y-95127885D01*
X93529000Y-95127885D01*
X93533475Y-95143124D01*
X93534865Y-95144329D01*
X93542548Y-95146000D01*
X93960885Y-95146000D01*
X93976124Y-95141525D01*
X93977329Y-95140135D01*
X93979000Y-95132452D01*
X93979000Y-95108073D01*
X93978631Y-95101259D01*
X93973490Y-95053934D01*
X93969865Y-95038689D01*
X93927625Y-94926012D01*
X93919092Y-94910425D01*
X93847566Y-94814990D01*
X93835010Y-94802434D01*
X93739575Y-94730908D01*
X93723988Y-94722375D01*
X93611311Y-94680135D01*
X93596066Y-94676510D01*
X93548741Y-94671369D01*
X93546307Y-94671237D01*
X93531876Y-94675475D01*
X93530671Y-94676865D01*
X93529000Y-94684548D01*
X93529000Y-95127885D01*
X93021000Y-95127885D01*
X93021000Y-94689115D01*
X93006470Y-94639631D01*
X93005099Y-94637497D01*
X93000000Y-94602014D01*
X93000000Y-94426000D01*
X93020002Y-94357879D01*
X93073658Y-94311386D01*
X93126000Y-94300000D01*
X96574000Y-94300000D01*
X96642121Y-94320002D01*
G37*
%TD.AperFunction*%
%TD*%
%TA.AperFunction,Conductor*%
%TO.N,+3.3V*%
G36*
X82374334Y-115710866D02*
G01*
X82385200Y-115737100D01*
X82385200Y-116262440D01*
X82382839Y-116275463D01*
X82380674Y-116281238D01*
X82384369Y-116298400D01*
X82384674Y-116301268D01*
X82384823Y-116301247D01*
X82385200Y-116303872D01*
X82385200Y-116306522D01*
X82385946Y-116309065D01*
X82388265Y-116316971D01*
X82388934Y-116319605D01*
X82394852Y-116347090D01*
X82395186Y-116347537D01*
X82396664Y-116349015D01*
X82396745Y-116349193D01*
X82397002Y-116349489D01*
X82396968Y-116349518D01*
X82398299Y-116351171D01*
X82399316Y-116354638D01*
X82403341Y-116358131D01*
X82403342Y-116358132D01*
X82420785Y-116373268D01*
X82422704Y-116375055D01*
X89529337Y-123481689D01*
X89536876Y-123492568D01*
X89539428Y-123498180D01*
X89543904Y-123501070D01*
X89554173Y-123507701D01*
X89556419Y-123509515D01*
X89556509Y-123509395D01*
X89558634Y-123510986D01*
X89560507Y-123512859D01*
X89562832Y-123514129D01*
X89562837Y-123514133D01*
X89570072Y-123518086D01*
X89572403Y-123519472D01*
X89577977Y-123523071D01*
X89588106Y-123529611D01*
X89596018Y-123534720D01*
X89596570Y-123534800D01*
X89598661Y-123534800D01*
X89598840Y-123534867D01*
X89599240Y-123534896D01*
X89599237Y-123534942D01*
X89601341Y-123535169D01*
X89604512Y-123536901D01*
X89609827Y-123536525D01*
X89609829Y-123536525D01*
X89632870Y-123534893D01*
X89635490Y-123534800D01*
X90677024Y-123534800D01*
X90703328Y-123545738D01*
X91283025Y-124128585D01*
X91284531Y-124130099D01*
X91295326Y-124156362D01*
X91284388Y-124182566D01*
X91278838Y-124187108D01*
X91219357Y-124226852D01*
X91219354Y-124226855D01*
X91216316Y-124228885D01*
X91214286Y-124231923D01*
X91193557Y-124262946D01*
X91158453Y-124315483D01*
X91138134Y-124417632D01*
X91158453Y-124519781D01*
X91177841Y-124548797D01*
X91211259Y-124598810D01*
X91216316Y-124606379D01*
X91219354Y-124608409D01*
X91220881Y-124609429D01*
X91302914Y-124664242D01*
X91405063Y-124684561D01*
X91507212Y-124664242D01*
X91589245Y-124609429D01*
X91590772Y-124608409D01*
X91593810Y-124606379D01*
X91595840Y-124603341D01*
X91595843Y-124603338D01*
X91634701Y-124545184D01*
X91658310Y-124529409D01*
X91686160Y-124534949D01*
X91691849Y-124539630D01*
X92093487Y-124943452D01*
X92098689Y-124951261D01*
X92098905Y-124951116D01*
X92152871Y-125031881D01*
X92156768Y-125037714D01*
X92243366Y-125095577D01*
X92345515Y-125115896D01*
X92447664Y-125095577D01*
X92534262Y-125037714D01*
X92538160Y-125031881D01*
X92590095Y-124954154D01*
X92592125Y-124951116D01*
X92612444Y-124848967D01*
X92601767Y-124795291D01*
X92607306Y-124767441D01*
X92630916Y-124751666D01*
X92645392Y-124751666D01*
X92695485Y-124761630D01*
X92699069Y-124762343D01*
X92801218Y-124742024D01*
X92887816Y-124684161D01*
X92889846Y-124681123D01*
X92889848Y-124681121D01*
X92900338Y-124665421D01*
X92923948Y-124649645D01*
X92951797Y-124655184D01*
X92962033Y-124665420D01*
X92974347Y-124683848D01*
X92997438Y-124718406D01*
X93268036Y-124989004D01*
X93321623Y-125024810D01*
X93406175Y-125041629D01*
X93490727Y-125024810D01*
X93493764Y-125022780D01*
X93493768Y-125022779D01*
X93509403Y-125012332D01*
X93537252Y-125006793D01*
X93560862Y-125022569D01*
X93568950Y-125034674D01*
X93568952Y-125034676D01*
X93570982Y-125037714D01*
X93657580Y-125095577D01*
X93759729Y-125115896D01*
X93861878Y-125095577D01*
X93948476Y-125037714D01*
X93952374Y-125031881D01*
X94004309Y-124954154D01*
X94006339Y-124951116D01*
X94026658Y-124848967D01*
X94006339Y-124746818D01*
X93948476Y-124660220D01*
X93861878Y-124602357D01*
X93850512Y-124600096D01*
X93843696Y-124598740D01*
X93820087Y-124582964D01*
X93814548Y-124569591D01*
X93811958Y-124556569D01*
X93808292Y-124538141D01*
X93772486Y-124484554D01*
X93501888Y-124213956D01*
X93448301Y-124178150D01*
X93363749Y-124161331D01*
X93360165Y-124162044D01*
X93356511Y-124162044D01*
X93356511Y-124160847D01*
X93333497Y-124156270D01*
X93317721Y-124132660D01*
X93309479Y-124091226D01*
X93315018Y-124063377D01*
X93338628Y-124047601D01*
X93353104Y-124047601D01*
X93396415Y-124056216D01*
X93396416Y-124056216D01*
X93400000Y-124056929D01*
X93502149Y-124036610D01*
X93588747Y-123978747D01*
X93589531Y-123979920D01*
X93610704Y-123971150D01*
X93636938Y-123982016D01*
X93641544Y-123987628D01*
X93676260Y-124039584D01*
X93946858Y-124310182D01*
X94000445Y-124345988D01*
X94017137Y-124349309D01*
X94037795Y-124353418D01*
X94061404Y-124369194D01*
X94066943Y-124382566D01*
X94067595Y-124385842D01*
X94071733Y-124406644D01*
X94076680Y-124414048D01*
X94123202Y-124483672D01*
X94129596Y-124493242D01*
X94216194Y-124551105D01*
X94318343Y-124571424D01*
X94420492Y-124551105D01*
X94507090Y-124493242D01*
X94513485Y-124483672D01*
X94560006Y-124414048D01*
X94564953Y-124406644D01*
X94585272Y-124304495D01*
X94564953Y-124202346D01*
X94507090Y-124115748D01*
X94504052Y-124113718D01*
X94504050Y-124113716D01*
X94483790Y-124100179D01*
X94468014Y-124076569D01*
X94473553Y-124048720D01*
X94485083Y-124031464D01*
X94485084Y-124031460D01*
X94487114Y-124028423D01*
X94503933Y-123943871D01*
X94487114Y-123859319D01*
X94451308Y-123805732D01*
X94180710Y-123535134D01*
X94149280Y-123514133D01*
X94127724Y-123499729D01*
X94111949Y-123476119D01*
X94117489Y-123448270D01*
X94127724Y-123438034D01*
X94143428Y-123427541D01*
X94146466Y-123425511D01*
X94168028Y-123393242D01*
X94202299Y-123341951D01*
X94204329Y-123338913D01*
X94224648Y-123236764D01*
X94213971Y-123183088D01*
X94219510Y-123155238D01*
X94243120Y-123139463D01*
X94257596Y-123139463D01*
X94311272Y-123150140D01*
X94413421Y-123129821D01*
X94500019Y-123071958D01*
X94557882Y-122985360D01*
X94578201Y-122883211D01*
X94568697Y-122835432D01*
X94574236Y-122807582D01*
X94597846Y-122791807D01*
X94612322Y-122791807D01*
X94668312Y-122802944D01*
X94668313Y-122802944D01*
X94671897Y-122803657D01*
X94675481Y-122802944D01*
X94675482Y-122802944D01*
X94716746Y-122794736D01*
X94744596Y-122800275D01*
X94760371Y-122823885D01*
X94760371Y-122838361D01*
X94752699Y-122876933D01*
X94751450Y-122883211D01*
X94771769Y-122985360D01*
X94829632Y-123071958D01*
X94916230Y-123129821D01*
X95018379Y-123150140D01*
X95021963Y-123149427D01*
X95044134Y-123145017D01*
X95072055Y-123139463D01*
X95099905Y-123145002D01*
X95115680Y-123168612D01*
X95115680Y-123183088D01*
X95105003Y-123236764D01*
X95125322Y-123338913D01*
X95127352Y-123341951D01*
X95161624Y-123393242D01*
X95183185Y-123425511D01*
X95186223Y-123427541D01*
X95211025Y-123444113D01*
X95226800Y-123467723D01*
X95221261Y-123495573D01*
X95209058Y-123505589D01*
X95209599Y-123506399D01*
X95156012Y-123542205D01*
X94885414Y-123812803D01*
X94849608Y-123866390D01*
X94832789Y-123950942D01*
X94849608Y-124035494D01*
X94851639Y-124038533D01*
X94851639Y-124038534D01*
X94855553Y-124044391D01*
X94861093Y-124072240D01*
X94845317Y-124095850D01*
X94836703Y-124101606D01*
X94778840Y-124188204D01*
X94758521Y-124290353D01*
X94778840Y-124392502D01*
X94836703Y-124479100D01*
X94839741Y-124481130D01*
X94853321Y-124490204D01*
X94923301Y-124536963D01*
X95025450Y-124557282D01*
X95127599Y-124536963D01*
X95197579Y-124490204D01*
X95211159Y-124481130D01*
X95214197Y-124479100D01*
X95220721Y-124469336D01*
X95270031Y-124395539D01*
X95270031Y-124395538D01*
X95272060Y-124392502D01*
X95272773Y-124388917D01*
X95274170Y-124385544D01*
X95274889Y-124385842D01*
X95288522Y-124365438D01*
X95301896Y-124359898D01*
X95313067Y-124357676D01*
X95336277Y-124353059D01*
X95389864Y-124317253D01*
X95660462Y-124046655D01*
X95696268Y-123993068D01*
X95713087Y-123908516D01*
X95712374Y-123904932D01*
X95712374Y-123901278D01*
X95713569Y-123901278D01*
X95718150Y-123878260D01*
X95741758Y-123862487D01*
X95825521Y-123845825D01*
X95834706Y-123843998D01*
X95921304Y-123786135D01*
X95979167Y-123699537D01*
X95999486Y-123597388D01*
X95987055Y-123534893D01*
X95986004Y-123529611D01*
X95991543Y-123501761D01*
X95996157Y-123496139D01*
X96132296Y-123360000D01*
X96169915Y-123322382D01*
X96196148Y-123311516D01*
X96222382Y-123322382D01*
X96351466Y-123451466D01*
X96362332Y-123477700D01*
X96356080Y-123498309D01*
X96331653Y-123534867D01*
X96326750Y-123542205D01*
X96320333Y-123551808D01*
X96300014Y-123653957D01*
X96320333Y-123756106D01*
X96322364Y-123759146D01*
X96322365Y-123759148D01*
X96373141Y-123835140D01*
X96378681Y-123862990D01*
X96362906Y-123886599D01*
X96335056Y-123892139D01*
X96284100Y-123882003D01*
X96181951Y-123902322D01*
X96095353Y-123960185D01*
X96093323Y-123963223D01*
X96073381Y-123993068D01*
X96037490Y-124046783D01*
X96036777Y-124050368D01*
X96019001Y-124139731D01*
X96003225Y-124163341D01*
X95980211Y-124167918D01*
X95980211Y-124169115D01*
X95976557Y-124169115D01*
X95972973Y-124168402D01*
X95888421Y-124185221D01*
X95834834Y-124221027D01*
X95564236Y-124491625D01*
X95528430Y-124545212D01*
X95527717Y-124548797D01*
X95523929Y-124567837D01*
X95508153Y-124591446D01*
X95494780Y-124596985D01*
X95491874Y-124597563D01*
X95467773Y-124602357D01*
X95381175Y-124660220D01*
X95323312Y-124746818D01*
X95302993Y-124848967D01*
X95323312Y-124951116D01*
X95325342Y-124954154D01*
X95377278Y-125031881D01*
X95381175Y-125037714D01*
X95467773Y-125095577D01*
X95569922Y-125115896D01*
X95672071Y-125095577D01*
X95758669Y-125037714D01*
X95760699Y-125034676D01*
X95760701Y-125034674D01*
X95767706Y-125024190D01*
X95791316Y-125008414D01*
X95819166Y-125013954D01*
X95836480Y-125025523D01*
X95845995Y-125031881D01*
X95930547Y-125048700D01*
X96015099Y-125031881D01*
X96068686Y-124996075D01*
X96339284Y-124725477D01*
X96375090Y-124671890D01*
X96391909Y-124587338D01*
X96375090Y-124502786D01*
X96371177Y-124496929D01*
X96351709Y-124467794D01*
X96343995Y-124456249D01*
X96338455Y-124428400D01*
X96354230Y-124404791D01*
X96367604Y-124399251D01*
X96375882Y-124397604D01*
X96386249Y-124395542D01*
X96460412Y-124345988D01*
X96469809Y-124339709D01*
X96472847Y-124337679D01*
X96478313Y-124329498D01*
X96516364Y-124272551D01*
X96539403Y-124256894D01*
X96542692Y-124256186D01*
X96548564Y-124254922D01*
X96548565Y-124254922D01*
X96552474Y-124254080D01*
X96552921Y-124253746D01*
X96554400Y-124252267D01*
X96554576Y-124252187D01*
X96554873Y-124251930D01*
X96554902Y-124251964D01*
X96556555Y-124250633D01*
X96560022Y-124249616D01*
X96565257Y-124243584D01*
X96578651Y-124228148D01*
X96580438Y-124226229D01*
X96827100Y-123979568D01*
X96853334Y-123968702D01*
X96879568Y-123979568D01*
X97065644Y-124165644D01*
X97076510Y-124191878D01*
X97070258Y-124212487D01*
X97049480Y-124243584D01*
X97038473Y-124260057D01*
X97034511Y-124265986D01*
X97014192Y-124368135D01*
X97034511Y-124470284D01*
X97036542Y-124473324D01*
X97036543Y-124473326D01*
X97082954Y-124542785D01*
X97088494Y-124570635D01*
X97072719Y-124594244D01*
X97044869Y-124599784D01*
X96994792Y-124589823D01*
X96994791Y-124589823D01*
X96991207Y-124589110D01*
X96889058Y-124609429D01*
X96886020Y-124611459D01*
X96805958Y-124664955D01*
X96802460Y-124667292D01*
X96744597Y-124753890D01*
X96724278Y-124856039D01*
X96744597Y-124958188D01*
X96746627Y-124961226D01*
X96800351Y-125041629D01*
X96802460Y-125044786D01*
X96889058Y-125102649D01*
X96991207Y-125122968D01*
X97093356Y-125102649D01*
X97179954Y-125044786D01*
X97182064Y-125041629D01*
X97235787Y-124961226D01*
X97237817Y-124958188D01*
X97258136Y-124856039D01*
X97259705Y-124856351D01*
X97268289Y-124835627D01*
X97294523Y-124824761D01*
X97709393Y-124824761D01*
X97735627Y-124835627D01*
X97772750Y-124872750D01*
X97783616Y-124898984D01*
X97777363Y-124919595D01*
X97763836Y-124939840D01*
X97749403Y-124961441D01*
X97741617Y-124973093D01*
X97721298Y-125075242D01*
X97741617Y-125177391D01*
X97799480Y-125263989D01*
X97883513Y-125320138D01*
X97899287Y-125343747D01*
X97900000Y-125350985D01*
X97900000Y-125700588D01*
X97889134Y-125726822D01*
X97870138Y-125736975D01*
X97834999Y-125743965D01*
X97815368Y-125747870D01*
X97728770Y-125805733D01*
X97726742Y-125808768D01*
X97726740Y-125808770D01*
X97710947Y-125832406D01*
X97687337Y-125848181D01*
X97659488Y-125842641D01*
X97653866Y-125838028D01*
X97495584Y-125679745D01*
X97317295Y-125501456D01*
X97309756Y-125490577D01*
X97309410Y-125489816D01*
X97309409Y-125489815D01*
X97307204Y-125484965D01*
X97292460Y-125475444D01*
X97290214Y-125473631D01*
X97290124Y-125473751D01*
X97287999Y-125472160D01*
X97286125Y-125470286D01*
X97276564Y-125465063D01*
X97274225Y-125463671D01*
X97265377Y-125457958D01*
X97250614Y-125448425D01*
X97250062Y-125448345D01*
X97247971Y-125448345D01*
X97247792Y-125448278D01*
X97247392Y-125448249D01*
X97247401Y-125448131D01*
X97242913Y-125446449D01*
X97243142Y-125445838D01*
X97222961Y-125437479D01*
X97218348Y-125431857D01*
X97181987Y-125377439D01*
X97181984Y-125377436D01*
X97179954Y-125374398D01*
X97093356Y-125316535D01*
X96991207Y-125296216D01*
X96889058Y-125316535D01*
X96802460Y-125374398D01*
X96800430Y-125377436D01*
X96791955Y-125390120D01*
X96744597Y-125460996D01*
X96724278Y-125563145D01*
X96724991Y-125566729D01*
X96734955Y-125616822D01*
X96729416Y-125644672D01*
X96705806Y-125660447D01*
X96691330Y-125660447D01*
X96641237Y-125650483D01*
X96637653Y-125649770D01*
X96535504Y-125670089D01*
X96448906Y-125727952D01*
X96446876Y-125730990D01*
X96446873Y-125730993D01*
X96433919Y-125750380D01*
X96410310Y-125766155D01*
X96382460Y-125760615D01*
X96368796Y-125743965D01*
X96368731Y-125743809D01*
X96368018Y-125740223D01*
X96332212Y-125686636D01*
X96061614Y-125416038D01*
X96008027Y-125380232D01*
X95923475Y-125363413D01*
X95838923Y-125380232D01*
X95835884Y-125382262D01*
X95835883Y-125382263D01*
X95821871Y-125391626D01*
X95794021Y-125397166D01*
X95770412Y-125381391D01*
X95765740Y-125374398D01*
X95679142Y-125316535D01*
X95576993Y-125296216D01*
X95474844Y-125316535D01*
X95388246Y-125374398D01*
X95386216Y-125377436D01*
X95377741Y-125390120D01*
X95330383Y-125460996D01*
X95310064Y-125563145D01*
X95330383Y-125665294D01*
X95388246Y-125751892D01*
X95474844Y-125809755D01*
X95478429Y-125810468D01*
X95487126Y-125812198D01*
X95510735Y-125827973D01*
X95516275Y-125841347D01*
X95521358Y-125866901D01*
X95557164Y-125920488D01*
X95827762Y-126191086D01*
X95881349Y-126226892D01*
X95946220Y-126239796D01*
X95962317Y-126242998D01*
X95965901Y-126243711D01*
X95969485Y-126242998D01*
X95973139Y-126242998D01*
X95973139Y-126244193D01*
X95996157Y-126248774D01*
X96011930Y-126272382D01*
X96020494Y-126315435D01*
X96030419Y-126365330D01*
X96088282Y-126451928D01*
X96174880Y-126509791D01*
X96277029Y-126530110D01*
X96280613Y-126529397D01*
X96280614Y-126529397D01*
X96344295Y-126516730D01*
X96372145Y-126522269D01*
X96387920Y-126545879D01*
X96382380Y-126573729D01*
X96329436Y-126652965D01*
X96329435Y-126652967D01*
X96327404Y-126656007D01*
X96307085Y-126758156D01*
X96327404Y-126860305D01*
X96333821Y-126869908D01*
X96375196Y-126931830D01*
X96385267Y-126946903D01*
X96471865Y-127004766D01*
X96574014Y-127025085D01*
X96577598Y-127024372D01*
X96590750Y-127021756D01*
X96617027Y-127016529D01*
X96641791Y-127011603D01*
X96669641Y-127017142D01*
X96675263Y-127021756D01*
X97889134Y-128235628D01*
X97900000Y-128261862D01*
X97900000Y-129024548D01*
X97889134Y-129050782D01*
X97862900Y-129061648D01*
X97836666Y-129050782D01*
X97689803Y-128903920D01*
X97689032Y-128903149D01*
X97683209Y-128898564D01*
X97670408Y-128888484D01*
X97670405Y-128888482D01*
X97668219Y-128886761D01*
X97665621Y-128885761D01*
X97665619Y-128885760D01*
X97663646Y-128885001D01*
X97643066Y-128865437D01*
X97639872Y-128850377D01*
X97639872Y-128839861D01*
X97642233Y-128826838D01*
X97642527Y-128826053D01*
X97644398Y-128821063D01*
X97640703Y-128803901D01*
X97640398Y-128801033D01*
X97640249Y-128801054D01*
X97639872Y-128798429D01*
X97639872Y-128795779D01*
X97636807Y-128785330D01*
X97636138Y-128782696D01*
X97632723Y-128766838D01*
X97630220Y-128755211D01*
X97629886Y-128754764D01*
X97628408Y-128753286D01*
X97628327Y-128753108D01*
X97628070Y-128752812D01*
X97628104Y-128752783D01*
X97626773Y-128751130D01*
X97625756Y-128747663D01*
X97618407Y-128741285D01*
X97604288Y-128729033D01*
X97602370Y-128727247D01*
X96353197Y-127478074D01*
X96342331Y-127451840D01*
X96342331Y-127344331D01*
X96344692Y-127331308D01*
X96344986Y-127330523D01*
X96346857Y-127325533D01*
X96343162Y-127308371D01*
X96342857Y-127305504D01*
X96342708Y-127305525D01*
X96342331Y-127302901D01*
X96342331Y-127300248D01*
X96341301Y-127296735D01*
X96339266Y-127289802D01*
X96338596Y-127287165D01*
X96337547Y-127282292D01*
X96332679Y-127259680D01*
X96332346Y-127259233D01*
X96330881Y-127257768D01*
X96330803Y-127257596D01*
X96330512Y-127257260D01*
X96330546Y-127257230D01*
X96329232Y-127255598D01*
X96328215Y-127252132D01*
X96324081Y-127248544D01*
X96306754Y-127233509D01*
X96304835Y-127231722D01*
X95996157Y-126923044D01*
X95985291Y-126896810D01*
X95986004Y-126889572D01*
X95996805Y-126835271D01*
X95999486Y-126821795D01*
X95979167Y-126719646D01*
X95941816Y-126663747D01*
X95923334Y-126636086D01*
X95921304Y-126633048D01*
X95834706Y-126575185D01*
X95733602Y-126555074D01*
X95709992Y-126539299D01*
X95704453Y-126511449D01*
X95705302Y-126507181D01*
X95706015Y-126503597D01*
X95689196Y-126419045D01*
X95653390Y-126365458D01*
X95382792Y-126094860D01*
X95329205Y-126059054D01*
X95297754Y-126052798D01*
X95274144Y-126037023D01*
X95268605Y-126023648D01*
X95266848Y-126014815D01*
X95264989Y-126005469D01*
X95212856Y-125927447D01*
X95209156Y-125921909D01*
X95207126Y-125918871D01*
X95120528Y-125861008D01*
X95018379Y-125840689D01*
X94916230Y-125861008D01*
X94829632Y-125918871D01*
X94827602Y-125921909D01*
X94823902Y-125927447D01*
X94771769Y-126005469D01*
X94751450Y-126107618D01*
X94771769Y-126209767D01*
X94829632Y-126296365D01*
X94832670Y-126298395D01*
X94832672Y-126298397D01*
X94844777Y-126306485D01*
X94860553Y-126330095D01*
X94855014Y-126357944D01*
X94850853Y-126364172D01*
X94842536Y-126376619D01*
X94825717Y-126461171D01*
X94842536Y-126545723D01*
X94878342Y-126599310D01*
X95148940Y-126869908D01*
X95202527Y-126905714D01*
X95287079Y-126922533D01*
X95371631Y-126905714D01*
X95423170Y-126871277D01*
X95451018Y-126865738D01*
X95474628Y-126881513D01*
X95480167Y-126894887D01*
X95485947Y-126923944D01*
X95543810Y-127010542D01*
X95546848Y-127012572D01*
X95559378Y-127020944D01*
X95630408Y-127068405D01*
X95732557Y-127088724D01*
X95736141Y-127088011D01*
X95749293Y-127085395D01*
X95800334Y-127075242D01*
X95828184Y-127080781D01*
X95833805Y-127085395D01*
X95904799Y-127156389D01*
X96101865Y-127353456D01*
X96112731Y-127379690D01*
X96112731Y-127487200D01*
X96110370Y-127500223D01*
X96108205Y-127505998D01*
X96111900Y-127523160D01*
X96112205Y-127526028D01*
X96112354Y-127526007D01*
X96112731Y-127528632D01*
X96112731Y-127531282D01*
X96113477Y-127533825D01*
X96115796Y-127541731D01*
X96116465Y-127544365D01*
X96122383Y-127571850D01*
X96122717Y-127572297D01*
X96124195Y-127573775D01*
X96124276Y-127573953D01*
X96124533Y-127574249D01*
X96124499Y-127574278D01*
X96125830Y-127575931D01*
X96126847Y-127579398D01*
X96130873Y-127582891D01*
X96130873Y-127582892D01*
X96148315Y-127598028D01*
X96150233Y-127599814D01*
X96649706Y-128099287D01*
X96660572Y-128125521D01*
X96649706Y-128151755D01*
X96630710Y-128161908D01*
X96547851Y-128178390D01*
X96461253Y-128236253D01*
X96403390Y-128322851D01*
X96383071Y-128425000D01*
X96403390Y-128527149D01*
X96461253Y-128613747D01*
X96547851Y-128671610D01*
X96650000Y-128691929D01*
X96752149Y-128671610D01*
X96838747Y-128613747D01*
X96896610Y-128527149D01*
X96912109Y-128449230D01*
X96913092Y-128444290D01*
X96928867Y-128420680D01*
X96956717Y-128415141D01*
X96975713Y-128425294D01*
X97371698Y-128821279D01*
X97382564Y-128847513D01*
X97371698Y-128873747D01*
X97358850Y-128882114D01*
X97346113Y-128887041D01*
X97325756Y-128903147D01*
X96944168Y-129284737D01*
X96943491Y-129285597D01*
X96929503Y-129303361D01*
X96929501Y-129303364D01*
X96927780Y-129305550D01*
X96887409Y-129410442D01*
X96887508Y-129522835D01*
X96888744Y-129526030D01*
X96923648Y-129616251D01*
X96928060Y-129627656D01*
X96944166Y-129648013D01*
X97361112Y-130064957D01*
X97361972Y-130065634D01*
X97379736Y-130079622D01*
X97379739Y-130079624D01*
X97381925Y-130081345D01*
X97486817Y-130121716D01*
X97490244Y-130121713D01*
X97544289Y-130121665D01*
X97599209Y-130121617D01*
X97613170Y-130116216D01*
X97701429Y-130082072D01*
X97701431Y-130082071D01*
X97704031Y-130081065D01*
X97724388Y-130064959D01*
X97807774Y-129981573D01*
X97834008Y-129970707D01*
X97860242Y-129981573D01*
X97889134Y-130010465D01*
X97900000Y-130036699D01*
X97900000Y-130551794D01*
X97892333Y-130574378D01*
X97874173Y-130598045D01*
X97873204Y-130600707D01*
X97873203Y-130600709D01*
X97847704Y-130670770D01*
X97834769Y-130706309D01*
X97834769Y-130821521D01*
X97835879Y-130824570D01*
X97835879Y-130824572D01*
X97853411Y-130872741D01*
X97874173Y-130929785D01*
X97882898Y-130941155D01*
X97892333Y-130953451D01*
X97900000Y-130976036D01*
X97900000Y-132712900D01*
X97889134Y-132739134D01*
X97862900Y-132750000D01*
X96692046Y-132750000D01*
X96665812Y-132739134D01*
X96654946Y-132712900D01*
X96657555Y-132701546D01*
X96656848Y-132701320D01*
X96657652Y-132698802D01*
X96658804Y-132696423D01*
X96681458Y-132561767D01*
X96681602Y-132550000D01*
X96681135Y-132546735D01*
X96662619Y-132417447D01*
X96662619Y-132417446D01*
X96662244Y-132414830D01*
X96605727Y-132290527D01*
X96604003Y-132288526D01*
X96604001Y-132288523D01*
X96516593Y-132187082D01*
X96517595Y-132186218D01*
X96506930Y-132164724D01*
X96515992Y-132137813D01*
X96536706Y-132125821D01*
X96616139Y-132110020D01*
X96669726Y-132074214D01*
X96940324Y-131803616D01*
X96976130Y-131750029D01*
X96992949Y-131665477D01*
X96976130Y-131580925D01*
X96940324Y-131527338D01*
X96712152Y-131299166D01*
X96658565Y-131263360D01*
X96574013Y-131246541D01*
X96489461Y-131263360D01*
X96435874Y-131299166D01*
X96165276Y-131569764D01*
X96129470Y-131623351D01*
X96112651Y-131707903D01*
X96113364Y-131711487D01*
X96113364Y-131711489D01*
X96113365Y-131711494D01*
X96113364Y-131711499D01*
X96113364Y-131715141D01*
X96112640Y-131715141D01*
X96107825Y-131739343D01*
X96103212Y-131744965D01*
X96040796Y-131807381D01*
X96036682Y-131810932D01*
X96035248Y-131811997D01*
X96032167Y-131813503D01*
X96029835Y-131816017D01*
X96000519Y-131847620D01*
X95999554Y-131848623D01*
X95986145Y-131862032D01*
X95985185Y-131863432D01*
X95985178Y-131863440D01*
X95984830Y-131863948D01*
X95981435Y-131868193D01*
X95965455Y-131885420D01*
X95962065Y-131889074D01*
X95960796Y-131892255D01*
X95960794Y-131892258D01*
X95955909Y-131904505D01*
X95952047Y-131911739D01*
X95942644Y-131925446D01*
X95941853Y-131928781D01*
X95941852Y-131928782D01*
X95936065Y-131953166D01*
X95934427Y-131958346D01*
X95928850Y-131972326D01*
X95923868Y-131984814D01*
X95923300Y-131990607D01*
X95923300Y-132002619D01*
X95922299Y-132011178D01*
X95918843Y-132025740D01*
X95919305Y-132029135D01*
X95919305Y-132029137D01*
X95922961Y-132055999D01*
X95923300Y-132061002D01*
X95923300Y-132140425D01*
X95912434Y-132166659D01*
X95906005Y-132171796D01*
X95887864Y-132183242D01*
X95797474Y-132285590D01*
X95739442Y-132409193D01*
X95739036Y-132411801D01*
X95739035Y-132411804D01*
X95736646Y-132427147D01*
X95718434Y-132544116D01*
X95718776Y-132546732D01*
X95718776Y-132546735D01*
X95720554Y-132560331D01*
X95736139Y-132679512D01*
X95744256Y-132697959D01*
X95744876Y-132726346D01*
X95725241Y-132746858D01*
X95710298Y-132750000D01*
X92751920Y-132750000D01*
X92725686Y-132739134D01*
X92714820Y-132712900D01*
X92725686Y-132686666D01*
X92998752Y-132413600D01*
X93024986Y-132402734D01*
X93032224Y-132403447D01*
X93100000Y-132416929D01*
X93202149Y-132396610D01*
X93288747Y-132338747D01*
X93346610Y-132252149D01*
X93366929Y-132150000D01*
X93346610Y-132047851D01*
X93296146Y-131972326D01*
X93290777Y-131964291D01*
X93288747Y-131961253D01*
X93202149Y-131903390D01*
X93100000Y-131883071D01*
X92997851Y-131903390D01*
X92994811Y-131905421D01*
X92994809Y-131905422D01*
X92928468Y-131949750D01*
X92900618Y-131955290D01*
X92881621Y-131945135D01*
X92880777Y-131944291D01*
X92878747Y-131941253D01*
X92792149Y-131883390D01*
X92690000Y-131863071D01*
X92588354Y-131883290D01*
X92560504Y-131877751D01*
X92544729Y-131854141D01*
X92544456Y-131851372D01*
X92544729Y-131850000D01*
X92524410Y-131747851D01*
X92495323Y-131704319D01*
X92468577Y-131664291D01*
X92466547Y-131661253D01*
X92379949Y-131603390D01*
X92356278Y-131598681D01*
X92346263Y-131596689D01*
X92322653Y-131580913D01*
X92316401Y-131560302D01*
X92316401Y-131437536D01*
X95806491Y-131437536D01*
X95808772Y-131438756D01*
X95849181Y-131446794D01*
X95856349Y-131446794D01*
X95933394Y-131431468D01*
X95934427Y-131429926D01*
X95933836Y-131426936D01*
X95879195Y-131372295D01*
X95873978Y-131370134D01*
X95868761Y-131372295D01*
X95808591Y-131432465D01*
X95806491Y-131437536D01*
X92316401Y-131437536D01*
X92316401Y-131032665D01*
X95435052Y-131032665D01*
X95442724Y-131071234D01*
X95445775Y-131075800D01*
X95448055Y-131074581D01*
X95509551Y-131013085D01*
X95511712Y-131007868D01*
X96236244Y-131007868D01*
X96238405Y-131013085D01*
X96291418Y-131066098D01*
X96296635Y-131068259D01*
X96297327Y-131067972D01*
X96297548Y-131067438D01*
X96312904Y-130990239D01*
X96312904Y-130983071D01*
X96305232Y-130944502D01*
X96302181Y-130939936D01*
X96299901Y-130941155D01*
X96238405Y-131002651D01*
X96236244Y-131007868D01*
X95511712Y-131007868D01*
X95509551Y-131002651D01*
X95456538Y-130949638D01*
X95451321Y-130947477D01*
X95450629Y-130947764D01*
X95450408Y-130948298D01*
X95435052Y-131025497D01*
X95435052Y-131032665D01*
X92316401Y-131032665D01*
X92316401Y-130585810D01*
X95813529Y-130585810D01*
X95814120Y-130588800D01*
X95868761Y-130643441D01*
X95873978Y-130645602D01*
X95879195Y-130643441D01*
X95939365Y-130583271D01*
X95941465Y-130578200D01*
X95939184Y-130576980D01*
X95898775Y-130568942D01*
X95891607Y-130568942D01*
X95814562Y-130584268D01*
X95813529Y-130585810D01*
X92316401Y-130585810D01*
X92316401Y-129801715D01*
X92779583Y-129801715D01*
X92799902Y-129903864D01*
X92801932Y-129906902D01*
X92851826Y-129981573D01*
X92857765Y-129990462D01*
X92944363Y-130048325D01*
X93046512Y-130068644D01*
X93148661Y-130048325D01*
X93235259Y-129990462D01*
X93270932Y-129937074D01*
X93294541Y-129921299D01*
X93301779Y-129920586D01*
X93319356Y-129920586D01*
X93345590Y-129931452D01*
X93607448Y-130193310D01*
X93661035Y-130229116D01*
X93745587Y-130245935D01*
X93830139Y-130229116D01*
X93883726Y-130193310D01*
X94111898Y-129965138D01*
X94147704Y-129911551D01*
X94164523Y-129826999D01*
X94147704Y-129742447D01*
X94111898Y-129688860D01*
X93972659Y-129549621D01*
X94342805Y-129549621D01*
X94343092Y-129550313D01*
X94343626Y-129550534D01*
X94420825Y-129565890D01*
X94427993Y-129565890D01*
X94466562Y-129558218D01*
X94471128Y-129555167D01*
X94469909Y-129552887D01*
X94408413Y-129491391D01*
X94403196Y-129489230D01*
X94397979Y-129491391D01*
X94344966Y-129544404D01*
X94342805Y-129549621D01*
X93972659Y-129549621D01*
X93841300Y-129418262D01*
X93787713Y-129382456D01*
X93703161Y-129365637D01*
X93618609Y-129382456D01*
X93565022Y-129418262D01*
X93336850Y-129646434D01*
X93328083Y-129659555D01*
X93304474Y-129675330D01*
X93276625Y-129669791D01*
X93266389Y-129659555D01*
X93237292Y-129616009D01*
X93237289Y-129616006D01*
X93235259Y-129612968D01*
X93224496Y-129605776D01*
X93168216Y-129568171D01*
X93148661Y-129555105D01*
X93046512Y-129534786D01*
X92944363Y-129555105D01*
X92924808Y-129568171D01*
X92868529Y-129605776D01*
X92857765Y-129612968D01*
X92799902Y-129699566D01*
X92779583Y-129801715D01*
X92316401Y-129801715D01*
X92316401Y-129779274D01*
X92327267Y-129753040D01*
X92970972Y-129109335D01*
X93964270Y-129109335D01*
X93979596Y-129186380D01*
X93981138Y-129187413D01*
X93984128Y-129186822D01*
X94038769Y-129132181D01*
X94040930Y-129126964D01*
X94765462Y-129126964D01*
X94767623Y-129132181D01*
X94827793Y-129192351D01*
X94832864Y-129194451D01*
X94834084Y-129192170D01*
X94842122Y-129151761D01*
X94842122Y-129144593D01*
X94826796Y-129067548D01*
X94825254Y-129066515D01*
X94822264Y-129067106D01*
X94767623Y-129121747D01*
X94765462Y-129126964D01*
X94040930Y-129126964D01*
X94038769Y-129121747D01*
X93978599Y-129061577D01*
X93973528Y-129059477D01*
X93972308Y-129061758D01*
X93964270Y-129102167D01*
X93964270Y-129109335D01*
X92970972Y-129109335D01*
X93257399Y-128822908D01*
X94836303Y-128822908D01*
X94856622Y-128925057D01*
X94858652Y-128928095D01*
X94909432Y-129004092D01*
X94914485Y-129011655D01*
X95001083Y-129069518D01*
X95103232Y-129089837D01*
X95205381Y-129069518D01*
X95291979Y-129011655D01*
X95297033Y-129004092D01*
X95347812Y-128928095D01*
X95349842Y-128925057D01*
X95370161Y-128822908D01*
X95349842Y-128720759D01*
X95310670Y-128662134D01*
X95294009Y-128637199D01*
X95291979Y-128634161D01*
X95262242Y-128614291D01*
X95208419Y-128578328D01*
X95205381Y-128576298D01*
X95103232Y-128555979D01*
X95001083Y-128576298D01*
X94998045Y-128578328D01*
X94944223Y-128614291D01*
X94914485Y-128634161D01*
X94912455Y-128637199D01*
X94895794Y-128662134D01*
X94856622Y-128720759D01*
X94836303Y-128822908D01*
X93257399Y-128822908D01*
X93562414Y-128517893D01*
X93588648Y-128507027D01*
X93614882Y-128517893D01*
X93625035Y-128536889D01*
X93628940Y-128556521D01*
X93633327Y-128578574D01*
X93691190Y-128665172D01*
X93777788Y-128723035D01*
X93879937Y-128743354D01*
X93982086Y-128723035D01*
X94018415Y-128698761D01*
X94335264Y-128698761D01*
X94336483Y-128701041D01*
X94397979Y-128762537D01*
X94403196Y-128764698D01*
X94408413Y-128762537D01*
X94461426Y-128709524D01*
X94463587Y-128704307D01*
X94463300Y-128703615D01*
X94462766Y-128703394D01*
X94385567Y-128688038D01*
X94378399Y-128688038D01*
X94339830Y-128695710D01*
X94335264Y-128698761D01*
X94018415Y-128698761D01*
X94068684Y-128665172D01*
X94126547Y-128578574D01*
X94146866Y-128476425D01*
X94126547Y-128374276D01*
X94068684Y-128287678D01*
X94065646Y-128285648D01*
X94065644Y-128285646D01*
X94025058Y-128258528D01*
X94009282Y-128234918D01*
X94014821Y-128207069D01*
X94019435Y-128201446D01*
X94344848Y-127876033D01*
X94371082Y-127865167D01*
X94397316Y-127876033D01*
X94407469Y-127895029D01*
X94425287Y-127984605D01*
X94483150Y-128071203D01*
X94569748Y-128129066D01*
X94671897Y-128149385D01*
X94774046Y-128129066D01*
X94830236Y-128091521D01*
X94858086Y-128085982D01*
X94881696Y-128101757D01*
X94887235Y-128129607D01*
X94878729Y-128172369D01*
X94899048Y-128274518D01*
X94901078Y-128277556D01*
X94950811Y-128351986D01*
X94956911Y-128361116D01*
X94959949Y-128363146D01*
X94974177Y-128372653D01*
X95043509Y-128418979D01*
X95145658Y-128439298D01*
X95247807Y-128418979D01*
X95317139Y-128372653D01*
X95331367Y-128363146D01*
X95334405Y-128361116D01*
X95340506Y-128351986D01*
X95390238Y-128277556D01*
X95392268Y-128274518D01*
X95412587Y-128172369D01*
X95392268Y-128070220D01*
X95334405Y-127983622D01*
X95247807Y-127925759D01*
X95145658Y-127905440D01*
X95043509Y-127925759D01*
X95040471Y-127927789D01*
X94987319Y-127963304D01*
X94959469Y-127968843D01*
X94935859Y-127953068D01*
X94930320Y-127925218D01*
X94938113Y-127886040D01*
X94938826Y-127882456D01*
X94928834Y-127832222D01*
X94928149Y-127828779D01*
X94933688Y-127800929D01*
X94957298Y-127785154D01*
X94971774Y-127785154D01*
X95025450Y-127795831D01*
X95127599Y-127775512D01*
X95199274Y-127727620D01*
X95211159Y-127719679D01*
X95214197Y-127717649D01*
X95272060Y-127631051D01*
X95292379Y-127528902D01*
X95272060Y-127426753D01*
X95223439Y-127353987D01*
X95216227Y-127343193D01*
X95214197Y-127340155D01*
X95127599Y-127282292D01*
X95025450Y-127261973D01*
X94923301Y-127282292D01*
X94836703Y-127340155D01*
X94834673Y-127343193D01*
X94827461Y-127353987D01*
X94778840Y-127426753D01*
X94758521Y-127528902D01*
X94761597Y-127544365D01*
X94769198Y-127582579D01*
X94763659Y-127610429D01*
X94740049Y-127626204D01*
X94725573Y-127626204D01*
X94671897Y-127615527D01*
X94600566Y-127629716D01*
X94572717Y-127624177D01*
X94556941Y-127600567D01*
X94556941Y-127586091D01*
X94557578Y-127582892D01*
X94571130Y-127514760D01*
X94550811Y-127412611D01*
X94496486Y-127331308D01*
X94494978Y-127329051D01*
X94492948Y-127326013D01*
X94487703Y-127322508D01*
X94409388Y-127270180D01*
X94406350Y-127268150D01*
X94304201Y-127247831D01*
X94300617Y-127248544D01*
X94300616Y-127248544D01*
X94259352Y-127256752D01*
X94231502Y-127251213D01*
X94215727Y-127227603D01*
X94215727Y-127213127D01*
X94223935Y-127171863D01*
X94223935Y-127171862D01*
X94224648Y-127168278D01*
X94204329Y-127066129D01*
X94165157Y-127007504D01*
X94148496Y-126982569D01*
X94146466Y-126979531D01*
X94143428Y-126977501D01*
X94143425Y-126977498D01*
X94137174Y-126973321D01*
X94121399Y-126949711D01*
X94126939Y-126921862D01*
X94137170Y-126911630D01*
X94187782Y-126877812D01*
X94458380Y-126607214D01*
X94494186Y-126553627D01*
X94511005Y-126469075D01*
X94494186Y-126384523D01*
X94482407Y-126366895D01*
X94476867Y-126339046D01*
X94492644Y-126315435D01*
X94496981Y-126312538D01*
X94496984Y-126312535D01*
X94500019Y-126310507D01*
X94557882Y-126223909D01*
X94578201Y-126121760D01*
X94557882Y-126019611D01*
X94500019Y-125933013D01*
X94484172Y-125922424D01*
X94416459Y-125877180D01*
X94413421Y-125875150D01*
X94311272Y-125854831D01*
X94209123Y-125875150D01*
X94206085Y-125877180D01*
X94138373Y-125922424D01*
X94122525Y-125933013D01*
X94064662Y-126019611D01*
X94063949Y-126023196D01*
X94062046Y-126032761D01*
X94046270Y-126056370D01*
X94032898Y-126061909D01*
X94020473Y-126064381D01*
X94007517Y-126066958D01*
X93953930Y-126102764D01*
X93683332Y-126373362D01*
X93647526Y-126426949D01*
X93630707Y-126511501D01*
X93647526Y-126596053D01*
X93683332Y-126649640D01*
X93889724Y-126856032D01*
X93900590Y-126882266D01*
X93889724Y-126908500D01*
X93870728Y-126918653D01*
X93855570Y-126921668D01*
X93832501Y-126937082D01*
X93772015Y-126977498D01*
X93768972Y-126979531D01*
X93766942Y-126982569D01*
X93750281Y-127007504D01*
X93711109Y-127066129D01*
X93690790Y-127168278D01*
X93711109Y-127270427D01*
X93718013Y-127280760D01*
X93763756Y-127349218D01*
X93768972Y-127357025D01*
X93772010Y-127359055D01*
X93797937Y-127376379D01*
X93855570Y-127414888D01*
X93957719Y-127435207D01*
X93961303Y-127434494D01*
X93961304Y-127434494D01*
X94002568Y-127426286D01*
X94030418Y-127431825D01*
X94046193Y-127455435D01*
X94046193Y-127469911D01*
X94039015Y-127505998D01*
X94037272Y-127514760D01*
X94037985Y-127518344D01*
X94037985Y-127518345D01*
X94048484Y-127571128D01*
X94042944Y-127598978D01*
X94019335Y-127614753D01*
X93991485Y-127609213D01*
X93928559Y-127567167D01*
X93928557Y-127567166D01*
X93925517Y-127565135D01*
X93823368Y-127544816D01*
X93721219Y-127565135D01*
X93718181Y-127567165D01*
X93646961Y-127614753D01*
X93634621Y-127622998D01*
X93576758Y-127709596D01*
X93556439Y-127811745D01*
X93557152Y-127815329D01*
X93564095Y-127850234D01*
X93558556Y-127878084D01*
X93553942Y-127883706D01*
X91936710Y-129500938D01*
X91925831Y-129508477D01*
X91925070Y-129508823D01*
X91925069Y-129508824D01*
X91920219Y-129511029D01*
X91917329Y-129515505D01*
X91910698Y-129525774D01*
X91908885Y-129528019D01*
X91909005Y-129528109D01*
X91907414Y-129530234D01*
X91905540Y-129532108D01*
X91904269Y-129534435D01*
X91900317Y-129541669D01*
X91898925Y-129544008D01*
X91883679Y-129567619D01*
X91883599Y-129568171D01*
X91883599Y-129570262D01*
X91883532Y-129570441D01*
X91883503Y-129570841D01*
X91883458Y-129570838D01*
X91883231Y-129572942D01*
X91881499Y-129576113D01*
X91881876Y-129581432D01*
X91883506Y-129604462D01*
X91883599Y-129607082D01*
X91883599Y-131560302D01*
X91872733Y-131586536D01*
X91853737Y-131596689D01*
X91843722Y-131598681D01*
X91820051Y-131603390D01*
X91733453Y-131661253D01*
X91731423Y-131664291D01*
X91704677Y-131704319D01*
X91675590Y-131747851D01*
X91655271Y-131850000D01*
X91675590Y-131952149D01*
X91733453Y-132038747D01*
X91820051Y-132096610D01*
X91922200Y-132116929D01*
X92024349Y-132096610D01*
X92027389Y-132094579D01*
X92027391Y-132094578D01*
X92079388Y-132059835D01*
X92107238Y-132054295D01*
X92120612Y-132059835D01*
X92172609Y-132094578D01*
X92172611Y-132094579D01*
X92175651Y-132096610D01*
X92277800Y-132116929D01*
X92281384Y-132116216D01*
X92322749Y-132107988D01*
X92379446Y-132096710D01*
X92407296Y-132102249D01*
X92423071Y-132125859D01*
X92423344Y-132128628D01*
X92423071Y-132130000D01*
X92423784Y-132133584D01*
X92436553Y-132197777D01*
X92431014Y-132225627D01*
X92426400Y-132231249D01*
X91918514Y-132739134D01*
X91892280Y-132750000D01*
X75343161Y-132750000D01*
X75322549Y-132743748D01*
X75265187Y-132705420D01*
X75262149Y-132703390D01*
X75160000Y-132683071D01*
X75057851Y-132703390D01*
X75054813Y-132705420D01*
X74997451Y-132743748D01*
X74976839Y-132750000D01*
X69237100Y-132750000D01*
X69210866Y-132739134D01*
X69200000Y-132712900D01*
X69200000Y-131860000D01*
X82004928Y-131860000D01*
X82005385Y-131862885D01*
X82020965Y-131961253D01*
X82022306Y-131969723D01*
X82023631Y-131972324D01*
X82023632Y-131972326D01*
X82041279Y-132006959D01*
X82072741Y-132068706D01*
X82151294Y-132147259D01*
X82185571Y-132164724D01*
X82247674Y-132196368D01*
X82247676Y-132196369D01*
X82250277Y-132197694D01*
X82360000Y-132215072D01*
X82362885Y-132214615D01*
X82466838Y-132198151D01*
X82469723Y-132197694D01*
X82472324Y-132196369D01*
X82472326Y-132196368D01*
X82534429Y-132164724D01*
X82568706Y-132147259D01*
X82647259Y-132068706D01*
X82678721Y-132006959D01*
X82696368Y-131972326D01*
X82696369Y-131972324D01*
X82697694Y-131969723D01*
X82699036Y-131961253D01*
X82714615Y-131862885D01*
X82715072Y-131860000D01*
X82697694Y-131750277D01*
X82695741Y-131746443D01*
X82656312Y-131669061D01*
X82647259Y-131651294D01*
X82568706Y-131572741D01*
X82510447Y-131543056D01*
X82492006Y-131521464D01*
X82494234Y-131493157D01*
X82510447Y-131476944D01*
X82530732Y-131466608D01*
X82568706Y-131447259D01*
X82647259Y-131368706D01*
X82682692Y-131299166D01*
X82696368Y-131272326D01*
X82696369Y-131272324D01*
X82697694Y-131269723D01*
X82715072Y-131160000D01*
X82697694Y-131050277D01*
X82684564Y-131024507D01*
X82648585Y-130953897D01*
X82647259Y-130951294D01*
X82568706Y-130872741D01*
X82519215Y-130847524D01*
X82472326Y-130823632D01*
X82472324Y-130823631D01*
X82469723Y-130822306D01*
X82444266Y-130818274D01*
X82362885Y-130805385D01*
X82360000Y-130804928D01*
X82357115Y-130805385D01*
X82275735Y-130818274D01*
X82250277Y-130822306D01*
X82247676Y-130823631D01*
X82247674Y-130823632D01*
X82200786Y-130847523D01*
X82151294Y-130872741D01*
X82072741Y-130951294D01*
X82071415Y-130953897D01*
X82035437Y-131024507D01*
X82022306Y-131050277D01*
X82004928Y-131160000D01*
X82022306Y-131269723D01*
X82023631Y-131272324D01*
X82023632Y-131272326D01*
X82037308Y-131299166D01*
X82072741Y-131368706D01*
X82151294Y-131447259D01*
X82189268Y-131466608D01*
X82209553Y-131476944D01*
X82227994Y-131498536D01*
X82225766Y-131526843D01*
X82209553Y-131543056D01*
X82151294Y-131572741D01*
X82072741Y-131651294D01*
X82063688Y-131669061D01*
X82024260Y-131746443D01*
X82022306Y-131750277D01*
X82004928Y-131860000D01*
X69200000Y-131860000D01*
X69200000Y-130460000D01*
X83304928Y-130460000D01*
X83322306Y-130569723D01*
X83323631Y-130572324D01*
X83323632Y-130572326D01*
X83326625Y-130578200D01*
X83372741Y-130668706D01*
X83451294Y-130747259D01*
X83500786Y-130772477D01*
X83547674Y-130796368D01*
X83547676Y-130796369D01*
X83550277Y-130797694D01*
X83660000Y-130815072D01*
X83662885Y-130814615D01*
X83766838Y-130798151D01*
X83769723Y-130797694D01*
X83772324Y-130796369D01*
X83772326Y-130796368D01*
X83819215Y-130772476D01*
X83868706Y-130747259D01*
X83947259Y-130668706D01*
X83976944Y-130610447D01*
X83998536Y-130592006D01*
X84026843Y-130594234D01*
X84043056Y-130610447D01*
X84072741Y-130668706D01*
X84151294Y-130747259D01*
X84200786Y-130772477D01*
X84247674Y-130796368D01*
X84247676Y-130796369D01*
X84250277Y-130797694D01*
X84360000Y-130815072D01*
X84362885Y-130814615D01*
X84466838Y-130798151D01*
X84469723Y-130797694D01*
X84472324Y-130796369D01*
X84472326Y-130796368D01*
X84519215Y-130772476D01*
X84568706Y-130747259D01*
X84647259Y-130668706D01*
X84693375Y-130578200D01*
X84696368Y-130572326D01*
X84696369Y-130572324D01*
X84697694Y-130569723D01*
X84715072Y-130460000D01*
X84697694Y-130350277D01*
X84647259Y-130251294D01*
X84568706Y-130172741D01*
X84490570Y-130132928D01*
X84472326Y-130123632D01*
X84472324Y-130123631D01*
X84469723Y-130122306D01*
X84458226Y-130120485D01*
X84362885Y-130105385D01*
X84360000Y-130104928D01*
X84357115Y-130105385D01*
X84261775Y-130120485D01*
X84250277Y-130122306D01*
X84247676Y-130123631D01*
X84247674Y-130123632D01*
X84229430Y-130132928D01*
X84151294Y-130172741D01*
X84072741Y-130251294D01*
X84071415Y-130253897D01*
X84043056Y-130309553D01*
X84021464Y-130327994D01*
X83993157Y-130325766D01*
X83976944Y-130309553D01*
X83948585Y-130253897D01*
X83947259Y-130251294D01*
X83868706Y-130172741D01*
X83790570Y-130132928D01*
X83772326Y-130123632D01*
X83772324Y-130123631D01*
X83769723Y-130122306D01*
X83758226Y-130120485D01*
X83662885Y-130105385D01*
X83660000Y-130104928D01*
X83657115Y-130105385D01*
X83561775Y-130120485D01*
X83550277Y-130122306D01*
X83547676Y-130123631D01*
X83547674Y-130123632D01*
X83529430Y-130132928D01*
X83451294Y-130172741D01*
X83372741Y-130251294D01*
X83322306Y-130350277D01*
X83304928Y-130460000D01*
X69200000Y-130460000D01*
X69200000Y-129850000D01*
X89633071Y-129850000D01*
X89653390Y-129952149D01*
X89711253Y-130038747D01*
X89714291Y-130040777D01*
X89749325Y-130064186D01*
X89797851Y-130096610D01*
X89900000Y-130116929D01*
X90002149Y-130096610D01*
X90050675Y-130064186D01*
X90085709Y-130040777D01*
X90088747Y-130038747D01*
X90146610Y-129952149D01*
X90166929Y-129850000D01*
X90161743Y-129823927D01*
X90167283Y-129796077D01*
X90171896Y-129790455D01*
X90761689Y-129200663D01*
X90772568Y-129193124D01*
X90773326Y-129192779D01*
X90775600Y-129191745D01*
X90775603Y-129191744D01*
X90778181Y-129190572D01*
X90778307Y-129190850D01*
X90800815Y-129183404D01*
X90826183Y-129196161D01*
X90835200Y-129220405D01*
X90835200Y-130087080D01*
X90824334Y-130113314D01*
X90651248Y-130286400D01*
X90625014Y-130297266D01*
X90617776Y-130296553D01*
X90553584Y-130283784D01*
X90550000Y-130283071D01*
X90447851Y-130303390D01*
X90361253Y-130361253D01*
X90303390Y-130447851D01*
X90283071Y-130550000D01*
X90303390Y-130652149D01*
X90361253Y-130738747D01*
X90447851Y-130796610D01*
X90550000Y-130816929D01*
X90652149Y-130796610D01*
X90738747Y-130738747D01*
X90796610Y-130652149D01*
X90816929Y-130550000D01*
X90803447Y-130482223D01*
X90808986Y-130454373D01*
X90813600Y-130448751D01*
X91011687Y-130250664D01*
X91022565Y-130243125D01*
X91023330Y-130242777D01*
X91028180Y-130240572D01*
X91037703Y-130225824D01*
X91039513Y-130223582D01*
X91039393Y-130223492D01*
X91040984Y-130221367D01*
X91042858Y-130219493D01*
X91048076Y-130209942D01*
X91049467Y-130207604D01*
X91062549Y-130187344D01*
X91064720Y-130183982D01*
X91064800Y-130183430D01*
X91064800Y-130181339D01*
X91064867Y-130181160D01*
X91064896Y-130180760D01*
X91064941Y-130180763D01*
X91065168Y-130178660D01*
X91066900Y-130175489D01*
X91064893Y-130147139D01*
X91064800Y-130144520D01*
X91064800Y-129162919D01*
X91075666Y-129136685D01*
X91988980Y-128223371D01*
X92015214Y-128212505D01*
X92041448Y-128223371D01*
X92052314Y-128249605D01*
X92051601Y-128256843D01*
X92036887Y-128330817D01*
X92033071Y-128350000D01*
X92053390Y-128452149D01*
X92111253Y-128538747D01*
X92114291Y-128540777D01*
X92136206Y-128555420D01*
X92197851Y-128596610D01*
X92300000Y-128616929D01*
X92402149Y-128596610D01*
X92488747Y-128538747D01*
X92525679Y-128483475D01*
X92549287Y-128467700D01*
X92559243Y-128467087D01*
X92564253Y-128467455D01*
X92569244Y-128469326D01*
X92586406Y-128465631D01*
X92589274Y-128465326D01*
X92589253Y-128465177D01*
X92591878Y-128464800D01*
X92594528Y-128464800D01*
X92597807Y-128463838D01*
X92604977Y-128461735D01*
X92607611Y-128461066D01*
X92615447Y-128459379D01*
X92635096Y-128455148D01*
X92635543Y-128454814D01*
X92637021Y-128453336D01*
X92637199Y-128453255D01*
X92637495Y-128452998D01*
X92637524Y-128453032D01*
X92639177Y-128451701D01*
X92642644Y-128450684D01*
X92648193Y-128444290D01*
X92661274Y-128429215D01*
X92663061Y-128427296D01*
X93064510Y-128025847D01*
X93090744Y-128014981D01*
X93097982Y-128015694D01*
X93165759Y-128029176D01*
X93267908Y-128008857D01*
X93354506Y-127950994D01*
X93412369Y-127864396D01*
X93432688Y-127762247D01*
X93412369Y-127660098D01*
X93372592Y-127600567D01*
X93356536Y-127576538D01*
X93354506Y-127573500D01*
X93267908Y-127515637D01*
X93165759Y-127495318D01*
X93063610Y-127515637D01*
X92977012Y-127573500D01*
X92974982Y-127576538D01*
X92958926Y-127600567D01*
X92919149Y-127660098D01*
X92898830Y-127762247D01*
X92902644Y-127781423D01*
X92912312Y-127830024D01*
X92906773Y-127857874D01*
X92902159Y-127863496D01*
X92567038Y-128198617D01*
X92540804Y-128209483D01*
X92514570Y-128198617D01*
X92509957Y-128192995D01*
X92496715Y-128173178D01*
X92488747Y-128161253D01*
X92402149Y-128103390D01*
X92300000Y-128083071D01*
X92296416Y-128083784D01*
X92296415Y-128083784D01*
X92206843Y-128101601D01*
X92178993Y-128096062D01*
X92163218Y-128072452D01*
X92168757Y-128044602D01*
X92173368Y-128038983D01*
X92900861Y-127311491D01*
X92927095Y-127300625D01*
X92947707Y-127306877D01*
X92957142Y-127313181D01*
X93014113Y-127351248D01*
X93116262Y-127371567D01*
X93218411Y-127351248D01*
X93277498Y-127311767D01*
X93301971Y-127295415D01*
X93305009Y-127293385D01*
X93313178Y-127281160D01*
X93360842Y-127209825D01*
X93362872Y-127206787D01*
X93383191Y-127104638D01*
X93362872Y-127002489D01*
X93310390Y-126923944D01*
X93307039Y-126918929D01*
X93305009Y-126915891D01*
X93218411Y-126858028D01*
X93116262Y-126837709D01*
X93014113Y-126858028D01*
X92927515Y-126915891D01*
X92925485Y-126918929D01*
X92922134Y-126923944D01*
X92869652Y-127002489D01*
X92868609Y-127007734D01*
X92867997Y-127010809D01*
X92857844Y-127029805D01*
X92785512Y-127102137D01*
X92759278Y-127113003D01*
X92733044Y-127102137D01*
X92722178Y-127075903D01*
X92722891Y-127068665D01*
X92724868Y-127058726D01*
X92724868Y-127058725D01*
X92725581Y-127055141D01*
X92705262Y-126952992D01*
X92647399Y-126866394D01*
X92560801Y-126808531D01*
X92458652Y-126788212D01*
X92356503Y-126808531D01*
X92269905Y-126866394D01*
X92212042Y-126952992D01*
X92191723Y-127055141D01*
X92195853Y-127075903D01*
X92205205Y-127122917D01*
X92199666Y-127150766D01*
X92195052Y-127156389D01*
X90638311Y-128713130D01*
X90627432Y-128720669D01*
X90626671Y-128721015D01*
X90626670Y-128721016D01*
X90621820Y-128723221D01*
X90618930Y-128727697D01*
X90617865Y-128729346D01*
X90594506Y-128745490D01*
X90566573Y-128740388D01*
X90550311Y-128716458D01*
X90547894Y-128704307D01*
X90546610Y-128697851D01*
X90488747Y-128611253D01*
X90402149Y-128553390D01*
X90300000Y-128533071D01*
X90197851Y-128553390D01*
X90111253Y-128611253D01*
X90053390Y-128697851D01*
X90033071Y-128800000D01*
X90053390Y-128902149D01*
X90111253Y-128988747D01*
X90114291Y-128990777D01*
X90141788Y-129009150D01*
X90197851Y-129046610D01*
X90300000Y-129066929D01*
X90402149Y-129046610D01*
X90458212Y-129009150D01*
X90485709Y-128990777D01*
X90488747Y-128988747D01*
X90517252Y-128946086D01*
X90540862Y-128930311D01*
X90568712Y-128935850D01*
X90584487Y-128959460D01*
X90585200Y-128966698D01*
X90585200Y-129037081D01*
X90574334Y-129063315D01*
X90041837Y-129595811D01*
X90015603Y-129606677D01*
X90003451Y-129604260D01*
X90002149Y-129603390D01*
X89900000Y-129583071D01*
X89797851Y-129603390D01*
X89711253Y-129661253D01*
X89653390Y-129747851D01*
X89633071Y-129850000D01*
X69200000Y-129850000D01*
X69200000Y-128660000D01*
X81004928Y-128660000D01*
X81005385Y-128662885D01*
X81019675Y-128753108D01*
X81022306Y-128769723D01*
X81023631Y-128772324D01*
X81023632Y-128772326D01*
X81034795Y-128794234D01*
X81072741Y-128868706D01*
X81151294Y-128947259D01*
X81175240Y-128959460D01*
X81247674Y-128996368D01*
X81247676Y-128996369D01*
X81250277Y-128997694D01*
X81253162Y-128998151D01*
X81289076Y-129003839D01*
X81360000Y-129015072D01*
X81362885Y-129014615D01*
X81381575Y-129011655D01*
X81430924Y-129003839D01*
X81466838Y-128998151D01*
X81469723Y-128997694D01*
X81472324Y-128996369D01*
X81472326Y-128996368D01*
X81544760Y-128959460D01*
X81568706Y-128947259D01*
X81647259Y-128868706D01*
X81676944Y-128810447D01*
X81698536Y-128792006D01*
X81726843Y-128794234D01*
X81743056Y-128810447D01*
X81772741Y-128868706D01*
X81851294Y-128947259D01*
X81875240Y-128959460D01*
X81947674Y-128996368D01*
X81947676Y-128996369D01*
X81950277Y-128997694D01*
X81953162Y-128998151D01*
X81989076Y-129003839D01*
X82060000Y-129015072D01*
X82062885Y-129014615D01*
X82081575Y-129011655D01*
X82130924Y-129003839D01*
X82166838Y-128998151D01*
X82169723Y-128997694D01*
X82172324Y-128996369D01*
X82172326Y-128996368D01*
X82244760Y-128959460D01*
X82268706Y-128947259D01*
X82347259Y-128868706D01*
X82376944Y-128810447D01*
X82398536Y-128792006D01*
X82426843Y-128794234D01*
X82443056Y-128810447D01*
X82472741Y-128868706D01*
X82551294Y-128947259D01*
X82575240Y-128959460D01*
X82647674Y-128996368D01*
X82647676Y-128996369D01*
X82650277Y-128997694D01*
X82653162Y-128998151D01*
X82689076Y-129003839D01*
X82760000Y-129015072D01*
X82762885Y-129014615D01*
X82781575Y-129011655D01*
X82830924Y-129003839D01*
X82866838Y-128998151D01*
X82869723Y-128997694D01*
X82872324Y-128996369D01*
X82872326Y-128996368D01*
X82944760Y-128959460D01*
X82968706Y-128947259D01*
X83047259Y-128868706D01*
X83085205Y-128794234D01*
X83096368Y-128772326D01*
X83096369Y-128772324D01*
X83097694Y-128769723D01*
X83100326Y-128753108D01*
X83114615Y-128662885D01*
X83115072Y-128660000D01*
X83097694Y-128550277D01*
X83092854Y-128540777D01*
X83054259Y-128465033D01*
X83047259Y-128451294D01*
X82968706Y-128372741D01*
X82917039Y-128346415D01*
X82872326Y-128323632D01*
X82872324Y-128323631D01*
X82869723Y-128322306D01*
X82853983Y-128319813D01*
X82762885Y-128305385D01*
X82760000Y-128304928D01*
X82757115Y-128305385D01*
X82666018Y-128319813D01*
X82650277Y-128322306D01*
X82647676Y-128323631D01*
X82647674Y-128323632D01*
X82602961Y-128346415D01*
X82551294Y-128372741D01*
X82472741Y-128451294D01*
X82465859Y-128464800D01*
X82443056Y-128509553D01*
X82421464Y-128527994D01*
X82393157Y-128525766D01*
X82376944Y-128509553D01*
X82354141Y-128464800D01*
X82347259Y-128451294D01*
X82268706Y-128372741D01*
X82217039Y-128346415D01*
X82172326Y-128323632D01*
X82172324Y-128323631D01*
X82169723Y-128322306D01*
X82153983Y-128319813D01*
X82062885Y-128305385D01*
X82060000Y-128304928D01*
X82057115Y-128305385D01*
X81966018Y-128319813D01*
X81950277Y-128322306D01*
X81947676Y-128323631D01*
X81947674Y-128323632D01*
X81902961Y-128346415D01*
X81851294Y-128372741D01*
X81772741Y-128451294D01*
X81765859Y-128464800D01*
X81743056Y-128509553D01*
X81721464Y-128527994D01*
X81693157Y-128525766D01*
X81676944Y-128509553D01*
X81654141Y-128464800D01*
X81647259Y-128451294D01*
X81568706Y-128372741D01*
X81517039Y-128346415D01*
X81472326Y-128323632D01*
X81472324Y-128323631D01*
X81469723Y-128322306D01*
X81453983Y-128319813D01*
X81362885Y-128305385D01*
X81360000Y-128304928D01*
X81357115Y-128305385D01*
X81266018Y-128319813D01*
X81250277Y-128322306D01*
X81247676Y-128323631D01*
X81247674Y-128323632D01*
X81202961Y-128346415D01*
X81151294Y-128372741D01*
X81072741Y-128451294D01*
X81065741Y-128465033D01*
X81027147Y-128540777D01*
X81022306Y-128550277D01*
X81004928Y-128660000D01*
X69200000Y-128660000D01*
X69200000Y-128294116D01*
X85218434Y-128294116D01*
X85218776Y-128296732D01*
X85218776Y-128296735D01*
X85227789Y-128365655D01*
X85236139Y-128429512D01*
X85291134Y-128554497D01*
X85292834Y-128556519D01*
X85292835Y-128556521D01*
X85341396Y-128614291D01*
X85378997Y-128659023D01*
X85391284Y-128667202D01*
X85490463Y-128733222D01*
X85490467Y-128733224D01*
X85492665Y-128734687D01*
X85623001Y-128775407D01*
X85689913Y-128776633D01*
X85756883Y-128777861D01*
X85756886Y-128777861D01*
X85759527Y-128777909D01*
X85762076Y-128777214D01*
X85762077Y-128777214D01*
X85888719Y-128742687D01*
X85888721Y-128742686D01*
X85891267Y-128741992D01*
X85893518Y-128740610D01*
X85893520Y-128740609D01*
X86005378Y-128671928D01*
X86007632Y-128670544D01*
X86056807Y-128616216D01*
X86097494Y-128571266D01*
X86097495Y-128571265D01*
X86099266Y-128569308D01*
X86105379Y-128556692D01*
X86157652Y-128448801D01*
X86157652Y-128448800D01*
X86158804Y-128446423D01*
X86178761Y-128327800D01*
X88283071Y-128327800D01*
X88303390Y-128429949D01*
X88361253Y-128516547D01*
X88447851Y-128574410D01*
X88550000Y-128594729D01*
X88652149Y-128574410D01*
X88738747Y-128516547D01*
X88796610Y-128429949D01*
X88803311Y-128396263D01*
X88819087Y-128372653D01*
X88839698Y-128366401D01*
X90570839Y-128366401D01*
X90583862Y-128368762D01*
X90589637Y-128370927D01*
X90606799Y-128367232D01*
X90609667Y-128366927D01*
X90609646Y-128366778D01*
X90612271Y-128366401D01*
X90614921Y-128366401D01*
X90618200Y-128365439D01*
X90625370Y-128363336D01*
X90628004Y-128362667D01*
X90635840Y-128360980D01*
X90655489Y-128356749D01*
X90655936Y-128356415D01*
X90657414Y-128354937D01*
X90657592Y-128354856D01*
X90657888Y-128354599D01*
X90657917Y-128354633D01*
X90659570Y-128353302D01*
X90663037Y-128352285D01*
X90681666Y-128330817D01*
X90683453Y-128328898D01*
X91661689Y-127350663D01*
X91672568Y-127343124D01*
X91673329Y-127342778D01*
X91673330Y-127342777D01*
X91678180Y-127340572D01*
X91687701Y-127325827D01*
X91689515Y-127323581D01*
X91689395Y-127323491D01*
X91690986Y-127321366D01*
X91692859Y-127319493D01*
X91694129Y-127317168D01*
X91694133Y-127317163D01*
X91698086Y-127309928D01*
X91699475Y-127307592D01*
X91701465Y-127304511D01*
X91708649Y-127293385D01*
X91712550Y-127287343D01*
X91712550Y-127287342D01*
X91714720Y-127283982D01*
X91714800Y-127283430D01*
X91714800Y-127281339D01*
X91714867Y-127281160D01*
X91714896Y-127280760D01*
X91714942Y-127280763D01*
X91715169Y-127278659D01*
X91716901Y-127275488D01*
X91716525Y-127270171D01*
X91717659Y-127264967D01*
X91718570Y-127265165D01*
X91727325Y-127241712D01*
X92307906Y-126661131D01*
X92334140Y-126650265D01*
X92341378Y-126650978D01*
X92409155Y-126664460D01*
X92511304Y-126644141D01*
X92597902Y-126586278D01*
X92655765Y-126499680D01*
X92676084Y-126397531D01*
X92655765Y-126295382D01*
X92607322Y-126222882D01*
X92601783Y-126195032D01*
X92617558Y-126171422D01*
X92645408Y-126165883D01*
X92699069Y-126176557D01*
X92801218Y-126156238D01*
X92879347Y-126104034D01*
X92884778Y-126100405D01*
X92887816Y-126098375D01*
X92945679Y-126011777D01*
X92948694Y-125996619D01*
X92964469Y-125973010D01*
X92992319Y-125967470D01*
X93011315Y-125977623D01*
X93232682Y-126198990D01*
X93286269Y-126234796D01*
X93370821Y-126251615D01*
X93455373Y-126234796D01*
X93508960Y-126198990D01*
X93779558Y-125928392D01*
X93815364Y-125874805D01*
X93821793Y-125842486D01*
X93837569Y-125818876D01*
X93850942Y-125813337D01*
X93859970Y-125811541D01*
X93868949Y-125809755D01*
X93955547Y-125751892D01*
X94013410Y-125665294D01*
X94033729Y-125563145D01*
X94013410Y-125460996D01*
X93966052Y-125390120D01*
X93957577Y-125377436D01*
X93955547Y-125374398D01*
X93868949Y-125316535D01*
X93766800Y-125296216D01*
X93664651Y-125316535D01*
X93578053Y-125374398D01*
X93576023Y-125377436D01*
X93567548Y-125390120D01*
X93543938Y-125405895D01*
X93516089Y-125400356D01*
X93500840Y-125390167D01*
X93500836Y-125390166D01*
X93497799Y-125388136D01*
X93413247Y-125371317D01*
X93328695Y-125388136D01*
X93275108Y-125423942D01*
X93004510Y-125694540D01*
X92968704Y-125748127D01*
X92967234Y-125747145D01*
X92951682Y-125762702D01*
X92923287Y-125762706D01*
X92906631Y-125749039D01*
X92889848Y-125723921D01*
X92889845Y-125723918D01*
X92887816Y-125720881D01*
X92801218Y-125663018D01*
X92699069Y-125642699D01*
X92596920Y-125663018D01*
X92510322Y-125720881D01*
X92482378Y-125762702D01*
X92469317Y-125782249D01*
X92448913Y-125797236D01*
X92446667Y-125797895D01*
X92444041Y-125798562D01*
X92416553Y-125804480D01*
X92416106Y-125804814D01*
X92414627Y-125806293D01*
X92414451Y-125806373D01*
X92414154Y-125806630D01*
X92414125Y-125806596D01*
X92412472Y-125807927D01*
X92409005Y-125808944D01*
X92405512Y-125812969D01*
X92405511Y-125812970D01*
X92390376Y-125830412D01*
X92388589Y-125832331D01*
X91996328Y-126224591D01*
X91985449Y-126232130D01*
X91984688Y-126232476D01*
X91984687Y-126232477D01*
X91979837Y-126234682D01*
X91976947Y-126239158D01*
X91970316Y-126249427D01*
X91968503Y-126251672D01*
X91968623Y-126251762D01*
X91967032Y-126253887D01*
X91965158Y-126255761D01*
X91962527Y-126260577D01*
X91959935Y-126265322D01*
X91958543Y-126267661D01*
X91943297Y-126291272D01*
X91943217Y-126291824D01*
X91943217Y-126293915D01*
X91943150Y-126294094D01*
X91943121Y-126294494D01*
X91943076Y-126294491D01*
X91942849Y-126296595D01*
X91941117Y-126299766D01*
X91942243Y-126315671D01*
X91943124Y-126328115D01*
X91943217Y-126330735D01*
X91943217Y-126431192D01*
X91932351Y-126457426D01*
X90467043Y-127922733D01*
X90440809Y-127933599D01*
X88839698Y-127933599D01*
X88813464Y-127922733D01*
X88803311Y-127903737D01*
X88801319Y-127893722D01*
X88796610Y-127870051D01*
X88755256Y-127808161D01*
X88740777Y-127786491D01*
X88738747Y-127783453D01*
X88726863Y-127775512D01*
X88655187Y-127727620D01*
X88652149Y-127725590D01*
X88550000Y-127705271D01*
X88447851Y-127725590D01*
X88444813Y-127727620D01*
X88373138Y-127775512D01*
X88361253Y-127783453D01*
X88359223Y-127786491D01*
X88344744Y-127808161D01*
X88303390Y-127870051D01*
X88283071Y-127972200D01*
X88303390Y-128074349D01*
X88305421Y-128077389D01*
X88305422Y-128077391D01*
X88340165Y-128129388D01*
X88345705Y-128157238D01*
X88340165Y-128170612D01*
X88305422Y-128222609D01*
X88305421Y-128222611D01*
X88303390Y-128225651D01*
X88283071Y-128327800D01*
X86178761Y-128327800D01*
X86181458Y-128311767D01*
X86181602Y-128300000D01*
X86181135Y-128296735D01*
X86162619Y-128167447D01*
X86162619Y-128167446D01*
X86162244Y-128164830D01*
X86105727Y-128040527D01*
X86104003Y-128038526D01*
X86104001Y-128038523D01*
X86030367Y-127953068D01*
X86016593Y-127937082D01*
X85951713Y-127895029D01*
X85904230Y-127864252D01*
X85904227Y-127864251D01*
X85902009Y-127862813D01*
X85842113Y-127844900D01*
X85809917Y-127835271D01*
X85787897Y-127817344D01*
X85785003Y-127789097D01*
X85802930Y-127767077D01*
X85810788Y-127763934D01*
X85891267Y-127741992D01*
X85893518Y-127740610D01*
X85893520Y-127740609D01*
X86005378Y-127671928D01*
X86007632Y-127670544D01*
X86070972Y-127600567D01*
X86097494Y-127571266D01*
X86097495Y-127571265D01*
X86099266Y-127569308D01*
X86101634Y-127564422D01*
X86157652Y-127448801D01*
X86157652Y-127448800D01*
X86158804Y-127446423D01*
X86181458Y-127311767D01*
X86181602Y-127300000D01*
X86181135Y-127296735D01*
X86162619Y-127167447D01*
X86162619Y-127167446D01*
X86162244Y-127164830D01*
X86105727Y-127040527D01*
X86104003Y-127038526D01*
X86104001Y-127038523D01*
X86026804Y-126948933D01*
X86016593Y-126937082D01*
X85964063Y-126903034D01*
X85904230Y-126864252D01*
X85904227Y-126864251D01*
X85902009Y-126862813D01*
X85854173Y-126848507D01*
X85809917Y-126835271D01*
X85787897Y-126817344D01*
X85785003Y-126789097D01*
X85802930Y-126767077D01*
X85810788Y-126763934D01*
X85891267Y-126741992D01*
X85893518Y-126740610D01*
X85893520Y-126740609D01*
X86005378Y-126671928D01*
X86007632Y-126670544D01*
X86083906Y-126586278D01*
X86097494Y-126571266D01*
X86097495Y-126571265D01*
X86099266Y-126569308D01*
X86105462Y-126556521D01*
X86157652Y-126448801D01*
X86157652Y-126448800D01*
X86158804Y-126446423D01*
X86181458Y-126311767D01*
X86181602Y-126300000D01*
X86181373Y-126298397D01*
X86162619Y-126167447D01*
X86162619Y-126167446D01*
X86162244Y-126164830D01*
X86105727Y-126040527D01*
X86104003Y-126038526D01*
X86104001Y-126038523D01*
X86018316Y-125939082D01*
X86016593Y-125937082D01*
X85919943Y-125874437D01*
X85904230Y-125864252D01*
X85904227Y-125864251D01*
X85902009Y-125862813D01*
X85771185Y-125823688D01*
X85704285Y-125823279D01*
X85637283Y-125822870D01*
X85637282Y-125822870D01*
X85634639Y-125822854D01*
X85627344Y-125824939D01*
X85505886Y-125859651D01*
X85505884Y-125859652D01*
X85503347Y-125860377D01*
X85480480Y-125874805D01*
X85390101Y-125931830D01*
X85390099Y-125931832D01*
X85387864Y-125933242D01*
X85297474Y-126035590D01*
X85239442Y-126159193D01*
X85239036Y-126161801D01*
X85239035Y-126161804D01*
X85231718Y-126208801D01*
X85218434Y-126294116D01*
X85218776Y-126296732D01*
X85218776Y-126296735D01*
X85223139Y-126330095D01*
X85236139Y-126429512D01*
X85291134Y-126554497D01*
X85292834Y-126556519D01*
X85292835Y-126556521D01*
X85335447Y-126607214D01*
X85378997Y-126659023D01*
X85381201Y-126660490D01*
X85490463Y-126733222D01*
X85490467Y-126733224D01*
X85492665Y-126734687D01*
X85495186Y-126735475D01*
X85495189Y-126735476D01*
X85589463Y-126764929D01*
X85611263Y-126783124D01*
X85613812Y-126811404D01*
X85595617Y-126833204D01*
X85588595Y-126836013D01*
X85505886Y-126859651D01*
X85505884Y-126859652D01*
X85503347Y-126860377D01*
X85486638Y-126870920D01*
X85390101Y-126931830D01*
X85390099Y-126931832D01*
X85387864Y-126933242D01*
X85297474Y-127035590D01*
X85239442Y-127159193D01*
X85239036Y-127161801D01*
X85239035Y-127161804D01*
X85232051Y-127206660D01*
X85218434Y-127294116D01*
X85218776Y-127296732D01*
X85218776Y-127296735D01*
X85226263Y-127353987D01*
X85236139Y-127429512D01*
X85291134Y-127554497D01*
X85292834Y-127556519D01*
X85292835Y-127556521D01*
X85354362Y-127629716D01*
X85378997Y-127659023D01*
X85381201Y-127660490D01*
X85490463Y-127733222D01*
X85490467Y-127733224D01*
X85492665Y-127734687D01*
X85495186Y-127735475D01*
X85495189Y-127735476D01*
X85589463Y-127764929D01*
X85611263Y-127783124D01*
X85613812Y-127811404D01*
X85595617Y-127833204D01*
X85588595Y-127836013D01*
X85505886Y-127859651D01*
X85505884Y-127859652D01*
X85503347Y-127860377D01*
X85488015Y-127870051D01*
X85390101Y-127931830D01*
X85390099Y-127931832D01*
X85387864Y-127933242D01*
X85297474Y-128035590D01*
X85239442Y-128159193D01*
X85239036Y-128161801D01*
X85239035Y-128161804D01*
X85231612Y-128209483D01*
X85218434Y-128294116D01*
X69200000Y-128294116D01*
X69200000Y-126054116D01*
X73248434Y-126054116D01*
X73248776Y-126056732D01*
X73248776Y-126056735D01*
X73255430Y-126107618D01*
X73266139Y-126189512D01*
X73321134Y-126314497D01*
X73322834Y-126316519D01*
X73322835Y-126316521D01*
X73373353Y-126376619D01*
X73408997Y-126419023D01*
X73411201Y-126420490D01*
X73520463Y-126493222D01*
X73520467Y-126493224D01*
X73522665Y-126494687D01*
X73653001Y-126535407D01*
X73719913Y-126536633D01*
X73786883Y-126537861D01*
X73786886Y-126537861D01*
X73789527Y-126537909D01*
X73792076Y-126537214D01*
X73792077Y-126537214D01*
X73918719Y-126502687D01*
X73918721Y-126502686D01*
X73921267Y-126501992D01*
X73923518Y-126500610D01*
X73923520Y-126500609D01*
X74035378Y-126431928D01*
X74037632Y-126430544D01*
X74082040Y-126381483D01*
X74127494Y-126331266D01*
X74127495Y-126331265D01*
X74129266Y-126329308D01*
X74131835Y-126324007D01*
X74187652Y-126208801D01*
X74187652Y-126208800D01*
X74188804Y-126206423D01*
X74211458Y-126071767D01*
X74211498Y-126068560D01*
X74211534Y-126065543D01*
X74211602Y-126060000D01*
X74211365Y-126058341D01*
X74210760Y-126054116D01*
X74348434Y-126054116D01*
X74348776Y-126056732D01*
X74348776Y-126056735D01*
X74355430Y-126107618D01*
X74366139Y-126189512D01*
X74421134Y-126314497D01*
X74422834Y-126316519D01*
X74422835Y-126316521D01*
X74473353Y-126376619D01*
X74508997Y-126419023D01*
X74511201Y-126420490D01*
X74620463Y-126493222D01*
X74620467Y-126493224D01*
X74622665Y-126494687D01*
X74753001Y-126535407D01*
X74819913Y-126536633D01*
X74886883Y-126537861D01*
X74886886Y-126537861D01*
X74889527Y-126537909D01*
X74892076Y-126537214D01*
X74892077Y-126537214D01*
X75018719Y-126502687D01*
X75018721Y-126502686D01*
X75021267Y-126501992D01*
X75023518Y-126500610D01*
X75023520Y-126500609D01*
X75135378Y-126431928D01*
X75137632Y-126430544D01*
X75182040Y-126381483D01*
X75227494Y-126331266D01*
X75227495Y-126331265D01*
X75229266Y-126329308D01*
X75231835Y-126324007D01*
X75246317Y-126294116D01*
X81618434Y-126294116D01*
X81618776Y-126296732D01*
X81618776Y-126296735D01*
X81623139Y-126330095D01*
X81636139Y-126429512D01*
X81691134Y-126554497D01*
X81692834Y-126556519D01*
X81692835Y-126556521D01*
X81735447Y-126607214D01*
X81778997Y-126659023D01*
X81781201Y-126660490D01*
X81890463Y-126733222D01*
X81890467Y-126733224D01*
X81892665Y-126734687D01*
X82023001Y-126775407D01*
X82089913Y-126776633D01*
X82156883Y-126777861D01*
X82156886Y-126777861D01*
X82159527Y-126777909D01*
X82162076Y-126777214D01*
X82162077Y-126777214D01*
X82288719Y-126742687D01*
X82288721Y-126742686D01*
X82291267Y-126741992D01*
X82293518Y-126740610D01*
X82293520Y-126740609D01*
X82405378Y-126671928D01*
X82407632Y-126670544D01*
X82483906Y-126586278D01*
X82497494Y-126571266D01*
X82497495Y-126571265D01*
X82499266Y-126569308D01*
X82505462Y-126556521D01*
X82557652Y-126448801D01*
X82557652Y-126448800D01*
X82558804Y-126446423D01*
X82581458Y-126311767D01*
X82581602Y-126300000D01*
X82581373Y-126298397D01*
X82580760Y-126294116D01*
X82818434Y-126294116D01*
X82818776Y-126296732D01*
X82818776Y-126296735D01*
X82823139Y-126330095D01*
X82836139Y-126429512D01*
X82891134Y-126554497D01*
X82892834Y-126556519D01*
X82892835Y-126556521D01*
X82935447Y-126607214D01*
X82978997Y-126659023D01*
X82981201Y-126660490D01*
X83090463Y-126733222D01*
X83090467Y-126733224D01*
X83092665Y-126734687D01*
X83223001Y-126775407D01*
X83289913Y-126776633D01*
X83356883Y-126777861D01*
X83356886Y-126777861D01*
X83359527Y-126777909D01*
X83362076Y-126777214D01*
X83362077Y-126777214D01*
X83488719Y-126742687D01*
X83488721Y-126742686D01*
X83491267Y-126741992D01*
X83493518Y-126740610D01*
X83493520Y-126740609D01*
X83605378Y-126671928D01*
X83607632Y-126670544D01*
X83683906Y-126586278D01*
X83697494Y-126571266D01*
X83697495Y-126571265D01*
X83699266Y-126569308D01*
X83705462Y-126556521D01*
X83757652Y-126448801D01*
X83757652Y-126448800D01*
X83758804Y-126446423D01*
X83781458Y-126311767D01*
X83781602Y-126300000D01*
X83781373Y-126298397D01*
X83780760Y-126294116D01*
X84018434Y-126294116D01*
X84018776Y-126296732D01*
X84018776Y-126296735D01*
X84023139Y-126330095D01*
X84036139Y-126429512D01*
X84091134Y-126554497D01*
X84092834Y-126556519D01*
X84092835Y-126556521D01*
X84135447Y-126607214D01*
X84178997Y-126659023D01*
X84181201Y-126660490D01*
X84290463Y-126733222D01*
X84290467Y-126733224D01*
X84292665Y-126734687D01*
X84423001Y-126775407D01*
X84489913Y-126776633D01*
X84556883Y-126777861D01*
X84556886Y-126777861D01*
X84559527Y-126777909D01*
X84562076Y-126777214D01*
X84562077Y-126777214D01*
X84688719Y-126742687D01*
X84688721Y-126742686D01*
X84691267Y-126741992D01*
X84693518Y-126740610D01*
X84693520Y-126740609D01*
X84805378Y-126671928D01*
X84807632Y-126670544D01*
X84883906Y-126586278D01*
X84897494Y-126571266D01*
X84897495Y-126571265D01*
X84899266Y-126569308D01*
X84905462Y-126556521D01*
X84957652Y-126448801D01*
X84957652Y-126448800D01*
X84958804Y-126446423D01*
X84981458Y-126311767D01*
X84981602Y-126300000D01*
X84981373Y-126298397D01*
X84962619Y-126167447D01*
X84962619Y-126167446D01*
X84962244Y-126164830D01*
X84905727Y-126040527D01*
X84904003Y-126038526D01*
X84904001Y-126038523D01*
X84818316Y-125939082D01*
X84816593Y-125937082D01*
X84719943Y-125874437D01*
X84704230Y-125864252D01*
X84704227Y-125864251D01*
X84702009Y-125862813D01*
X84571185Y-125823688D01*
X84504285Y-125823279D01*
X84437283Y-125822870D01*
X84437282Y-125822870D01*
X84434639Y-125822854D01*
X84427344Y-125824939D01*
X84305886Y-125859651D01*
X84305884Y-125859652D01*
X84303347Y-125860377D01*
X84280480Y-125874805D01*
X84190101Y-125931830D01*
X84190099Y-125931832D01*
X84187864Y-125933242D01*
X84097474Y-126035590D01*
X84039442Y-126159193D01*
X84039036Y-126161801D01*
X84039035Y-126161804D01*
X84031718Y-126208801D01*
X84018434Y-126294116D01*
X83780760Y-126294116D01*
X83762619Y-126167447D01*
X83762619Y-126167446D01*
X83762244Y-126164830D01*
X83705727Y-126040527D01*
X83704003Y-126038526D01*
X83704001Y-126038523D01*
X83618316Y-125939082D01*
X83616593Y-125937082D01*
X83519943Y-125874437D01*
X83504230Y-125864252D01*
X83504227Y-125864251D01*
X83502009Y-125862813D01*
X83371185Y-125823688D01*
X83304285Y-125823279D01*
X83237283Y-125822870D01*
X83237282Y-125822870D01*
X83234639Y-125822854D01*
X83227344Y-125824939D01*
X83105886Y-125859651D01*
X83105884Y-125859652D01*
X83103347Y-125860377D01*
X83080480Y-125874805D01*
X82990101Y-125931830D01*
X82990099Y-125931832D01*
X82987864Y-125933242D01*
X82897474Y-126035590D01*
X82839442Y-126159193D01*
X82839036Y-126161801D01*
X82839035Y-126161804D01*
X82831718Y-126208801D01*
X82818434Y-126294116D01*
X82580760Y-126294116D01*
X82562619Y-126167447D01*
X82562619Y-126167446D01*
X82562244Y-126164830D01*
X82505727Y-126040527D01*
X82504003Y-126038526D01*
X82504001Y-126038523D01*
X82418316Y-125939082D01*
X82416593Y-125937082D01*
X82319943Y-125874437D01*
X82304230Y-125864252D01*
X82304227Y-125864251D01*
X82302009Y-125862813D01*
X82171185Y-125823688D01*
X82104285Y-125823279D01*
X82037283Y-125822870D01*
X82037282Y-125822870D01*
X82034639Y-125822854D01*
X82027344Y-125824939D01*
X81905886Y-125859651D01*
X81905884Y-125859652D01*
X81903347Y-125860377D01*
X81880480Y-125874805D01*
X81790101Y-125931830D01*
X81790099Y-125931832D01*
X81787864Y-125933242D01*
X81697474Y-126035590D01*
X81639442Y-126159193D01*
X81639036Y-126161801D01*
X81639035Y-126161804D01*
X81631718Y-126208801D01*
X81618434Y-126294116D01*
X75246317Y-126294116D01*
X75287652Y-126208801D01*
X75287652Y-126208800D01*
X75288804Y-126206423D01*
X75311458Y-126071767D01*
X75311498Y-126068560D01*
X75311534Y-126065543D01*
X75311602Y-126060000D01*
X75311365Y-126058341D01*
X75292619Y-125927447D01*
X75292619Y-125927446D01*
X75292244Y-125924830D01*
X75235727Y-125800527D01*
X75234003Y-125798526D01*
X75234001Y-125798523D01*
X75169716Y-125723918D01*
X75146593Y-125697082D01*
X75062690Y-125642699D01*
X75034230Y-125624252D01*
X75034227Y-125624251D01*
X75032009Y-125622813D01*
X74901185Y-125583688D01*
X74834285Y-125583279D01*
X74767283Y-125582870D01*
X74767282Y-125582870D01*
X74764639Y-125582854D01*
X74762099Y-125583580D01*
X74635886Y-125619651D01*
X74635884Y-125619652D01*
X74633347Y-125620377D01*
X74631110Y-125621788D01*
X74631111Y-125621788D01*
X74520101Y-125691830D01*
X74520099Y-125691832D01*
X74517864Y-125693242D01*
X74427474Y-125795590D01*
X74369442Y-125919193D01*
X74369036Y-125921801D01*
X74369035Y-125921804D01*
X74364258Y-125952485D01*
X74348434Y-126054116D01*
X74210760Y-126054116D01*
X74192619Y-125927447D01*
X74192619Y-125927446D01*
X74192244Y-125924830D01*
X74135727Y-125800527D01*
X74134003Y-125798526D01*
X74134001Y-125798523D01*
X74069716Y-125723918D01*
X74046593Y-125697082D01*
X73962690Y-125642699D01*
X73934230Y-125624252D01*
X73934227Y-125624251D01*
X73932009Y-125622813D01*
X73801185Y-125583688D01*
X73734285Y-125583279D01*
X73667283Y-125582870D01*
X73667282Y-125582870D01*
X73664639Y-125582854D01*
X73662099Y-125583580D01*
X73535886Y-125619651D01*
X73535884Y-125619652D01*
X73533347Y-125620377D01*
X73531110Y-125621788D01*
X73531111Y-125621788D01*
X73420101Y-125691830D01*
X73420099Y-125691832D01*
X73417864Y-125693242D01*
X73327474Y-125795590D01*
X73269442Y-125919193D01*
X73269036Y-125921801D01*
X73269035Y-125921804D01*
X73264258Y-125952485D01*
X73248434Y-126054116D01*
X69200000Y-126054116D01*
X69200000Y-124954116D01*
X73248434Y-124954116D01*
X73248776Y-124956732D01*
X73248776Y-124956735D01*
X73258337Y-125029849D01*
X73266139Y-125089512D01*
X73321134Y-125214497D01*
X73322834Y-125216519D01*
X73322835Y-125216521D01*
X73407293Y-125316996D01*
X73408997Y-125319023D01*
X73411201Y-125320490D01*
X73520463Y-125393222D01*
X73520467Y-125393224D01*
X73522665Y-125394687D01*
X73653001Y-125435407D01*
X73719913Y-125436633D01*
X73786883Y-125437861D01*
X73786886Y-125437861D01*
X73789527Y-125437909D01*
X73792076Y-125437214D01*
X73792077Y-125437214D01*
X73918719Y-125402687D01*
X73918721Y-125402686D01*
X73921267Y-125401992D01*
X73923518Y-125400610D01*
X73923520Y-125400609D01*
X74035378Y-125331928D01*
X74037632Y-125330544D01*
X74096037Y-125266019D01*
X74127494Y-125231266D01*
X74127495Y-125231265D01*
X74129266Y-125229308D01*
X74135462Y-125216521D01*
X74187652Y-125108801D01*
X74187652Y-125108800D01*
X74188804Y-125106423D01*
X74211458Y-124971767D01*
X74211602Y-124960000D01*
X74211343Y-124958188D01*
X74210760Y-124954116D01*
X74348434Y-124954116D01*
X74348776Y-124956732D01*
X74348776Y-124956735D01*
X74358337Y-125029849D01*
X74366139Y-125089512D01*
X74421134Y-125214497D01*
X74422834Y-125216519D01*
X74422835Y-125216521D01*
X74507293Y-125316996D01*
X74508997Y-125319023D01*
X74511201Y-125320490D01*
X74620463Y-125393222D01*
X74620467Y-125393224D01*
X74622665Y-125394687D01*
X74753001Y-125435407D01*
X74819913Y-125436633D01*
X74886883Y-125437861D01*
X74886886Y-125437861D01*
X74889527Y-125437909D01*
X74892076Y-125437214D01*
X74892077Y-125437214D01*
X75018719Y-125402687D01*
X75018721Y-125402686D01*
X75021267Y-125401992D01*
X75023518Y-125400610D01*
X75023520Y-125400609D01*
X75135378Y-125331928D01*
X75137632Y-125330544D01*
X75196037Y-125266019D01*
X75227494Y-125231266D01*
X75227495Y-125231265D01*
X75229266Y-125229308D01*
X75235462Y-125216521D01*
X75287652Y-125108801D01*
X75287652Y-125108800D01*
X75288804Y-125106423D01*
X75311458Y-124971767D01*
X75311602Y-124960000D01*
X75311343Y-124958188D01*
X75310760Y-124954116D01*
X75448434Y-124954116D01*
X75448776Y-124956732D01*
X75448776Y-124956735D01*
X75458337Y-125029849D01*
X75466139Y-125089512D01*
X75521134Y-125214497D01*
X75522834Y-125216519D01*
X75522835Y-125216521D01*
X75607293Y-125316996D01*
X75608997Y-125319023D01*
X75611201Y-125320490D01*
X75720463Y-125393222D01*
X75720467Y-125393224D01*
X75722665Y-125394687D01*
X75853001Y-125435407D01*
X75919913Y-125436633D01*
X75986883Y-125437861D01*
X75986886Y-125437861D01*
X75989527Y-125437909D01*
X75992076Y-125437214D01*
X75992077Y-125437214D01*
X76118719Y-125402687D01*
X76118721Y-125402686D01*
X76121267Y-125401992D01*
X76123518Y-125400610D01*
X76123520Y-125400609D01*
X76235378Y-125331928D01*
X76237632Y-125330544D01*
X76296037Y-125266019D01*
X76327494Y-125231266D01*
X76327495Y-125231265D01*
X76329266Y-125229308D01*
X76335462Y-125216521D01*
X76387652Y-125108801D01*
X76387652Y-125108800D01*
X76388804Y-125106423D01*
X76411458Y-124971767D01*
X76411602Y-124960000D01*
X76411343Y-124958188D01*
X76410760Y-124954116D01*
X76548434Y-124954116D01*
X76548776Y-124956732D01*
X76548776Y-124956735D01*
X76558337Y-125029849D01*
X76566139Y-125089512D01*
X76621134Y-125214497D01*
X76622834Y-125216519D01*
X76622835Y-125216521D01*
X76707293Y-125316996D01*
X76708997Y-125319023D01*
X76711201Y-125320490D01*
X76820463Y-125393222D01*
X76820467Y-125393224D01*
X76822665Y-125394687D01*
X76953001Y-125435407D01*
X77019913Y-125436633D01*
X77086883Y-125437861D01*
X77086886Y-125437861D01*
X77089527Y-125437909D01*
X77092076Y-125437214D01*
X77092077Y-125437214D01*
X77218719Y-125402687D01*
X77218721Y-125402686D01*
X77221267Y-125401992D01*
X77223518Y-125400610D01*
X77223520Y-125400609D01*
X77335378Y-125331928D01*
X77337632Y-125330544D01*
X77346215Y-125321062D01*
X90736535Y-125321062D01*
X90738816Y-125322282D01*
X90779225Y-125330320D01*
X90786393Y-125330320D01*
X90863438Y-125314994D01*
X90864471Y-125313452D01*
X90863880Y-125310462D01*
X90809239Y-125255821D01*
X90804022Y-125253660D01*
X90798805Y-125255821D01*
X90738635Y-125315991D01*
X90736535Y-125321062D01*
X77346215Y-125321062D01*
X77396037Y-125266019D01*
X77427494Y-125231266D01*
X77427495Y-125231265D01*
X77429266Y-125229308D01*
X77435462Y-125216521D01*
X77440532Y-125206056D01*
X94401432Y-125206056D01*
X94421751Y-125308205D01*
X94436528Y-125330320D01*
X94469402Y-125379519D01*
X94479614Y-125394803D01*
X94566212Y-125452666D01*
X94668361Y-125472985D01*
X94770510Y-125452666D01*
X94857108Y-125394803D01*
X94867321Y-125379519D01*
X94900194Y-125330320D01*
X94914971Y-125308205D01*
X94935290Y-125206056D01*
X94914971Y-125103907D01*
X94857108Y-125017309D01*
X94823405Y-124994789D01*
X94788950Y-124971767D01*
X94770510Y-124959446D01*
X94668361Y-124939127D01*
X94566212Y-124959446D01*
X94547772Y-124971767D01*
X94513318Y-124994789D01*
X94479614Y-125017309D01*
X94421751Y-125103907D01*
X94401432Y-125206056D01*
X77440532Y-125206056D01*
X77487652Y-125108801D01*
X77487652Y-125108800D01*
X77488804Y-125106423D01*
X77511458Y-124971767D01*
X77511602Y-124960000D01*
X77511343Y-124958188D01*
X77505328Y-124916191D01*
X90365096Y-124916191D01*
X90372768Y-124954760D01*
X90375819Y-124959326D01*
X90378099Y-124958107D01*
X90439595Y-124896611D01*
X90441756Y-124891394D01*
X91166288Y-124891394D01*
X91168449Y-124896611D01*
X91221462Y-124949624D01*
X91226679Y-124951785D01*
X91227371Y-124951498D01*
X91227592Y-124950964D01*
X91242948Y-124873765D01*
X91242948Y-124866597D01*
X91235276Y-124828028D01*
X91232225Y-124823462D01*
X91229945Y-124824681D01*
X91168449Y-124886177D01*
X91166288Y-124891394D01*
X90441756Y-124891394D01*
X90439595Y-124886177D01*
X90386582Y-124833164D01*
X90381365Y-124831003D01*
X90380673Y-124831290D01*
X90380452Y-124831824D01*
X90365096Y-124909023D01*
X90365096Y-124916191D01*
X77505328Y-124916191D01*
X77492619Y-124827447D01*
X77492619Y-124827446D01*
X77492244Y-124824830D01*
X77435727Y-124700527D01*
X77434003Y-124698526D01*
X77434001Y-124698523D01*
X77373228Y-124627993D01*
X77346593Y-124597082D01*
X77285189Y-124557282D01*
X77234230Y-124524252D01*
X77234227Y-124524251D01*
X77232009Y-124522813D01*
X77101185Y-124483688D01*
X77034285Y-124483279D01*
X76967283Y-124482870D01*
X76967282Y-124482870D01*
X76964639Y-124482854D01*
X76962099Y-124483580D01*
X76835886Y-124519651D01*
X76835884Y-124519652D01*
X76833347Y-124520377D01*
X76831110Y-124521788D01*
X76831111Y-124521788D01*
X76720101Y-124591830D01*
X76720099Y-124591832D01*
X76717864Y-124593242D01*
X76627474Y-124695590D01*
X76569442Y-124819193D01*
X76569036Y-124821801D01*
X76569035Y-124821804D01*
X76566883Y-124835627D01*
X76548434Y-124954116D01*
X76410760Y-124954116D01*
X76392619Y-124827447D01*
X76392619Y-124827446D01*
X76392244Y-124824830D01*
X76335727Y-124700527D01*
X76334003Y-124698526D01*
X76334001Y-124698523D01*
X76273228Y-124627993D01*
X76246593Y-124597082D01*
X76185189Y-124557282D01*
X76134230Y-124524252D01*
X76134227Y-124524251D01*
X76132009Y-124522813D01*
X76001185Y-124483688D01*
X75934285Y-124483279D01*
X75867283Y-124482870D01*
X75867282Y-124482870D01*
X75864639Y-124482854D01*
X75862099Y-124483580D01*
X75735886Y-124519651D01*
X75735884Y-124519652D01*
X75733347Y-124520377D01*
X75731110Y-124521788D01*
X75731111Y-124521788D01*
X75620101Y-124591830D01*
X75620099Y-124591832D01*
X75617864Y-124593242D01*
X75527474Y-124695590D01*
X75469442Y-124819193D01*
X75469036Y-124821801D01*
X75469035Y-124821804D01*
X75466883Y-124835627D01*
X75448434Y-124954116D01*
X75310760Y-124954116D01*
X75292619Y-124827447D01*
X75292619Y-124827446D01*
X75292244Y-124824830D01*
X75235727Y-124700527D01*
X75234003Y-124698526D01*
X75234001Y-124698523D01*
X75173228Y-124627993D01*
X75146593Y-124597082D01*
X75085189Y-124557282D01*
X75034230Y-124524252D01*
X75034227Y-124524251D01*
X75032009Y-124522813D01*
X74901185Y-124483688D01*
X74834285Y-124483279D01*
X74767283Y-124482870D01*
X74767282Y-124482870D01*
X74764639Y-124482854D01*
X74762099Y-124483580D01*
X74635886Y-124519651D01*
X74635884Y-124519652D01*
X74633347Y-124520377D01*
X74631110Y-124521788D01*
X74631111Y-124521788D01*
X74520101Y-124591830D01*
X74520099Y-124591832D01*
X74517864Y-124593242D01*
X74427474Y-124695590D01*
X74369442Y-124819193D01*
X74369036Y-124821801D01*
X74369035Y-124821804D01*
X74366883Y-124835627D01*
X74348434Y-124954116D01*
X74210760Y-124954116D01*
X74192619Y-124827447D01*
X74192619Y-124827446D01*
X74192244Y-124824830D01*
X74135727Y-124700527D01*
X74134003Y-124698526D01*
X74134001Y-124698523D01*
X74073228Y-124627993D01*
X74046593Y-124597082D01*
X73985189Y-124557282D01*
X73934230Y-124524252D01*
X73934227Y-124524251D01*
X73932009Y-124522813D01*
X73801185Y-124483688D01*
X73734285Y-124483279D01*
X73667283Y-124482870D01*
X73667282Y-124482870D01*
X73664639Y-124482854D01*
X73662099Y-124483580D01*
X73535886Y-124519651D01*
X73535884Y-124519652D01*
X73533347Y-124520377D01*
X73531110Y-124521788D01*
X73531111Y-124521788D01*
X73420101Y-124591830D01*
X73420099Y-124591832D01*
X73417864Y-124593242D01*
X73327474Y-124695590D01*
X73269442Y-124819193D01*
X73269036Y-124821801D01*
X73269035Y-124821804D01*
X73266883Y-124835627D01*
X73248434Y-124954116D01*
X69200000Y-124954116D01*
X69200000Y-124240000D01*
X83163071Y-124240000D01*
X83183390Y-124342149D01*
X83185420Y-124345187D01*
X83219543Y-124396255D01*
X83241253Y-124428747D01*
X83327851Y-124486610D01*
X83430000Y-124506929D01*
X83532149Y-124486610D01*
X83618747Y-124428747D01*
X83640458Y-124396255D01*
X83674580Y-124345187D01*
X83676610Y-124342149D01*
X83696929Y-124240000D01*
X83694940Y-124230000D01*
X83973071Y-124230000D01*
X83993390Y-124332149D01*
X84051253Y-124418747D01*
X84137851Y-124476610D01*
X84240000Y-124496929D01*
X84342149Y-124476610D01*
X84428747Y-124418747D01*
X84486610Y-124332149D01*
X84506929Y-124230000D01*
X84502951Y-124210000D01*
X84623071Y-124210000D01*
X84643390Y-124312149D01*
X84701253Y-124398747D01*
X84704291Y-124400777D01*
X84726638Y-124415709D01*
X84787851Y-124456610D01*
X84890000Y-124476929D01*
X84992149Y-124456610D01*
X85053362Y-124415709D01*
X85075709Y-124400777D01*
X85078747Y-124398747D01*
X85136610Y-124312149D01*
X85156929Y-124210000D01*
X85243071Y-124210000D01*
X85263390Y-124312149D01*
X85321253Y-124398747D01*
X85324291Y-124400777D01*
X85346638Y-124415709D01*
X85407851Y-124456610D01*
X85510000Y-124476929D01*
X85612149Y-124456610D01*
X85673362Y-124415709D01*
X85695709Y-124400777D01*
X85698747Y-124398747D01*
X85756610Y-124312149D01*
X85776929Y-124210000D01*
X85756610Y-124107851D01*
X85707652Y-124034580D01*
X85700777Y-124024291D01*
X85698747Y-124021253D01*
X85612149Y-123963390D01*
X85510000Y-123943071D01*
X85407851Y-123963390D01*
X85321253Y-124021253D01*
X85319223Y-124024291D01*
X85312348Y-124034580D01*
X85263390Y-124107851D01*
X85243071Y-124210000D01*
X85156929Y-124210000D01*
X85136610Y-124107851D01*
X85087652Y-124034580D01*
X85080777Y-124024291D01*
X85078747Y-124021253D01*
X84992149Y-123963390D01*
X84890000Y-123943071D01*
X84787851Y-123963390D01*
X84701253Y-124021253D01*
X84699223Y-124024291D01*
X84692348Y-124034580D01*
X84643390Y-124107851D01*
X84623071Y-124210000D01*
X84502951Y-124210000D01*
X84486610Y-124127851D01*
X84435429Y-124051253D01*
X84430777Y-124044291D01*
X84428747Y-124041253D01*
X84342149Y-123983390D01*
X84240000Y-123963071D01*
X84137851Y-123983390D01*
X84051253Y-124041253D01*
X84049223Y-124044291D01*
X84044571Y-124051253D01*
X83993390Y-124127851D01*
X83973071Y-124230000D01*
X83694940Y-124230000D01*
X83676610Y-124137851D01*
X83618747Y-124051253D01*
X83613282Y-124047601D01*
X83560224Y-124012149D01*
X83532149Y-123993390D01*
X83430000Y-123973071D01*
X83327851Y-123993390D01*
X83299776Y-124012149D01*
X83246719Y-124047601D01*
X83241253Y-124051253D01*
X83183390Y-124137851D01*
X83163071Y-124240000D01*
X69200000Y-124240000D01*
X69200000Y-123754116D01*
X73248434Y-123754116D01*
X73248776Y-123756732D01*
X73248776Y-123756735D01*
X73255929Y-123811436D01*
X73266139Y-123889512D01*
X73321134Y-124014497D01*
X73322834Y-124016519D01*
X73322835Y-124016521D01*
X73397052Y-124104813D01*
X73408997Y-124119023D01*
X73411201Y-124120490D01*
X73520463Y-124193222D01*
X73520467Y-124193224D01*
X73522665Y-124194687D01*
X73653001Y-124235407D01*
X73719913Y-124236633D01*
X73786883Y-124237861D01*
X73786886Y-124237861D01*
X73789527Y-124237909D01*
X73792076Y-124237214D01*
X73792077Y-124237214D01*
X73918719Y-124202687D01*
X73918721Y-124202686D01*
X73921267Y-124201992D01*
X73923518Y-124200610D01*
X73923520Y-124200609D01*
X74035378Y-124131928D01*
X74037632Y-124130544D01*
X74086488Y-124076569D01*
X74127494Y-124031266D01*
X74127495Y-124031265D01*
X74129266Y-124029308D01*
X74134153Y-124019223D01*
X74187652Y-123908801D01*
X74187652Y-123908800D01*
X74188804Y-123906423D01*
X74211458Y-123771767D01*
X74211602Y-123760000D01*
X74211135Y-123756735D01*
X74210760Y-123754116D01*
X74348434Y-123754116D01*
X74348776Y-123756732D01*
X74348776Y-123756735D01*
X74355929Y-123811436D01*
X74366139Y-123889512D01*
X74421134Y-124014497D01*
X74422834Y-124016519D01*
X74422835Y-124016521D01*
X74497052Y-124104813D01*
X74508997Y-124119023D01*
X74511201Y-124120490D01*
X74620463Y-124193222D01*
X74620467Y-124193224D01*
X74622665Y-124194687D01*
X74753001Y-124235407D01*
X74819913Y-124236633D01*
X74886883Y-124237861D01*
X74886886Y-124237861D01*
X74889527Y-124237909D01*
X74892076Y-124237214D01*
X74892077Y-124237214D01*
X75018719Y-124202687D01*
X75018721Y-124202686D01*
X75021267Y-124201992D01*
X75023518Y-124200610D01*
X75023520Y-124200609D01*
X75135378Y-124131928D01*
X75137632Y-124130544D01*
X75186488Y-124076569D01*
X75227494Y-124031266D01*
X75227495Y-124031265D01*
X75229266Y-124029308D01*
X75234153Y-124019223D01*
X75287652Y-123908801D01*
X75287652Y-123908800D01*
X75288804Y-123906423D01*
X75311458Y-123771767D01*
X75311602Y-123760000D01*
X75311135Y-123756735D01*
X75310760Y-123754116D01*
X75448434Y-123754116D01*
X75448776Y-123756732D01*
X75448776Y-123756735D01*
X75455929Y-123811436D01*
X75466139Y-123889512D01*
X75521134Y-124014497D01*
X75522834Y-124016519D01*
X75522835Y-124016521D01*
X75597052Y-124104813D01*
X75608997Y-124119023D01*
X75611201Y-124120490D01*
X75720463Y-124193222D01*
X75720467Y-124193224D01*
X75722665Y-124194687D01*
X75853001Y-124235407D01*
X75919913Y-124236633D01*
X75986883Y-124237861D01*
X75986886Y-124237861D01*
X75989527Y-124237909D01*
X75992076Y-124237214D01*
X75992077Y-124237214D01*
X76118719Y-124202687D01*
X76118721Y-124202686D01*
X76121267Y-124201992D01*
X76123518Y-124200610D01*
X76123520Y-124200609D01*
X76235378Y-124131928D01*
X76237632Y-124130544D01*
X76286488Y-124076569D01*
X76327494Y-124031266D01*
X76327495Y-124031265D01*
X76329266Y-124029308D01*
X76334153Y-124019223D01*
X76387652Y-123908801D01*
X76387652Y-123908800D01*
X76388804Y-123906423D01*
X76411458Y-123771767D01*
X76411602Y-123760000D01*
X76411135Y-123756735D01*
X76410760Y-123754116D01*
X76548434Y-123754116D01*
X76548776Y-123756732D01*
X76548776Y-123756735D01*
X76555929Y-123811436D01*
X76566139Y-123889512D01*
X76621134Y-124014497D01*
X76622834Y-124016519D01*
X76622835Y-124016521D01*
X76697052Y-124104813D01*
X76708997Y-124119023D01*
X76711201Y-124120490D01*
X76820463Y-124193222D01*
X76820467Y-124193224D01*
X76822665Y-124194687D01*
X76953001Y-124235407D01*
X77019913Y-124236633D01*
X77086883Y-124237861D01*
X77086886Y-124237861D01*
X77089527Y-124237909D01*
X77092076Y-124237214D01*
X77092077Y-124237214D01*
X77218719Y-124202687D01*
X77218721Y-124202686D01*
X77221267Y-124201992D01*
X77223518Y-124200610D01*
X77223520Y-124200609D01*
X77335378Y-124131928D01*
X77337632Y-124130544D01*
X77386488Y-124076569D01*
X77427494Y-124031266D01*
X77427495Y-124031265D01*
X77429266Y-124029308D01*
X77434153Y-124019223D01*
X77487071Y-123910000D01*
X89553071Y-123910000D01*
X89573390Y-124012149D01*
X89631253Y-124098747D01*
X89678174Y-124130099D01*
X89681838Y-124132547D01*
X89697613Y-124156156D01*
X89697613Y-124170632D01*
X89691909Y-124199308D01*
X89685051Y-124233785D01*
X89701870Y-124318337D01*
X89737676Y-124371924D01*
X89965848Y-124600096D01*
X90019435Y-124635902D01*
X90103987Y-124652721D01*
X90188539Y-124635902D01*
X90242126Y-124600096D01*
X90372886Y-124469336D01*
X90743573Y-124469336D01*
X90744164Y-124472326D01*
X90798805Y-124526967D01*
X90804022Y-124529128D01*
X90809239Y-124526967D01*
X90869409Y-124466797D01*
X90871509Y-124461726D01*
X90869228Y-124460506D01*
X90828819Y-124452468D01*
X90821651Y-124452468D01*
X90744606Y-124467794D01*
X90743573Y-124469336D01*
X90372886Y-124469336D01*
X90512724Y-124329498D01*
X90548530Y-124275911D01*
X90565349Y-124191359D01*
X90548530Y-124106807D01*
X90512724Y-124053220D01*
X90284552Y-123825048D01*
X90230965Y-123789242D01*
X90146413Y-123772423D01*
X90121697Y-123777339D01*
X90079390Y-123785755D01*
X90051540Y-123780216D01*
X90041308Y-123769984D01*
X90008747Y-123721253D01*
X89922149Y-123663390D01*
X89820000Y-123643071D01*
X89717851Y-123663390D01*
X89631253Y-123721253D01*
X89573390Y-123807851D01*
X89553071Y-123910000D01*
X77487071Y-123910000D01*
X77487652Y-123908801D01*
X77487652Y-123908800D01*
X77488804Y-123906423D01*
X77511458Y-123771767D01*
X77511602Y-123760000D01*
X77511135Y-123756735D01*
X77492619Y-123627447D01*
X77492619Y-123627446D01*
X77492244Y-123624830D01*
X77435727Y-123500527D01*
X77434003Y-123498526D01*
X77434001Y-123498523D01*
X77355438Y-123407347D01*
X77346593Y-123397082D01*
X77264606Y-123343941D01*
X77234230Y-123324252D01*
X77234227Y-123324251D01*
X77232009Y-123322813D01*
X77101185Y-123283688D01*
X77034285Y-123283279D01*
X76967283Y-123282870D01*
X76967282Y-123282870D01*
X76964639Y-123282854D01*
X76962099Y-123283580D01*
X76835886Y-123319651D01*
X76835884Y-123319652D01*
X76833347Y-123320377D01*
X76817368Y-123330459D01*
X76720101Y-123391830D01*
X76720099Y-123391832D01*
X76717864Y-123393242D01*
X76627474Y-123495590D01*
X76569442Y-123619193D01*
X76569036Y-123621801D01*
X76569035Y-123621804D01*
X76565724Y-123643071D01*
X76548434Y-123754116D01*
X76410760Y-123754116D01*
X76392619Y-123627447D01*
X76392619Y-123627446D01*
X76392244Y-123624830D01*
X76335727Y-123500527D01*
X76334003Y-123498526D01*
X76334001Y-123498523D01*
X76255438Y-123407347D01*
X76246593Y-123397082D01*
X76164606Y-123343941D01*
X76134230Y-123324252D01*
X76134227Y-123324251D01*
X76132009Y-123322813D01*
X76001185Y-123283688D01*
X75934285Y-123283279D01*
X75867283Y-123282870D01*
X75867282Y-123282870D01*
X75864639Y-123282854D01*
X75862099Y-123283580D01*
X75735886Y-123319651D01*
X75735884Y-123319652D01*
X75733347Y-123320377D01*
X75717368Y-123330459D01*
X75620101Y-123391830D01*
X75620099Y-123391832D01*
X75617864Y-123393242D01*
X75527474Y-123495590D01*
X75469442Y-123619193D01*
X75469036Y-123621801D01*
X75469035Y-123621804D01*
X75465724Y-123643071D01*
X75448434Y-123754116D01*
X75310760Y-123754116D01*
X75292619Y-123627447D01*
X75292619Y-123627446D01*
X75292244Y-123624830D01*
X75235727Y-123500527D01*
X75234003Y-123498526D01*
X75234001Y-123498523D01*
X75155438Y-123407347D01*
X75146593Y-123397082D01*
X75064606Y-123343941D01*
X75034230Y-123324252D01*
X75034227Y-123324251D01*
X75032009Y-123322813D01*
X74901185Y-123283688D01*
X74834285Y-123283279D01*
X74767283Y-123282870D01*
X74767282Y-123282870D01*
X74764639Y-123282854D01*
X74762099Y-123283580D01*
X74635886Y-123319651D01*
X74635884Y-123319652D01*
X74633347Y-123320377D01*
X74617368Y-123330459D01*
X74520101Y-123391830D01*
X74520099Y-123391832D01*
X74517864Y-123393242D01*
X74427474Y-123495590D01*
X74369442Y-123619193D01*
X74369036Y-123621801D01*
X74369035Y-123621804D01*
X74365724Y-123643071D01*
X74348434Y-123754116D01*
X74210760Y-123754116D01*
X74192619Y-123627447D01*
X74192619Y-123627446D01*
X74192244Y-123624830D01*
X74135727Y-123500527D01*
X74134003Y-123498526D01*
X74134001Y-123498523D01*
X74055438Y-123407347D01*
X74046593Y-123397082D01*
X73964606Y-123343941D01*
X73934230Y-123324252D01*
X73934227Y-123324251D01*
X73932009Y-123322813D01*
X73801185Y-123283688D01*
X73734285Y-123283279D01*
X73667283Y-123282870D01*
X73667282Y-123282870D01*
X73664639Y-123282854D01*
X73662099Y-123283580D01*
X73535886Y-123319651D01*
X73535884Y-123319652D01*
X73533347Y-123320377D01*
X73517368Y-123330459D01*
X73420101Y-123391830D01*
X73420099Y-123391832D01*
X73417864Y-123393242D01*
X73327474Y-123495590D01*
X73269442Y-123619193D01*
X73269036Y-123621801D01*
X73269035Y-123621804D01*
X73265724Y-123643071D01*
X73248434Y-123754116D01*
X69200000Y-123754116D01*
X69200000Y-122554116D01*
X71048434Y-122554116D01*
X71048776Y-122556732D01*
X71048776Y-122556735D01*
X71056563Y-122616282D01*
X71066139Y-122689512D01*
X71121134Y-122814497D01*
X71122834Y-122816519D01*
X71122835Y-122816521D01*
X71188692Y-122894867D01*
X71208997Y-122919023D01*
X71211201Y-122920490D01*
X71320463Y-122993222D01*
X71320467Y-122993224D01*
X71322665Y-122994687D01*
X71453001Y-123035407D01*
X71519913Y-123036633D01*
X71586883Y-123037861D01*
X71586886Y-123037861D01*
X71589527Y-123037909D01*
X71592076Y-123037214D01*
X71592077Y-123037214D01*
X71718719Y-123002687D01*
X71718721Y-123002686D01*
X71721267Y-123001992D01*
X71723518Y-123000610D01*
X71723520Y-123000609D01*
X71835378Y-122931928D01*
X71837632Y-122930544D01*
X71877232Y-122886795D01*
X71927494Y-122831266D01*
X71927495Y-122831265D01*
X71929266Y-122829308D01*
X71931894Y-122823885D01*
X71987652Y-122708801D01*
X71987652Y-122708800D01*
X71988804Y-122706423D01*
X72011458Y-122571767D01*
X72011602Y-122560000D01*
X72011135Y-122556735D01*
X72010760Y-122554116D01*
X72148434Y-122554116D01*
X72148776Y-122556732D01*
X72148776Y-122556735D01*
X72156563Y-122616282D01*
X72166139Y-122689512D01*
X72221134Y-122814497D01*
X72222834Y-122816519D01*
X72222835Y-122816521D01*
X72288692Y-122894867D01*
X72308997Y-122919023D01*
X72311201Y-122920490D01*
X72420463Y-122993222D01*
X72420467Y-122993224D01*
X72422665Y-122994687D01*
X72553001Y-123035407D01*
X72619913Y-123036633D01*
X72686883Y-123037861D01*
X72686886Y-123037861D01*
X72689527Y-123037909D01*
X72692076Y-123037214D01*
X72692077Y-123037214D01*
X72818719Y-123002687D01*
X72818721Y-123002686D01*
X72821267Y-123001992D01*
X72823518Y-123000610D01*
X72823520Y-123000609D01*
X72935378Y-122931928D01*
X72937632Y-122930544D01*
X72977232Y-122886795D01*
X73027494Y-122831266D01*
X73027495Y-122831265D01*
X73029266Y-122829308D01*
X73031894Y-122823885D01*
X73087652Y-122708801D01*
X73087652Y-122708800D01*
X73088804Y-122706423D01*
X73111458Y-122571767D01*
X73111602Y-122560000D01*
X73111135Y-122556735D01*
X73110760Y-122554116D01*
X73248434Y-122554116D01*
X73248776Y-122556732D01*
X73248776Y-122556735D01*
X73256563Y-122616282D01*
X73266139Y-122689512D01*
X73321134Y-122814497D01*
X73322834Y-122816519D01*
X73322835Y-122816521D01*
X73388692Y-122894867D01*
X73408997Y-122919023D01*
X73411201Y-122920490D01*
X73520463Y-122993222D01*
X73520467Y-122993224D01*
X73522665Y-122994687D01*
X73653001Y-123035407D01*
X73719913Y-123036633D01*
X73786883Y-123037861D01*
X73786886Y-123037861D01*
X73789527Y-123037909D01*
X73792076Y-123037214D01*
X73792077Y-123037214D01*
X73918719Y-123002687D01*
X73918721Y-123002686D01*
X73921267Y-123001992D01*
X73923518Y-123000610D01*
X73923520Y-123000609D01*
X74035378Y-122931928D01*
X74037632Y-122930544D01*
X74077232Y-122886795D01*
X74127494Y-122831266D01*
X74127495Y-122831265D01*
X74129266Y-122829308D01*
X74131894Y-122823885D01*
X74187652Y-122708801D01*
X74187652Y-122708800D01*
X74188804Y-122706423D01*
X74211458Y-122571767D01*
X74211602Y-122560000D01*
X74211135Y-122556735D01*
X74210760Y-122554116D01*
X74348434Y-122554116D01*
X74348776Y-122556732D01*
X74348776Y-122556735D01*
X74356563Y-122616282D01*
X74366139Y-122689512D01*
X74421134Y-122814497D01*
X74422834Y-122816519D01*
X74422835Y-122816521D01*
X74488692Y-122894867D01*
X74508997Y-122919023D01*
X74511201Y-122920490D01*
X74620463Y-122993222D01*
X74620467Y-122993224D01*
X74622665Y-122994687D01*
X74753001Y-123035407D01*
X74819913Y-123036633D01*
X74886883Y-123037861D01*
X74886886Y-123037861D01*
X74889527Y-123037909D01*
X74892076Y-123037214D01*
X74892077Y-123037214D01*
X75018719Y-123002687D01*
X75018721Y-123002686D01*
X75021267Y-123001992D01*
X75023518Y-123000610D01*
X75023520Y-123000609D01*
X75135378Y-122931928D01*
X75137632Y-122930544D01*
X75177232Y-122886795D01*
X75227494Y-122831266D01*
X75227495Y-122831265D01*
X75229266Y-122829308D01*
X75231894Y-122823885D01*
X75287652Y-122708801D01*
X75287652Y-122708800D01*
X75288804Y-122706423D01*
X75311458Y-122571767D01*
X75311602Y-122560000D01*
X75311135Y-122556735D01*
X75310760Y-122554116D01*
X75448434Y-122554116D01*
X75448776Y-122556732D01*
X75448776Y-122556735D01*
X75456563Y-122616282D01*
X75466139Y-122689512D01*
X75521134Y-122814497D01*
X75522834Y-122816519D01*
X75522835Y-122816521D01*
X75588692Y-122894867D01*
X75608997Y-122919023D01*
X75611201Y-122920490D01*
X75720463Y-122993222D01*
X75720467Y-122993224D01*
X75722665Y-122994687D01*
X75853001Y-123035407D01*
X75919913Y-123036633D01*
X75986883Y-123037861D01*
X75986886Y-123037861D01*
X75989527Y-123037909D01*
X75992076Y-123037214D01*
X75992077Y-123037214D01*
X76118719Y-123002687D01*
X76118721Y-123002686D01*
X76121267Y-123001992D01*
X76123518Y-123000610D01*
X76123520Y-123000609D01*
X76235378Y-122931928D01*
X76237632Y-122930544D01*
X76277232Y-122886795D01*
X76327494Y-122831266D01*
X76327495Y-122831265D01*
X76329266Y-122829308D01*
X76331894Y-122823885D01*
X76387652Y-122708801D01*
X76387652Y-122708800D01*
X76388804Y-122706423D01*
X76411458Y-122571767D01*
X76411602Y-122560000D01*
X76411135Y-122556735D01*
X76410760Y-122554116D01*
X76548434Y-122554116D01*
X76548776Y-122556732D01*
X76548776Y-122556735D01*
X76556563Y-122616282D01*
X76566139Y-122689512D01*
X76621134Y-122814497D01*
X76622834Y-122816519D01*
X76622835Y-122816521D01*
X76688692Y-122894867D01*
X76708997Y-122919023D01*
X76711201Y-122920490D01*
X76820463Y-122993222D01*
X76820467Y-122993224D01*
X76822665Y-122994687D01*
X76953001Y-123035407D01*
X77019913Y-123036633D01*
X77086883Y-123037861D01*
X77086886Y-123037861D01*
X77089527Y-123037909D01*
X77092076Y-123037214D01*
X77092077Y-123037214D01*
X77218719Y-123002687D01*
X77218721Y-123002686D01*
X77221267Y-123001992D01*
X77223518Y-123000610D01*
X77223520Y-123000609D01*
X77335378Y-122931928D01*
X77337632Y-122930544D01*
X77377232Y-122886795D01*
X77427494Y-122831266D01*
X77427495Y-122831265D01*
X77429266Y-122829308D01*
X77431894Y-122823885D01*
X77487652Y-122708801D01*
X77487652Y-122708800D01*
X77488804Y-122706423D01*
X77511458Y-122571767D01*
X77511602Y-122560000D01*
X77511135Y-122556735D01*
X77492619Y-122427447D01*
X77492619Y-122427446D01*
X77492244Y-122424830D01*
X77435727Y-122300527D01*
X77434003Y-122298526D01*
X77434001Y-122298523D01*
X77348316Y-122199082D01*
X77346593Y-122197082D01*
X77277837Y-122152517D01*
X77234230Y-122124252D01*
X77234227Y-122124251D01*
X77232009Y-122122813D01*
X77101185Y-122083688D01*
X77034285Y-122083279D01*
X76967283Y-122082870D01*
X76967282Y-122082870D01*
X76964639Y-122082854D01*
X76959069Y-122084446D01*
X76835886Y-122119651D01*
X76835884Y-122119652D01*
X76833347Y-122120377D01*
X76831110Y-122121788D01*
X76831111Y-122121788D01*
X76720101Y-122191830D01*
X76720099Y-122191832D01*
X76717864Y-122193242D01*
X76627474Y-122295590D01*
X76569442Y-122419193D01*
X76569036Y-122421801D01*
X76569035Y-122421804D01*
X76567994Y-122428490D01*
X76548434Y-122554116D01*
X76410760Y-122554116D01*
X76392619Y-122427447D01*
X76392619Y-122427446D01*
X76392244Y-122424830D01*
X76335727Y-122300527D01*
X76334003Y-122298526D01*
X76334001Y-122298523D01*
X76248316Y-122199082D01*
X76246593Y-122197082D01*
X76177837Y-122152517D01*
X76134230Y-122124252D01*
X76134227Y-122124251D01*
X76132009Y-122122813D01*
X76001185Y-122083688D01*
X75934285Y-122083279D01*
X75867283Y-122082870D01*
X75867282Y-122082870D01*
X75864639Y-122082854D01*
X75859069Y-122084446D01*
X75735886Y-122119651D01*
X75735884Y-122119652D01*
X75733347Y-122120377D01*
X75731110Y-122121788D01*
X75731111Y-122121788D01*
X75620101Y-122191830D01*
X75620099Y-122191832D01*
X75617864Y-122193242D01*
X75527474Y-122295590D01*
X75469442Y-122419193D01*
X75469036Y-122421801D01*
X75469035Y-122421804D01*
X75467994Y-122428490D01*
X75448434Y-122554116D01*
X75310760Y-122554116D01*
X75292619Y-122427447D01*
X75292619Y-122427446D01*
X75292244Y-122424830D01*
X75235727Y-122300527D01*
X75234003Y-122298526D01*
X75234001Y-122298523D01*
X75148316Y-122199082D01*
X75146593Y-122197082D01*
X75077837Y-122152517D01*
X75034230Y-122124252D01*
X75034227Y-122124251D01*
X75032009Y-122122813D01*
X74901185Y-122083688D01*
X74834285Y-122083279D01*
X74767283Y-122082870D01*
X74767282Y-122082870D01*
X74764639Y-122082854D01*
X74759069Y-122084446D01*
X74635886Y-122119651D01*
X74635884Y-122119652D01*
X74633347Y-122120377D01*
X74631110Y-122121788D01*
X74631111Y-122121788D01*
X74520101Y-122191830D01*
X74520099Y-122191832D01*
X74517864Y-122193242D01*
X74427474Y-122295590D01*
X74369442Y-122419193D01*
X74369036Y-122421801D01*
X74369035Y-122421804D01*
X74367994Y-122428490D01*
X74348434Y-122554116D01*
X74210760Y-122554116D01*
X74192619Y-122427447D01*
X74192619Y-122427446D01*
X74192244Y-122424830D01*
X74135727Y-122300527D01*
X74134003Y-122298526D01*
X74134001Y-122298523D01*
X74048316Y-122199082D01*
X74046593Y-122197082D01*
X73977837Y-122152517D01*
X73934230Y-122124252D01*
X73934227Y-122124251D01*
X73932009Y-122122813D01*
X73801185Y-122083688D01*
X73734285Y-122083279D01*
X73667283Y-122082870D01*
X73667282Y-122082870D01*
X73664639Y-122082854D01*
X73659069Y-122084446D01*
X73535886Y-122119651D01*
X73535884Y-122119652D01*
X73533347Y-122120377D01*
X73531110Y-122121788D01*
X73531111Y-122121788D01*
X73420101Y-122191830D01*
X73420099Y-122191832D01*
X73417864Y-122193242D01*
X73327474Y-122295590D01*
X73269442Y-122419193D01*
X73269036Y-122421801D01*
X73269035Y-122421804D01*
X73267994Y-122428490D01*
X73248434Y-122554116D01*
X73110760Y-122554116D01*
X73092619Y-122427447D01*
X73092619Y-122427446D01*
X73092244Y-122424830D01*
X73035727Y-122300527D01*
X73034003Y-122298526D01*
X73034001Y-122298523D01*
X72948316Y-122199082D01*
X72946593Y-122197082D01*
X72877837Y-122152517D01*
X72834230Y-122124252D01*
X72834227Y-122124251D01*
X72832009Y-122122813D01*
X72701185Y-122083688D01*
X72634285Y-122083279D01*
X72567283Y-122082870D01*
X72567282Y-122082870D01*
X72564639Y-122082854D01*
X72559069Y-122084446D01*
X72435886Y-122119651D01*
X72435884Y-122119652D01*
X72433347Y-122120377D01*
X72431110Y-122121788D01*
X72431111Y-122121788D01*
X72320101Y-122191830D01*
X72320099Y-122191832D01*
X72317864Y-122193242D01*
X72227474Y-122295590D01*
X72169442Y-122419193D01*
X72169036Y-122421801D01*
X72169035Y-122421804D01*
X72167994Y-122428490D01*
X72148434Y-122554116D01*
X72010760Y-122554116D01*
X71992619Y-122427447D01*
X71992619Y-122427446D01*
X71992244Y-122424830D01*
X71935727Y-122300527D01*
X71934003Y-122298526D01*
X71934001Y-122298523D01*
X71848316Y-122199082D01*
X71846593Y-122197082D01*
X71777837Y-122152517D01*
X71734230Y-122124252D01*
X71734227Y-122124251D01*
X71732009Y-122122813D01*
X71601185Y-122083688D01*
X71534285Y-122083279D01*
X71467283Y-122082870D01*
X71467282Y-122082870D01*
X71464639Y-122082854D01*
X71459069Y-122084446D01*
X71335886Y-122119651D01*
X71335884Y-122119652D01*
X71333347Y-122120377D01*
X71331110Y-122121788D01*
X71331111Y-122121788D01*
X71220101Y-122191830D01*
X71220099Y-122191832D01*
X71217864Y-122193242D01*
X71127474Y-122295590D01*
X71069442Y-122419193D01*
X71069036Y-122421801D01*
X71069035Y-122421804D01*
X71067994Y-122428490D01*
X71048434Y-122554116D01*
X69200000Y-122554116D01*
X69200000Y-115737100D01*
X69210866Y-115710866D01*
X69237100Y-115700000D01*
X82348100Y-115700000D01*
X82374334Y-115710866D01*
G37*
%TD.AperFunction*%
%TD*%
M02*
